<?xml version="1.0" encoding="utf-8"?>
<!-- Generator: Adobe Illustrator 23.0.5, SVG Export Plug-In . SVG Version: 6.00 Build 0)  -->
<svg version="1.1" id="Layer_1" xmlns="http://www.w3.org/2000/svg" xmlns:xlink="http://www.w3.org/1999/xlink" x="0px" y="0px"
	 viewBox="0 0 539.96 539.96" style="enable-background:new 0 0 539.96 539.96;" xml:space="preserve">
<style type="text/css">
	.st0{opacity:0.6;}
	.st1{fill:none;stroke:#170D07;stroke-width:3;stroke-linecap:round;stroke-miterlimit:10;stroke-dasharray:12.8099,14.7806;}
	.st2{fill:#170D07;}
	.st3{fill:none;stroke:#B56C31;stroke-width:3;stroke-linecap:round;stroke-miterlimit:10;stroke-dasharray:12.8099,14.7806;}
	.st4{fill:#B56C31;}
	.st5{opacity:0.46;}
	.st6{fill:none;stroke:#27170D;stroke-width:3;stroke-linecap:round;stroke-miterlimit:10;stroke-dasharray:0.9999,8.9993;}
	.st7{fill:#27170D;}
	.st8{fill:none;stroke:#B56C31;stroke-width:3;stroke-linecap:round;stroke-miterlimit:10;stroke-dasharray:0.9999,8.9993;}
	.st9{fill:none;stroke:#B56C31;stroke-width:2;stroke-linecap:round;stroke-miterlimit:10;stroke-dasharray:0.9999,50;}
</style>
<g>
	<g class="st0">
		<g>
			<g>
				<path class="st1" d="M249,193.49c34.53-9.9,72.55,4.9,90.69,37.66c21.11,38.12,7.32,86.13-30.8,107.24
					c-38.12,21.11-86.13,7.32-107.24-30.8c-21.11-38.12-7.32-86.13,30.8-107.24"/>
				<g>
					<polygon class="st2" points="261.03,201.05 252.57,192.44 252.9,180.37 232.46,200.35 					"/>
				</g>
			</g>
		</g>
	</g>
	<g>
		<g>
			<g>
				<path class="st3" d="M249,192.29c34.53-9.9,72.55,4.9,90.69,37.66c21.11,38.12,7.32,86.13-30.8,107.24
					c-38.12,21.11-86.13,7.32-107.24-30.8c-21.11-38.12-7.32-86.13,30.8-107.24"/>
				<g>
					<polygon class="st4" points="261.03,199.85 252.57,191.24 252.9,179.17 232.46,199.15 					"/>
				</g>
			</g>
		</g>
	</g>
	<g class="st5">
		<g>
			<g>
				<path class="st6" d="M363.09,353.19c-40.45,45.24-109.03,55.09-161.06,20.53c-57.08-37.92-72.62-114.93-34.7-172.01
					c37.92-57.08,114.93-72.62,172.01-34.7s72.62,114.93,34.7,172.01"/>
				<g>
					<polygon class="st7" points="348.97,352.75 360.61,355.95 366.39,366.55 374.04,339.01 					"/>
				</g>
			</g>
		</g>
	</g>
	<g class="st5">
		<g>
			<g>
				<path class="st8" d="M363.09,351.99c-40.45,45.24-109.03,55.09-161.06,20.53c-57.08-37.92-72.62-114.93-34.7-172.01
					c37.92-57.08,114.93-72.62,172.01-34.7s72.62,114.93,34.7,172.01"/>
				<g>
					<polygon class="st4" points="348.97,351.55 360.61,354.76 366.39,365.35 374.04,337.82 					"/>
				</g>
			</g>
		</g>
	</g>
	<g class="st5">
		<ellipse class="st9" cx="270.68" cy="270.26" rx="257.13" ry="257.13"/>
	</g>
</g>
</svg>
