<?xml version="1.0" encoding="utf-8"?>
<!-- Generator: Adobe Illustrator 23.0.5, SVG Export Plug-In . SVG Version: 6.00 Build 0)  -->
<svg version="1.1" id="Layer_1" xmlns="http://www.w3.org/2000/svg" xmlns:xlink="http://www.w3.org/1999/xlink" x="0px" y="0px"
	 viewBox="0 0 415.8 243.7" style="enable-background:new 0 0 415.8 243.7;" xml:space="preserve">
<style type="text/css">
	.st0{fill:#193842;}
</style>
<g>
	<path class="st0" d="M90.7,134.8c-1-1.3-2.1-2.6-2.9-4c-0.9-1.5-1.9-1.9-3.7-1.7c-3,0.4-6.1,0.4-9.2,0.5c-0.2,0-0.3-0.2-0.9-0.5
		c4.1-1.4,8,0.1,11.8-1c-0.1-1.2-1-1.2-1.9-1.1c-3.8,0.3-7.6,0.5-11.3,0.8c-0.6,0-1.2,0-2,0c0.8-0.4,1.3-0.7,2.2-1.2
		c-1.2,0.1-2,0.2-2.8,0.2c0-0.1-0.1-0.3-0.1-0.4c1.5-0.4,2.9-0.8,4.4-1.2c0-0.1,0-0.2,0-0.3c-2.4,0.3-4.9,0.7-7.5,1
		c0.8-0.4,1.4-0.6,1.9-0.9c0-0.1-0.1-0.2-0.1-0.3c-1.6,0.2-3.2,0.4-4.8,0.6c0-0.1,0-0.1-0.1-0.2c0.3-0.2,0.6-0.4,1.2-0.8
		c-1.2,0-2,0-2.9,0c0-0.1,0-0.2,0-0.3c1.8-0.4,3.5-0.8,5.3-1.1c0-0.1,0-0.3-0.1-0.4c-1.5,0.2-3,0.4-4.4,0.6
		c-0.1-0.1-0.2-0.2-0.4-0.3c0.3-0.4,0.6-0.9,1-1c1.5-0.6,3-1.1,4.4-1.9c-1.7,0.2-3.4,0.4-5.2,0.7c0.1-0.3,0.3-0.5,0.4-0.7
		c-0.8,0.1-1.5,0.1-2.6,0.2c1-0.4,1.5-0.7,2.4-1.1c-0.8-0.3-1.4-0.5-2-0.7c1-0.4,2-0.8,3-1.2c0-0.1,0-0.2-0.1-0.3
		c-1,0.1-2.1,0.2-3.1,0.4c0-0.1-0.1-0.3-0.1-0.4c1.5-0.7,3-1.4,4.8-2.3c-1.3-0.1-2.3-0.1-3.2-0.2c0-0.2,0-0.3-0.1-0.5
		c3.9-1.7,8.2-1.6,12.1-3.3c-1.5,0.1-3,0.1-4.5,0.3c-2.7,0.3-5.5,0.7-8.2,1c-0.7,0.1-1.4-0.2-2.1-0.3c0-0.2,0-0.4,0.1-0.7
		c4.3-0.4,8.6-0.9,13.2-1.3c-0.4-0.9-0.7-1.6-1.1-2.2c-2.9-4.6-5.9-9.2-8.9-13.8c-2.9-4.4-5.2-9.3-8.8-13c-3-3.2-4.4-7.1-6.9-10.4
		c-4-5.1-8-10.3-11.4-15.7c-1.5-2.4-3.3-4.5-5.2-6.6c-1.7-1.8-2.8-4.1-4.2-6.1c-0.8-1.2-1.8-2.2-2.6-3.3c0.1-0.1,0.3-0.3,0.4-0.4
		c0.7,0.7,1.4,1.5,2.1,2.2c6.9,8.2,13.2,16.9,19.2,25.8c5.3,7.9,10.9,15.8,16.1,23.8c3.6,5.4,6.9,11,10.3,16.5c0.6,1,1.3,2.1,2.3,3
		c-0.1-0.3-0.1-0.6-0.2-0.9c-1-1.8-1.9-3.6-3-5.2C60.3,87.9,49.9,72.5,39.5,57.1c-3.8-5.6-7.8-11.2-11.7-16.8c-1.4-2-2-4.3-2.7-6.6
		c-0.7-2.1,1.1-3.6,0.2-5.3c0.9-0.5,1.6-1,2.4-1.4c3.1,1.1,6.4,1.9,8.3,5.2c0.1-0.2,0.3-0.3,0.4-0.5c-0.6-0.8-1.2-1.8-1.9-2.4
		c-1.2-1-1.8-2.2-1.4-4.1c1.6,1.5,3,2.8,4.4,4.2c0.1-0.1,0.3-0.3,0.4-0.4c-1-1.3-2.1-2.6-3-3.8c0.2-0.7,0.4-1.4,0.7-2.1
		c0.4,0.6,0.9,1.3,1.5,1.9c1.5,1.5,2.9,3.6,4.8,4.1c2.7,0.8,3.7,3.8,6.3,4.4l-0.1-0.1c0.9,0.9,1.7,1.9,2.7,2.7
		c6.2,5.1,13.3,8.9,20.4,12.5C81.5,53.9,92,58.6,103,61.9c13,4,26.3,7,39.6,10c5.2,1.2,10.4,2.5,15.5,4.1c6,1.9,10.1,5.9,11.4,12.9
		c3.5-10.1,4.1-20.4,6.4-30.2c0.1-0.2,0.1-0.5,0.2-0.7c1-4.2,1.9-8.4,2.9-12.6c0.8-3.4,1.6-6.7,2.7-10c1.1-3.1,2.6-6.1,4-9.1
		c0,0.3-0.1,0.6-0.2,1.2c1.3-1.4,2.5-2.7,3.6-3.9c1.2,1.6-0.4,3.4-0.1,5.3c1.1-1.8,2.2-3.6,3.2-5.3c0.1,0.1,0.2,0.1,0.3,0.2
		c-0.1,0.2-0.1,0.4-0.2,0.7c-0.1,0.2-0.3,0.4,0,0.5c0.2,0.6,0.5,1.2,0.7,1.9c0.3-0.5,0.6-0.9,0.9-1.4c0.1,0,0.2,0,0.2,0.1
		c-0.1,0.7-0.2,1.4-0.3,2.1c0.2,0,0.4,0.1,0.5,0.1c1-1,2.1-1.9,3.1-2.9c0.3-0.3,0.7-0.7,1-1c0.1,0.4,0.2,0.9,0.2,1.3
		c0,0.2,0,0.4,0,0.8c0.3-0.3,0.5-0.5,0.9-1c0,1.5,0,2.8,0,4c0.1,0,0.2,0,0.2,0c0.6-1.1,1.2-2.3,1.7-3.4c0.1,0,0.2,0.1,0.4,0.1
		c-0.3,2.1-0.6,4.3-0.9,6.6c0.7-1.5,1.4-2.8,2-4.1c0.1,0,0.2,0.1,0.3,0.1c-0.2,0.8-0.4,1.6-0.5,2.5c0.1,0,0.3,0,0.4-0.1
		c0.2,0.6,0.6,1.2,0.6,1.7c-0.4,3.9-0.9,7.8-1.3,11.8c-1.3,11.3-1.6,22.7,0.6,34c2.1,11,4,22,7.1,32.8c1.2,4.2,2.8,8.3,4.2,12.4
		c0.1,0.4,0.8,0.9,1.2,0.9c2.7,0.1,5.4,0,8.1,0c-4.2-19.8-7.1-39.7-0.2-59.5c0.7-1.4,1.4-2.9,2.2-4.3c0.5-0.8,1.1-1.6,1.6-2.4
		c2.7-4.5,6.3-8,10.8-10.8c1.5-0.9,4.4-1.4,5.9-1c-0.3-1.9,0.2-3.8-0.9-5.5c-0.4-0.7-0.4-1.8-0.4-2.7c-0.2-2-0.3-4-0.4-6
		c0-0.4,0.4-0.8,0.6-1.3c0.2,0.4,0.5,0.9,0.6,1.3c0.1,0.9,0,1.9,0.3,2.8c0.3-2.8,0.9-5.4,2.9-7.4c1.9,1.7,3.2-0.4,4.8-0.7
		c0.2,0.6,0.5,1.3,0.9,2.3c0.2-0.9,0.3-1.5,0.4-1.9c0.9,0.1,1.7,0.2,2.4,0.2c0.7,0,1.5,0,2.5,0c0.8,1.3,1.9,2.9,2.9,4.5
		c0.1-0.1,0.3-0.1,0.4-0.2c-0.3-0.8-0.5-1.6-0.8-2.4c0.1-0.1,0.2-0.2,0.3-0.3c0.3,0.4,0.8,0.8,1,1.2c0.6,1.7,1,3.4,1.5,5.1
		c0.2,0.6,0.7,1.2,1.3,1.7c-0.7-2.3-1.5-4.5-2.2-6.8c0.1,0,0.2,0,0.3,0c2.2,4.8,4.3,9.5,6.5,14.3c3.6,7.9,5.7,16.2,5.3,25
		c-0.1,1.6,0.2,3.2,0.2,4.9c0.1,4.1,0.2,8.1,0.1,12.2c-0.1,2.7,0.1,5.2,0.7,7.9c0.5,2,0.4,4.2,0.5,6.1c-0.2-0.4-0.5-1-1-1.9
		c-0.1,0.6-0.1,1-0.2,1.5c-0.3-0.5-0.6-0.8-1.1-1.6c0.1,0.9,0.1,1.3,0.2,1.7c-0.3-0.2-0.5-0.3-0.9-0.6c0.1,0.9,0.2,1.5,0.3,2.4
		c-0.4-0.5-0.7-0.8-1-1.1c-0.2,0-0.3,0-0.5,0c0,4.9,0,9.7,0,14.6c-0.1,0-0.2,0-0.3,0c0-4,0-8.1,0-12.1c-0.1,0-0.2,0-0.3-0.1
		c-0.2,0.5-0.3,0.9-0.5,1.4c-0.2-0.2-0.3-0.4-0.6-0.6c-0.2,0.9-0.4,1.7-0.7,2.7c-0.3-0.4-0.5-0.7-0.8-1.1c-0.2,0.3-0.3,0.5-0.6,1.2
		c-0.1-0.9-0.2-1.4-0.3-1.8c-0.2-0.1-0.3-0.1-0.5-0.2c-0.4,1-0.8,2.1-1.2,3.1c-1.1-1.4-1.3,0.1-1.9,1.3c-0.1-1.1-0.1-1.7-0.1-2.2
		c-0.1,0-0.3,0-0.4,0c-1.1,3.8-0.2,7.7-0.8,11.5c-0.3-4.4,0.4-9-0.8-13.4c-1,2.3-0.6,4.7-0.6,7.1c-0.1,0-0.3,0-0.4,0
		c-0.1-1.9-0.2-3.9-0.4-5.8c-0.1,0-0.3,0-0.4,0c-0.1,0.3-0.2,0.7-0.3,1.1c-0.1-0.4-0.3-0.8-0.4-1.3c-0.2,0.3-0.4,0.5-0.6,0.8
		c-0.1-0.4-0.2-0.7-0.4-1.2c-1.6,2.7-0.2,5.3-0.6,8c-0.5-2.6-0.9-4.9-1.4-7.5c-0.4,0.4-0.7,0.6-1.1,1c0-0.4,0-0.8,0-1.1
		c-0.3,0.1-0.5,0.2-0.6,0.3c-0.3-2.5-0.5-4.9-0.8-7.4c0-0.3-0.4-0.6-0.6-0.9c-0.2,0.1-0.3,0.1-0.5,0.2c0.4-2.7,0.8-5.3,1.3-8
		c0.9-4.5,0.7-9,0.4-13.6c-0.2-3-1.4-5.6-2.4-8.4c-0.3-0.9-0.6-1.8-1.1-3.2c-0.1,0.7-0.3,1.1-0.2,1.4c2,4.3,3,8.8,3.3,13.4
		c0.3,4.4-0.3,8.7-1.7,12.9c-0.1,0.3-0.3,0.5-0.7,0.7c3.4-9,1.4-17.7-1.2-26.8c-0.8,0.7-1.6,1.3-2.1,2c-3.4,5.1-5.4,10.8-6.4,16.8
		c-2.3,13.3-0.5,26.3,3,39c3,10.9,7.6,21.2,14.7,30.1c1.4,1.8,3,3.4,4.6,5c2,2.1,4.6,2.8,7.3,3.1c0.6,0.1,1.4-0.2,1.9-0.6
		c0.8-0.7,1.5-1.7,2.4-2.4c-0.8,1-1.4,2.3-2.4,2.9c-1,0.6-2.5,0.5-3.6,0.6c1.4,1.5,3.4,1.3,5-0.9c2-2.7,2.9-5.9,3-9.3
		c0.1-4.1-0.6-8.2-1.7-12.2c-0.5-1.8-0.4-3.8-0.5-6.1c0.5,0.9,0.7,1.4,1.2,2.3c-0.1-0.7-0.1-1-0.1-1.3c0.2-0.1,0.3-0.1,0.5-0.2
		c0.5,1.2,1,2.3,1.6,3.5c0.2,0,0.3,0,0.5-0.1c-0.1-1.3-0.2-2.6-0.4-3.9c0.1,0,0.1,0.1,0.2,0.1c0.1-0.5,0.2-1,0.3-1.3
		c0.7-0.3,1.4-0.7,2.2-1c0,0,0-0.3,0-1c0.6,1,1.1,1.8,1.5,2.5c0.1,0,0.2,0,0.3,0c-0.1-0.9-0.1-1.9-0.2-2.8c0.3,0,0.6-0.1,1.1-0.2
		c0.2,0.4,0.5,0.9,0.8,1.4c0.1,0,0.2,0,0.3-0.1c-0.1-0.9-0.1-1.7-0.2-2.6c0.3,0,0.6,0,0.8,0.1c0.4,0.5,0.7,1.1,1.1,1.6
		c0.1-0.1,0.3-0.1,0.4-0.2c-1.8-8.2-3.6-16.4-5.4-24.6c-0.1,0-0.3,0.1-0.4,0.1c0,0.2-0.1,0.3,0,0.5c1.4,6.3,2.8,12.5,4.1,18.8
		c-0.4-1.5-0.9-3-1.3-4.6c-2.7-10.9-5.5-21.9-8.2-32.9c-0.4-1.5-0.5-3-0.7-4.6c0.2,0,0.3-0.1,0.5-0.1c1.1,4.7,2.2,9.4,3.2,14.1
		c0.1,0,0.3-0.1,0.4-0.1c-0.2-1.1-0.5-2.2-0.7-3.3c-1.3-8.1-2.7-16.1-3.7-24.2c-0.4-3.3,0-6.7,0.1-10.1c0.2,0,0.3,0,0.5,0
		c0.1,0.4,0.2,0.8,0.4,1.7c0.2-1,0.3-1.6,0.5-2.1c0.7-2.9,1.3-5.9,2-8.8c0-0.2,0.1-0.5,0.2-0.6c2.3-0.8,1.7-3,2.3-4.6
		c0.2-0.6,0.5-1.2,0.9-1.8c-0.1,0.7-0.3,1.5-0.4,2.2c0.2,0.1,0.4,0.2,0.6,0.2c1.2-2.4,2.3-4.8,3.6-7.6c0.1,0.8,0.1,1.3,0.2,1.8
		c0.3-0.1,0.4-0.2,0.6-0.3c0,1-0.1,2-0.2,3.1c0.3-0.4,0.7-0.8,1.3-1.4c0.1,0.6,0.2,1.1,0.3,1.7c0.9-1.7,1.8-3.3,2.6-4.8
		c0.4,0.4,0.8,0.7,1.3,1.1c-0.3,2.7-0.6,5.5-0.8,8.4c0.1,0,0.2,0,0.3,0c0.4-1.6,0.7-3.3,1.1-4.9c0.1,0,0.2,0,0.4,0.1
		c-0.2,2.5-0.4,5.1-0.6,7.6c0.2,0,0.5,0.1,0.7,0.1c0.3-1.2,0.6-2.3,0.9-3.5c0.2,0,0.3,0,0.5,0c0,2.7,0,5.4,0,8.2c0.1,0,0.2,0,0.4,0
		c0.4-1.4,0.8-2.7,1.3-4.1c0.2,0,0.3,0,0.5,0c0,2.9,0,5.9,0,8.8c0.1,0,0.2,0,0.4,0c0.1-1.8,0.2-3.5,0.3-5.3c0.2,0,0.4,0,0.7,0
		c0.6,6.8,1.3,13.7,1.8,19.1c0.2-2.1,0.6-5.5,1.1-9c0.1-0.4,0.7-0.7,1.3-0.9c-3,14.6-1.9,28.9,1.1,43.1c12-6,24-12,36.2-18.2
		c-2.3-1.5-4.6-3.1-6.8-4.6c-0.1,0.1-0.2,0.3-0.3,0.4c1.3,1.1,2.5,2.1,3.8,3.2c-4.8-1.5-20.5-13.7-20.4-15.9c2,1.5,3.9,3,5.8,4.5
		c2.6,2.7,5.6,4.9,9,6.6c-3-2.2-5.9-4.5-8.9-6.7c-1.9-2.2-3.9-4.2-5.6-6.5c-1.9-2.6-3.5-5.4-5.4-8.4c0.6,0.1,0.9,0.2,1.2,0.2
		c-0.3-0.5-0.6-0.9-1-1.5c0.6,0.2,1,0.3,1.5,0.4c-0.4-0.8-0.8-1.5-1.1-2.3c1.4,0.2,1.5-0.9,1.9-1.7c0.6-1.1,1.1-2.3,1.8-3.7
		c0.2,0.7,0.4,1,0.4,1.2c1.4-0.9,2.6-2.1,4.1-2.7c1.8-0.7,3.5-0.2,4.7,1.7c0.1-0.1,0.2-0.2,0.3-0.4c-0.3-0.6-0.6-1.2-0.9-1.9
		c1,0.3,1.8,0.5,2.9,0.8c-0.2-0.6-0.4-1.1-0.7-2.1c1,1.2,1.7,2,2.4,2.8c0.1-0.1,0.2-0.1,0.3-0.2c-0.2-0.6-0.4-1.2-0.7-2.1
		c1.1,1.6,2,2.9,3,4.2c0.1-0.1,0.3-0.1,0.4-0.2c-0.5-1.2-1-2.4-1.5-3.6c4.7,9,11.2,16.1,19.9,21.3c3.4,2,6.7,4.2,10.1,6.2
		c2.8,1.7,5.9,2.9,8.5,4.8c5.1,3.7,9.9,7.7,14.9,11.5c-0.1,0.2-0.1,0.3-0.2,0.5c-0.4,0.1-0.9,0.1-1.4,0.2c0.5,1,0.9,1.8,1.5,3
		c-1.2-0.4-2.3-0.7-3.3-1c0,0.1-0.1,0.2-0.1,0.3c0.9,0.5,1.7,1,2.9,1.8c-0.9-0.1-1.4-0.2-1.6-0.3c0.2,0.8,0.7,1.5,0.7,2.3
		c0,2-1.2,1.7-2.5,1.3c-0.7-0.3-1.4-0.4-2.1-0.7c-0.1,0.1-0.1,0.3-0.2,0.4c1,0.6,2,1.1,3,1.7c-0.1,0.2-0.1,0.3-0.2,0.5
		c-1.7-0.4-3.3-0.7-5-1.1c-0.1,0.1-0.1,0.3-0.2,0.4c0.9,0.6,1.9,1.2,2.8,1.8c-7-1.4-13.5-4.1-20-7.2c0.1,0.8,0.2,1.4,0.3,2
		c-0.6-0.4-1.1-0.7-1.6-1c-0.1,0.1-0.3,0.3-0.4,0.4c-0.2-0.8-0.4-1.5-0.6-2.5c-12.4,6.3-25.7,10.7-37.7,17.8
		c0.2,0.5,0.2,0.7,0.3,0.8c4.7,4.9,9,10.3,14.2,14.7c10.5,9.1,21.7,17.5,32.2,26.6c8.9,7.7,17.3,16.1,25.9,24.1
		c1.5,1.4,3.1,2.8,4.6,4.3c0.3,0.3,0.5,0.7,0.6,1.2c-15.6-14.5-31.1-29.1-47.4-42.6c15.7,14.8,31.4,29.7,47.2,44.5
		c-1.2-0.7-1.7,0-2.5,0.7c-1.4,1.2-3.1,2-4.7,3c-0.6,0.4-1.3,0.8-1.5,1.4c-0.4,1.4-1.2,1.7-2.5,1.9c-0.7,0.1-1.3,0.5-2,0.7
		c-0.8,0.3-1.5,0.7-2.4,0.9c-1.8,0.5-3.3,1.3-4.4,3.4c-18.8-22.8-40-42.7-62.6-61.4c-0.1,0.1-0.3,0.3-0.4,0.4
		c2.2,1.9,4.3,3.8,6.5,5.8c2.1,1.9,4.2,3.9,6.1,6.1c-4.4-4-8.9-7.9-13.5-12c0.3-0.2,0.7-0.5,1.1-0.8c-1.3-1.2-2.7-2.5-4-3.7
		c0.6,1.8,1.2,3.8,1.8,5.8c4.4,13.3,8.8,26.6,14.2,39.5c0.5,1.1,0.8,2.4,1.1,3.6c0.2,0.6,0.8,1.4-0.4,1.9c-0.1,0,0,0.7,0,1
		c0.3,1.5,0.2,2.7-1.3,3.6c-0.3,0.2-0.3,0.8-0.4,1.2c-0.2,1-0.4,2-0.5,2.9c-0.5,0.1-1,0.2-1.5,0.3c-0.2-0.7-0.5-1.6-0.8-2.4
		c-0.1,0-0.2,0-0.3,0.1c-0.2,1.1-0.4,2.3-0.5,3.2c-0.1-0.8-0.2-1.8-0.3-2.7c-0.1,0-0.3,0-0.4,0c-0.1,0.9-0.3,1.8-0.4,3
		c-0.4-1-0.7-1.8-1.1-2.8c-0.1,0.6-0.2,0.9-0.3,1.4c-0.1-0.8-0.2-1.3-0.2-1.9c-0.2,0-0.3,0-0.5,0c-0.2,2-0.4,3.9-0.5,5.5
		c-0.5-2-0.1-4.7-2.2-7c-0.1,1.1-0.1,1.7-0.2,2.7c-0.5-0.9-0.9-1.6-1.4-2.5c-0.2,0.5-0.3,0.7-0.3,0.9c-0.6-1-1.2-1.9-1.9-2.9
		c-0.1,0-0.2,0-0.3,0.1c0.2,1,0.4,2,0.7,3.3c-1.8-2.6-1.8-2.6-2-2.5c-4.2-7.7-7.1-15.9-9.7-24.3c-0.2,0.1-0.4,0.1-0.6,0.2
		c0.7,4,1.4,8,2.2,12c-0.1,0-0.2,0-0.2,0c-0.9-3.3-1.7-6.7-2.6-10c-0.9,1.4-1.8,3.1-3,4.5c-2.1,2.5-4.2,5.2-6.6,7.3
		c-4.9,4.3-10.9,4.8-17,3.8c-8.2-1.3-14.6-5.9-20.5-11.5c-4.1-3.9-7.4-8.5-10.2-13.4c-2-3.6-4.4-7-6.1-10.7
		c-2.1-4.5-3.7-9.2-5.5-13.8c-0.2-0.4-0.7-1-1.1-1c-2.1-0.1-4.2,0-6.5,0c0,0.7,0.1,1.2,0.1,1.7c0.7,0.1,1.2,0.2,2.2,0.3
		c-0.9,0.3-1.4,0.4-2.3,0.7c1.5,3.8,2.8,7.7,4.5,11.3c3.8,7.7,7.9,15.3,11.9,22.8c0.7,1.3,1.6,2.5,2.4,3.7c1.6,2.3,3,4.9,6.6,4.6
		c-0.1,0.2-0.2,0.4-0.2,0.5c-0.9-0.2-1.9-0.4-2.8-0.6c0,0.1-0.1,0.2-0.1,0.3c0.5,0.2,1,0.4,1.6,0.6c12.2,3.6,24.2,7.7,35.8,13.1
		c8.1,3.8,16.2,7.6,22.9,13.7c1.5,1.3,1.3,3,1.8,4.5c0.2,0.6-1,1.7-1.7,2.5c-0.2,0.3-0.8,0.3-0.8,0.6c-0.8,0.3-1.5,0.6-2.3,0.8
		c-0.4,0.1-0.9,0.3-1.3,0.2c-1.8-0.6-3.6-1.1-5.3-2c-16-8.2-33.1-13.4-50.8-16.4c-15.6-2.7-31.3-3.3-47.1-2.7
		c-18.4,0.8-36.5,3.1-53.9,8.9c-10.2,3.4-20.1,7.6-29,13.9c-1.8,1.2-3.7,2.3-5.6,3.4c0.1-0.5,0.1-0.9,0.2-1.7
		c-1.5,1-2.8,1.8-3.8,2.5c-0.5-0.4-0.8-0.7-1.3-1.1c0.6-0.5,1.3-1,2-1.6c-1.9-2.6,2-2.5,1.6-4.7c-1.9,1.2-3.6,2.3-5.7,3.7
		c0.5-0.9,0.7-1.3,1-1.9c-0.4-0.3-0.9-0.6-1.3-0.9c0.9-0.7,1.7-1.5,2.6-2.2c-0.1-0.1-0.1-0.2-0.2-0.4c-1,0.5-2.1,1-3.1,1.4
		c-0.1-0.1-0.1-0.2-0.2-0.3c1.5-1.3,3-2.6,4.5-3.9c0-0.1-0.1-0.2-0.1-0.3c-0.7,0.1-1.3,0.2-2,0.2c0.1-0.3,0.2-0.6,0.4-1.2
		c-1.5,0.8-2.8,1.5-4.3,2.3c2.8-4.9,7.6-7.1,11.8-9.8c8.5-5.6,17.4-10.8,27-14.4c7.5-2.8,15.2-5,23.1-6.4c16.6-3,33.4-4.5,50.3-3.6
		c4.5,0.3,9.1,0.6,14,0.9c-8.7-13.6-14.9-28.2-21.1-43.1c0,0-0.4-0.1-0.8-0.1c-6.3,0-12.7-0.1-19-0.1c-0.7,0-1.8-0.3-1.6,1.3
		c6.8,0.4,13.7-0.6,20.7,1c-7,0-13.8,0-20.6,0c-0.8,7.7,0.8,15.2,3.2,22.7c-0.3-0.4-0.7-0.8-1.1-1.4c-0.2,0.5-0.3,0.9-0.4,1.2
		c-0.3-0.2-0.6-0.3-0.8-0.5c-1.2,2.9-1.8,5.9-1.3,9c-0.7-1.6,0.3-3.8-2.1-4.8c0,1.8,0,3.5,0,5.2c-0.3-0.9-0.5-1.8-0.8-2.7
		c-0.1,0-0.2,0.1-0.4,0.1c0,0.9,0,1.8,0,2.7c-0.5-1.2-0.9-2.2-1.4-3.3c-0.2,0-0.4,0-0.6,0.1c-0.2,0.7-0.3,1.5-0.6,2.2
		c-0.3,0.6-0.7,1.1-1,1.4c-1.1-0.7-2.1-1.4-3.2-2.1c0,0.7-0.1,1.2-0.1,1.6c-0.5-1.2-1-2.6-1.7-4.4c-0.6,1.2-1,2-1.4,2.6
		c-0.5-1.1-1-2.3-1.7-3.8c-14.3,10.4-30.8,13.6-47.8,15.7c0,0.1,0,0.3-0.1,0.4c1.2,0.6,2.4,1.2,3.6,1.9c1.1,0.7,2.1,1.6,3,2.2
		c-0.9,2.3-1.7,4.3-2.8,6.8c-0.4-0.7-0.6-1-0.9-1.5c-0.4,2.2-2.7,3.1-5,2.2c-0.3,0.8-0.7,1.6-1.2,2.6c-3.5-4.6-8.6-5.6-13.4-6.8
		c-7.6-2-15.3-3.7-23-5.5c-4.9-1.1-9.8-2.1-14.7-3.3c-6.4-1.6-12.8-3.3-19.3-5c-1.4-0.4-2.8-0.8-4.1-1.1c0-0.2,0-0.3,0.1-0.5
		c0.5,0.1,1,0,1.4,0.2c10.3,4,21.3,5.2,31.9,7.7c10.4,2.5,20.9,4.8,31.2,7.4c3.2,0.8,6.2,2.6,9.4,4c0.2,0.1,0.5,0.2,1-0.1
		c-0.5-0.4-1-1.1-1.6-1.3c-2.4-1.1-4.7-2.3-7.2-3c-16-4.4-32-8.6-47.9-12.9c-5.4-1.4-10.8-2.8-16.1-4.4c-1.6-0.5-3-1.7-4.5-2.6
		c-0.2-0.1-0.3-0.5-0.3-0.8c-0.1-1.1-0.3-2.1-1.6-2.5c-0.7-0.3-1.1-3.1-0.6-3.7c0.3-0.3,0.5-0.7,0.8-1.2c0.4,0.1,0.9,0.3,1.5,0.4
		c0.4,0.1,0.9,0.1,1.7,0.2c-1.6-1.4-2.9-2.5-4.4-3.8c1-0.2,1.7-0.3,2.3-0.4c0.1-0.1,0.2-0.2,0.2-0.4c-0.3-0.2-0.6-0.4-0.9-0.6
		c0.4-0.1,0.9-0.1,2-0.2c-0.9-0.6-1.3-0.9-2.1-1.4c1-0.2,1.7-0.4,2.7-0.6c-0.5-0.6-0.9-1-1.4-1.6c1.8,0.1,2.5-0.6,1.5-2.6
		c0.9,0.2,1.4,0.5,2,0.5c0.5,0,1.3-0.1,1.5-0.4c0.6-0.8,1.1-0.6,1.8-0.3c8,2.6,16.1,5.2,24.1,7.6c1.4,0.4,3,0.4,4.6,0.6
		c4.9,0.7,9.8,1.6,14.8,2c6,0.5,12.1,0.6,18.1,0.8c0.4,0,1.6,0.5,1.3-0.8c0.8,0.3,1.5,0.6,2.3,0.9c0-0.1,0-0.2,0-0.4
		c-8.2-10.9-16.3-21.9-24.6-32.9C87,128.8,88.9,131.8,90.7,134.8z M103.4,128c0.5,1.3,0.8,2.3,1.2,3.3c2.8,8.1,7,15.4,11.5,22.6
		c3.3,5.1,3.2,5.2,9,3.4c0.5-0.1,1-0.3,1.5-0.4c0,0.2,0.1,0.3,0.1,0.5c-2.3,0.6-4.7,1.1-7,1.7c0,0.2,0,0.3,0.1,0.5
		c0.8,0,1.5,0.1,2.3,0c4.7-0.9,9.3-1.8,14-3c4.3-1.1,8.3-3,11.7-6c0.9-0.8,2-1.4,2.9-2.1c2.1-1.6,1.6-5-0.7-6.7
		c-1.5-1.1-3.1-2.2-4.8-2.9c-8.7-3.9-17.7-6.6-26.9-8.9C113.3,128.7,108.5,128.2,103.4,128z M133.4,90.4c0-0.2,0-0.3,0-0.5
		c-2.2-0.6-4.3-1.4-6.5-1.8c-5.6-1.1-11.3-1.9-16.9-3.1c-8.8-1.9-17.5-4-26.2-6.1c-1.8-0.4-3.6-1-5.4-1.5c-0.1,0.1-0.1,0.2-0.2,0.4
		c0.6,0.3,1.1,0.7,1.7,1c1.2,0.4,2.4,0.6,3.6,1c8.9,3,18,5.4,27.3,6.8c5.1,0.8,10.2,1.8,15.3,2.8c0.8,0.2,1.6,0.8,2.4,1.2
		c-0.1,0.2-0.2,0.4-0.3,0.7c-8.1-1.7-16.2-3.2-24.3-5.1c-8.1-1.9-16-4.2-23.9-6.3c4.4,8.1,8.7,16.2,13.2,24.4
		C106.9,101,120.6,97,133.4,90.4z M132.2,113.1c0-0.1,0-0.2,0-0.2c0.2,0,0.5,0,0.7,0c4.7,1.2,9.5,2.1,14.1,3.6
		c3.3,1.1,6.7,2.7,9.4,4.9c2.2,1.8,4.2,2.6,6.9,2.2c0.5-0.1,1.1-0.6,1.2-1c0.8-3.3,1.7-6.5,2.1-9.8c0.4-3,0.2-6.2,0.4-9.2
		c0.2-2.5,0.6-5,0.9-7.7c-1.1,1-1.8,2-2.9,2.5c-3.2,1.6-6.4,3.3-9.7,4.4c-10.4,3.5-21.3,5.2-32,7.6c-2.1,0.5-4.2,1.1-6.3,1.7
		c0,0.2,0.1,0.3,0.1,0.5c0.2,0,0.4,0.1,0.6,0.1c8.7,0.7,17.2,2.6,25.5,5.3c3.7,1.2,7.3,3.1,10.6,5.1c1.3,0.8,2.4,1.1,3.9,0.6
		c-1.4-1.3-2.8-2.8-4.5-3.5c-3.2-1.5-6.6-2.8-10-3.8C139.7,114.9,135.9,114.1,132.2,113.1z M181.7,123.2c5.4,0,10.8,0,16.1,0
		c-5.2-11.5-8-23.9-11.3-36.1c-0.2,0-0.4,0-0.6,0C184.6,99,183.2,110.9,181.7,123.2z M88.2,158.9c7.6,1.4,15.3,2.2,23.1,2
		c-0.3-1.4-1.2-1.3-2-1.4c-5.6-0.1-11.1-0.3-16.7-0.4C91.1,159.1,89.6,159,88.2,158.9z"/>
	<path class="st0" d="M289.3,215.3c-2.2-1-4.5-1.7-6.6-2.9c-4.6-2.5-9.7-3.7-14.7-5c-7.3-1.9-14.6-3.6-22-5
		c-5.8-1.1-11.6-1.9-17.5-2.4c-7.3-0.6-14.7-1.2-22-1.2c-10,0.1-20,0.5-30,1.2c-7.8,0.5-15.5,2.3-23.1,4.2c-8.4,2-16.7,4.5-24.6,8
		c-3.8,1.7-7.4,4-11.1,6c-0.5,0.2-0.9,0.5-1.5,0.5c0.7-0.5,1.4-1.1,2.2-1.6c6-3.8,12.2-7.4,19.2-9.4c9.3-2.6,18.5-5.3,27.9-7.3
		c9.2-2,18.5-2.7,27.9-2.8c9.4-0.1,18.7-0.2,28.1,0.4c7.4,0.4,14.8,1.4,22.1,2.8c8.6,1.6,17.1,3.6,25.6,5.8c5,1.3,9.9,3.4,14.8,5.3
		c2,0.8,3.7,2.1,5.6,3.2C289.3,215.3,289.3,215.3,289.3,215.3z"/>
	<path class="st0" d="M48.2,33.6c-1.7-2-3.4-4-5-6c0.1-0.1,0.2-0.2,0.3-0.3c1.8,1.6,3.5,3.2,5.4,4.7c7.7,6.1,16.2,11,25.1,15.2
		c4.3,2.1,8.6,4.4,12.9,6.4c10.5,4.7,21.5,7.9,32.7,10.4c9.3,2.1,18.6,4.4,27.9,6.6c4.1,1,8.1,2.1,12.2,3.2c0.9,0.3,2.1,0.5,1.5,1.7
		c-8.4-2.2-16.6-4.4-24.9-6.3c-13.3-3.1-26.6-6-39.4-10.8c-6.5-2.4-12.7-5.5-19-8.3c-8.2-3.6-16.2-7.7-23.7-12.7
		C52.1,36.1,50.1,34.8,48.2,33.6C48.2,33.5,48.2,33.6,48.2,33.6z"/>
	<path class="st0" d="M205.9,35.2c-2.7,13.8-2.4,27.8-0.7,41.6c1.7,13.8,4.5,27.4,9.4,40.5c-0.2,0-0.3,0.1-0.5,0.1
		c-1.6-4.9-3.4-9.8-4.7-14.7c-1.8-7.3-3.4-14.6-4.7-22c-1.7-9.7-2.3-19.5-1.6-29.4c0-0.6,0.1-1.2,0.1-1.8c-0.4-4,0.1-8,1.3-11.8
		c0.3-0.9,0.4-1.7,0.6-2.6C205.4,35.2,205.6,35.2,205.9,35.2z"/>
	<path class="st0" d="M225.9,60.3c-0.7,1.4-1.4,2.9-2.2,4.3c-0.6,1.4-1.4,2.8-1.8,4.3c-1,4.3-1.7,8.7-2.6,13
		c-1.1,5.4-0.8,10.9-0.3,16.3c0.6,6.1,1.2,12.3,1.9,18.4c0.2,1.9,0.8,3.9,1.2,5.8c-0.2,0-0.6-0.1-0.6-0.1c-0.4-1.8-0.9-3.5-1.1-5.2
		c-0.5-3.4-1.1-6.8-1.4-10.3c-0.3-2.8-0.3-5.6-0.5-8.4c-0.2-2.6-0.7-5.3-0.6-7.9c0.1-3.9,0.4-7.8,0.9-11.6
		c1.1-7.5,3.2-14.7,6.9-21.3c1.6-2.9,3.6-5.6,5.6-8.2c0.9-1.1,2.3-1.9,3.4-2.8c0.1,0.1,0.2,0.3,0.4,0.4c-1.3,1.5-2.7,3-3.8,4.6
		C229.4,54.5,227.7,57.5,225.9,60.3z"/>
	<path class="st0" d="M90.7,134.8c-1.8-3-3.7-6-5.6-9.2c8.2,11.1,16.4,22,24.6,32.9c0,0.1,0,0.2,0,0.4c-0.8-0.3-1.5-0.6-2.3-0.9
		c-2.3-3.2-4.7-6.3-6.9-9.5C97.1,144,93.9,139.4,90.7,134.8z"/>
	<path class="st0" d="M230.1,146.9c0.2,0.2,0.4,0.4,0.5,0.7c3.2,8.7,8.2,16.5,13.9,23.7c5.7,7.2,12.9,12.8,21.4,16.4
		c0.1,0,0.2,0.1,0.3,0.2c-4-0.1-17.2-9.6-22.7-16.4c-5.9-7.4-10.5-15.6-13.8-24.4C229.9,147.1,230,147,230.1,146.9z"/>
	<path class="st0" d="M176.1,57.9c-0.1,0.2-0.1,0.5-0.2,0.7c-0.7,2.5-1.5,5-2.1,7.5c-1.1,4.2-2.1,8.4-3.2,13
		c0.1-2.9,6.5-37.8,9.2-40.8c0,0.7,0.1,1.2,0,1.6c-1.1,4.6-2.3,9.1-3.4,13.7C176.1,54.9,176.2,56.4,176.1,57.9z"/>
	<path class="st0" d="M339.6,167.7c0.3,0.2,0.7,0.4,1,0.7c8.1,8.2,16.5,16.1,24.2,24.6c5.3,5.9,9.8,12.5,14.7,18.8
		c0.6,0.8,1.2,1.6,1.6,2.6c-3.3-4.4-6.4-8.9-9.9-13.1c-3.2-3.9-6.1-8-10-11.2c-2-1.7-3.5-4.1-5.3-6.1c-5.1-5.2-10.4-10.3-15.6-15.4
		C340,168.3,339.8,168,339.6,167.7L339.6,167.7z"/>
	<path class="st0" d="M203.1,140.2c4.2,9.3,8.3,18.5,12.5,27.8C210.4,159.1,205.7,150.1,203.1,140.2z"/>
	<path class="st0" d="M285.9,127.2c-1.4-6.3-2.8-12.5-4.1-18.8c0-0.1,0-0.3,0-0.5c0.1,0,0.3-0.1,0.4-0.1c1.8,8.2,3.6,16.4,5.4,24.6
		c-0.1,0.1-0.3,0.1-0.4,0.2c-0.4-0.5-0.7-1.1-1.1-1.6C286,129.8,285.9,128.5,285.9,127.2z"/>
	<path class="st0" d="M310.8,103.6c7.4-3.7,14.6-7.2,21.4-10.7C330.7,94.7,315.2,102.6,310.8,103.6z"/>
	<path class="st0" d="M358.2,101.9c3.3,0.9,7.1,3.5,7.6,5c-2.6-1.5-5.3-3-7.9-4.5C358,102.2,358.1,102.1,358.2,101.9z"/>
	<path class="st0" d="M339.6,167.7c-2.1-1.8-4.1-3.6-6.2-5.4c0.1-0.1,0.2-0.2,0.3-0.3C335.7,163.9,337.6,165.8,339.6,167.7
		C339.6,167.7,339.6,167.7,339.6,167.7z"/>
	<path class="st0" d="M88.2,158.9c1.5,0.1,3,0.2,4.4,0.2c5.6,0.2,11.1,0.3,16.7,0.4c0.9,0,1.7,0,2,1.4
		C103.5,161.1,95.8,160.3,88.2,158.9z"/>
	<path class="st0" d="M321.7,78.6c3,2.2,5.9,4.5,8.9,6.7c-3.4-1.7-6.4-3.9-9-6.6C321.6,78.7,321.7,78.6,321.7,78.6z"/>
	<path class="st0" d="M164,113.3c0.5,2.8,0.1,5.5-1,8.1C163.3,118.7,163.7,116,164,113.3z"/>
</g>
</svg>
