<?xml version="1.0" encoding="utf-8"?>
<!-- Generator: Adobe Illustrator 23.0.5, SVG Export Plug-In . SVG Version: 6.00 Build 0)  -->
<svg version="1.1" id="Layer_1" xmlns="http://www.w3.org/2000/svg" xmlns:xlink="http://www.w3.org/1999/xlink" x="0px" y="0px"
	 viewBox="0 0 332.9 243.7" style="enable-background:new 0 0 332.9 243.7;" xml:space="preserve">
<style type="text/css">
	.st0{fill:#193842;}
</style>
<path class="st0" d="M201.3,206c0.6,2,1,3.5,1.4,5c1.3,3.9,2.5,7.9,3.8,11.8c0.5,1.4,0.1,2.2-1,3.1c-2.9,2.1-5.7,4.3-8.5,6.5
	c-2.5,1.9-3.4,1.6-4.2-1.5c-1.3-5.2-3-10.3-3.7-15.6c-0.8-5.6-2.9-10.6-4.7-15.8c-1-2.8-1.8-5.6-2.5-8.4c-1.1-4.4-2-8.7-2.9-13.1
	c-0.2-1-0.7-1.4-1.7-1.2c-5.2,1.1-10.5,2.1-15.7,3.3c-0.7,0.2-1.6,0.9-1.9,1.7c-4,9.2-7.7,18.6-10,28.4c-0.2,1-0.7,1.4-1.6,1.4
	c-3.8-0.1-7.6-0.1-11.4-0.4c-0.7,0-1.3-0.8-2.2-1.4c-1.1,1-2.5,2.3-4.1,3.9c-2.1-5.3-1.6-10.5-1.5-15.7c-1.3,1.9-2.5,3.9-4.1,5.6
	c-2.2,2.4-4.4,4.8-7,6.7c-7.9,5.8-18.7,3.6-22.6-7.4c-2.5-7-2.2-14.4-1.5-21.7c0-0.4,0.1-0.8,0.2-1.4c-8,16.1-10.7,33-9,51
	c-2.7-0.1-5.7,0.3-8.2-0.6c-2.8-0.9-3.8-3.9-4.1-6.7c-0.3-2.6-0.3-5.3-0.4-7.9c-0.1-2.2,0-4.5,0-7c-2.3,2.6-4.3,5-6.5,7.1
	c-5.5,5.4-11.8,9.7-19.4,11.6c-9.4,2.4-16.7-1.5-19.9-10.6c-2.4-6.8-2.6-13.7-1.7-20.8c1.4-11.5,5-22.2,10-32.7
	c7.3-15.3,18.1-27.6,31-38.3c0.2-0.1,0.3-0.3,0.4-0.7c-0.5,0.3-1.1,0.6-1.6,0.9c-0.6,0.4-1.2,0.7-1.8,1.1c-1.2,0.9-2.1,0.5-2.8-0.7
	c-1.6-2.7-1.2-5.6-1-8.4c0.1-1.3,0.3-2.5,0.4-4.1c-1.6,2.1-3.1,4-4.6,5.8c-5.1,6.2-10.9,11.5-18.1,15.2c-4.8,2.5-9.9,3.7-15.3,2.3
	c-3.3-0.8-5.9-2.5-7.7-5.4c-4-6.3-6-13.2-5.7-20.8c0.5-12.4,4.5-23.8,9.1-35c5.4-13.1,12.5-25.4,21.5-36.4c5.1-6.3,11-11.7,17.9-16
	c4.1-2.6,6.7-1.6,8.2,3c0,0.1,0.2,0.3,0.5,0.7c1.8-4.8,5-8.7,5.6-13.8c0.1-1,0.6-1.4,1.6-1.3c5.7,0.5,10.9,2.5,15.5,5.7
	c2.2,1.5,3.1,4,2.3,6.6c-1,2.8-2.2,5.6-3.9,8c-7.5,10.9-13.3,22.7-17.6,35.2c-1.4,4-2,8.2-3,12.4c-0.2,0.8-0.3,1.7-0.6,2.9
	c-0.8-0.6-1.5-1-2-1.5c-2.2-2.1-4.5-4.1-6.6-6.3c-0.5-0.5-0.7-1.7-0.5-2.5c1.7-8.2,3.6-16.4,5.4-24.6c0.1-0.6,0.3-1.1,0.5-2
	c-0.6,0.4-1,0.6-1.3,0.8c-7.3,5.9-13.5,12.8-18.6,20.7c-7.1,10.9-13,22.4-16.5,35c-1.8,6.2-2.9,12.6-1.9,19.1c0.2,1,0.4,2,0.8,3
	c1.3,3,3.4,3.9,6.4,2.4c1.3-0.7,2.6-1.5,3.7-2.6c8.8-8.2,16.8-17.2,24.3-26.6c3.9-4.9,7.8-9.8,11.7-14.7c0.9-1.1,1.5-0.9,2.1,0.2
	c0.5,0.9,0.9,1.8,1.5,3c0.3-0.9,0.6-1.5,0.7-2.1c3.3-12.5,6.6-25,10-37.5c2.6-9.8,5.3-19.6,8-29.5c0.3-1.1,0.8-1.5,2-1.2
	c5.4,1.6,9.8,4.8,13.6,8.8c0.6,0.7,1,2.1,0.8,3c-0.5,2.9-1,5.8-2,8.5c-5.4,15-11.1,29.9-16.4,44.9c-2,5.5-3.3,11.2-5.1,17.2
	c1-0.2,1.7-0.3,2.3-0.4c10.2-2.5,20.4-5.1,30.6-7.4c3.6-0.8,7.4-1.1,11.1-1.6c0.8-0.1,1.6,0,2.5,0c-0.2,0.8-0.3,1.2-0.4,1.7
	c-1,3.8-2,7.5-2.8,11.3c-0.3,1.2-0.7,1.5-1.9,1.7c-12.1,1.6-23.9,4.7-35.1,9.6c-0.2,0.1-0.4,0.2-0.9,0.5c1.3,0.4,2.4,0.7,3.4,1.1
	c2,0.9,4.1,1.7,6,2.9c2.8,1.7,3.3,4.3,1.6,7.1c-0.8,1.4-1.8,2.8-2.7,4.2c-5.3,8-9.2,16.7-12.6,25.6c-1,2.5-0.9,2.4-3.1,1.1
	c-2.5-1.6-5.1-3-7.8-4.3c-1.7-0.8-2.2-1.7-1.6-3.5c0.6-1.9,0.9-3.9,1.4-6.1c-0.5,0.2-0.8,0.3-1,0.4c-14.1,11.2-25,24.7-30.8,41.9
	c-2.6,7.6-4.1,15.4-3.3,23.6c0.7,6.7,3.7,8.6,9.5,5.3c3.5-2,6.7-4.6,9.7-7.4c5.9-5.5,10.6-12.1,14.9-18.9c0.3-0.4,0.4-0.9,0.9-1.8
	c-1,0.3-1.7,0.4-2.3,0.6c-7.3,2.7-14.5,5.4-21.8,8.2c-2.6,1-3.1,0.8-3.1-2c0.1-3.9,0.3-7.8,0.8-11.7c0.1-0.8,1.1-1.8,1.9-2.1
	c6.2-2.5,12.4-5.2,18.8-7.2c8.8-2.8,17.7-5,26.6-7.3c1.3-0.4,2-0.9,2.4-2.3c2.5-8.5,5.1-17.1,7.7-25.6c0.5-1.7,1.3-3.3,2-5
	c0.6-1.4,1.7-2.2,3.1-2c3.8,0.6,7.6,1.3,11.3,2.2c1.8,0.4,2,1.5,1.2,3.6c-1.7,4.8-3.5,9.5-5.1,14.3c-3.5,10.6-7.2,21.1-9.2,32.1
	c-0.7,4-1.2,8.1-1.5,12.1c-0.1,1.3,0.4,3.4,1.3,3.9c1.5,0.9,2.8-0.8,3.8-2c5.5-6.3,9-13.7,12.1-21.3c5.5-13.3,8.8-27.2,12.9-40.9
	c0.9-3,2-5.9,3.2-8.7c0.3-0.7,1.3-1.6,1.9-1.6c4.4-0.2,8.8-0.2,13.2-0.1c1.9,0.1,2.1,0.6,1.4,2.3c-6.3,15.5-10.3,31.7-14.2,47.9
	c-0.1,0.2,0,0.4-0.1,0.7c2.5,0.1,5.8-1.8,6.7-3.9c3-6.8,6.4-13.6,8.9-20.6c3.3-9.2,6-18.6,9-27.9c0.1-0.4,0.2-0.9,0.2-1.4
	c0.1-1.1,0.6-1.3,1.6-1.2c0.5,0.1,1.4-0.2,1.4-0.5c0.5-2.4,2.1-2.8,4.1-2.7c0.2,0,0.4,0,0.6-0.2c-5-0.5-9.5-2.3-13.6-5
	c-4.3-2.8-7.3-6.5-7.4-12c-1.6,2.7-3,5.4-4.6,7.9c-4.1,6.4-9.3,11.6-16.2,15.1c-4.8,2.5-9.6,2.4-14.4,0c-4.1-2-7.9-4.4-10.5-8.4
	c-0.8-1.3-0.9-2.1,0.7-2.7c1.9-0.8,3.8-1.6,5.7-2.5c1.3-0.6,2.1-0.4,2.7,1c0.4,1,1,2,1.6,2.8c2.1,3,5.4,3.9,8.4,1.8
	c2.3-1.5,4.5-3.4,6-5.6c6.3-8.8,10.4-18.5,11.7-29.3c0.8-6.6,1-13.2-1.1-19.6c-0.9-2.6-2.1-5.1-3.4-7.5c-1.1-2.1-2.3-2.1-3.9-0.4
	c-9,9.8-15,21.2-18,34.3c-0.8,3.7-0.1,3.9-4.4,2.4c-5-1.7-6.2-5.5-6.5-10.1c-0.6-7,1.5-13.4,4.2-19.7c3.6-8.3,8.6-15.5,16.2-20.6
	c5.4-3.7,11.1-4.1,16.9-0.8c4.7,2.6,8.1,6.5,10.8,11.1c0.3,0.5,0.6,1,0.9,1.5c0,0,0.1,0.1,0.3,0.2c0.2-0.3,0.5-0.5,0.7-0.8
	c6.7-10.6,15.5-19,26.2-25.6c1.6-1,3.3-1.9,5-2.6c3.8-1.6,7.6-2.3,11.1,1.2c1.5-2.1,2.9-4,4.3-6c1.6-2.2,2.5-2.6,4.8-1.2
	c3.7,2.2,7.1,4.8,10.5,7.4c1.6,1.2,1.9,3.1,0.9,5c-0.8,1.6-1.8,3.2-2.7,4.8c2,0.8,38.2,0.9,39.4,0.1c-2.2-5.1-1.1-9.9,1.3-14.4
	c0.9-1.7,3.1-1.6,4.7-1.2c5.2,1.4,10.4,2.6,15.3,4.5c9.7,3.9,19,8.5,27.4,14.7c7.6,5.6,13.8,12.2,17.9,20.9
	c4.9,10.3,4.2,20.3-1.9,29.9c-5.5,8.8-13.1,15.4-21.8,20.7c-6.2,3.8-12.8,7-19.3,10.3c-1.6,0.8-1.8,1.9-1.9,3.4
	c0,1.5,0.9,1.9,2.1,2.3c9.2,3.7,18.2,7.8,25.7,14.5c4.8,4.2,9,9,11.5,14.9c4.1,10,2.7,19.6-3,28.6c-5.1,8-12,14.1-19.7,19.6
	c-7.5,5.4-15.5,10.1-23.8,14.2c-1.3,0.6-2,1.4-2,2.9c-0.1,2.3-0.4,4.6-0.6,6.9c-0.1,0.6-0.3,1.2-0.4,1.7c-0.2,0-0.3,0.1-0.5,0.1
	c-0.3-0.6-0.8-1.2-1-1.8c-0.5-1.6-1.1-3.3-1.5-5c-0.4-1.5-1-1.9-2.5-1.4c-10.9,3.7-21.9,6.9-33.4,8.5c-2.9,0.4-3.7-0.1-3.4-3
	c0.5-5.7,2.5-11,6.3-15.3c0.5-0.6,1.2-1,1.8-1.4c0.3,0.2,0.4,0.3,0.4,0.4c0.9,3.3,0.9,3.1,4.4,3c8.1-0.3,15.6-2.8,23.1-5.3
	c0.6-0.2,1.5-0.9,1.4-1.4c0-0.6-0.6-1.4-1.2-1.8c-11-7-22.9-12-35-16.6c-4.4-1.6-8.8-3.1-13.2-4.6c-1.8-0.6-2.1-0.4-2.3,1.5
	c-0.7,8.4-1.4,16.7-2.1,25.1c-0.2,2.4-0.4,2.6-2.7,2C206.4,207.5,204.1,206.8,201.3,206z M271.3,35c-0.2,0-0.4,0-0.6,0
	c-0.7,3.5-1.4,7-2,10.5c-0.3,1.6-0.9,2-2.5,1.8c-4.6-0.5-9.3-0.9-13.9-0.9c-5.5-0.1-11,0.3-16.5,0.3c-1.7,0-2.5,0.6-2.9,2.2
	c-1.5,6.1-3,12.2-4.5,18.2c-0.5,1.9-0.2,2.1,1.9,2c10.1-0.1,20.2-0.2,30.3-0.3c1.2,0,1.7,0.6,1.5,1.7c-0.3,2.3-0.6,4.6-0.7,6.9
	c-0.1,1.7-0.8,2.1-2.5,2.1c-7.7-0.1-15.4-0.1-23.1,0c-2.9,0-5.7,0.4-8.6,0.7c-1.2,0.1-2,0.7-2.2,2c-0.6,3.9-1.4,7.8-2,11.7
	c-0.3,1.6,0.2,2,1.8,1.8c2.5-0.3,5-0.7,7.5-0.9c6.9-0.7,13.8-1.4,20.8-2c3.9-0.3,7.8-0.6,11.7-0.8c0.7,0,1.7-0.2,1.5,1
	c-0.7,4.8-1.5,9.6-2.3,14.5c-0.1,0.4-0.9,0.9-1.4,0.9c-4.8,0-9.6-0.1-14.5-0.2c-0.8,0-1.5,0.2-2.5,0.4c1.3,1.7,2.9,1.6,4.4,1.7
	c8.2,0.5,16.2-0.8,23.8-3.8c1.3-0.5,1.8-1.2,1.8-2.5c-0.2-4.3-0.3-8.6-0.5-12.9c-0.8-14.1-1.5-28.2-2.4-42.3
	C272.4,44.1,271.8,39.6,271.3,35z M275.8,197.2c1-0.4,1.5-0.5,1.9-0.7c2.8-1.8,5.7-3.5,8.4-5.4c6.4-4.6,12.5-9.6,17-16.3
	c5.7-8.6,5.6-16.4-1.3-24.1c-6.1-6.8-14.2-10.6-22.7-13.4c-1.4-0.5-1.5,0.5-1.6,1.5c-0.4,4.5-0.7,9-1.1,13.6
	c-1.1,11-2.2,22.1-3.3,33.1c-0.2,1.5,0.2,2.7,1.6,3.5c0.4,0.3,0.8,0.6,1.3,0.9c1.2,0.8,1.5,1.7,1,3.1
	C276.4,194.3,276.2,195.5,275.8,197.2z M282.3,102.5c0.6-0.2,0.9-0.3,1.2-0.5c5.4-3.5,10.9-6.8,16.1-10.6c5.4-4,10.2-8.6,13.4-14.6
	c2.3-4.4,3.5-9,1.6-13.8c-1.2-3.1-2.9-6.2-5-8.8c-5.3-6.6-12.4-10.8-20.1-14.1c-1.5-0.6-1.7,0.2-1.8,1.3c-0.6,7-1.1,14-1.7,21
	c-1,10.8-2,21.6-3,32.4C282.8,97.2,282.6,99.7,282.3,102.5z M198.6,36c-0.2-0.1-0.4-0.3-0.6-0.4c-0.5,0.2-1,0.5-1.5,0.7
	c-6,3.2-11.2,7.4-16,12.2c-2.8,2.8-5.3,5.9-6.8,9.7c-1.7,4.2-1,6.7,2.8,9.1c2,1.3,4.2,2.3,6.4,3.4c5.2,2.6,10.5,5,15.6,7.7
	c3.4,1.9,6.6,4.2,8.9,7.5c0.7,1,1.5,2.1,2.4,3.3c0.2-0.9,0.3-1.4,0.4-2c1.4-4.4,0.6-9,0.7-13.5c0-1.2-0.1-2.3,1.5-2.7
	c0.4-0.1,0.8-0.9,0.8-1.4c1.1-6.7,2.1-13.4,3.1-20.1c0.2-1.2-0.3-1.6-1.4-1.5c-1.6,0.2-3.2,0.5-4.8,0.5c-1.8,0.1-2.7,0.9-3.6,2.5
	c-2.6,4.9-5.4,9.8-8,14.7c-0.7,1.3-1.4,1.6-2.8,1c-2.2-1.1-4.5-2-6.8-3c-2-1-2.1-1.2-1.1-3.3c0.3-0.7,0.7-1.4,1.1-2.2
	c2.4-5.1,4.8-10.2,7.1-15.3C197.2,40.6,197.8,38.3,198.6,36z M261.8,144.9c-1.9,4.7-5.2,8.1-9,10.9c-7.1,5.2-15.3,8.1-23.6,10.6
	c-0.4,0.1-0.8,0.3-1.5,0.6c12.7,3.7,24.2,9.3,35.7,15.3C262.9,169.6,262.3,157.3,261.8,144.9z M216.7,158c0.7-0.1,0.9,0,1.2-0.1
	c8.1-2.7,16.1-5.6,23.2-10.4c1.7-1.1,3.2-2.6,4.6-4.1c1.5-1.7,1.1-3.7-0.9-4.8c-1.3-0.7-2.7-1.3-4.1-1.7c-5.9-1.7-12-2.1-18.1-2.1
	c-1.4,0-2.1,0.5-2.3,1.9c-0.6,3.6-1.2,7.2-1.8,10.9C217.9,150.9,217.3,154.3,216.7,158z M187.8,123.9c0.6,0.1,0.7,0.2,0.8,0.2
	c0.4-0.1,0.7-0.4,1.1-0.5c3.6-1.3,7.1-3.1,10.8-3.9c12.3-2.7,24.6-2.4,36.9,0.4c1.5,0.4,1.9,0,1.9-1.5c0-3,0.8-5.8,2.4-8.3
	c0.2-0.4,0.4-0.8,0.7-1.3c-0.5,0-0.9-0.1-1.2-0.1c-9.8,1.5-19.5,3.7-29,6.8c-2.2,0.7-3.4,0.5-4.8-2.2c-0.4-0.8-0.5-1.8-0.7-2.7
	c-0.3-2.2-0.6-4.4-0.9-6.5c-2,1.5-3.7,3.4-5.9,4.5c-3.6,1.8-7.4,3-11.1,4.5c-0.6,0.3-1.6,0.9-1.6,1.4
	C187.4,117.8,187.6,120.8,187.8,123.9z M160.3,81.6c0.8-0.9,1.3-1.5,1.9-2c2.1-2,2.8-2,5.3-0.7c3.2,1.7,6.5,3.3,9.8,5
	c0.5,0.2,0.9,0.6,1.5,1c-0.8,0.7-1.4,1.2-2,1.7c-2.6,2.3-4.7,4.9-5.1,8.5c-0.3,2.9,0.8,4.9,3.6,5.6c1.8,0.4,3.7,0.5,5.5,0.3
	c4.6-0.5,8.9-1.7,12.3-5.1c2.2-2.2,2.3-4.3-0.1-6.2c-2.3-1.7-4.9-3.1-7.6-4.3c-4.6-2-9.3-3.7-13.8-5.7c-3.5-1.5-6.9-3.3-10.2-4.9
	C160.9,76.8,160.6,79,160.3,81.6z M203.1,139.4c0.6-3,0.5-3.8-2.3-3.2c-3.4,0.7-6.6,1.9-9.9,2.8c-1.5,0.4-2,1.3-1.8,2.8
	c0.9,6.7,1.8,13.4,2.8,20.1c0.2,1.2,0.8,1.5,1.9,1.3c2-0.5,4-0.9,6.1-1.3c1.3-0.2,1.8-0.9,1.9-2.2
	C202.2,152.7,202.7,145.6,203.1,139.4z M174.9,150.6c-0.1,0-0.2-0.1-0.4-0.1c-2.6,5.4-5.2,10.8-7.9,16.2c0.2,0.1,0.3,0.2,0.5,0.4
	c2.6-0.4,5.2-0.8,7.8-1.1c1.3-0.1,1.8-0.6,1.6-1.9C175.9,159.6,175.4,155.1,174.9,150.6z M199.5,197.9c0.1,0,0.2,0,0.3-0.1
	c0-0.2,0.1-0.3,0.1-0.5c0.1-6.7,0.1-13.3,0.2-20c0-1.5-0.9-1.7-2-1.6c-1.3,0.1-2.1-0.1-2.1-1.7c0-0.4-0.7-1.2-1.1-1.2
	c-1.1-0.1-0.8,0.8-0.7,1.5c0.9,4.1,1.7,8.2,2.6,12.3C197.7,190.4,198.6,194.1,199.5,197.9z M63.5,105.7c1.5-0.8,2.7-1.4,3.8-2.1
	c0.6-0.3,1.4-0.7,1.5-1.3c0.9-3,1.6-6,2.4-8.8C68.8,97.4,66.3,101.4,63.5,105.7z M83,116.9c-0.1-0.2-0.3-0.3-0.4-0.5
	c-2.2,0.9-4.4,1.9-6.6,2.9c1.7,1,3.2,1.8,4.9,2.8C81.7,120.4,82.3,118.6,83,116.9z M139.7,192.6c0,0,0.1,0,0.1,0
	c0.8-2.2,1.7-4.4,2.4-6.6c0.2-0.5-0.1-1.1-0.2-1.6c-0.5,0.4-1.2,0.8-1.3,1.2C140.3,188,140.1,190.3,139.7,192.6z M273.9,119
	c0,0.1,0,0.2,0.1,0.3c0.5,0.2,1.1,0.4,1.6,0.5c0.3,0,0.8-0.1,1.1-0.3c0.1-0.1,0.2-0.7,0.1-0.7c-0.3-0.2-0.7-0.4-1-0.3
	C275.1,118.6,274.5,118.8,273.9,119z"/>
</svg>
