<?xml version="1.0" encoding="utf-8"?>
<!-- Generator: Adobe Illustrator 23.0.5, SVG Export Plug-In . SVG Version: 6.00 Build 0)  -->
<svg version="1.1" id="Layer_1" xmlns="http://www.w3.org/2000/svg" xmlns:xlink="http://www.w3.org/1999/xlink" x="0px" y="0px"
	 viewBox="0 0 325.2 243.7" style="enable-background:new 0 0 325.2 243.7;" xml:space="preserve">
<style type="text/css">
	.st0{fill:#193842;}
</style>
<g>
	<path class="st0" d="M75.2,175.8c0-1.2,0-2.3,0-3.9c-2.9,0-5.6,0-8.2,0c-3.5,0-7,0.1-10.6,0.1c-0.3,0-0.7-0.1-0.9,0
		c-2.2,0.9-3.1-0.5-4.3-2.1c-2.1-2.8-4.5-5.3-6.7-8c-0.4-0.5-0.7-1.3-0.5-1.7c0.2-0.4,1.1-0.7,1.7-0.7c2.8,0.2,5.5,0.7,8.3,0.9
		c3.2,0.2,6.5,0.2,9.8,0.3c0.3,0,1-0.6,1-1c0.1-3.5,0.1-6.9,0.1-10.4c0-0.2,0-0.3,0-0.5c0.1-2.7,0.1-5.5,0.2-8.2
		c0-1.2-3.6-5.7-4.8-5.8c-2.2-0.3-4.4-0.5-6.6-0.9c-2.8-0.5-5.5-1.1-8.3-1.6c-0.3,0.5-0.5,1-0.7,1.4c-0.5-0.9-1-1.7-1.5-2.4
		c-0.2,0.1-0.5,0.1-0.7,0.2c0,1.1,0,2.2,0,3.3c-0.2,0-0.5,0-0.7,0c-0.2-1.2-0.4-2.3-0.5-3.5c-0.2,0-0.4,0-0.6,0c0,1.9,0,3.7,0,5.6
		c-0.3,0-0.5,0-0.8,0c-0.2-2.6-0.3-5.1-0.5-7.7c-0.2,0-0.3,0-0.5,0c0,1.1,0,2.1,0,3.2c-0.2,0-0.3,0-0.5,0c-0.1-0.5-0.1-0.9-0.3-1.4
		c-0.1-0.3-0.2-0.9-0.4-0.9c-1.6-0.1-1.1-1.4-1.3-2.2c-0.3-1.3-0.7-2.7-1.2-4c-0.2-0.4-0.9-0.7-1.4-0.9c-3-1-5.2-3.1-6.9-5.6
		c-2.2-3.3-3.6-7-4.2-10.9c-1.3-8.7-0.9-17.3,0.9-25.9c1.4-7,3.9-13.8,7.3-20.1c2.7-5,5.3-10,8.6-14.6c3.5-4.9,6.9-10.1,12-13.7
		c2.9-2,5.5-4.4,8.5-6.3c1.7-1.1,3.7-2.2,5.9-1.5c0.7-1.8,1.4-3.5,1.9-5.2c0.3-1.1,1-1.4,2-1.3c3,0.3,6,0.6,8.9,1
		c1.8,0.2,3.5,0.6,5.1,0.9c-2.2,7.8-4.8,15.4-6.4,23.2c-1.7,7.8-2.4,15.8-3.6,23.9c-4.1-0.3-8.5-0.6-13.3-1c0.7-7.8,1.3-15.4,2-23.4
		c-1.2,0.9-2.4,1.5-3.3,2.3c-4.6,4.1-8.1,9.3-11.4,14.4c-3.4,5.2-5.8,10.9-8.4,16.6c-2.4,5.1-3,10.5-3.5,15.9
		c-0.6,5.6,0.1,11.1,1.9,16.5c1.5,4.7,3.8,6,8.7,4.4c2.9-0.9,5.8-2.3,8.2-4.2c6.6-5.2,11.1-12,14.7-19.5c0.1-0.1,0.1-0.3,0.2-0.7
		c-7.6,0.8-15,1.6-22.2,2.4c-0.2-1.9-0.4-3.6-0.5-5.3c-0.1-1.7-0.3-3.5-0.3-5.2c-0.1-1.4,0.7-2.2,2.2-2.4c5.8-0.7,11.7-1.4,17.5-2.2
		c5.3-0.7,10.5-1.4,15.8-2.1c1.1-0.1,2.7,0.1,3.3-0.5c0.6-0.6,0.4-2.2,0.5-3.3c0.3-3.6,0.5-7.2,0.8-10.8c0.2-2.2,0.6-4.4,0.8-6.6
		c0.2-2,0.2-4.1,0.5-6.1c0.1-0.6,0.5-1.3,0.9-1.5c4.5-2,9.1-3.7,14-4.5c0.3-0.1,0.6,0,1,0c-0.7,4.6-1.6,9.2-2.2,13.7
		c-0.7,5.4-1.3,10.8-1.8,16.3c-0.3,4-0.7,8.1-0.5,12.1c0.4,7.2,0.4,14.4,3.3,21.2c0.5,1,1,2.1,1.7,3c1.2,1.5,2.3,1.6,3.7,0.3
		c2.1-1.9,3.9-4.2,4.9-6.9c1-2.7,1.8-5.5,2.5-8.3c0.7-2.5,0.7-5.4,1.9-7.6c2.2-3.9,0.7-7.8,0.9-11.6c0.3-3.9-0.1-8-0.8-11.9
		c-1-5.2-2.6-10.3-4-15.4c-0.4-1.4-0.5-2.8-1-4.2c-0.2,0.7-0.4,1.4-0.5,2c-0.1,0-0.2,0-0.3,0c-0.1-0.3-0.2-0.5-0.2-0.8
		c0.1-2.3,0.2-4.5,0.3-6.8c0-1.2,0.6-1.8,1.7-2.2c2.9-1,5.8-2,8.7-3.1c0.9-0.3,1.6-0.9,2.5-1.4c2.8,8.5,4.9,17.1,6.1,25.8
		c1.3,8.7,2.4,17.5,3.6,26.5c1.7-0.2,3.6-0.3,5.5-0.7c0.4-0.1,0.8-0.8,1-1.2c1-3.5,2-7.1,2.8-10.7c1.4-5.9,2.8-11.7,3.9-17.7
		c1-5.6,1.8-11.2,1.3-16.9c-0.2-2.3,0.1-4.6,0.3-6.8c0-0.4,0.4-0.9,0.8-1c5.1-2.1,10.2-4.2,15.3-6.3c0.2-0.1,0.5-0.1,0.9-0.2
		c-1.3,5.1,0.4,10,0.5,14.9c0.2,0,0.3,0.1,0.5,0.1c1.3-1.7,2.5-3.3,3.8-5c1-1.3,2.1-2.6,3.1-3.9c0.9-1.2,1.8-1.2,3.2-0.7
		c8.3,3,16.6,6.2,25.1,8.9c9.2,3,18.6,5.6,27.9,8.3c5.3,1.5,10.1,4.4,15,6.9c-0.1-1.7-0.8-2.7-2.4-3.3c-8.4-3.5-16.8-7.2-25.3-10.6
		c-2.4-1-2.3-2.1-1.1-3.8c1.4-2.1,2.9-4.1,4.4-6.2c0.3-0.5,0.6-1,0.9-1.5c1.1-2.3,1.1-2.3,3.4-1.5c9.5,3.1,18.8,7,27.7,11.3
		c12.2,5.9,24.3,12.2,36.3,18.7c4.8,2.6,9.3,6,13.7,9.3c4.3,3.2,7.2,7.7,9,12.7c1.6,4.6,0.8,9.2-2,13.3c-3.3,5-7.5,9.3-12.3,12.9
		c-5.7,4.3-11.5,8.5-17.4,12.6c-1.8,1.3-3.9,2.1-5.8,3.2c-0.5,0.3-0.9,1-1.2,1.6c-0.4,0.6-0.6,1.3-0.9,2c-2.1,5.1-4.7,10.1-6.3,15.4
		c-1.9,6.3-4.1,12.7-4.4,19.4c0,1.1-0.5,1.5-1.5,1.7c-2.4,0.5-4.8,1.2-7.2,1.6c-1.8,0.3-2.3-0.1-2.3-1.8c0-6-0.3-12,1.1-17.9
		c0.1-0.6,0.2-1.3,0.3-2.2c-4.5,0.8-8.9,1.4-12.9,3.2c-1.7,0.8-3.5,1.7-5,2.8c-3.6,2.6-3.8,4.7-0.5,7.7c2.2,2,4.6,3.8,7.2,5.3
		c6,3.4,12.1,6.3,18.1,9.7c6,3.4,12,7,17.7,11c4.5,3.2,8.1,7.3,10.5,12.4c2.7,5.6,1.5,10.5-3.1,14.6c-2.2,1.9-4.7,2.9-7.1,4.3
		c-1.3,0.8-2.9,1.3-3.4,2.9c-0.1,0.2-0.5,0.3-0.9,0.6c0-0.7-0.1-1.3-0.1-1.7c-0.7-0.1-1.3-0.2-2.2-0.3c0,3.5,0,7.1,0,10.7
		c-0.2,0-0.3,0-0.5,0c-0.1-2.2-0.2-4.4-0.4-6.6c-0.1,0-0.2,0-0.2-0.1c-0.1,0.3-0.2,0.7-0.5,0.9c-0.3,0.3-0.6,0.4-1,0.7
		c-0.2-0.3-0.4-0.6-0.5-0.9c-0.2-0.5-0.3-1-0.5-1.6c-0.1,0-0.3,0-0.4,0.1c0,1.8,0,3.7,0,5.5c-0.2,0-0.4,0-0.6,0
		c-0.2-2.5-0.4-5-0.6-7.5c-0.2,0-0.4,0-0.6,0c-0.1,1.9-0.2,3.7-0.3,5.6c-0.1,0-0.2,0-0.3,0c-0.1-1-0.3-2-0.4-3.1c-0.1,0-0.2,0-0.3,0
		c0,2.5,0,4.9,0,7.4c-0.2,0-0.4,0-0.6,0c-0.1-2.1-0.1-4.1-0.2-6.2c0-0.7,0.1-1.4,0-2c-0.1-0.5-0.6-0.9-0.9-1.3c-0.5-0.6-1-1.2-1.5-2
		c0,0.8-0.1,1.6-0.1,2.3c-0.2,0-0.4,0.1-0.6,0.1c-0.3-0.7-0.6-1.4-1-2.1c-0.2-0.4-0.7-0.7-1.1-0.8c-2.9-1.3-5.8-2.6-8.8-3.8
		c-0.4-0.2-1,0.2-1.5,0.3c-0.4-0.6-0.8-1.4-1.3-2.1c-0.2,0.1-0.5,0.1-0.7,0.2c0,2.2,0,4.5,0,6.7c0,2.2,0,4.4,0,6.6
		c-0.2,0-0.4,0-0.6,0c-1.1-2.5,0.6-5.2-0.2-7.8c-0.7-2.4,0.8-5.3-1.1-7.5c-0.2,0-0.4,0-0.6,0c0,1.4,0,2.8,0,4.2
		c-0.2,0-0.4,0.1-0.6,0.1c-0.9-2.3,0.6-5.5-2.4-7c0,5.9,0,11.8,0,17.7c-0.1,0-0.2,0.1-0.3,0.1c-0.2-0.5-0.4-1-0.4-1.5
		c-0.1-4-0.1-8-0.1-12c0-0.8,0.1-1.6-1-1.9c-1-0.3-2-0.8-2.9,0.3c-0.2,0.3-0.6,0.7-1,0.8c-2.1,0.7-2.3,2.3-2.2,4.3
		c0.1,1.6,0,3.2,0,4.8c-0.2,0-0.4,0-0.6,0c0-2.4,0-4.7,0-7.3c-2.1,0.6-3.9,1.1-5.6,1.6c-0.3,0.1-0.6,0.7-0.6,1.1
		c-0.1,1.3-0.1,2.7-0.2,4.1c-0.7,0-0.7,0-0.8-1.9c-0.1-0.9-0.1-1.8-0.2-2.6c-0.1-0.1-0.3-0.2-0.4-0.3c-0.3,0.3-0.7,0.7-0.8,1
		c0,1.4,0,2.8,0.2,4.3c0.1,0.4,0.6,0.9,1.1,1c4,1.1,7.6,2.8,10.7,5.5c0.3,0.3,0.6,1,0.5,1.2c-0.5,1-1.1,2-1.8,2.9
		c-1.6,2-3.2,3.8-4.8,5.8c-0.5,0.6-0.8,0.7-1.5,0.3c-3-1.3-6-2.5-9-3.6c-0.5-0.2-1.3,0.5-2,0.8c0,0.1,0.1,0.3,0.1,0.4
		c-0.2-0.1-0.6-0.1-0.7-0.2c-2.5-2.6-6-2.9-9.2-3.7c-10.2-2.4-20.5-3.7-30.9-4.2c-6.4-0.3-12.8-0.5-19.3-0.3c-8,0.2-16.1,0.9-24,2.6
		c-7.2,1.6-14.5,2.9-21.8,4.3c-0.5,0.1-1.1,0.1-1.8,0.2c0-0.4,0-0.7,0.1-0.9c1.3-3.6,2.5-7.2,3.8-10.7c0.3-0.8,1.2-1.4,2-1.8
		c2.3-1.2,4.1-2.7,3.6-5.7c-1.2,0-1.4-0.9-1.3-2c0.2-1.1,0.4-2.2,0.6-3.2c1.3-7.7,4.1-14.9,7.2-21.9c0.1-0.2,0.1-0.4,0.2-0.7
		c-0.7,0-1.4,0-2,0c-5.1,0.4-10.2,1.3-15.2,2.6c-0.5,0.1-1.1-0.1-1.6-0.2c0.1-0.4,0.1-0.9,0.2-1.3c0.8-2.7,1.8-5.3,2.4-8
		c0.4-1.8,1.4-2.6,3.1-2.8c5.2-0.6,10.4-1.3,15.7-1.9c1-0.1,1.6-0.4,1.9-1.4c0.6-2.3,1.4-4.5,2.3-7.1c-13,7.9-26.9,11.6-41.6,13.6
		c2.4,8.5,4.8,16.7,6.9,25.1c1.1,4.5,1.6,9.1,2.3,13.6c0.2,1.3-0.3,2.3-1.6,2.9c-0.3,0.1-0.6,0.7-0.7,1.2c-0.3,1.8-0.3,3.7-0.7,5.4
		c-0.1,0.5-1.2,0.9-1.9,1.3c-0.2-0.3-0.3-0.6-0.5-1c-0.1,1.6-0.2,3.1-0.3,4.5c-0.2,0-0.5,0-0.7,0c-0.2-1.1-0.4-2.2-0.6-3.3
		c-0.2,0-0.3,0-0.5,0c-0.2,1.6-0.3,3.1-0.5,4.7c-0.1,0-0.2,0-0.4,0c-0.1-0.6-0.1-1.1-0.2-1.7c0-1.4,0-2.7,0-4.1
		c0-1.2-0.9-2.1-1.3-3.2c-0.9-2.1-1.2-4.6-1.7-6.9c-1.5-6.6-2.8-13.2-4.5-19.7c-1.5-5.6-3.3-11.1-5.1-16.6c-0.1-0.4-0.5-0.6-0.8-1
		c-0.2,0.4-0.6,0.8-0.7,1.2c-0.1,1,0,2.1,0,3.1C75.6,175.8,75.4,175.8,75.2,175.8z M226.1,109.9c-0.5,0.9-0.8,1.5-1.1,2.1
		c-1.4,2.8-2.9,5.6-4.1,8.5c-3,7.3-4.4,15.1-6,22.8c-0.6,2.8-1.1,5.7-1.1,8.6c0,1.6-0.5,1.9-1.7,2.1c-1.6,0.4-3.2,0.9-4.8,1.3
		c-1.2,0.3-2.5,0.5-3.7,0.5c-0.9,0-1.4-0.6-1.3-1.6c0.1-1.2,0-2.3,0-3.5c0.3-5.3,0.7-10.7,1-16c0-0.4,0.1-0.8,0.2-1.2
		c-6.1,1.5-12.2,2.6-17.6,5.9c-4.3,2.6-4.7,4.8-1.7,8.1c0.4,0.4,0.8,0.9,1.3,1.2c2.9,2,5.8,4.2,8.9,6c10.4,6,21.7,10.5,31.4,17.7
		c0.4,0.3,1.4,0.2,1.9-0.1c2.1-1,4-2.2,6.1-3.3c1-0.5,2.2-0.7,3.4-1.1c0.1,0.9,0.1,1.7,0.3,2.5c1.3,5.9,4.3,11,8.1,15.5
		c4.8,5.7,10.6,9.7,17.9,11.3c3,0.7,6,0.7,8.8-0.6c2.6-1.2,3.3-3.4,1.7-5.8c-0.7-1-1.5-1.9-2.4-2.7c-4.4-4.1-9.6-7.2-14.8-10.1
		c-8.5-4.7-17.1-9.3-25.6-14c-5.3-3-10.3-6.4-13.3-12c-1.6-3-2.8-6.1-1.4-9.5c1.2-2.8,3.3-5,5.7-6.8c5.1-3.7,10.5-6.8,16.6-8.5
		c0.7-0.2,1.6-0.7,1.7-1.3c1-3.4,2-6.8,2.7-10.3c0.9-4.4-0.1-6.2-4.1-8.1c-0.5-0.3-1.1-0.5-1.6-0.7c-4.6-2.1-9.2-4.3-13.9-6.4
		c-6.2-2.8-12.4-5.5-18.9-8.4c0.2,1.3,0.4,2.1,0.5,2.9c1.2,5.5,3.1,10.8,3.5,16.5c0.1,1.1,0.9,0.8,1.5,0.7c4.6-0.8,9.1-1.6,13.7-2.4
		C224.6,109.8,225.2,109.9,226.1,109.9z M193.7,98.5c-0.2,0-0.4,0.1-0.6,0.1c0,0.6,0,1.1,0,1.7c0.1,3.4,0.2,6.8,0.3,10.3
		c0,0.6,0.1,1.5-0.2,1.6c-1.9,1-1.7,2.9-2.1,4.5c-0.1,0.4-0.4,0.7-0.3,0.7c-1.1,0.3-1.8,0.5-2.8,0.7c0-1.2,0-2.4,0-3.9
		c-0.9,0.4-1.5,0.6-2,0.9c-1.2,0.5-2.4,1.1-3.6,1.6c-0.4,0.1-1.3,0-1.5-0.3c-0.8-1.3-1.5-2.6-2.1-4c-3.2-7.4-6.3-14.8-9.4-22.2
		c-0.4-1-0.9-1.5-2.2-1.4c-5.3,0.5-10.7,0.8-16.1,1.1c-1.2,0.1-1.7,0.6-2.1,1.7c-2.4,6.6-4.9,13.2-7.4,19.8
		c-0.2,0.5-0.3,1.1-0.5,1.8c5.5-2.8,11-4.8,17.2-6.3c-2.3,4-1.9,7.9-1.4,11.7c0.8,6.8,2,13.5,2.8,20.3c1.1,9.2,4.5,17.7,7.6,26.3
		c0.2,0.5,0.9,1,1.4,1.1c2.5,0.4,5.1,0.7,7.7,0.9c1.7,0.2,3,0.7,3.1,2.8c0.6-0.3,1.1-0.5,1.5-0.7c1.5-0.5,2.2-1.4,1.9-3
		c-0.1-0.8,0.2-1.7,0.1-2.5c-0.1-0.6-0.3-1.2-0.7-1.6c-0.6-0.6-1.4-0.9-2.1-1.4c-4.5-3.1-9.2-5.7-11.7-11.1c-2-4.4-2.1-8.6,1.1-12.3
		c3.5-4.2,7.9-7.2,12.9-9.3c5.8-2.4,11.7-4.2,18-5.2c0.8-0.1,2.1,0.1,1.9-1.5c-0.1,0-0.2-0.1-0.3-0.1c-0.9,0.2-1.7,0.4-2.6,0.5
		c-1.5,0.3-2.1-0.4-2-1.9c0.1-1-0.2-2.1-0.3-3.1c-0.1-0.9-0.2-1.8-0.4-2.6C195.8,108.8,194.7,103.6,193.7,98.5z M268.3,108.1
		c0.1,0,0.3-0.1,0.5-0.2c5.6-3.7,11.4-7.2,16.9-11c4.6-3.2,8.2-7.4,10.8-12.4c2.4-4.4,1.6-8.5-2.1-12c-3.7-3.5-8-6.4-12.5-8.8
		c-6.6-3.5-13.3-6.8-19.9-10.2c-0.3-0.1-0.6-0.2-1.1-0.4C263.4,71.6,265.9,89.8,268.3,108.1z M175.5,199.2c-1.7,0.8-3.2,1.7-4.8,2.3
		c-2.1,0.8-3,0-3.2-2.2c0-0.6,0-1.3-0.3-1.8c-3.4-6.1-6.3-12.3-8.3-19c-0.1-0.5-0.9-1.1-1.4-1.2c-6.5-0.5-13-0.9-19.5-1.4
		c-1-0.1-1.5,0.3-1.8,1.3c-1.7,5.8-4.1,11.3-6.5,16.7c-0.9,2.1-1.8,4.2-2.8,6.2c-0.3,0.6-1.1,1.1-1.7,1.3c-1.8,0.6-3.7,1.1-5.6,1.6
		c-0.3,0.1-0.6,0.3-0.7,0.5c-0.4,1.5-0.7,3-1,4.8c1.2-0.3,2.2-0.7,3.1-0.8c6.4-1,12.9-2.1,19.3-2.8c6.8-0.7,13.7-1,20.6-1.3
		c3.5-0.1,6.9,0.2,10.4,0.2c3.9,0.1,3.9,0.1,4.2-3.8C175.7,199.7,175.6,199.6,175.5,199.2z M125.3,101.4c-0.2,0-0.3,0-0.5,0
		c-0.4,0.8-0.9,1.7-1.3,2.5c-3.3,7.2-8.7,12.1-16,15.1c-4.5,1.9-11.3,0.3-14.5-3.2c-3.7-4-5-9.2-6.3-14.2c-1.3-5-1.8-10.1-1.5-15.3
		c0-0.2-0.1-0.5-0.2-0.7c-0.4,1.1-0.7,2.2-0.7,3.2c-0.4,10.9-0.6,21.9,0.7,32.8c0.2,1.7,0.7,3.3-1.7,4c0.7,0.3,1.3,0.6,1.8,0.7
		c2.2,0.4,4.4,0.7,6.5,1.1c9.3,1.6,18.6,3.3,27.9,4.9c4.4,0.7,8.8,1.8,12.7,4c1.5,0.9,2.8,2.1,4.2,3.1c1.1-6.6,3.5-13.1,3.1-20
		c-3.6,1.5-7.2,3-10.9,4.6C126,116.6,126.2,108.9,125.3,101.4z M256.5,103.7c-2.2-13.5-4.2-27-8-40.2c-1.2,4.4-4.7,6.9-8,9.1
		c-3,2.1-6.6,3.5-10,4.9c-5,2-10.1,3.7-15.2,5.5C228.7,89.8,242.5,96.7,256.5,103.7z M194.1,45.4c0.8,3,1.5,5.5,2.1,8
		c1.2,5.6,2.4,11.3,3.6,16.9c0.1,0.6,0.6,1.4,1.1,1.6c1,0.3,2.2,0.4,3.3,0.2c6.9-1.2,13.9-1.6,20.4-4.4c2.5-1.1,5.1-2.3,7.4-3.8
		c2.5-1.7,3.1-4.4-0.2-6.2c-1.5-0.8-3-1.7-4.7-2.3c-8.8-2.8-17.7-5.5-26.6-8.3C198.5,46.6,196.5,46.1,194.1,45.4z M85.5,158.5
		c0.5,0,1,0,1.5,0c9-1,17.8-2.7,26.2-6c2.5-1,4.9-2.4,7.2-3.8c1.6-1,1.4-2.2-0.5-2.7c-3-1-6.1-2-9.2-2.6c-6.3-1.2-12.6-2.2-19-3.2
		c-4.3-0.7-8.7-1.3-13.1-1.9C80.9,145.1,83.2,151.7,85.5,158.5z M188.4,165.7c0.2,1,0.2,1.9,0.4,2.7c1.7,6.8,5,12.7,10,17.6
		c4.7,4.5,10,8.1,16.6,9c3.1,0.4,6.2,0.6,9-1.3c2-1.3,2.4-2.9,0.9-4.8c-1.4-1.8-2.8-3.7-4.6-4.9c-4.6-3.3-9.4-6.4-14.3-9.2
		c-6.2-3.5-12.6-6.7-18.9-10.1c-1.1-0.6-2.1-1.2-3.5-2.1c-0.1,1.9-0.2,3.4-0.3,5.2C185.4,167.1,186.8,166.5,188.4,165.7z
		 M167.2,37.4c0.4,1.8,0.7,3,1,4.3c1,5.3,1.6,10.6,3,15.8c1.9,6.9,4.3,13.7,6.6,20.5c0.1,0.3,0.5,0.7,0.8,0.8c2,0.5,3.3,0,4.4-1.8
		c0.4-0.7,0.7-1.4,1.2-2.1c0.7-0.9,1.4-1.7,2.4-2.9c-0.2-0.7-0.6-2-1-3.2c-2.1-8.1-4.3-16.1-6.3-24.2c-0.4-1.7-1.4-2.8-3-3.4
		c-2.1-0.8-4.1-1.7-6.1-2.5C169.2,38.4,168.4,38,167.2,37.4z M72.5,106.6c-0.1,0-0.3-0.1-0.4-0.1c-4.5,5.7-9.9,10.3-16,14.2
		c0,0.2,0.1,0.5,0.1,0.7c5.4,0.9,10.9,1.9,16.3,2.8C72.5,118.1,72.5,112.4,72.5,106.6z M193.5,200.8c-0.1,0.1-0.3,0.1-0.4,0.2
		c-0.2-0.3-0.5-0.7-0.6-1c-0.1-1,0.1-2-1-2.8c-1.3-1-2.3-2.4-3.7-3.9c-0.2,1.6-0.2,2.7-0.4,3.8c-0.1,0.5-0.5,1-0.8,1.4
		c-0.3,0.6-0.8,1.2-0.9,1.8c-0.1,0.9,0.1,1.9,0,2.8c-0.1,1.3,0.5,1.7,1.7,1.8c4.6,0.5,9.2,1.1,13.7,1.7c2.7,0.4,5.5,0.9,8.7,1.5
		c-0.3-1.1-0.3-2.4-0.7-2.6c-3.3-1.4-6.7-2.6-10.2-3.9c-0.2,0.4-0.4,0.8-0.7,1.4c-0.8-1-0.1-3-2.2-2.6c0,0.8,0,1.6,0,2.3
		c-1.4,0.4-1.1-0.5-1.2-1.2c-0.1-1.1,0.6-2.3-0.9-3.1C193.7,199.4,193.6,200.1,193.5,200.8z M147.5,146c-2.1,5.9-4.3,12-6.4,17.9
		c4.4,0.2,8.8,0.4,13.2,0.6C152,158.2,149.7,152,147.5,146z M158.8,62.3c-1.8,5.6-3.6,11.4-5.5,17.4c3.9-0.2,7.7-0.4,11.6-0.6
		C162.8,73.3,160.7,67.6,158.8,62.3z M73.2,160.1c-2.3-6.2-4.4-12-6.6-17.9c-0.4,0.2-0.5,0.2-0.5,0.2c-0.1,5.7-0.2,11.4-0.3,17.1
		c0,1,0.6,1.3,1.4,1.2C69,160.5,70.8,160.3,73.2,160.1z M187.5,102.5c0.2-0.1,0.3-0.1,0.5-0.2c0-0.1,0.1-0.3,0.1-0.4
		c0.1-4.5,0.1-9,0.1-13.5c0-0.3-0.6-0.9-0.9-0.9c-1.7,0-3.4,0.2-5.4,0.3C183.8,92.8,185.6,97.6,187.5,102.5z M180.2,202.8
		c0.9,2.4,2.8,1.2,4.3,1.7c0-1.6,0-2.9,0-4.6C183,201,181.7,201.8,180.2,202.8z M172.8,178.9c-0.2,0.1-0.4,0.2-0.6,0.3
		c0.8,1.9,1.5,3.8,2.3,5.7c0.1,0,0.3-0.1,0.4-0.1c0-1-0.1-2,0-2.9C175.3,180.1,174.3,179.4,172.8,178.9z M213.7,208.9
		c0.3-2.2,0-3.1-1.1-3.1c-0.7,0-1.6-0.1-1.7,1.1C210.8,208.6,211.4,209,213.7,208.9z M218.9,210.6c0.1-0.1,0.3-0.2,0.4-0.3
		c0-1.2,0.1-2.5,0-3.7c0-0.2-0.7-0.4-1.1-0.6c-0.3,1.1-0.7,2.3-0.7,3.4C217.5,209.8,218.4,210.2,218.9,210.6z M140.8,113.8
		c-0.1-0.1-0.3-0.2-0.4-0.3c-0.6,0.5-1.7,1-1.7,1.6c0,1.3,0.5,2.5,0.7,3.8c0.2,0,0.3,0,0.5,0C140.2,117.2,140.5,115.5,140.8,113.8z
		 M244.3,115.5c1.2,0.2,1.4-0.4,1.3-1.2c-0.2-1.1,0.6-2.6-1.3-3.3C244.3,112.6,244.3,114,244.3,115.5z M221.1,211c0-1.8,0-3.5,0-5.4
		C219.8,206.7,219.9,210.2,221.1,211z M254,112.9c3.3-0.4,3.8-0.9,2.7-2.8C255.8,111,255,111.9,254,112.9z M249,114.3
		c0-0.1,0.1-0.3,0.1-0.4c-0.7-0.4-1.4-0.8-2.5-1.4c0.1,1.1,0.1,1.7,0.2,2.6C247.7,114.7,248.3,114.5,249,114.3z"/>
</g>
</svg>
