<?xml version="1.0" encoding="utf-8"?>
<!-- Generator: Adobe Illustrator 23.0.5, SVG Export Plug-In . SVG Version: 6.00 Build 0)  -->
<svg version="1.1" id="Layer_1" xmlns="http://www.w3.org/2000/svg" xmlns:xlink="http://www.w3.org/1999/xlink" x="0px" y="0px"
	 viewBox="0 0 415.8 243.7" style="enable-background:new 0 0 415.8 243.7;" xml:space="preserve">
<style type="text/css">
	.st0{fill:#193842;}
</style>
<path class="st0" d="M288.4,36.5c0.3,0.1,0.7,0.2,1,0.2c2.5-0.8,4.4-0.3,5.5,2c1.1,2.4,1.8,5.1,2.7,7.7c0.1,0.2,0.3,0.4,0.4,0.7
	c0.3,0.4,1.2,0.9,0,1.3c0.3,0.8,0.4,1.8,0.9,2.5c3.1,4.4,7.5,7.5,12,10.2c8.4,5,17.5,8.5,26.9,10.8c5.8,1.4,11.7,2.9,17.6,3.9
	c7,1.2,14,1.9,21.2,2.9c0.1-1.1,0.1-1.9,0.1-2.6c0.1-1.5,0.2-3,0.3-4.4c0.1-1.3,0.9-1.8,2.2-1.9c1.2,0,2.4-0.3,3.6-0.3
	c0.7,0,1.4,0.5,2,0.5c3.7,0,7.3,0.1,11-0.1c5.8-0.4,9.5,3.6,11.4,7.4c0.9,1.7,0.4,3.2-1.1,4.5c-1.9,1.5-3.9,2.9-5.8,4.4
	c-1.7,1.4-3.3,3-5,4.4c-0.9,0.7-1.7,1.5-2.7,2.1c-6.2,3.3-12.4,6.6-18.6,9.8c-0.8,0.4-1.7,0.7-3,1.2c0.7-4.6,1.3-8.6,1.9-13
	c-13.2,0.7-26.1-0.6-39.4-1.9c0.3,2.8,0.7,5.5,1,8.1c0.7,7.9,3.5,15.3,6.1,22.7c2,5.5,3.7,11.1,5.7,16.6c2.3,6.5,5.1,12.8,8.3,18.9
	c4.8,9,9,18.3,13.5,27.5c0.8,1.7,0.7,3.1-0.8,4.4c-6.5,5.5-12.9,11.1-19.4,16.6c-1,0.9-2.1,1.7-3.4,2.7c-0.7-3-1.3-5.6-2.1-8.2
	c-2.6-8.5-5.4-17-8-25.5c-6.2-20.4-11.4-41.1-15.5-62c-0.9-4.3-1.3-8.8-2.1-13.1c-0.3-1.5,0.2-2.6,1.4-3.4c2-1.5,4-2.9,6-4.4
	c0.7-0.5,1.4-1.1,1.9-1.6c-10.3-2.6-20.6-5.1-30.9-7.7c0.1,0.3,0.4,1,0.7,1.6c2.5,6.4,5,12.7,7.4,19.1c4,10.4,7.7,20.8,12,31
	c2.8,6.7,6.4,13.1,9.4,19.7c2.8,6.2,5.3,12.6,7.7,19c0.7,1.9-0.3,3.7-1.7,4.9c-1.9,1.6-3.9,3.1-6,4.3c-3.9,2.2-7.9,4.2-11.6,6.1
	c-15.7-28.7-34.6-54.4-57.9-77.1c0.4,0.8,0.7,1.6,1.1,2.3c6.6,12.5,13.3,25,19.9,37.5c2.6,4.9,4.9,9.9,7.3,14.8
	c0.6,1.2,0.4,1.9-0.9,2.4c-4.3,1.8-8.5,3.7-12.8,5.6c-0.8,0.4-1.6,0.8-2.6,1.2c3,1.1,5.7,2.2,8.4,3.2c2.6,1,3,1.6,2.4,4.3
	c-0.4,2-1,4.2-2.1,5.9c-1.8,3.1-3.9,5.9-5.8,8.7c-2.5-1.6-5.1-3.2-7.5-4.9c-0.4-0.3-0.5-1.2-0.7-1.8c-0.3-0.7-0.6-1.3-1.3-1.8
	c0,0.8,0,1.6,0,2.3c-4.7-1.4-9.3-3.1-14-4.2c-22.3-5.1-44.1-3.7-65.7,3.9c-12,4.2-22.9,10.3-33.4,17.3c-1.1,0.8-2.3,1.5-3.4,2.3
	c-1.3,1.1-2.2,0.6-3.1-0.6c-1.4-1.9-2.2-4.1-1.9-6.5c0.2-1.2,1-2.4,1.9-3.3c4.6-4.7,10-8.5,15.7-11.8c12.5-7,25.6-12,39.6-15.1
	c11.1-2.4,22.3-2.6,33.6-2.7c1.5,0,3,0,4.7,0c-1.4-7.7-2.9-15.3-4.3-23.1c-1.1,1.7-2.2,3.4-3.3,5.1c-2.6,4.1-5.8,7.7-9.6,10.8
	c-2.7,2.2-5.8,3.4-9.2,4.2c-3.6,0.9-7.1,0.2-10.4-1.5c-4.3-2.2-5.4-6.4-6.3-10.7c-0.6-3.1-1.2-6.1-2.2-9.1c-0.7,2.7-1.1,5.6-2,8.2
	c-1.9,5.5-4.5,10.7-7.9,15.5c-5.3,7.5-13.2,10.1-21.8,7c-0.6-0.2-1.2-0.4-1.8-0.6c-0.6,1-1.1,1.9-1.6,2.7c-1.6,2.3-4,3.1-6.8,2.6
	c-6.2-1.1-11.8-3.8-17.1-7c-4.5-2.7-9.2-4.7-14.2-6.1c-0.3-0.1-0.5-0.2-0.9-0.3c0.1-0.4,0.2-0.8,0.4-1.2c1-1.8,0.8-2.5-1.3-3
	c-2.2-0.5-4.3-1-6.6-1.5c0.1-1.3,0.2-2.5,0.3-3.8c0.2-2.4,0.9-3.3,3.3-3.7c4.7-0.8,9.4-0.7,13.7,1.8c0.2,0.1,0.5,0.2,1.3,0.5
	c-1.6-2.6-2.9-4.8-4.2-6.9c-3.3-5.4-7-10.7-10-16.3c-2.5-4.7-4.3-9.9-6.4-14.9c-4.4-10.4-9.4-20.5-12.5-31.3
	c-0.1-0.2-0.2-0.5-0.6-1.1c-0.1,0.8-0.2,1.2-0.2,1.6c0.2,6.2,0.1,12.5,0.8,18.6c0.7,5.8,2.1,11.6,3.6,17.4
	c1.5,6.1,3.5,12.1,5.1,18.3c1.1,4.2,0.5,5.6-3.3,7.9c-1.6,1-3.3,1.6-5,2.4c-1.4,0.7-2.3,0.4-3.2-1c-3.6-5.7-7-11.7-11.1-17
	c-8.4-10.9-17.2-21.4-25.9-32.1c-1.6-2-3.2-3.9-5.1-5.7c0.6,1.5,1.2,3.1,1.9,4.6c3.6,8.1,6.9,16.3,10.8,24.2
	c3.4,6.9,7.4,13.5,11,20.3c1.9,3.5,3.5,7.1,5.3,10.6c1.4,2.8,3,5.6,4.4,8.4c0.9,1.8,1.7,3.7,2.6,5.6c1.1,2.5,0.5,4.9-1.5,6.6
	c-4.3,3.7-9.2,6.2-14.8,7.5c-0.8,0.2-2-0.4-2.7-1c-1.1-0.9-1.8-2.2-2.8-3.3c-9.5-10.8-19.2-21.3-31.5-29c-6.5-4.1-13.2-7.7-20.8-9.5
	c-0.3-0.1-0.5-0.2-1-0.3c1.1-1.8,2.1-3.5,3.2-5.1c1.2-1.8,2.7-3.4,4-5.2c3-4.4,7.5-5.8,12.1-3c8.1,4.9,15.8,10.3,22.5,17
	c0.3,0.3,0.6,0.7,1,1.3c0.1-0.5,0.2-0.6,0.1-0.7c-7-19.8-14.4-39.4-22.9-58.6c-1.7-3.9-4-7.5-6.1-11.2c-0.8-1.5-1.7-3-2.6-4.5
	c-3.5-6.2-0.8-12.7,3.8-16.5c3.4-2.8,7.4-3.9,11.5-4.7c2.1-0.4,4.3-0.7,6.5-1c4.2-0.5,7,1.3,8.2,5.4c0.9,3.3,1.6,6.7,2.7,10
	c2.8,9,6.8,17.6,11.2,25.9c5.1,9.5,10,19.2,16.3,28c2.7,3.8,5.6,7.6,8.5,11.3c-3.1-23.6-4.3-47.3-5-71.3c1.2,0.5,1.9,0.7,2.6,1
	c0.1-0.1,0.1-0.2,0.2-0.2c-0.2-0.2-0.3-0.5-0.5-0.5c-2.2-0.9-2.2-0.9-1.6-3.1c0.1-0.2,0.2-0.4,0.2-0.7c1-4.5,3.5-7.5,8.2-9
	c5.9-1.9,11.5-4.5,17.3-6.9c0.2-0.1,0.4-0.1,0.8-0.2c-0.2,4-0.5,7.9-0.7,11.8c-0.7,11.2-0.6,22.4,1.9,33.4
	c3.4,15.4,7.5,30.6,13.3,45.2c0.7,1.7,1.3,3.5,2.3,5.2c-0.2-0.8-0.3-1.5-0.6-2.3c-3.3-10.8-4.9-21.9-4.3-33.2
	c0.3-4.5,1.5-9,2.7-13.5c1.3-5,5.1-7,10-7.3c2.4-0.1,4.8,0,7.3,0c-0.4-0.4-0.9-0.9-1.5-1.3c-2.8-2.2-5.6-4.2-8.3-6.5
	c-3-2.5-3.9-6.1-1.9-9.4c2-3.2,4.5-6,6.9-9c1-1.2,2.4-0.9,3.7-0.5c4.9,1.8,9.6,4,13.5,7.5c4.6,4.1,9.6,8,12.9,13.4
	c4.2,6.9,9,13.5,11.6,21.3c0.6,1.8,1.6,3.4,2.3,5.2c1.5,4,3,8,4.4,11.8c0-0.8,0-2.1,0-3.4c0-1.3,0-2.5-0.1-3.8
	c-0.5-7.4-1.6-14.7-4.4-21.7c-1.1-2.7-2.6-5.1-5.5-6.2c-1-0.4-2.2-0.5-3.6-0.8c0.3-0.6,0.5-1.2,0.9-1.7c0.7-1,1.7-1.9,2.2-3
	c0.6-1.1,1.4-1.5,2.5-1.5c3.2,0.1,6.3,0.2,9.5,0.5c0.8,0.1,1.6,0.4,2.2,0.8c5.5,4,9.9,8.9,10.6,16c0.4,4.5,0.6,9.1,0.7,13.6
	c0,12.2,1.3,24.3,3.8,36.3c0.7,3.5,1.6,7.1,2.7,10.5c0.6,1.7,1.8,3.3,2.8,4.9c0.8,1.2,1.9,1.2,2.6,0c2.5-3.8,5.2-7.4,7.2-11.5
	c1.9-3.9,2.9-8.2,4.1-12.4c1.3-4.6,0-9-1.4-13.4c-2.4-8-4.9-15.9-7.3-23.9c-1.1-3.6-2.7-6.8-4.9-9.8c-0.6-0.8-1.1-1.7-0.2-2.6
	c1.7-1.7,3.3-3.5,5.3-4.8c1.4-0.9,3.4-1.7,5.1-1.5c1.6,0.2,3,1.6,4.5,2.5c0.1,0.1,0.3,0.1,0.7,0.4c-0.2-1.9-0.4-3.6-0.5-5.2
	c-0.3-4.7,0.8-8.8,4.8-11.7c0.8-0.6,1.5-1.4,2.1-2.3c1.4-2,3.3-2.8,5.6-2.8c0.9,0,2.1,0.6,2.6,1.3c1,1.4,2,2.9,2.5,4.5
	c1.4,4.7,3.5,9.1,6.1,13.2c6.1,9.4,12.1,19,18.8,28c6.6,8.9,14,17.1,20.9,25.7c3.9,4.9,7.4,10.1,11.1,15.1c0.3,0.4,0.6,0.9,1,1.3
	c0.2-0.1,0.3-0.1,0.5-0.2c-1.6-4.5-3.1-9.1-4.9-13.5c-7.5-18.2-15.1-36.3-22.6-54.4c-1.2-2.9-2-5.9-2.9-8.8
	c-0.4-1.2-0.1-2.3,0.9-3.1c1.9-1.4,3.9-2.8,6-4.3c-0.4-0.8-0.9-1.8-1.3-2.8c-1.4-2.8-1.2-5.6,0.8-7.9c2-2.3,4.4-4.3,6.8-6.3
	C286.1,37.9,287.3,37.3,288.4,36.5C288.5,36.5,288.4,36.5,288.4,36.5z M148.7,81.7c-0.2,0.2-0.4,0.3-0.5,0.5
	c-0.9,1.8-1.8,3.6-2.8,5.3c-6.1,11-5.4,22.2-1.2,33.5c3.1,8.2,7.8,15.5,13.1,22.4c3.2,4.2,7.2,7.9,10.9,11.7
	c1.4,1.5,3.2,2.1,5.3,2.1c1.7,0,2.3-0.5,2.5-2.2c1-10.3,0.3-20.5-1.7-30.5c-1.9-9.8-6.7-18.4-11.7-26.9
	C159,91.5,154.7,86,148.7,81.7z M239.2,114.1c0.6,1,0.9,2,1.6,2.5c2.7,2,3.6,4.6,3.5,7.8c0,0.2,0.1,0.5,0.1,0.7
	c2,11,3.9,21.9,6,32.9c0.6,2.9,0,5.2-2.5,6.9c-1.5,1-2.9,2-4.4,3.1c-0.4,0.3-0.8,0.6-1.1,0.8c4.7,0.4,9.4,0.8,14.3,1.2
	c-1.9-10.7-6.6-20.4-9-31c1.6-0.9,3.2-1.7,5-2.7c-2.8-6.3-5.6-12.7-8.3-19.1C243.5,114.7,241.9,114,239.2,114.1z M84.4,171
	c0.1-0.2,0.1-0.5,0.2-0.7c-2-0.3-3.9-0.5-5.9-0.7c-0.3,0-1,0.4-1,0.7c-0.1,0.4,0.3,0.9,0.4,1.3c0.2-1.6,0.9-2,2.6-1.6
	C81.9,170.3,83.2,170.7,84.4,171z M86.5,134.5c-0.1-1-0.2-1.8-0.3-3c-0.7,1-1.1,1.6-1.6,2.3C85.3,134,85.8,134.2,86.5,134.5z"/>
</svg>
