<?xml version="1.0" encoding="utf-8"?>
<!-- Generator: Adobe Illustrator 23.0.5, SVG Export Plug-In . SVG Version: 6.00 Build 0)  -->
<svg version="1.1" id="Layer_1" xmlns="http://www.w3.org/2000/svg" xmlns:xlink="http://www.w3.org/1999/xlink" x="0px" y="0px"
	 viewBox="0 0 332.9 243.7" style="enable-background:new 0 0 332.9 243.7;" xml:space="preserve">
<style type="text/css">
	.st0{fill:#193842;}
</style>
<path class="st0" d="M146.7,197.2c-1,0.1-1.9,0.1-2.9,0.3c-2,0.4-3.5-0.4-4.5-2.2c-0.4-0.9-1.3-1.6-1.8-2.6c-1.4-2.8-2.7-5.6-4-8.5
	c-0.2-0.5-0.4-1.1-0.7-1.9c-0.6,1.4-1.1,2.6-1.6,3.7c-1.7,3.9-4,7.4-7.1,10.4c-7.6,7.2-22.3,8.6-29-5.6c-3.6-7.5-5-15.6-5.4-23.9
	c-0.2-3.9,0-7.8-0.3-11.8c-0.6,2.2-1.2,4.3-1.7,6.5c-1.9,9.9-3.4,19.8-3.8,29.9c-0.2,4.3-0.1,8.6-0.2,12.8c0,0.9-0.5,1.8-1,2.6
	c-0.7,1.2-1.7,1.6-2.4,0.3c-0.9,0.8-1.7,1.8-2.7,2.3c-1.1,0.6-2.4,1.1-3.6,1.2c-2,0.2-2.7-0.6-2.8-2.6c-0.1-1.7-0.1-3.4-0.1-5
	c0-1.6,0-3.2,0-5c-2.4,2.2-4.6,4.4-7,6.4c-7.4,6.2-15.9,10.2-25.4,11.9c-10.5,1.8-17.9-4.1-21-12.4c-3.1-8.4-3.3-17.2-2.8-25.9
	c1-15.9,5.6-30.9,12.6-45.2c3.9-7.9,8.2-15.5,14.7-21.6c3.5-3.3,7-6.5,11.7-8.2c3.3-1.2,6.5-1.2,9.7-1c-1.1-3.3-2.4-6.6-3.2-10
	c-2.2-10.1-3.3-20.2-1-30.4c2.4-10.6,8.4-18.2,18.5-22.5c0.3-0.1,0.6-0.3,0.9-0.4c0.1,0,0.2-0.1,0.5-0.4C78,37,76.4,35.9,75,34.6
	c-1.3-1.2-3.7-1.3-3.5-3.9c-0.4,0.2-0.8,0.4-1.1,0.6c-2-3.3-0.3-7.9,3.3-9c1.9-0.6,3.7-1.2,5.6-1.6c0.5-0.1,1.3,0,1.6,0.3
	c4.4,3.8,8.8,7.6,13.2,11.5c0.1,0.1,0.1,0.4,0.1,0.5c0.8,0.7,1.6,1.4,2.3,2.1c4.5,4.1,7.7,9.1,10.1,14.6c3.2,7.4,6.9,14.7,8.4,22.7
	c0.8,0,1.4,0,2.2,0c-0.6-2.4-1-4.7-1.7-6.9c-1.9-5.8-3.6-11.8-5.9-17.4c-1.5-3.7-3.9-7-5.9-10.4c-0.2-0.3-0.6-0.6-1-0.8
	c-2.3-1.2-4.6-2.4-6.9-3.6c-0.5-0.2-1.1-0.1-1.6-0.2c0.9-1.7,2-3.4,2.7-5.2c0.9-2.3,3-3.4,4.6-4.8c0.6-0.5,2-0.5,2.9-0.3
	c1.3,0.3,2.6,1,3.9,1.6c9.4,4.2,18.8,8.5,28.2,12.7c5.2,2.3,10.6,4.1,15.7,6.6c4,1.9,7.6,4.6,11.2,6.8c0,0,0-0.3-0.2-0.6
	c-1.2-2.7-2.3-5.5-3.6-8.2c-0.7-1.4-1.6-2.7-2.6-3.9c-1.3-1.6-1.4-2.8,0-4.3c1.7-1.9,3.3-3.7,5.1-5.5c1.6-1.7,3-1.7,4.9-0.4
	c10.5,7.2,21.4,13.7,33.6,17.7c4.1,1.3,8.2,2.7,12.3,4.1c0.7,0.2,1.3,0.3,2.4,0.6c-0.2-1.2-0.4-2.1-0.6-3c-0.7-2.2-0.3-3.3,1.6-4.5
	c0.9-0.6,2-1.1,2.8-1.9c1.3-1.4,2.8-1.4,4.4-1.5c0.6,0,1.3,0.1,1.9,0.1c1.4-0.1,2,0.3,2.4,2c0.7,2.7,2,5.4,3.2,7.9
	c5.5,11.3,12.2,21.8,19.9,31.7c3.9,5,8.1,9.7,12.1,14.6c0.1-0.1,0.3-0.1,0.4-0.2c-0.1-0.7-0.2-1.4-0.4-2c-4.7-17.4-8.2-35.1-10.9-53
	c-0.4-3-0.3-6-0.4-9.1c0-0.4,0-1,0.2-1.2c2-1.6,3.7-3.7,6.6-3.6c2.2,0.1,4.4,0,6.6,0c0,3.6-0.4,6.9,0.1,10.1
	c1.2,9.1,2.4,18.2,4.3,27.2c2.7,12.4,5.9,24.7,9.1,37c1.1,4.2,2.9,8.2,4.4,12.4c0.8,2.3,1.5,4.6,2,7c0.2,0.8-0.4,1.7-0.7,2.6
	c-0.3,0.7-0.8,1.2-1,2.1c0-0.3-0.1-0.6-0.1-0.9c-0.1,0-0.1,0-0.2,0c-0.1,0.3-0.2,0.7-0.1,0.6c-0.9-0.1-1.7-0.1-2.4-0.2
	c-0.8,1.9,0.6,2.4,1.7,2.9c7.5,3.9,14.9,8.1,21.5,13.6c4.6,3.9,8.5,8.3,11.1,13.8c2.2,4.5,2.1,9.1,0.3,13.7c-2,5.1-5.2,9.3-8.8,13.3
	c-8,9-17.6,16-27.6,22.6c-9.3,6.1-18.9,11.7-28.4,17.7c-1.8,1.1-3.7,1.6-5.6,1.4c-0.9-0.1-2-1.4-2.4-2.4c-0.4-1.1,0-2.4,0.1-3.7
	c0.2-1.4,0.4-2.9,0.6-4.3c0.1-1.1,0.7-1.7,1.7-2.3c4.1-2.4,8.1-4.9,12-7.2c-1.3-2.5-2.4-4.9-3.7-7.1c-0.5-0.8-1.4-1.3-2.1-2
	c-1.7-2-3.1-4.3-5.1-6c-3.6-3-7.2-6.1-11.3-8.4c-7.3-4-14.9-7.4-22.4-11.1c-0.4-0.2-0.9-0.3-1.8-0.6c1,5.5,2,10.6,2.9,15.7
	c0.1,0.7,0.2,1.4,0.4,2.1c0.5,2.8,0.2,3.4-2.3,4.5c-0.2,0.1-0.6-0.2-0.9-0.4c-0.6,1.4-2.3,2.4-4,2.2c-0.8-0.1-1.5-0.2-2.2-0.3
	c-1.1-0.2-1.9-0.6-2.7,0.9c-0.6,1.1-2.5,1.5-3.8,2.3c-0.4,0.2-0.6,0.7-0.9,1.1c0.4,0.2,0.7,0.6,1.1,0.6c10.7,0.7,21.5,1.3,32.2,2
	c3,0.2,6.1,0.3,9.1,0.4c1.2,0,2,0.4,1.9,1.8c-0.1,1.5,0.1,3.1-0.5,4.4c-0.5,1.2-1.6,2.2-2.6,3.2c-1.1,1.1-2.3,1.2-3.9,1
	c-4.1-0.5-8.2-0.8-12.3-1c-16-0.5-31.9-1.4-47.9-1.2c-11.7,0.2-23.4,1.6-35.1,2.8c-13.7,1.4-27.2,4.1-40.4,7.7
	c-4.8,1.3-9.6,3-14.4,4.6c-2.8,0.9-3.9,0.1-3.9-2.8c0-2.3,0.4-4.5,1.8-6.1c1.2-1.3,3.1-2.2,4.8-2.7c6.9-2.1,13.9-4.1,20.9-5.9
	c12-3,24.3-4.9,36.6-5.9C145.6,198.6,146,197.9,146.7,197.2c0,0.3-0.1,0.7-0.1,0.8c15.1-0.8,30.2-1.5,45.3-2.3
	c-0.1,0.2-0.2,0.3-0.2,0.5c-0.4-0.6-1-1.1-1.3-1.8c-1.3-2.7-2.6-5.5-3.9-8.2c-3.6-7.2-7.3-14.5-11-21.9c-5.1,0.9-10.4,1.9-15.7,2.7
	c-1.6,0.2-2.2,1-2.5,2.4c-1.4,6.8-2.8,13.7-4.1,20.5c-0.2,0.9,0.2,2,0.3,3.3c-0.8,0.5-2.1,1.2-3.3,2c-0.8,0.6-1.4,1.4-2.2,2
	C147.7,197.4,147.1,197.3,146.7,197.2z M139.5,160.9c2.3-0.6,4.1-1.1,6-1.4c1.3-0.2,1.8-0.9,2-2.1c1.1-7,2.4-14.1,3.4-21.1
	c1.2-8.7,3.3-17.2,2.9-26.1c-0.1-2.4-0.1-5.1,2.3-7.1c-2.9,0.2-5.9,0.4-9,0.6c0.1-3.3,0.5-6.6,2-9.5c0.7-1.4,2-2.6,4-2.7
	c5-0.1,10.1-0.2,15.1-0.3c0.5,0,0.9,0,1.5-0.1c0-3.8,0-7.5,0-11.2c-2.5-0.4-4.9-0.7-7.2-1.2c-1-0.2-2-0.6-3.4-1
	c-7.6,3.6-16.1,5.7-25.1,6.4c0.1,0.6,0,1,0.1,1.4c2.7,11.1,5.4,22.1,8,33.2c0.1,0.3,0.3,0.8,0.2,0.9c-1.2,1.4-2.3,3.4-3.9,3.9
	c-2.6,0.9-5.5,1.3-8.6,0.2c-3.3-12.8-6.6-25.9-9.9-38.9c-1,0-2.2,0-3.5,0c0,0.9,0,1.6,0,2.4c-0.1,8.7-2.1,16.7-7.4,23.7
	c-6.2,8.2-14.7,11.4-24.7,10.1c-4.8-0.6-9.2-2.9-12.4-6.8c-0.3-0.4-0.5-0.9-0.7-1.4c0.7,8.9,1.7,17.3,2.6,25.7
	c0.1,0.5,0.2,1.3-0.1,1.6c-1.5,1.3-2.9,3.2-5.2,3.2c-1.3,0-2.2,0.2-2.7,1.9c-0.2-0.9-0.3-1.4-0.4-1.5c-1.3,0.2-2.4,0.3-3.6,0.4
	c-1.7,0.3-2-0.7-2.1-2.1c-0.6-5.9-1.2-11.8-2-17.7c-0.4-2.5-1.3-5-2.1-7.8c-4.2,3.8-7.5,7.8-10.2,12.2c-5.1,8.3-9.1,17.1-12.1,26.5
	c-3.5,11.1-5,22.3-4.1,33.9c0.3,4.8,1.6,9.3,4.4,13.2c0.6,0.8,1.6,1.7,2.5,1.8c2.2,0.2,4.5,0.3,6.6-0.1c5.3-1,9.6-4,13.7-7.4
	c7-5.8,12-13.1,15.2-21.5c1.6-4.2,2.3-8.8,3.4-13.6c-12.5,3.9-24.1,8.8-36.9,11.5c0.3-3.4,0.6-6.7,0.8-9.9c0.1-1.2,0.7-1.7,1.7-2
	c12.1-4.1,24.2-8.3,36.3-12.4c5.2-1.8,10.4-3.7,15.6-5.5c-0.1-0.6-0.3-1-0.3-1.5c-0.1-2.1-0.7-4.5,1.6-5.9c1.5-0.9,3.2-1.5,4.9-1.9
	c2.7-0.7,5.5-0.8,8.1,0.3c0.9,0.4,1.2,0.9,0.9,2c-3.6,11.2-5.4,22.7-3.8,34.5c0.7,5.3,2.5,10.3,5.3,14.9c2.4,3.8,5.8,3.7,8-0.2
	c1.4-2.4,2.4-5.1,3.2-7.7c2.4-7.8,2.8-15.9,2.7-24.1c-0.1-5.3-0.3-10.7-0.4-16c-0.1-1.6-1.3-3.4,0.8-4.6c0.1-0.1,0-0.5,0.1-0.8
	c0.3-0.6,0.5-1.5,1-1.8c3.2-2,6.7-2.8,10.8-2.4c0.5,2.9,1.2,5.9,1.6,8.9C138,144.8,138.7,152.7,139.5,160.9z M80.3,49.7
	c-3.6,3.2-5.4,7.7-6.6,12.4c-2.9,12-1.3,23.6,3.5,34.7c1.8,4,4.5,7.7,8.1,10.4c5,3.7,10.5,2.6,13.6-2.8c0.3-0.5,0.5-1.1,0.8-1.6
	c3.1-6.4,3.1-13.1,1.8-20c-0.3-1.6-0.5-3.3-0.2-4.9c0.6-3-0.1-5.8-1.2-8.5c-0.8-2.1-1.7-4.2-2.5-6.3c-2.1-5.5-5.3-10.5-8.6-15.4
	c-0.1-0.2-0.4-0.4-0.6-0.5c-0.2,3.5-3.3,4.2-5.5,5.9c0.1,0.6,0.3,1.4,0.3,2.1c0,0.7-0.2,1.3-0.3,2C83,54.3,83.2,51.5,80.3,49.7z
	 M272,193.7c0.4-0.2,0.7-0.3,0.9-0.5c5.8-4.5,11.8-8.8,17.4-13.5c4-3.3,7.5-7.1,10.2-11.7c3.2-5.3,2-10.2-1.2-14
	c-1.9-2.3-4.2-4.5-6.6-6.2c-8.2-5.8-16.8-10.8-26.1-14.7c-1.4-0.6-2.9-1.1-4.6-1.8c3.5,10.2,5.1,20.6,7,30.9
	C271,172.6,271.7,183,272,193.7z M176.7,47.9c0.1,0.4,0.1,0.6,0.1,0.8c2.1,6.4,3.8,12.8,4.4,19.5c0.1,0.9,0.6,1.3,1.4,1.4
	c6.7,0.9,13.5,1.9,20.2,2.7c2.7,0.3,3,0.5,2.9,3.3c0,1,0.4,2.3-1.3,2.4c-0.1,0-0.4,0.3-0.4,0.5c0,2.1-1.8,2.7-2.9,3.8
	c-0.7,0.7-1.4,1.2-2.5,1c-1.4-0.2-2.9-0.3-4.4-0.4c-4-0.4-7.9-0.9-12.2-1.4c0,3.5,0,7,0,10.4c6.6,0.9,13.3,1.6,19.9,2.7
	c6.6,1.1,13.2,2.6,19.6,4c-1.4-6.6-3-13.2-4.2-19.8c-1.2-6.6-2-13.3-2.9-19.9c-1.5,0.3-3,1.1-4.4,0.9c-3.3-0.5-6.6-1.3-9.8-2.2
	C192.3,55.1,184.6,51.7,176.7,47.9z M258.2,182.6c0.9-10-5.1-38.8-7.4-42.1c-0.2,3.1-1.6,5.5-3.8,7.6c-4.2,3.9-9.3,5.8-14.7,7.2
	c-4.4,1.1-8.9,2-13.6,3C233.1,164.5,247.5,170.2,258.2,182.6z M123.2,45c-0.1,0.1-0.2,0.2-0.3,0.4c3.7,8.4,6,17.2,7.7,26.2
	c0.2,0.9,0.6,1.2,1.4,1.1c3.4-0.2,6.8-0.2,10.2-0.7c4.7-0.6,9.2-1.8,13.2-4.6c2.3-1.6,2.5-3.6,0.7-5.7c-1.1-1.3-2.5-2.6-3.9-3.6
	c-6.4-4.4-13.7-7.2-20.8-10.1C128.7,46.9,126,45.9,123.2,45z M230.1,73.9c0,0.6-0.1,0.7-0.1,0.9c2.3,10.1,4.6,20.2,7,30.3
	c0.2,1,0.3,1.7-0.7,2.3c-0.8,0.5-1.3,1.4-1.9,2.1c13,2.7,25.2,7.2,37.6,12.2C256.9,106.8,242,91.9,230.1,73.9z M250.2,137.1
	c-0.2-0.5-0.3-1.1-0.5-1.6c-1.2-3.1-2.5-6.2-3.6-9.4c-0.3-0.9-0.8-1.4-1.7-1.6c-5.9-1.5-11.8-3-17.8-4.6c-0.3-3,1.4-5.4,3.2-7.9
	c-1.4-0.1-2.6-0.1-3.7-0.3c-0.9-0.1-1.7,0.4-2.8-0.2c-0.8-0.5-2.1-0.1-3.3-0.1c-0.1,0.5-0.1,0.9-0.1,1c-0.3-0.4-0.6-1.1-1.1-1.4
	c-1.2-0.7-2.5-1.6-3.8-1.9c-4.6-1.2-9.2-2.5-13.9-3.2c-8-1.1-16-1.9-24-2.6c-2.7-0.2-5.3,0-8.1,0c0.5,2.2,1.1,4.6,1.7,7
	c1.8-1,3.3-1.9,5-2.7c0.5-0.3,1.2-0.4,1.8-0.3c1.4,0.1,2.8,0.4,4.2,0.7c13.8,2.5,27.2,6.4,40.3,11.4c6.2,2.3,12.1,5.5,18,8.5
	C244,129.9,247.5,133.1,250.2,137.1z M173.3,118.9c0.2,0.7,0.2,1,0.3,1.3c2.5,7.8,4.9,15.6,7.5,23.4c1,2.9,2.2,5.8,3.4,8.6
	c0.2,0.4,0.9,0.8,1.4,0.8c1,0,2-0.2,3.1-0.2c0.8,0,1.3-0.2,1.6-1.2c0.4-1.4,1.3-2.2,2.9-2c0.3,0.1,0.7-0.1,1.2-0.1
	c-0.3-2.2-0.6-4.4-1-6.5c-1.3-6.8-2.7-13.7-6-19.9c-0.3-0.5-0.9-1.1-1.5-1.3c-3.1-0.8-6.2-1.5-9.3-2.2
	C175.8,119.4,174.7,119.2,173.3,118.9z M207.9,148c0,0,0.3,0,0.6,0c5.1-0.7,10.2-1.2,15.2-2.1c3.3-0.6,6.6-1.6,9.8-2.7
	c1.8-0.6,1.9-1.9,0.6-3.3c-0.9-0.9-2-1.7-3.1-2.4c-8.2-5.1-17.1-8.4-26.4-11c-0.4-0.1-0.8,0-0.8,0
	C205.2,133.7,206.5,140.8,207.9,148z M189,161.7c3,8.8,7.4,16.4,11.6,24.2c-1-7.1-2.1-14.1-3.3-21.1c-0.1-0.5-0.3-1.2-0.7-1.3
	C194.2,162.8,191.8,162.3,189,161.7z M170.9,154.7c-2.2-5.8-4.3-11.6-6.4-17c-1.2,5.9-2.5,12.2-3.9,18.6
	C164.2,155.8,167.6,155.3,170.9,154.7z"/>
</svg>
