<?xml version="1.0" encoding="utf-8"?>
<!-- Generator: Adobe Illustrator 23.0.5, SVG Export Plug-In . SVG Version: 6.00 Build 0)  -->
<svg version="1.1" id="Layer_1" xmlns="http://www.w3.org/2000/svg" xmlns:xlink="http://www.w3.org/1999/xlink" x="0px" y="0px"
	 viewBox="0 0 161.42 110.53" style="enable-background:new 0 0 161.42 110.53;" xml:space="preserve">
<style type="text/css">
	.st0{fill:#264E68;}
</style>
<g>
	<g>
		<path class="st0" d="M63.1,42.7c-0.45,0.88-0.58,1.82-0.69,2.76c-0.69,0.92-1.73,1.17-2.89,1.21c-0.17,0.01-0.34,0.06-0.51,0.09
			c-0.08-0.02-0.16-0.04-0.24-0.06c-0.05-0.03-0.1-0.04-0.16-0.03c-0.54-0.18-0.7-0.54-0.68-1.02c0.03-1.04,0.07-2.07,0.34-3.09
			c0.02-0.03,0.05-0.06,0.07-0.09c-0.06,0-0.12,0-0.18,0.01c-3.07,2.79-6.26,5.45-9.8,7.78c-1.82,1.19-3.72,2.25-5.88,2.88
			c-0.53,0.15-0.53,0.17-0.65,0.99c-0.21-0.72-0.68-0.84-1.33-0.79c-1.33,0.09-2.28-0.51-3.13-1.36c-0.8-0.8-0.57-1.62-0.28-2.46
			c0.12-0.33,0.43-0.17,0.65-0.1c0.73,0.24,1.38,0.09,2.09-0.16c0.81-0.3,1.15-0.72,0.88-1.47c-0.17-0.68-0.37-1.35-0.69-1.99
			c0.21-3.58,0.08-7.17,0.37-10.74c0.02-0.26,0.07-0.52-0.12-0.74c-0.44-0.51-0.71-0.99,0.15-1.41c0.23-0.12,0.11-0.43,0.13-0.65
			c0.16-2.3,0.35-4.6,0.86-6.86c0.25-1.11,0.63-2.18,1.38-3.12c0.34-0.43,0.74-0.82,1.41-0.74c0.66,0.08,0.96,0.54,1.18,1.02
			c0.35,0.8,0.39,1.64,0.32,2.49c-0.16,2.04-0.3,4.09-0.44,6.13c0,0.07,0.03,0.14,0.05,0.21c0.07-0.01,0.16,0,0.18-0.03
			c2.84-3.84,6.49-7.12,9.47-10.87c0.57-0.71,0.55-0.84-0.44-1.12c-2.43-0.68-4.9-0.64-7.36-0.15c-3.51,0.69-6.79,1.75-9.39,4.13
			c-1.03,0.95-1.52,2.04-1.92,3.23c-0.94,0.41-1.83,0.2-2.71-0.17c-0.97-2.18-0.07-4.02,1.6-5.53c2.41-2.18,5.33-3.75,8.55-4.85
			c0.94-0.32,1.57-1.03,2.39-1.49c0.49-0.27,0.92-0.62,1.41-0.89c0.35-0.19,0.8-0.53,1.16-0.14c0.4,0.43-0.07,0.74-0.39,1.03
			c-0.21,0.19-0.52,0.31-0.69,0.69c0.57-0.04,1.07-0.08,1.56-0.12c2.39-0.18,4.75-0.04,7.01,0.69c3.47,1.13,4.57,3.58,2.93,6.51
			c-1.27,2.27-3.33,3.97-5.27,5.76c-0.82,0.75-1.57,1.56-2.26,2.26c3.49-0.11,7.27-0.28,9.58,3.35c0.53-1.67,1.09-3.18,1.54-4.74
			c1.22-4.27,2.22-8.6,4.11-12.7c0.23-0.5,0.52-0.97,0.96-1.36c0.81-0.71,1.37-0.65,2.35-0.16c2.23,1.11,2.59,3.07,2.94,4.96
			c0.73,3.91,1.31,7.84,1.92,11.77c0.09,0.59,0.24,0.98,1.02,0.91c0.17-0.02,0.35,0.02,0.51,0.06c0.27,0.07,0.6,0.11,0.63,0.43
			c0.03,0.28-0.23,0.38-0.46,0.5c-1.1,0.57-1.09,0.57-0.36,1.53c1.17,1.54,1.03,3.3,0.99,5.04c-0.32-0.72-0.15-1.54-0.62-2.22
			c0,0.01-0.01,0.03-0.02,0.04c0.02-0.01,0.03-0.02,0.05-0.03c0.13,0.93,0.43,1.92,0.3,2.76c-0.14,0.89,0.25,1.98-0.67,2.73
			c-0.22,0.18-0.12,0.37-0.1,0.56c-0.07,0.05-0.14,0.08-0.2,0.14c-0.9,0.9-1.19,0.94-2.26,0.27c-0.21-0.13-0.43-0.24-0.69-0.25
			c-0.96-2.09-1.33-4.32-1.92-6.5c-0.42-1.58-0.39-1.6-2.09-1.01c-1.15,0.4-2.29,0.85-3.45,1.23c-0.52,0.17-0.76,0.46-0.88,0.93
			c-0.32,1.27-0.68,2.53-1.03,3.79C63.16,42.45,63.09,42.56,63.1,42.7z M43.25,47.85c2.22-1.16,4.22-2.31,6.03-3.7
			c2.77-2.13,5.2-4.5,6.95-7.37c0.62-1.02,0.4-1.59-0.77-2.11c-1.27-0.56-2.61-0.36-3.91-0.21c-2.22,0.24-4.2,1.24-6.33,1.78
			c-0.39,0.1-0.33,0.38-0.34,0.62c-0.06,1.28-0.1,2.55-0.17,3.83c-0.02,0.35,0.02,0.82-0.2,1.03c-0.66,0.62-0.64,1.39-0.76,2.12
			C43.55,45.13,43.42,46.41,43.25,47.85z M68.2,26.68c-0.24,0.26-0.36,0.43-0.42,0.67c-0.57,1.98-1.16,3.95-1.78,5.92
			c-0.17,0.54,0.07,0.5,0.5,0.37c0.76-0.23,1.52-0.49,2.31-0.65c0.74-0.14,0.78-0.51,0.65-1.04C69.04,30.23,68.64,28.51,68.2,26.68z
			"/>
		<path class="st0" d="M58.07,54.99c0.57,1.33,0.33,1.94-1.18,2.62c-0.9,0.4-1.86,0.7-2.8,1.03c-0.34,0.12-0.63,0.23-0.64,0.62
			c-0.04,3.08-1.21,5.98-1.89,8.95c-0.08,0.34-0.16,0.68-0.26,1.09c0.78-0.11,1.38-0.42,2.01-0.63c0.89-0.3,1.77-0.61,2.71-0.79
			c1.56-0.29,2.34-0.06,3.43,1.09c-3.04,0.63-5.5,2.43-8.48,3.16c-0.29,0.07-0.51,0.19-0.58,0.5c-0.55,2.43-1.12,4.86-1.68,7.29
			c-0.02,0.07,0.02,0.15,0.05,0.31c1.01-0.51,1.97-1,2.95-1.48c1.64-0.8,3.22-1.74,5.14-1.96c0.65-0.07,1.41-0.27,1.79,0.38
			c0.45,0.76-0.26,1.14-0.82,1.56c-2,1.47-3.95,3-6.07,4.33c-1.37,0.86-2.81,1.61-4.45,2.01c-0.28,0.07-0.56,0.13-0.85,0.16
			c-1.75,0.21-2.21-0.1-2.31-1.66c-0.18-2.68,0.14-5.31,0.93-7.9c0.11-0.37,0.22-0.74,0.28-1.12c0.03-0.23,0.27-0.62-0.05-0.67
			c-0.37-0.06-0.89-0.06-1.14,0.37c-0.07,0.11-0.1,0.24-0.14,0.36c-1.57,5.02-4.83,9.07-9.15,12.51c-1.61,1.28-3.34,2.42-5.09,3.54
			c-0.33,0.39-1.19,0.38-1.06,1.11c-0.3-0.31-0.59-0.16-0.9-0.01c-1.56,0.72-3.16,1.38-4.83,1.87c-0.69,0.21-1.4,0.34-2.13,0.25
			c-0.83-0.1-1.39-0.53-1.61-1.23c-0.2-0.64,0.35-0.98,0.87-1.27c1.95-1.09,3.9-2.19,5.87-3.27c0.5-0.27,0.7-0.54,0.54-1.11
			c-0.83-2.98-0.82-6.04-1.04-9.07c-0.24-3.32-0.41-6.65-0.18-9.97c0.08-1.23,0.22-2.45,0.5-3.65c0.17-0.76,0.53-1.47,1.46-1.65
			c0.98-0.19,1.65,0.37,2.16,1.02c0.73,0.91,0.99,1.97,0.91,3.06c-0.18,2.58-0.25,5.16-0.24,7.74c0.02,3.2,0.04,6.4,0.07,9.6
			c0,0.32-0.01,0.66,0.3,1.06c4.35-3.34,8.13-6.97,9.43-12.13c0.89-3.51-0.16-6.42-3.28-8.81c-4.36-3.34-9.26-3.85-14.59-2.47
			c-2.08,0.54-4.12,1.16-6.14,1.87c0.28-0.31,0.4-0.67,0.45-1.05c0.12-0.97,0.09-1.96,0.43-2.9c1.9-1.41,4.16-2.05,6.55-2.4
			c4.39-0.64,8.68-0.31,12.67,1.49c5.63,2.53,8.31,6.74,8.48,12.28c0.01,0.29-0.2,0.69,0.15,0.84c0.27,0.12,0.52-0.25,0.8-0.36
			c0.63-0.25,0.78-0.73,0.9-1.29c0.65-3.09,1.33-6.18,2.03-9.26c0.14-0.61,0.05-0.86-0.74-0.86c-0.86,0-1.72-0.15-2.58-0.27
			c-0.74-0.1-1.38-0.38-1.75-1.01c-0.14-0.24-0.38-0.28-0.62-0.36c-0.71-0.25-0.82-0.71-0.25-1.15c0.35-0.26,0.74-0.52,1.15-0.67
			c3.54-1.3,7.14-2.36,11.05-2.27c0.64,0.02,1.26,0.14,1.89,0.22C57.03,54.7,57.55,54.85,58.07,54.99z"/>
		<path class="st0" d="M135.98,68.07c-2.47,1.61-5.36,2.47-8.13,3.54c-0.38,0.14-0.71,0.22-0.78,0.68c-0.48,3.06-0.99,6.12-1.5,9.18
			c-0.09,0.55,0.26,0.45,0.62,0.34c3.91-1.12,7.94-1.78,11.99-2.32c3.63-0.48,7.28-0.74,10.95-0.8c0,0.88,0.53,1.86-0.61,2.54
			c-0.14,0.09,0.03,0.23,0.09,0.33c-1.78,0.41-3.51,0.97-5.19,1.64c-0.85,0.34-1.58,0.81-2.25,1.38c0.09-0.44,0.1-0.84-0.52-0.98
			c0.42-0.39,1.03-0.53,1.69-0.91c-0.82-0.07-1.42,0.08-2.02,0.2c-5.45,1.03-10.89,2.11-16.17,3.71c-1.36,0.41-2.71,0.47-4.04-0.1
			c-1.26-0.54-1.5-1.62-0.38-2.36c1.05-0.69,1.32-1.49,1.39-2.61c0.18-2.81,0.59-5.6,0.93-8.4c0.06-0.54,0.05-0.96-0.64-1.22
			c-0.72-0.28-0.84-0.78-0.37-1.38c0.25-0.32,0.51-0.64,0.9-0.82c0.58-0.26,0.79-0.66,0.9-1.2c0.81-3.92,1.85-7.8,3.18-11.63
			c-0.41-0.13-0.71,0.09-1.02,0.18c-0.98,0.28-1.97,0.44-2.98,0.19c-0.47-0.12-0.62-0.01-0.66,0.4c-0.13,1.69-0.52,3.34-1.08,4.96
			c-0.13,0.39-0.22,0.67-0.62,0.9c-0.64,0.37-0.35,1-0.47,1.57c-0.26-0.79-1.1-1.03-1.62-1.54c-0.94-0.93-1.02-2.15-1.05-3.33
			c-0.05-2.07,0.14-4.14,0.28-6.21c-0.21-0.14-0.33,0.02-0.44,0.1c-2.67,1.98-5.09,4.17-7,6.77c-0.56,0.76-0.97,1.57-1.29,2.42
			c-0.14,0.37-0.07,0.67,0.28,0.96c0.8,0.69,1.66,1.24,2.75,1.55c1.93,0.55,3.81,1.2,5.46,2.28c1.32,0.87,2.47,1.9,3.24,3.17
			c1.65,2.72,1.7,5.57,0.64,8.47c-0.15,0.41-0.31,0.83-0.49,1.23c-0.87,1.89-2.5,2.83-4.74,3.14c-3.45,0.47-6.7,0.27-9.43-1.94
			c-1.34-1.09-2.41-2.35-2.87-3.95c-0.18-0.61-0.18-1.22,0.09-1.81c0.22-0.49,0.6-0.82,1.2-0.88c0.6-0.06,1.01,0.17,1.39,0.6
			c1.41,1.59,2.75,3.25,4.86,4.2c0.72,0.33,1.46,0.6,2.28,0.68c1.55,0.15,2.94-0.52,3.79-1.69c2.47-3.39,0.04-7.1-2.55-8.74
			c-1.13-0.72-2.39-1.24-3.67-1.71c-1.28-0.47-2.57-0.95-3.67-1.71c-2.31-1.6-2.97-3.31-2-5.85c1.72-4.51,4.79-8.09,9.7-10.26
			c0.59-0.26,1.23-0.45,1.87-0.6c0.86-0.2,1.74-0.21,2.51,0.25c0.54,0.33,1.01,0.69,1.77,0.55c0.42-0.08,0.63,0.25,0.76,0.6
			c0.22,0.58,0.12,1.17,0.15,1.75c0.04,0.96,0.09,1.01,1.06,0.67c2.87-1.01,5.69-2.13,8.61-3.03c2.15-0.66,4.31-1.29,6.56-1.65
			c0.37-0.06,0.74-0.07,1.12-0.1c0.32,0.4,0.01,0.85,0.14,1.26c0.16,0.5-0.02,0.84-0.56,1.04c-0.41,0.15-0.65,0.41-0.64,0.82
			c-2.38,0.71-4.76,1.43-7.13,2.14c-0.28,0.08-0.57,0.13-0.45,0.51c0.62,1.9,0.12,3.76-0.36,5.61c-0.57,2.17-1.27,4.31-1.7,6.5
			c-0.11,0.55-0.14,0.82,0.72,0.74c1.82-0.19,3.53-0.78,5.32-1.05c0.23-0.03,0.46-0.05,0.69-0.08c0.06-0.01,0.13-0.01,0.19-0.02
			c0.28-0.04,0.56-0.08,0.84-0.12C135.76,67.26,135.77,67.68,135.98,68.07z"/>
		<path class="st0" d="M87.94,51.27c0.39-0.04,0.78-0.07,1.17-0.11c0.5,0.54,0.39,1.06-0.18,1.45c-0.45,0.3-0.24,0.47,0.01,0.69
			c-3.3,1.01-6.19,2.74-9.32,4.04c-0.25,0.11-0.41,0.22-0.4,0.51c0.13,2.93-0.77,5.72-1.39,8.56c-0.21,0.96-0.22,0.96,0.9,0.69
			c1.59-0.39,3.19-0.76,4.86-0.46c0.38,0.07,0.92,0.02,1.01,0.44c0.09,0.43-0.38,0.67-0.75,0.85c-2.08,1.02-4.29,1.76-6.47,2.58
			c-0.42,0.16-0.74,0.3-0.83,0.76c-0.36,1.76-0.76,3.52-1.14,5.27c-0.03,0.12,0.01,0.25,0.02,0.47c0.77-0.41,1.47-0.8,2.18-1.16
			c1.13-0.58,2.32-1.03,3.57-1.36c0.19-0.05,0.39-0.11,0.58-0.14c0.88-0.15,2.09,0.14,2.26,0.62c0.28,0.8-0.43,1.26-1,1.63
			c-2.47,1.61-4.9,3.25-7.28,4.96c-0.53,0.38-1.05,0.76-1.64,1.08c-1.97,1.06-3.84,0.26-3.93-1.76c-0.1-2.21,0.47-4.37,0.8-6.55
			c0.09-0.61,0.22-1.21,0.35-1.81c0.07-0.31,0.11-0.51-0.39-0.37c-1.95,0.56-3.9,1.11-5.85,1.65c-0.43,0.12-0.55,0.39-0.6,0.75
			c-0.31,1.93-0.56,3.85-0.55,5.81c0.01,1.99-0.09,3.99-0.14,5.99c-0.37,0.04-0.72,0.12-1.07,0.28c-0.7,0.32-0.97,0.15-1.06-0.56
			c-0.03-0.29,0.1-0.61-0.23-0.9c-0.55,0.67-0.67,1.64-1.74,1.89c-0.18-3.66-0.36-7.31,0.05-10.97c0.07-0.58-0.15-0.7-0.76-0.62
			c-0.89,0.11-1.79,0.02-2.66-0.18c-0.57-0.13-1.07-0.39-1.47-0.77c-0.89-0.85-0.71-1.5,0.52-1.85c1.21-0.35,2.4-0.76,3.64-1
			c0.94-0.18,1.33-0.58,1.31-1.38c0-0.18,0.01-0.36,0.02-0.54c0.04-0.12,0.07-0.25,0.11-0.37c0.58-3.97,1-7.96,1.77-11.91
			c0.27-1.39,0.74-2.72,1.83-3.93c-1.57-0.06-2.9,0.32-4.24,0.68c-0.47-0.15-0.59-0.41-0.41-0.84c0.11-0.25,0.07-0.55,0.09-0.83
			c1.08-0.56,2.32-0.76,3.46-1.19l0.08,0l0.07-0.04c2.51-0.75,5.04-1.47,7.53-2.26c3.53-1.12,7.17-1.7,10.9-1.9
			c0.17-0.01,0.35-0.01,0.52-0.02c0.17-0.01,0.33-0.01,0.5-0.02c0.82,0.51,0.83,0.57,0.09,1.14c-0.08,0.07-0.22,0.13-0.23,0.21
			c-0.18,0.81-0.96,1-1.65,1.26c-0.88,0.33-1.85,0.38-2.77,0.55c-1.6,0.29-3.15,0.72-4.8,0.87c-0.82,0.07-1.72,0.4-2.29,1.09
			c-1.58,0.3-3.16,0.59-4.74,0.89c-0.28,0.05-0.7,0.1-0.36,0.46c1.61,1.71,1.32,3.72,1.23,5.72c-0.06,1.33-0.38,2.64-0.3,3.97
			c-0.17,0.13-0.27,0.29-0.27,0.5c0.01,0.86-0.21,1.7-0.34,2.55c-0.05,0.2,0.06,0.3,0.25,0.37c-0.81,0.64-0.6,1.56-0.79,2.36
			c-0.22,0.93-0.17,0.93,0.87,0.64c1.62-0.46,3.25-0.91,4.93-1.15c0.7-0.1,1.01-0.36,1.13-1.01c0.54-2.72,1.12-5.43,1.76-8.13
			c0.14-0.62,0.06-0.85-0.67-0.79c-0.14,0.01-0.28-0.05-0.42-0.08c0.14-0.36-0.25-0.53-0.37-0.8c-0.08-0.18-0.33-0.37-0.16-0.55
			c0.53-0.57,0.39-1.35,0.85-1.94c2.76-1.57,5.84-2.39,9.01-3c1.41-0.27,2.82-0.53,4.23-0.79c0,0,0.08,0.01,0.08,0.01l0.07-0.03
			c0.23-0.04,0.47-0.09,0.7-0.13C87.71,51.48,87.83,51.43,87.94,51.27z"/>
		<path class="st0" d="M84.82,82.18c-0.42-3.21,0.04-6.39,0.36-9.57c0.37-3.7,0.77-7.39,1.18-11.08c0.2-1.78,0.27-3.58,0.66-5.34
			c0.14-0.62,0.36-1.21,1.19-1.35c0.84-0.14,1.54,0.06,2.05,0.7c0.2,0.25,0.41,0.49,0.63,0.73c0.32,0.36,0.48,0.95,1.26,0.4
			c0.37-0.26,0.76,0.06,0.95,0.49c2.04,4.68,2.91,9.61,4.02,14.49c0.02,0.09,0.08,0.18,0.28,0.27c0.12-0.93,0.26-1.87,0.34-2.8
			c0.33-3.85,0.98-7.68,1.46-11.52c0.12-0.93,0.45-1.81,1.29-2.45c0.71-0.54,1.52-0.76,2.41-0.43c0.83,0.3,0.93,0.99,0.97,1.67
			c0.13,2.29-0.34,4.54-0.58,6.81c-0.42,3.87-0.88,7.74-1.32,11.61c-0.28,2.5-0.45,5-0.25,7.51c0.1,1.22-0.18,2.39-0.98,3.43
			c-0.87,0.58-1.87,0.75-2.78,0.29c-0.51-0.25-0.93-0.26-1.43-0.26c-0.85-2.94-1.67-5.89-2.56-8.82C92.92,73.46,91.8,70,90.7,66.53
			c-0.08-0.24-0.18-0.48-0.4-0.71c-0.75,5.51-1.5,11.01-2.24,16.52c-0.18-0.47-0.48-0.61-0.95-0.28c-0.21,0.15-0.43,0.31-0.69,0.2
			C85.88,82.03,85.35,82.18,84.82,82.18z"/>
		<path class="st0" d="M120.88,23.62c-1.5,0.75-2.54,0.3-2.75-1.2c-0.17-1.21,0.13-2.39,0.4-3.57c0.48-2.12,1.3-4.13,2.28-6.11
			c0.09-0.18,0.16-0.36,0.31-0.69c-0.78,0.42-1.21,0.92-1.64,1.41c-2.64,3.09-4.45,6.56-5.94,10.19c-1.77,4.33-2.92,8.77-3.32,13.37
			c-0.16,1.8,0.31,3.5,0.97,5.17c0.33,0.84,0.67,0.87,1.39,0.28c1.98-1.63,3.71-3.44,5.17-5.45c0.3-0.05,0.49-0.25,0.72-0.39
			c1.27-0.83,1.76-0.81,2.92,0.07c-1.09,3.06-2.69,5.87-5.13,8.28c-2.27,2.23-4.8,2.33-7.2,0.2c-2.5-2.22-3.8-4.95-3.97-8.05
			c-0.35-6.42,1.46-12.43,4.76-18.11c1.74-2.99,3.78-5.81,6.41-8.27c0.68-0.64,1.41-1.22,2.22-1.71c1.77-1.07,3.86-0.75,5.12,0.78
			c0.23,0.28,0.42,0.46,0.86,0.51c0.87,0.09,1.6,1.1,1.6,2.05c0,0.54-0.13,1.06-0.32,1.58c-0.37,1-0.45,2.12-0.96,3
			c-0.57,1-0.87,2.12-1.58,3.03c-0.74,0.95-0.88,1.96-0.75,3.04c-0.06,0-0.11,0-0.17-0.01c-0.03-0.34-0.06-0.68-0.1-1.11
			c-0.54,0.38-0.61,0.9-0.93,1.27c-0.02,0.05-0.03,0.09-0.05,0.14c0,0,0,0.01,0,0.01C121.09,23.42,120.99,23.52,120.88,23.62z"/>
		<path class="st0" d="M89.92,15.15c-3.61,2.45-6.96,5.09-8.54,9.03c-0.51,1.26-0.19,1.97,1.18,2.57c2.38,1.04,4.82,1.99,7,3.37
			c1.98,1.25,3.81,2.65,4.7,4.71c1.48,3.43,1.07,6.77-1.14,9.84c-1.69,2.35-4.14,3.04-7.07,2.03c-3-1.04-5.15-2.9-5.88-5.8
			c-0.26-1.02-0.16-2.04,0.44-2.98c0.27-0.42,0.66-0.73,1.26-0.67c0.6,0.05,0.67,0.51,0.79,0.9c0.3,0.96,0.58,1.93,1.15,2.8
			c0.76,1.15,3.03,1.99,4.61,1.71c1.25-0.23,3.05-1.97,3.01-3.19c-0.05-1.52-0.79-2.88-1.94-4.01c-1.28-1.26-2.76-2.33-4.42-3.19
			c-1.97-1.02-3.96-2.01-5.91-3.06c-2.83-1.54-3.4-2.57-2.39-5.66c1-3.07,3.25-5.45,5.9-7.54c1.58-1.24,3.28-2.36,5.38-2.86
			c0.86-0.2,1.71-0.29,2.53,0.11c0.32,0.16,0.59,0.06,0.89-0.06c1.61-0.65,3.2,0.22,3.2,1.78c0,2.92-0.31,5.83-0.85,8.71
			c-0.12,0.64-0.33,1.28-1.16,1.48c-0.88,0.21-1.47-0.24-2.03-0.76c-1.81-1.69-1.71-3.75-1.45-5.84
			C89.32,17.43,89.58,16.3,89.92,15.15z"/>
		<path class="st0" d="M100.4,46.54c0,0.1,0,0.2-0.01,0.31c-0.11,0.12-0.28,0.22-0.31,0.35c-0.11,0.57-0.33,0.51-0.92,0.37
			c-0.84-0.21-1.38-0.65-1.9-1.18c-0.06-0.3-0.11-0.6-0.19-0.9c-0.18-0.7-0.13-1.4-0.68-2.08c-0.46-0.56-0.29-1.43-0.25-2.18
			c0.16-3.79,0.74-7.54,1.18-11.31c0.35-2.98,0.71-5.95,0.97-8.94c0.08-0.97,0.33-1.9,1.64-2.17c0.35-0.07,0.27-0.35,0.3-0.57
			c0.12-0.97,0.35-1.92,0.69-2.84c0.5-1.33,1.45-2.03,2.56-1.88c1.22,0.16,2.3,1.38,2.23,2.67c-0.09,1.69-0.44,3.35-0.72,5.02
			c-0.62,3.67-1.69,7.26-2.39,10.92c-0.43,2.23-0.49,4.48-0.4,6.74c0.04,0.97,0.03,1.91-1.14,2.43c-0.33,0.13-0.47,0.39-0.47,0.68
			C100.62,43.51,100.25,45.01,100.4,46.54z"/>
		<path class="st0" d="M59.69,87.06c1.07-0.25,1.19-1.22,1.74-1.89c0.33,0.29,0.2,0.61,0.23,0.9c0.08,0.71,0.35,0.88,1.06,0.56
			c0.34-0.15,0.69-0.24,1.07-0.28c0.1,1.58-0.01,3.15-0.1,4.72c-0.02,0.33-0.01,0.81-0.55,0.83c-0.53,0.02-0.99-0.21-1.21-0.71
			c-0.12-0.26-0.07-0.78-0.45-0.72c-0.43,0.06-0.25,0.55-0.27,0.86c-0.06,1.17-0.12,2.35-0.14,3.52c-0.01,0.42-0.21,0.67-0.58,0.85
			c-0.43,0.21-0.88,0.16-0.81-0.33c0.36-2.65-0.23-5.3,0.03-7.95c0.03-0.08,0.07-0.17,0.1-0.25C59.64,87.23,59.68,87.13,59.69,87.06
			z"/>
		<path class="st0" d="M97.38,10.01c0-1.15,0.45-2.16,1.31-3.01c0.73-0.72,1.47-0.77,2.36-0.21c1.18,0.74,1.48,1.48,1.08,2.71
			c-0.24,0.74-0.73,1.33-1.37,1.83c-0.65,0.51-1.37,0.92-2.27,0.54C97.62,11.5,97.4,10.79,97.38,10.01z"/>
		<path class="st0" d="M148.63,81.57c-0.06-0.11-0.23-0.25-0.09-0.33c1.13-0.68,0.61-1.66,0.61-2.54c1.44-0.14,2.88-0.11,4.33-0.09
			c0.5,0.01,1.01,0.14,0.98,0.66c-0.03,0.55,0.03,1.27-0.81,1.44C151.98,81.03,150.3,81.28,148.63,81.57z"/>
		<path class="st0" d="M70.86,52.24c0.56-0.69,1.47-1.02,2.29-1.09c1.65-0.14,3.2-0.57,4.8-0.87c0.93-0.17,1.89-0.22,2.77-0.55
			c0.69-0.26,1.48-0.45,1.65-1.26c0.02-0.08,0.15-0.14,0.23-0.21c0.74-0.57,0.73-0.64-0.09-1.14c0.74-0.17,1.49-0.09,2.23-0.03
			c0.58,0.04,0.96,0.38,1.14,0.83c0.18,0.47-0.31,0.65-0.64,0.89c-0.55,0.4-1.2,0.6-1.87,0.75c-3.92,0.87-7.83,1.74-11.75,2.6
			C71.38,52.22,71.12,52.21,70.86,52.24z"/>
		<path class="st0" d="M16.78,59.63c-0.35,0.94-0.32,1.93-0.43,2.9c-0.05,0.39-0.17,0.75-0.45,1.05c-0.42,0.26-0.91,0.71-1.34,0.54
			c-0.46-0.18-0.17-0.79-0.18-1.21C14.35,61.37,15.46,60.43,16.78,59.63z"/>
		<path class="st0" d="M137.68,52.62c0-0.41,0.23-0.67,0.64-0.82c0.54-0.2,0.73-0.54,0.56-1.04c-0.13-0.41,0.18-0.87-0.14-1.26
			c0.5-0.14,1.03-0.18,1.53-0.1c0.67,0.1,1.23,0.43,1.3,1.06c0.07,0.64-0.35,1.14-1.03,1.36C139.61,52.12,138.67,52.46,137.68,52.62
			z"/>
		<path class="st0" d="M97.27,46.39c0.52,0.53,1.06,0.97,1.9,1.18c0.59,0.14,0.81,0.2,0.92-0.37c0.02-0.13,0.2-0.23,0.31-0.35
			c0.28,0.59,0.22,1.21,0.11,1.81c-0.15,0.8-0.92,1.09-1.66,0.65C97.67,48.62,97.41,47.52,97.27,46.39z"/>
		<path class="st0" d="M121.38,36.68c-1.15-0.88-1.65-0.89-2.92-0.07c-0.23,0.15-0.42,0.35-0.72,0.39c0.54-0.96,1.11-1.89,2.25-2.41
			c0.47-0.22,0.95-0.31,1.39-0.06c0.41,0.23,0.36,0.67,0.31,1.05C121.65,35.96,121.63,36.35,121.38,36.68z"/>
		<path class="st0" d="M84.82,82.18c0.53-0.01,1.07-0.15,1.6,0.06c0.27,0.11,0.48-0.05,0.69-0.2c0.47-0.33,0.78-0.19,0.95,0.28
			c0.07,0.39,0,0.77-0.17,1.12c-0.22,0.45-0.59,0.64-1.17,0.55C85.07,83.75,84.73,83.44,84.82,82.18z"/>
		<path class="st0" d="M88.95,53.31c-0.25-0.23-0.46-0.39-0.01-0.69c0.57-0.39,0.67-0.91,0.18-1.45c0.75-0.08,1.49-0.07,2.15,0.29
			c0.26,0.14,0.52,0.33,0.49,0.66c-0.03,0.34-0.31,0.45-0.62,0.54C90.4,52.86,89.68,53.09,88.95,53.31z"/>
		<path class="st0" d="M59.02,46.77c0.17-0.03,0.34-0.09,0.51-0.09c1.16-0.04,2.2-0.3,2.89-1.21c0.06,0.51-0.03,1.01-0.22,1.49
			c-0.45,1.14-1.68,1.35-2.56,0.43C59.44,47.18,59.22,46.98,59.02,46.77z"/>
		<path class="st0" d="M96.53,85.76c0.5,0,0.92,0,1.43,0.26c0.91,0.46,1.92,0.29,2.78-0.29c-0.05,0.32-0.27,0.56-0.48,0.79
			c-0.6,0.65-1.38,1.05-2.34,0.84C97.04,87.17,96.78,86.45,96.53,85.76z"/>
		<path class="st0" d="M59.46,52.55c-0.03,0.28,0.01,0.58-0.09,0.83c-0.18,0.43-0.06,0.69,0.41,0.84c-0.53,0.33-1.23,0.36-1.71,0.78
			c-0.52-0.14-1.04-0.29-1.56-0.43c0.62-0.64,1.14-1.37,2.09-1.7C58.88,52.75,59.12,52.54,59.46,52.55z"/>
		<path class="st0" d="M72.65,43.92c0.27,0.01,0.48,0.12,0.69,0.25c1.07,0.67,1.36,0.63,2.26-0.27c0.06-0.06,0.13-0.09,0.2-0.14
			c0.16,0.14,0.09,0.34,0.18,0.49c0.3,0.52,0.49,0.95-0.3,1.31c-0.9,0.41-1.46,0.44-2.07-0.16C73.19,44.98,72.78,44.52,72.65,43.92z
			"/>
		<path class="st0" d="M73.46,55.25c-0.46,0.58-0.32,1.37-0.85,1.94c-0.16,0.18,0.08,0.37,0.16,0.55c0.12,0.27,0.52,0.43,0.37,0.8
			c-0.85-0.13-1.55-0.71-1.7-1.39c-0.05-0.25,0-0.47,0.22-0.62C72.29,56.12,72.75,55.56,73.46,55.25z"/>
		<path class="st0" d="M63.06,51.32L63,51.36l-0.08,0c0.21-1.09-0.02-2.18,0.11-3.28c0.19-1.62,0.2-3.27,0.28-4.9
			c0.01-0.17,0.02-0.37-0.2-0.47c-0.01-0.15,0.06-0.26,0.19-0.34c0.32,1.89-0.09,3.76-0.14,5.64
			C63.12,49.11,62.86,50.21,63.06,51.32z"/>
		<path class="st0" d="M140.67,83.6c0.62,0.14,0.6,0.55,0.52,0.98c-0.08,0.11-0.14,0.23-0.24,0.31c-0.2,0.17-0.36,0.47-0.7,0.34
			c-0.33-0.12-0.08-0.41-0.11-0.61C140.05,84.17,140.08,83.78,140.67,83.6z"/>
		<path class="st0" d="M120.88,23.62c0.11-0.1,0.22-0.2,0.33-0.3c0,2.16,0,4.32,0,6.48c-0.04,0-0.08,0-0.12,0
			C121.01,27.75,120.94,25.68,120.88,23.62z"/>
		<path class="st0" d="M33.13,26.38c0.88,0.37,1.77,0.58,2.71,0.17c-0.08,0.57-0.49,0.87-1.09,0.89
			C33.94,27.46,33.44,27.02,33.13,26.38z"/>
		<path class="st0" d="M40.02,45.78c0.32,0.64,0.52,1.31,0.69,1.99c-0.28,0.07-0.27,0.53-0.64,0.42c-0.4-0.13-0.19-0.48-0.21-0.73
			C39.8,46.89,39.85,46.33,40.02,45.78z"/>
		<path class="st0" d="M100.4,46.54c-0.15-1.53,0.22-3.04,0.2-4.56c0-0.29,0.14-0.55,0.47-0.68c-0.02,0.27-0.03,0.53-0.05,0.8
			c-0.26,0.25-0.24,0.56-0.24,0.87c-0.01,1.18-0.01,2.35-0.02,3.53C100.64,46.52,100.52,46.53,100.4,46.54z"/>
		<path class="st0" d="M135.98,68.07c-0.22-0.39-0.23-0.81-0.19-1.23c0.17-0.01,0.33-0.04,0.5-0.03c0.25,0.01,0.55,0.01,0.65,0.26
			c0.12,0.28-0.12,0.47-0.33,0.63C136.42,67.84,136.19,67.95,135.98,68.07z"/>
		<path class="st0" d="M100.76,46.51c0.01-1.18,0.01-2.35,0.02-3.53c0-0.31-0.02-0.62,0.24-0.87c-0.03,1.17-0.06,2.34-0.09,3.51
			c0,0.15-0.01,0.3-0.01,0.46c0,0.11-0.01,0.22-0.01,0.34c-0.05,0.04-0.09,0.08-0.14,0.12L100.76,46.51z"/>
		<path class="st0" d="M66.42,63.78c-0.01-0.21,0.1-0.37,0.27-0.5c0.55,1.19,0.72,2.36-0.36,3.42c-0.19-0.07-0.3-0.17-0.25-0.37
			C67.06,65.65,67.22,64.45,66.42,63.78z"/>
		<path class="st0" d="M60.43,69.38c-0.04,0.12-0.07,0.25-0.11,0.37c-0.84,0.22-1.67,0.44-2.51,0.67
			C58.58,69.86,59.49,69.59,60.43,69.38z"/>
		<path class="st0" d="M28.71,91.77c-0.13-0.73,0.73-0.72,1.06-1.11c0.08,0.61-0.1,1.04-0.89,1.07c-0.06,0.01-0.12,0.01-0.18,0.02
			L28.71,91.77z"/>
		<path class="st0" d="M122.28,23.02c0.06,0,0.11,0.01,0.17,0.01c0.28,0.63,0.18,1.28,0.1,1.93
			C122.39,24.31,122.23,23.67,122.28,23.02z"/>
		<path class="st0" d="M100.77,46.53c0.05-0.04,0.09-0.08,0.14-0.12c0,0.15,0,0.3,0,0.46C100.64,46.8,100.76,46.65,100.77,46.53z"/>
		<path class="st0" d="M87.94,51.27c-0.11,0.16-0.23,0.2-0.38,0.04C87.69,51.3,87.82,51.28,87.94,51.27z"/>
		<path class="st0" d="M28.71,91.74c0.06-0.01,0.12-0.01,0.18-0.02c0.07,0.21,0.13,0.42,0.24,0.74C28.79,92.2,28.68,92,28.71,91.74z
			"/>
		<path class="st0" d="M76.56,40.96c-0.05-0.06-0.18-0.15-0.21-0.26c-0.04-0.15,0.14-0.21,0.27-0.23c0.13-0.02,0.19,0.08,0.19,0.19
			C76.8,40.78,76.84,40.92,76.56,40.96z"/>
		<path class="st0" d="M100.92,46.07c0-0.15,0.01-0.3,0.01-0.46C101,45.77,101,45.92,100.92,46.07z"/>
		<path class="st0" d="M82.02,47.14c-0.17,0.01-0.35,0.01-0.52,0.02C81.67,47.08,81.84,47.07,82.02,47.14z"/>
		<path class="st0" d="M120.62,64.47c0.05-0.02,0.09-0.04,0.14-0.05c0.01,0,0.03,0.02,0.05,0.03
			C120.74,64.46,120.68,64.46,120.62,64.47L120.62,64.47z"/>
		<path class="st0" d="M120.43,63.82c-0.01-0.02-0.04-0.05-0.04-0.06c0.02-0.02,0.05-0.03,0.08-0.05c0,0.02,0.02,0.05,0.01,0.07
			C120.48,63.8,120.45,63.81,120.43,63.82z"/>
		<path class="st0" d="M120.62,64.47c0.01-0.06,0.01-0.12,0.02-0.18C120.63,64.35,120.62,64.41,120.62,64.47
			C120.62,64.47,120.62,64.47,120.62,64.47z"/>
		<path class="st0" d="M58.61,46.68c0.06-0.01,0.11,0,0.16,0.03C58.72,46.7,58.66,46.69,58.61,46.68z"/>
		<path class="st0" d="M86.86,51.44l-0.07,0.03c0,0-0.08-0.01-0.08-0.01C86.75,51.45,86.81,51.45,86.86,51.44z"/>
		<path class="st0" d="M121.21,23.31c0.02-0.05,0.03-0.09,0.05-0.14C121.24,23.22,121.22,23.26,121.21,23.31z"/>
		<path class="st0" d="M59.8,87.18c-0.03,0.08-0.07,0.17-0.1,0.25C59.73,87.34,59.77,87.26,59.8,87.18z"/>
		<path class="st0" d="M134.95,66.96c-0.06,0.01-0.13,0.01-0.19,0.02C134.82,66.97,134.89,66.97,134.95,66.96z"/>
		<path class="st0" d="M58.17,42.48c0.06,0,0.12,0,0.18-0.01c-0.02,0.03-0.05,0.06-0.07,0.09C58.23,42.54,58.2,42.51,58.17,42.48z"
			/>
		<path class="st0" d="M76.28,37.7c-0.02,0.01-0.03,0.02-0.05,0.03c0.01-0.01,0.01-0.03,0.02-0.04
			C76.25,37.69,76.28,37.7,76.28,37.7z"/>
		<path class="st0" d="M66.42,63.78c0.8,0.68,0.64,1.87-0.34,2.55C66.21,65.48,66.43,64.64,66.42,63.78z"/>
	</g>
</g>
</svg>
