<?xml version="1.0" encoding="utf-8"?>
<!-- Generator: Adobe Illustrator 23.0.5, SVG Export Plug-In . SVG Version: 6.00 Build 0)  -->
<svg version="1.1" id="Layer_1" xmlns="http://www.w3.org/2000/svg" xmlns:xlink="http://www.w3.org/1999/xlink" x="0px" y="0px"
	 viewBox="0 0 126.66 116.8" style="enable-background:new 0 0 126.66 116.8;" xml:space="preserve">
<style type="text/css">
	.st0{fill:#861C29;}
</style>
<g>
	<g>
		<path class="st0" d="M22.4,71.82c3.34-2.68,7.04-4.8,10.87-6.66c6.3-3.07,12.62-6.11,19.11-8.74c3-1.22,6.15-1.93,9.35-2.42
			c0.2-0.03,0.43,0.02,0.66-0.23c-1.87-0.97-3.31-2.43-4.86-3.77c-1.92-1.67-2.2-3.67-1.54-5.97c0.12-0.43,0.27-0.85,0.79-0.92
			c0.49-0.07,0.64,0.34,0.83,0.65c1.16,1.83,2.48,3.55,3.76,5.3c1.09,1.49,2.82,1.48,3.86-0.08c1.18-1.77,1.38-3.73,0.81-5.77
			c-0.59-2.1-1.98-3.57-3.79-4.69c-2.14-1.32-4.52-2.08-6.89-2.86c-1-0.33-2.03-0.61-3-1.02c-1.78-0.75-2.41-1.84-2.33-3.76
			c0.1-2.29,0.71-4.43,1.8-6.43c1.16-2.14,2.62-4.04,4.41-5.71c1.98-1.85,4.34-2.94,6.97-3.44c1.78-0.33,2.8,0.44,3.12,2.21
			c0.42,2.38,0.09,4.75-0.19,7.11c-0.14,1.18-0.35,2.35-0.29,3.55c0.04,0.77-0.62,1.18-1.33,0.84c-0.74-0.35-1.05-1.03-1.32-1.77
			c-0.75-2.01-0.64-4.1-0.65-6.19c0-0.32,0.12-0.73-0.16-0.91c-0.34-0.21-0.68,0.1-0.94,0.3c-2.49,1.97-4.67,4.22-6.01,7.15
			c-0.91,2-0.43,3.39,1.45,4.56c1.04,0.65,2.21,1.02,3.35,1.46c1.67,0.65,3.33,1.33,4.81,2.35c3.81,2.6,5.3,6.86,4.32,11.83
			c-0.55,2.77-2.32,4.46-4.67,5.67c-0.56,0.29-0.49,0.46-0.22,0.87c0.39,0.6,0.63,1.28,0.48,2.01c-0.16,0.76-0.03,1.44,0.33,2.11
			c0.22,0.4,0.4,0.83,0.36,1.5c-0.58-0.49-0.63-1.11-0.9-1.59c-0.16-0.3-0.3-0.53-0.65-0.21c-0.31,0.28-0.59,0.09-0.78-0.14
			c-1.36-1.64-2.99-1.37-4.73-0.77c-3.87,1.32-7.61,2.93-11.33,4.62c-4.57,2.07-8.95,4.45-13.11,7.26
			c-0.46,0.31-0.65,0.58-0.54,1.17c0.51,2.77,0.98,5.56,1.44,8.34c0.09,0.55,0.2,0.71,0.73,0.34c1.61-1.14,3.25-2.24,4.84-3.42
			c4.41-3.32,9.23-5.94,14.36-7.96c0.43-0.17,0.49-0.42,0.5-0.81c0.01-0.84,0.08-1.68,0.4-2.47c0.5-1.24,1.55-1.41,2.34-0.36
			c1.29,1.71,1.94,3.73,2.71,5.69c1.35,3.4,2.37,6.91,3.56,10.37c0.17,0.51,0.4,0.72,0.92,0.66c0.24-0.03,0.49,0.02,0.73,0.05
			c1,0.11,1.01,0.11,0.82-0.92c-1.12-6.05-1.06-12.06,0.58-18.02c0.67-2.42,1.82-4.58,3.56-6.4c1.93-2.01,4.34-1.98,6.27,0.02
			c1.41,1.46,1.96,3.35,2.48,5.22c0.62,2.25,1,4.56,1.37,6.86c0.17,1.05,0.21,2.1,0.2,3.16c0,0.46-0.02,0.96-0.58,1.13
			c-0.59,0.18-1.01-0.12-1.3-0.59c-0.55-0.88-0.85-1.88-1.11-2.87c-0.81-3.04-2.4-5.73-3.73-8.54c-0.24-0.51-0.49-0.38-0.79-0.1
			c-0.47,0.44-0.72,1.01-0.95,1.6c-1.3,3.35-1.8,6.84-1.76,10.42c0.03,2.74,0.2,5.47,0.48,8.19c0.23,2.28,0.66,4.51,2.04,6.43
			c0.44,0.62,0.91,1.23,1.61,1.58c0.87,0.43,1.4,0.23,1.65-0.71c0.49-1.84,1.14-3.62,1.98-5.32c0.32-0.66,0.66-1.31,1.21-1.82
			c0.38-0.36,0.81-0.54,1.33-0.35c0.52,0.18,0.78,0.58,0.83,1.1c0.04,0.35,0.06,0.7,0.04,1.05c-0.17,2.52-0.82,4.92-1.93,7.17
			c-0.71,1.43-1.93,2.5-3.2,3.41c-1.44,1.03-3.59,0.71-5.03-0.6c-1.58-1.43-2.61-3.24-3.4-5.19c-0.38-0.93-0.66-1.89-0.98-2.84
			c-0.07-0.2-0.07-0.49-0.4-0.25c-0.42,0.3-0.84,0.6-1.25,0.91c-0.37,0.28-0.11,0.59-0.01,0.88c0.79,2.19,1.58,4.38,2.11,6.65
			c0.1,0.45,0.17,0.91,0.16,1.37c-0.01,0.51-0.26,0.93-0.75,1.17c-0.45,0.22-0.78-0.05-1.11-0.29c-0.84-0.61-1.18-1.52-1.51-2.45
			c-0.54-1.53-1.1-3.06-1.62-4.59c-0.14-0.41-0.29-0.37-0.56-0.15c-1.23,0.98-2.46,1.95-3.7,2.91c-0.36,0.28-0.34,0.65-0.36,1.03
			c-0.08,2.22,0.1,4.44-0.19,6.65c-0.05,0.38-0.1,0.76-0.21,1.12c-0.18,0.57-0.36,1.22-1.08,1.28c-0.75,0.06-1.07-0.53-1.32-1.12
			c-0.38-0.91-0.52-1.88-0.57-2.86c-0.04-0.91-0.08-1.83-0.11-2.78c-0.53,0.32-0.99,0.64-1.5,0.88c-0.56,0.26-1.16,0.4-1.64-0.16
			c-0.49-0.57-0.23-1.1,0.14-1.62c0.72-0.99,1.56-1.88,2.4-2.76c0.35-0.37,0.55-0.71,0.51-1.28c-0.08-1.1-0.08-2.22-0.02-3.33
			c0.03-0.56-0.19-0.57-0.61-0.5c-1.28,0.23-2.56,0.46-3.85,0.67c-0.64,0.1-1.43,0.33-1.75-0.4c-0.33-0.75,0.36-1.24,0.89-1.64
			c1.23-0.93,2.62-1.54,4.12-1.84c0.84-0.17,1.1-0.49,1.1-1.38c0.01-2.81,0.15-5.62,0.24-8.44c0.01-0.27,0.05-0.54-0.1-0.79
			c-0.35,0.03-0.58,0.28-0.84,0.46c-2.36,1.68-4.7,3.38-7.06,5.05c-0.46,0.32-0.58,0.65-0.48,1.22c0.83,4.59,1.63,9.19,2.05,13.84
			c-0.71,0.76-1.38,1.54-1.89,2.46c-0.13,0.23-0.28,0.63-0.54,0.48c-0.82-0.46-0.61,0.3-0.79,0.6c-0.57-2.81-0.97-5.65-1.37-8.49
			c-0.3-2.14-0.65-4.28-0.96-6.42c-0.08-0.58-0.28-0.61-0.7-0.26c-1.27,1.05-2.56,2.07-3.83,3.12c-0.69,0.57-1.39,1.13-2.24,1.42
			c-0.6,0.21-0.78,0.56-0.6,1.16c0.1,0.33,0.1,0.69,0.15,1.04c-0.36-0.13-0.49-0.45-0.51-0.77c-0.05-0.65-0.34-0.94-1-1.04
			c-1.01-0.16-1.54-0.82-1.64-1.84c-0.02-0.24,0.04-0.55-0.28-0.6c-0.5-0.07-0.49-0.43-0.53-0.78c-0.02-0.15,0.05-0.38-0.18-0.38
			c-0.24,0-0.29,0.22-0.29,0.41c0.01,0.24,0.04,0.49,0.09,0.72c0.33,1.95,0.67,3.9,1,5.85c0.06,0.37,0.17,0.74,0.04,1.12
			c-0.99-5.07-1.9-10.16-2.71-15.26c-0.33-2.07-0.34-2.07-2.03-0.84c-0.54,0.4-1.1,0.78-1.65,1.16c0.18-0.52,0.18-0.89-0.56-0.72
			c-0.53,0.12-0.9,0.01-0.89-0.66c0.01-0.37-0.23-0.36-0.49-0.2c-0.33,0.2-0.66,0.23-0.96-0.05C23.24,72.16,22.81,72.01,22.4,71.82z
			 M59.14,74.86c-0.05,0.01-0.09,0.01-0.14,0.02c-0.04,1.34-0.09,2.69-0.11,4.03c-0.03,1.71-0.02,1.67,1.67,1.65
			c0.66-0.01,0.56-0.26,0.41-0.68C60.35,78.21,59.74,76.54,59.14,74.86z M62.4,83.88c-1.26-0.17-2.24-0.02-3.22,0.02
			c-0.29,0.01-0.31,0.27-0.31,0.48c-0.01,0.54,0.02,1.08,0.01,1.61c0,0.27,0.08,0.49,0.36,0.29C60.24,85.56,61.22,84.79,62.4,83.88z
			"/>
		<path class="st0" d="M90.4,81.48c0.23,0.94,0.47,1.87,0.69,2.81c0.49,2.09,0.91,4.19,1.02,6.34c0.08,1.57-0.56,2.48-1.82,2.61
			c-1.23,0.12-2.39-0.8-2.57-2.2c-0.27-2.07-0.44-4.16-1.06-6.16c-0.15-0.49-0.29-0.99-0.46-1.47c-0.08-0.22-0.15-0.48-0.44-0.54
			c-0.76-0.16-0.95-0.75-1.01-1.4c-0.33-3.26-0.75-6.52-1.14-9.77c-0.52-4.32-1.54-8.54-2.17-12.84c-0.2-1.34-0.41-2.68-0.55-4.03
			c-0.11-1.02,0.09-1.93,1.16-2.46c0.89-0.44,1.87-0.24,2.42,0.61c0.42,0.65,0.6,1.39,0.73,2.14c0.5,2.78,1,5.55,1.49,8.33
			c0.07,0.36,0.13,0.73,0.19,1.1c0.08,0,0.15-0.01,0.23-0.01c0.18-1.65,0.31-3.31,0.54-4.95c0.41-2.95,0.86-5.89,1.32-8.83
			c0.11-0.72,0.29-1.44,0.8-2.01c0.3-0.33,0.62-0.65,1.12-0.51c0.46,0.13,0.57,0.55,0.65,0.95c0.06,0.32,0.11,0.65,0.08,0.97
			c-0.23,3.05,0.03,6.12-0.2,9.17c-0.32,4.27-1.01,8.49-2.09,12.63c-0.24,0.94-0.1,1.66,0.47,2.41c1.94,2.56,4.35,4.68,6.46,7.08
			c0.8,0.91,1.59,1.84,2.66,2.7c-0.32-1.11-0.59-2.08-0.88-3.05c-0.5-1.7-0.7-3.45-0.99-5.19C97.01,75.75,97,75.58,97,75.42
			c-0.01-0.66-0.02-1.33,0.72-1.66c0.65-0.29,1.45-0.04,2.03,0.63c0.12,0.14,0.25,0.29,0.33,0.46c0.96,2.21,2.27,4.24,3.31,6.41
			c0.21,0.44,0.43,0.88,0.69,1.28c1.02,1.58,2.94,1.69,4.07,0.17c1.24-1.65,1.22-3.58,0.75-5.45c-0.83-3.26-2.89-5.36-6.22-6.18
			c-1.73-0.42-3.45-0.91-5.13-1.53c-1.3-0.48-2.29-1.22-2.58-2.66c-0.09-0.44-0.42-0.68-0.75-0.92c-0.97-0.72-1.21-1.66-0.9-2.81
			c0.51-1.86,1.47-3.5,2.65-5c1.97-2.5,4.13-4.82,6.52-6.91c1.86-1.62,3.91-2.93,6.4-3.34c2.41-0.4,4.57,0.22,6.45,1.78
			c1.44,1.2,1.75,2.46,0.96,4.28c-0.42,0.97-0.6,1.88-0.16,2.88c0.18,0.41,0.38,0.66,0.83,0.78c0.58,0.14,1.15,0.32,1.64,0.69
			c0.15,0.11,0.32,0.24,0.29,0.46c-0.04,0.26-0.26,0.33-0.48,0.37c-0.56,0.09-1.13,0.12-1.7,0.05c-1.13-0.12-2.26-0.24-3.41-0.19
			c-0.21,0.01-0.49,0.03-0.64-0.08c-0.89-0.67-1.47-0.13-2.08,0.45c-1.39,1.33-2.82,2.63-4.08,4.09c-0.37,0.43-0.78,0.84-1.33,1.04
			c-0.68,0.24-1.06-0.06-1-0.78c0.04-0.48,0.28-0.87,0.53-1.26c0.63-0.98,1.27-1.95,1.92-2.94c-0.22-0.01-0.49,0.11-0.77,0.24
			c-2.47,1.15-4.14,3.19-5.81,5.22c-0.46,0.55-0.11,1.02,0.35,1.39c0.72,0.58,1.6,0.79,2.45,1.04c3.21,0.95,5.9,2.69,8.02,5.29
			c2.67,3.27,2.94,8.79,0.6,12.18c-1.68,2.44-4.58,3.57-7.47,2.91c-0.6-0.14-1.2-0.29-1.88-0.46c0.19,0.67,0.4,1.23,0.51,1.8
			c0.25,1.34-0.53,1.98-1.81,1.48c-0.74-0.29-1.37-0.77-1.97-1.28c-2.39-2.01-4.51-4.3-6.74-6.48c-0.51-0.5-1.05-0.99-1.57-1.48
			C90.48,81.42,90.44,81.45,90.4,81.48z M98.85,60.48c0.27,0.12,0.46-0.05,0.67-0.17c2.72-1.67,5.67-2.67,8.86-2.92
			c0.19-0.01,0.38-0.03,0.53-0.16c1.06-0.95,1.97-2.01,2.57-3.31c0.28-0.61,0.03-0.97-0.63-1.1c-0.9-0.17-1.79-0.1-2.64,0.2
			c-1.85,0.66-3.49,1.67-5.04,2.88C101.5,57.21,100.17,58.84,98.85,60.48c0.02,0.01,0.05,0.02,0.06,0.04
			c0.02,0.08,0.05,0.08,0.07,0.01C98.97,60.52,98.89,60.5,98.85,60.48z M112.83,57.23c0.72,0.01,1.23,0.09,1.73-0.08
			c0.24-0.08,0.54-0.21,0.47-0.55c-0.05-0.28-0.1-0.65-0.29-0.81c-0.27-0.23-0.44,0.17-0.63,0.32
			C113.71,56.42,113.35,56.77,112.83,57.23z"/>
		<path class="st0" d="M35.15,53.03c-1.3,2.06-2.86,3.93-4.39,5.81c-1.56,1.92-3.19,3.79-4.96,5.53c-0.71,0.7-1.38,1.44-2.13,2.1
			c-0.65,0.57-1.37,1.05-2.21,1.32c-1.05,0.34-1.52,0.1-1.79-0.97c-0.24-0.93-0.24-1.88-0.07-2.82c0.09-0.49-0.03-0.83-0.42-1.21
			c-1.16-1.12-1.45-1.89-0.61-3.28c0.13-0.21,0.19-0.45,0.33-0.65c1.11-1.57,1.35-3.29,1.07-5.17c-0.3-2-0.47-4.03-0.66-6.04
			c-0.13-1.31-0.2-2.63-0.29-3.94c0.84,0.4,0.64,1.16,0.59,1.83c-0.08,1.09,0.2,2.12,0.75,2.99c0.3,0.47,0.82,0.78,0.63,1.52
			c0.52-0.29,0.7-0.64,0.72-1.11c0.02-0.44,0.11-0.87,0.64-1c0.24,1.23,0.06,2.54,0.61,3.85c0.93-1.4,1.82-2.69,2.48-4.12
			c0.17-0.37,0.35-0.74,0.57-1.08c0.28-0.43,0.67-0.73,1.23-0.51c0.57,0.23,0.62,0.76,0.52,1.23c-0.1,0.49-0.32,0.98-0.56,1.43
			c-1.08,1.97-2.16,3.94-3.3,5.88c-0.55,0.94-0.9,1.86-0.78,2.98c0.09,0.93-0.05,1.89-0.05,2.84c0,0.57-0.15,1.15,0.1,1.8
			c0.33-0.3,0.6-0.52,0.84-0.77c2.5-2.58,4.83-5.3,6.91-8.24c1.16-1.64,2.22-3.34,2.9-5.25c0.98-2.74,0.06-3.96-2.86-3.88
			c-1.94,0.05-3.8,0.57-5.7,0.83c0.09-0.32,0.36-0.45,0.64-0.57c0.29-0.12,0.69-0.2,0.56-0.64c-0.13-0.44-0.45-0.51-0.9-0.44
			c-0.77,0.12-1.94-0.52-2.3-1.19c0,0,0.01,0.05,0.01,0.05c0.06-0.08,0.11-0.16,0.17-0.24l0.01,0.04c0,0-0.04,0.01-0.04,0.01
			c0.06-0.08,0.11-0.16,0.17-0.24c0,0-0.02,0.05-0.02,0.05c0.05-0.09,0.09-0.17,0.14-0.26c1.36-1.98,2.73-3.96,4.06-5.95
			c0.89-1.33,1.68-2.71,2.27-4.2c0.1-0.25,0.18-0.51,0.25-0.77c0.46-1.79-0.27-2.65-2.11-2.48c-0.38,0.04-0.75,0.1-1.12,0.15
			c-0.07-0.54-0.35-0.83-0.91-0.83c-0.23,0-0.38-0.14-0.57-0.26c-0.97-0.63-1.87-1.43-3.1-1.55c0.26-0.11,0.52-0.22,0.79-0.33
			c0.58-0.14,1.21-0.09,1.73-0.45c0.32-0.06,0.64-0.11,0.97-0.17c0.57,0.15,1.11-0.07,1.66-0.15c1.45-0.19,2.87-0.01,4.23,0.5
			c1.52,0.57,2.41,2.32,2.25,4.22c-0.09,1.05-0.47,2-0.93,2.92c-1.45,2.93-3.4,5.54-5.21,8.25c-0.11,0.17-0.31,0.3-0.29,0.63
			c1.18-0.09,2.35-0.21,3.52-0.27c0.65-0.03,1.3-0.01,1.94,0.06c2.75,0.31,4.45,2.48,4.18,5.29c-0.07,0.67-0.18,1.33-0.27,2
			c1.89-1.31,2.01-3.18,1.97-5.21c-0.09-5.54-0.1-11.08,0.42-16.61c0.08-0.81,0.2-1.61,0.54-2.36c0.58-1.27,1.78-1.5,2.74-0.49
			c0.89,0.93,1.41,2.11,1.93,3.27c2.27,5.02,4.45,10.09,6.54,15.19c0.26,0.64,0.53,0.76,1.12,0.47c0.61-0.31,1.29-0.45,1.97-0.39
			c0.69,0.06,0.86,0.48,0.38,0.97c-0.5,0.53-1.06,1.02-1.64,1.45c-0.39,0.28-0.42,0.51-0.24,0.93c0.61,1.42,1.06,2.9,1.33,4.43
			c0.09,0.48,0.17,0.97,0.18,1.45c0.01,0.5-0.1,1-0.66,1.19c-0.53,0.18-0.97-0.03-1.3-0.44c-0.72-0.88-1.37-1.82-1.89-2.84
			c-0.26-0.51-0.51-1.02-0.74-1.54c-0.18-0.41-0.37-0.45-0.72-0.16c-0.89,0.75-1.8,1.48-2.69,2.23c-0.75,0.63-1.52,1.24-2.42,1.61
			c-0.68,0.28-0.97,0.67-0.91,1.4c0.03,0.37-0.06,0.75-0.1,1.13c-0.12,0.8-0.42,1.41-1.41,1.27c-0.14-0.02-0.31,0.08-0.45,0.16
			c-0.76,0.47-1.31,0.19-1.77-0.47c-0.03-0.19-0.1-0.37-0.09-0.56c0.05-1.37,0.05-1.36-1.25-1.19c-0.35,0.05-0.53,0.18-0.62,0.51
			c-0.51,1.9-1.03,3.81-1.54,5.71c-0.09,0.34-0.07,0.69-0.02,1.04c0.26,1.9-1.6,3.68-3.51,3.38c-0.41-0.07-0.58-0.25-0.41-0.66
			c0.14-0.32,0.24-0.67,0.43-0.96c1.78-2.71,2.35-5.83,3.12-8.89c0.08-0.11,0.15-0.22,0.02-0.35
			C35.28,52.89,35.21,52.96,35.15,53.03z M43.22,34.51c-0.06,0.02-0.11,0.04-0.17,0.06c-0.02,4.17-0.05,8.34-0.07,12.66
			c1.59-0.88,3.03-1.74,4.52-2.48c0.7-0.35,0.75-0.66,0.36-1.27c-0.32-0.49-0.54-1.06-0.81-1.58C45.78,39.43,44.5,36.97,43.22,34.51
			z M38.66,49.92c0.64-0.06,0.42-0.46,0.34-0.8C38.89,49.38,38.79,49.63,38.66,49.92z"/>
		<path class="st0" d="M22.4,71.82c0.41,0.2,0.85,0.34,1.18,0.67c0.3,0.29,0.63,0.26,0.96,0.05c0.26-0.16,0.5-0.17,0.49,0.2
			c-0.01,0.67,0.36,0.78,0.89,0.66c0.74-0.17,0.74,0.2,0.56,0.72c-1.42,1.03-2.84,2.07-4.28,3.08c-0.41,0.28-0.52,0.53-0.27,0.99
			c2.8,5.1,5.25,10.38,7.85,15.58c0.82,1.64,1.72,3.25,2.34,5c0.14,0.39,0.23,0.77,0.28,1.18c0.1,0.77-0.08,1.43-0.82,1.78
			c-0.77,0.36-1.51,0.18-2.08-0.43c-0.71-0.76-1.42-1.54-1.75-2.57c-0.06-0.18-0.19-0.33-0.25-0.51c-0.22-0.57-0.42-0.71-0.92-0.17
			c-2.61,2.8-5.59,5.19-8.58,7.58c-0.59,0.47-1.32,0.83-0.82,1.76c-0.42,0.12-0.52-0.3-0.88-0.27c-0.13,0.82-0.29,1.65-0.38,2.5
			c-0.08,0.74-0.46,1.19-1.15,1.41c-0.63,0.2-1.21,0.16-1.69-0.38c-0.4-0.45-0.87-0.7-1.52-0.47c-0.4,0.14-0.84,0.07-1.12-0.28
			c-0.29-0.36-0.04-0.72,0.13-1.06c0.16-0.31,0.29-0.67,0.54-0.91c1.17-1.12,1.12-2.49,1.03-3.96c-0.53-9.07-0.14-18.08,1.79-26.99
			c0.28-1.29,0.62-2.56,1.12-3.79c0.18-0.43,0.4-0.83,0.72-1.17c0.94-1.01,2.04-1,2.93,0.03c0.19,0.22,0.36,0.47,0.52,0.72
			c0.64,1.04,0.64,1.03,1.64,0.24C21.35,72.59,21.88,72.21,22.4,71.82z M16.7,102.23c0.21-0.11,0.31-0.14,0.39-0.2
			c2.78-2.2,5.65-4.3,8.57-6.31c0.44-0.31,0.34-0.56,0.14-0.94c-2.19-3.98-4.36-7.98-6.54-11.97c-0.3-0.56-0.63-1.1-0.95-1.64
			c-0.07,0.02-0.14,0.03-0.21,0.05C17.14,88.15,16.46,95.11,16.7,102.23z"/>
		<path class="st0" d="M89.35,12.68c-0.72,0.49-1.17,1.02-1.57,1.58c-3.73,5.27-5.4,11.15-5.11,17.59c0.11,2.53,0.4,5.03,1.45,7.37
			c0.64,1.43,1.63,2.54,3.1,3.18c0.7,0.31,1.21,0.25,1.63-0.47c0.44-0.73,0.8-1.48,1.11-2.26c1-2.57,2.66-4.71,4.45-6.75
			c0.09-0.1,0.19-0.2,0.29-0.28c0.39-0.32,0.81-0.62,1.32-0.35c0.53,0.28,0.39,0.81,0.29,1.24c-0.57,2.55-1.45,4.98-2.56,7.35
			c-0.95,2.02-2.23,3.77-3.8,5.33c-1.19,1.18-2.56,1.5-4.17,0.95c-2.98-1.01-4.76-3.2-5.94-5.96c-1.19-2.78-1.51-5.73-1.8-8.71
			c-0.69-7.16,2.01-13.38,5.31-19.43c1.4-2.57,3.41-4.6,6.24-5.68c2.78-1.06,4.77,0.3,4.78,3.3c0,2.1-0.46,4.14-1.05,6.14
			c-0.65,2.24-1.65,4.35-2.59,6.49c-0.23,0.51-0.52,1.11-1.23,0.97c-0.68-0.14-1.04-0.67-1.11-1.35c-0.25-2.63-0.01-5.24,0.47-7.83
			C88.99,14.33,89.16,13.58,89.35,12.68z"/>
		<path class="st0" d="M72.33,42.38c-0.68-3.68-0.77-7.66-1.05-11.63c-0.31-4.36,0.12-8.71-0.13-13.06
			c-0.01-0.16-0.01-0.33,0.02-0.49c0.09-0.58-0.16-1.32,0.63-1.6c0.8-0.29,1.89,0.07,2.42,0.75c0.43,0.55,0.62,1.21,0.79,1.86
			c0.56,2.1,0.95,4.22,0.65,6.42c-0.4,2.91-0.01,5.83,0,8.75c0.02,4.29,0.64,8.53,0.97,12.8c0.03,0.43,0.06,0.87,0.03,1.3
			c-0.04,0.55-0.16,1.11-0.78,1.31c-0.64,0.2-1.19-0.05-1.62-0.51c-0.41-0.44-0.66-0.99-0.88-1.55
			C72.87,45.41,72.67,44.01,72.33,42.38z"/>
		<path class="st0" d="M22.44,25.62c1.23,0.12,2.13,0.92,3.1,1.55c0.18,0.12,0.34,0.27,0.57,0.26c0.56-0.01,0.85,0.29,0.91,0.83
			c-0.25,0.07-0.5,0.13-0.75,0.2c-0.3-0.17-0.53-0.14-0.67,0.21c-0.08,0.02-0.15,0.04-0.23,0.06c-0.06,0.03-0.12,0.07-0.18,0.1
			c-2.92,1.15-5.64,2.65-8.16,4.5c-1.61,1.18-3.12,2.49-4.36,4.08c-1.32,1.69-0.93,2.87,1.13,3.52c0.13,0.04,0.26,0.07,0.39,0.1
			c0.44,0.11,1.02-0.02,1.28,0.39c0.28,0.44-0.27,0.76-0.4,1.15c-0.21,0.64,0.17,1.28,0.06,1.93c-0.02,0.13,0.04,0.27,0.04,0.4
			c-0.01,0.21,0.01,0.48-0.29,0.5c-0.25,0.01-0.26-0.24-0.29-0.42c-0.09-0.51-0.19-1.01-0.26-1.53c-0.09-0.67-0.43-1.08-1.09-1.25
			c-1.33-0.36-2.66-0.76-4-1.09c-1.73-0.43-2.69-2.5-1.79-4.02c1.7-2.84,4.04-5.08,6.66-7.05c2.25-1.69,4.65-3.14,7.28-4.18
			c0.22-0.09,0.46-0.15,0.69-0.22c0.06-0.01,0.11-0.01,0.17-0.02C22.33,25.62,22.39,25.62,22.44,25.62z"/>
		<path class="st0" d="M32.87,89.06c0.13-0.38,0.02-0.75-0.04-1.12c-0.33-1.95-0.67-3.9-1-5.85c-0.04-0.24-0.08-0.48-0.09-0.72
			c-0.01-0.19,0.05-0.42,0.29-0.41c0.23,0,0.16,0.24,0.18,0.38c0.04,0.35,0.03,0.7,0.53,0.78c0.31,0.05,0.25,0.36,0.28,0.6
			c0.11,1.02,0.64,1.67,1.64,1.84c0.66,0.11,0.95,0.4,1,1.04c0.02,0.32,0.16,0.64,0.51,0.77c0.81,4.24,1.33,8.52,1.77,12.81
			c0.08,0.76,0,1.51-0.2,2.25c-0.18,0.67-0.63,0.84-1.21,0.48c-0.67-0.42-1.1-1.02-1.36-1.77c-0.52-1.52-0.93-3.06-1.19-4.65
			C33.64,93.34,33.24,91.2,32.87,89.06z"/>
		<path class="st0" d="M22.35,47.92c-0.53,0.13-0.62,0.56-0.64,1c-0.02,0.47-0.2,0.82-0.72,1.11c0.19-0.74-0.32-1.05-0.63-1.52
			c-0.55-0.86-0.83-1.89-0.75-2.99c0.05-0.67,0.25-1.43-0.59-1.83c-0.13-2.89-0.27-5.78-0.39-8.67c-0.02-0.4-0.02-0.82,0.04-1.21
			c0.16-1.07,1.12-1.44,1.98-0.78c0.68,0.53,0.96,1.29,1.14,2.09c0.43,1.95,0.36,3.93,0.44,5.9c0.03,0.66-0.03,1.33,0.16,2.07
			c0.33-0.38,0.61-0.7,0.88-1.01c0.36,0.67,1.53,1.31,2.3,1.19c0.45-0.07,0.77,0,0.9,0.44c0.13,0.45-0.27,0.52-0.56,0.64
			c-0.28,0.12-0.55,0.25-0.64,0.57c-0.73,0.19-1.47,0.43-2.21,0.09c-0.62-0.29-0.64,0.03-0.67,0.53
			C22.33,46.33,22.64,47.13,22.35,47.92z"/>
		<path class="st0" d="M45.71,94.78c0.18-0.3-0.02-1.05,0.79-0.6c0.27,0.15,0.42-0.25,0.54-0.48c0.5-0.92,1.18-1.7,1.89-2.46
			c0.39,2.05,0.47,4.14,0.77,6.2c0.22,1.52-0.27,2.93-0.28,4.4c-0.01,0.59-0.48,0.96-1.06,1.07c-0.61,0.12-0.81-0.32-1.03-0.8
			C46.26,99.78,46,97.28,45.71,94.78z"/>
		<path class="st0" d="M71.33,7.7c1.38-0.24,2.17,0.52,1.61,1.8c-0.85,1.94-1.92,3.81-3.36,5.39c-0.91,1-1.8,0.68-2.18-0.63
			C66.63,11.67,68.74,8.15,71.33,7.7z"/>
		<path class="st0" d="M117.72,81.81c-1.48,0.2-2.49-0.48-2.67-1.8c-0.15-1.08,0.47-2.04,1.38-2.14c1.29-0.14,2.62,0.96,2.79,2.31
			C119.33,81.1,118.81,81.67,117.72,81.81z"/>
		<path class="st0" d="M39.21,54.77c0.46,0.66,1.01,0.94,1.77,0.47c0.13-0.08,0.31-0.18,0.45-0.16c0.99,0.14,1.28-0.46,1.41-1.27
			c-0.04,0.83-0.04,1.67-0.13,2.5c-0.12,1.06-0.72,1.68-1.52,1.72c-0.87,0.04-1.59-0.6-1.8-1.65
			C39.29,55.85,39.27,55.31,39.21,54.77z"/>
		<path class="st0" d="M24.96,24.85c-0.52,0.35-1.15,0.31-1.73,0.45C23.76,24.98,24.36,24.92,24.96,24.85z"/>
		<path class="st0" d="M27.58,24.53c-0.55,0.07-1.09,0.3-1.66,0.15C26.47,24.56,27.02,24.43,27.58,24.53z"/>
		<path class="st0" d="M25.61,28.67c0.13-0.35,0.37-0.38,0.67-0.21C26.1,28.68,25.84,28.63,25.61,28.67z"/>
		<path class="st0" d="M22.28,25.63c-0.06,0.01-0.11,0.01-0.17,0.02C22.16,25.57,22.21,25.57,22.28,25.63z"/>
		<path class="st0" d="M25.19,28.84c0.06-0.03,0.12-0.07,0.18-0.1C25.32,28.77,25.26,28.8,25.19,28.84z"/>
		<path class="st0" d="M23.68,41.51c-0.05,0.09-0.1,0.17-0.14,0.26C23.59,41.68,23.64,41.59,23.68,41.51z"/>
		<path class="st0" d="M23.43,41.9c-0.06,0.08-0.11,0.16-0.17,0.24C23.26,42.02,23.31,41.94,23.43,41.9z"/>
		<path class="st0" d="M23.56,41.71c-0.06,0.08-0.11,0.16-0.17,0.24C23.39,41.83,23.45,41.75,23.56,41.71z"/>
		<path class="st0" d="M98.85,60.48c0.04,0.02,0.13,0.04,0.12,0.05c-0.02,0.07-0.04,0.07-0.07-0.01
			C98.9,60.5,98.87,60.49,98.85,60.48C98.85,60.48,98.85,60.48,98.85,60.48z"/>
		<path class="st0" d="M38.66,49.92c0.12-0.29,0.23-0.55,0.34-0.8C39.08,49.46,39.3,49.86,38.66,49.92z"/>
		<path class="st0" d="M35.15,53.03c0.07-0.07,0.13-0.15,0.2-0.22c0.13,0.13,0.06,0.24-0.02,0.35
			C35.27,53.12,35.21,53.08,35.15,53.03z"/>
	</g>
</g>
</svg>
