<?xml version="1.0" encoding="utf-8"?>
<!-- Generator: Adobe Illustrator 23.0.5, SVG Export Plug-In . SVG Version: 6.00 Build 0)  -->
<svg version="1.1" id="Layer_1" xmlns="http://www.w3.org/2000/svg" xmlns:xlink="http://www.w3.org/1999/xlink" x="0px" y="0px"
	 viewBox="0 0 107.92 90.21" style="enable-background:new 0 0 107.92 90.21;" xml:space="preserve">
<style type="text/css">
	.st0{opacity:0.61;}
	.st1{fill:#D4820E;}
</style>
<g class="st0">
	<g>
		<path class="st1" d="M42.29,57.68c-0.02-0.13-0.04-0.26-0.06-0.38c0.06-0.37,0.04-0.71-0.22-1.01c-0.03-0.16-0.06-0.32-0.1-0.47
			c0.01-0.02,0.02-0.04,0.02-0.05c-0.01-0.03-0.03-0.06-0.05-0.09c-0.18-0.65-0.38-1.3-0.44-1.99c0-0.29-0.01-0.59,0-0.88
			c0.02-0.77,0.48-1.39,1.22-1.32c0.85,0.07,1.6-0.31,2.41-0.34c0,0,0.01,0.01,0.01,0.01c0.06,0.06,0.13,0.12,0.19,0.18
			c0.72,1.28,0.97,2.7,1.26,4.11c0.81,4.02,0.83,8.07,0.52,12.14c-0.02,0.22-0.15,0.52,0.06,0.65c0.24,0.14,0.46-0.12,0.69-0.21
			c0.5-0.2,0.71-0.54,0.74-1.11c0.21-3.84,0.35-7.69,0.86-11.51c0.39-2.96,0.96-5.89,1.82-8.75c0.18-0.61,0.44-1.19,0.83-1.7
			c0.22-0.3,0.5-0.54,0.87-0.6c0.55-0.09,0.41-0.38,0.27-0.72c-0.99-2.54-1.96-5.09-2.94-7.64c-0.04-0.1-0.06-0.2-0.09-0.3
			c0.01-0.04,0-0.08-0.04-0.1c-0.04-0.05-0.08-0.11-0.12-0.16c-0.44-0.24-0.87-0.27-1.28,0.08c-0.18,0.16-0.41,0.25-0.64,0.24
			c-0.68-0.03-1.27,0.28-1.88,0.49c-0.45,0.15-0.84,0.5-1.37,0.32c-0.11-0.04-0.26,0.03-0.32,0.16c-0.21,0.43-0.56,0.45-0.96,0.36
			c0.06-0.04,0.12-0.08,0.18-0.12c-0.01-0.01-0.02-0.02-0.03-0.03c-0.05,0.05-0.1,0.11-0.14,0.16c-0.54,0.02-1.21-0.23-1.34,0.63
			c-0.25,1.12-0.51,2.24-0.76,3.36c-0.14,0.61-0.26,1.22-0.39,1.84c-0.12,0.56-0.48,0.92-0.93,1.23c-0.14,0.09-0.11-0.06-0.16-0.1
			c-0.21-0.25-0.34,0.19-0.54,0.06c-0.12-0.07-0.24-0.14-0.36-0.21c-0.31-0.48-0.77-0.83-1.16-1.23c-0.02-0.04-0.05-0.09-0.07-0.13
			c0.01-0.03,0-0.06-0.03-0.07c-0.07-0.21-0.13-0.42-0.2-0.63c0.01-0.01,0.02-0.03,0.01-0.04c-0.01-0.03-0.03-0.05-0.04-0.08
			c-0.12-0.59-0.11-1.19-0.03-1.79c0.02-0.04,0.02-0.08,0.01-0.12c0-0.04-0.01-0.08,0-0.13c0.07-0.99,0-1.05-0.98-0.78
			c-0.29,0.08-0.36,0.2-0.35,0.53c0.06,2.24,0,4.49-0.34,6.71c-0.13,0.83-0.75,1.43-1.48,1.56c-0.78,0.13-1.23-0.13-1.41-0.89
			c-0.37-1.55-0.56-3.13-0.7-4.71c-0.21-2.38-0.37-4.77-0.54-7.16c-0.05-0.68-0.08-0.7-0.71-0.41c-1.4,0.66-2.78,1.34-4.19,1.97
			c-0.45,0.2-0.57,0.47-0.53,0.93c0.28,3.04,0.53,6.07,0.8,9.11c0.09,1,0.09,1.99-0.12,2.97c-0.06,0.29-0.06,0.69-0.46,0.76
			c-0.37,0.06-0.66-0.11-0.96-0.37c-1.77-1.57-2.45-3.65-2.81-5.89c-0.25-1.53-0.52-3.05-0.75-4.58c-0.08-0.56-0.26-0.64-0.77-0.39
			c-1.57,0.75-3.2,1.34-4.92,1.65c-0.25,0.05-0.51,0.09-0.75,0.08c-0.46-0.03-0.9-0.17-1.1-0.62c-0.21-0.45-0.05-0.86,0.23-1.25
			c0.45-0.61,1.05-1.04,1.64-1.49c1.42-1.07,2.91-2.04,4.42-2.98c0.05-0.04,0.1-0.08,0.16-0.11c0.07-0.06,0.15-0.12,0.22-0.18
			c0.21-0.21,0.15-0.47,0.13-0.72c-0.28-3.37-0.87-6.71-0.43-10.13c0.14-1.08,0.25-2.23-0.02-3.36c-0.1-0.42,0.03-0.94,0.53-1.19
			c0.13-0.07,0.34-0.12,0.25-0.38c-0.25-0.11-0.36,0.27-0.66,0.16c0.53-0.5,0.61-1.16,0.72-1.79c0.05-0.29,0.1-0.49,0.28-0.71
			c0.36-0.45,0.83-0.62,1.37-0.7c0.54,0.14,0.76,0.58,0.97,1.02c0.73,1.57,0.89,3.26,1.01,4.95c0.22,3.08,0.4,6.17,0.61,9.25
			c0.06,0.82,0.12,0.85,0.87,0.52c1.39-0.62,2.78-1.26,4.19-1.83c0.51-0.21,0.65-0.48,0.63-1c-0.07-3.11-0.17-6.22-0.13-9.33
			c0.01-0.81,0.08-1.6,0.27-2.39c0.38-1.6,1.9-2.09,3.25-1.16c1.06,0.73,1.32,1.73,1.4,2.88c0.2,2.81,0.06,5.62,0.01,8.44
			c0,0.06-0.01,0.13-0.01,0.19c-0.02,0.97,0,0.99,0.99,0.89c0.17-0.02,0.34-0.03,0.51-0.04c1.09-0.04,1.09-0.04,1.28-1.08
			c0.7-3.92,1.6-7.79,2.76-11.61c0.24-0.79,0.51-1.57,1.04-2.23c1.27-1.61,3.12-1.6,4.41,0c0.7,0.87,0.95,1.92,1.31,2.93
			c1.69,4.69,2.65,9.58,3.93,14.39c0.15,0.56,0.32,0.77,0.9,0.54c0.41-0.16,0.85-0.28,1.29-0.34c0.5-0.07,0.58-0.35,0.58-0.79
			c-0.08-5.7,0.28-11.38,1.06-17.02c0.14-1.03,0.37-2.04,0.75-3.01c0.53-1.39,1.71-1.59,2.7-0.49c1.13,1.26,1.5,2.74,1.37,4.4
			c-0.32,4.09-0.62,8.19-0.91,12.28c-0.26,3.57-0.51,7.14-0.75,10.7c-0.02,0.26-0.16,0.6,0.11,0.76c0.28,0.17,0.55-0.07,0.8-0.22
			c0.18-0.11,0.37-0.2,0.56-0.3c0.05-0.03,0.11-0.06,0.16-0.1c0.05-0.04,0.11-0.07,0.16-0.11c0.41-0.1,0.76-0.28,1-0.63
			c1.25-0.83,2.53-1.62,3.87-2.29c0.84-0.42,1.67-0.81,2.68-0.44c0.37,0.13,0.87-0.07,1.31-0.12c0.27-0.03,0.25-0.24,0.24-0.44
			c-0.03-1.21-0.08-2.41-0.08-3.62c0-0.44-0.09-0.58-0.54-0.38c-0.9,0.39-1.81,0.69-2.82,0.62c-1.05-0.08-1.39-0.67-0.86-1.58
			c0.23-0.4,0.57-0.68,0.96-0.9c0.94-0.53,1.88-1.07,2.83-1.56c0.36-0.19,0.53-0.4,0.54-0.82c0.06-2.73,0.39-5.44,0.76-8.15
			c0.02-0.18,0.15-0.4-0.03-0.54c-0.18-0.14-0.36,0.04-0.52,0.11c-0.84,0.35-1.62,0.82-2.5,1.07c-1.01,0.29-1.6,0.1-2.2-0.74
			c-0.91-1.26-0.9-1.52,0.32-2.48c1.67-1.32,3.5-2.38,5.41-3.29c0.32-0.06,0.62-0.17,0.87-0.39c0.02-0.02,0.04-0.03,0.07-0.03
			c0.45-0.11,0.89-0.24,1.25-0.55c0.09-0.03,0.17-0.07,0.26-0.1c0.35,0.02,0.65-0.16,0.97-0.27c2.6-0.94,5.26-1.67,7.99-2.16
			c2-0.36,4.01-0.49,6.04-0.37l0,0c0.29,0.26,0.65,0.07,0.98,0.15c0.66,0.16,0.8,0.49,0.47,1.06c-0.07,0.12-0.42,0.31-0.08,0.43
			c0.34,0.13,0.33,0.46,0.51,0.67c0.28,0.33-0.07,1.02-0.5,1.08c-0.79,0.11-1.59,0.23-2.39,0.29c-0.33,0.02-0.62,0.07-0.89,0.26
			c-0.26,0.04-0.51,0.07-0.77,0.11c-0.53,0-1.08-0.13-1.57,0.22c-0.08,0-0.17,0-0.25,0.01c-0.06-0.08-0.1-0.07-0.13,0.02
			c-0.02,0.03-0.05,0.05-0.08,0.05c-1.34,0.03-2.61,0.46-3.9,0.77c-1.6,0.39-3.16,0.93-4.71,1.48c-0.31,0.11-0.63,0.27-0.91-0.18
			c-0.04,0.63-0.08,1.16-0.11,1.69c0.13-0.1,0.17-0.21,0.22-0.32c0.06-0.15,0.04-0.38,0.27-0.37c0.2,0.01,0.23,0.22,0.3,0.37
			c0.14,0.28,0.1,0.63,0.3,0.89c0.01,0.12,0.03,0.24,0.04,0.37c-0.18,0.22-0.14,0.44-0.01,0.66c-0.03,0.31-0.05,0.62-0.08,0.94
			c-0.02,0.02-0.03,0.04-0.01,0.07c-0.25,1.76-0.51,3.51-0.75,5.27c-0.1,0.76-0.07,0.78,0.67,0.56c2.78-0.84,5.59-1.51,8.51-1.67
			c0.68-0.04,1.35-0.01,2.03,0.03c0.5,0.03,0.75,0.28,0.86,0.76c0.12,0.49-0.11,0.75-0.48,0.98c-0.68,0.42-1.44,0.59-2.2,0.77
			c-3.12,0.69-6.21,1.47-9.23,2.52c-0.47,0.16-0.61,0.41-0.64,0.86c-0.27,3.52-0.25,7.06-0.39,10.58c-0.02,0.57-0.08,1.14-0.12,1.71
			c-0.17,0.13-0.19,0.28-0.04,0.45c-0.03,0.11-0.05,0.23-0.08,0.34c-0.1,0.11-0.18,0.23-0.3,0.31c-0.41,0.28-0.97,0.41-1.33,0.19
			c-0.44-0.27-1.06-0.48-1.15-1.17c-0.01-0.06-0.16-0.11-0.25-0.16c-0.05-0.32-0.1-0.65-0.16-0.97c0.21-0.45,0.06-0.86-0.11-1.28
			c-0.03-0.34-0.05-0.68-0.08-1.01c-0.08-0.42-0.36-0.2-0.51-0.12c-1.89,0.99-3.86,1.83-5.67,2.99c-1.34,0.85-2.59,1.86-4.04,2.5
			c-1.55,0.69-2.47,0.81-3.48-0.88c-0.61-1.03-1-2.13-1.33-3.27c-0.02-0.25-0.04-0.5-0.06-0.75c0.14-0.27,0.1-0.53-0.04-0.79
			c0-0.16-0.01-0.32-0.01-0.49c0.09-0.14,0.09-0.27-0.01-0.4c-0.01-0.38-0.02-0.77-0.03-1.15c0-0.05,0-0.09-0.01-0.14
			c0-0.13,0-0.27,0-0.4c0.05-0.09,0.07-0.2-0.03-0.26c-0.1-0.06-0.18,0.01-0.25,0.09c-0.07,0.04-0.14,0.09-0.22,0.13
			c-1.36,0.65-1.37,0.65-0.95,2.11c0.94,3.27,1.89,6.55,2.83,9.82c0.04,0.14,0.06,0.31,0.14,0.42c1.49,2.09,1.98,4.56,2.67,6.96
			c0.76,2.64,1.52,5.29,2.26,7.94c0.14,0.49,0.3,0.66,0.83,0.46c0.65-0.25,1.33-0.42,2.01-0.59c0.35-0.09,0.49-0.23,0.45-0.61
			c-0.3-2.69-0.6-5.39-0.88-8.08c-0.05-0.47-0.27-0.52-0.68-0.47c-1.32,0.14-2.08-0.34-2.18-1.62c-0.05-0.66,0.06-1.42,0.71-1.99
			c2.74-2.38,5.96-3.38,9.52-3.43c2.31-0.03,4.57,0.23,6.7,1.2c1.29,0.59,2.47,1.34,3.06,2.72c0.56,1.32,0.31,2.62-0.16,3.9
			c-0.58,1.58-1.65,2.82-2.75,4.07c-1.87,2.13-3.96,4.01-6.22,5.71c-0.57,0.43-0.58,0.57,0.01,0.89c3.92,2.13,7.25,5.05,10.67,7.86
			c1.73,1.42,3.47,2.82,5.21,4.23c0.44,0.36,0.86,0.76,1.2,1.22c0.44,0.57,0.5,1.26,0.17,1.71c-0.34,0.46-0.88,0.58-1.61,0.32
			c-1.97-0.69-3.57-1.99-5.2-3.22c-1.64-1.23-3.22-2.53-4.82-3.8c-0.09-0.27-0.29-0.4-0.55-0.45c-0.64-0.48-1.29-0.97-1.93-1.45
			c-0.05-0.04-0.11-0.08-0.16-0.12c-0.05-0.03-0.1-0.07-0.14-0.1c-0.05-0.04-0.11-0.08-0.16-0.11c-1.61-1.09-3.21-2.19-4.82-3.28
			c-0.06-0.03-0.11-0.06-0.17-0.1c-0.27-0.15-0.53-0.3-0.8-0.45c-0.05-0.05-0.1-0.05-0.14,0.02c-0.02,0.14-0.03,0.28-0.05,0.43
			c-0.09,0.31-0.07,0.6,0.08,0.89c0.01,0.21,0.03,0.42,0.04,0.63c-0.07,0.18-0.05,0.35,0.05,0.51c0.01,0.08,0.02,0.17,0.03,0.25
			c0,0.04,0.01,0.09,0.01,0.13c0.01,0.08,0.02,0.16,0.03,0.24c0,0.05,0.01,0.09,0.01,0.14c0.02,0.24,0.04,0.49,0.06,0.73
			c-0.14,0.49-0.04,0.95,0.17,1.4c0.03,0.25,0.06,0.5,0.09,0.76c-0.09,0.06-0.08,0.11,0.02,0.14c0.07,0.38,0.17,0.76,0.1,1.15
			c-0.01,0.01-0.03,0.02-0.03,0.03c0,0.03,0.02,0.06,0.03,0.08c0.01,0.17,0.01,0.33,0.02,0.5c-0.26,0.21-0.2,0.54-0.31,0.81
			c-0.27,0.61-0.86,0.7-1.27,0.17c-0.23-0.29-0.38-0.6-0.45-0.96c-0.39-2.12-0.85-4.23-1.06-6.38c-0.08-0.84-0.26-1.65-0.61-2.44
			c-0.06,0.62-0.15,1.26-0.05,1.86c0.21,1.22,0.31,2.46,0.68,3.64c0.11,0.34,0,0.67,0.04,1.01c0.02,0.18-0.14,0.09-0.23,0.07
			c-0.71-1.9-0.8-3.9-0.93-5.89c-0.02-0.25-0.01-0.5-0.02-0.76c0-0.07,0-0.14,0-0.2c-0.01-0.19-0.02-0.37-0.03-0.56
			c0-0.02,0.01-0.03,0.01-0.05c-0.01-0.03-0.03-0.06-0.04-0.08c-0.08,0-0.16-0.01-0.24-0.01c-0.15-0.06-0.29-0.05-0.38,0.1
			c-0.17,0.06-0.34,0.12-0.51,0.19c0,0-0.06,0.02-0.06,0.02c-0.08,0.03-0.15,0.06-0.23,0.08c-0.06,0.02-0.12,0.05-0.17,0.07
			c-0.02,0.02-0.04,0.03-0.06,0.03c0,0-0.02,0.01-0.02,0.01c-0.09,0.05-0.19,0.09-0.28,0.14c-0.24-0.18-0.36-0.11-0.37,0.18
			c-0.05,0.33,0.15,0.6,0.18,0.91c-0.02,0.15,0.03,0.28,0.14,0.39c0.07,0.21,0.14,0.41,0.21,0.62c-0.06,0.11-0.03,0.2,0.08,0.25
			c0.04,0.12,0.08,0.24,0.13,0.36c-0.08,0.17-0.02,0.29,0.13,0.37c0.03,0.08,0.06,0.16,0.09,0.24c-0.07,0.39,0.08,0.71,0.35,0.98
			c0.03,0.08,0.06,0.16,0.1,0.23c-0.07,0.17-0.02,0.33,0.03,0.49c0.24,0.74,0.4,1.52,0.72,2.23c0.57,1.24,0.79,2.62,1.57,3.79
			c0.25,0.38,0.32,0.94-0.13,1.33c-0.36,0.32-0.74,0.49-1.2,0.18c-0.32-0.22-0.6-0.52-0.85-0.78c-0.2-0.21-0.56-0.58-0.47-0.92
			c0.19-0.67-0.27-1.11-0.62-1.36c-0.48-0.34-0.62-0.76-0.76-1.24c0,0,0,0,0,0c-0.19-0.44-0.32-0.91-0.58-1.3
			c-0.41-0.62-0.44-1.44-1.05-1.95c-0.04-0.11-0.08-0.23-0.12-0.34c0.11-0.05,0.2-0.15,0.12-0.24c-0.26-0.31-0.34-0.72-0.66-0.99
			c-0.04-0.09-0.08-0.19-0.12-0.28c0,0-0.02-0.04-0.02-0.04c-0.04-0.09-0.08-0.19-0.12-0.28c0.06-0.26-0.07-0.44-0.25-0.6
			l-0.01-0.04c0,0-0.02-0.04-0.02-0.04c-0.06-0.15-0.13-0.3-0.19-0.44c0-0.04-0.02-0.07-0.06-0.08c-0.11,0.01-0.23,0.01-0.34,0.02
			c-0.04,0.02-0.08,0.04-0.12,0.06c-0.02,0.02-0.05,0.04-0.08,0.04c-0.06,0.03-0.11,0.06-0.17,0.09c0,0-0.04,0.02-0.04,0.02
			c0,0-0.04,0.01-0.04,0.01c-0.09,0.05-0.18,0.09-0.28,0.14c-0.16-0.01-0.28,0.04-0.36,0.19c0,0-0.05,0.02-0.05,0.02
			c0,0-0.03,0-0.03,0l-0.02,0.03c-0.09,0.05-0.17,0.09-0.26,0.14c-0.17-0.02-0.3,0.05-0.37,0.21c-0.09,0.05-0.18,0.1-0.27,0.15
			c-0.19,0-0.35,0.06-0.45,0.23c-0.05,0.05-0.11,0.1-0.17,0.15c0,0,0,0,0,0c-0.08,0.02-0.15,0.04-0.23,0.07
			c-0.07,0.04-0.13,0.09-0.2,0.13c-0.93,0.53-1.86,1.06-2.8,1.59c-0.13,0-0.21,0.06-0.28,0.17c-0.07,0.04-0.14,0.08-0.21,0.12
			c-0.04,0.02-0.08,0.04-0.12,0.06c-0.11,0.14-0.23,0.28-0.34,0.43c-0.13,0.18-0.16,0.38-0.1,0.6c-0.01,0.06-0.01,0.13-0.02,0.19
			c-0.17,0.42-0.23,0.85-0.12,1.29c-0.01,0.08-0.02,0.17-0.03,0.25c-0.2,0.51-0.27,1.04-0.2,1.58c0,0.08-0.01,0.16-0.01,0.25
			c-0.28,0.34-0.22,0.76-0.27,1.15c-0.14,1.09-0.16,2.2-0.42,3.27c-0.11,0.47-0.31,0.94-0.92,0.99c-0.63,0.04-1.05-0.21-1.23-0.85
			c-0.06-0.2-0.07-0.45-0.44-0.41c-0.52,0.06-0.71-0.25-0.77-0.76c-0.08-0.59,0.1-1.2-0.07-1.95c-0.38,0.77-0.3,1.42-0.26,2.06
			c0.03,0.47,0.07,0.96,0.71,1.02c0.13,0.01,0.1,0.16,0.09,0.27c-0.6,0.3-0.95,0.15-1.08-0.52c-0.19-0.97-0.14-1.94,0.01-2.9
			c0.14-0.92,0.3-1.84,0.48-2.75c0.08-0.4-0.01-0.51-0.41-0.36c-0.67,0.25-1.16,0.6-1.35,1.36c-0.18,0.71-0.49,1.4-0.78,2.08
			c-1.02,2.4-4.05,4.04-6.61,3.56c-1.47-0.27-2.52-1.24-3.5-2.28c-2.19-2.33-3.55-5.08-4.09-8.23c-0.02-0.12-0.02-0.27-0.1-0.36
			c-0.13-0.17,0.07-0.65-0.36-0.5c-0.32,0.11-0.76,0.24-0.56,0.8c0.19,0.52,0.25,1.07,0.24,1.62c0,0.07-0.01,0.13-0.01,0.2
			c-0.01,0.11-0.01,0.22-0.02,0.33c-0.06,0.14-0.08,0.28-0.02,0.42c0.01,0.03,0,0.06-0.01,0.09c0,0.05-0.01,0.09-0.01,0.14
			c-0.01,0.08-0.03,0.16-0.04,0.24c-0.21,0.49-0.36,1-0.4,1.54c-0.03,0.08-0.06,0.15-0.1,0.23c-0.02,0.07-0.05,0.14-0.07,0.21
			c0,0.02-0.01,0.04-0.02,0.06c-0.14,0.11-0.2,0.26-0.19,0.44c-0.04,0.08-0.07,0.16-0.11,0.25c-0.03,0.06-0.05,0.12-0.08,0.17
			c0,0.04-0.02,0.07-0.04,0.1c-0.28,0.45-0.04,0.81,0.23,1.15c0.04,0.12,0.08,0.23,0.13,0.35c-0.05,0.2-0.02,0.38,0.17,0.5
			c0.02,0.08,0.05,0.16,0.07,0.24c-0.09,0.46,0.19,0.85,0.22,1.29c0.02,0.25-0.06,0.45-0.26,0.6c-0.13,0.1-0.29,0.14-0.4,0.01
			c-0.28-0.34-0.43-0.94-1.06-0.45c-0.17-0.45-0.66,0.18-0.84-0.25c-0.03,0.02-0.09,0.04-0.1,0.07c-0.12,0.68-0.64,0.41-1.03,0.43
			c-0.71,0.97-1.52,1.88-2.25,2.83c-0.65,0.86-1.41,1.16-2.39,1.39c-1.95,0.45-3.79,0.27-5.57-0.55c-2.1-0.97-3.84-2.39-5.21-4.25
			c-2.27-3.08-3.67-6.47-3.7-10.34c-0.02-2.77,0.53-5.41,1.77-7.91c1.13-2.27,2.6-4.32,4.45-6.04c2.8-2.61,6.18-3.35,9.9-2.72
			c0.51,0.09,0.95,0.37,1.34,0.7c1.51,1.28,2.48,2.81,2.24,4.9c-0.08,0.65-0.24,1.26-0.74,1.7c-0.31,0.27-0.24,0.49,0,0.74
			c0.29,0.31,0.58,0.62,0.85,0.94c0.17,0.21,0.28,0.47,0.04,0.68c-0.24,0.22-0.43-0.02-0.59-0.18c-0.22-0.23-0.42-0.48-0.62-0.72
			c-0.3-0.36-0.65-0.57-1.15-0.55c-0.97,0.04-1.65-0.44-2.07-1.3c-0.03-0.06-0.05-0.11-0.08-0.17c-0.7-1.44-1.38-1.72-2.95-1.25
			c-2.35,0.71-3.87,2.37-5,4.43c-1.46,2.66-2.02,5.55-1.89,8.57c0.04,0.87,0.23,1.73,0.57,2.53c0.9,2.09,1.95,4.1,3.85,5.49
			c0.73,0.53,1.54,0.87,2.43,1.05c1.36,0.28,2.47-0.17,3.36-1.17c0.68-0.76,1.19-1.65,1.57-2.59c0.13-0.32,0.24-0.66,0.07-0.98
			c-0.67-1.2-1.48-2.31-2.53-3.21c-0.25-0.21-0.49-0.04-0.71,0.05c-1.13,0.49-2.22,1.06-3.4,1.39c-0.51,0.14-1.02,0.29-1.55,0.32
			c-0.51,0.03-0.98-0.09-1.24-0.59c-0.25-0.48-0.2-0.93,0.1-1.38c0.9-1.35,2.16-2.32,3.43-3.27c2.63-1.99,5.7-2.82,8.9-3.25
			c0.78-0.1,1.51,0.12,2.25,0.28c0.35,0.08,0.48,0,0.41-0.36c-0.68-3.18-0.82-6.47-2.04-9.54c-0.37-0.93-0.15-1.84,0.5-2.61
			c0.22-0.26,0.55-0.36,0.86-0.34c1.08,0.07,2.15,0.24,3.07,0.85c0.78,0.51,1.2,1.29,1.42,2.18c0.49,1.99,0.55,4.02,0.71,6.05
			c0.3,3.93,0.64,7.85,1.81,11.65c0.26,0.83,0.6,1.63,1.08,2.36c0.77,1.15,1.66,1.22,2.58,0.21c0.26-0.28,0.48-0.59,0.69-0.9
			c0.22-0.32,0.36-0.63,0.07-1.04c-0.26-0.38-0.13-0.77,0.22-1.07c0.38-0.33,0.82-0.6,1.05-1.08c0.96-0.29,0.95-0.29,0.76-1.27
			c-0.03-0.16-0.01-0.34,0-0.5c0.02-0.99,0.16-1.97,0.14-2.97c-0.02-0.92-0.19-1.85,0.04-2.78c0.04-0.17-0.02-0.34-0.11-0.48
			c-0.17-0.26-0.17-0.55-0.19-0.85C42.75,60.08,42.67,58.85,42.29,57.68z M40.28,42.69c0,0.01-0.01,0.03-0.01,0.04
			C40.27,42.71,40.28,42.7,40.28,42.69L40.28,42.69z M71.17,65.29c0.18,0.36,0.48,0.56,0.87,0.64c0.3,0.4,0.75,0.6,1.15,0.87
			c0.74,0.5,1.43,1.1,2.27,1.46c0.28,0.42,0.64,0.74,1.15,0.86c0.32,0.5,0.79,0.81,1.33,1.02c-0.34-0.47-0.77-0.82-1.31-1.04
			c-0.26-0.46-0.61-0.78-1.16-0.85c-0.05-0.22-0.18-0.37-0.36-0.5c-0.77-0.54-1.54-1.07-2.31-1.61c-0.23-0.16-0.48-0.24-0.77-0.2
			C71.92,65.48,71.52,65.42,71.17,65.29c-0.12-0.33-0.36-0.36-0.78-0.31C70.69,65.26,70.93,65.29,71.17,65.29z M14.09,54.84
			c0.62,0.12,0.62,0.12,0.52-0.42C14.36,54.47,14.19,54.61,14.09,54.84L14.09,54.84z M41.71,73.57c-0.84,0.42-0.92,1.58-1.88,1.88
			C41.02,75.37,41.35,74.45,41.71,73.57L41.71,73.57z M16.49,38.18c1.69-0.78,3.12-1.96,4.69-2.92c-0.12-0.09-0.22-0.11-0.28-0.07
			c-1.55,0.89-3.11,1.76-4.45,2.97l0,0.04L16.49,38.18z M68.83,60.11c0.09-0.04,0.16-0.05,0.2-0.09c2.15-2.16,4.38-4.25,6.27-6.65
			c0.64-0.82,1.29-1.63,1.6-2.65c0.12-0.39,0.22-0.76,0.13-1.18c-0.27-1.16-1.02-1.79-2.32-2.01c-1.79-0.3-3.54,0.02-5.3,0.29
			c-0.63,0.1-0.83,0.37-0.82,1c0.05,3.24,0.06,6.48,0.1,9.72C68.69,59.05,68.67,59.58,68.83,60.11z M45.09,20.62
			c-0.12,0.27-0.18,0.36-0.21,0.46c-1.06,3.82-1.6,7.74-2.08,11.67c-0.05,0.45,0.13,0.47,0.51,0.39c1.61-0.36,3.23-0.69,4.85-1.01
			c0.47-0.09,0.54-0.3,0.41-0.71c-0.73-2.28-1.44-4.57-2.17-6.85C46,23.31,45.57,22.06,45.09,20.62z M54.87,52.88
			c-0.28,0.32-0.3,0.63-0.34,0.91c-0.2,1.27-0.4,2.55-0.58,3.82c-0.31,2.24-0.6,4.48-0.9,6.72c-0.06,0.49-0.01,0.66,0.55,0.39
			c1.42-0.7,2.87-1.35,4.32-1.98c0.48-0.21,0.65-0.39,0.42-0.93c-0.35-0.81-0.61-1.66-0.92-2.5C56.64,57.17,55.81,55.05,54.87,52.88
			z M38.53,31.02c-0.33-0.01-0.46,0.17-0.64,0.21c-1.59,0.38-1.92,1.44-1.75,2.92c0.12,1.07,0.03,1.09,1.05,0.78
			c0.31-0.09,0.72-0.06,0.79-0.51C38.17,33.31,38.34,32.19,38.53,31.02z M66.93,59.39c0.26-0.92-0.5-10.76-0.81-11.1
			C66.35,52,66.45,55.71,66.93,59.39z M42.97,73.14c-0.18,0.32-0.37,0.64-0.53,0.97c-0.34,0.68-0.72,1.34-1.23,1.92
			c-0.36,0.41-0.87,0.59-1.37,0.76c-0.33,0.12-0.48,0.45-0.44,0.7c0.06,0.31,0.43,0.14,0.66,0.15c0.26,0.01,0.46-0.17,0.68-0.31
			c0.58-0.39,0.88-0.99,1.19-1.58C42.37,74.93,42.92,74.15,42.97,73.14z M68.42,72.99c-0.33-2.67-0.89-5.3-1.19-7.98
			C67.11,67.75,67.78,70.36,68.42,72.99z M58.11,21.87c-0.43,2.17-0.56,4.37-0.54,6.59C57.72,26.26,58.11,24.08,58.11,21.87z
			 M25.7,65.33c-1.75,0.34-3.47,0.75-4.93,1.85C22.35,66.39,24.07,65.98,25.7,65.33z M21.52,37.49c-1.47,0.38-2.75,1.18-4.08,1.87
			C18.85,38.86,20.28,38.37,21.52,37.49z M23.76,67.32c-1.41,0.3-2.53,0.82-3.53,1.6C20.46,68.96,23.5,67.58,23.76,67.32z
			 M74.72,15.12c-0.53,0.91-1.21,4.33-1.05,5.09C73.96,18.5,74.4,16.82,74.72,15.12z M70.69,61.38c0.06,0.07,0.13,0.14,0.19,0.21
			c0.82-0.74,1.64-1.48,2.46-2.22c-0.04-0.04-0.07-0.09-0.11-0.13C72.34,59.92,71.37,60.47,70.69,61.38z M23.88,69.35
			c0.14,0.23,0.38,0.32,0.6,0.43c0.2,0.1,0.42,0.31,0.63,0.18c0.24-0.16,0.1-0.46,0.09-0.7c0-0.33-0.15-0.47-0.48-0.32
			C24.44,69.07,24.11,69.11,23.88,69.35z M72.27,23.7c0.31-1.33,0.54-2.67,0.54-4.04C72.46,20.99,72.27,22.33,72.27,23.7z
			 M40.5,41.79c0.52-0.94,0.82-2.51,0.67-3.37C40.99,39.59,40.53,40.64,40.5,41.79z M41.74,30.35c-0.23,0.92-0.37,1.84-0.32,2.79
			C41.7,32.22,41.59,31.27,41.74,30.35z M39.65,42.32c0.06,0.01,0.11,0.02,0.17,0.03c0.27-0.66,0.24-1.37,0.31-2.07
			c-0.06-0.01-0.11-0.02-0.17-0.03C39.85,40.94,39.75,41.63,39.65,42.32z M21.57,69.4c-0.67-0.01-0.86,0.08-1.12,0.51
			C20.91,69.9,21.21,69.58,21.57,69.4z M38.17,76.67c0.09,0.25,0.21,0.42,0.44,0.45c0.17,0.02,0.41,0.2,0.5-0.05
			c0.12-0.33-0.23-0.19-0.36-0.27C38.61,76.71,38.43,76.59,38.17,76.67z M40.21,39.69c0.05-0.37,0.1-0.75,0.15-1.12
			C40.13,38.93,40,39.29,40.21,39.69z M16.02,55.08c-0.22,0.1-0.49,0.1-0.7,0.4C15.73,55.53,15.94,55.43,16.02,55.08z M16.5,54.88
			c0.23-0.07,0.47-0.14,0.86-0.26C16.92,54.54,16.67,54.57,16.5,54.88z M15.14,54.15c0.09-0.02,0.11-0.08,0.07-0.14
			c-0.01-0.02-0.07-0.04-0.11-0.03c-0.07,0.02-0.11,0.07-0.07,0.14C15.06,54.15,15.12,54.15,15.14,54.15z M15.74,53.73
			c0-0.01,0.01-0.03,0.01-0.04c-0.01,0-0.03-0.02-0.04-0.01c-0.01,0.01-0.01,0.03-0.01,0.04C15.71,53.72,15.73,53.73,15.74,53.73z"
			/>
		<path class="st1" d="M82.85,53.13c-0.01-0.3-0.03-0.6-0.04-0.9c0.07-0.13,0.06-0.26-0.03-0.38c-0.1-1.58-0.2-3.16-0.29-4.74
			c-0.03-0.49-0.11-0.96-0.29-1.42c-0.03-0.12-0.05-0.25-0.09-0.37c-0.66-1.64,0.04-3.22,1.65-3.93c0.95-0.43,1.95-0.54,2.95-0.67
			c2.58-0.34,5.1-0.04,7.58,0.71c0.72,0.22,1.37,0.67,2.14,0.73c0.06,0.03,0.12,0.06,0.18,0.09c0.1,0.18,0.26,0.26,0.47,0.25
			c0.08,0.04,0.16,0.09,0.24,0.13c0.09,0.19,0.23,0.29,0.45,0.29c0.18,0.12,0.36,0.23,0.55,0.35c0.08,0.18,0.21,0.28,0.41,0.3
			c0.36,0.28,0.71,0.56,1.07,0.84c0.02,0.13,0.1,0.22,0.23,0.25c0.04,0.01,0.06,0.04,0.08,0.07c0.16,0.38,0.43,0.66,0.81,0.82
			c0.04,0.02,0.07,0.05,0.09,0.09c0.32,0.62,0.69,1.19,1.25,1.62c0.03,0.02,0.05,0.05,0.05,0.08c0.55,1.23,1.16,2.43,1.4,3.79
			c0.35,2.06,0.23,4.03-0.74,5.91c0,0,0,0,0,0c-0.11,0.4-0.26,0.78-0.39,1.17c-0.16,0.46-0.27,0.98-0.6,1.39
			c-1.01,1.25-1.81,2.65-2.98,3.79c-0.39,0.38-0.96,0.51-1.24,0.96c-0.56,0.91-1.49,1.43-2.26,2.09c-0.74,0.63-1.54,1.24-2.42,1.72
			c-1.31,0.72-2.68,1.32-4.04,1.94c-0.17,0.08-0.39,0.19-0.54,0.14c-0.5-0.15-0.72,0.11-0.97,0.46c-0.23,0.32-0.52,0.66-0.99,0.51
			c-0.75-0.24-1.23-1.29-0.97-2.06c0.04-0.12,0.11-0.24,0.05-0.36c-0.18-0.35-0.61-0.75-0.27-1.08c0.56-0.54-0.42-0.64-0.19-1.02
			c0.02-0.03,0.01-0.08,0.01-0.13c-0.11-0.55-0.19-1.1-0.33-1.64c-0.14-0.52-0.53-1.01-0.1-1.58c0.09-0.12,0.06-0.31-0.04-0.48
			c-0.15-0.28-0.25-0.58-0.38-0.86c-0.1-0.22-0.12-0.41,0.17-0.5c0,0,0.02-0.02,0.02-0.02c-0.19-0.52-0.11-1.15-0.67-1.52
			c-0.07-0.05-0.09-0.19-0.13-0.28l0,0c0.57-0.55-0.23-0.95-0.2-1.46c0.01-0.1-0.21-0.43-0.28-0.69c-0.2-0.78,0.09-1.61-0.29-2.37
			c-0.01-0.34-0.02-0.68-0.03-1.02c0-0.07-0.01-0.14-0.01-0.2c0-0.15-0.01-0.29-0.01-0.44C82.94,53.38,82.93,53.26,82.85,53.13z
			 M98.88,53.1c-0.41-2.72-1.62-4.47-3.57-5.68c-2.38-1.49-5.05-2-7.82-2.14c-0.48-0.02-0.6,0.19-0.52,0.61
			c0.44,2.24,0.27,4.51,0.22,6.77c-0.11,4.87,0.03,9.73,0.25,14.6c0.02,0.44,0.06,0.64,0.56,0.32c1.8-1.16,3.51-2.44,5.13-3.84
			c1.79-1.55,3.28-3.37,4.42-5.44C98.52,56.55,99.1,54.71,98.88,53.1z M85.86,55.02c0.45-1.26,0.34-7.74-0.1-8.31
			C85.8,49.57,85.83,52.3,85.86,55.02z M84.38,50.37c0.44-0.45,0.69-4.07,0.3-4.68C84.39,47.27,84.47,48.8,84.38,50.37z
			 M96.19,44.83c-0.33,0-0.55,0.13-0.53,0.47c0,0.09,0.07,0.17,0.16,0.17C96.25,45.45,96,45.01,96.19,44.83z M84.1,59.9
			c0.23,0.08,0.38,0.08,0.54-0.08C84.45,59.72,84.29,59.69,84.1,59.9z M84.66,51.25c-0.03-0.15-0.09-0.19-0.15-0.16
			c-0.04,0.03-0.08,0.09-0.08,0.14c0,0.07,0.06,0.1,0.13,0.08C84.61,51.29,84.65,51.25,84.66,51.25z M87.81,69.45l-0.04,0.02
			l0.04,0.02L87.81,69.45z"/>
		<path class="st1" d="M83.69,59.68c0.04,0.1,0.06,0.23,0.13,0.28c0.55,0.37,0.47,1,0.67,1.52l-0.02,0.02
			c-0.29,0.09-0.27,0.28-0.17,0.5c0.13,0.29,0.23,0.59,0.38,0.86c0.09,0.17,0.13,0.36,0.04,0.48c-0.43,0.57-0.04,1.05,0.1,1.58
			c0.14,0.54,0.22,1.09,0.33,1.64c0.01,0.04,0.01,0.09-0.01,0.13c-0.23,0.38,0.75,0.49,0.19,1.02c-0.34,0.33,0.09,0.73,0.27,1.08
			c0.06,0.12,0,0.24-0.05,0.36c-0.26,0.76,0.22,1.81,0.97,2.06c0.47,0.15,0.77-0.19,0.99-0.51c0.25-0.36,0.48-0.62,0.97-0.46
			c0.15,0.05,0.37-0.07,0.54-0.14c1.36-0.62,2.73-1.22,4.04-1.94c0.88-0.48,1.67-1.09,2.42-1.72c0.77-0.66,1.7-1.17,2.26-2.09
			c0.28-0.45,0.85-0.58,1.24-0.96c1.16-1.13,1.97-2.54,2.98-3.79c0.33-0.41,0.44-0.92,0.6-1.39c0.13-0.38,0.28-0.77,0.39-1.17l0,0
			c0.97-1.88,1.09-3.86,0.74-5.91c-0.23-1.36-0.84-2.56-1.4-3.79c0.78,0.94,1.28,2.03,1.57,3.21c0.87,3.59-0.1,6.79-2.07,9.8
			c-2.03,3.11-4.74,5.52-7.81,7.55c-1.63,1.08-3.35,1.98-5.15,2.72c-0.6,0.24-1.18,0.42-1.68,0.91c-0.71,0.71-1.69,0.27-2.21-0.69
			c-0.76-1.4-0.7-2.92-0.88-4.42c-0.1-0.88-0.29-1.75-0.44-2.62c-0.01-0.08-0.08-0.17-0.06-0.23c0.31-0.95-0.15-1.86-0.21-2.79
			c-0.07-1.06-0.27-2.13-0.38-3.2c-0.08-0.8-0.09-1.6-0.05-2.41c0.38,0.75,0.09,1.59,0.29,2.37c0.07,0.26,0.28,0.59,0.28,0.69
			C83.46,58.74,84.26,59.14,83.69,59.68c-0.02-0.03-0.05-0.06-0.07-0.09c-0.01,0.02-0.03,0.04-0.04,0.06
			C83.62,59.66,83.66,59.67,83.69,59.68z"/>
		<path class="st1" d="M26.32,78.22c0.39-0.03,0.91,0.24,1.03-0.43c0-0.03,0.06-0.04,0.1-0.07c0.18,0.43,0.67-0.2,0.84,0.25
			c0.63-0.48,0.78,0.11,1.06,0.45c0.1,0.13,0.26,0.09,0.4-0.01c0.2-0.15,0.28-0.35,0.26-0.6c-0.03-0.44-0.31-0.83-0.22-1.29
			c0.56,1.48,0.82,3,0.74,4.59c-0.04,0.83-0.08,1.66-0.23,2.48c-0.06,0.32,0.06,0.72,0.07,1.09c0.01,0.22,0,0.38-0.11,0.58
			c-0.07,0.13-0.36,0.49,0.17,0.47c0.09,0,0.09,0.11,0.05,0.13c-0.27,0.13-0.12,0.55-0.44,0.65l0.01,0.01
			c-0.03-0.51-0.23-0.68-0.76-0.48c-0.57,0.22-0.85-0.09-0.83-0.66c0.02-0.51-0.43-0.54-0.83-0.58c0.18-0.24,0.46-0.15,0.68-0.23
			c1.1-0.32,0.74,0.66,0.94,1.14c0.13-0.12,0.23-0.21,0.33-0.3c0.29,0.18,0.28-0.07,0.32-0.24c0.07-0.2,0.14-0.41-0.07-0.57
			l0.03,0.02l-0.02,0.03c-0.04-0.07-0.06-0.16-0.12-0.2c-0.1-0.06-0.36,0.1-0.28-0.17c0.06-0.2,0.26-0.17,0.42-0.05
			c0.08,0.06,0.16,0.14,0.24,0.21c0.02,0.1-0.03,0.22,0.09,0.28c0.01,0.01,0.07-0.03,0.08-0.06c0.03-0.14-0.07-0.18-0.17-0.21
			c-0.01-0.28,0.03-0.83-0.34-0.63c-0.48,0.25-1.11,0.25-1.45,0.76c-0.06-0.16-0.4-0.22-0.17-0.5c0.08-0.09,0.03-0.26-0.11-0.32
			c-0.53-0.21-0.55-0.7-0.64-1.14c-0.23-1.12-0.43-2.24-0.67-3.36C26.66,78.89,26.63,78.49,26.32,78.22z M28.22,83.55
			c0.04-0.31-0.12-0.41-0.27-0.51C28.01,83.19,27.95,83.4,28.22,83.55z M28.71,85.28c-0.08-0.05-0.12-0.09-0.17-0.1
			c-0.08-0.03-0.12,0.05-0.1,0.1c0.01,0.04,0.07,0.1,0.11,0.11C28.59,85.39,28.63,85.33,28.71,85.28z"/>
		<path class="st1" d="M87.26,10.24c0.27-0.18,0.56-0.23,0.89-0.26c0.8-0.05,1.59-0.17,2.39-0.29c0.44-0.06,0.78-0.75,0.5-1.08
			c-0.18-0.21-0.16-0.54-0.51-0.67c-0.34-0.12,0.01-0.32,0.08-0.43c0.34-0.57,0.2-0.89-0.47-1.06c-0.32-0.08-0.69,0.11-0.98-0.15
			c0,0,0,0,0,0c-2.03-0.12-4.04,0.01-6.04,0.37c-2.73,0.49-5.38,1.22-7.99,2.16c-0.31,0.11-0.61,0.29-0.97,0.27
			c1.54-0.76,3.19-1.25,4.84-1.68c2.87-0.76,5.77-1.34,8.74-1.52c1.29-0.08,2.58-0.09,3.85,0.18c0.74,0.16,1.46,1.35,1.17,2.17
			c-0.49,1.38-0.06,1.39-1.67,1.66C89.83,10.14,88.55,10.2,87.26,10.24z"/>
		<path class="st1" d="M23.3,15.31c-0.54,0.08-1.01,0.25-1.37,0.7c-0.18,0.22-0.23,0.43-0.28,0.71c-0.1,0.63-0.19,1.3-0.72,1.79
			c0.3,0.11,0.42-0.28,0.66-0.16c0.09,0.25-0.12,0.31-0.25,0.38c-0.5,0.26-0.63,0.78-0.53,1.19c0.27,1.13,0.16,2.28,0.02,3.36
			c-0.44,3.42,0.15,6.76,0.43,10.13c0.02,0.25,0.08,0.51-0.13,0.72c-0.61-4.64-0.86-9.31-0.79-13.99c0.02-1.19,0.06-2.4,0.6-3.53
			C21.49,15.49,22.15,15.09,23.3,15.31z"/>
		<path class="st1" d="M61.16,68.7c0.61,0.51,0.64,1.32,1.05,1.95c0.26,0.39,0.39,0.86,0.58,1.3l0,0c0.14,0.48,0.27,0.9,0.76,1.24
			c0.35,0.25,0.8,0.69,0.62,1.36c-0.1,0.35,0.27,0.71,0.47,0.92c0.25,0.26,0.52,0.56,0.85,0.78c0.46,0.31,0.85,0.14,1.2-0.18
			c0.45-0.4,0.39-0.96,0.13-1.33c-0.78-1.17-1-2.55-1.57-3.79c-0.32-0.7-0.48-1.48-0.72-2.23c-0.05-0.16-0.1-0.32-0.03-0.49
			c0.44,0.8,0.65,1.69,0.99,2.53c0.5,1.25,1.02,2.5,1.52,3.75c0.07,0.18,0.14,0.35,0.19,0.54c0.19,0.72-0.15,1.52-0.73,1.79
			c-0.57,0.26-1.5-0.07-1.87-0.67c-0.98-1.59-1.71-3.29-2.44-5C61.8,70.34,61.39,69.56,61.16,68.7z"/>
		<path class="st1" d="M66.43,70.6c0.09,0.02,0.25,0.11,0.23-0.07c-0.04-0.34,0.07-0.67-0.04-1.01c-0.37-1.19-0.47-2.43-0.68-3.64
			c-0.11-0.6-0.01-1.24,0.05-1.86c0.35,0.79,0.53,1.61,0.61,2.44c0.2,2.15,0.66,4.26,1.06,6.38c0.07,0.37,0.22,0.68,0.45,0.96
			c0.41,0.52,1.01,0.44,1.27-0.17c0.12-0.27,0.05-0.6,0.31-0.81c0.07,0.25,0.01,0.5-0.04,0.75c-0.1,0.51-0.29,0.91-0.9,0.98
			c-0.62,0.07-1.12-0.09-1.36-0.68C66.98,72.82,66.57,71.75,66.43,70.6z"/>
		<path class="st1" d="M55.57,37.31c0.33,1.14,0.72,2.24,1.33,3.27c1.01,1.7,1.93,1.57,3.48,0.88c1.45-0.65,2.71-1.65,4.04-2.5
			c1.81-1.15,3.77-2,5.67-2.99c0.15-0.08,0.43-0.3,0.51,0.12c-0.78,0.09-1.42,0.51-2.1,0.84c-2.54,1.21-4.88,2.77-7.27,4.25
			c-0.43,0.27-0.87,0.53-1.32,0.75c-1.03,0.5-1.9,0.35-2.72-0.43C55.99,40.35,55.53,38.93,55.57,37.31z"/>
		<path class="st1" d="M96.43,42.17c-0.77-0.07-1.41-0.51-2.14-0.73c-2.49-0.75-5-1.06-7.58-0.71c-1,0.13-2,0.25-2.95,0.67
			c-1.61,0.72-2.31,2.3-1.65,3.93c0.05,0.12,0.06,0.25,0.09,0.37c-0.59-0.22-0.74-0.76-0.78-1.26c-0.11-1.55,0.15-2.48,1.75-3.15
			c2.59-1.08,5.27-1.04,7.97-0.74c1.54,0.17,3.02,0.6,4.45,1.18C95.89,41.84,96.19,41.94,96.43,42.17z"/>
		<path class="st1" d="M42.29,57.68c0.39,1.17,0.46,2.4,0.57,3.62c0.03,0.3,0.02,0.59,0.19,0.85c0.1,0.15,0.16,0.31,0.11,0.48
			c-0.23,0.92-0.06,1.85-0.04,2.78c0.02,1-0.12,1.98-0.14,2.97c0,0.17-0.03,0.34,0,0.5c0.2,0.98,0.2,0.98-0.76,1.27
			c0.11-1.3,0.24-2.6,0.32-3.9c0.17-2.64,0.14-5.27-0.24-7.89C42.28,58.14,42.22,57.91,42.29,57.68z"/>
		<path class="st1" d="M75.91,14.97c-0.2-0.27-0.16-0.61-0.3-0.89c-0.07-0.15-0.1-0.36-0.3-0.37c-0.22-0.01-0.21,0.23-0.27,0.37
			c-0.05,0.11-0.09,0.23-0.22,0.32c0.04-0.53,0.07-1.06,0.11-1.69c0.28,0.44,0.61,0.29,0.91,0.18c1.55-0.55,3.11-1.09,4.71-1.48
			c1.28-0.31,2.55-0.74,3.9-0.77c-0.72,0.33-1.51,0.37-2.27,0.57c-2.01,0.52-3.99,1.11-5.97,1.73c-0.56,0.17-0.69,0.46-0.47,0.99
			C75.89,14.25,75.97,14.61,75.91,14.97z"/>
		<path class="st1" d="M48.44,78.34c0-0.1,0.04-0.25-0.09-0.27c-0.64-0.07-0.69-0.56-0.71-1.02c-0.03-0.64-0.11-1.3,0.26-2.06
			c0.18,0.75,0,1.35,0.07,1.95c0.07,0.51,0.25,0.82,0.77,0.76c0.37-0.04,0.39,0.21,0.44,0.41c0.18,0.64,0.6,0.89,1.23,0.85
			c0.61-0.04,0.81-0.51,0.92-0.99c0.25-1.07,0.28-2.18,0.42-3.27c0.05-0.39-0.01-0.81,0.27-1.15c-0.16,1.43-0.3,2.86-0.5,4.28
			c-0.08,0.59-0.26,1.19-0.93,1.39c-0.65,0.19-1.14-0.1-1.54-0.61C48.9,78.39,48.68,78.34,48.44,78.34z"/>
		<path class="st1" d="M42.2,37.69c0.14-0.87,0.8-0.62,1.34-0.63l0,0c0.4,0.09,0.75,0.07,0.96-0.36c0.06-0.13,0.21-0.19,0.32-0.16
			c0.53,0.18,0.93-0.17,1.37-0.32c0.61-0.21,1.2-0.52,1.88-0.49c0.23,0.01,0.46-0.08,0.64-0.24c0.41-0.35,0.84-0.33,1.28-0.08
			c-2.17,0.65-4.3,1.4-6.5,1.96C43.06,37.48,42.63,37.58,42.2,37.69z"/>
		<path class="st1" d="M70.95,39.35c0.09,0.05,0.24,0.1,0.25,0.16c0.08,0.68,0.71,0.89,1.15,1.17c0.36,0.23,0.92,0.09,1.33-0.19
			c0.12-0.08,0.2-0.21,0.3-0.31c0.05,0.59-0.22,1.03-0.72,1.29c-0.47,0.24-0.91,0.01-1.29-0.27C71.36,40.74,70.9,40.18,70.95,39.35z
			"/>
		<path class="st1" d="M45.07,51.14c-0.81,0.03-1.56,0.41-2.41,0.34c-0.74-0.06-1.21,0.56-1.22,1.32c-0.01,0.29,0,0.59,0,0.88
			c-0.61-1.64,0.1-2.41,1.25-2.54c0.56-0.06,1.12-0.18,1.69-0.24C44.63,50.88,44.88,50.95,45.07,51.14z"/>
		<path class="st1" d="M30.04,86.5c-0.2,0.45-0.66,0.84-0.16,1.42c-0.38-0.02-0.46-0.17-0.43-0.42c0.02-0.12,0.05-0.25,0.02-0.37
			c-0.11-0.5-0.1-0.86,0.58-0.62C30.05,86.51,30.04,86.5,30.04,86.5z"/>
		<path class="st1" d="M39.42,44.08c0.2,0.14,0.33-0.3,0.54-0.06c-0.32,0.26-0.1,0.61-0.14,0.92c-0.02,0.13,0.05,0.33-0.14,0.35
			c-0.19,0.02-0.13-0.22-0.21-0.33l0-0.01C39.66,44.65,39.39,44.38,39.42,44.08z"/>
		<path class="st1" d="M102.24,47.26c-0.56-0.43-0.93-1-1.25-1.62C101.52,46.1,101.95,46.63,102.24,47.26z"/>
		<path class="st1" d="M84.92,10.57c0.49-0.35,1.04-0.21,1.57-0.22C85.99,10.59,85.46,10.6,84.92,10.57z"/>
		<path class="st1" d="M37.9,42.64c0.39,0.41,0.84,0.75,1.16,1.23C38.4,43.71,38.13,43.2,37.9,42.64z"/>
		<path class="st1" d="M29.8,72.83c0.04-0.54,0.19-1.05,0.4-1.54C30.31,71.87,30.07,72.35,29.8,72.83z"/>
		<path class="st1" d="M60.5,67.13c0.32,0.26,0.4,0.68,0.66,0.99c0.08,0.09-0.01,0.19-0.12,0.24C60.78,67.98,60.58,67.58,60.5,67.13
			z"/>
		<path class="st1" d="M69.46,70.17c-0.2-0.45-0.31-0.91-0.17-1.4C69.43,69.22,69.48,69.69,69.46,70.17z"/>
		<path class="st1" d="M52.04,73.29c-0.07-0.54,0-1.07,0.2-1.58C52.26,72.25,52.2,72.78,52.04,73.29z"/>
		<path class="st1" d="M70.69,37.1c0.16,0.42,0.31,0.83,0.11,1.28C70.67,37.96,70.63,37.54,70.69,37.1z"/>
		<path class="st1" d="M52.26,71.46c-0.12-0.45-0.06-0.87,0.12-1.29C52.45,70.61,52.38,71.04,52.26,71.46z"/>
		<path class="st1" d="M100.9,45.56c-0.38-0.16-0.65-0.44-0.81-0.82C100.45,44.92,100.73,45.19,100.9,45.56z"/>
		<path class="st1" d="M42.01,56.28c0.26,0.3,0.28,0.64,0.22,1.01C42.1,56.97,42.01,56.64,42.01,56.28z"/>
		<path class="st1" d="M29.42,75.43c-0.28-0.34-0.51-0.69-0.23-1.15C29.1,74.7,29.4,75.04,29.42,75.43z"/>
		<path class="st1" d="M62.36,35.75c-0.24,0.36-0.59,0.54-1,0.63C61.65,36.1,61.96,35.85,62.36,35.75z"/>
		<path class="st1" d="M73.92,9.22c-0.36,0.32-0.8,0.45-1.25,0.55C73.04,9.49,73.47,9.32,73.92,9.22z"/>
		<path class="st1" d="M64.4,68c-0.27-0.27-0.42-0.59-0.35-0.98C64.26,67.31,64.38,67.64,64.4,68z"/>
		<path class="st1" d="M55.47,35.78c0.14,0.26,0.18,0.52,0.04,0.79C55.43,36.31,55.42,36.04,55.47,35.78z"/>
		<path class="st1" d="M77.34,70.4c0.26,0.05,0.46,0.19,0.55,0.45C77.68,70.74,77.49,70.6,77.34,70.4z"/>
		<path class="st1" d="M75.94,16c-0.13-0.22-0.17-0.44,0.01-0.66C76.05,15.56,76.01,15.78,75.94,16z"/>
		<path class="st1" d="M59.99,65.93c0.18,0.16,0.31,0.34,0.25,0.6C60.1,66.36,60,66.16,59.99,65.93z"/>
		<path class="st1" d="M72.6,9.8c-0.25,0.22-0.55,0.33-0.87,0.39C71.99,10,72.28,9.86,72.6,9.8z"/>
		<path class="st1" d="M29.72,76.28c-0.19-0.12-0.22-0.3-0.17-0.5C29.66,75.93,29.72,76.1,29.72,76.28z"/>
		<path class="st1" d="M63.09,63.87c0.01-0.29,0.13-0.36,0.37-0.18C63.34,63.75,63.22,63.81,63.09,63.87z"/>
		<path class="st1" d="M69.15,67.26c-0.1-0.16-0.12-0.33-0.05-0.51C69.17,66.92,69.19,67.09,69.15,67.26z"/>
		<path class="st1" d="M98.71,43.57c-0.19-0.02-0.33-0.12-0.41-0.3C98.5,43.29,98.63,43.4,98.71,43.57z"/>
		<path class="st1" d="M55.13,33.03c0.07-0.08,0.15-0.14,0.25-0.09c0.1,0.06,0.08,0.17,0.03,0.26
			C55.35,33.1,55.26,33.03,55.13,33.03z"/>
		<path class="st1" d="M69.06,66.13c-0.14-0.29-0.16-0.59-0.08-0.89C69.06,65.53,69.1,65.82,69.06,66.13z"/>
		<path class="st1" d="M97.07,42.5c-0.21,0.01-0.36-0.07-0.47-0.25C96.8,42.26,96.95,42.34,97.07,42.5z"/>
		<path class="st1" d="M97.76,42.92c-0.21,0-0.36-0.1-0.45-0.29C97.51,42.65,97.65,42.76,97.76,42.92z"/>
		<path class="st1" d="M74.06,39.83c-0.15-0.16-0.13-0.31,0.04-0.45C74.18,39.54,74.18,39.69,74.06,39.83z"/>
		<path class="st1" d="M82.85,53.13c0.08,0.12,0.09,0.25,0.02,0.38C82.82,53.39,82.8,53.26,82.85,53.13z"/>
		<path class="st1" d="M55.45,34.89c0.1,0.13,0.1,0.26,0.01,0.4C55.4,35.16,55.41,35.02,55.45,34.89z"/>
		<path class="st1" d="M64.79,63.16c0.1-0.15,0.23-0.16,0.38-0.1C65.06,63.15,64.93,63.17,64.79,63.16z"/>
		<path class="st1" d="M63.96,66.78c-0.15-0.09-0.21-0.21-0.13-0.37C63.93,66.51,63.99,66.63,63.96,66.78z"/>
		<path class="st1" d="M82.78,51.86c0.08,0.12,0.1,0.25,0.03,0.38C82.75,52.11,82.74,51.99,82.78,51.86z"/>
		<path class="st1" d="M52.4,69.98c-0.06-0.21-0.04-0.41,0.1-0.6C52.54,69.59,52.5,69.79,52.4,69.98z"/>
		<path class="st1" d="M56.84,66.68c0.1-0.17,0.26-0.23,0.45-0.23C57.17,66.59,57.02,66.66,56.84,66.68z"/>
		<path class="st1" d="M29.42,73.77c-0.01-0.18,0.05-0.33,0.19-0.44C29.61,73.51,29.54,73.65,29.42,73.77z"/>
		<path class="st1" d="M57.55,66.3c0.07-0.16,0.2-0.23,0.37-0.21C57.82,66.21,57.71,66.29,57.55,66.3z"/>
		<path class="st1" d="M63.7,66.05c-0.12-0.06-0.14-0.14-0.08-0.25C63.65,65.88,63.68,65.96,63.7,66.05z"/>
		<path class="st1" d="M58.27,65.9c0.08-0.14,0.2-0.2,0.36-0.19C58.54,65.82,58.42,65.89,58.27,65.9z"/>
		<path class="st1" d="M29,86.54c0,0.06-0.01,0.12-0.01,0.18c-0.09-0.07,0.04-0.11,0.02-0.17L29,86.54z"/>
		<path class="st1" d="M30.27,70.83c-0.06-0.15-0.04-0.29,0.02-0.42C30.36,70.55,30.36,70.69,30.27,70.83z"/>
		<path class="st1" d="M100.01,44.66c-0.14-0.03-0.21-0.12-0.23-0.25C99.91,44.44,99.97,44.54,100.01,44.66z"/>
		<path class="st1" d="M63.41,65.17c-0.11-0.11-0.15-0.24-0.14-0.39C63.4,64.89,63.42,65.02,63.41,65.17z"/>
		<path class="st1" d="M53.17,68.78c0.07-0.1,0.15-0.17,0.28-0.17C53.39,68.72,53.29,68.78,53.17,68.78z"/>
		<path class="st1" d="M45.27,51.33c-0.06-0.06-0.13-0.12-0.19-0.18C45.18,51.17,45.26,51.22,45.27,51.33z"/>
		<path class="st1" d="M39.48,44.97c-0.01-0.02-0.03-0.04-0.04-0.06c-0.01,0.03-0.02,0.06-0.03,0.08c0.02-0.01,0.05-0.02,0.07-0.03
			C39.47,44.95,39.48,44.97,39.48,44.97z"/>
		<path class="st1" d="M56.24,67.03c0.07-0.04,0.13-0.09,0.2-0.13C56.4,66.98,56.34,67.03,56.24,67.03z"/>
		<path class="st1" d="M69.57,71.06c-0.1-0.03-0.11-0.08-0.02-0.14C69.56,70.97,69.56,71.01,69.57,71.06z"/>
		<path class="st1" d="M69.97,65.24c0.06,0.03,0.11,0.06,0.17,0.1C70.08,65.3,70.03,65.27,69.97,65.24z"/>
		<polygon class="st1" points="60.36,66.81 60.38,66.85 60.35,66.84 		"/>
		<path class="st1" d="M41.88,55.68c0.02,0.03,0.04,0.06,0.05,0.09c0,0.01-0.01,0.03-0.02,0.05C41.9,55.77,41.89,55.72,41.88,55.68z
			"/>
		<path class="st1" d="M84.54,10.59c0.03-0.09,0.07-0.1,0.13-0.02C84.63,10.58,84.59,10.59,84.54,10.59z"/>
		<path class="st1" d="M75.86,17.01c-0.02-0.03-0.02-0.05,0.01-0.07c0,0,0.02,0.04,0.02,0.04L75.86,17.01z"/>
		<path class="st1" d="M52.84,68.95c0.04-0.02,0.08-0.04,0.12-0.06C52.92,68.91,52.88,68.93,52.84,68.95z"/>
		<path class="st1" d="M20.91,34.3c-0.05,0.04-0.1,0.08-0.16,0.11C20.8,34.38,20.86,34.34,20.91,34.3z"/>
		<path class="st1" d="M55.42,33.6c0,0.05,0,0.09,0.01,0.14C55.42,33.69,55.42,33.65,55.42,33.6z"/>
		<path class="st1" d="M29.63,73.27c0.02-0.07,0.05-0.14,0.07-0.21C29.68,73.13,29.66,73.2,29.63,73.27z"/>
		<path class="st1" d="M50.11,35.57c0.03,0.03,0.04,0.06,0.04,0.1C50.11,35.65,50.1,35.61,50.11,35.57z"/>
		<path class="st1" d="M69.19,67.65c0-0.04-0.01-0.09-0.01-0.13C69.18,67.56,69.19,67.6,69.19,67.65z"/>
		<path class="st1" d="M69.23,68.03c0-0.05-0.01-0.09-0.01-0.14C69.22,67.94,69.23,67.98,69.23,68.03z"/>
		<path class="st1" d="M29.22,74.19c0.03-0.06,0.05-0.12,0.08-0.17C29.28,74.07,29.25,74.13,29.22,74.19z"/>
		<path class="st1" d="M65.41,63.07c0.01,0.03,0.03,0.05,0.04,0.08c0,0.01,0,0.03-0.01,0.05c-0.01-0.03-0.03-0.05-0.04-0.08
			C65.4,63.1,65.41,63.08,65.41,63.07z"/>
		<path class="st1" d="M63.82,63.52c0.06-0.02,0.12-0.05,0.17-0.07C63.94,63.47,63.88,63.49,63.82,63.52z"/>
		<polygon class="st1" points="64.22,63.36 64.28,63.35 64.26,63.39 		"/>
		<path class="st1" d="M63.75,63.55c0,0,0.02-0.01,0.02-0.01L63.75,63.55z"/>
		<path class="st1" d="M65.48,63.76c0,0.07,0,0.14,0,0.2C65.48,63.89,65.48,63.83,65.48,63.76z"/>
		<path class="st1" d="M74.95,68.61c0.05,0.04,0.11,0.08,0.16,0.11C75.06,68.69,75.01,68.65,74.95,68.61z"/>
		<path class="st1" d="M75.11,68.73c0.05,0.03,0.1,0.07,0.14,0.1C75.21,68.8,75.16,68.76,75.11,68.73z"/>
		<path class="st1" d="M59.24,65.41c0.04-0.02,0.08-0.04,0.12-0.06C59.32,65.37,59.28,65.39,59.24,65.41z"/>
		<path class="st1" d="M58.99,65.54c0.06-0.03,0.11-0.06,0.17-0.09C59.1,65.48,59.04,65.51,58.99,65.54z"/>
		<path class="st1" d="M59.71,65.33c0.04,0.01,0.06,0.03,0.06,0.08C59.73,65.4,59.7,65.37,59.71,65.33z"/>
		<path class="st1" d="M30.31,70.08c0-0.07,0.01-0.13,0.01-0.2C30.31,69.94,30.31,70.01,30.31,70.08z"/>
		<polygon class="st1" points="58.91,65.57 58.95,65.56 58.94,65.59 		"/>
		<polygon class="st1" points="58.18,65.95 58.19,65.92 58.23,65.92 58.22,65.96 		"/>
		<path class="st1" d="M69.67,72.32c-0.01-0.03-0.02-0.05-0.03-0.08c0-0.01,0.02-0.02,0.03-0.03
			C69.69,72.25,69.69,72.28,69.67,72.32z"/>
		<path class="st1" d="M37.8,42.43c0.03,0.02,0.04,0.04,0.03,0.07c0,0-0.04-0.03-0.04-0.03L37.8,42.43z"/>
		<path class="st1" d="M75.26,68.83c0.05,0.04,0.11,0.08,0.16,0.12C75.36,68.91,75.31,68.87,75.26,68.83z"/>
		<path class="st1" d="M37.57,41.68c0.01,0.03,0.03,0.05,0.04,0.08c0,0.01-0.01,0.03-0.01,0.04C37.57,41.77,37.56,41.73,37.57,41.68
			z"/>
		<polygon class="st1" points="59.96,65.85 59.98,65.89 59.95,65.88 		"/>
		<path class="st1" d="M61.2,36.49c-0.05,0.03-0.11,0.06-0.16,0.1C61.09,36.56,61.15,36.52,61.2,36.49z"/>
		<path class="st1" d="M82.89,53.95c0,0.07,0.01,0.14,0.01,0.2C82.89,54.08,82.89,54.02,82.89,53.95z"/>
		<path class="st1" d="M69.03,64.81c0.04-0.07,0.09-0.07,0.14-0.02C69.13,64.8,69.08,64.8,69.03,64.81z"/>
		<polygon class="st1" points="56.67,66.83 56.67,66.83 56.66,66.8 		"/>
		<path class="st1" d="M37.54,39.78c0.01,0.04,0.01,0.08-0.01,0.12C37.54,39.86,37.54,39.82,37.54,39.78z"/>
		<path class="st1" d="M30.24,71.05c0-0.05,0.01-0.09,0.01-0.14C30.25,70.96,30.25,71.01,30.24,71.05z"/>
		<path class="st1" d="M29.01,86.55c0,0-0.01-0.01-0.01-0.01C29,86.54,29.01,86.55,29.01,86.55z"/>
		<path class="st1" d="M66.93,59.39c-0.47-3.68-0.58-7.38-0.81-11.1C66.43,48.62,67.18,58.47,66.93,59.39z"/>
		<path class="st1" d="M42.97,73.14c-0.05,1-0.6,1.78-1.04,2.61c-0.31,0.59-0.61,1.19-1.19,1.58c-0.21,0.14-0.42,0.32-0.68,0.31
			c-0.23-0.01-0.6,0.16-0.66-0.15c-0.05-0.25,0.1-0.58,0.44-0.7c0.5-0.18,1.01-0.35,1.37-0.76c0.5-0.58,0.88-1.23,1.23-1.92
			C42.6,73.79,42.79,73.47,42.97,73.14z"/>
		<path class="st1" d="M68.42,72.99c-0.64-2.62-1.31-5.24-1.19-7.98C67.53,67.69,68.09,70.32,68.42,72.99z"/>
		<path class="st1" d="M58.11,21.87c0,2.21-0.39,4.39-0.54,6.59C57.55,26.24,57.67,24.04,58.11,21.87z"/>
		<path class="st1" d="M16.45,38.16c1.34-1.21,2.9-2.08,4.45-2.97c0.06-0.03,0.16-0.01,0.28,0.07c-1.58,0.96-3.01,2.14-4.69,2.92
			L16.45,38.16z"/>
		<path class="st1" d="M25.7,65.33c-1.62,0.65-3.35,1.06-4.93,1.85C22.22,66.08,23.94,65.67,25.7,65.33z"/>
		<path class="st1" d="M21.52,37.49c-1.24,0.88-2.66,1.36-4.08,1.87C18.77,38.67,20.05,37.88,21.52,37.49z"/>
		<path class="st1" d="M75.46,68.25c-0.84-0.36-1.53-0.95-2.27-1.46c-0.4-0.27-0.85-0.46-1.15-0.87c0,0-0.01,0.01-0.01,0.01
			c0.28-0.05,0.53,0.03,0.77,0.2c0.77,0.54,1.54,1.07,2.31,1.61c0.18,0.12,0.31,0.28,0.36,0.5C75.47,68.24,75.46,68.25,75.46,68.25z
			"/>
		<path class="st1" d="M23.76,67.32c-0.26,0.25-3.3,1.64-3.53,1.6C21.22,68.14,22.34,67.62,23.76,67.32z"/>
		<path class="st1" d="M74.72,15.12c-0.32,1.7-0.76,3.38-1.05,5.09C73.51,19.45,74.19,16.03,74.72,15.12z"/>
		<path class="st1" d="M70.69,61.38c0.68-0.91,1.65-1.46,2.53-2.13c0.04,0.04,0.07,0.09,0.11,0.13c-0.82,0.74-1.64,1.48-2.46,2.22
			C70.82,61.52,70.75,61.45,70.69,61.38z"/>
		<path class="st1" d="M23.88,69.35c0.24-0.24,0.56-0.28,0.84-0.41c0.32-0.15,0.47-0.01,0.48,0.32c0,0.24,0.14,0.54-0.09,0.7
			c-0.21,0.14-0.43-0.08-0.63-0.18C24.26,69.68,24.02,69.59,23.88,69.35z"/>
		<path class="st1" d="M72.27,23.7c0-1.37,0.19-2.71,0.54-4.04C72.81,21.03,72.57,22.37,72.27,23.7z"/>
		<path class="st1" d="M40.5,41.79c0.03-1.15,0.49-2.2,0.67-3.37C41.32,39.29,41.02,40.85,40.5,41.79z"/>
		<path class="st1" d="M41.7,73.57c-0.36,0.89-0.68,1.8-1.88,1.89C40.79,75.15,40.86,73.99,41.7,73.57L41.7,73.57z"/>
		<path class="st1" d="M41.74,30.35c-0.15,0.92-0.04,1.87-0.32,2.79C41.38,32.19,41.51,31.26,41.74,30.35z"/>
		<path class="st1" d="M39.65,42.32c0.1-0.69,0.2-1.38,0.31-2.07c0.06,0.01,0.11,0.02,0.17,0.03c-0.06,0.7-0.04,1.41-0.31,2.07
			C39.76,42.34,39.71,42.33,39.65,42.32z"/>
		<path class="st1" d="M76.63,69.09c0.54,0.21,0.97,0.57,1.31,1.04c-0.54-0.21-1.01-0.52-1.33-1.02L76.63,69.09z"/>
		<path class="st1" d="M76.61,69.11c-0.51-0.11-0.87-0.43-1.15-0.86c0,0,0.01-0.02,0.01-0.02c0.54,0.07,0.9,0.4,1.16,0.85
			C76.63,69.09,76.61,69.11,76.61,69.11z"/>
		<path class="st1" d="M21.57,69.4c-0.36,0.19-0.66,0.5-1.12,0.51C20.71,69.48,20.9,69.39,21.57,69.4z"/>
		<path class="st1" d="M38.17,76.67c0.27-0.08,0.44,0.04,0.59,0.13c0.13,0.08,0.48-0.07,0.36,0.27c-0.09,0.25-0.33,0.06-0.5,0.05
			C38.38,77.09,38.26,76.92,38.17,76.67z"/>
		<path class="st1" d="M40.21,39.69c-0.21-0.4-0.07-0.76,0.15-1.12C40.31,38.94,40.26,39.32,40.21,39.69z"/>
		<path class="st1" d="M14.1,54.84c0.09-0.23,0.27-0.37,0.51-0.43C14.71,54.96,14.71,54.96,14.1,54.84L14.1,54.84z"/>
		<path class="st1" d="M71.17,65.29c-0.25,0-0.48-0.02-0.78-0.31C70.82,64.93,71.05,64.96,71.17,65.29L71.17,65.29z"/>
		<path class="st1" d="M71.17,65.29c0.35,0.13,0.76,0.19,0.87,0.64c0,0,0.01-0.01,0.01-0.01C71.66,65.84,71.35,65.65,71.17,65.29
			C71.17,65.29,71.17,65.29,71.17,65.29z"/>
		<path class="st1" d="M16.02,55.08c-0.08,0.35-0.29,0.46-0.7,0.4C15.53,55.17,15.81,55.18,16.02,55.08z"/>
		<path class="st1" d="M16.5,54.88c0.18-0.31,0.42-0.34,0.86-0.26C16.97,54.74,16.73,54.81,16.5,54.88z"/>
		<path class="st1" d="M15.14,54.15c-0.03-0.01-0.09-0.01-0.1-0.03c-0.04-0.07,0-0.12,0.07-0.14c0.03-0.01,0.09,0.01,0.11,0.03
			C15.25,54.08,15.23,54.13,15.14,54.15z"/>
		<path class="st1" d="M43.55,37.06c0.05-0.05,0.1-0.11,0.14-0.16c0.01,0.01,0.02,0.02,0.03,0.03
			C43.66,36.97,43.6,37.01,43.55,37.06C43.54,37.06,43.55,37.06,43.55,37.06z"/>
		<path class="st1" d="M15.74,53.73c-0.01,0-0.03-0.01-0.04-0.01c0-0.01,0-0.04,0.01-0.04c0.01-0.01,0.03,0.01,0.04,0.01
			C15.75,53.7,15.75,53.72,15.74,53.73z"/>
		<path class="st1" d="M40.28,42.69c0,0.01,0,0.03-0.01,0.04C40.28,42.72,40.28,42.7,40.28,42.69L40.28,42.69z"/>
		<path class="st1" d="M14.09,54.84C14.09,54.84,14.1,54.84,14.09,54.84C14.1,54.84,14.09,54.84,14.09,54.84z"/>
		<path class="st1" d="M41.71,73.57C41.71,73.57,41.7,73.57,41.71,73.57C41.7,73.57,41.71,73.57,41.71,73.57z"/>
		<path class="st1" d="M40.28,42.69C40.28,42.69,40.28,42.69,40.28,42.69C40.28,42.69,40.28,42.69,40.28,42.69z"/>
		<polygon class="st1" points="16.49,38.18 16.45,38.19 16.45,38.16 		"/>
		<path class="st1" d="M62.79,71.94C62.79,71.94,62.79,71.95,62.79,71.94C62.79,71.95,62.79,71.94,62.79,71.94z"/>
		<path class="st1" d="M85.86,55.02c-0.03-2.73-0.07-5.45-0.1-8.31C86.2,47.29,86.31,53.76,85.86,55.02z"/>
		<path class="st1" d="M84.38,50.37c0.09-1.56,0.01-3.09,0.3-4.68C85.07,46.29,84.82,49.91,84.38,50.37z"/>
		<path class="st1" d="M96.19,44.83c-0.19,0.19,0.06,0.63-0.37,0.64c-0.09,0-0.15-0.08-0.16-0.17
			C95.64,44.95,95.86,44.83,96.19,44.83z"/>
		<path class="st1" d="M84.1,59.9c0.2-0.21,0.35-0.18,0.54-0.08C84.47,59.98,84.33,59.98,84.1,59.9z"/>
		<path class="st1" d="M84.66,51.25c0,0-0.05,0.04-0.1,0.07c-0.07,0.03-0.13,0-0.13-0.08c0-0.05,0.04-0.12,0.08-0.14
			C84.57,51.06,84.62,51.1,84.66,51.25z"/>
		<polygon class="st1" points="87.81,69.45 87.81,69.5 87.77,69.48 		"/>
		<path class="st1" d="M102.95,57.05C102.95,57.05,102.96,57.05,102.95,57.05L102.95,57.05z"/>
		<path class="st1" d="M84.49,61.48c0,0-0.01,0.02-0.02,0.02C84.47,61.5,84.49,61.48,84.49,61.48z"/>
		<path class="st1" d="M83.69,59.68c-0.04-0.01-0.07-0.02-0.11-0.04c0.01-0.02,0.03-0.04,0.04-0.06
			C83.64,59.62,83.67,59.65,83.69,59.68L83.69,59.68z"/>
		<path class="st1" d="M30.12,84.44c-0.08-0.07-0.15-0.15-0.24-0.21c-0.16-0.12-0.36-0.15-0.42,0.05c-0.08,0.27,0.19,0.11,0.28,0.17
			c0.06,0.04,0.08,0.13,0.12,0.2c-0.69,0.04-0.26,0.47-0.26,0.75c-0.1,0.09-0.2,0.18-0.33,0.3c-0.2-0.48,0.16-1.46-0.94-1.14
			c0,0,0,0,0,0c0.34-0.51,0.97-0.51,1.45-0.76C30.14,83.62,30.1,84.16,30.12,84.44L30.12,84.44z"/>
		<path class="st1" d="M29.6,85.41c0.01-0.28-0.43-0.71,0.26-0.75c0,0,0.02-0.03,0.02-0.03s-0.03-0.02-0.03-0.02
			c0.02,0.12,0.04,0.24,0.06,0.36c-0.12,0.06-0.21,0.11-0.01,0.19l0.03,0.02C29.87,85.34,29.89,85.58,29.6,85.41z"/>
		<path class="st1" d="M28.22,83.55c-0.27-0.14-0.21-0.36-0.27-0.51C28.1,83.14,28.26,83.24,28.22,83.55z"/>
		<path class="st1" d="M29.9,84.96c-0.02-0.12-0.04-0.24-0.06-0.36c0.21,0.17,0.14,0.37,0.07,0.57c0,0-0.03-0.02-0.03-0.02
			C29.9,85.09,29.9,85.02,29.9,84.96z"/>
		<path class="st1" d="M28.71,85.28c-0.07,0.05-0.12,0.11-0.16,0.11c-0.04,0-0.1-0.06-0.11-0.11c-0.01-0.05,0.02-0.13,0.1-0.1
			C28.59,85.19,28.63,85.23,28.71,85.28z"/>
		<path class="st1" d="M30.11,84.45c0.1,0.04,0.2,0.08,0.17,0.21c-0.01,0.03-0.07,0.07-0.08,0.06
			C30.08,84.66,30.13,84.54,30.11,84.45L30.11,84.45z"/>
		<path class="st1" d="M89.17,6.31C89.17,6.31,89.17,6.31,89.17,6.31C89.17,6.31,89.17,6.31,89.17,6.31z"/>
		<path class="st1" d="M29.9,84.96c0,0.06-0.01,0.13-0.01,0.19C29.69,85.07,29.78,85.02,29.9,84.96z"/>
	</g>
</g>
</svg>
