<?xml version="1.0" encoding="utf-8"?>
<!-- Generator: Adobe Illustrator 23.0.5, SVG Export Plug-In . SVG Version: 6.00 Build 0)  -->
<svg version="1.1" id="Layer_1" xmlns="http://www.w3.org/2000/svg" xmlns:xlink="http://www.w3.org/1999/xlink" x="0px" y="0px"
	 viewBox="0 0 126.66 116.8" style="enable-background:new 0 0 126.66 116.8;" xml:space="preserve">
<style type="text/css">
	.st0{opacity:0.61;}
	.st1{fill:#861C29;}
</style>
<g class="st0">
	<path class="st1" d="M74.48,89.39c-0.11-0.99-0.22-1.98-0.35-3.14c-0.63,1.23-1.12,2.35-1.85,3.33c-0.28,0.06-0.4,0.31-0.61,0.47
		c-1.56,1.21-1.7,1.4-3.03,0.76c0.08-0.22,0.3-0.27,0.47-0.38c0.56-0.37,1.11-0.75,1.62-1.21c0.45-0.41,0.25-1.03,0.5-1.42
		c0.55-0.84,0.87-1.77,1.29-2.66c0.97-2.07,0.87-2.46-0.72-3.54c0.09-0.2,0.01-0.33-0.16-0.45c-0.12-0.08-0.22-0.23-0.13-0.42
		c0.37-0.1,0.17,1.01,0.81,0.38c0.34-0.34,0.82,0.02,1.19-0.14c0.19-0.08,0.15-0.42,0.17-0.65c0.29-3.25,0.56-6.51,0.87-9.76
		c0.34-3.56,0.85-7.1,1.44-10.63c0.02-0.06,0.04-0.13,0.06-0.19c-0.02-0.1-0.04-0.19-0.06-0.29c0.05-0.09,0.11-0.18,0.16-0.27
		c0.17-1.39,0.66-2.71,0.83-4.1c0.07-0.55,0.56-1.07,0.47-1.72c-0.01-0.06,0.16-0.21,0.2-0.2c0.64,0.19,1.18-0.41,1.86-0.18
		c0.76,0.26,1.34,0.66,1.77,1.31c0.41,0.61,0.75,1.25,0.76,2.01c0.02,1.81-0.41,3.55-0.74,5.31c-0.3,1.59-0.54,3.19-0.73,4.8
		c-0.03,0.25-0.12,0.51,0.03,0.8c0.81-0.85,1.32-1.91,1.92-2.87c1.35-2.16,2.9-4.17,4.53-6.11c1.72-2.05,3.44-4.1,4.98-6.28
		c0.63-0.89,1.29-1.76,2.36-2.19c0.99-0.39,2.1-0.09,2.53,0.85c0.22,0.48-0.01,1.01-0.25,1.48c-1.01,2.01-2.35,3.8-3.7,5.58
		c-2.23,2.95-4.34,5.96-6.2,9.16c-0.83,1.42-1.55,2.89-2.34,4.32c-0.24,0.43-0.14,0.7,0.16,1.02c1.99,2.12,3.99,4.23,5.93,6.41
		c1.5,1.68,2.9,3.45,4.45,5.3c0.04-1.98,0.69-3.63,2.04-4.97c-0.12,0.48-0.25,0.95-0.36,1.43c-0.23,1.02-1.01,1.99-0.26,3.09
		c0.05,0.08-0.01,0.25-0.05,0.38c-0.18,0.64,0.55,1.25,0.08,1.93c-0.06,0.08,0.17,0.35,0.26,0.54c0.26,0.55,0.86,0.64,1.3,0.95
		c1.24,0.88,2.62,1.44,4.12,1.71c1.7,0.31,3.4,0.14,5.11,0.02c0.6-0.04,1.04-0.27,1.45-0.64c0.16-0.14,0.29-0.31,0.24-0.54
		c-0.06-0.25-0.27-0.31-0.48-0.31c-0.33,0-0.6-0.11-0.81-0.39c-0.14-0.19-0.36-0.25-0.56-0.14c-0.71,0.41-1.48,0.26-2.21,0.24
		c-1.42-0.04-2.81-0.23-4.09-1c-1.66-1-2.33-3.48-1.56-5.04c0.55-1.13,1.28-2.09,2.14-2.94c0.75-0.75,1.54-1.56,2.73-1.61
		c-0.25,0.67-0.85,1.04-1.35,1.47c-0.96,0.82-1.79,1.73-2.42,2.83c-1.4,2.43-0.26,4.93,2.53,5.36c2.1,0.33,4.13-0.02,6.07-0.85
		c1.5-0.64,2.87-1.48,3.96-2.7c2.59-2.91,2.59-6.02-0.68-8.61c-1.26-1-2.73-1.58-4.25-2.06c-1.93-0.61-3.92-0.98-5.9-1.42
		c-1.55-0.34-3.11-0.68-4.51-1.42c-0.4-0.21-0.7,0.29-1.12-0.17c-2.1-2.29-3.39-4.78-2.48-7.98c0.95-3.33,2.97-5.98,5.31-8.42
		c1.87-1.96,3.95-3.65,6.51-4.64c0.67-0.26,1.31-0.6,2.02-0.73c0,0,0.07,0,0.07,0l0.06-0.04c0.64-0.26,1.31-0.35,1.99-0.43
		c0.27,0.25,0.63,0.2,0.94,0.31c0.34,0.12,0.8-0.14,1.05,0.14c0.9,1.01,2.38,1.6,2.47,3.23c0.01,0.18,0.13,0.33,0.29,0.44
		c0,1.72-0.56,3.32-1.01,4.95c-0.46,1.64-0.92,3.28-1.42,4.91c-0.12,0.41-0.21,0.98-0.93,0.68c-0.23-0.1-0.33,0.19-0.48,0.33
		c-0.13,0.12-0.18,0.68-0.52,0.11c-0.1-0.17-0.25,0.08-0.31,0.21c-0.13,0.28-0.24,0.57-0.36,0.87c-0.19-0.16-0.14-0.32-0.07-0.44
		c0.52-0.87,0.35-1.64-0.1-2.52c-0.78-1.54-0.72-3.22-0.5-4.89c0.07-0.51,0.19-1.02,0.23-1.54c0.03-0.32,0.32-0.72,0-0.94
		c-0.3-0.2-0.7,0.02-1.04,0.16c-2.28,0.92-4.23,2.31-5.92,4.08c-1.17,1.23-2.22,2.54-2.92,4.11c-0.87,1.92-0.23,3.1,1.55,3.86
		c1.23,0.53,2.57,0.61,3.89,0.77c2.35,0.28,4.71,0.56,6.92,1.45c4.03,1.62,6.69,4.49,7.76,8.73c1.08,4.26-1.1,9.22-5.05,11.69
		c-3.02,1.88-6.39,2.41-9.85,2.41c-3.03,0.01-4.19-0.39-6.84-1.96c0.23,0.93,0.85,1.6,0.98,2.48c-0.23,0.02-0.3-0.24-0.48-0.3
		c-0.3,0.32-0.05,0.63,0.01,0.93c0.11,0.53-0.07,0.85-0.6,0.98c-0.92,0.23-1.75,0.09-2.47-0.55c-0.71-0.62-1.26-1.39-1.84-2.12
		c-3.13-3.93-6.65-7.5-10.3-10.95c-0.56-0.53-1.09-1.09-1.65-1.66c-0.63,0.95-1.22,1.83-1.81,2.72c-0.2,0.29-0.27,0.6-0.29,0.95
		c-0.08,2.34-0.12,4.68-0.28,7.01c-0.06,0.96-0.05,1.94-0.32,2.88c-0.42,0.16-0.68,0.89-1.34,0.18c-0.28-0.3-0.9,0.49-1.47,0.2
		c-0.2-0.11-0.29-0.28-0.39-0.46C75.14,89.87,74.86,89.57,74.48,89.39z"/>
	<path class="st1" d="M24,65.19c0.36,1.16,0.91,2.24,1.55,3.27c0.35,0.55,0.44,1.15,0.36,1.79c-0.52,4.08-0.6,8.17-0.52,12.28
		c0.1,5.07,0.15,10.14,0.22,15.21c0.01,0.45-0.01,0.74,0.63,0.51c3.64-1.3,7.39-2.14,11.22-2.59c0.58-0.07,0.88-0.13,0.41-0.8
		c-2.59-3.64-3.63-7.76-3.77-12.17c-0.18-5.32,1.27-10.25,3.39-15.05c0.57-1.28,1.14-2.56,2.45-3.06c1.64-0.63,3.18-1.48,4.88-1.96
		c2.99-0.85,6.33,0.84,7.77,3.3c1.64,2.8,2.18,5.87,2.41,9.03c0.05,0.75,0,1.5,0,2.26c-0.18,1.43-0.24,2.86-0.27,4.29
		c-0.59,4.2-1.34,8.37-2.96,12.32c-0.42,1.01-0.91,1.98-1.61,2.84c-0.15,0.19-0.34,0.34-0.2,0.67c0.46,1.15,0.13,1.96-0.97,2.55
		c-0.66,0.35-1.38,0.46-2.11,0.52c-0.51,0.04-0.59,0.21-0.31,0.61c0.23,0.33,0.36,0.67,0.06,1.03c-0.08-0.04-0.15-0.05-0.16-0.08
		c-0.16-1.09-0.58-1.59-1.88-1.61c-1.32-0.02-2.63-0.03-3.95,0.11c-6.35,0.68-12.38,2.43-18.01,5.46c-0.8,0.43-1.64,0.71-2.43,1.13
		c-0.88,0.47-1.78,0.92-2.87,0.74c-1.39-0.23-1.7-0.67-1.22-2.02c0.42-1.18,1.24-2.09,2.12-2.95c0.33-0.33,0.67-0.66,1.06-0.92
		c0.65-0.43,1.08-0.93,0.9-1.77c0.34,0.1,0.5,0.73,0.98,0.38c0.41-0.3,1.22-0.33,1.08-1.04c-0.17-0.86,0.35-1.76-0.2-2.59
		c-0.05-0.08-0.04-0.27,0.02-0.36c0.29-0.42,0-0.77-0.06-1.15c-0.21-0.01-0.29,0.09-0.36,0.21c-0.13,0.23-0.09,0.63-0.47,0.63
		c-0.38,0-0.49-0.32-0.58-0.63c-0.1-0.32-0.3-0.3-0.54-0.16c-0.06-6.86-0.61-13.7-0.38-20.56c0.09-2.59,0.32-5.18,0.91-7.72
		c0.08-0.34,0.05-0.71,0.07-1.07c0,0-0.03-0.03-0.03-0.03c0.23,0.55,0.37,0.07,0.48-0.06c0.67-0.79,1.19-0.9,2.21-0.47
		c0.28,0.12,0.58,0.21,0.52-0.29C23.89,65.22,23.94,65.21,24,65.19z M46.66,92.83c0.24-0.06,0.39-0.23,0.56-0.4
		c0.73-0.73,1.06-1.66,1.3-2.62c0.38-1.59,0.91-3.18,1.03-4.79c0.14-1.76,0.26-3.51,0.52-5.25c0.03-0.23-0.08-0.4-0.29-0.5
		c0.06-1.42,0.17-2.84,0.18-4.27c0.02-1.99-0.19-3.94-1.45-5.62c-1.28-1.7-2.82-1.82-4.33-0.31c-0.84,0.84-1.39,1.88-1.86,2.95
		c-1.98,4.59-2.54,9.4-2,14.34c0.31,2.88,1.56,5.3,3.79,7.2c0.57,0.49,1.39,0.51,1.95-0.01C46.28,93.34,46.46,93.07,46.66,92.83z
		 M52.71,78.32c-0.05-0.19-0.08-0.48-0.38-0.46c-0.32,0.02-0.32,0.31-0.3,0.54c0.08,0.93-0.4,1.77-0.38,2.7
		c0.01,0.71-0.29,1.41-0.38,2.13c-0.33,2.88-0.71,5.74-1.82,8.45c-0.59,1.44-1.21,2.88-2.52,3.85c-0.26,0.2-0.27,0.34,0.05,0.49
		c1.01,0.48,1.95,0.29,2.53-0.6c1.15-1.77,1.9-3.72,2.41-5.74c0.53-2.1,0.75-4.25,0.97-6.4C53.05,81.61,52.64,80,52.71,78.32z"/>
	<path class="st1" d="M87.25,51.28c-0.04-0.24-0.01-0.46,0.1-0.68c0.46-0.97,0.5-1.06-0.44-1.51c-1.13-0.54-1.43-1.45-1.53-2.58
		c-0.44-4.87-0.27-9.75-0.12-14.63c0.16-5.38,0.51-10.74,1.28-16.15c-1.6,0.45-3.04,1.18-4.57,1.62c-1.8,0.52-2.69,1.48-2.6,3.44
		c0.07,1.38-0.4,2.73-0.63,4.1c-0.14,0.85-0.23,1.73-0.25,2.59c-0.02,1.26-0.09,2.49-0.48,3.69c-0.04,0.12-0.07,0.27-0.04,0.38
		c0.31,1.26-0.26,2.35-0.63,3.47c0.7-0.09,0.59,0.36,0.4,0.7c-0.41,0.76-0.41,1.63-0.65,2.43c0.05-0.16,0.07-0.33,0.15-0.47
		c0.1-0.18,0.26-0.37,0.49-0.3c0.27,0.09,0.15,0.32,0.13,0.53c-0.14,0.95-0.63,1.76-0.93,2.65c-0.11,0.32-0.13,0.48,0.26,0.5
		c0,0-0.01-0.02-0.01-0.02c0.03,0.09,0.06,0.17,0.09,0.26c0.47,1.18-0.81,2.18-0.29,3.44c0.25,0.59-0.07,1.4,0.3,2.04
		c0.15,0.26-0.01,0.38-0.08,0.55c0,0,0.01,0.07,0.01,0.07l0.07-0.01c0.16,0.38,0.28,0.75-0.01,1.13c-0.06,0.09-0.18,0.23,0,0.3
		c0.13,0.04,0.21-0.09,0.26-0.22c0,0.86-0.56,1.78-1.36,2.06c-0.85,0.3-1.57-0.14-2.24-0.58c-1.17-0.77-1.73-2-2.32-3.2
		c-1.24-2.55-2.44-5.12-3.66-7.68c0.37-0.03,0.52,0.25,0.73,0.49c0.39,0.44,0.59,1.04,1.12,1.47c0.1-0.51,0.05-0.92-0.1-1.26
		c-0.42-0.95-0.65-1.95-1.01-2.92c-0.31-0.82-0.75-1.6-1.05-2.42c-0.58-1.58-1.02-3.22-1.72-4.76c-0.45-0.98-0.76-2.02-1.2-3.01
		c-0.33-0.73-1.05-1.38-0.82-2.31c0.1-0.42-0.12-0.73-0.23-1.09c-0.11-0.37-1.06-0.78-0.09-1.24c0.02-0.01,0-0.16-0.04-0.21
		c-0.26-0.37-0.16-0.84-0.4-1.25c-0.3-0.51,0.25-1.05,0.08-1.62c-0.03-0.1,0.23-0.17,0.39-0.18c0.4-0.02,0.69,0.15,0.91,0.49
		c0.47,0.73,0.8,1.52,1.04,2.35c0.66,2.22,1.79,4.26,2.5,6.46c0.13,0.41,0.34,0.78,0.87,0.74c1.12,2.64,2.25,5.28,3.37,7.92
		c0.4,0.95,0.81,1.9,1.21,2.87c0.29-0.18,0.19-0.41,0.19-0.6c-0.01-2.08,0.02-4.16,0.25-6.24c0.17-1.53,0.09-3.08,0.29-4.6
		c0.18-1.39,0.19-2.82,0.48-4.16c0.22-1.04,0.07-2.15,0.57-3.16c0.19-0.39-0.16-0.79-0.71-0.71c-0.25,0.03-0.52,0.02-0.74,0.06
		c-1.02,0.19-1.26-0.92-2.03-1.12c-0.18-0.05-0.2-1.24-0.03-1.35c0.72-0.48,1.43-0.97,2.23-1.32c0.45-0.19,0.9-0.39,1.36-0.58
		c0.54-0.21,0.76-0.7,0.75-1.18c-0.02-1.12,0.44-2.05,0.9-3c0.5-1.02,1.22-1.1,2.21-0.41c0.63,0.45,1.1,1.11,1.04,1.96
		c-0.04,0.64,0.21,0.53,0.63,0.36c1.77-0.73,3.56-1.44,5.34-2.16c-0.06,0.36,0.17,0.78-0.22,1.08c-0.17,0.13-0.49,0.19-0.3,0.51
		c0.14,0.23,0.35,0.4,0.64,0.36c1.23-0.18,2.2,0.33,3.1,1.09c1.05,1.54,1.1,3.33,1.13,5.09c0.03,2.02,0.06,4.05-0.12,6.06
		c-0.19,2.15-0.04,4.31-0.29,6.46c-0.07,0.62,0.03,1.28-0.03,1.92c-0.19,0.1-0.2,0.21,0,0.31c0,0.1,0,0.19,0,0.29
		c-0.31,0.21-0.36,0.52-0.4,0.87c-0.26,2.4,0.1,4.86-0.66,7.21c-0.06,0.2,0,0.41-0.01,0.61c-0.02,0.61,0.37,1.17,0.25,1.74
		c-0.25,1.13,0.08,2.34-0.5,3.42c-0.28,0.99-1.02,1.75-1.34,2.71C87.4,51.27,87.33,51.27,87.25,51.28z M77.62,32.26l-0.05,0
		l0.03,0.06L77.62,32.26z"/>
	<path class="st1" d="M31.09,51.14c-0.72-6.8-0.46-13.46,2.95-19.63c0.25-0.46,0.52-0.9,0.78-1.35c0.28-0.47,0.8-0.86,0.16-1.5
		c-0.32-0.32,0.14-1.59,0.57-1.86c1.38-0.88,2.76-1.77,4.32-2.3c2.22-0.75,4.29-0.53,6.13,1.07c2.24,1.94,3.56,4.37,4.05,7.27
		c0.58,3.37,0.2,6.68-0.57,9.97C48.38,47.51,46.73,52,43.91,56c-1.13,1.6-2.52,2.86-4.44,3.52c-1.45,0.5-2.77,0.38-4-0.5
		c-2.13-1.52-3.66-3.45-4.11-6.11C31.28,52.32,31.19,51.73,31.09,51.14z M43.81,30.47c-0.82-0.9-1.36-0.95-2.31-0.16
		c-1.11,0.93-1.98,2.06-2.66,3.33c-2.74,5.12-3.53,10.57-2.94,16.3c0.18,1.72,0.98,3.3,0.93,5.05c0,0.08,0.1,0.17,0.17,0.24
		c0.73,0.74,1.55,0.78,2.37,0.13c0.86-0.68,1.38-1.62,1.87-2.56c2.22-4.24,3.4-8.8,4.16-13.49c0.4-0.15,1.1-0.28,1.07-0.59
		c-0.04-0.62,0.34-0.87,0.63-1.23c0.55-0.7,0.48-1-0.34-1.42c-0.2-0.1-0.31-0.24-0.22-0.43c0.19-0.38,0.2-0.9,0.76-0.98
		c-0.23-0.43-0.85-0.22-0.95-0.69c-0.26-1.26-0.7-2.38-1.66-3.31C44.37,30.35,44.18,30.25,43.81,30.47z"/>
	<path class="st1" d="M56.57,71.38c1.27-4.43,3.09-8.6,6.15-12.1c1.63-1.87,3.6-3.18,6.29-2.57c0.32,0.07,0.34-0.15,0.43-0.32
		c0.37-0.76,0.93-1.29,1.81-1.23c0.96,0.07,1.75,0.51,2.18,1.42c0.66,1.42,0.88,2.91,0.71,4.48c-0.27,2.54-0.96,4.99-1.61,7.44
		c-0.14,0.04-0.28,0.07-0.43,0.11c-0.67,0.51-1.6,0.38-2.22,1.07c-0.11-0.32,0.09-0.35,0.16-0.44c0.11-0.13,0.11-0.24-0.04-0.31
		c-0.14-0.07-0.29-0.12-0.44-0.15c-0.35-0.07-0.46-0.27-0.64-0.61c-1.07-1.98-0.45-4.02-0.34-6.05c0.02-0.28,0.11-0.56-0.04-0.87
		c-0.41,0.09-0.65,0.41-0.92,0.67c-1.97,1.89-3.36,4.17-4.39,6.66c-2.02,4.91-3.08,10-2.68,15.33c0.13,1.77,0.49,3.5,1.62,4.97
		c0.27,0.35,0.56,0.58,0.94,0.73c-0.36,0.54-0.72,0.56-1.17,0.06c-0.23-0.26-0.59-0.41-0.91-0.58c-1.2-0.62-1.54-1.33-1.23-2.59
		c0.01-0.05,0.02-0.12-0.01-0.15c-0.5-0.55-0.26-1.49-1.01-1.92c-0.19-0.11-0.4-0.4-0.16-0.59c0.71-0.57,0.09-0.7-0.28-0.82
		c-0.4-0.13-0.53-0.23-0.23-0.62c0.27-0.35,0.4-0.77,0.29-1.24c-0.07-0.27-0.02-0.56,0.13-0.82c0.32-0.55,0.17-1.09-0.38-1.37
		c-0.21-0.11-0.2-0.21-0.07-0.35c0.17-0.18,0.18-0.36,0.04-0.56c0.3-0.09,0.47-0.25,0.23-0.55c-0.11-0.13-0.29-0.32-0.45-0.17
		c-0.22,0.19,0.04,0.36,0.13,0.53c0.03,0.07,0.07,0.14,0.11,0.2c-0.33,0.23-0.62,0.5-0.62,0.93c-0.01,0.56-0.07,1.1-0.16,1.65
		c-0.03,0.17,0.08,0.39-0.17,0.44c-0.22,0.05-0.3-0.16-0.39-0.31c-0.17-0.28-0.17-0.57-0.09-0.89c0.12-0.45,0.19-0.91,0.25-1.37
		c0.05-0.37-0.07-0.67-0.51-0.71c-0.16-0.01-0.42,0.16-0.45-0.11c-0.03-0.27,0.27-0.27,0.47-0.28c0.69-0.06,0.65-0.38,0.28-0.8
		c-0.08-0.09-0.22-0.15-0.2-0.3c0.58-0.32,0.83-1.03,0.51-1.58c-0.13-0.23-0.35-0.39-0.18-0.68c0.25-0.41,0.45,0.23,0.71,0.04
		c-0.01-0.1,0.02-0.25-0.04-0.3c-0.59-0.58-0.69-1.29-0.58-2.07C57,71.47,56.82,71.38,56.57,71.38z"/>
	<path class="st1" d="M68.93,28.93c-0.53,0.04-0.74-0.33-0.87-0.74c-0.7-2.2-1.84-4.24-2.5-6.46c-0.24-0.82-0.57-1.62-1.04-2.35
		c-0.22-0.34-0.51-0.51-0.91-0.49c-0.16,0.01-0.42,0.08-0.39,0.18c0.16,0.56-0.38,1.11-0.08,1.62c0.24,0.4,0.14,0.87,0.4,1.25
		c0.04,0.06,0.06,0.2,0.04,0.21c-0.97,0.47-0.03,0.87,0.09,1.24c0.11,0.36,0.34,0.67,0.23,1.09c-0.23,0.93,0.49,1.58,0.82,2.31
		c0.45,0.99,0.76,2.02,1.2,3.01c0.7,1.54,1.15,3.17,1.72,4.76c0.3,0.83,0.75,1.6,1.05,2.42c0.36,0.96,0.59,1.97,1.01,2.92
		c0.15,0.34,0.19,0.75,0.1,1.26c-0.53-0.43-0.73-1.03-1.12-1.47c-0.21-0.24-0.36-0.51-0.73-0.49c-1.17-2.14-1.99-4.45-3.04-6.64
		c-0.19-0.39-0.37-0.79-0.71-1.17c0,0.83,0.01,1.65,0.01,2.48c-0.03,4.34-0.01,8.67-0.11,13.01c-0.05,2.2-0.17,4.41-0.64,6.58
		c-0.22,1.01-0.62,1.92-1.36,2.65c-0.15,0.15-0.26,0.29-0.12,0.45c0.26,0.3,0.09,0.59,0.05,0.89c-0.04-0.02-0.1-0.03-0.1-0.06
		c-0.19-0.6-0.54-0.94-1.17-1.19c-1.43-0.58-1.96-1.82-2.04-3.31c-0.12-2.25,0.33-4.45,0.51-6.67c0.2-2.59,0.16-5.19,0.32-7.78
		c0.17-2.85,0.36-5.7,0.66-8.54c0.01-0.13,0-0.28,0.07-0.38c1.14-1.88,0.85-3.8,0.29-5.8c-0.51-1.82-0.98-3.7,0.36-5.44
		c0.39-0.5,0.73-0.85,1.41-0.52c0.22,0.11,0.5,0.1,0.75,0.14c1.06,0.13,1.58,0.89,2,1.75c1.22,2.5,2.21,5.1,3.25,7.68
		C68.54,27.86,68.87,28.35,68.93,28.93z"/>
	<path class="st1" d="M30.05,48.52c0.22,0.15,0.12,0.37,0.11,0.57c-0.14,1.64-0.28,3.28-0.58,4.89c-0.41,2.19-1.18,4.25-2.41,6.13
		c-0.9,1.37-2.04,2.48-3.5,3.25c-0.09,0.08-0.19,0.15-0.28,0.23c-0.58,0.14-1.02,0.55-1.68,0.6c-1.06,0.07-1.05,0.17-1.03,1.34
		c0,0.18-0.03,0.36-0.05,0.54c0,0,0.03,0.03,0.03,0.03c-0.3-1.65-0.3-1.65-1.94-1.84c-4.2-0.5-8.62-4.14-9.75-8.04
		c-0.02-0.1-0.05-0.19-0.07-0.29c-0.15-0.5-0.23-1.01-0.22-1.54c1.09-1.83,1.79-3.84,2.57-5.81c0.01-0.05,0.04-0.09,0.07-0.13
		c0,0,0.04-0.03,0.04-0.03l-0.01-0.05c0-0.04,0.02-0.07,0.06-0.09c0.05-0.02,0.07-0.06,0.06-0.11c0.93-1.54,2.12-2.82,3.75-3.63
		c0.82-0.41,1.85-0.86,2.54-0.12c0.72,0.76,0.02,1.67-0.45,2.4c-0.58,0.89-1.29,1.69-1.9,2.57c-1.32,1.89-1.97,3.92-1.35,6.25
		c0.69,2.57,3.07,4.16,5.38,3.55c1.17-0.31,1.98-1.12,2.63-2.08c1.32-1.95,1.98-4.16,2.39-6.45c0.3-1.67,0.55-3.35,0.62-5.06
		c0.07,0.04,0.17,0.06,0.2,0.12c0.28,0.65,0.95,1.23,0.39,2.05c-0.12,0.17-0.07,0.34,0.07,0.49c0.42,0.43,0.3,1.29,1.13,1.4
		c0.06,0.01,0.16,0.24,0.13,0.34c-0.13,0.53,0.05,1.12-0.24,1.59c-0.26,0.43,0.03,0.94-0.15,1.26c-0.46,0.81,0.42,0.49,0.56,0.77
		c0.11,0.24,0.55,0.39,0.17,0.76c-0.12,0.12,0.08,0.27,0.18,0.38c0.09,0.1,0.26,0.18,0.34,0.07c0.44-0.57,1.35-0.82,1.24-1.77
		c-0.03-0.22-0.15-0.5-0.06-0.66c0.46-0.87,0.44-1.8,0.45-2.74C29.49,49.24,29.53,48.72,30.05,48.52z"/>
	<path class="st1" d="M50.82,54.9c0.01-0.21,0.01-0.43,0.02-0.64c0.03-0.03,0.03-0.07,0-0.1c0.21-4.15,0.64-8.28,1.01-12.42
		c0.53-5.86,0.71-11.75,1.43-17.6c0.15-1.21,0.31-2.4,0.21-3.64c-0.14-1.73,1.5-2.76,3-1.89c1.5,0.87,2.68,2.3,2.37,4.36
		c-0.26,1.77-0.42,3.56-0.62,5.34c-0.04,0.03-0.04,0.07-0.01,0.1l0,0.03c-0.45,0.73-0.58,1.59-0.63,2.37
		c-0.12,1.68-0.21,3.35-0.71,4.97c-0.05,0.16,0.04,0.4-0.21,0.44c-0.21,0.03-0.41-0.06-0.56-0.22c-0.17-0.18-0.14-0.38,0.02-0.56
		c0.14-0.15,0.34-0.32,0.15-0.53c-0.33-0.36-0.12-0.73-0.06-1.1c0.03-0.17,0.35-0.38,0.01-0.5c-0.3-0.11-0.44,0.18-0.42,0.41
		c0.07,0.81-0.66,1.48-0.36,2.33c0.04,0.12-0.04,0.34-0.14,0.43c-0.85,0.75-0.46,1.87-0.85,2.75c-0.45,1.02,0.38,2.1-0.15,3.12
		c-0.02,0.04,0.03,0.14,0.08,0.18c0.56,0.46,0.6,0.71,0.27,1.38c-0.21,0.44-0.16,1.22,0.01,1.32c0.82,0.48,0.47,0.99,0.16,1.48
		c-0.19,0.3-0.07,0.75-0.46,0.94c0.31,0.37-0.25,0.84-0.08,0.96c0.59,0.45,0.3,0.52-0.17,0.63c-0.22,0.05-0.24,0.25-0.22,0.44
		c0,0-0.02,0.03-0.02,0.03l0.03-0.02c0.2,0.05,0.45,0.07,0.33,0.37c-0.35,0.91-0.19,1.82,0,2.73l0-0.01
		c-0.32,0.07-0.47,0.23-0.27,0.54c0.22,0.34,0.01,0.55-0.24,0.7c-0.42,0.26-0.69,0.55-0.44,1.07c0.09,0.19,0,0.23-0.14,0.26
		c-0.37,0.08-0.45,0.45-0.61,0.68c-0.37-0.08-0.22-0.65-0.47-0.57C51.43,55.67,51.27,55.01,50.82,54.9z M53.96,52.39
		c-0.18-0.08-0.24-0.11-0.31-0.12c-0.01,0-0.07,0.09-0.05,0.12c0.03,0.06,0.08,0.14,0.13,0.14C53.78,52.53,53.84,52.46,53.96,52.39z
		 M53.9,41.13c0.03-0.03,0.09-0.06,0.08-0.08c-0.01-0.04-0.05-0.08-0.08-0.12c-0.03,0.03-0.08,0.06-0.08,0.08
		C53.83,41.05,53.87,41.09,53.9,41.13z"/>
	<path class="st1" d="M58.11,78.09c0.14,0.2,0.13,0.38-0.04,0.56c-0.13,0.14-0.14,0.24,0.07,0.35c0.55,0.28,0.7,0.83,0.38,1.37
		c-0.15,0.27-0.2,0.55-0.13,0.82c0.12,0.48-0.02,0.89-0.29,1.24c-0.3,0.39-0.17,0.49,0.23,0.62c0.37,0.12,0.98,0.25,0.28,0.82
		c-0.23,0.19-0.02,0.48,0.16,0.59c0.76,0.43,0.51,1.37,1.01,1.92c0.03,0.03,0.02,0.1,0.01,0.15c-0.31,1.26,0.03,1.97,1.23,2.59
		c0.32,0.17,0.68,0.32,0.91,0.58c0.46,0.5,0.81,0.48,1.17-0.06c1.4,0.47,2.57,0.02,3.67-0.84c2.13-1.65,3.27-3.98,4.43-6.3
		c0.16-0.32,0.25-0.69,0.58-0.9c1.58,1.09,1.69,1.47,0.72,3.54c-0.42,0.89-0.74,1.82-1.29,2.66c-0.25,0.38-0.05,1.01-0.5,1.42
		c-0.5,0.46-1.05,0.84-1.62,1.21c-0.17,0.11-0.38,0.16-0.47,0.38c1.33,0.64,1.47,0.45,3.03-0.76c0.2-0.16,0.33-0.41,0.61-0.47
		c-1.89,3.01-4.21,5.48-7.88,6.21c-2.57,0.52-4.49-0.71-6.15-2.45c-1.42-1.49-2.13-3.36-2.66-5.31c-0.52-1.92-0.71-3.88-0.7-5.86
		c0-0.23,0.03-0.47-0.17-0.65c0.03-1.43,0.09-2.87,0.27-4.29c0.4-0.12,0.32-0.49,0.37-0.78c0.31-1.71,0.6-3.42,1.21-5.05
		c0.24,0,0.43,0.09,0.39,0.36c-0.11,0.78-0.02,1.49,0.58,2.07c0.06,0.05,0.03,0.19,0.04,0.3c-0.27,0.19-0.46-0.46-0.71-0.04
		c-0.18,0.29,0.05,0.45,0.18,0.68c0.32,0.55,0.06,1.26-0.51,1.58c-0.01,0.16,0.12,0.21,0.2,0.3c0.36,0.42,0.41,0.74-0.28,0.8
		c-0.19,0.02-0.49,0.01-0.47,0.28c0.03,0.28,0.29,0.1,0.45,0.11c0.45,0.03,0.56,0.34,0.51,0.71c-0.06,0.46-0.13,0.92-0.25,1.37
		c-0.09,0.32-0.09,0.61,0.09,0.89c0.09,0.15,0.17,0.36,0.39,0.31c0.25-0.05,0.14-0.27,0.17-0.44c0.08-0.55,0.15-1.1,0.16-1.65
		c0.01-0.43,0.29-0.7,0.62-0.93L58.11,78.09z"/>
	<path class="st1" d="M24.96,35.81c-0.3-2.83-0.68-5.65-1-8.48c-0.17-1.47-0.23-2.99,0.09-4.48c0.84-0.84,1.02-2.11,1.87-2.95
		c0.2-0.12,0.44-0.2,0.59-0.35c0.83-0.82,1.73-0.74,2.34,0.26c0.62,1.03,0.83,2.18,0.84,3.36c0,0.67,0,1.36-0.13,2.02
		c-0.49,2.51-0.23,5.02-0.02,7.53c0.32,3.91,0.74,7.81,0.76,11.73c0,0.53-0.25,1.05-0.05,1.59c-0.86-0.24-0.9-0.99-0.86-1.64
		c0.09-1.23-0.43-2.36-0.48-3.57c-0.03-0.6,0.1-1.22-0.07-1.84c-0.19-0.67-0.42-1.34-0.55-2c-0.12-0.64-0.38-0.72-0.86-0.76
		c-0.46-0.04-0.71-0.23-0.66-0.75c0.03-0.29-0.07-0.63-0.45-0.6c-0.39,0.03-0.48,0.38-0.43,0.7c0.08,0.56-0.01,1.14,0.28,1.67
		c0.11,0.21,0.1,0.52-0.13,0.72c-0.05,0.05-0.2,0.03-0.28-0.01c-0.26-0.13-0.18-0.38-0.22-0.61C25.46,36.81,25.53,36.18,24.96,35.81
		z"/>
	<path class="st1" d="M24.96,35.81c0.58,0.37,0.5,1,0.59,1.55c0.04,0.23-0.04,0.48,0.22,0.61c0.08,0.04,0.23,0.06,0.28,0.01
		c0.23-0.2,0.24-0.51,0.13-0.72c-0.28-0.54-0.19-1.12-0.28-1.67c-0.05-0.33,0.04-0.67,0.43-0.7c0.37-0.03,0.48,0.31,0.45,0.6
		c-0.05,0.52,0.2,0.71,0.66,0.75c0.47,0.04,0.74,0.12,0.86,0.76c0.12,0.66,0.36,1.33,0.55,2c0.17,0.62,0.04,1.24,0.07,1.84
		c0.06,1.21,0.58,2.34,0.48,3.57c-0.05,0.65-0.01,1.4,0.86,1.64c0.05,0.72,0.18,1.44-0.13,2.14c-0.03,0.12-0.07,0.24-0.1,0.36
		c0,0,0.04-0.01,0.04-0.01c-0.52,0.2-0.56,0.71-0.56,1.11c-0.01,0.94,0.02,1.87-0.45,2.74c-0.09,0.16,0.03,0.44,0.06,0.66
		c0.11,0.95-0.8,1.2-1.24,1.77c-0.08,0.11-0.25,0.03-0.34-0.07c-0.1-0.11-0.3-0.26-0.18-0.38c0.38-0.38-0.06-0.53-0.17-0.76
		c-0.13-0.28-1.01,0.04-0.56-0.77c0.19-0.33-0.11-0.83,0.15-1.26c0.29-0.47,0.11-1.06,0.24-1.59c0.02-0.1-0.07-0.33-0.13-0.34
		c-0.83-0.11-0.72-0.97-1.13-1.4c-0.14-0.15-0.19-0.32-0.07-0.49c0.57-0.81-0.1-1.4-0.39-2.05c-0.02-0.06-0.13-0.08-0.2-0.12
		c0.02-1.05,0.03-2.11,0.06-3.16c0.04-1.95-0.1-3.89-0.21-5.84C24.91,36.32,24.83,36.06,24.96,35.81z"/>
	<path class="st1" d="M89.46,14.58c-0.89-0.75-1.87-1.27-3.1-1.09c-0.29,0.04-0.5-0.13-0.64-0.36c-0.19-0.32,0.14-0.39,0.3-0.51
		c0.4-0.3,0.16-0.72,0.22-1.08c2.84-1.21,5.79-2.11,8.74-3.01c1.69-0.51,3.4-0.95,5.15-1.17c1.02-0.13,2.05-0.19,3.07-0.27
		c-0.26,0.4-0.16,0.7,0.3,0.85c-0.3,0.42-0.75,0.23-1.11,0.39c0.24,0.29,0.51,0.11,0.75,0.14c0.09,0.01,0.24-0.11,0.27,0.11
		c0.04,0.29,0.74,0.97,1.02,0.97c0.82,0.01,1.63,0.3,2.45,0.04c-0.2,0.67-0.77,0.85-1.33,0.86c-1.28,0.02-2.51,0.31-3.76,0.54
		c-0.25,0.04-0.56,0.3-0.75-0.22c-0.11-0.31-0.49-0.11-0.73,0.04c-0.87,0.55-1.81,0.64-2.81,0.55c-0.46-0.04-0.91,0.2-1.3,0.45
		c-0.34,0.22-0.52,0.14-0.65-0.2c0-0.02,0.01-0.04,0.01-0.07c-0.01,0-0.02,0.01-0.01,0.01c0,0.02,0.01,0.04,0.02,0.07
		c-0.72-0.03-1.3,0.48-2.01,0.5c-0.17,0.01-0.36,0.15-0.5-0.04c-0.13-0.18,0.03-0.28,0.14-0.38c0.12-0.12,0.21-0.28,0.04-0.39
		c-0.16-0.11-0.28,0.06-0.38,0.17c-0.2,0.22-0.37,0.47-0.22,0.77c0.38,0.72-0.31,0.85-0.6,0.77c-0.81-0.2-1.52,0.23-2.35,0.17
		c0.26,0.44,0.84,0.3,1,0.74l0.01-0.01C90.29,14.12,89.96,14.51,89.46,14.58z M94.04,11.17c-0.01,0.04-0.03,0.09-0.02,0.12
		c0.02,0.04,0.07,0.09,0.1,0.09c0.11-0.02,0.07-0.1,0.04-0.15C94.13,11.21,94.08,11.19,94.04,11.17z"/>
	<path class="st1" d="M104.03,76.59c-1.2,0.05-1.99,0.86-2.73,1.61c-0.85,0.85-1.58,1.82-2.14,2.94c-0.77,1.56-0.09,4.04,1.56,5.04
		c1.28,0.78,2.67,0.97,4.09,1c0.73,0.02,1.51,0.18,2.21-0.24c0.19-0.11,0.42-0.05,0.56,0.14c0.21,0.27,0.47,0.38,0.81,0.39
		c0.21,0,0.43,0.06,0.48,0.31c0.05,0.23-0.07,0.4-0.24,0.54c-0.42,0.37-0.85,0.6-1.45,0.64c-1.71,0.12-3.4,0.29-5.11-0.02
		c-1.5-0.27-2.88-0.83-4.12-1.71c-0.44-0.31-1.03-0.4-1.3-0.95c-0.09-0.19-0.32-0.46-0.26-0.54c0.47-0.68-0.25-1.28-0.08-1.93
		c0.03-0.12,0.1-0.3,0.05-0.38c-0.76-1.11,0.02-2.08,0.26-3.09c0.11-0.48,0.24-0.96,0.36-1.43c1.49-1.75,3.22-3.14,5.53-3.64
		c0.23-0.05,0.46-0.09,0.69-0.11c0.43-0.02,0.94-0.16,1.2,0.3C104.7,75.94,104.26,76.25,104.03,76.59z"/>
	<path class="st1" d="M53.89,49.68c-0.02-0.19,0-0.39,0.22-0.44c0.47-0.11,0.76-0.18,0.17-0.63c-0.17-0.13,0.39-0.6,0.08-0.96
		c0.39-0.19,0.27-0.63,0.46-0.94c0.32-0.49,0.66-1-0.16-1.48c-0.17-0.1-0.22-0.88-0.01-1.32c0.33-0.67,0.3-0.92-0.27-1.38
		c-0.05-0.04-0.1-0.14-0.08-0.18c0.52-1.02-0.3-2.09,0.15-3.12c0.39-0.88,0-2,0.85-2.75c0.1-0.09,0.18-0.31,0.14-0.43
		c-0.3-0.85,0.43-1.52,0.36-2.33c-0.02-0.24,0.12-0.52,0.42-0.41c0.34,0.12,0.01,0.32-0.01,0.5c-0.06,0.37-0.27,0.74,0.06,1.1
		c0.19,0.21,0,0.38-0.15,0.53c-0.16,0.18-0.19,0.38-0.02,0.56c0.15,0.16,0.35,0.25,0.56,0.22c0.25-0.04,0.16-0.28,0.21-0.44
		c0.5-1.62,0.6-3.29,0.71-4.97c0.05-0.79,0.19-1.65,0.63-2.37c-0.07,1.95-0.38,3.87-0.63,5.8c-0.68,5.13-1.07,10.28-1.51,15.43
		c-0.14,1.6-0.33,3.2-0.67,4.78c-0.22,0.99-0.78,1.67-1.6,2.18c-0.13,0.08-0.3,0.07-0.36,0.25c-0.24,0.74-0.91,0.42-1.21,0.29
		c-0.94-0.39-1.5-1.15-1.41-2.25c0.45,0.11,0.61,0.77,1.26,0.57c0.25-0.08,0.09,0.49,0.47,0.57c0.16-0.24,0.23-0.61,0.61-0.68
		c0.14-0.03,0.23-0.07,0.14-0.26c-0.25-0.51,0.02-0.81,0.44-1.07c0.24-0.15,0.46-0.36,0.24-0.7c-0.2-0.31-0.05-0.48,0.27-0.54
		c0,0,0,0.01,0,0.01c-0.19-0.91-0.35-1.82,0-2.73C54.35,49.75,54.1,49.73,53.89,49.68L53.89,49.68z"/>
	<path class="st1" d="M106.89,9.58c-0.82,0.26-1.63-0.03-2.45-0.04c-0.29,0-0.98-0.69-1.02-0.97c-0.04-0.23-0.18-0.1-0.27-0.11
		c-0.24-0.02-0.5,0.15-0.75-0.14c0.36-0.16,0.81,0.03,1.11-0.39c-0.46-0.15-0.56-0.45-0.3-0.85c1.06-0.06,2.12-0.17,3.16,0.08
		c1.02,0.25,1.41,0.86,1.23,1.8c-0.03,0.16-0.12,0.28-0.28,0.34c-0.23-0.06-0.38,0.02-0.44,0.26L106.89,9.58z"/>
	<path class="st1" d="M20.05,95.45c0.24-0.14,0.44-0.16,0.54,0.16c0.1,0.31,0.2,0.63,0.58,0.63c0.38,0,0.34-0.4,0.47-0.63
		c0.07-0.11,0.15-0.21,0.36-0.21c0.05,0.37,0.35,0.72,0.06,1.15c-0.06,0.09-0.08,0.28-0.02,0.36c0.55,0.82,0.03,1.73,0.2,2.59
		c0.14,0.71-0.67,0.74-1.08,1.04c-0.48,0.35-0.64-0.28-0.98-0.38C20.01,98.59,20,97.02,20.05,95.45z"/>
	<path class="st1" d="M77.52,48.6c-0.05,0.12-0.13,0.26-0.26,0.22c-0.19-0.06-0.07-0.21,0-0.3c0.28-0.38,0.17-0.75,0.01-1.13
		c-0.03-0.02-0.06-0.04-0.08-0.06c0.07-0.18,0.23-0.29,0.08-0.55c-0.37-0.63-0.06-1.45-0.3-2.04c-0.52-1.25,0.76-2.26,0.29-3.44
		c0.02-0.1,0.07-0.22-0.09-0.26c0,0,0.01,0.02,0.01,0.02c0.47-0.44,0.69-0.98,0.65-1.62c0-0.05,0.1-0.1,0.33-0.31
		c-0.27,0.77,0.15,1.36-0.27,2.05c-0.22,0.36,0.05,1.18,0.33,1.64c0.19,0.31-0.08,0.59,0.14,0.82c0.21-0.12,0.11-0.23,0.01-0.28
		c-0.13-0.08-0.24-0.01-0.31,0.13c-0.18,0.37-0.17,0.83-0.03,1.1c0.28,0.54,0.17,1.02,0.01,1.51c-0.12,0.39,0.15,0.71,0.1,1.15
		C78.07,47.83,77.68,48.14,77.52,48.6z M77.67,44.19c0.06-0.07,0.14-0.13,0.13-0.17c0-0.06-0.07-0.15-0.11-0.16
		c-0.11-0.02-0.18,0.05-0.15,0.17C77.55,44.08,77.61,44.12,77.67,44.19z"/>
	<path class="st1" d="M74.48,89.39c0.39,0.18,0.66,0.48,0.88,0.84c0.11,0.18,0.19,0.35,0.39,0.46c0.57,0.3,1.19-0.5,1.47-0.2
		c0.66,0.71,0.92-0.02,1.34-0.18c-0.18,0.71-0.45,1.36-0.99,1.89c-0.29,0.29-0.61,0.56-0.8,0.94c-0.05,0.09-0.09,0.26-0.28,0.16
		c-0.17-0.09-0.27-0.6-0.56-0.13c-0.19,0.31-0.34,0.65,0.07,0.94c0.07,0.05,0.05,0.19-0.08,0.3c-0.31-0.15-0.37-0.43-0.36-0.75
		c0.02-0.66-0.12-1.24-0.51-1.82C74.59,91.13,74.38,90.27,74.48,89.39z"/>
	<path class="st1" d="M88.82,48.54c0.58-1.07,0.25-2.29,0.5-3.42c0.13-0.57-0.27-1.14-0.25-1.74c0.01-0.2-0.05-0.41,0.01-0.61
		c0.76-2.35,0.4-4.81,0.66-7.21c0.04-0.36,0.1-0.66,0.4-0.87c-0.13,4-0.25,7.99-0.4,11.99C89.73,47.42,89.52,48.12,88.82,48.54z"/>
	<path class="st1" d="M114.6,50.89c-0.16-0.1-0.28-0.25-0.29-0.44c-0.09-1.64-1.57-2.22-2.47-3.23c-0.25-0.28-0.71-0.02-1.05-0.14
		c-0.31-0.11-0.68-0.06-0.94-0.31c0.95-0.29,1.9-0.19,2.83,0.06c0.81,0.21,1.33,0.74,1.6,1.55C114.56,49.2,114.7,50.03,114.6,50.89z
		"/>
	<path class="st1" d="M11.23,48.57c-0.78,1.97-1.48,3.98-2.57,5.81C8.31,51.9,9.6,50.16,11.23,48.57z"/>
	<path class="st1" d="M25.92,19.91c-0.84,0.84-1.03,2.1-1.87,2.95c0.02-0.58,0.17-1.13,0.37-1.66
		C24.68,20.53,25.11,19.98,25.92,19.91z"/>
	<path class="st1" d="M72.11,68.61c0.14-0.04,0.28-0.07,0.43-0.11c-0.13,1.03-0.25,2.06-0.38,3.08c-0.07-0.01-0.13-0.02-0.2-0.03
		c-0.16-0.66,0.14-1.29,0.18-1.93C72.15,69.29,72.43,68.94,72.11,68.61z"/>
	<path class="st1" d="M76.14,59.17c-0.05,0.09-0.11,0.18-0.16,0.27c-0.46-0.73-0.64-1.54-0.84-2.52
		C75.63,57.71,75.59,58.57,76.14,59.17z"/>
	<path class="st1" d="M77.98,49.45c0.13-0.31,0.15-0.66,0.38-0.93C77.96,48.74,78.01,49.11,77.98,49.45z"/>
	<path class="st1" d="M87.25,51.28c0.07-0.01,0.15-0.02,0.22-0.02c-0.04,0.38,0.5,0.52,0.41,0.97
		C87.41,52.07,87.35,51.66,87.25,51.28z"/>
	<path class="st1" d="M23.38,63.59c0.09-0.08,0.19-0.15,0.28-0.23c-0.02,0.63,0.28,1.21,0.34,1.83c-0.05,0.02-0.11,0.03-0.16,0.05
		C23.68,64.69,23.53,64.14,23.38,63.59z"/>
	<path class="st1" d="M20.6,107.89c-0.41,0.28-0.85,0.47-1.39,0.33c0.41-0.15,0.82-0.31,1.23-0.46
		C20.5,107.81,20.55,107.85,20.6,107.89z"/>
	<path class="st1" d="M78.33,31.51c0.06,0.11,0.11,0.16,0.1,0.18c-0.03,0.06-0.08,0.12-0.13,0.18c-0.02-0.04-0.07-0.08-0.06-0.12
		C78.25,31.68,78.29,31.61,78.33,31.51z"/>
	<path class="st1" d="M106.9,9.56c0.06-0.24,0.2-0.32,0.44-0.26C107.19,9.39,107.05,9.47,106.9,9.56z"/>
	<path class="st1" d="M20.87,107.39c0.08-0.16,0.19-0.29,0.37-0.35c0.04,0.03,0.09,0.07,0.13,0.1c-0.11,0.13-0.23,0.26-0.34,0.39
		C20.98,107.48,20.92,107.43,20.87,107.39z"/>
	<path class="st1" d="M21.03,107.53c-0.14,0.12-0.28,0.25-0.42,0.37c-0.05-0.04-0.11-0.09-0.16-0.13c0.14-0.13,0.28-0.25,0.43-0.38
		C20.92,107.43,20.98,107.48,21.03,107.53z"/>
	<path class="st1" d="M90.16,34.4c-0.21-0.1-0.19-0.2,0-0.31C90.16,34.2,90.16,34.3,90.16,34.4z"/>
	<path class="st1" d="M8.88,55.92c0.02,0.1,0.05,0.19,0.07,0.29C8.93,56.11,8.91,56.01,8.88,55.92z"/>
	<polygon class="st1" points="11.34,48.36 11.35,48.41 11.31,48.43 11.3,48.39 	"/>
	<path class="st1" d="M76.04,59.72c-0.02,0.06-0.04,0.13-0.06,0.19C76,59.85,76.02,59.78,76.04,59.72z"/>
	<path class="st1" d="M11.46,48.16c0.01,0.06-0.01,0.09-0.06,0.11C11.39,48.22,11.41,48.18,11.46,48.16z"/>
	<path class="st1" d="M90.7,13.91c0,0,0.01-0.01,0.01-0.01C90.71,13.9,90.7,13.91,90.7,13.91z"/>
	<path class="st1" d="M58.22,28.4c-0.03-0.04-0.03-0.07,0.01-0.1c0,0,0.03,0.05,0.03,0.05L58.22,28.4z"/>
	<path class="st1" d="M30.01,48.54c0.03-0.12,0.07-0.24,0.1-0.36C30.19,48.33,30.19,48.46,30.01,48.54z"/>
	<path class="st1" d="M50.83,54.15c0.03,0.03,0.04,0.07,0,0.1c0,0-0.03-0.05-0.03-0.05L50.83,54.15z"/>
	<path class="st1" d="M21.45,106.86c0.03-0.08,0.07-0.21,0.18-0.13c0.12,0.08-0.04,0.14-0.07,0.21
		C21.52,106.91,21.48,106.88,21.45,106.86z"/>
	<path class="st1" d="M21.56,106.93c-0.06,0.07-0.13,0.14-0.19,0.21c-0.04-0.03-0.09-0.07-0.13-0.1c0.07-0.06,0.14-0.12,0.21-0.18
		C21.48,106.88,21.52,106.91,21.56,106.93z"/>
	<path class="st1" d="M107.86,47.2l-0.06,0.04c0,0-0.07,0-0.07,0C107.76,47.19,107.8,47.18,107.86,47.2z"/>
	<path class="st1" d="M18.91,108.19c-0.02-0.01-0.04-0.03-0.06-0.04c0.01-0.02,0.03-0.05,0.04-0.05c0.02,0,0.04,0.02,0.05,0.04
		C18.94,108.15,18.93,108.17,18.91,108.19z"/>
	<path class="st1" d="M52.71,78.32c-0.07,1.67,0.34,3.28,0.17,4.95c-0.22,2.15-0.45,4.31-0.97,6.4c-0.51,2.03-1.26,3.98-2.41,5.74
		c-0.58,0.89-1.52,1.08-2.53,0.6c-0.32-0.15-0.32-0.3-0.05-0.49c1.31-0.98,1.93-2.41,2.52-3.85c1.11-2.71,1.49-5.57,1.82-8.45
		c0.08-0.72,0.39-1.42,0.38-2.13c-0.02-0.93,0.47-1.77,0.38-2.7c-0.02-0.23-0.01-0.52,0.3-0.54C52.63,77.84,52.66,78.13,52.71,78.32
		z"/>
	<path class="st1" d="M46.66,92.83c1.66-3.22,2.1-6.76,2.68-10.26c0.18-1.1,0.3-2.2,0.44-3.31c0.21,0.1,0.32,0.27,0.29,0.5
		c-0.25,1.74-0.38,3.5-0.52,5.25c-0.13,1.62-0.65,3.2-1.03,4.79c-0.23,0.97-0.56,1.89-1.3,2.62C47.05,92.6,46.9,92.78,46.66,92.83z"
		/>
	<path class="st1" d="M23.38,63.59c0.15,0.55,0.31,1.1,0.46,1.65c0.06,0.51-0.24,0.41-0.52,0.29c-1.02-0.43-1.54-0.32-2.21,0.47
		c-0.11,0.13-0.26,0.61-0.48,0.06c0.02-0.18,0.05-0.36,0.05-0.54c-0.03-1.16-0.04-1.26,1.03-1.34
		C22.36,64.14,22.8,63.72,23.38,63.59z"/>
	<path class="st1" d="M77.16,41.05c0.16,0.04,0.11,0.16,0.09,0.26C77.22,41.22,77.19,41.14,77.16,41.05z"/>
	<polygon class="st1" points="77.62,32.26 77.6,32.33 77.56,32.27 	"/>
	<path class="st1" d="M77.27,47.4l-0.07,0.01c0,0-0.01-0.07-0.01-0.07C77.21,47.36,77.24,47.38,77.27,47.4z"/>
	<path class="st1" d="M45.41,39.32c0.02-1.19,0.11-2.38,0.05-3.57c-0.09-1.89-0.62-3.67-1.64-5.29c0.37-0.22,0.56-0.12,0.89,0.2
		c0.97,0.92,1.41,2.05,1.66,3.31c0.1,0.47,0.72,0.25,0.95,0.69c-0.57,0.09-0.57,0.6-0.76,0.98c-0.09,0.19,0.02,0.33,0.22,0.43
		c0.82,0.42,0.89,0.72,0.34,1.42c-0.29,0.37-0.67,0.61-0.63,1.23C46.51,39.04,45.81,39.17,45.41,39.32z"/>
	<path class="st1" d="M58.13,78.09c-0.04-0.07-0.08-0.13-0.11-0.2c-0.09-0.17-0.35-0.33-0.13-0.53c0.17-0.15,0.35,0.04,0.45,0.17
		c0.24,0.3,0.07,0.46-0.23,0.55C58.11,78.09,58.13,78.09,58.13,78.09z"/>
	<path class="st1" d="M53.96,52.39c-0.11,0.07-0.17,0.14-0.23,0.14c-0.05,0-0.1-0.08-0.13-0.14c-0.01-0.03,0.04-0.12,0.05-0.12
		C53.71,52.28,53.77,52.31,53.96,52.39z"/>
	<path class="st1" d="M53.9,41.13c-0.03-0.04-0.07-0.08-0.07-0.12c0-0.02,0.05-0.06,0.08-0.08c0.03,0.04,0.07,0.07,0.08,0.12
		C53.98,41.07,53.93,41.1,53.9,41.13z"/>
	<polygon class="st1" points="53.9,49.68 53.87,49.71 53.89,49.68 	"/>
	<path class="st1" d="M94.04,11.17c0.04,0.02,0.09,0.03,0.11,0.06c0.03,0.05,0.07,0.13-0.04,0.15c-0.03,0-0.08-0.05-0.1-0.09
		C94.01,11.26,94.03,11.22,94.04,11.17z"/>
	<path class="st1" d="M95.58,11.6c-0.01-0.02-0.01-0.04-0.02-0.07c0,0,0.01-0.01,0.01-0.01c0,0.02-0.01,0.04-0.01,0.07
		C95.57,11.59,95.58,11.6,95.58,11.6z"/>
	<path class="st1" d="M54.23,52.79C54.23,52.79,54.23,52.78,54.23,52.79C54.23,52.78,54.23,52.79,54.23,52.79z"/>
	<path class="st1" d="M77.67,44.19c-0.06-0.07-0.12-0.11-0.13-0.16c-0.03-0.12,0.04-0.19,0.15-0.17c0.05,0.01,0.11,0.1,0.11,0.16
		C77.8,44.06,77.73,44.11,77.67,44.19z"/>
</g>
</svg>
