<?xml version="1.0" encoding="utf-8"?>
<!-- Generator: Adobe Illustrator 23.0.5, SVG Export Plug-In . SVG Version: 6.00 Build 0)  -->
<svg version="1.1" id="Layer_1" xmlns="http://www.w3.org/2000/svg" xmlns:xlink="http://www.w3.org/1999/xlink" x="0px" y="0px"
	 viewBox="0 0 411 341" style="enable-background:new 0 0 411 341;" xml:space="preserve">
<style type="text/css">
	.st0{fill:#264E68;}
</style>
<g>
	<path class="st0" d="M151.1,187.8c1.8-2.5,4-4.7,6.4-6.5c2.1-1.5,3.7-3.3,5-5.5c1.8,0.8,2.8-0.4,3.5-1.7c1-2.1,3-3.2,4.8-4.3
		c2.6-1.7,4.9-1.2,7.1,1.1c2,2.2,4.2,4.2,4.7,7.5c0.1,1.1,0.9,2,2,2.4c-0.1,0.9-0.3,1.8,0.7,2.4c12.5,7.9,17.8,20,19.6,34
		c2.1,16.7,1.3,33.2-3.6,49.4c-2.7,8.8-7.3,16.4-15.3,21.5c-0.9,0.6-1.9,1-2.9,1.5c-1.2-0.6-2.1-0.3-2.5,1.1c-0.3,0.1-0.7,0.3-1,0.4
		c-0.7-1-1.6-1.1-2.7-0.8c-4.8,1.3-9.6,0.2-14.4-0.3c-3.2-0.4-5.2-2.7-7.7-4.2c-3.8-2.2-5.3-6.5-8.9-8.8c-0.1-0.1-0.2-0.3-0.3-0.5
		c-1.1-3.4-2.6-6.8-2.8-10.4c-0.1-2.2-1.3-2.4-2.8-2.5c-2.2-0.1-1.4,1.6-1.5,2.7c0,0.5,0,1.1,0,1.6c-0.2-0.1-0.3-0.2-0.5-0.3
		c-0.2,0-0.3,0-0.5,0c-4.6,10.9-11.8,19.7-21.2,26.7c-12.2,9.1-25.4,16.4-39.4,22.4c-1.5-0.8-2.8-0.2-4.2,0.3
		c-5.4,1.8-10.9,3.2-16.7,3c-1.3-0.1-2.5-0.3-2.8-1.6c-0.2-1.2-0.8-2.4,1.2-3.2c1.7-0.7,0.7-2.2-0.5-3c-0.5-0.3-1.2-0.5-1.2-1.3
		c0.1-0.9,0.8-1.1,1.5-1.2c3.5-0.8,6.4-3.1,9.6-4.5c3.8-1.7,7.3-4.2,11.2-5.7c1.3-0.5,1.6-1.3,1.1-2.5c9-5,18.2-9.5,26.6-15.5
		c5.1-3.6,9.7-7.7,13.2-12.9c0.8-1.1,1.4-2.3,2-3.6c3.5-7.6,1.8-12-6.1-14.9c-8.5-3.1-17.3-3.2-26.1-2c-2.4,0.3-4.8,1.2-7.2,1.2
		c-3.1,0-3.6,1.7-3.8,4.2c-0.7,9.2-1.5,18.5-2.3,27.7c-0.1,1.1-0.4,2.1-0.6,3.2c-1.8,0.4-3,1.5-3.4,3.4c-0.5,1.8-2,2.5-3.7,2.5
		c-1.7,0-1.8-1.4-1.8-2.7c0-1.2-0.7-1.4-1.6-1c-2.6,1.1-3.4-0.5-4-2.5c-0.6-1.9-0.7-4-2.7-5.1c-0.4-9.1-0.3-18.2,0.7-27.2
		c1.6-14.8,3.7-29.6,6.5-44.2c0.4-2.3,0.9-4.6,2.9-6.3c3.1-2.7,6-2.8,8.9,0.1c3.4,3.3,4.8,7.6,5,12.3c0.2,5-0.6,10-1.2,14.9
		c-0.1,0.6-0.4,1.3,0.3,1.7c0.6,0.3,1-0.3,1.4-0.6c10.8-7.9,21.4-16.1,29.9-26.5c1.2-1.4,2.2-2.9,2.9-4.6c1.6-4.4,0.5-6.9-3.9-8.1
		c-9.9-2.6-19.8-2.1-29.7,0.3c-2.3,0.6-4.6,1.2-6.8,1.8c-0.7-1-1.5-0.7-2.4-0.4c-5.7,1.7-10.5,5.2-16.1,7c-0.7,0.2-1.4,0.8-2.1,1.3
		c-3.3,2.7-6.8,5-10.6,6.9l0,0c-0.1-0.8-0.1-1.6-0.3-2.4c-0.1-0.4-0.3-1-0.9-0.6c-0.4,0.3-0.7,1.5-1.2,0.3c-0.3-0.6-1.2-1.2-0.3-2.4
		c1.1-1.5,2.4-3.4,0.7-5.5c-0.4-0.5,0-1,0.5-1.4c1.8-1.3,3.1-3.1,4.7-4.5c1.8-1.6,4.5-2.6,5-5.5c9.2-5.9,19.3-9.8,30.1-11.3
		c8.2-1.2,16.3-2.9,24.7-1.8c5.1,0.7,10.3,1.4,15.1,3.3c0.5,2.1,3,3,3.5,5.1c0.6,2.6,2.4,3.3,4.6,3c1.8-0.3,2.6,0.5,3.4,1.9
		c1.4,2.6,1.9,5.4,1.6,8.4c-0.1,1.2-0.4,2.4,0.9,3.1c-2.7,9.1-8.5,16.1-14.9,22.8c-4.1,4.2-8.7,7.8-13.5,11.3c1.4,2,3.6,1.3,5.2,1.7
		c7.1,1.4,13.9,3.4,19.9,7.5c0.6,0.4,1.3,1.4,2.1,0.9c0.8-0.4,0.3-1.5,0.3-2.3c0-4.4,0.1-8.7,1.1-13c0.8,1.2,1.3,1,1.7-0.3
		c0.8-2.6,1.1-5.3,2.1-7.9c0.9-2.2,1.9-4.3,2.6-6.6c1.7-5.3,4.7-9.9,8-14.4C148.9,194.2,151,191.5,151.1,187.8z M191,237.5
		c1.4-1,0.3-2.6,0.7-3.8c1.6-4.6,0-9-0.6-13.6c-0.5-4-1.8-7.9-2.1-11.9c-0.1-1.8-0.6-3.4-1.6-4.7c-1.4-1.8-2.3-3.9-3-6.1
		c-1.1-3.4-3.1-4.9-6.4-5c-0.9,0.3-1.3,1.2-1.9,1.9c-3.6,4.2-5.8,9.3-8.1,14.3c-2.4,1.2-3.9,3.6-6.8,4.5c-1,0.3-1.8,0.9-2.7,0.2
		c-2.2-1.9-3.7-0.8-4.9,1c-1.2,1.6-2.3,3.2-3,5.1c-1.8,4.4-1.9,9.2-3,13.8c-1.5,6.3-0.9,12.7,0.1,18.9c1.2,7.5,4.2,14.6,8.8,20.8
		c2.6,3.4,6.1,5.7,10.1,5.5c4.5-0.1,8.9-1.6,13.4-2.2c1.9-0.2,2.1-2.3,1.6-3.7c-0.4-1.1-0.2-1.4,0.6-1.5c2.3-0.2,2.8-1.6,2.9-3.6
		c0.1-0.8,0.3-1.8,0.8-2.3c2-2,2.6-4.4,3-7c0.6-3.9,2.6-7.7,0.9-11.8c-0.3-0.9,0.1-1.7,1-1.9c1.5-0.2,1-1,0.8-1.9
		C191.2,240.9,190.2,239.3,191,237.5L191,237.5z"/>
	<path class="st0" d="M240,167.7c10.1-0.3,19.9,1.3,29.3,5.2c2.5,1.1,4.9,2.4,7.1,4c1.3,0.9,1.9,0.7,2-1c0-1.2,0.2-2.4,1.1-3.3
		c0.7-0.9,0.7-2.3,2.1-2.6c2.9-0.6,5.7-1.8,8.7-0.7c2.4,1.9,3.8,4.6,5.2,7.2c6.1,12,10.6,24.6,15.1,37.3c1.4,3.8,2.9,7.6,4.4,11.4
		c0.4,1,0.8,1.8,1.6,0.3c1.2,0,2.3-0.5,3.4-1c0.9-0.4,1.4-0.9,0.7-1.9c-1.1-1.4-0.3-2.5,0.5-3.6c2.7-3.9,5.4-7.7,5.5-12.8
		c0-0.8,0.5-1.4,1.1-1.8c1.2-1,1.6-2.4,2.4-3.6c2.4-3.8,2.4-8.7,5.5-12.2c2.6-3.1,3.6-7.1,5.7-10.5c1.4-2.2,3.8-3.8,4.5-5.8
		c1.5-4,3.2-7.9,6-11.1c2.9-3.4,4.6-7.6,8.6-10.2c4.4-2.9,9.5-1.8,11.7,2.9c0.4,0.9,0.6,2-0.4,2.4c-3.7,1.3-4.8,5.2-7.7,7.4
		c-5.5,4.2-8.3,10.9-12,16.6c-2.2,3.4-4.7,6.8-6.7,10.4c-1.7,3.1-3.3,6.4-6.1,8.8c-0.5,0.5-1.1,1.1-0.8,1.9c0.5,1.6-0.6,2.8-1.2,4.1
		c-2,4.3-4,8.5-6,12.7c-1.1,2.3,0.3,5.1-1.6,7.2c-0.2,0.2,0,0.9,0.2,1.3c1,2.1,0.4,4.1-0.3,6.1c-0.3,1-0.7,2.1-1,3.1
		c-1.8,7.2-3.2,14.5-6.7,21.1c-0.6,1.1-0.5,2.1,0.6,2.9c-2.3,10.2-4.9,20.3-6.5,30.7c-1.4,8.8-1.2,17.8-1.5,26.7
		c0,0.4,0.1,0.7,0,1.1c-0.1,0.7,0.2,1.6-0.9,1.7c-1.3,0.1-1.2-0.9-1.2-1.7c0-4.8,0.1-9.6,0.1-14.4c0.2-1.6,0.5-3.2,0.6-4.9
		c0.2-2.5,1.2-5.6,0.1-7.4c-1.2-1.9-1-3.4-0.9-5.2c0.1-1.3-0.3-2.5-0.7-3.7c-0.2-0.5-0.5-1.1-1.2-0.9c-0.6,0.1-0.7,0.7-0.8,1.3
		c-0.8,4.3,0.4,8.6-0.7,12.9c-0.3,1.1-0.5,2.2-1.5,2.7c-1.1,0.6-1.8-0.4-2.6-1c-1.7-1.2-2.1-3.3-3.6-4.6c-0.9-4.9-0.6-9.8,0.1-14.7
		c1.9,1.9,1.4-0.3,1.5-1c0.4-2.1-0.4-4.8,3.7-5.1c-3.1-1.3-2.5-3.2-1.7-5c2.5-6,4.5-12.2,4.2-18.9c-0.1-2.1-0.6-3.5-2.8-4
		c-5.4-9.9-10.1-20.1-14.9-30.4c-0.4,1.6-0.8,3.3-1.3,4.8c-3.3,10.6-9,20.1-15.4,29c-10.2,14.3-22.6,26.6-35.7,38.2
		c-3.1-0.9-4.9,0.8-4.3,3.8c-0.4,0.4-0.8,0.7-1.2,1.1c-3.2-0.4-5.6,1.5-7.4,3.4c-2.7,2.7-5.6,5.2-8.7,7.3c-5.3,3.6-9.5,3.3-13.1-0.5
		c-0.9-1-1.3-1.7-0.4-3c1.7-2.6,1.3-3.6-1.8-4.6c1.7-9.8,3.5-19.5,4.9-29.3c3.1-20.8,6-41.7,8.9-62.6c0.8-5.4,2-10.7,2.2-16.2
		c0.4-1.1-0.3-1.5-1.1-1.2c-1.8,0.7-3.5,0.3-5.3-0.3c-1.1-0.4-2.5-0.5-3.5,0.1c-2.2,1.3-4.2,0.4-6.2-0.5c-3-1.3-3.2-2.9-0.7-4.9
		c3.7-3,8.2-4.6,12.5-6.4c2.3-1,5-1.3,6.4-3.7c2.2-0.1,2.6-2.1,3.7-3.4c1.1,0,2-0.6,2.9-1.2c3.8-2.6,7.9-1.7,10.5,2
		c0.3,0.4,0.8,0.6,1.3,0.9c0,0,0.1,0,0.1,0C239.3,167.4,239.7,167.5,240,167.7z M222.6,279.7c0.4-0.1,0.7-0.1,0.8-0.2
		c8.5-7.4,16-15.7,23.7-23.9c4.9-5.3,8.9-11.4,13.1-17.4c5.4-7.8,10.3-15.9,12.5-25.2c1.9-8.1,0.5-15.2-5.8-20.9
		c-7.6-6.8-16.5-10.4-26.8-10.2c-1.7,0-2.3,0.7-2.4,2.2c-0.6,5.8-1.8,11.5-2.7,17.3c-1.2,8.2-2.6,16.4-3.9,24.7
		c-2.2,13.7-4,27.5-6.1,41.2C224.2,271.5,223.3,275.6,222.6,279.7z"/>
	<path class="st0" d="M57.1,57.9c-0.1,0.9-0.2,1.8-0.3,2.7c-1.3,1-2.5,2-0.3,3.4c-1.7,10.7-4,21.3-6.6,31.8
		c-2.2,8.8-3.9,17.8-5.8,26.7c-1.7,8-4.4,15.8-5.2,23.9c-0.3,2.9-0.4,3,2.3,2c13.4-4.7,27.2-7.8,41-11.3c2.2-0.6,2.6-1.3,2.2-3.5
		c-4.4-27,0.8-51.6,18.7-72.9c4-4.8,9.3-7.7,14.7-10.7c0.9,0.6,1.6-0.1,2.1-0.6c1.9-1.7,4-2.6,6.4-3.4c4.1-1.4,9.1,1,10.1,5.3
		c0.4,2,1.1,1.7,2.2,0.7c9.1,2.7,14.3,9.1,16.8,17.8c7.7,27.3,5.3,53.2-10.6,77.3c-6.4,9.7-15.7,14-26.6,15.5
		c-2.3,0.3-2.8,1.2-2.9,3.2c0,2.1,0.3,4.4-1,6.8c-0.6-2.5-0.2-4.5,0.1-6.6c0.3-1.8,0.1-2.6-2.1-2.9c-7.1-1.1-13.4-4.1-18.1-9.7
		c-1.2-1.5-2.2-1.6-3.9-1.1c-17.3,5.4-34.7,10.7-52.1,16c-1.8,0.5-2.5,1.5-2.6,3.2c-0.1,2.6-0.6,5.2-1.7,8.2
		c-0.9-2.9-0.1-5.3,0.2-7.6c0.3-2.3-0.4-2.4-2.3-1.9c-2.2,0.6-4.4,0.9-6.7,1.4c-0.9,0-1.8,0-2.7,0.5c-1.4-0.1-2.9-0.3-4.3-0.4
		c-0.2,0-0.4,0-0.6,0c-2.2,0.1-4.1-0.6-5.1-2.6c-0.9-1.9-0.2-3.6,1.2-5c1,0.4,1.7,0,2.4-0.7c1.6-1.4,3.2-3.1,5.2-4
		c4.1-1.8,5.5-5.1,5.5-9.2c0-12.2,1.9-24.1,3.1-36.2c0.4-4,1.4-8,1.3-12.1c-0.1-1.9,0.7-4,1.2-6c1.4-5.2,5.4-9.8,3.3-15.7
		c-0.1-0.1,0-0.4,0.1-0.5c2-1.5,0.7-3.7,1.3-5.6c1.6-4.9,2-10.1,2.6-15.2c0.4-3.5,2.1-6.1,4.1-8.8c-2.2-0.5-2.2-1.4-0.6-2.8
		c0.7-0.6,1.4-1.5,1.9-2.3c0.9-1.4,2.2-1.9,3.4-0.8c1.3,1.2,2.7,2.8,1.7,4.6c-0.9,1.7-1,3,0.4,4.3C52.5,54.7,55.5,55.5,57.1,57.9z
		 M111.3,142.6c-1.3,1-2.6,1.9-3.9,2.9c-0.7,0.5-1.2,1.1-0.4,2c1.5,1.4,2.8,3.2,4.8,3.9c5.8,1.9,14.8,1.7,18.5-7
		c0.5-1.1,1.1-2.2,1.6-3.4c2,0,2.2-1.7,2.7-2.9c2.7-6.4,5.5-12.7,6.9-19.7c1-5.3,0.7-10.6,1.6-15.9c0.3-2,0.8-4,0.1-6
		c-1.7-5.6-1.3-11.4-2.7-17.1c-1.4-5.8-4.3-10.7-7.3-15.6c-1-1.6-2.9-1.4-3.3,0c-0.7,2.7-3.3,4.1-4.1,6.8c-0.7,2.6-1.8,5.2-3.7,7.2
		c-1.3,1.4-3,3-4.8,2.8c-1.9-0.2-0.9-2.6-1.3-4c-0.2-0.8-0.3-2.3-1.6-1.4c-1.6,1.1-3.9,1.9-3.8,4.5c-0.2,0.2-0.4,0.4-0.5,0.6
		c-9.4,16.5-10.5,34.4-9.2,52.7c0.1,1.6,1.1,2.1,2.5,2.4c2.1,0.4,4.3,0.5,6.2,1.8C110.8,138.8,112.3,140.3,111.3,142.6z M133.5,60.3
		c-0.2-0.4-0.6-0.8-1.2-0.9c-0.4-0.1-0.8,0.1-0.8,0.5c0,0.7,0.6,0.9,1.2,0.9C133.1,61,133.4,60.9,133.5,60.3z"/>
	<path class="st0" d="M252.8,75c-5.1,16.3-10,32.6-14.3,49.1c-0.8,3.2-1.9,6.4-2.8,9.7c-2.6,1.4-3.5,4.5-4,6.7
		c-0.8,2.8-0.1,6.1-2.7,8.4c-1.9-0.9-4.3-1.6-3.3-4.8c0.2-0.7-0.3-1.4-1.2-1.6c-0.8-0.2-1.4,0.3-1.9,0.8c-0.8,1-0.9,2.1-0.8,3.3
		c0,3.3-1.5,4.2-4.3,2.6c-0.6-0.3-1.4-0.5-2-0.7c-2.3-2.3-2.1-5.3-2.5-8.1c-1.8-10.5-3.4-21-5.2-31.5c-0.7-4-1.5-8-2.6-12
		c-3.7,10.5-5.3,21.4-8.3,32c-0.2,0-0.3,0-0.5,0c0-0.1-0.1-0.1-0.1-0.2c0,0.1,0.1,0.1,0.1,0.2c-0.8,0.8-1.7,1.5-2.6,2.1
		c-1.5,1-2.7,2.3-4.7,2.3c-0.7,0-0.6,1.2-0.4,1.9c1,3.7,0.4,7.6,1.3,11.3c0.6,2.4-0.9,3.8-2.9,4.1c-1.9,0.3-3.2,1-4.1,2.6
		c-0.6,1.1-1.5,0.7-2.4,0.7c-1.1,0-1-0.9-1.1-1.6c-0.1-0.9-0.3-2-1.4-2.1c-3.1-0.3-3.7-2.6-3.9-5c-0.1-0.9-1.2-2.2,0.1-2.7
		c1.4-0.5,0.5,1.7,1.8,2c0.8-1,0.2-2-0.1-3c-1.1-3.6-2.5-7.2-2.8-11c-0.2-3.2-0.4-6.3-2.4-9c-0.7-1-0.8-2.1-0.3-3.4
		c0.3-0.8,0.7-1.7-0.1-2.7c-1,0.8-1.9,1.6-2.9,2.4c-2.3-13.1-4.6-26.3-7.1-39.4c-0.9-4.6-2.1-9.2-3.2-13.8c-1-4.5-1.3-9-0.1-13.4
		c1-0.1,1.6-0.7,2.2-1.5c1.5-2.2,3.6-3.5,6.1-4.2c1.4-0.4,2,0,2.9,1c1.8,1.8,1.6,4.2,2.3,6.3c1.3,3.9,2.4,7.7,2.7,11.9
		c0.3,4.2,1.4,8.5,2.7,12.5c1.1,3.5,1.4,7.1,1.6,10.6c0.2,4.1,2.7,7.5,4,11.3c0,0.1,0.3,0.1,0.5,0.2c0.6,3.1,1.2,6.2,1.8,9.4
		c1-0.4,0.9-1.2,1-1.8c2.7-10.3,5.4-20.6,8.2-30.8c1.7-6.3,4.2-12.2,8.7-17.1c0.7-0.8,1.1-1.8,1.6-2.8c2.6-1.4,5.5-0.8,8.3-1.1
		c3.6,4.3,4.6,9.6,5.9,14.8c2.7,11.6,4.7,23.3,6.5,35.1c0.1,0.7-0.1,1.5,0.9,2c1.5-3.9,2.3-8,3.4-12c2-7.2,3.8-14.4,5.7-21.6
		c0.4-1.6,0.9-3.1,0.5-4.8c-0.1-0.4,0-1,0.2-1.3c2.5-3.1,2.7-7.1,4-10.6c3.7-10.4,6.6-21.2,12.2-30.9c0.9-1.5,1.7-3,3.1-4.1
		c0.5,1.9,2.1,1.8,3.5,1.6c2.7-0.4,3.7,0.8,3.5,3.3c-0.1,1.6,0.5,2.8,2.2,3.3c2.2,0.6,1.8,2.2,1,3.4c-1.6,2.1-1.3,4.3-0.7,6.6
		c-0.5,1.5-0.9,3.1-1.6,5.4c8.5-5.3,16.5-9.7,25.4-12.3c1,1.6,2.8,0.4,3.9,1c1.2,0.6,2.1,2.6,3.3,0c0.2-0.4,0.7-0.2,0.8,0.2
		c0.4,1.6,2,0.3,2.7,1.1c-0.2,1.2-1.1,1.6-2,1.6c-2.3-0.1-3.7,0.8-4.7,2.9c-0.4,0.9-1.5,1.8-2.9,0.6c-0.8-0.7-5.5,0.9-5.5,2
		c-0.1,3.3-2.1,5.3-4.6,6.8c-3,1.8-5.2,4.9-10.1,4.7c3,1.6,1.4,2.4,0.5,3.6c-1.6,2.2-4.4,2.9-6.1,4.9c-1.7,2.1-2.7,2.4-3.6-1.3
		c-0.6,3.1-1.8,4.9-3.2,6.8C254.4,70,252.9,72.2,252.8,75z M290.4,35.4c-0.8,0.2-1.2,0.7-1.4,1.4c-0.1,0.4,0.1,0.8,0.5,0.8
		c0.8-0.1,1.2-0.7,1.5-1.4C291.1,35.8,290.9,35.5,290.4,35.4z"/>
	<path class="st0" d="M383.7,129.4c0.5,0.6,1.1,1.1,1.6,1.7c-1.2,1.4-1.9,3-0.7,4.7c1.7,2.4,2.5,5,2.3,7.9c-0.5,0.2-1.1,0.3-1,1
		c0,0.1,0.1,0.2,0.2,0.2c0.7-0.1,0.7-0.7,0.8-1.2c0.8,0.4,1.5,0.9,1.1,1.9c-0.3,0.9-1.1,1.2-1.9,1.3c-1.2,0.2-8.8-4-9.2-5.1
		c-0.2-0.4-0.1-0.9-0.1-1.3c-0.1-2.1-1.4-3.3-3.3-2.5c-1.4,0.6-1.9,0-2.8-0.7c-1.7-1.3-2.8-3.5-5.4-3.2c-3.8-3.6-7.5-7.4-11.5-10.8
		c-7.5-6.5-15.7-11.6-25.2-14.7c-1.9-0.6-2.6-0.3-2.9,1.7c-0.3,2-0.9,3.9-1.3,5.8c-0.2,0.8-0.7,1.9,0.9,2c0.7,2.6,1.3,5.2-0.5,7.6
		c-3.4,1.1-3.5,4-3.8,6.8c-0.6,5.8-1.5,11.5-2.8,17.2c-0.6-0.4-0.1-2.6-1.9-1.1c0.1-0.3,0.1-0.6,0.2-0.9c0-0.2,0.1-0.4,0.1-0.7
		c0.8-5.7,1.6-11.4,2.4-17.2c-1.5-0.2-1.9,0.8-2.6,1.5c-1.8-0.2-3.5,0.3-4.2,1.9c-1.3,2.9-3.5,3.7-6.3,3.9c-0.1-0.7-0.1-1.5-0.2-2.2
		c-0.2,0-0.4-0.1-0.6-0.1c-9.3,5.3-18.4,10.9-27.9,15.9c-5.3,2.8-10.5,5.9-16.6,7.1c-7.2,1.3-10.3-0.7-11.8-8
		c-2.2-10.5-1.2-20.8,1.3-31c2.4-9.9,4.8-19.8,7.5-29.5c0.9-3.3,1.2-6.8,2.7-9.9c1.6,0.1,2.5-0.9,3.1-2.2c0.6-1.3,1.1-2.7,1.7-4
		c0.3-0.7,0.4-1.7,1.3-1.4c1.2,0.3,0.7,1.2,0.4,2c-0.3,1-0.8,2.4,0.8,2.6c2.2,0.4,1.9,1.6,1.2,2.9c-0.4,0.7-1.1,1.4-0.2,2.1
		c0.7,0.6,1.6,0.2,2.3-0.1c1.4-0.5,1.6-1.8,2.2-2.9c0.3-0.6,0.9-1.1,1.6-0.6c0.7,0.5-0.1,0.8-0.3,1.3c-0.8,1.6-0.8,3,1.2,3.6
		c-0.5,1.8-1,3.5-1.6,5.6c2.7-0.6,5.1-1.2,7.6-1.7c1.2,0.6,2.3,0.1,3.4-0.2c4.1-1.1,8.1-0.2,12.1,0.7c1.4,0.3,2.4,1.4,2.7,2.8
		c0.4,1.6-1,2.1-2,2.9c-1.3,1.1-2.9,1.9-4.5,2.5c-1.3,0.6-2.4,1.3-2.4,3c-3.3,1.4-6.6,2.9-10,4.2c-4.3,1.7-7.8,5-12.5,5.8
		c-1,0.2-0.9,1-1.2,1.6c-0.2-0.5-0.4-1-0.8-1.4c-1.3-1.6-5.3-2.1-6-0.7c-1.1,1.9-2.4,3.7-3,5.8c-1.5,5.6-1.9,11.5-2.3,17.3
		c-0.3,3.9,0.2,8-0.2,12c-0.2,1.5,0.6,2.1,2,1.5c2-0.9,4.4-1.4,5.5-3.8c12.2-8.2,25.4-14,39.4-18.1c4.2-1.2,6.8-2.7,6.6-7.4
		c0-1.3,0.5-2.7,0.8-4c1.3-6.4,1.3-6.4-5.3-6.7c0.8-1.7,1.1-3.5,1.1-5.4c2.3-0.9,4.7-1.8,7-2.8c2.1-1.3,4.2-2.8,6.7-0.9
		c0,0,0.2-0.2,0.7-0.6c-2.5-1.5-3.4-4.4-6.1-5.6c-0.1-0.2-0.1-0.3-0.2-0.5c-2.7-4.2-2.7-4.2,2.1-5.2c1.8,0.8,2.7,0,2.7-1.7
		c0.1-1.7,0.8-3.1,1.7-4.5c0.9-1.4,1.8-2.9,1.7-4.5c-0.1-2.3,0.9-4.2,1.7-6.2c2-4.8,3.9-9.7,6.6-14.2c0.8-1.4,1.5-2.8,3.3-2.8
		c1.9,0,3.5,0.4,4.4,2.5c0.4,0.9,0.7,2.5,2.5,1.6c1.1,2.4,0.9,4.8,0.2,7.2c-1.6,5.9-3.9,11.5-6,17.2c-0.4,0.9-1.2,1.9-0.6,3.3
		c14.3-3.7,26.8-10.4,36.9-21.4c1.6,1.5-0.2,4.7,2.8,5.5c0.2,0.1-0.2,0.8-0.5,1.1c-0.3,0.3-1.1,0.6-0.7,0.9c1.6,1.7,0.6,2.7-0.8,3.7
		c-0.6,0.4-0.4,1.2,0,1.7c0.3,0.5,0.6,1,0,1.4c-2.2,1.8-3.2,4.9-6.3,5.7c-1.2,0.3-2.2,1.3-3.1,2.1c-4.1,3.6-8.8,6-13.8,7.8
		c-3.3,1.2-5,3.4-6.3,6.3c-1.3,1.5,0.5,1.4,1,1.6c9.1,4.5,17.5,10,25.4,16.3c5.6,4.4,10.5,9.6,15.2,14.9c-0.4,0.2-1,0.5-0.7,0.9
		C383,130.4,383.4,129.7,383.7,129.4z M385.9,141.1c-0.2-0.9-0.7-1.2-1.4-1.3c-0.1,0-0.4,0.5-0.3,0.6
		C384.5,140.9,385,141.3,385.9,141.1z"/>
	<path class="st0" d="M275.6,82.5c-2-0.7-2.1-2-1.2-3.6c0.2-0.4,1-0.8,0.3-1.3c-0.6-0.5-1.2,0-1.6,0.6c-0.6,1.1-0.9,2.4-2.2,2.9
		c-0.8,0.3-1.6,0.7-2.3,0.1c-0.9-0.7-0.2-1.4,0.2-2.1c0.6-1.3,1-2.5-1.2-2.9c-1.5-0.2-1.1-1.6-0.8-2.6c0.2-0.8,0.7-1.7-0.4-2
		c-0.9-0.2-1,0.8-1.3,1.4c-0.6,1.3-1.1,2.7-1.7,4c-0.6,1.3-1.5,2.3-3.1,2.2c1.2-4.7,2.7-9.3,4.7-13.8c-4.7,2.5-7.9,6.9-12.3,9.7
		c0.1-2.8,1.7-5,3.2-7.1c1.4-1.8,2.6-3.7,3.2-6.8c0.9,3.7,1.9,3.4,3.6,1.3c1.6-2,4.4-2.7,6.1-4.9c0.9-1.2,2.5-2-0.5-3.6
		c4.8,0.2,7.1-2.9,10.1-4.7c2.5-1.5,4.5-3.5,4.6-6.8c0-1,4.7-2.7,5.5-2c1.4,1.2,2.5,0.3,2.9-0.6c1-2.1,2.4-3,4.7-2.9
		c0.9,0,1.8-0.4,2-1.6c-0.7-0.8-2.3,0.6-2.7-1.1c-0.1-0.4-0.7-0.6-0.8-0.2c-1.2,2.6-2.1,0.6-3.3,0c-1.2-0.6-2.9,0.6-3.9-1
		c9-2.7,18-4.2,27.3-1.6c2.3,0.6,4.4,0.6,6.5-0.9c1.7-1.2,3.6-2,5.7-2.6c-1.5,2.5-4.1,4-4.9,7c-0.3,1.2-1.6,1.1-2.2-0.1
		c-0.9-1.7-2.2-1.8-3.9-1.2c-4,1.5-6.8,4.5-9.7,7.3c-0.5,0.5-1.4,1.3-0.6,2.1c0.6,0.6,1.3-0.2,1.9-0.6c2.4-1.6,4.9-2.8,8.2-3.3
		c-1.8,3.4-4.7,5.5-6.1,8.9c1.7,0.5,3.4-1.8,4.5,0.2c1.7,3,2.8,1,3.9-0.3c0.9-1,1.1-2.5,2.5-3.1c2.9-1.2,5.5-2.8,8.1-4.4
		c2.6-1.6,4.9-3.7,7.9-5c7.9-3.2,15.8-2.5,23.6-0.7c2.5,0.6,4.9,1.6,7.5,1.9c1.1,0.1,2.2-0.2,3.1,0.6c2.6,2.1,5.3,3.9,5.6,7.8
		c0.1,1.8,1.9,2.6,3.7,2.4c1.1-0.1,3.6-4.3,3.4-5.5c-0.7-4.1-3.3-6.9-6.6-9.2c-1.1-0.7-3-0.9-2.7-2.9c4.6,2,8.5,4.8,11.9,8.5
		c5.9,6.3,6.8,14.3,2.7,22.8c-4.4,9.1-11,16.2-19.1,22c-8.6,6.2-18,10.5-28.2,13.2c1.3-2.9,3-5.1,6.3-6.3c5-1.8,9.8-4.2,13.8-7.8
		c0.9-0.8,2-1.8,3.1-2.1c3.2-0.8,4.2-3.9,6.3-5.7c0.6-0.5,0.2-1,0-1.4c-0.3-0.6-0.6-1.3,0-1.7c1.4-1,2.4-1.9,0.8-3.7
		c-0.4-0.4,0.4-0.7,0.7-0.9c0.4-0.3,0.7-1,0.5-1.1c-3-0.8-1.2-4-2.8-5.5c1-1.4,2.1-2.7,3-4.2c3-4.6,2.5-8.4-1.4-12.2
		c-2.9-2.8-6.3-4.6-10.2-5.4c-11.3-2.2-22.1-1-31.8,5.8c-2.8,1.9-5.4,4-8.1,6c-3.8,2.7-8,4.3-12.1,1.4c-2.2-1.5-4.8-2.5-6.9-4.2
		c-1.1-0.9-2.3-0.9-3.6-0.6c-4.5,1.2-8.9,2.6-13.2,4.2c-4,1.5-7.9,3.4-11.5,6.2c6.4,1.8,7.5,3.3,6.3,9.3
		C279.7,71.8,278,77.2,275.6,82.5z"/>
	<path class="st0" d="M374.4,29.6c-0.3,2,1.6,2.2,2.7,2.9c3.4,2.3,5.9,5.1,6.6,9.2c0.2,1.2-2.3,5.4-3.4,5.5
		c-1.8,0.2-3.6-0.6-3.7-2.4c-0.3-3.9-3.1-5.7-5.6-7.8c-1-0.8-2.1-0.5-3.1-0.6c-2.6-0.3-5-1.3-7.5-1.9c-7.8-1.8-15.7-2.5-23.6,0.7
		c-3.1,1.2-5.3,3.3-7.9,5c-2.6,1.6-5.2,3.2-8.1,4.4c-1.4,0.6-1.7,2.1-2.5,3.1c-1.1,1.3-2.2,3.4-3.9,0.3c-1.1-2-2.8,0.3-4.5-0.2
		c1.3-3.3,4.2-5.5,6.1-8.9c-3.3,0.5-5.9,1.7-8.2,3.3c-0.6,0.4-1.3,1.2-1.9,0.6c-0.8-0.8,0.1-1.6,0.6-2.1c2.9-2.9,5.7-5.9,9.7-7.3
		c1.7-0.6,3-0.5,3.9,1.2c0.7,1.2,1.9,1.4,2.2,0.1c0.8-3,3.4-4.6,4.9-7c15.2-6.9,30.3-6.4,45.3,0.6c0.2,0.1,0.4,0.2,0.6,0.4
		C373.4,29.2,373.9,29.4,374.4,29.6z"/>
	<path class="st0" d="M322.5,259.9c-1.1-0.8-1.2-1.8-0.6-2.9c3.5-6.6,4.9-13.9,6.7-21.1c0.3-1.1,0.7-2.1,1-3.1c0.6-2,1.3-4,0.3-6.1
		c-0.2-0.4-0.4-1.1-0.2-1.3c1.8-2.1,0.5-4.9,1.6-7.2c2-4.2,4-8.5,6-12.7c0.6-1.3,1.7-2.4,1.2-4.1c-0.2-0.8,0.3-1.4,0.8-1.9
		c2.8-2.4,4.4-5.8,6.1-8.8c2-3.6,4.5-7,6.7-10.4c3.7-5.7,6.4-12.4,12-16.6c2.9-2.2,4-6.1,7.7-7.4c1-0.3,0.8-1.5,0.4-2.4
		c-2.2-4.8-7.3-5.8-11.7-2.9c-4,2.6-5.7,6.9-8.6,10.2c-2.8,3.2-4.5,7.1-6,11.1c-0.8,2-3.2,3.6-4.5,5.8c-2.1,3.4-3,7.4-5.7,10.5
		c-3,3.5-3,8.4-5.5,12.2c-0.8,1.2-1.2,2.6-2.4,3.6c-0.6,0.5-1,1.1-1.1,1.8c-0.1,5-2.8,8.9-5.5,12.8c-0.8,1.2-1.7,2.2-0.5,3.6
		c0.7,0.9,0.2,1.5-0.7,1.9c-1.1,0.5-2.2,1-3.4,1c3.5-10.2,7.9-20.1,12.9-29.6c6.8-13.1,13.4-26.5,22.4-38.4c1.6-2.1,3.3-4.1,5-6.1
		c3.8-4.4,8.7-5.4,14.1-3.8c3.2,0.9,4.2,2.6,4,6c-0.1,1,0.1,2,0.2,3c0.1,2.1-0.5,3.6-2.9,3.7c-1.4,0.1-2.1,1.1-2.9,1.9
		c-6.5,6.9-11,15.1-15.7,23.2c-12.3,21.3-21.4,43.9-28.3,67.5C324.7,255.3,323.5,257.6,322.5,259.9z"/>
	<path class="st0" d="M57.1,57.9c-1.6-2.5-4.6-3.2-6.7-5.1c-1.4-1.3-1.4-2.6-0.4-4.3c1-1.8-0.5-3.4-1.7-4.6
		c-1.2-1.1-2.5-0.7-3.4,0.8c-0.5,0.8-1.1,1.7-1.9,2.3c-1.6,1.4-1.6,2.3,0.6,2.8c-2,2.7-3.7,5.4-4.1,8.8c-0.6,5.1-1,10.3-2.6,15.2
		c-0.6,1.8,0.7,4.1-1.3,5.6c-0.1,0.1-0.1,0.4-0.1,0.5c2.2,5.9-1.8,10.6-3.3,15.7c-0.6,2-1.3,4.1-1.2,6c0.1,4.1-0.9,8.1-1.3,12.1
		c-1.2,12.1-3.1,24-3.1,36.2c0,4.1-1.3,7.3-5.5,9.2c-1.9,0.8-3.5,2.5-5.2,4c-0.8,0.7-1.4,1.1-2.4,0.7c2.2-2.9,5.4-4.5,8.2-6.6
		c1.1-0.8,1.7-1.6,1.8-3.1c0.8-27.1,5.3-53.8,10-80.5c1.5-8.8,3-17.5,5.2-26.2c0.7-2.7,1.6-5.4,3-7.8c1.5-2.5,3.3-4.8,6.6-4.3
		c3.8,0.6,6.4,2.9,7.7,6.5C57.9,47.1,57.7,52.5,57.1,57.9z M54.4,53.6c0.5-0.1,1.2-0.1,1.2-0.8c0-0.7-0.6-0.8-1.2-0.7
		c-0.5,0-1,0.2-1,0.7C53.3,53.5,53.8,53.6,54.4,53.6z"/>
	<path class="st0" d="M387,143.6c0.2-2.9-0.6-5.5-2.3-7.9c-1.2-1.6-0.5-3.3,0.7-4.7c4.6,4.3,9.1,8.6,13.3,13.3
		c1.7,1.8,2.8,3.9,1.6,6.4c-1.2,2.7-3.5,2.8-6,2.8c-4.4,0.1-8.1-1.5-11.7-3.8c-0.7-0.5-1.4-1.5-2.3-1c-0.7,0.4-0.3,1.5-0.3,2.3
		c-0.3,4.6-0.3,9.3-1.1,13.9c-0.1,0.6-0.1,1.3-0.9,1.9c-0.7-1.2-0.7-2.4-0.7-3.6c0.1-4.9,0.3-9.8,0.5-14.7c0.1-1.5-0.4-2.5-1.5-3.6
		c-3.7-3.6-7.3-7.4-10.9-11.1c2.6-0.3,3.8,1.9,5.4,3.2c0.9,0.7,1.4,1.3,2.8,0.7c1.9-0.8,3.2,0.4,3.3,2.5c0,0.4-0.1,0.9,0.1,1.3
		c0.4,1.1,8,5.3,9.2,5.1c0.9-0.1,1.6-0.4,1.9-1.3C388.4,144.5,387.8,144,387,143.6L387,143.6z M389.7,148.2c-0.6,0-1.2,0.1-1.1,0.8
		c0.1,0.9,0.8,1.3,1.7,1.4c0.6,0.1,1.1-0.2,1.1-0.9C391.3,148.6,390.4,148.4,389.7,148.2z"/>
	<path class="st0" d="M196.4,128.9c0.2,0,0.3,0,0.5,0c-1.9,8-2.7,16.3-7.1,23.5c-3.5,5.8-10.8,6-14.7,0.3c-1.1-1.7-2-3.5-2.4-5.5
		c-2.1-9.7-3.8-19.4-5.2-29.2c1-0.8,1.9-1.6,2.9-2.4c0.8,1.1,0.4,2,0.1,2.7c-0.5,1.2-0.4,2.4,0.3,3.4c1.9,2.7,2.1,5.8,2.4,9
		c0.3,3.8,1.7,7.4,2.8,11c0.3,1,1,1.9,0.1,3c-1.2-0.3-0.4-2.5-1.8-2c-1.3,0.5-0.2,1.8-0.1,2.7c0.3,2.4,0.8,4.7,3.9,5
		c1.1,0.1,1.3,1.1,1.4,2.1c0.1,0.7,0,1.6,1.1,1.6c0.9,0,1.8,0.4,2.4-0.7c0.9-1.6,2.2-2.4,4.1-2.6c2-0.3,3.5-1.7,2.9-4.1
		c-0.9-3.7-0.3-7.6-1.3-11.3c-0.2-0.7-0.2-1.9,0.4-1.9c2,0,3.2-1.3,4.7-2.3C194.8,130.4,195.6,129.7,196.4,128.9L196.4,128.9z"/>
	<path class="st0" d="M48.5,185.6c-0.5,2.9-3.2,3.8-5,5.5c-1.6,1.5-2.9,3.3-4.7,4.5c-0.4,0.3-0.9,0.8-0.5,1.4
		c1.7,2.1,0.3,3.9-0.7,5.5c-0.8,1.2,0.1,1.8,0.3,2.4c0.5,1.2,0.8,0,1.2-0.3c0.6-0.4,0.8,0.2,0.9,0.6c0.2,0.8,0.2,1.6,0.3,2.4
		c0,0,0,0,0,0c3.8-1.9,7.3-4.2,10.6-6.9c0.6-0.5,1.3-1.1,2.1-1.3c5.6-1.8,10.5-5.3,16.1-7c0.9-0.3,1.7-0.6,2.4,0.4
		c-11.1,4-20.7,10.4-29.4,18.3c-0.4,0.4-0.7,0.9-1.1,1.2c-2.3,2.3-5.6,1.9-7.3-0.9c-2.6-4.1-3.1-8.1-0.1-12.4
		C37.6,193.3,42.5,189,48.5,185.6z"/>
	<path class="st0" d="M182.2,99.4c-0.2-0.1-0.5-0.1-0.5-0.2c-1.3-3.8-3.8-7.1-4-11.3c-0.2-3.6-0.5-7.1-1.6-10.6
		c-1.3-4.1-2.4-8.3-2.7-12.5c-0.3-4.2-1.4-8-2.7-11.9c-0.7-2.1-0.5-4.4-2.3-6.3c-1-1-1.5-1.4-2.9-1c-2.6,0.8-4.6,2.1-6.1,4.2
		c-0.5,0.8-1.2,1.4-2.2,1.5c0-0.1,0-0.2,0-0.3c1-3.9,3.1-7.2,7.2-7.7c4-0.5,6.7,2.3,8.9,5.7c3.2,4.9,3.8,10.4,4.5,15.8
		c1.6,11.1,3,22.3,4.4,33.5C182.2,98.7,182.2,99.1,182.2,99.4z"/>
	<path class="st0" d="M76.3,296.9c0.5,1.2,0.2,2-1.1,2.5c-4,1.5-7.5,4-11.2,5.7c-3.2,1.4-6.1,3.7-9.6,4.5c-0.7,0.2-1.5,0.3-1.5,1.2
		c0,0.8,0.7,0.9,1.2,1.3c1.3,0.8,2.3,2.4,0.5,3c-2.1,0.8-1.5,2.1-1.2,3.2c0.3,1.4,1.5,1.6,2.8,1.6c5.8,0.3,11.3-1.2,16.7-3
		c1.4-0.5,2.7-1.1,4.2-0.3c-4.8,2.5-10,4.3-15.3,5.5c-4,0.9-7.9-0.5-11.7-1.6c-0.8-0.2-1.2-0.7-1.5-1.4c-1.5-3.8,0-9.3,3.7-11
		C60.3,304.6,68.3,300.8,76.3,296.9z"/>
	<path class="st0" d="M202.2,293.7c3.1,1,3.6,2,1.8,4.6c-0.9,1.3-0.5,2.1,0.4,3c3.6,3.8,7.7,4.1,13.1,0.5c3.1-2.1,6-4.6,8.7-7.3
		c1.8-1.8,4.2-3.8,7.4-3.4c-0.9,1.1-1,1.1-1.4,0.4c-0.1,0.4-0.2,0.7-0.3,1.1c-5.9,5.6-12.1,10.9-19.3,14.9c-2.4,1.3-5,2.2-7.8,2.1
		c-4.4-0.2-6.4-2.6-5-6.8C200.9,299.9,201.4,296.8,202.2,293.7z"/>
	<path class="st0" d="M138.5,267.9c0-0.5,0-1.1,0-1.6c0-1.1-0.7-2.8,1.5-2.7c1.5,0.1,2.7,0.3,2.8,2.5c0.2,3.6,1.7,7,2.8,10.4
		c0.1,0.2,0.1,0.4,0.3,0.5c3.6,2.3,5.1,6.7,8.9,8.8c2.6,1.4,4.6,3.8,7.7,4.2c4.8,0.5,9.5,1.7,14.4,0.3c1-0.3,2-0.2,2.7,0.8
		c-9.9,3.2-19.3,3-27.6-4.1c-5.9-5-10.4-11.1-13.3-18.2C138.6,268.4,138.6,268.1,138.5,267.9L138.5,267.9z"/>
	<path class="st0" d="M215.5,148.5c0.7,0.2,1.4,0.3,2,0.7c2.8,1.5,4.4,0.7,4.3-2.6c0-1.2,0-2.3,0.8-3.3c0.5-0.6,1-1,1.9-0.8
		c0.8,0.2,1.4,0.9,1.2,1.6c-1,3.2,1.3,3.9,3.3,4.8c2.6-2.3,1.9-5.5,2.7-8.4c0.6-2.1,1.4-5.2,4-6.7c-0.9,4.2-1.8,8.5-2.4,12.8
		c-0.5,4-3.4,6.8-6.7,8.8c-2.1,1.3-4.5,0.8-6.2-1.1C218.7,152.4,217.2,150.5,215.5,148.5z M227.6,149.6
		C227.6,149.6,227.6,149.6,227.6,149.6L227.6,149.6z"/>
	<path class="st0" d="M263.8,39.9c-0.6-2.3-0.9-4.4,0.7-6.6c0.9-1.2,1.2-2.8-1-3.4c-1.6-0.5-2.3-1.6-2.2-3.3
		c0.2-2.5-0.8-3.8-3.5-3.3c-1.4,0.2-3,0.3-3.5-1.6c0,0,0,0.1,0,0.1c0.2-0.2,0.4-0.4,0.6-0.6c2-2.2,4.7-3,7.3-3.9
		c1.4-0.4,2.5,0.3,3.4,1.1c2.9,2.7,4,5.9,2.7,9.8C267,32.3,265.6,36.2,263.8,39.9z"/>
	<path class="st0" d="M301.2,293.2c1.5,1.3,1.9,3.5,3.6,4.6c0.8,0.6,1.5,1.5,2.6,1c1-0.5,1.3-1.6,1.5-2.7c1.1-4.3-0.1-8.6,0.7-12.9
		c0.1-0.6,0.1-1.2,0.8-1.3c0.7-0.2,1,0.4,1.2,0.9c0.5,1.2,0.8,2.4,0.7,3.7c-0.1,1.8-0.3,3.2,0.9,5.2c1.1,1.8,0.1,4.9-0.1,7.4
		c-0.1,1.6-0.4,3.2-0.6,4.9c-0.7-0.8-1.1-0.2-1.5,0.3c-2,2.1-3.9,1.5-5.6-0.2C302.6,301,301.2,297.3,301.2,293.2z"/>
	<path class="st0" d="M220.4,168.8c-1.5,2.4-4.2,2.7-6.4,3.7c-4.3,1.9-8.8,3.4-12.5,6.4c-2.5,2.1-2.3,3.6,0.7,4.9
		c2,0.9,3.9,1.7,6.2,0.5c1-0.6,2.4-0.4,3.5-0.1c1.8,0.6,3.4,1,5.3,0.3c0.8-0.3,1.5,0.1,1.1,1.2c-5.9,2.2-11.8,2.5-17.6-0.4
		c-1.6-0.8-3.2-1.3-3.6-3.3c-0.4-2,1.3-2.6,2.4-3.5C205.7,173.6,212.8,170.6,220.4,168.8z"/>
	<path class="st0" d="M151.1,187.8c-0.1,3.6-2.2,6.3-4.2,9.1c-3.3,4.5-6.3,9.1-8,14.4c-0.7,2.3-1.7,4.4-2.6,6.6
		c-1,2.6-1.3,5.3-2.1,7.9c-0.4,1.3-0.9,1.5-1.7,0.3c1.6-11.4,6.1-21.7,12.8-31.1C147.1,192.5,148.7,189.9,151.1,187.8z"/>
	<path class="st0" d="M184.6,180.8c-1.1-0.5-1.9-1.3-2-2.4c-0.5-3.2-2.7-5.3-4.7-7.5c-2.1-2.3-4.4-2.8-7.1-1.1
		c-1.8,1.1-3.7,2.2-4.8,4.3c-0.6,1.3-1.6,2.5-3.5,1.7c1-2.1,2.5-3.8,4.1-5.4c4.8-4.6,12.4-4.3,16.8,0.7
		C186.1,174.1,186,177.4,184.6,180.8z"/>
	<path class="st0" d="M54.5,279.1c2,1.1,2.1,3.2,2.7,5.1c0.6,2,1.5,3.6,4,2.5c0.9-0.4,1.7-0.2,1.6,1c0,1.4,0.1,2.7,1.8,2.7
		c1.7,0,3.3-0.6,3.7-2.5c0.5-1.9,1.6-3,3.4-3.4c-0.4,3-1.7,5.7-3.8,7.9c-2.1,2.2-4.8,2.5-7,0.4C57.1,289.1,54.4,284.7,54.5,279.1z"
		/>
	<path class="st0" d="M306.3,244.6c2.2,0.4,2.7,1.8,2.8,4c0.3,6.7-1.7,12.8-4.2,18.9c-0.8,1.8-1.4,3.7,1.7,5c-4.1,0.3-3.3,3-3.7,5.1
		c-0.1,0.7,0.4,2.9-1.5,1c0.8-8.6,2.6-17,5.3-25.1C307.6,250.3,308.3,247.5,306.3,244.6z"/>
	<path class="st0" d="M138.5,52c-1.1,0.9-1.8,1.3-2.2-0.7c-1-4.2-5.9-6.6-10.1-5.3c-2.3,0.8-4.5,1.7-6.4,3.4
		c-0.6,0.5-1.2,1.2-2.1,0.6c0.9-5.1,10.7-8.7,15-6.7c2.7,1.2,4.2,3.4,4.9,6.1C137.8,50.3,137.7,51.3,138.5,52z"/>
	<path class="st0" d="M132.4,197.2c-1.3-0.7-1.1-2-0.9-3.1c0.3-3-0.2-5.7-1.6-8.4c-0.8-1.4-1.5-2.2-3.4-1.9c-2.2,0.4-4-0.4-4.6-3
		c-0.5-2.1-2.9-2.9-3.5-5.1c4.8,1.3,8.8,3.7,12,7.5C133.8,187.5,133.7,192.3,132.4,197.2z"/>
	<path class="st0" d="M22.3,171.9c0.8-0.5,1.7-0.5,2.7-0.5c0,2.1,1,3.8,1.8,5.6c1.3,2.9,2,6,2,9.8C25.5,182,23.4,177.2,22.3,171.9z"
		/>
	<path class="st0" d="M316.3,148.5c1.7-1.6,1.3,0.7,1.9,1.1c-0.6,6.1-0.8,12.3-2.6,18.2C314.5,161.4,315.2,155,316.3,148.5z"/>
	<path class="st0" d="M305.9,137c2.8-0.2,5-1,6.3-3.9c0.7-1.6,2.4-2.1,4.2-1.9c-1.1,2.9-3,5.3-5.3,7.4
		C308.7,140.9,306.8,140.2,305.9,137z"/>
	<path class="st0" d="M238.9,167.2c-0.4-0.3-1-0.5-1.3-0.9c-2.6-3.7-6.7-4.5-10.5-2c-0.9,0.6-1.8,1.2-2.9,1.2c1.5-3,4.1-4.6,7.2-5.1
		C235.3,159.6,238.1,162.3,238.9,167.2z"/>
	<path class="st0" d="M324.8,125.6c1.8-2.4,1.2-5,0.5-7.6c0.3-0.3,0.7-0.3,1.1-0.1c0.2,0,0.4,0,0.6,0.1c0.4,0,0.7,0,1.1,0.1
		c1.6,0.5,3.7,0.7,4,2.8c0.3,2.1-2,2.3-3.3,3.1C327.5,124.6,326.1,125.1,324.8,125.6z"/>
	<path class="st0" d="M290.3,169.3c-3-1.1-5.8,0-8.7,0.7c-1.4,0.3-1.4,1.8-2.1,2.6c-1.9-3.9-1.5-4.6,2.8-5.6
		C285.3,166.2,288.1,166.8,290.3,169.3z"/>
	<path class="st0" d="M211.8,55.2c-2.8,0.3-5.7-0.3-8.3,1.1C205.1,51.8,208.5,51.4,211.8,55.2z"/>
	<path class="st0" d="M234.8,290.1c-0.7-3.1,1.2-4.7,4.3-3.8c-1,1.2-2.1,2.4-3.5,3.1c-0.3,0.2-0.6,0.4-0.9,0.6l0.2,0L234.8,290.1z"
		/>
	<path class="st0" d="M56.5,64c-2.1-1.3-1-2.4,0.3-3.4C56.7,61.7,56.6,62.8,56.5,64z"/>
	<path class="st0" d="M180.5,290.6c0.4-1.4,1.2-1.7,2.5-1.1C182.3,290.2,181.5,290.5,180.5,290.6z"/>
	<path class="st0" d="M383.7,129.4c-0.3,0.3-0.7,1-1.2,0.4c-0.3-0.4,0.3-0.7,0.7-0.9C383.4,129,383.6,129.2,383.7,129.4z"/>
	<path class="st0" d="M240,167.7c-0.3-0.2-0.7-0.3-1-0.5C239.3,167.4,239.7,167.5,240,167.7z"/>
	<path class="st0" d="M372.9,28.9c-0.2-0.1-0.4-0.2-0.6-0.4C372.4,28.7,372.7,28.8,372.9,28.9z"/>
	<path class="st0" d="M316.5,146.9c0,0.2-0.1,0.4-0.1,0.7C316.5,147.4,316.5,147.2,316.5,146.9z"/>
	<path class="st0" d="M254.8,21.3c-0.2,0.2-0.4,0.4-0.6,0.6C254.5,21.7,254.7,21.5,254.8,21.3z"/>
	<path class="st0" d="M17.4,171.5c0.2,0,0.4,0,0.6,0C17.8,171.5,17.6,171.5,17.4,171.5z"/>
	<path class="st0" d="M326.9,118c-0.2,0-0.4,0-0.6-0.1C326.5,118,326.7,118,326.9,118z"/>
	<path class="st0" d="M137.5,267.6c0.2,0,0.3,0,0.5,0c0,0-0.3,0-0.3,0S137.5,267.6,137.5,267.6z"/>
	<path class="st0" d="M234.6,290c0.3-0.2,0.6-0.4,0.9-0.6C235.4,289.8,235.1,290,234.6,290z"/>
	<path class="st0" d="M305.1,134.8c0.2,0,0.4,0.1,0.6,0.1C305.5,134.8,305.3,134.8,305.1,134.8z"/>
	<path class="st0" d="M231.9,292.8c0.1-0.4,0.2-0.7,0.3-1.1C233,292.3,232.3,292.5,231.9,292.8z"/>
	<path class="st0" d="M138.6,267.8c0,0.3,0,0.6,0,0.9C138.6,268.4,138.6,268.1,138.6,267.8z"/>
	<path class="st0" d="M168,208.6c-0.8,3-2.4,5.5-5.1,7.1c-1.5,1-3.2,1.3-4.5-0.2c-1.6-1.9-2.2-0.9-2.9,0.7
		c-5.8,14-7.6,28.2-3.1,42.9c1,3.2,2,6.4,3.3,9.5c4.1,9.5,14.4,11.1,21.6,3.7c2.9-3,4.5-6.8,5.8-10.7c5-14.7,6.5-29.7,3.5-44.9
		c-1.7-8.5-4.5-16.7-8.7-24.3c3.3,0.1,5.3,1.6,6.4,5c0.7,2.2,1.6,4.2,3,6.1c1,1.3,1.5,2.9,1.6,4.7c0.3,4,1.5,7.9,2.1,11.9
		c0.6,4.5,2.2,9,0.6,13.6c-0.4,1.3,0.7,2.8-0.7,3.8c0,0,0,0,0,0c-0.8,1.8,0.2,3.4,0.7,5c0.3,0.9,0.7,1.7-0.8,1.9
		c-0.9,0.2-1.4,1-1,1.9c1.6,4.1-0.3,7.9-0.9,11.8c-0.4,2.6-0.9,5.1-3,7c-0.5,0.5-0.8,1.5-0.8,2.3c-0.2,1.9-0.7,3.3-2.9,3.6
		c-0.8,0.1-1,0.4-0.6,1.5c0.5,1.5,0.3,3.5-1.6,3.7c-4.5,0.6-8.9,2-13.4,2.2c-4,0.1-7.6-2.1-10.1-5.5c-4.6-6.2-7.6-13.3-8.8-20.8
		c-1-6.2-1.5-12.6-0.1-18.9c1.1-4.6,1.2-9.4,3-13.8c0.7-1.9,1.9-3.5,3-5.1c1.3-1.8,2.8-2.9,4.9-1c0.8,0.7,1.6,0.1,2.7-0.2
		C164.1,212.2,165.6,209.8,168,208.6z"/>
	<path class="st0" d="M131.9,140.9c2.9-8.1,6.4-16,7.9-24.6c3-17.1,1.4-33.6-6.5-49.3c-0.3-0.6-0.5-1.6-1.3-1.6
		c-0.9,0-1,1.1-1.3,1.8c-1.6,3.6-3.5,7.2-5.7,10.5c-0.9,1.3-1.7,2.7-3.1,3.3c-2.8,1.2-3.4,3.4-3.5,6.1c0,1.8-0.3,3.5-1.6,5.1
		c0.1-2.3,0.2-4.5,0.5-6.7c0.2-1.5,0-2.4-1.9-2.3c-2.4,0.1-3.6-1.8-4.8-3.5c0-2.6,2.2-3.4,3.8-4.5c1.3-0.8,1.3,0.7,1.6,1.4
		c0.4,1.4-0.6,3.8,1.3,4c1.8,0.2,3.5-1.4,4.8-2.8c1.9-2,3-4.6,3.7-7.2c0.7-2.6,3.3-4,4.1-6.8c0.4-1.4,2.3-1.6,3.3,0
		c3,4.9,5.9,9.7,7.3,15.6c1.4,5.7,1,11.6,2.7,17.1c0.6,2,0.2,4-0.1,6c-0.9,5.2-0.5,10.5-1.6,15.9c-1.3,7-4.2,13.3-6.9,19.7
		C134.1,139.1,133.9,140.9,131.9,140.9z"/>
	<path class="st0" d="M109.6,137.2c0.9-0.3,1.6,0.1,2.3,0.5c1.1,0.7,2.2,1.5,2.2,2.9c-0.1,1.5-1.5,1.7-2.8,2
		C112.3,140.3,110.8,138.8,109.6,137.2z"/>
	<path class="st0" d="M133.5,60.3c-0.1,0.6-0.4,0.7-0.8,0.6c-0.6-0.1-1.1-0.3-1.2-0.9c0-0.4,0.4-0.6,0.8-0.5
		C132.9,59.6,133.3,59.9,133.5,60.3z"/>
	<path class="st0" d="M290.4,35.4c0.5,0.1,0.7,0.4,0.6,0.8c-0.2,0.7-0.6,1.3-1.5,1.4c-0.4,0-0.6-0.4-0.5-0.8
		C289.2,36.1,289.7,35.6,290.4,35.4z"/>
	<path class="st0" d="M196.4,128.9c0-0.1-0.1-0.1-0.1-0.2C196.4,128.8,196.4,128.8,196.4,128.9C196.4,128.9,196.4,128.9,196.4,128.9
		z"/>
	<path class="st0" d="M267.3,109.7c-2,8.4-3.4,17-4.6,25.6c-0.2,1.7-0.6,3.4-0.2,5.1c-1.1,2.4-3.4,2.8-5.5,3.8c-1.4,0.6-2.1,0-2-1.5
		c0.4-4-0.1-8.1,0.2-12c0.4-5.7,0.8-11.7,2.3-17.3c0.6-2,1.9-3.9,3-5.8c0.8-1.3,4.7-0.8,6,0.7C266.9,108.7,267.1,109.3,267.3,109.7z
		"/>
	<path class="st0" d="M315.3,83.3c2.2-9.9,5.5-19.4,10-28.5c1-2,2.2-4,3.8-5.6c2.8-2.9,5.8-2.9,8.4,0.2c1.1,1.2,2.1,2.5,2.4,4.2
		c-1.8,0.9-2.1-0.8-2.5-1.6c-0.9-2.1-2.5-2.5-4.4-2.5c-1.8,0-2.5,1.4-3.3,2.8c-2.6,4.5-4.6,9.4-6.6,14.2c-0.8,2-1.8,3.9-1.7,6.2
		c0.1,1.6-0.8,3.1-1.7,4.5c-0.9,1.4-1.6,2.8-1.7,4.5C318,83.3,317.1,84.1,315.3,83.3z"/>
	<path class="st0" d="M281.6,86.3c6.4-2,12.8-2.8,19,0.8c3.3,1.9,3.5,3.6,0.4,5.8c-3.1,2.2-6.8,3.2-10,5.1c0-1.6,1.1-2.4,2.4-3
		c1.6-0.7,3.1-1.4,4.5-2.5c0.9-0.8,2.4-1.3,2-2.9c-0.4-1.4-1.3-2.5-2.7-2.8c-4-0.9-8-1.8-12.1-0.7C283.9,86.4,282.8,86.9,281.6,86.3
		z"/>
	<path class="st0" d="M312.1,96.1c0-2.5,1-4.7,1.4-7.1c2.7,1.2,3.6,4.1,6.1,5.6c-0.4,0.4-0.7,0.6-0.7,0.6
		C316.3,93.3,314.2,94.7,312.1,96.1z"/>
	<path class="st0" d="M304,104.3c-0.8,0-1.7,0.2-2.4,0c-1.7-0.5-2.1-2-0.8-3.3c1.2-1.1,2.6-1.9,4.3-2.1
		C305.1,100.7,304.8,102.5,304,104.3z"/>
	<path class="st0" d="M385.9,141.1c-0.9,0.3-1.3-0.2-1.7-0.7c-0.1-0.1,0.2-0.6,0.3-0.6C385.2,139.8,385.7,140.1,385.9,141.1z"/>
	<path class="st0" d="M387,143.6c-0.1,0.5-0.1,1.1-0.8,1.2c-0.1,0-0.2-0.1-0.2-0.2C385.9,143.9,386.5,143.9,387,143.6
		C387,143.6,387,143.6,387,143.6z"/>
	<path class="st0" d="M54.4,53.6c-0.6-0.1-1.1-0.2-1.1-0.9c0.1-0.5,0.6-0.7,1-0.7c0.6,0,1.2,0.1,1.2,0.7
		C55.6,53.5,55,53.5,54.4,53.6z"/>
	<path class="st0" d="M389.7,148.2c0.7,0.2,1.6,0.4,1.7,1.4c0.1,0.7-0.5,0.9-1.1,0.9c-0.9-0.1-1.6-0.5-1.7-1.4
		C388.5,148.3,389.1,148.2,389.7,148.2z"/>
	<path class="st0" d="M40.3,207.5C40.3,207.5,40.3,207.5,40.3,207.5C40.3,207.5,40.3,207.5,40.3,207.5z"/>
	<path class="st0" d="M227.6,149.6L227.6,149.6L227.6,149.6z"/>
	<path class="st0" d="M227.6,149.6C227.6,149.6,227.6,149.6,227.6,149.6C227.6,149.6,227.6,149.6,227.6,149.6z"/>
	<path class="st0" d="M191,237.5C191,237.5,191,237.5,191,237.5C191,237.5,191,237.5,191,237.5z"/>
</g>
</svg>
