<?xml version="1.0" encoding="utf-8"?>
<!-- Generator: Adobe Illustrator 23.0.5, SVG Export Plug-In . SVG Version: 6.00 Build 0)  -->
<svg version="1.1" id="Layer_1" xmlns="http://www.w3.org/2000/svg" xmlns:xlink="http://www.w3.org/1999/xlink" x="0px" y="0px"
	 viewBox="0 0 193.23 118.94" style="enable-background:new 0 0 193.23 118.94;" xml:space="preserve">
<style type="text/css">
	.st0{fill:#9F6331;}
</style>
<g>
	<g>
		<path class="st0" d="M124.27,90.41c-0.41,0.27-0.95,0.11-1.39,0.34c-0.28,0.14-0.34-0.12-0.45-0.23c-0.63-0.65-1.05-1.4-1.39-2.17
			c-1.51-3.42-3.12-6.81-4.39-10.3c-0.19-0.53-0.38-0.63-1.03-0.26c-1.92,1.11-3.88,2.16-5.92,3.11c-0.78,0.36-1.24,0.77-1.24,1.57
			c-0.01,1.1-0.19,2.22-0.63,3.31c-0.23-0.07-0.07-0.36-0.36-0.37c-0.16,0.39-0.32,0.79-0.5,1.22c-0.25-0.19-0.09-0.39-0.12-0.57
			c-0.05-0.32,0.05-0.81-0.61-0.19c-0.26,0.24-0.79,0.23-0.87-0.3c-0.1-0.66-0.03-1.33,0.01-1.99c0.02-0.37,0.01-0.64-0.61-0.51
			c-0.52,0.11-0.95-0.05-1.45-0.51c0.03,0.47,0.03,0.75,0.06,1.02c0.1,0.95,0.2,1.91,0.01,2.88c-0.11,0.58-0.42,1.05-1.19,1.24
			c-0.8,0.2-1.38-0.03-1.81-0.52c-1.14-1.3-1.92-2.77-2.78-4.2c-2.09-3.47-4.04-6.99-5.89-10.56c-0.15-0.28-0.22-0.61-0.64-0.87
			c-0.24,1.36-0.21,2.65-0.24,3.95c-0.09,3.75-0.01,7.49,0.24,11.22c0.01,0.15,0.01,0.3,0.01,0.44c0,0.2,0.06,0.46-0.19,0.55
			c-0.38,0.13-0.29-0.3-0.64-0.38c-0.38,1.49,0.96,2.69,0.73,4.12c-0.33-1.12-0.99-2.16-1.1-3.33c-0.04-0.47-0.27-0.54-0.72-0.32
			c-0.36,0.18-0.54,0.13-0.68-0.17c-0.19-0.39-0.26-0.8-0.33-1.21c-0.69-3.83-0.72-7.73-0.88-11.61c-0.13-3.27-0.19-6.54-0.28-9.82
			c-0.02-0.96,0.06-1.92,0.19-2.89c0.08-0.62,0.42-1.15,0.87-1.64c0.58-0.62,1.6-0.74,2.35-0.35c0.84,0.44,1.34,1.08,1.64,1.83
			c1.09,2.72,2.12,5.46,3.27,8.16c1.06,2.5,2.23,4.96,3.5,7.38c0.11,0.21,0.16,0.47,0.53,0.62c0.18-1.08,0.11-2.11,0.14-3.14
			c0.14-5.53,0.39-11.05,1.55-16.56c0.28-1.32,0.61-2.65,1.61-3.81c0.05-0.02,0.08-0.05,0.09-0.09c0.02-0.05,0.06-0.08,0.12-0.1
			c0.69,0.2,1.38,0.24,2.07-0.1c0.08,0.08,0.17,0.16,0.25,0.24c0.06,0.1,0.12,0.19,0.18,0.29c0.2,1.07,0.01,2.14-0.19,3.2
			c-0.93,5.04-1.59,10.1-1.89,15.16c-0.12,2.02-0.13,4.05-0.18,6.07c-0.01,0.24,0.06,0.47,0.1,0.79c0.84-0.57,1.61-1.07,2.36-1.6
			c0.29-0.2,0.25-0.5,0.28-0.77c0.73-5.47,1.66-10.93,3.01-16.36c0.45-1.83,0.91-3.66,1.84-5.41c0.3-0.57,0.81-0.94,1.42-1.14
			c0.68-0.23,1.36-0.19,1.8,0.43c0.96,1.35,1.2,2.88,1.59,4.38c1.03,3.98,2.04,7.97,3.05,11.96c0.11,0.45,0.3,0.63,0.92,0.45
			c0.46-0.13,0.97-0.19,1.46-0.2c0.67-0.02,0.8-0.26,0.74-0.76c-0.31-2.69-0.59-5.37-0.86-8.07c-0.13-1.35-0.16-2.7,0.03-4.06
			c0.08-0.56,0.28-1.07,0.64-1.56c0.79-1.05,2.3-1.17,3.19-0.24c0.57,0.59,0.88,1.31,1.22,2c2.31,4.67,4.5,9.38,7.56,13.76
			c0.13,0.19,0.16,0.47,0.62,0.56c-0.04-1.24-0.1-2.43-0.1-3.62c0-5-0.1-10,0.63-15.02c0.13-0.89,0.27-1.78,0.58-2.64
			c0.22-0.61,0.54-1.17,1.21-1.59c1.14-0.72,2.43-0.36,2.6,0.78c0.19,1.25-0.12,2.51-0.27,3.77c-1.02,8.16-1.29,16.29-0.25,24.37
			c0.03,0.24,0.02,0.49,0.03,0.74c-0.11,0.21-0.12,0.43-0.05,0.64c0.02,0.04,0.02,0.07-0.01,0.11c-0.66,0.75-1.68,0.99-2.67,1.27
			c-1.04-0.68-1.66-1.61-2.31-2.52c-2.59-3.61-5.14-7.25-7.49-10.98c-0.11-0.18-0.16-0.42-0.59-0.55c0.01,0.92,0,1.78,0.02,2.65
			c0.1,4.15,0.51,8.28,0.94,12.4c0.04,0.41,0.04,0.83,0.06,1.25c-0.88-0.12-1.61,0.07-2.07,0.77c0.01,0.12,0.01,0.24,0.02,0.36
			c-0.46-0.22-0.59-0.6-0.7-0.97c-0.88-3.07-1.24-6.22-1.58-9.37c-0.09-0.84-0.08-0.84-0.98-0.38c-1.24,0.64-1.24,0.64-0.85,1.77
			c1.41,4.09,3.07,8.11,4.61,12.17c0.16,0.43,0.38,0.87,0.09,1.36C124.73,90.25,124.5,90.33,124.27,90.41z M112.3,65.24
			c-0.15,0.18-0.22,0.23-0.24,0.29c-0.92,3.31-1.49,6.65-2.05,9.99c-0.09,0.55,0.27,0.41,0.64,0.24c1.19-0.56,2.36-1.15,3.58-1.67
			c0.53-0.23,0.65-0.46,0.52-0.88C113.93,70.6,113.14,67.98,112.3,65.24z"/>
		<path class="st0" d="M51.25,39.91c-3.3,4.5-7.5,8.35-12.7,11.51c-0.47,0.28-0.6,0.58-0.61,1.01c-0.06,2.56-0.14,5.12-0.22,7.68
			c-0.01,0.38,0.07,0.76-0.41,1.08c-0.16,0.11-0.2,0.46-0.12,0.64c0.73,1.58-1.11,2.88-1.03,4.38c0.01,0.14-0.09,0.33-0.3,0.33
			c-0.31,0.01-0.26-0.21-0.26-0.38c-0.01-0.22,0-0.43,0-0.77c-0.45,0.41-0.41,0.81-0.53,1.17c-0.17-0.18,0.03-0.53-0.29-0.6
			c-0.21-0.05-0.3,0.21-0.41,0.35c-0.12,0.02-0.24,0.03-0.36,0.05c-0.21-0.27,0.26-1.1-0.89-0.6c-0.36,0.16-0.51-0.32-0.58-0.6
			c-0.24-0.98-0.31-1.99-0.34-3c-0.07-2.51,0.02-5.03,0.14-7.54c0.02-0.48-0.12-0.71-0.69-0.83c-1.13-0.25-2.05-0.79-2.85-1.44
			c-0.73-0.6-0.53-1.07,0.51-1.32c0.33-0.08,0.66-0.14,0.99-0.23c1.66-0.47,2.3-1.12,2.3-2.49c-0.02-4.79,0.71-9.57,1.1-14.36
			c0.02-0.24,0.01-0.48,0.02-0.91c-3.03,2.18-5.84,4.23-6.54,7.46c-0.1,0.15-0.11,0.29,0,0.43c0.01,0.11,0.02,0.22,0.04,0.34
			c-0.14,0.24-0.21,0.19-0.28-0.02c-0.06-0.17-0.02-0.56-0.46-0.17c-0.14,0.12-0.29,0.08-0.38-0.03c-0.52-0.65-1.43-0.44-2.19-0.56
			c-1.6-1.28-1.83-2.81-0.95-4.53c0.48-0.94,1.2-1.77,2-2.56c3.83-3.8,8.47-6.59,14.39-7.68c4.37-0.8,8.36-0.42,11.53,2.19
			c1.75,1.44,2.41,3.28,2.62,5.28c0.03,0.24,0.04,0.49,0.05,0.73c0.34-0.02,0.4-0.25,0.53-0.41c2.8-3.2,7.37-3.35,10.08-0.32
			c1.03,1.16,1.52,2.52,1.82,3.91c1.21,5.76,0.87,11.56-1.18,17.32c-0.58,1.64-1.4,3.27-2.69,4.71c-3.13,3.51-7.17,3.02-9.3-0.34
			c-0.89-1.4-1.32-2.96-1.63-4.53c-0.86-4.4-0.73-8.85,0.08-13.33c0.06-0.32,0.07-0.64,0.1-0.96c0.1-0.04,0.11-0.1,0.06-0.17
			C51.37,39.83,51.31,39.87,51.25,39.91z M62.5,40.15c-0.09-0.16-0.22-0.4-0.39-0.63c-0.93-1.3-1.65-2.67-1.91-4.19
			c-0.09-0.56-0.47-0.54-0.96-0.27c-0.51,0.28-0.83,0.69-1.1,1.12c-0.48,0.77-0.82,1.58-1.06,2.4c-1.08,3.74-1.31,7.51-1.27,11.28
			c0.02,2.37,0.23,4.71,1.17,6.94c0.28,0.67,0.42,0.7,1.09,0.2c0.16-0.12,0.28-0.27,0.38-0.43c1.37-2.15,2.12-4.47,3.03-6.74
			c0.5-1.25,0.5-2.59,0.64-3.9C62.33,44.05,62.42,42.15,62.5,40.15z M38.25,45.91c0.09,0.03,0.17,0.05,0.26,0.08
			c1.06-0.9,2.15-1.77,3.17-2.69c2.59-2.36,4.73-4.94,6.02-7.9c1.26-2.88-0.42-5.01-4.08-5.31c-1.99-0.16-3.9,0.23-5.78,0.81
			c-0.65,0.2-0.61,0.43-0.18,0.78c1.32,1.07,1.94,2.41,1.78,3.97c-0.16,1.65-0.36,3.3-0.55,4.95
			C38.68,42.37,38.46,44.14,38.25,45.91z"/>
		<path class="st0" d="M34.53,74.92c1.91,1.69,3.13,3.71,4.08,5.88c0.19-1.26,0.28-2.48,0.53-3.71c0.43-2.1,1.03-4.16,2.42-6.04
			c0.25-0.34,0.16-0.59,0.02-0.89c-0.12-0.25-0.13-0.56,0.14-0.77c0.35-0.27,0.54,0.03,0.74,0.18c0.28,0.2,0.43-0.01,0.63-0.12
			c2.45-1.37,4.97-1.24,6.99,0.34c1.53,1.2,2.19,2.78,2.8,4.39c1.99,5.24,2.31,10.65,1.38,16.19c-0.39,2.33-1.22,4.59-2.84,6.64
			c-0.69,0.87-1.55,1.6-2.65,2.13c-1.91,0.93-3.48,0.76-4.9-0.52c-1.47-1.33-2.36-2.93-3.05-4.62c-0.6-1.48-1.03-2.99-1.37-4.53
			c-0.06-0.26-0.13-0.51-0.35-0.76c-0.34,1.02-0.64,2.05-1.04,3.06c-2.27,5.73-5.53,11.06-10.74,15.57
			c-0.64,0.55-1.39,1.03-2.12,1.52c-1.04,0.71-2.15,0.74-3.26,0.28c-0.81-0.34-1.45-0.84-1.94-1.45c-0.52-0.65-0.23-1.27,0.72-1.59
			c1.47-0.5,1.48-0.5,1.2-1.72c-1.25-5.51-1.52-11.15-1.94-16.76c-0.22-2.99-0.34-5.99-0.71-8.97c-0.1-0.84-0.35-0.93-1.23-0.39
			c-3.05,1.88-5.8,3.98-7.79,6.66c-0.25-0.28-0.65-0.18-1-0.22c0.03-0.26-0.19-0.22-0.41-0.23c-2.01-0.08-2.97-1.67-1.81-3.08
			c1.17-1.42,2.66-2.63,4.16-3.83c2.04-1.63,4.19-3.21,6.81-4.14c5.42-1.93,10.65-2.07,15.4,0.77c0.21,0.13,0.39,0.29,0.59,0.43
			C34.15,74.69,34.34,74.8,34.53,74.92z M25.94,101.84c0.56-0.34,0.78-0.68,1-1c0.88-1.25,1.77-2.5,2.61-3.78
			c2.06-3.14,3.86-6.36,4.51-9.85c0.69-3.66-0.34-6.9-3.43-9.53c-1.68-1.43-3.9-1.88-6.38-1.71c-0.24,0.02-0.84-0.11-0.56,0.4
			c0.79,1.5,0.94,3.12,1.03,4.74c0.27,4.91,0.42,9.84,0.79,14.74C25.67,97.81,25.8,99.77,25.94,101.84z M44.29,87.71
			c0.13,1.2,0.37,2.38,0.66,3.56c0.32,1.32,0.71,2.62,1.35,3.85c0.1,0.2,0.22,0.42,0.52,0.46c0.31,0.04,0.41-0.2,0.51-0.38
			c1.46-2.48,2.54-5.05,2.98-7.74c0.1-0.6-0.04-1.22,0-1.83c0.16-2.55-0.03-5.07-0.6-7.56c-0.07-0.32-0.2-0.6-0.47-0.85
			c-1.23-1.14-2.11-2.44-2.47-3.96c-0.04-0.17-0.02-0.45-0.33-0.45c-0.27,0-0.38,0.25-0.5,0.42c-0.71,0.95-1.06,1.99-1.31,3.04
			C43.7,80.11,43.96,83.91,44.29,87.71z"/>
		<path class="st0" d="M181.22,47c-0.44-0.25-0.89-0.01-1.3,0.09c-4.92,1.13-9.55,2.87-14.04,4.9c-0.54,0.25-0.83,0.52-0.85,1.05
			c-0.12,3.32-0.27,6.65-0.44,9.98c-0.03,0.51,0.17,0.58,0.73,0.36c1.53-0.57,3.09-1.07,4.74-1.45c-0.02,0.32-0.43,0.29-0.57,0.54
			c0.59,0.21,1.1-0.23,1.64-0.22c0.14,0.31-0.45,0.36-0.31,0.69c0.51,0.05,0.97-0.08,1.37-0.39l-0.01,0.01
			c0.32,0.36-0.13,0.44-0.37,0.58c-0.33,0.19-0.8,0.24-0.99,0.59c-0.11,0.02-0.21,0.03-0.32,0.05c0.02,0.03,0.03,0.08,0.05,0.08
			c0.11-0.01,0.23-0.03,0.25-0.14c0.09,0,0.19-0.02,0.27-0.01c0.26,0.04,0.06,0.12,0,0.16c-0.19,0.13-0.39,0.24-0.56,0.46
			c0.42-0.08,0.83-0.16,1.21-0.24c-2.17,1.12-4.51,2.03-6.76,3.07c-0.48,0.22-0.65,0.5-0.65,0.91c-0.02,2.79-0.4,5.57-0.64,8.36
			c-0.06,0.66,0.12,0.67,0.81,0.45c5.9-1.88,11.89-3.45,18.06-4.49c0.88-0.15,1.76-0.25,2.65-0.34c1.87-0.19,2.96,0.91,2.39,2.38
			c-0.28,0.73-0.75,1.19-1.76,1.36c-3.24,0.54-6.49,1.04-9.69,1.75c-4.41,0.97-8.71,2.23-12.89,3.77c-1.52,0.56-3.06,1.05-4.72,0.68
			c-0.52-0.66-0.68-1.41-0.65-2.2c1.4-0.59,1.91-1.43,1.37-2.61c-0.1-0.21-0.02-0.48-0.02-0.78c-0.38,0.22-0.45,0.53-0.61,0.78
			c-1.37,2.15-2.99,4.16-5.26,5.78c-0.81,0.58-1.72,1.02-2.74,1.3c-2.69,0.73-4.91,0.22-6.61-1.46c-1.99-1.97-3.12-4.31-3.71-6.83
			c-1.58-6.77-0.3-13.38,3.37-19.81c1.12-1.96,2.75-3.69,4.67-5.21c0.51-0.4,1.11-0.74,1.72-1.04c0.85-0.42,1.53-0.12,2.12,0.35
			c0.58,0.47,0.98,0.99,0.41,1.69c-0.38,0.46-0.76,0.93-1.17,1.38c-3.05,3.32-5.05,6.95-6.1,10.93c-1.26,4.77-1.05,9.39,0.62,13.91
			c0.28,0.75,0.68,1.45,1.27,2.06c0.6,0.62,1.11,0.66,1.97,0.21c1.13-0.6,1.98-1.41,2.71-2.3c2.1-2.55,3.71-5.27,5.1-8.08
			c0.15-0.3,0.14-0.54-0.08-0.82c-0.56-0.72-0.44-1.28,0.34-1.94c0.61-0.52,1.34-0.93,2.05-1.34c0.37-0.21,0.54-0.45,0.55-0.81
			c0.09-3.18,0.2-6.36,0.32-9.54c0.02-0.57-0.26-0.49-0.69-0.24c-1.89,1.08-3.43,2.46-4.97,3.83c-0.29,0.19-0.57,0.41-0.89,0.56
			c-0.31,0.14-0.61,0.28-0.94-0.05c-0.84-0.86-1.73-1.67-1.47-2.93c0.02-0.08-0.09-0.18-0.14-0.26c1.48-1.71,3.45-3.01,5.46-4.28
			c1.01-0.64,2.08-1.23,3.16-1.8c0.53-0.28,0.78-0.59,0.8-1.09c0.01-0.41,0.17-0.83,0.21-1.25c0.13-1.16,1.21-1.59,2.35-1.9
			c1.02-0.28,1.47,0.3,1.73,0.92c0.28,0.66,0.61,0.74,1.43,0.39c3.57-1.49,7.22-2.78,11.13-3.48c2.04-0.36,4.08-0.61,6.04,0.01
			c0.76,0.24,1.35,0.62,1.42,1.35c0.04,0.39-0.15,0.73-0.66,0.78c-0.86,0.08-1.38,0.52-1.87,1.02C181.94,47,181.53,47.14,181.22,47z
			"/>
		<path class="st0" d="M72.75,76.84c-0.03-0.19-0.05-0.37-0.08-0.56c0.08-0.12,0.06-0.23-0.05-0.32c-0.01-0.09-0.02-0.19-0.04-0.28
			c0.06-0.08,0.21-0.19,0.18-0.24c-0.41-0.92-0.27-1.93-0.56-2.87c-0.03-0.18-0.05-0.36-0.08-0.54c-0.01-0.05-0.01-0.09-0.02-0.14
			c0,0,0,0.01,0,0.01c0.08-0.35-0.01-0.67-0.24-1.18c-0.06,0.45-0.09,0.69-0.12,0.93c-0.02,0.1-0.04,0.19-0.06,0.29
			c-0.02,0.06-0.04,0.12-0.06,0.18c-0.55,3.12-1.14,6.24-1.65,9.36c-0.3,1.82-0.59,3.64-0.69,5.46c-0.05,0.88-0.81,1.46-1.55,1.99
			c-0.41,0.3-0.99,0.24-1.4-0.12c-0.49-0.43-0.88-0.9-1.24-1.4c-1.93-2.72-3.46-5.6-4.89-8.52c-0.16-0.33-0.25-0.7-0.75-1.12
			c0.02,0.92,0.01,1.69,0.05,2.45c0.2,3.88,0.47,7.75,1.12,11.59c0.07,0.39,0.06,0.78,0.1,1.17c0.03,0.31-0.11,0.53-0.5,0.64
			c-0.24-0.14-0.07-0.51-0.48-0.55c-0.25,0.17-0.02,0.42-0.2,0.69c-0.23-0.13-0.35-0.59-0.82-0.14c-0.34,0.31-0.64-0.03-0.8-0.29
			c-0.38-0.58-0.53-1.23-0.66-1.88c-0.98-4.9-1.36-9.88-1.82-14.84c-0.28-2.94-0.48-5.88-0.39-8.84c0.02-0.72,0.04-1.5,1-1.97
			c0.64,0.23,1.14,0.11,1.46-0.44c0.13,0.03,0.26,0.05,0.39,0.08c0.07,0.03,0.15,0.06,0.22,0.1c1.16,0.65,1.71,1.66,2.17,2.67
			c1.45,3.15,2.83,6.33,4.23,9.5c0.42,0.95,0.84,1.9,1.28,2.89c0.39-0.25,0.32-0.51,0.34-0.73c0.48-4.07,1.39-8.11,2.42-12.14
			c0.44-1.74,0.92-3.49,1.8-5.16c0.47-0.89,1.06-1.76,2.4-1.78c1.36-0.02,1.81,0.86,2.13,1.77c0.34,0.96,0.53,1.95,0.68,2.95
			c1.1,7.19,2.18,14.38,3.26,21.57c0.28,1.87,0.87,3.7,0.71,5.62c-0.07,0.82-0.21,1.64-0.83,2.35c-0.58,0.67-1.01,0.72-1.73,0.24
			c-0.84-0.57-1.36-1.26-1.51-2.2c-0.74-4.63-1.57-9.26-2.36-13.88c0.07-0.16,0.06-0.3-0.07-0.43c-0.01-0.1-0.03-0.19-0.04-0.29
			C73.16,77.88,73.22,77.32,72.75,76.84z"/>
		<path class="st0" d="M110.67,20.08c-0.16-0.13-0.32-0.07-0.5,0c-1.34,0.54-2.68,1.09-4.04,1.62c-0.43,0.17-0.58,0.43-0.65,0.77
			c-0.99,5.16-1.77,10.33-1.76,15.52c0.01,3.15-0.06,6.31,0.43,9.43c0.2,1.26,0.37,2.52,0.39,3.81c0.01,0.7-0.27,1.28-0.69,1.85
			c-0.44,0.59-2.12,0.69-2.59,0.15c-0.77-0.91-0.89-2-1.06-3.06c-1.1-6.97-0.97-14.02-0.17-21.09c0.13-1.16,0.32-2.32,0.47-3.47
			c0.04-0.29,0.26-0.67-0.01-0.84c-0.32-0.2-0.66,0.15-0.98,0.28c-0.76,0.29-1.51,0.62-2.26,0.92c-0.66,0.26-1.35,0.38-2.07,0.33
			c-1.05-0.07-1.37-0.48-1.01-1.3c0.36-0.83,1.27-1.24,2.09-1.69c1.5-0.84,3.12-1.51,4.75-2.16c0.53-0.22,0.77-0.51,0.9-0.97
			c0.61-2.19,1.25-4.39,2.88-6.32c0.4-0.47,0.76-1.05,1.66-0.86c0.7,0.14,1.2,0.79,1.14,1.57c-0.09,1.12-0.54,2.2-0.79,3.3
			c-0.09,0.38-0.48,0.89-0.12,1.11c0.35,0.21,0.88-0.22,1.31-0.39c7.47-2.83,15.14-5.13,23.13-6.56c0.73-0.13,1.45-0.25,2.19-0.21
			c0.55,0.03,1.07,0.1,1.5,0.42c0.66,0.5-0.45,0.73-0.3,1.18c-0.22-0.16-0.31-0.37-0.71-0.27c-7.12,1.71-14.23,3.43-21.06,5.92
			c-0.1,0.04-0.19,0.11-0.36,0.21c0.41,0.12,0.76,0.18,1.04,0.32c1.12,0.58,1.19,1.45,0.18,2.28c-0.19,0.15-0.23,0.25-0.21,0.43
			c0.39,2.95,0.18,5.95,0.31,8.92c0.24,5.49,0.54,10.96,1.98,16.29c0.26,0.94-0.19,1.88-0.85,2.69c-0.44,0.54-1.16,0.41-1.71,0.09
			c-0.51-0.3-0.82-0.75-1.07-1.22c-0.8-1.5-1.19-3.11-1.49-4.72c-1.15-6.35-1.42-12.79-1.14-19.27c0.05-1.04,0.01-2.14,0.99-3.05
			c0.21-0.19,0.01-0.37-0.06-0.55c-0.19-0.48-0.23-0.95,0.28-1.37c-0.05-0.03-0.09-0.06-0.14-0.08c-0.01,0-0.03,0.02-0.05,0.03
			C110.53,20.05,110.6,20.07,110.67,20.08z"/>
		<path class="st0" d="M136.33,43.89c-0.66,0.04-0.59-0.4-0.65-0.71c-0.41-2.06-0.46-4.15-0.55-6.24c-0.23-5.14-0.68-10.26-1-15.39
			c-0.1-1.65-0.12-3.29,0.08-4.95c0.07-0.61,0.31-1.17,0.79-1.66c1.07-1.12,2.72-1.06,3.49,0.14c0.67,1.05,1.07,2.2,1.51,3.34
			c2.06,5.33,4.68,10.47,7.45,15.55c0.09,0.17,0.15,0.37,0.44,0.47c0.24-0.58,0.13-1.14,0.15-1.7c0.31-6.98,0.76-13.96,2.33-20.91
			c0.3-1.35,0.62-2.71,1.61-3.9c0.46-0.56,0.92-1.29,1.91-1.13c0.95,0.15,0.88,0.93,1.02,1.54c0.39,1.68-0.16,3.35-0.54,5
			c-1.17,5.25-2.1,10.5-2.41,15.8c-0.25,4.18-0.2,8.34-0.1,12.5c0.01,0.39-0.03,0.79-0.11,1.18c-0.11,0.55-0.46,0.98-1.18,1.16
			c-0.68,0.17-1.19-0.02-1.63-0.39c-0.63-0.53-1.03-1.17-1.41-1.83c-2.71-4.67-5.42-9.35-8.12-14.02c-0.22-0.38-0.44-0.77-0.76-1.34
			c-0.33,1.16-0.24,2.11-0.24,3.05c-0.01,4.49,0,8.97,0.25,13.44c0.01,0.17,0.02,0.34,0,0.52c-0.02,0.19-0.01,0.41-0.32,0.49
			c-0.31,0.07-0.31-0.14-0.42-0.28c-0.18-0.22-0.26-0.08-0.32,0.09C137.12,43.42,136.72,43.63,136.33,43.89z"/>
		<path class="st0" d="M131.64,28.26c0.5,3.86,0.6,7.74-0.49,11.63c-0.62,2.21-1.57,4.33-3.33,6.18c-0.89,0.94-2.03,1.56-3.41,1.92
			c-1.68,0.44-3.98-0.03-4.57-1.75c-0.27-0.79-1.12-1.4-1.52-2.19c-1.37-2.71-1.79-5.59-1.83-8.53c-0.04-3.03,0.19-6.06,1.14-9.07
			c0.5-1.58,1.08-3.13,2.1-4.57c0.21-0.3,0.44-0.59-0.21-0.69c-0.31-0.05-0.39-0.25-0.34-0.51c0.2-0.97,1.3-1.59,2.4-1.31
			c0.4,0.1,0.75,0.1,1.13-0.09c2.71-1.39,5.51-0.33,6.71,1.52c0.94,1.45,1.47,3.01,1.83,4.62
			C131.45,26.35,131.51,27.32,131.64,28.26z M124.94,22.83c-0.77,0.92-1.37,1.73-1.73,2.64c-2.18,5.53-2.32,11.04-1.01,16.54
			c0.18,0.74,0.45,1.46,0.96,2.1c0.3,0.38,0.6,0.43,0.95-0.02c1.63-2.03,2.72-4.27,3.28-6.55c0.76-3.16,0.48-6.35,0.34-9.52
			c-0.01-0.28-0.13-0.52-0.34-0.73C126.12,26.04,125.41,24.57,124.94,22.83z"/>
		<path class="st0" d="M84.33,27.53c0.06,2.01-0.41,4.12-1.6,6.15c-0.39,0.66-0.82,1.31-1.24,1.95c-0.5,0.77-0.95,0.82-1.68,0.23
			c-0.9-0.72-0.91-1.66-0.79-2.6c0.17-1.31,0.43-2.61,0.63-3.91c0.04-0.23,0.23-0.53-0.07-0.68c-0.24-0.12-0.52,0.07-0.76,0.18
			c-2.94,1.4-5.47,3.16-7.24,5.55c-1.29,1.74-0.94,2.65,1.2,3.5c1.27,0.5,2.66,0.76,4.02,1.07c2.18,0.51,4.32,1.12,6.01,2.34
			c4.39,3.2,4.8,6.29,1.75,10.27c-1.39,1.82-3.22,3.31-5.15,4.74c-1.57,1.17-3.26,2.23-5.02,3.21c-0.8,0.45-1.67,0.69-2.6,0.77
			c-0.99,0.09-1.81-0.3-2.14-1.05c-0.3-0.66-0.02-1.23,0.62-1.76c0.49-0.41,1.1-0.68,1.64-1.02c3.11-1.94,5.77-4.24,8.28-6.66
			c0.38-0.37,0.67-0.8,0.93-1.23c1.07-1.73,0.71-3.25-1.06-4.41c-1.65-1.08-3.67-1.59-5.67-2.11c-1.37-0.35-2.77-0.66-4.08-1.15
			c-3.26-1.21-4.36-3.38-3.19-6.22c0.64-1.55,1.72-2.91,3.07-4.14c2.45-2.24,5.23-4.11,8.61-5.33c2.33-0.84,3.3-0.4,5.12,0.94
			C84.32,26.49,84.19,26.97,84.33,27.53z"/>
		<path class="st0" d="M91.65,52.63c-0.2-0.3-0.3-0.47-0.43-0.66c-0.09,0.08-0.17,0.12-0.19,0.17c-0.36,0.73-0.29,1.46-0.18,2.21
			c0.15,1.09,0.23,2.2,0.31,3.3c0.01,0.18,0.22,0.5-0.19,0.54c-0.31,0.03-0.21-0.3-0.23-0.47c-0.21-1.51-0.4-3.02-0.59-4.53
			c-0.05-0.41-0.02-0.8-0.81-0.77c-0.5,0.02-0.75-0.33-0.91-0.75c-0.87-2.33-1.06-4.75-1.09-7.19c-0.05-5.34,0.06-10.69,0.97-16.04
			c0.26-1.52,0.56-3.05,1.15-4.53c0.09-0.22,0.19-0.38-0.15-0.55c-1.07-0.53-1.4-1.64-0.65-2.6c0.79-1,1.67-1.97,2.95-2.64
			c1.11-0.58,2-0.6,2.8-0.07c0.76,0.51,0.99,1.51,0.52,2.36c-0.49,0.87-1.28,1.56-2.26,2.1c-0.45,0.25-0.68,0.44-0.18,0.83
			c0.46,0.36,0.46,0.93,0.45,1.45c-0.05,2.93-0.44,5.87-0.63,8.81c-0.25,3.95-0.33,7.89-0.04,11.82c0.07,0.93,0.4,1.92,0.09,2.78
			C91.82,49.61,92.22,51.06,91.65,52.63z"/>
		<path class="st0" d="M72.06,99.54c0.49-0.53,1.16-0.84,1.87-1.12c5.88-2.36,12.05-4.01,18.27-5.52
			c5.69-1.38,11.41-2.64,17.27-3.19c2.97-0.28,5.94-0.41,8.87-0.05c1.15,0.14,2.25,0.37,3.24,0.84c0.46,0.22,0.88,0.42,0.27,0.96
			c-0.16,0.14,0.07,0.61-0.38,0.85c-0.17-0.54-0.7-0.6-1.29-0.62c-5.07-0.18-10.09,0.37-15.09,1.35
			c-10.23,2.01-20.18,4.83-29.97,8.1c-0.29,0.1-0.59,0.16-0.88,0.24c-0.33,0.04-0.66,0.08-0.99,0.12c0,0,0,0,0,0
			C72.32,101.07,72.19,100.31,72.06,99.54z"/>
		<path class="st0" d="M80.14,82.95c-0.39-5.94-0.66-11.89-0.37-17.87c0.05-0.98,0.08-1.98,0.72-2.9c0.21-0.3-0.09-0.51-0.19-0.75
			c-0.33-0.8-0.04-1.76,0.68-2.18c0.75-0.44,1.89-0.35,2.71,0.21c0.72,0.49,0.76,1.44,0.09,2.22c-0.15,0.17-0.46,0.28-0.31,0.57
			c0.86,1.7,0.77,3.55,0.83,5.36c0.17,5.31-0.07,10.65,0.27,15.96c0.14,2.16,0.49,4.3,0.75,6.44c0.05,0.45,0.13,0.88-0.2,1.36
			c-0.33,0.48-0.57,1.07-1.29,1.05c-0.69-0.02-1.17-0.48-1.48-0.99c-0.99-1.65-1.47-3.43-1.77-5.25
			C80.4,85.1,80.28,84.02,80.14,82.95z"/>
		<path class="st0" d="M23.91,40.46c0.76,0.12,1.67-0.09,2.19,0.56c0.09,0.11,0.24,0.15,0.38,0.03c0.44-0.39,0.4,0,0.46,0.17
			c0.08,0.21,0.15,0.25,0.28,0.02c0.44,1.22,1.23,2.29,2.01,3.36c0.23,0.32,0.52,0.65-0.06,0.94c-0.52,0.26-0.78-0.05-1.03-0.33
			c-0.22-0.25-0.44-0.51-0.62-0.78C26.54,42.98,25.8,41.37,23.91,40.46z"/>
		<path class="st0" d="M151.04,56.51c0.05,0.09,0.15,0.18,0.14,0.26c-0.25,1.25,0.63,2.07,1.47,2.93c0.33,0.33,0.64,0.2,0.94,0.05
			c0.32-0.15,0.59-0.37,0.89-0.56c0.41,0.34,1.03,0.37,1.52,0.58c0.34,0.15,0.71,0.27,0.92,0.55c0.16,0.21,0.22,0.47-0.02,0.69
			c-0.26,0.23-0.52,0.07-0.73-0.05c-0.37-0.21-0.81-0.3-1.22-0.43c-0.73-0.23-1.37-0.32-1.8,0.45c-0.14,0.25-0.43,0.56-0.87,0.34
			c-0.39-0.2-0.46-0.53-0.19-0.83c0.45-0.51,0.31-0.8-0.28-1.1c-0.5-0.26-0.83-0.67-1.1-1.11
			C150.33,57.64,150.36,57.05,151.04,56.51z"/>
		<path class="st0" d="M9.25,84.65c0.35,0.04,0.75-0.06,1,0.22c-0.38,0.86-0.89,1.7-1.15,2.59c-0.1,0.33-0.3,0.73-0.86,0.62
			c-0.54-0.11-0.35-0.51-0.27-0.8C8.23,86.36,8.65,85.48,9.25,84.65z"/>
		<path class="st0" d="M34.53,74.92c-0.19-0.12-0.37-0.23-0.56-0.35c0.68-0.19,0.36-0.64,0.35-0.94c-0.03-1.62-0.13-3.24-0.2-4.86
			c-0.02-0.51-0.01-1.03-0.02-1.55c0.07,0.04,0.14,0.09,0.22,0.13c0.07,0.01,0.14,0.02,0.21,0.04c-0.27,0.99,0.21,1.92,0.2,2.9
			C34.7,71.83,34.89,73.37,34.53,74.92z"/>
		<path class="st0" d="M124.35,85.23c0.46-0.7,1.19-0.89,2.07-0.77c-0.19,0.42-0.53,0.58-0.87,0.39c-0.11-0.06-0.19-0.11-0.3-0.02
			c-0.2,0.17-0.19,0.36-0.1,0.55c0.38,0.85,0.52,1.75,0.65,2.65c0.08,0.55,0.21,1.1-0.12,1.68c-0.25-1.33-0.5-2.66-0.77-3.99
			C124.87,85.47,125,85.03,124.35,85.23z"/>
		<path class="st0" d="M181.22,47c0.31,0.14,0.71,0,1,0.2c-0.59,0.44-0.64,1.11-1.16,1.58c-0.31,0.29-0.6,0.68-1.12,0.4
			c-0.48-0.27-0.14-0.62,0.09-0.91C180.39,47.82,180.73,47.37,181.22,47z"/>
		<path class="st0" d="M157.86,79.79c-0.03,0.79,0.13,1.54,0.65,2.2c-0.17-0.02-0.36-0.02-0.52-0.07c-0.65-0.21-1.24-0.53-1.31-1.13
			C156.61,80.17,157.37,80.05,157.86,79.79z"/>
		<path class="st0" d="M136.33,43.89c0.39-0.26,0.79-0.47,1.27-0.19c-0.14,1.4,0.38,2.74,0.26,4.32c-0.44-0.38-0.29-0.72-0.31-1
			c-0.06-0.93-0.31-1.84-0.28-2.78c0.01-0.33-0.11-0.69-0.59-0.17c-0.11,0.12-0.15,0.14-0.24,0.01
			C136.41,44.02,136.37,43.95,136.33,43.89z"/>
		<path class="st0" d="M72.06,99.54c0.13,0.77,0.25,1.53,1.19,1.95c-0.53,0.04-1.04-0.04-1.49-0.19
			C70.96,101.04,71.09,100.31,72.06,99.54z"/>
		<path class="st0" d="M135.79,82.21c0.99-0.28,2-0.52,2.67-1.27C138.24,82.27,137.04,82.85,135.79,82.21z"/>
		<path class="st0" d="M104.95,54.29c-0.69,0.34-1.38,0.29-2.07,0.1C103.33,53.71,104.03,53.68,104.95,54.29z"/>
		<path class="st0" d="M72.2,72.56c0.29,0.94,0.16,1.95,0.56,2.87c0.02,0.05-0.12,0.16-0.18,0.24C72.3,74.66,72.25,73.61,72.2,72.56
			z"/>
		<path class="st0" d="M57.5,65.36c-0.33,0.55-0.83,0.67-1.46,0.44C56.47,65.52,56.93,65.31,57.5,65.36z"/>
		<path class="st0" d="M72.75,76.84c0.47,0.48,0.41,1.04,0.25,1.62C72.84,77.93,72.72,77.4,72.75,76.84z"/>
		<path class="st0" d="M124.27,90.41c0.23-0.08,0.47-0.16,0.7-0.25c-0.04,0.3,0.06,0.62-0.25,0.9
			C124.37,90.93,124.51,90.58,124.27,90.41z"/>
		<path class="st0" d="M34.01,66.36c0.12-0.02,0.24-0.03,0.36-0.05c0.14,0.35,0.22,0.7,0.16,1.08c-0.07-0.01-0.14-0.02-0.21-0.04
			c0-0.22-0.09-0.4-0.26-0.56C34.04,66.65,34.02,66.51,34.01,66.36z"/>
		<path class="st0" d="M71.74,71.65c0.03-0.24,0.06-0.48,0.12-0.93c0.23,0.5,0.32,0.82,0.24,1.18
			C72.02,71.78,72.02,71.59,71.74,71.65z"/>
		<path class="st0" d="M73.04,78.75c0.12,0.13,0.14,0.28,0.07,0.43C73.08,79.04,73.06,78.89,73.04,78.75z"/>
		<path class="st0" d="M73.25,101.49c0.33-0.04,0.66-0.08,0.99-0.12C73.93,101.56,73.6,101.62,73.25,101.49z"/>
		<path class="st0" d="M34.05,66.8c0.17,0.16,0.26,0.34,0.26,0.56c-0.07-0.04-0.14-0.09-0.22-0.13
			C34.08,67.08,34.07,66.94,34.05,66.8z"/>
		<path class="st0" d="M72.62,75.96c0.11,0.09,0.13,0.2,0.05,0.32C72.58,76.19,72.55,76.08,72.62,75.96z"/>
		<path class="st0" d="M138.47,80.84c-0.07-0.21-0.06-0.43,0.05-0.64C138.58,80.41,138.61,80.62,138.47,80.84z"/>
		<path class="st0" d="M27.19,40.91c-0.11-0.14-0.09-0.28,0-0.43C27.19,40.63,27.19,40.77,27.19,40.91z"/>
		<path class="st0" d="M172.18,62.55c0.04,0.01,0.07,0.01,0.11,0.02c-0.02-0.01-0.03-0.03-0.05-0.03c-0.02,0-0.04,0.01-0.06,0.02
			C172.18,62.56,172.18,62.55,172.18,62.55z"/>
		<path class="st0" d="M105.38,54.82c-0.06-0.1-0.12-0.19-0.18-0.29C105.33,54.6,105.39,54.7,105.38,54.82z"/>
		<polygon class="st0" points="133.85,13.63 133.81,13.6 133.8,13.65 		"/>
		<path class="st0" d="M102.76,54.49c-0.01,0.04-0.04,0.07-0.09,0.09C102.67,54.53,102.7,54.5,102.76,54.49z"/>
		<path class="st0" d="M58.11,65.54c-0.07-0.03-0.15-0.06-0.22-0.1C57.96,65.47,58.03,65.51,58.11,65.54z"/>
		<path class="st0" d="M71.62,72.12c0.02-0.06,0.04-0.12,0.06-0.18C71.67,72,71.64,72.06,71.62,72.12z"/>
		<path class="st0" d="M72.11,71.89c0.01,0.05,0.01,0.09,0.02,0.14C72.08,71.98,72.08,71.94,72.11,71.89z"/>
		<path class="st0" d="M51.25,39.91c0.06-0.04,0.12-0.08,0.18-0.12c0.05,0.07,0.04,0.13-0.06,0.17
			C51.32,39.95,51.28,39.93,51.25,39.91z"/>
		<path class="st0" d="M170.8,63.72c-0.03,0.12-0.14,0.14-0.25,0.14c-0.01,0-0.03-0.05-0.05-0.08c0.1-0.02,0.21-0.03,0.32-0.05
			C170.81,63.74,170.8,63.72,170.8,63.72z"/>
		<path class="st0" d="M110.67,20.08c-0.07-0.01-0.14-0.03-0.2-0.04c0.02-0.01,0.04-0.03,0.05-0.03c0.05,0.02,0.09,0.05,0.14,0.08
			C110.66,20.09,110.67,20.08,110.67,20.08z"/>
	</g>
</g>
</svg>
