<?xml version="1.0" encoding="utf-8"?>
<!-- Generator: Adobe Illustrator 23.0.5, SVG Export Plug-In . SVG Version: 6.00 Build 0)  -->
<svg version="1.1" id="Layer_1" xmlns="http://www.w3.org/2000/svg" xmlns:xlink="http://www.w3.org/1999/xlink" x="0px" y="0px"
	 viewBox="0 0 94.3 80.68" style="enable-background:new 0 0 94.3 80.68;" xml:space="preserve">
<style type="text/css">
	.st0{fill:#43658E;}
</style>
<g>
	<g>
		<path class="st0" d="M44.12,41.36c0-0.06,0-0.13-0.01-0.19c0.16-0.07,0.21-0.19,0.2-0.35c0,0,0,0,0,0
			c0.03-0.03,0.06-0.06,0.1-0.09c1.66-1.72,3.78-2.55,6.03-3.12c2.57-0.64,5.09-0.34,7.57,0.51c0.25,0.37,0.67,0.4,1.04,0.45
			c0.3,0.05,0.05-0.15,0.02-0.24c-0.07-0.95,0.61-1.36,1.29-1.74c0.71-0.4,1.51-0.55,2.32-0.62c1.56-0.12,3.13-0.11,4.68,0.12
			c2.77,0.4,4.76,1.95,6.25,4.25c0.15,0.23,0.22,0.62,0.49,0.61c0.23-0.01,0.27-0.41,0.39-0.64c1.11-2.05,2.58-3.79,4.58-5.01
			c1.45-0.89,3.05-1.41,4.79-1.33c0.4,0.02,0.78,0.12,1.15,0.27c1.42,0.57,1.87,1.55,1.49,3.04c-0.24,0.93-0.81,1.63-1.44,2.29
			c-0.18,0.18-0.11,0.4-0.29,0.58c-0.07-0.32-0.25-0.53-0.53-0.71c-0.68-0.42-0.72-1.08-0.16-1.76c0.3-0.36,0.16-0.68-0.08-0.99
			c0.02-0.02,0.05-0.04,0.07-0.06c-0.01-0.01-0.03-0.02-0.04-0.03c-0.01,0.03-0.02,0.06-0.03,0.08c-0.82-0.03-1.58,0.24-2.29,0.57
			c-0.39,0.18-0.88,0.27-1.09,0.74c-0.04,0.02-0.09,0.05-0.13,0.07c-0.23,0.09-0.49,0.13-0.68,0.27c-0.46,0.32-1.05,0.53-1.12,1.21
			c0,0-0.02,0.01-0.02,0.01c-0.05,0.05-0.1,0.1-0.14,0.15c-0.41,0.58-0.96,1.06-1.28,1.72c-0.56,1.17-0.32,1.95,0.85,2.49
			c0.99,0.46,2.06,0.68,3.12,0.92c1.66,0.38,3.29,0.82,4.78,1.66c1.07,0.6,2.05,1.31,2.84,2.26c0.27,0.33,0.53,0.67,0.67,1.09
			c-0.02,0.08,0,0.14,0.07,0.19c0.03,0.09,0.07,0.18,0.1,0.28c0.02,0.72,0.15,1.43,0.09,2.17c-0.09,1.05-0.6,1.8-1.24,2.52
			c-0.24,0.27-0.48,0.53-0.62,0.87l0,0c-0.13,0.03-0.24,0.08-0.34,0.18c-0.94,0.94-1.96,1.78-3.15,2.39
			c-0.1,0.05-0.16,0.12-0.16,0.23c0,0.21-0.17,0.3-0.28,0.44l0,0c-0.51,0.21-0.91,0.63-1.48,0.76c-0.35,0.08-0.67,0.29-1,0.4
			c-0.36,0.12-0.66,0.39-1.11,0.3c-0.58-0.12-1.23-0.3-1.68,0.35c-0.03,0.05-0.15,0.08-0.22,0.07c-0.33-0.04-0.61,0.12-0.91,0.2
			c-1.35,0.34-2.69,0.76-4.11,0.35c-0.59-0.53-0.63-1.69-0.21-2.51c0.97-1.92,2.51-3.21,4.37-4.18c0.72-0.38,1.49-0.62,2.3-0.71
			c0.28-0.03,0.59-0.07,0.74,0.24c0.14,0.29-0.07,0.49-0.23,0.7c-0.85,1.14-2.03,1.92-3.02,2.91c-0.41,0.41-0.8,0.83-1.15,1.29
			c-0.08,0.1-0.22,0.2-0.14,0.34c0.08,0.13,0.24,0.08,0.37,0.06c1.32-0.17,2.59-0.55,3.8-1.04c1.72-0.7,3.4-1.5,4.82-2.75
			c0.91-0.8,1.75-1.65,2.26-2.76c0.41-0.9,0.21-1.81-0.47-2.54c-1.68-1.81-3.86-2.68-6.17-3.33c-1.03-0.29-2.08-0.51-3.11-0.77
			c-0.81-0.2-1.54-0.57-2.2-1.07c-0.04-0.03-0.08-0.05-0.12-0.08c0,0,0.01,0.01,0.01,0.01c-0.11-0.11-0.21-0.21-0.31,0.01l0,0.02
			c-0.01,0.09-0.01,0.17-0.02,0.26c0,0.05-0.01,0.1-0.01,0.15c-0.17,0.26-0.15,0.53-0.07,0.81c-0.01,0.07-0.02,0.14-0.03,0.21
			c-0.17,0.25-0.23,0.55-0.28,0.84c-0.33,2.26-1.36,4.28-2.2,6.37c-0.53,1.31-1.31,2.51-2.1,3.68c-0.77,1.15-1.52,2.36-2.72,3.16
			c-0.65,0.44-1.28,0.91-1.92,1.37c-0.23,0.16-0.4,0.33-0.08,0.57c0.03,0.01,0.07,0.02,0.1,0.03c0,0-0.01-0.01-0.01-0.01
			c0.03,0.08,0.07,0.15,0.1,0.23c0.07,0.31,0.3,0.48,0.57,0.62c0.11,0.19,0.22,0.39,0.34,0.58c0,0,0.01,0.03,0.01,0.03
			c0.21,0.35,0.12,0.74,0.11,1.11c-0.02,0.3-0.24,0.41-0.53,0.35c-0.48-0.1-0.9-0.33-1.25-0.65c-0.35-0.32-0.72-0.62-1.12-0.88
			c-0.93-0.58-1.68-1.37-2.46-2.12c-2.73-2.62-5.45-5.26-8.17-7.89c-0.05-0.05-0.07-0.12-0.1-0.17c-0.04,0.03-0.08,0.07-0.12,0.1
			c0.13,0.97,0.25,1.94,0.38,2.91c0.16,1.24,0.32,2.48,0.48,3.72c0.1,0.78-0.13,1.51-0.38,2.22c-0.18,0.51-0.87,0.57-1.2,0.12
			c-0.35-0.48-0.46-1.05-0.58-1.61c-0.34-1.58-0.66-3.16-0.98-4.74c-0.16-0.79-0.15-0.8-0.91-0.54c-0.02,0-0.04,0-0.06,0.02
			c-0.1,0.04-0.2,0.08-0.3,0.12c0.1-0.37,0.67-0.2,0.79-0.78c-0.57,0.41-1.18,0.39-1.73,0.78c0.24,0.05,0.4,0.08,0.56,0.11
			c-0.32,0.11-0.34,0.29-0.22,0.59c0.71,1.75,1.39,3.52,2.1,5.27c0.15,0.38,0.22,0.73,0.03,1.13c-0.08,0.18-0.34,0.66,0.3,0.49
			c0.12-0.03,0.21,0.09,0.17,0.18c-0.15,0.29-0.5,0.15-0.73,0.33c-0.13,0.1-0.22-0.11-0.23-0.23c-0.13-0.91-0.9-1.42-1.35-2.13
			c-0.21-0.32-0.2-0.77-0.57-1c-0.07-0.04-0.03-0.2,0.09-0.23c0.12-0.03,0.19,0.06,0.19,0.17c-0.04,0.64,0.31,1.16,0.53,1.71
			c0.07,0.18,0.11,0.34-0.04,0.43c-0.23,0.14-0.27-0.12-0.34-0.23c-0.9-1.57-1.6-3.24-2.36-4.88c-0.1-0.22-0.15-0.48-0.43-0.56
			c-0.87-0.26-1.7-0.22-2.46,0.33c-0.1,0.07-0.24,0.1-0.36,0.15c-0.6,0.27-1.37,0.19-1.79,0.86c0,0-0.1-0.06-0.15-0.09c0,0,0,0,0,0
			c-0.55,0.07-1.04,0.3-1.52,0.54c-0.18,0.09-0.45,0.21-0.31,0.47c0.12,0.23,0.35,0.06,0.52-0.01c0.14-0.05,0.27-0.26,0.43-0.13
			c0.15,0.12,0.02,0.31,0.02,0.47c0,0.08-0.03,0.16-0.04,0.24c-0.26,1.65-0.76,3.26-0.83,4.93c-0.02,0.48-0.03,0.95-0.19,1.41
			c-0.06,0.16-0.05,0.32,0.04,0.48c-0.04,0.06-0.01,0.18-0.12,0.19c0.08,0.03,0.16,0.07,0.05,0.15c-0.06,0.04-0.17,0.02-0.18-0.08
			c-0.01-0.1,0.04-0.15,0.14-0.07c0.09-0.07,0.21-0.16,0.3-0.1c0.12,0.09,0.01,0.21-0.05,0.3c-0.11,0.16-0.22,0.33-0.36,0.46
			c-0.4,0.39-0.71,0.33-1.08-0.17c-0.04-0.11-0.08-0.22-0.12-0.34c-0.01-0.07-0.03-0.13-0.04-0.2c0-0.03,0-0.06,0-0.1
			c-0.02-0.1-0.04-0.2-0.06-0.29c0.05-0.14,0.01-0.27-0.09-0.38c0-0.03-0.01-0.07-0.01-0.1c0.17-0.18,0.12-0.4,0.08-0.61
			c0.22-1.75,0.43-3.49,0.67-5.24c0.06-0.43-0.05-0.55-0.47-0.5c-0.37,0.04-0.76,0.04-1.13,0c-0.32-0.03-0.45,0.1-0.49,0.39
			c-0.06,0.44-0.06,0.89-0.22,1.31c-0.02,0.06-0.03,0.12-0.05,0.18c0,0,0.01,0.02,0.01,0.02c-0.02,0.09-0.04,0.17-0.06,0.26
			c0,0.17-0.03,0.33-0.11,0.49c-0.02,0.08-0.04,0.16-0.06,0.25c0.01,0.02,0,0.04-0.02,0.06c-0.28,0.27-0.33,0.61-0.3,0.98
			c0,0,0,0,0,0c-0.19,0.07-0.25,0.24-0.33,0.4c-0.29,0.59-0.47,1.27-0.94,1.71c-1.04,0.98-2.02,2.09-3.58,2.25
			c-0.08-0.01-0.16-0.02-0.24-0.03c-0.02-0.01-0.03-0.01-0.05,0l-0.02,0c-0.13-0.21-0.33-0.22-0.55-0.19c0,0,0,0,0,0
			c-0.05-0.02-0.09-0.04-0.14-0.07c0,0,0.01,0.01,0.01,0.01c-0.07-0.13-0.18-0.18-0.32-0.16c0,0,0,0,0,0
			c-0.2-0.72-0.69-1.28-1.22-1.74c-0.33-0.28-0.62-0.44-0.48-0.92c0.02-0.07-0.02-0.16-0.06-0.23c-0.54-1.25-1.13-2.48-1.54-3.79
			c-0.19-0.59-0.48-1.15-0.54-1.78c-0.02-0.22-0.16-0.27-0.34-0.25c-0.04-0.23-0.08-0.45-0.12-0.68c0-0.03-0.01-0.07-0.01-0.1
			c-0.05-0.19-0.1-0.38-0.14-0.57c-0.04-0.07-0.05-0.01-0.07,0.01c-0.85,0.32-1.12,0.9-0.85,1.77c0.09,0.27,0.06,0.58,0.08,0.88
			c-0.21,0.15-0.17,0.37-0.16,0.59c0.03,1,0.12,2.01,0.01,3.01c-0.17,1.53-0.36,3.07-0.52,4.6c-0.04,0.4-0.21,0.64-0.6,0.74
			c-0.32,0.08-0.59,0.27-0.91,0.51c0.33,0.14,0.64,0.33,0.48,0.66c-0.52,1.12-0.89,2.4-2.42,2.57c-0.07,0.01-0.16,0.04-0.15,0.1
			c0.12,0.49-0.2,0.34-0.44,0.31c-0.14-0.01-0.27,0.03-0.33,0.17c-0.05,0.12,0.05,0.17,0.15,0.22c0.12,0.06,0.35,0.05,0.3,0.25
			c-0.06,0.23-0.31,0.17-0.47,0.14c-0.81-0.15-1.65-0.04-2.43-0.34c-0.25-0.1-0.51-0.12-0.78-0.04C16,74.02,15.92,74,15.84,73.99
			c0,0,0.01,0.01,0.01,0.01c-0.68-0.41-1.43-0.69-1.99-1.29c-0.03-0.02-0.06-0.05-0.08-0.07c-0.03-0.01-0.05-0.02-0.06-0.05
			c-0.04-0.04-0.08-0.08-0.12-0.12c0,0,0.01,0.01,0.01,0.01c-0.04-0.03-0.07-0.06-0.11-0.09l0,0c-0.03-0.03-0.06-0.05-0.09-0.08
			c-0.03-0.01-0.04-0.03-0.05-0.05c-0.04-0.04-0.08-0.08-0.12-0.12c0,0,0,0,0,0c-0.05-0.17-0.14-0.3-0.32-0.36
			c-0.03-0.01-0.05-0.03-0.06-0.07c-0.06-0.2-0.17-0.36-0.38-0.45c0,0,0,0,0,0c-0.08-0.39-0.43-0.62-0.55-0.98
			c-0.04-0.13-0.54-0.5,0.14-0.48c0.13,0,0.07-0.16,0.03-0.24c-0.16-0.36-0.3-0.73-0.49-1.08c-0.78-1.43-1.29-2.96-1.5-4.56
			c-0.19-1.41-0.38-2.84-0.27-4.28c0.02-0.32-0.05-0.69-0.33-0.94c0.13-2.01,0.77-3.89,1.54-5.72c1.1-2.63,2.49-5.08,4.49-7.15
			c0.22-0.22,0.45-0.43,0.68-0.65c0.92-0.9,1.96-1.17,3.21-0.75c0.7,0.24,1.45,0.35,2.17,0.51c-0.02,0.02-0.03,0.04-0.04,0.06
			c0.01,0,0.03,0,0.03-0.01c0-0.01,0-0.03,0-0.05c-0.31-0.6-0.37-1.26-0.48-1.91c-0.27-1.52-0.53-3.05-0.8-4.58
			c-0.02-0.13-0.06-0.25-0.1-0.41c-0.22,0.09-0.21,0.3-0.26,0.45c-0.37,1.22-1.08,2.2-2.01,3.06c-1.53,1.42-3.36,2.3-5.27,3.04
			c-0.07-0.05-0.14-0.07-0.22-0.01c-0.06,0.01-0.13,0.01-0.19,0.02c-0.46-0.04-0.77-0.39-1.17-0.55c-0.68-0.28-1.39-0.37-2.11-0.11
			c-0.11,0.04-0.24,0.06-0.33-0.01c-0.27-0.21-0.69,0.02-0.93-0.41c-0.23-0.43-0.58,0.24-0.9,0.05c-0.03-0.02-0.07-0.01-0.09-0.03
			c-0.42-0.37-0.71-0.11-1,0.19c-0.74-0.67-0.81-1.5-0.51-2.38c0.5-1.45,1.46-2.58,2.56-3.62c0.33-0.32,0.69-0.61,1.03-0.91
			c0.37-0.06,0.73-0.13,1.1,0c0.04,0.12,0.02,0.23-0.03,0.35c0,0,0,0,0,0c0.01,0.02,0,0.04-0.01,0.05c-0.08,0.07-0.1,0.16-0.09,0.26
			c0,0,0,0,0,0c-0.23,0.12-0.4,0.26-0.17,0.53c0,0.03-0.01,0.06-0.04,0.08c-0.31,0.15-0.9,1.16-0.85,1.47
			c0.01,0.07,0.09,0.13,0.14,0.19c-0.25,0.65-0.74,1.21-0.79,1.94c-0.04,0.22,0.12,0.28,0.28,0.33c0.62,0.21,1.25,0.31,1.89,0.21
			c0.41-0.06,0.91,0.13,1.22-0.33c0.12-0.02,0.25-0.04,0.37-0.07c0.06,0.02,0.12,0.06,0.18,0.06c0.95-0.06,1.74-0.66,2.68-0.75
			c0.03,0,0.09-0.06,0.09-0.1c0.06-0.33,0.36-0.45,0.58-0.64c0.6-0.52,1.38-0.81,1.78-1.56c0.04-0.08,0.16-0.11,0.24-0.16
			c0.02,0.02,0.04,0.05,0.06,0.07c0.01-0.02,0.02-0.03,0.03-0.05c-0.03-0.01-0.06-0.02-0.09-0.03c0.01-0.1,0.02-0.21,0.11-0.26
			c0.45-0.27,0.58-0.69,0.67-1.18c0.12-0.61-0.33-1.29,0.24-1.83c0.01-0.01,0-0.03,0-0.05c-0.12-0.5-0.23-1.01-0.38-1.51
			c-0.04-0.12-0.19-0.28-0.31-0.3c-0.35-0.06-0.44-0.22-0.41-0.55c0.02-0.16-0.15-0.29-0.31-0.24c-0.36,0.12-0.55-0.1-0.76-0.31
			c-0.15-0.15-0.33-0.28-0.56-0.29c-0.04-0.03-0.08-0.05-0.12-0.08c-0.05-0.1-0.08-0.22-0.22-0.21c-0.02,0-0.06,0.05-0.05,0.06
			c0.04,0.14,0.17,0.12,0.28,0.14c0.04,0.03,0.08,0.05,0.12,0.08c0,0.11,0.03,0.24-0.01,0.34c-0.11,0.26-0.09,0.42,0.25,0.39
			c0.09-0.01,0.17,0.04,0.15,0.14c-0.01,0.09-0.08,0.15-0.17,0.16c-0.26,0.03-0.53,0.06-0.77-0.07c-0.49-0.26-1-0.5-1.47-0.79
			c-0.38-0.24-0.65-0.38-0.73,0.23c-2.55-0.96-5.14-1.81-7.48-3.29c-2.26-1.43-2.27-3.45-1.36-5.3c0.93-1.88,2.33-3.37,3.98-4.65
			c0.43-0.33,0.86-0.65,1.34-0.92c0.24-0.02,0.45-0.1,0.59-0.3c0.08-0.04,0.15-0.08,0.23-0.12c0,0,0.01,0,0.01,0
			c0.07-0.04,0.14-0.08,0.21-0.12c0.33,0.19,0.43-0.08,0.56-0.28c0.06-0.02,0.12-0.04,0.18-0.06c0.44,0.13,0.8-0.14,1.19-0.25
			c0.36-0.1,0.63-0.17,0.77,0.28c0.04,0.13,0.17,0.24,0.3,0.22c0.51-0.07,1.02-0.25,1.44,0.23c0.01,0.02,0.07,0.01,0.1,0
			c0.72-0.25,1.35-0.05,1.93,0.38c0.2,0.42,0.15,0.86,0.02,1.28c-0.05,0.15-0.04,0.28-0.05,0.42c-0.13,0.28-0.27,0.56-0.4,0.84
			c-0.07,0.16-0.04,0.26,0.16,0.24c0.13-0.01,0.29-0.21,0.37,0.02c0.06,0.2-0.11,0.33-0.27,0.42c-0.69,0.42-1.38,0.85-2.08,1.26
			c-0.14,0.09-0.21,0.25-0.11,0.31c0.25,0.14,0.7,0.35,0.78,0.27c0.34-0.38,0.91-0.4,1.21-0.81c0.22-0.31,0.56-0.44,0.9-0.57
			c0.47-0.18,0.53-0.37,0.26-0.82l0,0c0.15-0.01,0.32,0.04,0.43-0.07c0.5-0.51,1.23-0.58,1.8-0.93c0.13-0.08,0.31-0.27,0.48-0.11
			c0.19,0.18,0.03,0.36-0.06,0.53c-0.22,0.4-0.33,0.79-0.07,1.24c0.24,0.43,0.22,0.88-0.23,1.22c0,0,0,0,0,0
			c0.61,0.11,0.08,0.31,0.02,0.46c-0.05,0.12-0.36,0.28-0.07,0.32c0.37,0.05,0.21,0.26,0.22,0.4c0,0.17,0.2,0.35-0.03,0.54
			c-0.24,0.18-0.21,0.43-0.12,0.71c0.2,0.64,0.48,1.3,0.47,1.95c-0.01,0.55,0.11,0.84,0.55,1.1c0.17,0.1,0.16,0.28-0.06,0.38
			c-0.09,0.04-0.25,0.01-0.23,0.22c0.43,0.05,0.81,0.17,0.67,0.75c-0.02,0.07,0.08,0.17,0.12,0.26c0.15,0.38,0.52,0.59,0.73,1.04
			c0.13-0.38-0.02-0.64-0.05-0.9c-0.06-0.44,0.1-0.62,0.53-0.59c0.05,0.53,0.09,1.05,0.14,1.58c-0.25,0.1-0.09,0.26-0.01,0.35
			c0.11,0.12,0.2-0.01,0.28-0.08c0.77-0.68,1.4-1.5,2.12-2.22c0.71-0.71,1.01-1.7,1.87-2.27c0.44-0.3,0.59-0.94,1.1-1.25
			c0.15-0.09,0.15-0.32,0.19-0.49c0.12-0.47,0.1-1.03,0.76-1.14c0.17-0.03,0.16-0.23,0.25-0.34c0.33-0.39,0.03-1.07,0.65-1.29
			c-0.14-0.16-0.46,0.04-0.44-0.26c0.05-0.76,0.08-1.53,0.6-2.18c0.38-0.47,0.96-0.77,1.22-1.35c0.15-0.34,0.38-0.42,0.71-0.36
			c0.34,0.06,0.68,0.09,1.02-0.02c0.93-0.31,1.85-0.67,2.81-0.89c0.13-0.03,0.24-0.11,0.31-0.23c1.08-0.4,2.16-0.79,3.24-1.19
			c0.54-0.2,1.09-0.23,1.64-0.01c0.28,0.11,0.4,0.27,0.23,0.56c-0.32,0.06-0.63,0.19-0.81,0.44c-0.45,0.65-1.06,1.04-1.79,1.3
			c-1.17,0.42-2.26,1.05-3.48,1.37c-0.52,0.13-1.06,0.26-1.52,0.56c-0.11,0.07-0.26,0.11-0.17,0.29c0.39,0.81,0.08,1.69,0.27,2.52
			c0.03,0.13-0.01,0.25-0.1,0.37c-0.07,0.08-0.37,0.06-0.19,0.23c0.16,0.15,0.02,0.6,0.46,0.48c0.14-0.04,0.17,0.13,0.23,0.22
			c0,0.05,0,0.1-0.01,0.16c-0.01,0.06-0.02,0.12-0.03,0.17c-0.14,0.13,0,0.3-0.04,0.44c-0.05,0.11-0.06,0.22-0.02,0.33c0,0,0,0,0,0
			c-0.45,0.33-0.45,0.32-0.53-0.2c-0.05-0.33-0.19-0.62-0.4-0.88c-0.11,0.09-0.1,0.16-0.07,0.22c0.36,0.63-0.03,1.15-0.4,1.48
			c-0.35,0.31-0.48,0.62-0.55,1.02c-0.02,0.11-0.13,0.22-0.01,0.31c0.11,0.08,0.21-0.03,0.31-0.08c0.57-0.29,1.13-0.59,1.77-0.72
			c0.74-0.25,1.49-0.5,2.24-0.71c1-0.29,2.02-0.48,3.06-0.55c0.33-0.02,0.45-0.11,0.49-0.49c0.39-3.63,1.54-6.95,4.13-9.65
			c0.78-0.81,1.71-1.31,2.84-1.47c1.01-0.15,1.73,0.4,2.45,0.95c0.27,0.2,0.21,0.57,0.17,0.88c-0.1,1.01-0.67,1.81-1.25,2.59
			c-0.23,0.32-0.52,0.6-0.79,0.88c-0.16,0.17-0.33,0.35-0.6,0.22c-0.27-0.14-0.43-0.36-0.43-0.67c0-0.22,0.03-0.45,0.05-0.73
			c-0.38,0.25-0.59,0.57-0.81,0.87c-0.73,0.99-1.2,2.11-1.64,3.25c-0.66,1.72-1.14,3.5-1.34,5.33c-0.11,0.97-0.23,1.95-0.15,2.94
			c0.09,1.09,0.43,2.1,1.16,2.93c0.41,0.47,0.71,0.5,1.19,0.1c1.13-0.94,1.87-2.16,2.53-3.44c0.41-0.79,0.82-1.58,1.3-2.33
			c0.32-0.5,0.78-0.72,1.29-0.6c0.46,0.11,0.77,0.55,0.81,1.11c0.03,0.43-0.04,0.83-0.22,1.24c-0.78,1.82-1.54,3.64-2.83,5.18
			c-0.34,0.41-0.71,0.78-1.12,1.11c-1.28,1.06-3.02,1.02-4.3-0.09c-0.42-0.37-0.83-0.77-1.08-1.27c-0.19-0.38-0.37-0.24-0.6-0.09
			c-2.03,1.35-3.97,2.82-5.91,4.3c-0.61,0.47-1.18,0.96-1.5,1.66c-0.1,0.22-0.36,0.16-0.46,0.34c-0.05,0.01-0.1,0.01-0.15,0.02
			c-0.07,0-0.15-0.01-0.22-0.01c0,0,0,0.01,0,0.01c-0.57-0.42-1.2-0.72-1.91-0.82c-0.16-0.02-0.32-0.09-0.46-0.17
			c-0.56-0.31-0.59-0.66-0.1-1.06c0.19-0.16,0.36-0.36,0.58-0.45c0.57-0.25,0.63-0.67,0.57-1.23c-0.18-1.8-0.2-3.61-0.23-5.42
			c-0.01-0.39-0.14-0.52-0.49-0.56c-0.42-0.04-0.85-0.12-1.27-0.18c-0.3-0.05-0.58-0.14-0.74-0.43c-0.06-0.4,0.47-0.62,0.3-1.05
			c0.6-0.33,1.2-0.68,1.8-1c0.26-0.14,0.38-0.3,0.34-0.62c-0.06-0.57-0.07-1.14-0.11-1.71c-0.01-0.17,0.02-0.37-0.14-0.5
			c0.01,0,0.02,0,0.03,0c-0.01-0.01-0.02-0.01-0.03-0.02c-0.93,1.64-2.11,3.1-3.35,4.5c-1.14,1.29-2.29,2.57-3.5,3.8
			c-0.37,0.37-0.92,0.74-0.9,1.4c-0.04,0.09-0.07,0.25-0.12,0.26c-0.53,0.08-0.52,0.48-0.5,0.86c0.02,0.49-0.14,0.96,0.01,1.46
			c0.07,0.24,0,0.52-0.02,0.78c-0.02,0.25-0.08,0.46-0.42,0.4c-0.15-0.03-0.35,0.01-0.36,0.17c-0.02,0.49-0.62,0.94-0.08,1.47
			c0.1,0.1,0.15,0.3,0.17,0.5c0.04,0.41,0.13,0.81,0.42,1.14c0.08,0.09,0.15,0.21,0.28,0.12c0.13-0.08,0.06-0.2,0.03-0.31
			c-0.12-0.43-0.22-0.86-0.36-1.28c-0.06-0.19,0-0.28,0.15-0.36c0.11-0.06,0.23,0.01,0.23,0.1c-0.02,0.62,0.26,1.09,0.66,1.52
			c0.01,0.02-0.01,0.06-0.01,0.1c-0.07-0.04-0.14-0.1-0.22-0.04c-0.01,0.01-0.01,0.04,0,0.04c0.08,0.07,0.15,0.01,0.23-0.01
			c-0.1,0.44,0.18,0.81,0.24,1.22c0,0.05,0.01,0.1,0.01,0.15c-0.32,0.62-0.2,1.3-0.24,1.96c0,0,0,0,0,0
			c-0.03,0.03-0.05,0.07-0.08,0.1c-0.06,0.05-0.12,0.14-0.18,0.15c-0.62,0.11-0.41,0.48-0.3,0.87c0.29,1.07,0.1,2.08-0.46,3.03
			c-0.23,0.38-0.42,0.78-0.71,1.12c-0.65,0.78-1.47,0.76-1.95-0.07c-0.12-0.21-0.2-0.44,0-0.64c0.22-0.22,0.2-0.4-0.04-0.56
			c-0.24-0.17-0.37-0.59-0.83-0.23c-1.19,0.93-2.08,2.1-2.85,3.37c-0.62,1.03-1.11,2.13-1.57,3.24c-0.02,0.05-0.04,0.09-0.06,0.14
			c-0.02,0.06-0.05,0.12-0.07,0.18c-0.02,0.05-0.04,0.1-0.06,0.15c0,0,0.01-0.02,0.01-0.02c-0.03,0.08-0.05,0.16-0.07,0.24
			c0,0.03,0,0.05-0.02,0.08c-0.01,0.04-0.03,0.09-0.04,0.13c-0.02,0.06-0.04,0.13-0.06,0.19c-0.02,0.06-0.04,0.12-0.07,0.18
			c0,0,0,0.03,0,0.03c-0.2,0.22-0.26,0.49-0.25,0.77c0.01,0.03,0,0.06-0.02,0.09c-0.06,0.13-0.15,0.26-0.18,0.4
			c-0.25,1.14-0.49,2.27-0.53,3.44c-0.02,0.5-0.18,1.01,0.06,1.5c0,0.07,0,0.13,0.01,0.2c-0.1,0.15-0.07,0.31-0.07,0.48
			c0.04,1.27,0.39,2.5,0.57,3.75c0.05,0.36,0.06,0.84,0.26,1.1c0.36,0.48,0.44,1.09,0.88,1.52c0.44,0.44,0.59,1.1,1.16,1.45
			c0.6,0.37,1.19,0.76,1.79,1.13c0.24,0.14,0.49,0.21,0.72-0.03c0.06-0.03,0.12-0.06,0.17-0.1c0.03-0.02,0.06-0.03,0.1-0.05
			c1.84-1.26,2.44-3.17,2.64-5.24c0.22-2.27,0.04-4.54-0.05-6.81c-0.01-0.35-0.17-0.27-0.38-0.18c-1.11,0.5-2.22,1.02-3.4,1.32
			c-0.7,0.18-1.41,0.21-2.06-0.18c-0.65-0.39-0.71-0.87-0.21-1.44c0.11-0.12,0.23-0.23,0.37-0.32c0.4-0.26,0.79-0.55,1.22-0.75
			c1.2-0.55,2.32-1.24,3.42-1.97c1.41-0.93,2.96-1.34,4.64-1.23c0.27,0.02,0.35-0.04,0.32-0.31c-0.29-2.57-0.46-5.15-0.59-7.73
			c-0.03-0.51-0.04-1.02,0.05-1.53c0.11-0.61,0.43-1.06,1.03-1.28c0.11-0.04,0.22-0.09,0.3-0.16c0.78-0.65,1.36-0.36,1.67,0.54
			c0.35,1.04,0.5,2.12,0.57,3.2c0.09,1.36,0.16,2.73,0.24,4.09c-0.2,0.42-0.09,0.81,0.1,1.2c0,0.06,0,0.13,0,0.19
			c-0.02,0.53-0.12,1.07,0.15,1.58c0.02,0.13,0.03,0.26,0.05,0.38c-0.15,0.2-0.1,0.42-0.04,0.62c0.21,0.69-0.03,1.45,0.32,2.12
			c0.07,0.13,0.03,0.35-0.14,0.43c-0.15,0.07-0.22-0.11-0.32-0.18c-0.2-0.13-0.24-0.34-0.26-0.56c-0.01-0.09-0.04-0.21-0.17-0.19
			c-0.1,0.02-0.1,0.13-0.09,0.2c0.01,0.13,0.05,0.26,0.06,0.39c0.04,0.56,0.41,1.09,0.12,1.67c-0.04,0.08,0.01,0.12,0.08,0.14
			c0.36,0.07,0.25,0.32,0.19,0.54c-0.04,0.15-0.05,0.28,0.07,0.41c0.27,0.31,0.35,0.7,0.45,1.08c0.17,0.67,0.36,1.34,0.71,1.94
			c0.34,0.59,0.85,1.08,1.2,1.68c0.04,0.06,0.11,0.13,0.18,0.15c0.44,0.13,1.02-0.22,1.18-0.7c0.56-1.1,0.98-2.24,1.2-3.47
			c0.53-2.87,0.56-5.76,0.5-8.66c-0.06-3.31-0.44-6.6-0.42-9.92c0.01-0.68,0.09-1.34,0.28-1.99c0.08-0.27,0.2-0.59,0.49-0.63
			c0.27-0.04,0.44,0.24,0.61,0.45c0.82,1.03,1.13,2.27,1.33,3.52c0.54,3.31,0.65,6.65,0.72,10c0.03,1.12,0.02,2.24,0.01,3.36
			c0,0.3,0.08,0.36,0.34,0.22c0.51-0.27,1.01-0.55,1.52-0.82c0.21-0.11,0.26-0.28,0.28-0.48c0.32-3.88,0.59-7.77,0.81-11.66
			c0.03-0.57,0.1-1.15,0.14-1.72c0.05-0.77,0.19-1.54-0.03-2.31c-0.05-0.19-0.05-0.39,0.03-0.58c0.24,0.03,0.44,0.13,0.58,0.33
			c0.15,0.23,0.38,0.26,0.54,0.1c0.15-0.15,0.07-0.42-0.11-0.51c-0.32-0.17-0.32-0.38-0.16-0.64c0.16-0.27,0.38-0.42,0.69-0.24
			c0.18,0.1,0.35,0.04,0.52,0.01c0.04,0.03,0.08,0.05,0.12,0.08c0.05,0.78,0.71,1.02,1.23,1.38c0.67,1.28,1.05,2.67,1.45,4.04
			c0.82,2.8,1.87,5.52,2.86,8.26c0.12,0.33,0.28,0.47,0.65,0.38c0.51-0.13,1.03-0.21,1.55-0.3c0.29-0.05,0.44-0.18,0.32-0.46
			c-0.11-0.25,0.13-0.78-0.45-0.67c-0.71,0.14-1.21-0.34-1.81-0.54c-0.3-0.1-0.29-0.59,0.01-0.83c0.44-0.35,0.89-0.68,1.36-0.98
			c0.24-0.16,0.32-0.33,0.28-0.61c-0.46-2.79-0.78-5.61-1.46-8.37c-0.01-0.16-0.01-0.33-0.03-0.49c-0.03-0.25-0.14-0.42-0.4-0.51
			c-0.27-0.09-0.44,0.01-0.59,0.21c-0.13,0.17-0.33,0.2-0.51,0.28c-0.68,0.32-1.39,0.57-1.93,1.12c-0.03,0-0.06-0.01-0.07-0.04
			c-0.04-0.03-0.09-0.07-0.13-0.1l0,0C44.34,41.72,44.37,41.47,44.12,41.36z M60.53,39.59c0.12,0.1,0.18,0.27,0.37,0.34
			c0.1-0.13,0.1-0.26,0.03-0.4c0.23-0.53,0.17-0.61-0.4-0.61c-0.05,0-0.1,0-0.15-0.01c-0.15-0.03-0.33-0.16-0.43,0.06
			c-0.09,0.21,0.08,0.33,0.23,0.44C60.29,39.48,60.41,39.53,60.53,39.59z M71.31,47.82c0.07-0.8,0.28-1.58,0.33-2.39
			c0.17-2.86-1.19-4.85-3.94-5.68c-0.87-0.26-1.76-0.39-2.66-0.5c-0.43-0.05-0.58,0.01-0.53,0.5c0.17,1.59,0.32,3.18,0.43,4.77
			c0.32,4.51,0.61,9.03,0.91,13.55c0.01,0.13-0.05,0.33,0.13,0.38c0.14,0.04,0.23-0.11,0.31-0.2c0.91-0.92,1.66-1.95,2.26-3.1
			c1-1.93,1.8-3.94,2.43-6.03C71.4,48.78,71.52,48.31,71.31,47.82z M19.63,34.99c0.26-0.24,0.3-0.47,0.27-0.73
			c-0.05-0.51-0.13-1.01-0.15-1.52c-0.11-3.13-0.94-6.18-0.95-9.32c0-0.3-0.08-0.4-0.37-0.21c-1.13,0.79-2.12,1.76-3.15,2.68
			c-0.56,0.5-1.1,1.03-1.71,1.47c-0.46,0.33-0.92,0.2-1.32-0.05c-0.43-0.27-0.39-0.73-0.26-1.16c0.16-0.55,0.33-1.11,0.51-1.65
			c0.09-0.25,0.1-0.45-0.1-0.67c-0.32-0.35-0.31-0.72,0-1.11c0.31-0.39,0.58-0.8,0.85-1.21c0.17-0.27,0.58-0.58,0.38-0.84
			c-0.23-0.31-0.67-0.05-1,0.07c-2.27,0.82-3.86,2.47-5.2,4.38c-0.91,1.31-0.48,2.58,1.01,3.19c0.18,0.07,0.37,0.13,0.56,0.19
			c1.26,0.38,2.54,0.7,3.74,1.25c0.25,0.11,0.5,0.24,0.75,0.33c1.52,0.52,2.95,1.2,4.17,2.29C18.49,33.08,19.11,33.96,19.63,34.99z
			 M62.67,59.67c-0.26-5.53-0.95-10.88-1.5-16.24c-0.59,0.88-1.01,1.81-1.71,2.58c-1.57,1.73-3.49,3.05-5.28,4.53
			c-0.5,0.41-0.53,0.38-0.08,0.85c2.07,2.14,4.21,4.22,6.39,6.25C61.21,58.28,61.89,58.94,62.67,59.67z M51.78,42.97
			c0.03,0.16,0.06,0.32,0.09,0.49c0.26,1.46,0.34,2.94,0.5,4.42c0.02,0.18-0.02,0.59,0.36,0.24c1.84-1.68,3.62-3.42,4.97-5.53
			c0.75-1.18,0.48-1.97-0.78-2.54c-1.92-0.87-3.86-0.58-5.81-0.11c-0.14,0.03-0.26,0.09-0.14,0.27
			C51.56,41.03,51.56,42.03,51.78,42.97z M40.03,27.69c-0.04-0.41-0.29-0.19-0.45-0.12c-1.6,0.69-3.18,1.42-4.8,2.07
			c-0.54,0.22-0.7,0.51-0.7,1.06c0,1.7-0.05,3.39-0.07,5.09c0,0.14-0.08,0.34,0.06,0.42c0.16,0.09,0.3-0.08,0.43-0.16
			c1.95-1.32,3.79-2.8,5.93-3.82c0.14-0.07,0.19-0.16,0.15-0.31C40.26,30.52,40.08,29.12,40.03,27.69z M42.59,48.51
			c-0.04,0.11-0.07,0.15-0.08,0.2c-0.28,2.4-0.56,4.81-0.84,7.21c-0.05,0.45,0.19,0.37,0.44,0.27c0.91-0.34,1.8-0.72,2.72-1.04
			c0.36-0.12,0.42-0.26,0.27-0.6c-0.44-1.01-0.85-2.03-1.27-3.05C43.43,50.52,43.02,49.54,42.59,48.51z M64.97,64.11
			c0.15,0.32,0.44,0.47,0.69,0.66c0.18,0.15,0.47,0.35,0.65,0.15c0.23-0.26-0.07-0.45-0.25-0.63c-0.08-0.08-0.15-0.17-0.23-0.25
			c-0.08-0.08-0.19-0.13-0.25-0.02C65.41,64.32,65.2,64.15,64.97,64.11z M22.21,32.6c0.17-0.34,0.09-0.69,0.23-1
			c0.03-0.08-0.76-0.58-0.84-0.53c-0.13,0.09-0.07,0.21-0.03,0.31C21.74,31.8,22.22,32.06,22.21,32.6z M40.7,45.74
			c0.48-0.42,0.39-0.88,0.24-1.34c-0.02-0.08-0.04-0.17-0.14-0.18c-0.1-0.01-0.15,0.07-0.17,0.15
			C40.54,44.81,40.49,45.27,40.7,45.74z M22.23,36.94c-0.04,0-0.09,0-0.13-0.01c-0.01,0.42-0.03,0.83-0.04,1.25
			c0.05,0,0.11,0,0.16,0C22.22,37.77,22.39,37.36,22.23,36.94z M22.61,43.34c0.21-0.62,0.12-0.78-0.46-0.81
			C22.41,42.75,22.42,43.04,22.61,43.34z M12.38,70.25c0.05,0.24,0.08,0.41,0.26,0.47c0.07,0.02,0.12-0.05,0.12-0.12
			C12.74,70.39,12.62,70.29,12.38,70.25z M84.35,36.14c-0.04,0.18-0.07,0.3,0.12,0.4C84.51,36.38,84.5,36.27,84.35,36.14z
			 M61.55,38.36c0.06-0.05,0.13-0.08,0.15-0.13c0.04-0.08-0.03-0.12-0.09-0.1c-0.05,0.02-0.1,0.07-0.13,0.12
			C61.47,38.25,61.51,38.31,61.55,38.36z M59.6,38.79c-0.02,0.03-0.05,0.06-0.04,0.07c0.01,0.02,0.05,0.05,0.07,0.04
			c0.02,0,0.03-0.04,0.05-0.06C59.66,38.83,59.63,38.81,59.6,38.79z M14.93,23.8c0.01-0.01,0.02-0.02,0.03-0.03
			c-0.02-0.01-0.04-0.02-0.06-0.03c0,0.01-0.01,0.03-0.01,0.04C14.9,23.79,14.92,23.8,14.93,23.8z M40.63,43.77
			c-0.02,0.03-0.04,0.06-0.05,0.08c0.02,0.01,0.05,0.04,0.07,0.04c0.02,0,0.05-0.04,0.04-0.06C40.69,43.81,40.65,43.79,40.63,43.77z
			 M21.49,30.66c0.02-0.02,0.04-0.03,0.06-0.06c0-0.01-0.01-0.04-0.02-0.04c-0.03,0-0.05,0.01-0.08,0.02
			C21.46,30.6,21.48,30.63,21.49,30.66z"/>
		<path class="st0" d="M71.58,10.22c0,0.83,0,1.67,0.03,2.5c0.05,1.25,0.07,2.49,0.13,3.74c0.07,1.43,0.11,2.86,0.16,4.29
			c0.01,0.33-0.18,0.65,0.01,0.98c-0.09,0.05-0.26,0.05-0.23,0.21c0.02,0.11,0.16,0.08,0.26,0.09c0.07,1.26,0.13,2.53,0.21,3.79
			c0.01,0.17-0.09,0.47,0.27,0.45c0.03-0.01,0.06-0.02,0.1-0.03c0.04-0.02,0.08-0.03,0.12-0.05c0.17,0,0.34-0.04,0.44-0.19
			c0.06-0.02,0.12-0.05,0.18-0.07c0.36-0.03,0.69-0.11,0.93-0.41c0,0,0.03-0.01,0.03-0.01c0.13-0.01,0.24-0.05,0.33-0.15
			c0.06-0.03,0.13-0.06,0.19-0.09c0.37-0.08,0.76-0.11,1.09-0.26c0.98-0.46,1.95-0.92,2.96-1.31c0.14-0.05,0.29-0.11,0.42-0.01
			c0.18,0.14,0.33,0.05,0.5-0.02c1.23-0.5,2.47-0.99,3.7-1.48c0.23-0.09,0.47-0.16,0.72-0.16c0.18-0.01,0.32,0.07,0.41,0.23
			c0.08,0.15,0.03,0.31-0.08,0.41c-0.23,0.19-0.37,0.45-0.65,0.64c-1.05,0.69-2.24,1.09-3.32,1.71c-0.85,0.49-1.7,0.99-2.52,1.53
			c-0.04,0.02-0.07,0.04-0.11,0.06c-0.14,0.03-0.26,0.1-0.34,0.22c-0.04,0.02-0.08,0.04-0.12,0.06c-0.23,0.08-0.44,0.18-0.61,0.36
			c-1.68,1.06-3.36,2.12-5.04,3.17c-0.37,0.23-0.21,0.58-0.32,0.84c-0.08-0.14,0.06-0.57-0.4-0.4c-0.18,0.02-0.35,0.05-0.48,0.19
			c-0.05,0.01-0.1,0.03-0.15,0.04c-1.09-0.1-1.09-0.1-1.26,0.97c-0.01,0.06-0.01,0.13-0.03,0.19c-0.04,0.14-0.12,0.2-0.25,0.11
			c-0.26-0.19-0.63-0.22-0.83-0.51c-0.23-0.33-0.57-0.43-0.95-0.38c-0.68-1.27-1.13-2.63-1.67-3.96c-0.35-0.87-0.68-1.75-0.99-2.63
			c-0.11-0.3-0.23-0.34-0.49-0.18c-1.1,0.67-2.2,1.32-3.31,1.97c-0.2,0.12-0.26,0.28-0.26,0.49c-0.08,2.39-0.47,4.75-0.67,7.13
			c-0.07,0.83-0.48,1.49-0.96,2.12c-0.18,0.24-0.94,0.11-1.1-0.19c-0.33-0.6-0.51-1.24-0.48-1.94c0.06-1.58,0.09-3.16,0.15-4.74
			c0.01-0.31-0.07-0.42-0.39-0.34c-0.4,0.1-0.78,0.04-1.15-0.15c-0.39-0.19-0.72-0.06-0.96,0.35c-0.15-0.02-0.29-0.23-0.44-0.07
			c-0.11,0.11-0.01,0.28,0.02,0.42c0.08,0.38,0.25,0.79,0.04,1.14c-0.3,0.5-0.31,1.12-0.67,1.59c-0.47-0.05-0.85-0.26-1.14-0.64
			c-0.01-0.18-0.05-0.35-0.15-0.51c0-0.1,0-0.19,0-0.29c0.14-0.83,0.03-1.67,0.07-2.5c0.03-0.62,0.02-1.25,0.01-1.87
			c-0.01-0.42,0.57-0.52,0.51-0.85c-0.07-0.35-0.25-0.69-0.14-1.05c0.24-0.83-0.09-1.42-0.68-1.95c-0.01-0.1-0.01-0.19-0.02-0.29
			c0.11-0.16,0.07-0.35,0.07-0.53c-0.1-1.96-0.05-3.91,0-5.87c0.02-0.67,0.08-1.34-0.03-2.01c-0.18-1.1-0.05-2.08,1.15-2.57
			c0.03-0.01,0.04-0.05,0.07-0.07c0.03-0.01,0.05-0.01,0.07,0.01c0.11,0.06,0.23,0.07,0.36,0.05c1.02,0.04,1.64,0.76,1.5,1.73
			c-0.45,3.16-0.4,6.34-0.48,9.51c-0.03,1.32-0.05,2.63-0.07,3.95c0,0.23,0,0.46,0.01,0.7c0.25-0.06,0.35-0.24,0.47-0.38
			c0.5-0.6,1.05-1.15,1.7-1.57c0.44-0.29,0.57-0.63,0.59-1.14c0.12-3.44,0.26-6.88,0.62-10.3c0.07-0.7,0.16-1.4,0.3-2.08
			c0.12-0.56,0.13-1.12,0.01-1.66c-0.23-1,0.6-1.45,1.44-1.59c0.13-0.02,0.27,0.02,0.39-0.01c0.96-0.26,1.28-0.13,1.79,0.75
			c0.46,0.79,0.78,1.63,1.11,2.48c1.04,2.69,1.77,5.48,2.71,8.21c0.15,0.44,0.3,0.66,0.78,0.44c0.58-0.28,1.26-0.23,1.83-0.52
			c0.4-0.21,0.33-0.59,0.27-0.91c-0.13-0.7-0.14-1.4-0.16-2.11c-0.03-1.1-0.12-2.19-0.18-3.29c-0.06-1.15-0.09-2.31,0.08-3.45
			c0.08-0.56,0.1-1.18,0.02-1.68C68.53,8.06,68.46,7.51,68.3,7c-0.19-0.62-0.04-1.12,0.38-1.59c0.18-0.19,0.36-0.27,0.61-0.2
			c0.25,0.08,0.5,0.22,0.47,0.5c-0.05,0.38,0.33,0.86-0.22,1.15c-0.02,0.01-0.03,0.1-0.01,0.13c0.25,0.5,0.49,1,0.75,1.49
			c0.05,0.09,0.13,0.21,0.27,0.17c0.11-0.03,0.12-0.16,0.13-0.25c0.03-0.29,0.2-0.52,0.33-0.76c0.05-0.09,0.01-0.27,0.18-0.24
			c0.14,0.02,0.15,0.17,0.16,0.28c0.08,0.54,0.09,1.07-0.06,1.61C71.18,9.64,71.15,10.01,71.58,10.22z M68.79,22.57
			c-0.04-0.54-0.08-0.57-0.53-0.35c-0.28,0.14-0.56,0.28-0.84,0.41c-0.54,0.27-0.58,0.4-0.33,0.96c0.08,0.25,0.17,0.5,0.25,0.75
			c0.43,1.39,0.85,2.77,1.28,4.16c0.06,0.19,0.06,0.53,0.42,0.26c0.03-0.04,0.07-0.07,0.1-0.11c0.08-0.12,0.16-0.23,0.24-0.35
			c0.34-0.21,0.43-0.49,0.41-0.91c-0.03-0.75-0.35-1.44-0.38-2.17c-0.03-0.53-0.22-1.03-0.21-1.56c0-0.18-0.13-0.33-0.32-0.4
			C68.85,23.04,68.82,22.8,68.79,22.57z M61.43,16.89c-0.03,0.01-0.07,0.02-0.1,0.03c-0.24,2.01-0.49,4.02-0.72,6.03
			c-0.03,0.27,0.08,0.31,0.32,0.18c0.7-0.37,1.4-0.72,2.11-1.07c0.24-0.12,0.22-0.26,0.14-0.48c-0.41-1.08-0.81-2.16-1.21-3.24
			C61.78,17.86,61.6,17.37,61.43,16.89z M58.15,34.87c-0.14,0.37-0.31,0.66-0.17,1c0.03,0.07,0.13,0.06,0.17,0
			C58.34,35.58,58.33,35.27,58.15,34.87z M53.05,23.01c-0.02-0.02-0.03-0.05-0.05-0.06c-0.01,0-0.04,0.03-0.06,0.04
			c0.02,0.02,0.03,0.05,0.05,0.06C53,23.06,53.03,23.03,53.05,23.01z"/>
		<path class="st0" d="M17.73,21.24c0.26,0.45,0.21,0.63-0.26,0.82c-0.34,0.13-0.68,0.27-0.9,0.57c-0.3,0.41-0.86,0.43-1.21,0.81
			c-0.08,0.08-0.53-0.13-0.78-0.27c-0.1-0.05-0.03-0.22,0.11-0.31c0.7-0.41,1.39-0.84,2.08-1.26c0.16-0.1,0.33-0.22,0.27-0.42
			c-0.07-0.24-0.24-0.04-0.37-0.02c-0.2,0.02-0.23-0.08-0.16-0.24c0.13-0.28,0.27-0.56,0.4-0.84c1.21-0.8,2.44-1.57,3.82-2.05
			c2.18-0.76,4.4-1.01,6.64-0.36c0.98,0.28,1.82,0.84,2.45,1.67c0.15,0.19,0.3,0.38,0.47,0.6c0.26-0.38,0.54-0.71,0.74-1.08
			c0.25-0.44,0.64-0.59,1.08-0.54c0.79,0.11,1.49-0.15,2.22-0.37c0.69-0.21,1.39-0.41,2.08-0.62c-0.07,0.12-0.17,0.2-0.31,0.23
			c-0.96,0.21-1.88,0.58-2.81,0.89c-0.34,0.11-0.68,0.08-1.02,0.02c-0.33-0.06-0.56,0.02-0.71,0.36c-0.26,0.57-0.84,0.87-1.22,1.35
			c-0.52,0.65-0.55,1.41-0.6,2.18c-0.02,0.3,0.3,0.1,0.44,0.26c-0.62,0.22-0.32,0.9-0.65,1.29c-0.09,0.1-0.09,0.31-0.25,0.34
			c-0.67,0.11-0.64,0.68-0.76,1.14c-0.05,0.18-0.05,0.41-0.19,0.49c-0.51,0.3-0.66,0.95-1.1,1.25c-0.86,0.58-1.16,1.57-1.87,2.27
			c-0.72,0.71-1.35,1.54-2.12,2.22c-0.09,0.08-0.17,0.21-0.28,0.08c-0.08-0.09-0.23-0.24,0.01-0.35c0.07-0.05,0.15-0.08,0.2-0.14
			c1.52-1.74,3.04-3.47,4.3-5.41c0.48-0.73,0.92-1.48,1.17-2.33c0.21-0.72-0.18-2.22-0.76-2.52c-0.72-0.38-1.45-0.87-2.35-0.5
			c-0.11,0.05-0.26,0.02-0.39,0.01c-1.05-0.08-2.05,0.2-3.07,0.4c-0.19,0.04-0.4,0.13-0.14,0.35c0.86,0.7,0.92,1.66,0.9,2.65
			c-0.02,0.76-0.1,1.51-0.1,2.27c0,1.22,0.17,2.43,0.09,3.65c-0.43-0.03-0.58,0.15-0.53,0.59c0.03,0.26,0.17,0.52,0.05,0.9
			c-0.22-0.45-0.58-0.66-0.73-1.04c-0.04-0.09-0.13-0.19-0.12-0.26c0.14-0.58-0.23-0.71-0.67-0.75c-0.02-0.21,0.13-0.18,0.23-0.22
			c0.22-0.09,0.23-0.28,0.06-0.38c-0.43-0.26-0.56-0.55-0.55-1.1c0.01-0.65-0.27-1.31-0.47-1.95c-0.09-0.28-0.12-0.52,0.12-0.71
			c0.24-0.18,0.04-0.36,0.03-0.54c0-0.15,0.15-0.35-0.22-0.4c-0.28-0.04,0.03-0.21,0.07-0.32c0.06-0.14,0.59-0.34-0.02-0.46l0,0
			c0.45-0.34,0.47-0.79,0.23-1.22c-0.25-0.46-0.14-0.84,0.07-1.24c0.09-0.17,0.25-0.35,0.06-0.53c-0.18-0.16-0.35,0.03-0.48,0.11
			c-0.58,0.36-1.3,0.43-1.8,0.93C18.05,21.29,17.88,21.24,17.73,21.24c-0.01-0.05-0.01-0.09-0.02-0.14
			c-0.03-0.18,0.07-0.4-0.16-0.51c-0.09-0.04-0.16,0.02-0.18,0.11c-0.03,0.23,0.05,0.41,0.27,0.51
			C17.67,21.23,17.7,21.23,17.73,21.24z M20.57,20.82l-0.01,0.01c0.01,0.1,0,0.21,0.14,0.22c0.03,0,0.09-0.06,0.09-0.09
			C20.78,20.84,20.67,20.84,20.57,20.82z"/>
		<path class="st0" d="M16.08,74.03c0.26-0.08,0.53-0.06,0.78,0.04c0.79,0.3,1.63,0.19,2.43,0.34c0.16,0.03,0.41,0.09,0.47-0.14
			c0.05-0.2-0.18-0.19-0.3-0.25c-0.09-0.04-0.19-0.1-0.15-0.22c0.05-0.14,0.19-0.18,0.33-0.17c0.25,0.03,0.56,0.18,0.44-0.31
			c-0.01-0.06,0.08-0.09,0.15-0.1c1.54-0.17,1.9-1.46,2.42-2.57c0.16-0.34-0.15-0.52-0.48-0.66c0.32-0.24,0.59-0.42,0.91-0.51
			c0.39-0.1,0.56-0.33,0.6-0.74c0.16-1.54,0.36-3.07,0.52-4.6c0.11-1,0.03-2.01-0.01-3.01c-0.01-0.22-0.04-0.43,0.16-0.59
			c0.22,3.44,0.28,6.88-0.68,10.23c-0.44,1.54-1.32,2.82-2.78,3.59c-0.67,0.35-1.36,0.53-2.14,0.4
			C17.84,74.61,16.9,74.56,16.08,74.03z"/>
		<path class="st0" d="M83.95,59.12c0.11-0.13,0.29-0.23,0.28-0.44c0-0.11,0.06-0.18,0.16-0.23c1.19-0.62,2.21-1.46,3.15-2.39
			c0.1-0.1,0.21-0.15,0.34-0.18c0,0,0,0,0,0c0.14-0.34,0.38-0.6,0.62-0.87c0.64-0.72,1.15-1.47,1.24-2.52
			c0.06-0.74-0.08-1.45-0.09-2.17c0.73,2.07,0.21,3.86-1.12,5.52c-1.22,1.52-2.76,2.62-4.41,3.6c-2,1.19-4.17,1.95-6.4,2.55
			c-1,0.27-2.03,0.44-3.07,0.21c-0.47-0.1-0.91-0.26-1.2-0.68c1.41,0.41,2.76-0.01,4.11-0.35c0.3-0.08,0.58-0.23,0.91-0.2
			c0.07,0.01,0.19-0.02,0.22-0.07c0.45-0.66,1.1-0.48,1.68-0.35c0.46,0.1,0.76-0.18,1.11-0.3c0.34-0.11,0.66-0.33,1-0.4
			C83.05,59.75,83.44,59.32,83.95,59.12c0,0,0.04,0.01,0.04,0.01L83.95,59.12z"/>
		<path class="st0" d="M12.95,32.58c0.08-0.61,0.35-0.47,0.73-0.23c0.47,0.3,0.98,0.54,1.47,0.79c0.24,0.13,0.51,0.1,0.77,0.07
			c0.09-0.01,0.16-0.06,0.17-0.16c0.01-0.11-0.06-0.15-0.15-0.14c-0.34,0.02-0.35-0.13-0.25-0.39c0.04-0.1,0.01-0.23,0.01-0.34
			c0,0,0,0,0,0c0.23,0.01,0.41,0.14,0.56,0.29c0.21,0.21,0.4,0.43,0.76,0.31c0.15-0.05,0.33,0.08,0.31,0.24
			c-0.04,0.33,0.06,0.5,0.41,0.55c0.12,0.02,0.28,0.17,0.31,0.3c0.15,0.5,0.26,1,0.38,1.51c0,0.02,0.01,0.04,0,0.05
			c-0.58,0.54-0.12,1.22-0.24,1.83c-0.1,0.49-0.22,0.91-0.67,1.18c-0.09,0.05-0.1,0.16-0.11,0.26L17.4,38.7
			c-0.08,0.05-0.2,0.08-0.24,0.16c-0.4,0.75-1.19,1.04-1.78,1.56c-0.22,0.19-0.52,0.31-0.58,0.64c-0.01,0.04-0.06,0.1-0.09,0.1
			c-0.94,0.08-1.74,0.69-2.68,0.75c-0.06,0-0.12-0.04-0.18-0.06c1.89-0.43,3.48-1.37,4.75-2.82c0.92-1.06,1-2.4,0.21-3.55
			c-0.85-1.24-2.04-2.08-3.4-2.69C13.24,32.73,13.1,32.65,12.95,32.58z"/>
		<path class="st0" d="M71.58,10.22c-0.43-0.2-0.4-0.58-0.3-0.93c0.15-0.54,0.14-1.07,0.06-1.61c-0.02-0.11-0.03-0.26-0.16-0.28
			C71.01,7.38,71.05,7.55,71,7.64c-0.12,0.25-0.3,0.47-0.33,0.76c-0.01,0.09-0.02,0.22-0.13,0.25c-0.14,0.04-0.22-0.08-0.27-0.17
			c-0.26-0.49-0.5-0.99-0.75-1.49c-0.02-0.04-0.01-0.12,0.01-0.13c0.55-0.29,0.18-0.76,0.22-1.15c0.03-0.28-0.21-0.42-0.47-0.5
			c-0.25-0.07-0.43,0-0.61,0.2C68.26,5.88,68.11,6.38,68.3,7c0.16,0.51,0.22,1.06,0.31,1.57c0.08,0.51,0.06,1.12-0.02,1.68
			c-0.17,1.15-0.14,2.3-0.08,3.45c0.06,1.1,0.15,2.19,0.18,3.29c0.02,0.71,0.03,1.41,0.16,2.11c0.06,0.32,0.13,0.7-0.27,0.91
			c-0.12-1.77-0.22-3.55-0.38-5.32c-0.22-2.48-0.29-4.96-0.13-7.44c0.03-0.5-0.19-0.98,0.07-1.5c0.34-0.68,1.22-1.04,1.85-0.58
			c0.98,0.7,1.75,1.55,1.68,2.88C71.63,8.77,71.61,9.49,71.58,10.22z"/>
		<path class="st0" d="M32.08,65.71c-0.16,0.48-0.74,0.83-1.18,0.7c-0.07-0.02-0.15-0.09-0.18-0.15c-0.35-0.6-0.85-1.09-1.2-1.68
			c-0.34-0.59-0.54-1.27-0.71-1.94c-0.1-0.38-0.18-0.77-0.45-1.08c-0.11-0.13-0.11-0.26-0.07-0.41c0.06-0.22,0.17-0.47-0.19-0.54
			c-0.07-0.01-0.12-0.06-0.08-0.14c0.28-0.58-0.08-1.11-0.12-1.67c-0.01-0.13-0.05-0.26-0.06-0.39c-0.01-0.08-0.01-0.19,0.09-0.2
			c0.13-0.02,0.16,0.09,0.17,0.19c0.03,0.22,0.06,0.43,0.26,0.56c0.1,0.07,0.17,0.25,0.32,0.18c0.17-0.08,0.21-0.3,0.14-0.43
			c-0.35-0.68-0.11-1.43-0.32-2.12c-0.06-0.2-0.11-0.42,0.04-0.62c0.27,1.82,0.6,3.62,1.12,5.39c0.41,1.4,0.89,2.75,1.81,3.9
			C31.64,65.45,31.77,65.7,32.08,65.71z"/>
		<path class="st0" d="M41.46,58.73c0.05,0.03,0.15,0.09,0.15,0.09c0.41-0.67,1.18-0.59,1.79-0.86c0.12-0.05,0.26-0.08,0.36-0.15
			c0.77-0.55,1.59-0.59,2.46-0.33c-1.47,0.56-2.94,1.13-4.43,1.65c-0.38,0.13-0.46,0.36-0.5,0.68c-0.17,1.4-0.36,2.8-0.66,4.19
			c-0.09,0.44-0.27,0.86-0.24,1.32c0,0.03,0.01,0.08-0.01,0.1c-0.57,0.43-0.41,1.2-0.8,1.71c-0.09-0.15-0.1-0.31-0.04-0.48
			c0.16-0.46,0.17-0.93,0.19-1.41c0.07-1.68,0.57-3.29,0.83-4.93c0.01-0.08,0.04-0.16,0.04-0.24c0-0.16,0.13-0.35-0.02-0.47
			c-0.17-0.13-0.29,0.07-0.43,0.13c-0.18,0.07-0.4,0.24-0.52,0.01c-0.13-0.25,0.13-0.38,0.31-0.47
			C40.43,59.04,40.92,58.81,41.46,58.73L41.46,58.73z"/>
		<path class="st0" d="M9.52,58.71c0.28,0.25,0.36,0.63,0.33,0.94c-0.11,1.44,0.08,2.87,0.27,4.28c0.21,1.59,0.72,3.13,1.5,4.56
			c0.19,0.35,0.33,0.72,0.49,1.08c0.04,0.08,0.1,0.24-0.03,0.24c-0.67-0.01-0.18,0.35-0.14,0.48c0.11,0.36,0.47,0.59,0.55,0.98
			c-0.66-0.67-1.07-1.49-1.47-2.32c-1.54-3.17-2.06-6.51-1.56-10C9.47,58.86,9.5,58.79,9.52,58.71z"/>
		<path class="st0" d="M23.22,41.96c0-0.03,0.02-0.08,0.01-0.1c-0.4-0.43-0.68-0.9-0.66-1.52c0-0.1-0.12-0.16-0.23-0.1
			c-0.15,0.07-0.21,0.17-0.15,0.36c0.14,0.42,0.24,0.85,0.36,1.28c0.03,0.11,0.1,0.23-0.03,0.31c-0.13,0.09-0.2-0.03-0.28-0.12
			c-0.29-0.32-0.38-0.73-0.42-1.14c-0.02-0.19-0.07-0.4-0.17-0.5c-0.54-0.53,0.06-0.98,0.08-1.47c0.01-0.16,0.21-0.2,0.36-0.17
			c0.33,0.06,0.4-0.15,0.42-0.4c0.02-0.26,0.09-0.55,0.02-0.78c-0.15-0.5,0.01-0.97-0.01-1.46c-0.02-0.37-0.03-0.78,0.5-0.86
			c0.05-0.01,0.08-0.17,0.12-0.26c0.14,1.58,0.2,3.17,0.21,4.76c0.01,1.02,0.13,2.02,0.12,3.04c0,0.11-0.02,0.23-0.03,0.34
			C23.4,42.76,23.12,42.4,23.22,41.96L23.22,41.96z"/>
		<path class="st0" d="M34.43,24.48c-0.06-0.09-0.09-0.26-0.23-0.22c-0.44,0.12-0.3-0.33-0.46-0.48c-0.18-0.16,0.12-0.15,0.19-0.23
			c0.09-0.11,0.13-0.24,0.1-0.37c-0.19-0.83,0.13-1.71-0.27-2.52c-0.09-0.18,0.06-0.22,0.17-0.29c0.46-0.31,1-0.43,1.52-0.56
			c1.22-0.32,2.3-0.95,3.48-1.37c0.72-0.26,1.34-0.65,1.79-1.3c0.17-0.25,0.49-0.39,0.81-0.44c-0.26,0.38-0.51,0.76-0.78,1.13
			c-0.46,0.65-1.15,0.97-1.84,1.27c-1.47,0.65-2.97,1.25-4.48,1.79c-0.24,0.09-0.37,0.17-0.22,0.45
			C34.72,22.35,34.55,23.42,34.43,24.48z"/>
		<path class="st0" d="M78,26.52c0.82-0.54,1.67-1.04,2.52-1.53c1.08-0.62,2.27-1.01,3.32-1.71c0.28-0.19,0.42-0.44,0.65-0.64
			c0.11-0.09,0.16-0.25,0.08-0.41C84.49,22.07,84.34,22,84.16,22c-0.25,0.01-0.49,0.07-0.72,0.16c-1.24,0.49-2.47,0.98-3.7,1.48
			c-0.17,0.07-0.32,0.16-0.5,0.02c-0.13-0.1-0.28-0.04-0.42,0.01c-1.01,0.39-1.98,0.86-2.96,1.31c-0.33,0.15-0.73,0.18-1.09,0.26
			c1.34-0.59,2.68-1.17,4.03-1.76c1.62-0.71,3.34-1.13,5.04-1.58c0.42-0.11,0.9-0.25,1.18,0.27c0.25,0.46,0.1,0.81-0.54,1.19
			c-0.95,0.57-1.95,1.03-2.99,1.4C80.25,25.21,79.2,26.01,78,26.52z"/>
		<path class="st0" d="M25.49,59.24c0.19-0.02,0.33,0.03,0.34,0.25c0.05,0.63,0.35,1.19,0.54,1.78c0.41,1.31,1,2.53,1.54,3.79
			c0.03,0.07,0.07,0.17,0.06,0.23c-0.13,0.47,0.15,0.63,0.48,0.92c0.53,0.45,1.02,1.02,1.22,1.74c-1.14-0.63-1.88-1.62-2.43-2.76
			C26.34,63.29,25.81,61.29,25.49,59.24z"/>
		<path class="st0" d="M5.73,43.76c0.29-0.3,0.58-0.56,1-0.19c0.02,0.02,0.06,0.02,0.09,0.03c0.32,0.19,0.67-0.48,0.9-0.05
			c0.23,0.44,0.65,0.2,0.93,0.41c0.09,0.07,0.22,0.05,0.33,0.01c0.72-0.26,1.43-0.17,2.11,0.11c0.39,0.16,0.71,0.51,1.17,0.55
			c-0.69,0.22-1.4,0.12-2.1,0.1c-1.19-0.03-2.4-0.02-3.54-0.47C6.3,44.14,5.97,44.02,5.73,43.76z"/>
		<path class="st0" d="M65.58,62.79c-0.32-0.24-0.15-0.4,0.08-0.57c0.64-0.46,1.27-0.93,1.92-1.37c1.2-0.8,1.95-2.01,2.72-3.16
			c0.78-1.17,1.57-2.37,2.1-3.68c0.84-2.08,1.86-4.11,2.2-6.37c0.04-0.29,0.1-0.59,0.28-0.84c-0.03,0.8-0.25,1.56-0.46,2.31
			c-1.09,3.95-2.9,7.54-5.45,10.75c-0.82,1.03-1.92,1.73-3.02,2.43C65.76,62.41,65.47,62.46,65.58,62.79z"/>
		<path class="st0" d="M18.19,72.73c-0.23,0.24-0.48,0.17-0.72,0.03c-0.6-0.37-1.19-0.76-1.79-1.13c-0.56-0.35-0.72-1.01-1.16-1.45
			c-0.43-0.43-0.52-1.04-0.88-1.52c-0.2-0.27-0.21-0.74-0.26-1.1c-0.18-1.25-0.53-2.48-0.57-3.75c0-0.16-0.04-0.33,0.07-0.48
			c0.18,1.62,0.48,3.21,1.09,4.73c0.71,1.75,1.79,3.2,3.33,4.3C17.57,72.56,17.84,72.75,18.19,72.73z"/>
		<path class="st0" d="M44.62,42.05c0.54-0.55,1.26-0.8,1.93-1.12c0.18-0.08,0.38-0.11,0.51-0.28c0.15-0.21,0.33-0.3,0.59-0.21
			c0.26,0.08,0.37,0.26,0.4,0.51c0.02,0.16,0.02,0.33,0.03,0.49c-0.32-0.11-0.54,0.1-0.74,0.27C46.5,42.44,45.62,42.66,44.62,42.05z
			"/>
		<path class="st0" d="M16.95,18.38c-0.59-0.43-1.21-0.63-1.93-0.38c-0.03,0.01-0.08,0.02-0.1,0c-0.42-0.47-0.93-0.3-1.44-0.23
			c-0.13,0.02-0.26-0.09-0.3-0.22c-0.14-0.45-0.42-0.38-0.77-0.28c-0.39,0.11-0.75,0.37-1.19,0.25c1.02-0.56,2.12-0.79,3.27-0.75
			c0.39,0.01,0.74,0.16,0.95,0.52c0.14,0.25,0.39,0.27,0.63,0.34C16.47,17.76,16.88,17.88,16.95,18.38z"/>
		<path class="st0" d="M52.22,22.79c0.59,0.52,0.93,1.12,0.68,1.95c-0.11,0.36,0.07,0.7,0.14,1.05c0.06,0.32-0.52,0.43-0.51,0.85
			c0.01,0.62,0.02,1.25-0.01,1.87c-0.03,0.83,0.07,1.67-0.07,2.5c-0.19-1.04-0.08-2.1-0.09-3.14
			C52.37,26.17,52.23,24.48,52.22,22.79z"/>
		<path class="st0" d="M53.46,11.45c-0.02,0.02-0.04,0.06-0.07,0.07c-1.19,0.5-1.33,1.47-1.15,2.57c0.11,0.67,0.05,1.34,0.03,2.01
			c-0.05,1.96-0.1,3.91,0,5.87c0.01,0.18,0.05,0.36-0.07,0.53c-0.22-1.56-0.1-3.12-0.15-4.68c-0.04-1.51-0.04-3.02-0.06-4.54
			c0-0.13,0-0.26,0-0.39C52.06,11.82,52.35,11.54,53.46,11.45z"/>
		<path class="st0" d="M34.45,26.72c-0.63,0.13-1.2,0.43-1.77,0.72c-0.1,0.05-0.2,0.16-0.31,0.08c-0.13-0.09-0.01-0.21,0.01-0.31
			c0.07-0.4,0.2-0.71,0.55-1.02c0.37-0.33,0.76-0.85,0.4-1.48c-0.03-0.05-0.04-0.13,0.07-0.22c0.21,0.26,0.35,0.55,0.4,0.88
			c0.09,0.52,0.08,0.52,0.53,0.2C34.41,25.95,34.2,26.36,34.45,26.72z"/>
		<path class="st0" d="M67.09,31.43c0.39-0.04,0.72,0.05,0.95,0.38c0.21,0.29,0.57,0.32,0.83,0.51c0.13,0.09,0.21,0.04,0.25-0.11
			c0.02-0.06,0.02-0.13,0.03-0.19c0.18-1.07,0.18-1.07,1.26-0.97c-0.15,0.12-0.33,0.15-0.51,0.12c-0.48-0.08-0.57,0.17-0.52,0.57
			c0.04,0.29,0.08,0.59-0.06,0.87c-0.12,0.23-0.22,0.31-0.51,0.14C68.18,32.39,67.6,31.96,67.09,31.43z"/>
		<path class="st0" d="M30.96,68.37c1.56-0.16,2.54-1.27,3.58-2.25c0.47-0.44,0.66-1.12,0.94-1.71c0.08-0.17,0.14-0.33,0.33-0.4
			c-0.6,2.21-2.06,3.6-4.18,4.35C31.42,68.42,31.19,68.48,30.96,68.37z"/>
		<path class="st0" d="M53.75,32.44c0.36-0.47,0.37-1.09,0.67-1.59c0.21-0.35,0.04-0.76-0.04-1.14c-0.03-0.14-0.13-0.31-0.02-0.42
			c0.15-0.16,0.29,0.05,0.44,0.07c0.14,0.92-0.02,1.8-0.38,2.65C54.3,32.3,54.03,32.38,53.75,32.44z"/>
		<path class="st0" d="M83.98,36.7c0.25,0.31,0.39,0.63,0.08,0.99c-0.11-0.54-0.57-0.78-1.22-0.57c-0.77,0.25-1.53,0.5-2.25,0.88
			c0.21-0.47,0.71-0.56,1.09-0.74C82.41,36.94,83.17,36.66,83.98,36.7L83.98,36.7z"/>
		<path class="st0" d="M41.96,40.05c-0.17,0.03-0.34,0.1-0.52-0.01c-0.31-0.18-0.53-0.03-0.69,0.24c-0.16,0.26-0.16,0.47,0.16,0.64
			c0.18,0.1,0.26,0.36,0.11,0.51c-0.16,0.16-0.39,0.13-0.54-0.1c-0.13-0.21-0.33-0.31-0.58-0.33C40.18,40,41.15,39.55,41.96,40.05z"
			/>
		<path class="st0" d="M12.87,63.14c-0.24-0.49-0.08-1-0.06-1.5c0.04-1.17,0.29-2.3,0.53-3.44c0.03-0.14,0.12-0.27,0.18-0.4
			c-0.25,1.45-0.61,2.88-0.62,4.36C12.9,62.49,12.88,62.81,12.87,63.14z"/>
		<path class="st0" d="M11.46,41.93c-0.31,0.46-0.8,0.27-1.22,0.33c-0.64,0.1-1.28,0-1.89-0.21c-0.16-0.06-0.32-0.11-0.28-0.33
			C9.18,42.09,10.32,42.05,11.46,41.93z"/>
		<path class="st0" d="M49.09,56.45c-0.16-0.03-0.31-0.06-0.56-0.11c0.54-0.39,1.16-0.37,1.73-0.78c-0.12,0.58-0.69,0.41-0.79,0.78
			C49.35,56.37,49.22,56.41,49.09,56.45z"/>
		<path class="st0" d="M8.86,39.78c-0.05-0.06-0.13-0.12-0.14-0.19c-0.05-0.31,0.54-1.32,0.85-1.47C9.41,38.7,9.13,39.24,8.86,39.78
			z"/>
		<path class="st0" d="M43.31,41.52c-0.52-0.36-1.18-0.6-1.23-1.38C42.57,40.53,42.96,41,43.31,41.52z"/>
		<path class="st0" d="M78.66,39.55c0.07-0.68,0.67-0.89,1.12-1.21c0.19-0.14,0.45-0.18,0.68-0.27C79.83,38.52,79.21,39,78.66,39.55
			z"/>
		<path class="st0" d="M23.22,45.28c0.04-0.66-0.07-1.33,0.24-1.96C23.45,43.98,23.59,44.66,23.22,45.28z"/>
		<path class="st0" d="M29,29.18c0.16,0.43-0.36,0.65-0.3,1.05C28.32,29.88,28.43,29.5,29,29.18z"/>
		<path class="st0" d="M9.91,36.85c-0.36-0.13-0.73-0.07-1.1,0C9,36.6,9.26,36.47,9.56,36.47C9.8,36.47,9.9,36.62,9.91,36.85z"/>
		<path class="st0" d="M59.07,38.33c0.03,0.09,0.27,0.28-0.02,0.24c-0.36-0.06-0.79-0.08-1.04-0.45
			C58.38,38.11,58.67,38.47,59.07,38.33z"/>
		<path class="st0" d="M12.45,44.61c0.07-0.06,0.15-0.05,0.22,0.01c-0.21,0.45,0.13,0.88,0.08,1.33
			C12.73,45.48,12.53,45.05,12.45,44.61z"/>
		<path class="st0" d="M51,66.53c-0.27-0.25-0.4-0.57-0.5-0.91C50.77,65.87,50.91,66.2,51,66.53z"/>
		<path class="st0" d="M28.5,55.57c-0.28-0.5-0.18-1.05-0.15-1.58C28.44,54.52,28.5,55.04,28.5,55.57z"/>
		<path class="st0" d="M32.98,40.56c0.05-0.01,0.1-0.01,0.15-0.02c0.06,0.23,0,0.48,0.08,0.72C33.13,41.03,33.05,40.79,32.98,40.56z
			"/>
		<path class="st0" d="M35.81,64.01c-0.03-0.37,0.02-0.71,0.3-0.98C36.08,63.37,35.99,63.7,35.81,64.01z"/>
		<path class="st0" d="M28.35,53.8c-0.19-0.39-0.3-0.78-0.1-1.2C28.28,53,28.31,53.4,28.35,53.8z"/>
		<path class="st0" d="M11.04,17.59c-0.13,0.2-0.23,0.47-0.56,0.28C10.64,17.73,10.83,17.63,11.04,17.59z"/>
		<path class="st0" d="M74.21,25.5c-0.24,0.3-0.58,0.37-0.93,0.41C73.56,25.73,73.88,25.59,74.21,25.5z"/>
		<path class="st0" d="M66.34,63.65c-0.27-0.14-0.49-0.31-0.57-0.62C66.02,63.18,66.23,63.37,66.34,63.65z"/>
		<path class="st0" d="M9.61,38.04c-0.23-0.27-0.06-0.41,0.17-0.53C9.77,37.7,9.73,37.88,9.61,38.04z"/>
		<path class="st0" d="M13.54,57.72c-0.01-0.29,0.06-0.55,0.25-0.77C13.77,57.22,13.68,57.48,13.54,57.72z"/>
		<path class="st0" d="M74.9,46.59c-0.08-0.28-0.1-0.55,0.07-0.81C74.99,46.05,75,46.33,74.9,46.59z"/>
		<path class="st0" d="M44.12,41.36c0.25,0.11,0.22,0.36,0.29,0.56C44.22,41.79,44.08,41.62,44.12,41.36z"/>
		<path class="st0" d="M71.94,22.01c-0.1,0-0.23,0.03-0.26-0.09c-0.03-0.15,0.13-0.15,0.23-0.21
			C71.92,21.82,71.93,21.91,71.94,22.01z"/>
		<path class="st0" d="M30.11,68.15c0.22-0.04,0.41-0.02,0.55,0.19C30.45,68.34,30.26,68.29,30.11,68.15z"/>
		<path class="st0" d="M70.58,31.01c0.13-0.14,0.3-0.17,0.48-0.19C70.95,31.02,70.74,30.96,70.58,31.01z"/>
		<path class="st0" d="M12.48,71.26c0.21,0.08,0.32,0.24,0.38,0.45C12.68,71.61,12.56,71.45,12.48,71.26z"/>
		<path class="st0" d="M38.03,65.81c0.04,0.21,0.09,0.42-0.08,0.61C37.92,66.2,37.95,66,38.03,65.81z"/>
		<path class="st0" d="M10.03,18.12c-0.15,0.2-0.35,0.29-0.59,0.3C9.61,18.28,9.81,18.17,10.03,18.12z"/>
		<path class="st0" d="M76.82,27.21c0.17-0.18,0.38-0.28,0.61-0.36C77.27,27.04,77.05,27.13,76.82,27.21z"/>
		<path class="st0" d="M12.93,71.77c0.17,0.06,0.26,0.19,0.32,0.36C13.09,72.06,12.98,71.94,12.93,71.77z"/>
		<path class="st0" d="M49.59,63.92c0.16,0.08,0.28,0.17,0.19,0.37C49.6,64.23,49.55,64.11,49.59,63.92z"/>
		<path class="st0" d="M44.32,40.81c0.01,0.16-0.04,0.29-0.2,0.35C44.12,41.01,44.18,40.89,44.32,40.81z"/>
		<path class="st0" d="M73.09,25.98c-0.11,0.16-0.27,0.19-0.44,0.19C72.77,26.06,72.93,26.01,73.09,25.98z"/>
		<path class="st0" d="M52.47,31.29c0.1,0.15,0.14,0.33,0.15,0.51C52.47,31.66,52.46,31.48,52.47,31.29z"/>
		<path class="st0" d="M77.55,26.8c0.08-0.12,0.2-0.19,0.34-0.22C77.81,26.7,77.7,26.77,77.55,26.8z"/>
		<path class="st0" d="M29.66,67.93c0.14-0.02,0.25,0.03,0.32,0.16C29.86,68.08,29.75,68.03,29.66,67.93z"/>
		<path class="st0" d="M74.99,45.35c0.09-0.22,0.2-0.13,0.31-0.01C75.2,45.32,75.09,45.28,74.99,45.35z"/>
		<path class="st0" d="M9.78,37.51c-0.02-0.1,0.01-0.19,0.09-0.26C9.87,37.34,9.85,37.43,9.78,37.51z"/>
		<path class="st0" d="M37.96,66.51c0.1,0.11,0.13,0.24,0.09,0.38C38.02,66.76,37.99,66.64,37.96,66.51z"/>
		<path class="st0" d="M74.57,25.34c-0.09,0.09-0.2,0.14-0.33,0.15C74.33,25.39,74.45,25.36,74.57,25.34z"/>
		<path class="st0" d="M34.33,25.58c-0.04-0.11-0.03-0.22,0.02-0.33C34.38,25.36,34.39,25.47,34.33,25.58z"/>
		<path class="st0" d="M38.15,67.48c0.04,0.11,0.08,0.22,0.12,0.34C38.17,67.73,38.14,67.61,38.15,67.48z"/>
		<path class="st0" d="M53.89,11.51c-0.13,0.02-0.24,0.01-0.36-0.05C53.66,11.44,53.78,11.44,53.89,11.51z"/>
		<path class="st0" d="M36.29,62.23c0.02-0.09,0.04-0.17,0.06-0.26C36.33,62.06,36.31,62.15,36.29,62.23z"/>
		<path class="st0" d="M36.12,62.97c0.02-0.08,0.04-0.16,0.06-0.25C36.16,62.8,36.14,62.89,36.12,62.97z"/>
		<path class="st0" d="M14.06,56.12c0.02-0.05,0.04-0.1,0.06-0.15C14.14,56.04,14.12,56.09,14.06,56.12z"/>
		<path class="st0" d="M74.98,45.63c0.01-0.09,0.01-0.17,0.02-0.26C75.02,45.46,75.03,45.55,74.98,45.63z"/>
		<path class="st0" d="M25.13,57.9c0.02-0.02,0.04-0.08,0.07-0.01c0,0-0.04,0.01-0.04,0.01L25.13,57.9z"/>
		<path class="st0" d="M14,56.34c0.02-0.08,0.05-0.16,0.07-0.24C14.08,56.19,14.06,56.27,14,56.34z"/>
		<path class="st0" d="M78.5,39.72c0.05-0.05,0.1-0.1,0.14-0.15C78.6,39.62,78.55,39.67,78.5,39.72z"/>
		<path class="st0" d="M89.55,50.06c-0.07-0.05-0.08-0.11-0.07-0.19C89.5,49.93,89.52,49.99,89.55,50.06z"/>
		<path class="st0" d="M44.41,41.91c0.04,0.03,0.09,0.07,0.13,0.1C44.5,41.98,44.46,41.95,44.41,41.91z"/>
		<path class="st0" d="M25.35,58.45c0,0.03,0.01,0.07,0.01,0.1C25.36,58.52,25.35,58.49,25.35,58.45z"/>
		<path class="st0" d="M34.39,24.81c0.01-0.06,0.02-0.12,0.03-0.17C34.41,24.69,34.4,24.75,34.39,24.81z"/>
		<path class="st0" d="M49.78,56.22c0.02-0.02,0.04-0.02,0.06-0.02c0,0-0.03,0.03-0.03,0.03L49.78,56.22z"/>
		<path class="st0" d="M36.34,61.96c0.02-0.06,0.03-0.12,0.05-0.18C36.38,61.83,36.36,61.89,36.34,61.96z"/>
		<path class="st0" d="M9.88,37.19C9.88,37.19,9.88,37.19,9.88,37.19C9.88,37.19,9.88,37.19,9.88,37.19z"/>
		<path class="st0" d="M72.52,26.22c-0.03,0.01-0.06,0.02-0.1,0.03C72.46,26.25,72.49,26.23,72.52,26.22z"/>
		<path class="st0" d="M14.19,55.79c0.02-0.05,0.04-0.09,0.06-0.14C14.23,55.7,14.21,55.75,14.19,55.79z"/>
		<path class="st0" d="M49.8,63.94c-0.06-0.04-0.1-0.09-0.05-0.15c0.02-0.02,0.08,0,0.13,0C49.85,63.84,49.82,63.89,49.8,63.94z"/>
		<path class="st0" d="M49.87,63.79c0.07,0.04,0.13,0.09,0.07,0.17c-0.04,0.06-0.1,0.02-0.15-0.02
			C49.82,63.89,49.85,63.84,49.87,63.79z"/>
		<path class="st0" d="M32.76,40.56c0,0,0-0.01,0-0.01C32.75,40.55,32.76,40.56,32.76,40.56z"/>
		<path class="st0" d="M13.93,56.54c0.01-0.04,0.03-0.09,0.04-0.13C13.96,56.46,13.94,56.5,13.93,56.54z"/>
		<path class="st0" d="M44.41,40.72c-0.03,0.03-0.06,0.06-0.1,0.09C44.34,40.79,44.38,40.75,44.41,40.72z"/>
		<path class="st0" d="M75.29,45.33c0.04,0.03,0.08,0.05,0.12,0.08C75.37,45.38,75.33,45.35,75.29,45.33z"/>
		<path class="st0" d="M30.67,68.33c0.02-0.01,0.03-0.01,0.05,0c0,0-0.03,0.02-0.03,0.02L30.67,68.33z"/>
		<path class="st0" d="M38.11,67.19c0,0.03,0,0.06,0,0.1C38.11,67.25,38.11,67.22,38.11,67.19z"/>
		<path class="st0" d="M13.8,56.91c0.02-0.06,0.04-0.12,0.07-0.18C13.85,56.79,13.82,56.85,13.8,56.91z"/>
		<path class="st0" d="M10.27,18C10.27,18,10.26,18,10.27,18C10.26,18,10.27,18,10.27,18z"/>
		<path class="st0" d="M13.24,72.13c0.04,0.04,0.08,0.08,0.12,0.12C13.32,72.21,13.28,72.17,13.24,72.13z"/>
		<path class="st0" d="M13.41,72.3c0.03,0.03,0.06,0.05,0.09,0.08C13.47,72.35,13.44,72.32,13.41,72.3z"/>
		<path class="st0" d="M65.67,62.81C65.67,62.81,65.68,62.81,65.67,62.81C65.68,62.81,65.67,62.81,65.67,62.81z"/>
		<path class="st0" d="M13.5,72.38c0.04,0.03,0.07,0.06,0.11,0.09C13.57,72.44,13.53,72.41,13.5,72.38z"/>
		<path class="st0" d="M13.6,72.47c0.04,0.04,0.08,0.08,0.12,0.12C13.68,72.54,13.64,72.5,13.6,72.47z"/>
		<path class="st0" d="M23.14,45.38c0.03-0.03,0.05-0.07,0.08-0.1C23.23,45.33,23.21,45.37,23.14,45.38z"/>
		<path class="st0" d="M13.78,72.63c0.03,0.02,0.06,0.05,0.08,0.07C13.83,72.68,13.8,72.66,13.78,72.63z"/>
		<path class="st0" d="M18.46,72.59c-0.03,0.02-0.06,0.03-0.1,0.05C18.4,72.62,18.43,72.6,18.46,72.59z"/>
		<polygon class="st0" points="66.69,64.26 66.68,64.23 66.7,64.24 		"/>
		<polygon class="st0" points="15.85,74 15.84,73.99 15.85,73.97 		"/>
		<path class="st0" d="M29.97,68.08c0.05,0.02,0.09,0.04,0.14,0.07C30.07,68.13,30.02,68.1,29.97,68.08z"/>
		<path class="st0" d="M64.97,64.11c0.23,0.05,0.44,0.21,0.61-0.09c0.06-0.1,0.17-0.06,0.25,0.02c0.08,0.08,0.15,0.17,0.23,0.25
			c0.18,0.18,0.48,0.38,0.25,0.63c-0.18,0.2-0.47,0-0.65-0.15C65.41,64.57,65.12,64.42,64.97,64.11z"/>
		<path class="st0" d="M22.21,32.6c0.01-0.54-0.47-0.8-0.64-1.23c-0.04-0.1-0.1-0.22,0.03-0.31c0.07-0.05,0.87,0.46,0.84,0.53
			C22.3,31.91,22.38,32.26,22.21,32.6z"/>
		<path class="st0" d="M60.53,39.59c-0.12-0.06-0.24-0.11-0.35-0.18c-0.15-0.1-0.32-0.22-0.23-0.44c0.09-0.22,0.28-0.09,0.43-0.06
			c0.05,0.01,0.1,0.01,0.15,0.01c0.57-0.01,0.63,0.08,0.4,0.61C60.8,39.55,60.66,39.57,60.53,39.59z"/>
		<path class="st0" d="M40.7,45.74c-0.22-0.46-0.16-0.92-0.06-1.38c0.02-0.08,0.07-0.16,0.17-0.15c0.1,0.01,0.12,0.1,0.14,0.18
			C41.09,44.85,41.19,45.31,40.7,45.74z"/>
		<path class="st0" d="M70.99,49.13c0.11-0.43,0.22-0.87,0.33-1.3C71.52,48.31,71.4,48.78,70.99,49.13z"/>
		<path class="st0" d="M22.23,36.94c0.15,0.42-0.02,0.83-0.01,1.25c-0.05,0-0.11,0-0.16,0c0.01-0.42,0.03-0.83,0.04-1.25
			C22.14,36.93,22.19,36.93,22.23,36.94z"/>
		<path class="st0" d="M22.61,43.34c-0.19-0.29-0.2-0.58-0.46-0.81C22.73,42.55,22.82,42.72,22.61,43.34z"/>
		<path class="st0" d="M12.38,70.25c0.25,0.04,0.36,0.15,0.38,0.35c0,0.07-0.05,0.14-0.12,0.12C12.45,70.66,12.43,70.49,12.38,70.25
			z"/>
		<path class="st0" d="M60.53,39.59c0.13-0.02,0.27-0.04,0.4-0.06c0.07,0.14,0.07,0.27-0.03,0.4
			C60.71,39.86,60.65,39.69,60.53,39.59z"/>
		<path class="st0" d="M84.35,36.14c0.16,0.12,0.16,0.24,0.12,0.4C84.27,36.45,84.3,36.32,84.35,36.14z"/>
		<path class="st0" d="M61.55,38.36c-0.04-0.05-0.08-0.1-0.08-0.12c0.03-0.05,0.08-0.1,0.13-0.12c0.07-0.02,0.13,0.02,0.09,0.1
			C61.68,38.28,61.61,38.31,61.55,38.36z"/>
		<path class="st0" d="M15.59,32.09c-0.11-0.02-0.23,0-0.28-0.14c0-0.02,0.03-0.06,0.05-0.06C15.51,31.87,15.54,31.99,15.59,32.09
			L15.59,32.09z"/>
		<path class="st0" d="M59.6,38.79c0.03,0.02,0.06,0.04,0.08,0.05c-0.02,0.02-0.03,0.06-0.05,0.06c-0.02,0-0.06-0.02-0.07-0.04
			C59.55,38.85,59.58,38.82,59.6,38.79z"/>
		<path class="st0" d="M14.93,23.8c-0.01-0.01-0.03-0.01-0.03-0.02c0-0.01,0-0.02,0.01-0.04c0.02,0.01,0.04,0.02,0.06,0.03
			C14.95,23.78,14.94,23.79,14.93,23.8z"/>
		<path class="st0" d="M40.63,43.77c0.02,0.02,0.06,0.04,0.06,0.06c0,0.02-0.03,0.06-0.04,0.06c-0.02,0-0.05-0.03-0.07-0.04
			C40.59,43.83,40.61,43.81,40.63,43.77z"/>
		<path class="st0" d="M21.49,30.66c-0.01-0.03-0.02-0.05-0.04-0.08c0.03-0.01,0.05-0.02,0.08-0.02c0.01,0,0.02,0.03,0.02,0.04
			C21.53,30.62,21.51,30.64,21.49,30.66z"/>
		<path class="st0" d="M23.22,41.96c-0.08,0.02-0.15,0.07-0.23,0.01c-0.01-0.01,0-0.04,0-0.04C23.08,41.86,23.15,41.92,23.22,41.96
			C23.22,41.96,23.22,41.96,23.22,41.96z"/>
		<path class="st0" d="M17.4,38.69c0.03,0.01,0.06,0.02,0.09,0.03c-0.01,0.02-0.02,0.03-0.03,0.05c-0.02-0.02-0.04-0.05-0.06-0.07
			C17.4,38.7,17.4,38.69,17.4,38.69z"/>
		<path class="st0" d="M83.98,36.7c0.01-0.03,0.02-0.06,0.03-0.08c0.01,0.01,0.03,0.02,0.04,0.03
			C84.03,36.66,84.01,36.68,83.98,36.7C83.98,36.7,83.98,36.7,83.98,36.7z"/>
		<path class="st0" d="M39.47,67.32c-0.1-0.08-0.15-0.03-0.14,0.07c0.01,0.1,0.12,0.12,0.18,0.08
			C39.62,67.39,39.54,67.35,39.47,67.32C39.46,67.32,39.47,67.32,39.47,67.32z"/>
		<path class="st0" d="M20.09,23.13C20.09,23.13,20.08,23.13,20.09,23.13C20.08,23.13,20.09,23.13,20.09,23.13z"/>
		<path class="st0" d="M30.9,25.33c0.01,0.01,0.02,0.01,0.03,0.02c-0.01,0-0.02,0-0.03,0C30.9,25.35,30.9,25.33,30.9,25.33z"/>
		<path class="st0" d="M41.46,58.73C41.46,58.73,41.46,58.73,41.46,58.73C41.46,58.73,41.46,58.73,41.46,58.73z"/>
		<path class="st0" d="M15.59,32.09c0.04,0.03,0.08,0.05,0.12,0.08c0,0,0,0,0,0C15.67,32.14,15.63,32.12,15.59,32.09L15.59,32.09z"
			/>
		<path class="st0" d="M21.59,44.96c0,0.02,0,0.03,0,0.05c0,0.01-0.02,0.01-0.03,0.01c0.01-0.02,0.03-0.04,0.04-0.06
			C21.6,44.95,21.59,44.96,21.59,44.96z"/>
		<path class="st0" d="M69.39,28.31c-0.19-1.68-0.46-3.35-0.51-5.04c0.19,0.06,0.33,0.22,0.32,0.4c-0.01,0.53,0.19,1.03,0.21,1.56
			c0.03,0.73,0.35,1.42,0.38,2.17C69.82,27.81,69.73,28.09,69.39,28.31z"/>
		<path class="st0" d="M68.79,22.57c-0.57,0.09-1.04,0.43-1.57,0.62c-0.22,0.08-0.13,0.26-0.13,0.41c-0.25-0.56-0.21-0.7,0.33-0.96
			c0.28-0.14,0.56-0.27,0.84-0.41C68.71,22,68.75,22.03,68.79,22.57z"/>
		<path class="st0" d="M58.15,34.87c0.18,0.4,0.19,0.71-0.01,1c-0.04,0.06-0.14,0.07-0.17,0C57.84,35.53,58.01,35.24,58.15,34.87z"
			/>
		<path class="st0" d="M53.05,23.01c-0.02,0.02-0.04,0.05-0.06,0.04c-0.02-0.01-0.04-0.04-0.05-0.06c0.02-0.02,0.04-0.05,0.06-0.04
			C53.01,22.96,53.03,22.99,53.05,23.01z"/>
		<path class="st0" d="M69.05,28.76c0.03-0.04,0.06-0.07,0.1-0.11C69.12,28.69,69.08,28.73,69.05,28.76z"/>
		<path class="st0" d="M17.73,21.24c-0.03-0.01-0.06-0.02-0.09-0.03c-0.21-0.1-0.3-0.28-0.27-0.51c0.01-0.09,0.09-0.15,0.18-0.11
			c0.24,0.11,0.13,0.33,0.16,0.51C17.72,21.15,17.73,21.2,17.73,21.24C17.73,21.25,17.73,21.24,17.73,21.24z"/>
		<path class="st0" d="M20.57,20.82c0.09,0.02,0.2,0.02,0.22,0.15c0,0.03-0.06,0.09-0.09,0.09c-0.13-0.01-0.12-0.13-0.14-0.22
			L20.57,20.82z"/>
		<path class="st0" d="M20.56,20.83c0,0,0.01-0.01,0.01-0.01C20.57,20.82,20.56,20.83,20.56,20.83z"/>
		<polygon class="st0" points="83.95,59.12 84,59.13 83.96,59.12 		"/>
		<path class="st0" d="M87.89,55.89C87.89,55.89,87.89,55.89,87.89,55.89C87.89,55.89,87.89,55.89,87.89,55.89z"/>
	</g>
</g>
</svg>
