<?xml version="1.0" encoding="utf-8"?>
<!-- Generator: Adobe Illustrator 23.0.5, SVG Export Plug-In . SVG Version: 6.00 Build 0)  -->
<svg version="1.1" id="Layer_1" xmlns="http://www.w3.org/2000/svg" xmlns:xlink="http://www.w3.org/1999/xlink" x="0px" y="0px"
	 viewBox="0 0 899 544.1" style="enable-background:new 0 0 899 544.1;" xml:space="preserve">
<style type="text/css">
	.st0{fill:#264E68;}
</style>
<g>
	<path class="st0" d="M756.5,214.3c0.8,4.1,3.2,2.7,5.3,1.7c10.2-5,20.4-10.1,30.9-14.3c18.4-7.3,37.1-13.4,56.7-15.8
		c2.6-0.3,5.3-1,7.5,1.3c-4.3,1.8-8.9,0.9-13.4,1.7c-14,2.5-27.6,6.9-41.1,11.5c-2.3,0.8-4.5,1.9-6.7,2.9c2.5-0.6,4,1.1,5,2.8
		c1.2,2.1,3.1,3.6,4.3,5.5c1.9,3.1,4.9,6.2,3.7,10.4c-0.8,3.2,0,4.8,2.5,6.1c-15.6,3.1-30.6,8.5-44.9,16.1
		c-10,5.3-19.3,11.9-28.3,19c-0.6,0.1-1,0.5-1.1,1.2c0,0-0.1,0.2-0.1,0.2c-2.4,2.7-4.7,2.7-7.1-0.2c-1.4-1.8-2.9-3.7-5-4.7
		c-0.6-0.6-1.2-1.2-1.8-1.8c-3.6-5.1-3.6-5.1,0.1-10.5c1-1.5,1.7-3.5,3.1-4.3c4.5-2.7,4.4-7.3,5-11.8c0.3-2.7-0.6-4.3-3.3-4.3
		c0-2.2-1-2.4-2.8-1.9c-7.3,2.2-14.6,4.6-21.5,8.3c-9.2,5-18.6,9.5-27.3,15.6c-1.4,1-2.8,2-4.2,3c-2.2,1.6-3.6,3.7-3.3,6.8
		c0.1,1,0.4,2.4-1.2,3.4c0-1.6,0-2.9,0-4.2c0-0.7,0.1-1.8-0.9-1.8c-1.2-0.1-1.2,1-1.2,1.9c-0.1,2.5-0.2,4.9-0.3,7.4
		c-1-0.9-0.4-2.3-0.9-3.3c-0.2-1.8,0.7-3.6-0.4-5.5c-1.7,1.3,0.1,3.8-1.8,4.8c-1-1.2,0.2-2.9-0.8-4.5c-1.4,6.7-1.1,13-1.2,19.3
		c0,3.1,0.9,4.3,3.7,3.8c0.5,0.3,1,0.5,1.5,0.8c6.4,1.3,12.8,2.7,19.2,3.9c11.7,2.2,23.5,2.5,35.4,1.7c3.6-0.2,7-2.2,10.8-1.1
		c3.5,1,4.8,3,3.2,6.7c-1,2.3-0.6,4.5-0.5,6.7c1.3-0.2,1.7-1.8,2.5-2.8c14.2-16.9,30.1-31.7,48.3-43.4c1.1-0.7,2-1.4,3.3-0.6
		c0.1,1.9-1.2,2.3-2.3,3c-3,1.8-5.9,3.6-8.9,5.5c2.5,2.8,5,0.5,7.3,0.6c0.1,1.6-1.5,2.7-0.7,3.9c2,2.8,1.5,6.8,4,9.5
		c1.5,1.6,1.9,3.9,2.1,6.1c0.5,5.6,0.5,5.6,5.9,4.6c-4,4.1-8.1,8.2-12.1,12.4c-8.9,9.4-17.5,19.2-24.6,30.4l-0.3,0.2l0.1,0.3
		c-0.1,0.3-0.3,0.6-0.4,0.9c-1.8,1.4-2,3.1-0.7,5.4c0.4-1.1,0.7-2,1.1-2.8c2.7,4.8,7.4,6.1,11.7,7.6c8.3,2.9,16.7,5.4,25,8.1
		c-0.2,2.3-1.6,1.2-2.6,1c-4.5-1.3-9-2.6-13.4-3.9c-2.9-0.9-5.8-1.8-9.1-2.8c0.2,2,1.2,2.7,2,3.6c3.4,3.9,2.8,6.5-1.9,7.7
		c-1.8,0.5-2.9,1.3-3.3,3.4c-0.8,3.6-2.4,7.3,2.3,9.2c0.2,0.1,0.3,0.7,0.4,1.1c-13.9-3.6-26.8-9.8-38.3-19.1
		c-6.8-5.4-10-12.9-9.3-22.1c0.4-0.3,0.5-0.7,0.3-1.2c0.1-0.5,0.1-1.1,0.2-1.6c0.3-1,0.4-2,0.8-2.9c1.5-3.5,0.1-4.3-2.8-3.6
		c-9.9-1.7-19.8-3.2-29.8-4.1c-0.8-0.1-2.4-0.9-1.9,1c1.5,5.6-0.4,11.1-0.2,16.7c0.3,7.4,0,7.4,6.9,7.4c5.5,0,11,0.3,16.4-1.5
		c2.4,2,2.1,5.2,2.7,7.8c1.5,6.8,3.6,13.7-1.7,20.1c-1,1.2-1.2,1.7-2.8,1.3c-7-1.5-14.1-2.7-21.2-4c-1-0.2-2.4-0.6-2,1.5
		c1.8,8.5,0.9,17.1,1.7,25.7c0.5,5.3,1.5,6.1,6.1,3.6c12.7-6.7,26.1-11.4,39.8-15c6.8-1.8,13.7-2.7,20.5-3.4
		c5.8-0.6,11.6,3,17.6,4.1c1.8,0.3,1.5,2-0.1,3c-0.9-1.6-2.1-1.9-3.6-1c0.6,0.2,0.9-0.1,0.6-0.7c-0.2-0.5-0.7-0.5-1.1-0.1
		c-1.1-0.9-1.9,0.9-3.3,0.1c-8.2-4.8-16.6-1.6-25-0.1c1.3,0.2,2.6,0.1,3.8,0c3.3-0.4,6.6-0.8,9.9-1.2c2.2-0.3,3.2,1.6,4.1,3.2
		c1,1.7,0.1,3.1-1,4.5c-1.7,2.2-4.1,4.4-4.7,6.9c-0.9,3.9-2.5,7.6-4.1,11.1c-1.6,3.6-1.5,5.8,1.7,7.7c-21.7-3.7-42.3,0.3-62.1,10.3
		c-5.7,2.9-11.4,6.1-15.6,11.5c-1.7,2.1-2.7,1.4-3.3-1c-0.8-3.2-1.5-3.2-3.5-0.5c-8.2,10.9-18.9,17-31.9,17.6
		c-3.1,0.1-5.5,1-6.6,4.7c-0.7-0.7-1.3-1.2-1.8-1.8c-0.9-1-1.7-2.7-3.1-2c-1.4,0.6-1.9,2.2-2,3.9c0,0.8-0.1,1.6-0.1,2.3
		c-0.4,3.8,0.6,5.6,4.5,6.6c15.4,4.1,30.8,8.2,45.6,14.5c5.9,2.5,11.3,5.9,15.6,10.8c2.4,2.8,4.1,6.3,6.1,9.5
		c0.4,0.6-0.1,1.2-0.5,1.7c-0.7-2.7-4-3.6-4.4-5.7c-0.9-4.6-4.4-5.6-7.1-7.7c-0.2-0.3-0.5-0.5-0.7-0.8c-0.2-0.3-0.5-0.5-0.7-0.8
		c-0.5-0.3-0.9-0.5-1.6-0.7c-1.7-1.9-3.7-3.3-6.5-3.1c2.1,1.1,4.2,2.1,6.5,3.1c0.5,0.6,1,0.8,1.7,0.7c0.2,0.3,0.5,0.5,0.7,0.8
		c0.2,0.3,0.5,0.5,0.7,0.8c1.2,2.8,0.1,4.3-2.3,5.7c-2.9,1.8-7,2.8-6.5,8c-0.4-0.3-0.7-0.7-1.2-0.9c-15.6-7-31.1-14.3-47.6-19
		c-0.7-0.2-1.4-0.2-2.1-0.3c-0.5-0.2-1-0.4-1.5-0.6c-15.8-5.2-31.9-9.1-48.2-12c-23-4-46-8.7-69.2-10.8c-26.5-2.4-53-3.7-79.6-3.2
		c-19.5,0.3-39,1.2-58.4,3.1c-3.7,0.4-4.8,1.8-4.6,5.5c0.1,1.9,0.7,4.2-1.3,6c0-2.8,0-5.3,0-7.8c0-1.9-0.4-2.9-2.5-2.6
		c-18.7,2.2-37.4,4-55.6,9.3c-2.2,0.6-4.3,2.4-5.8,4.2c-1.7,2-2.1,4.8-0.8,8.2c0.8-3.2,1-5.7-0.2-8.3c-0.9-2-2-1.9-3.4-1.2
		c-2.2,1-14.8,3.5-17.2,3.2c-0.9-0.1-1.9-0.3-2.8-0.6c-2.1-0.9-2.5-2.7-1.1-4.3c6.3-7.3,12.8-13.8,22.9-14.6
		c7.4-0.6,14.7-3.1,22.1-4.7c11.4-2.5,22.8-4.4,34.3-6c2.5-0.4,3.9-0.9,4.4-4.5c0.7-5.1-0.6-8.4-4.2-11.3c-1.7-1.4-3.9-2.7-4.1-5.6
		c-2.1,0.5-2.8-0.7-3-2.8c-0.4,0.8-0.5,2-1.8,2.3c-0.2-2.6-0.8-5.1,0.5-7.7c0.8-1.5-1-2.1-1.8-2.4c-3.3-1.4-6.7-1.8-10.2-1.8
		c-18.5,0.1-35.9,5-52.5,13.8c-3.6,1.9-7.2,4.2-10.7,6.4c-1.5,0.9-2.7,1.9-3.4,3.8c-1,2.5-2.4,2.4-4.6,0.9c-3.2-2.1-5.7-5-8.4-7.8
		c-2.1-2.2-2.9-4.4-0.7-7c1.4-1.7,1.5-4.9,4.7-4.4c0.8,0.1,0.7-1.1,0.9-1.9c1.5-10,2.4-20.2,2.9-30.3c0.1-2.8-0.1-5.7,0.7-8.6
		c-1.8,0.6-2.2,2.2-2.9,3.5c-6.9,12.1-16.4,21.2-26.4,30.1c-13.4,11.9-28.3,21-42.4,31.6c0.3-0.7,0.4-1.6,0.8-2.1
		c2.5-2.9,1.3-4.3-1.6-5.1c-1.7-0.4-2.6-1.6-3.3-3.2c-1.4-3.2-2.9-6.3-4.8-9.2c-1.3-1.9-3.3-3.4-3.8-5.8c-2-10.2-5.3-20-8.1-29.9
		c-0.5-1.8-0.5-3.9-2-5.3c-0.1-0.5-0.1-0.9-0.2-1.4c-0.1,0.1-0.3,0.2-0.4,0.2c0.2,0.4,0.4,0.8,0.6,1.2c0.5,3.5,0.6,7.1,0.9,10.7
		c0.3,2.7,0.7,5.6-0.2,8.4c-0.3,0.9-0.6,1.9-1.7,1.6c-1-0.2-1.3-1.3-1.1-2.2c0.7-3.3-0.6-5.8-2.5-8.1c-1-1.2-1.3-2.3-0.4-3.8
		c1.1-1.8,0.3-2.9-1.4-3.4c-2.9-0.8-5.6-2.2-8-4.3c-1.8-1.5-2.7-0.6-3.6,1.1c-4.1-11.4-8.2-22.8-13-33.8c-2.2-5-4.5-10-5.7-15.4
		c3.4,0,3.3-2.7,2.8-4.9c-1.1-4.5-1.3-9.3-3.4-13.4c-0.6-1.2-0.9-2.4-0.6-3.7c1-3.7-0.6-4.7-3.7-4.6c-1.3,0.1-3.5,0-3.3-1.4
		c0.6-3.7-1.7-5-3.5-6.9c-0.7-0.7-1.3-1.7-1.2-2.8c0.2-2.8,1-5.6-1.9-7.6c-0.6-0.4-0.3-1.7,0.2-2.5c1.4-2.6-0.1-5.5-1.2-6.6
		c-2.6-2.5-3.9-5.3-4.7-8.8c-0.7-3.3,0-5.1,3-5.7c0.9-0.2,1.9,0.5,2.7-0.5c-10.1-1.1-20.1,0.4-30.1,1c-6.2,0.4-12.1,3.1-18.3,2.9
		c-2.6-0.1-5.2-0.6-5.7-4.3c2.6-2.5,5-0.4,7.2,0.7c2.2,1.1,4.2,1.3,6.5,0.7c14.7-3.7,29.6-4.4,44.5-3.4c24.4,1.6,48.4,5.9,71.7,14.8
		c6,2.3,12,4.6,17.7,7.6c1,0.5,1.7,0.9,1.9-0.7c0.4,2,0.8,3.9,3.2,3.9l0.1,0.1c2.1,2.1,4.5,3.7,7.2,4.8c0.2,0.1,0.4,0.3,0.6,0.4
		c0.1,0.8,0.6,1.1,1.4,1l0.2,0.1l0,0.2c1.3,1.7,2.8,3.1,4.8,3.7l0.2,0l0.1,0.2c0.6,1.1,1.4,1.9,2.6,2c0.2,0,0.3,0.1,0.3,0.3
		c0.5,1.2,1.3,2,2.6,2.1l0.2,0.1l0,0.2c0.8,1.5,1.9,2.6,3.4,3.1c0.5,0.4,0.9,0.9,1.4,1.3c2.9,3.8,5.9,7.6,9.3,11
		c2.8,2.9,5.3,6.2,7.3,9.8c1.6,3.7,3.1,7.5,4.5,11.2c0-7.2-1.2-14-3-20.7c-0.5-1.7-0.7-3.9-3.1-3.5c-4.7,0.9-6.6-2.1-7.8-6.3
		c-0.5-1.7-1.2-3.4-2-5c-3-6.1-4.4-12.1,0.4-18c0.1-0.1,0-0.3,0-0.4l0.1-0.1c1.2-0.2,2.3,0.1,3.5,0.5c19.9,6.4,40.3,7.8,60.8,7.4
		c0.9,0,2,0.3,2.4-1.1c0.6,0,1.1,0,1.7,0.1c1.3,0,2.6-0.2,3.8,0c2.2,0.3,4.3,0.7,3.9,4.1c-0.5,5-1,10,0.2,15
		c-0.9,2.2-1.7,4.5-2.7,6.6c-0.7,1.5-1.6,3.5-3.1,3.5c-3.2,0-3,2-2.8,4.3c-0.3,0.8,0.5,2-0.4,2.6c-1.7-2.1,0.1-5.7-2.2-6.9
		c-2.1-1.1-4.9-0.9-7.4-1.3c-0.8-0.1-1.7-0.3-2.5-0.3c-7.3-0.8-14.6-1.7-21.9-2.5c2.4,3.5,1.5,7.3,1.7,10.9
		c0.3,4.2,0.5,8.3,0.8,12.5c0.1,1.2,0.2,2.4,1.8,2.2c4.4-0.5,8.9-0.5,13.1-1.7c5.6-1.6,7.3-1,8.8,5.1c1,3.9,1.4,8,2.9,11.7
		c1.1,2.7,0.6,4.4-0.7,6.4c-0.8,1.3-1.7,2.5-2.5,3.8c-1.1,1.9-2.5,2.2-4.6,1.8c-4.9-1.1-9.9-1.9-14.8-2.6c-1.6-0.3-3.7-0.8-4.9,0.1
		c-1.3,0.9,1,2.6,0.7,4.1c-0.1,0.9,0,1.8,0,2.7c0,6.9-0.1,13.8,0,20.7c0,5,0.9,5.6,5.1,3.4c8.7-4.6,17.8-8.2,26.9-11.6
		c7.9-2.9,16.2-4.5,24.2-7.3c3,1,4.3-0.1,3.7-3.6c-0.6-3.4-0.9-6.9-1.3-10.4c-0.1-0.8,0.1-2.2-1.1-2c-2.1,0.4-4.4,0-6.1,1.8
		c-2.5,2.6-4.1,1.3-5.1-1.5c-1.5-4-2.5-8.1-4.2-12c-1.8-4.1-2.4-7.6,1.5-10.6c0.8-0.6,1.4-1.8,1.3-3.1c0.4-0.5,0.6-1.3,1.4-1.1
		c0.8,0.5,1.4,0.6,2-0.4c1,0.1,2,0.1,3,0.2c0.5,1.1,1.2,2.3,2.4,1.7c1-0.4,0.4-1.8,0.4-2.8c0-0.5-0.1-1-0.3-1.5
		c-3-13.1-6.2-26.1-9.5-39.1c-1.1-4.2-3.1-4.5-5.9-4.8c-0.9-0.1-1.9-0.4-2.8-0.6c-0.9-0.2-1.4-0.7-1.8-1.7
		c-2.8-6.9-5.7-13.7-8.6-20.6c-1.7-3.9-4.2-7.7-1.5-12.3c0.1-0.2,0.2-0.5,0.3-0.7c0.2-0.2,0.3-0.4,0.5-0.7c0.2-0.3,0.4-0.5,0.7-0.8
		c0.9,0.2,1.6-0.3,2.1-1.1c1.3-1.3,2.5-0.7,3.9,0c3.1,1.5,6.3,2.9,9.6,4.2c24.4,10,49.8,15.1,75.8,16.8c0.2,0.4,0.4,0.4,0.7,0.1
		c8.5,0.5,17.1,0.7,25.6-0.2c1.6,1.4,3.6,1.7,5.8,2.1c-0.7-2.3-2.3-3.4-3.7-4.6c-28.8-25.5-59.4-48.2-93-65.7
		c-0.6-0.3-1.2-1.1-1.9-0.4c-0.6,0.7-0.6,1.9-0.2,2.6c0.7,1.4,1.8,2.7,2.7,4c0.8,1.2,0.7,2.7,0.9,4.1c1.1,9.3,2,18.7,5,27.5
		c1.5,4.5,0.1,6.8-1.7,9.8c-0.8,1.3-1.4,1.5-2.9,1.2c-5.9-1.6-11.7-3.4-17.8-4.3c-0.5-0.5-1.1-0.7-1.7-0.3c-0.6-0.1-1.3-0.3-1.9-0.4
		c0.2-2.2,0-4.4-0.3-6.6c-1.4-11.2-2.5-22.5-4-33.6c-0.6-4.2-0.4-8.7-2.2-12.8c-2.1,1.7-1.2,4.2-2.3,6.1c0.8-3.2-2.3-4-2.9-6.3
		c-1.5-5.7-4.2-10.8-6.5-16c-3.2-7.1-3-8,4.5-8.1c3.9-0.1,3.6-2.1,2.9-4.7c-1.6-5.7-3.2-11.5-4.9-17.2c-0.8-2.5-1.4-4.7,1-6.6
		c1.9-1.5,1.5-5.1,3.8-5.9c6-2.1,12.1-3.7,18.4-4.2c2.8-0.2,4.9,1.7,7.1,3.2c2.1,1.4-0.6,3,0,4.5c0.2,0.6,0.5,1.1,0.8,1.6
		c0,5.8-0.1,11.7-0.1,17.5c0,1.9,0.2,3.8,2.6,3.7c0,0.3,0.1,0.6,0.1,0.9c-0.4,0.1-0.9,0.1-1.3,0.2c0,0.1,0.1,0.3,0.1,0.3
		c0.4-0.2,0.8-0.3,1.2-0.5c0.9-0.2,1.9-0.3,2.8-0.6c8.4-2.2,16-6.5,23.9-10.1c6.8-3.1,13.5-6.5,19-12c1.4-1.4,3-2.6,2.9-5
		c-0.1-5.6-1.8-8.1-7-9.8c-10.4-3.3-21.2-3.8-31.9-2.8c-10.9,1.1-21.8,1.6-32.6,3.3c-5.9,0.9-12,1.5-17.9,2.5
		c-2.5,0.4-3,1.6-1.5,3.9c0.1,0.6,0.2,1.2,0.3,1.7c0.3,3.6,0.2,7.2-0.2,10.7c-1.5,6-1.1,11.9-0.2,17.9c0.1,1.9,0.1,3.7,0.2,5.6
		c-0.7,11,0.7,21.8,1.7,32.7c0.2,1.9-0.5,4.2,1.3,5.7c0,0.6,0.1,1.1,0.1,1.7c-0.6,1.7-1,3.3,0.6,4.6c0,0.6,0.1,1.1,0.1,1.7
		c-0.6,1.4-1,2.7,0.5,3.7c0.1,0.9,0.1,1.7,0.2,2.6c-0.6,0.5-0.5,1,0.1,1.4c0.9,6.6,2.1,13.1,2.7,19.7c0.3,3.5,2.6,6.6,2.1,9.7
		c-0.5,3.3-3.4,5.9-4.1,9.4c-0.5,2.4-1.6,2.3-3.3,1.9c-5.4-1.5-10.9-2.9-16.3-4.4c-2.5-0.7-5.2-0.5-7.5-2.3
		c1.2-6.2,0.9-21.7-0.8-24.5c-0.6,2.2-1.1,4.2-1.6,6.1c0,0.3,0,0.5-0.1,0.8l0.1-0.1c-5,10.1-11.3,18.8-20.7,24.6
		c-6.5,4-13.4,6.6-20.6,8.5c-4.6,1.2-5.3,2.2-5.3,7.5c0,1.6,0.4,3.2-1.1,5.4c-0.1-2.6,0-4.4-0.3-6.1c-0.4-2,0.8-5.4-2.5-5.5
		c-3.8-0.2-2.1,3.5-2.8,5.5c-0.4,0-0.8,0-1.2,0c-0.1-0.9,0-1.8-0.2-2.7c-0.5-1.7-1-3.5-3.2-3.3c-2.4,0.1-1.5,2.2-1.7,3.5
		c-0.2,1.5-0.1,3.1-0.1,5.7c-1.6-3.1,0-6.1-2.4-7.7c-0.8-0.5,0-2.6-1.8-2.2c-1.5,0.3-1.6,1.7-1.9,3c-0.1,0.5-0.2,0.9-0.4,2.4
		c-0.9-2.5-0.9-4.4-2-5.7c-2.1-3-5.1-4.2-8.2-5.3c-1.6-0.8-3.2-1.7-4.8-2.5l0,0.1c-1.9-1.3-3.8-2.7-5.8-4c0,0,0,0.1,0,0.1
		c-1-0.8-1.9-1.6-2.9-2.4c0,0,0,0,0,0c-2.9-3-5.8-6-8.7-9l0-0.3l-0.3,0c-0.4-0.3-0.8-0.6-1.2-0.9l0.1,0.1
		c-8.5-12.2-14.2-26.1-20.3-39.8c-0.7-1.6-1.4-3.5-2.6-4.6c-2.8-2.7-0.8-5,0.1-7.6c0.9-2.6,2.7-2.7,4.9-2.8
		c3.9-0.1,7.9-0.3,11.8-1.2c5.3-1.3,10.2,0.3,15.1,2c1.3,0.4,3.8,0.9,1.7,3.6c-0.1,0.2,0,0.7,0.1,0.9c8,15.6,18.5,28.9,31.4,40.1
		c2,1.7,3.5,1.2,5.1-0.1c8.5-7.4,16.3-15.6,21.9-26c1.8-3.3,1.1-5.6-1.7-7.5c-6.1-4-12.8-6.3-19.5-8.5
		c-21.9-7.3-44.2-12.8-66.2-19.7c-4.6-1.4-9.1-3.1-13.4-5.3c1.3-1.7,3-1.1,4.6-0.8c0.8,0.1,2,0.8,2.2-0.2c1.2-4.8,5.7-6.4,7.8-10.3
		c2.8-5.1,7-7,10-4.5c4.6,3.7,9.8,3,14.8,4.1c3.8,2.2,8,3,12.3,3.1c1.4,1.6,3,1.7,5.6,1.5c-2.3-1.4-3.9-1.6-5.6-1.5
		c-3.9-1.8-8-2.5-12.2-3.2c-1.2-1-2.6-1.1-4-1.6c-4.4-1.5-8.8-3-13-5.2c-3.4-1.8-4.6-4.7-3.9-8.6c0.3-1.6,0.6-0.1,0.9,0.1
		c0.3,2.5,1.6,4.5,3.3,6.1c2.3,2.2,5.2,2.7,7.9,3.9c0.2,0.5,0.5,0.6,1,0.5c0.4,0.1,0.8,0.2,1.2,0.2c3.8,2.3,8.1,2.8,12.3,4
		c17,5.2,34.6,7.8,51.4,14c6.8,2.5,13.2,6.1,19.9,8.7c0.8-0.1,1.4,0.3,1.8,1c0.6,1.5,1.8,1.9,3.1,2.1c0.2,0,0.3,0.1,0.4,0.3
		c1.6,2.4,4.2,3.5,6.3,5.8c0.9-3.5-0.1-6.4-0.3-9.2c-1.1-13.8-2.3-27.7-3.5-41.5c-0.2-1.8-2.7-5.3-4-5.6c-6.3,1.3-12.7,2.6-19,3.9
		c-2.8,0.1-5.8,2.3-8.4-0.3c-2-2-2.8-1-3.5,1c-0.1,0.2-0.3,0.3-0.4,0.5c-1,0.6-1.9,1.2-0.7,2.6c-0.1,1.3-0.7,2.8-0.2,3.7
		c2.2,4.4-0.3,6.9-2.9,9.6c-0.8,0.9-1.5,2-2.2,3c-5.2-0.9-10.4-1.4-15.5-3.1c-2.1-0.7-3-1.8-3-4.1c0-1.2,0.5-3.1-1-3.3
		c-1.6-0.3-2.4,1.4-2.8,3c-0.2,0.2-0.4,0.4-0.5,0.6c-0.5,0-0.9,0-1.4-0.1c-0.1-0.1-0.2-0.3-0.2-0.5c-0.4-1.4-1.4-1-2.3-0.8
		c-1.4-0.3-1.6-1.6-2.1-2.8c-3.1-7.1-6.2-14.2-9.3-21.3c3.1-2.6,5.9-5.7,9.9-6.6c4.4-1,8.6-2.7,13.2-3.3c3.6-0.5,7.8,0.2,10.4-3.8
		c0.2-0.3,0.9-0.4,1.3-0.5c5.4-1.1,10.9-2,16.3-3.2c2.9-0.7,6-0.1,8.5-2.4c5.8,0,11.4-1.5,17-2.9c-5.7,0.4-11.5,0.8-17,2.9
		c-5.4-0.3-10.5,2.5-17,2.1c1.8-1.2,2.6-1.7,3.3-2.2c16.6-3.5,33.3-6.6,50.2-8.6c6.7-0.8,13.6-1,20.2-1.9
		c19.2-2.6,38.3-3.4,57.6-2.8c15.9,0.5,31.7,2.2,46.7,8.6c8.9,3.8,14.8,8.9,19.4,16.2c1.3-8,2.2-15.9,2.6-23.8
		c0.3-7.1,0.2-14.3,0.8-21.5c0.2-1.9,0.6-4,0.9-5.9c0.3-1.9,1.8-2.4,3.5-2.7c12.2-1.7,24.5-2.1,36.8-2.8c1.4-0.1,2.9,0.1,4,1.4
		c-1.2,12.9-2.2,25.9-1.2,38.9c0.3,4.6-0.1,9.3,1.5,13.7c0,0.5,0.1,1.1,0.1,1.6c-0.5,2.1-0.6,4.1,0.5,6.1c0.1,1,0.2,2.1,0.3,3.1
		c-0.3,2.5,0.1,4.8,1,7.1c0.1,0.5,0.2,1.1,0.2,1.6c0,0.1-0.2,0.2-0.1,0.3c0.1,0.2,0.2,0.3,0.3,0.5c0.1,0.5,0.2,1.1,0.3,1.6
		c-0.1,0.1-0.2,0.2-0.2,0.2c0.1,0.2,0.2,0.3,0.3,0.5c1.7,9.2,3.4,18.4,5,27.6c0.4,2.4,1.2,3.3,3.5,3.1c3-0.2,6,0,8.9,0
		c0.9,1,2.2,1.8,3.1,1.1c1-0.8,0.2-2.4,0.1-3.6c-2.7-17.8-7.4-35.1-10.8-52.7c-1-5.3-1-5.3-4.7-5.2c0,0,0,0,0,0c2.2-2,3-4.3,1.5-7.2
		c-0.6-1-0.6-2,0.1-2.9c2.3-2.7,3.5-6.2,5.3-9.3c1.6-2.8,3.9-4.4,6.8-5c0.5,0.1,0.9,0.2,1.4,0.3c0.6,0.8,1.3,0.8,2.1,0.5
		c0.5,0.1,1,0.2,1.4,0.3c0.6,0.8,1.4,0.8,2.2,0.5c0.5,0.1,1,0.2,1.4,0.3c0.6,0.8,1.4,0.8,2.2,0.5c0.5,0.1,0.9,0.2,1.4,0.3
		c4.4,1.7,8.9,2.5,13.5,2.9c0.5,0.1,1.1,0.2,1.6,0.3c1.2,0.8,1.8,2.2,1.6,3.5c-0.8,4.8,1.4,8.6,3.2,12.6
		c3.7,12.9,7.4,25.8,10.9,38.7c5.3,19.2,12,37.8,19.6,56.1c1.4,3.4,2.6,6.9,5,9.8c-0.1-4.9-0.4-9.6-0.8-14.4
		c-1.6-16.7-2.8-33.5-3.6-50.2c-0.4-9-1.1-17.9-1.6-26.9c-0.1-1.3-0.2-2.7-0.3-4c0.6-1,0.6-1.9-0.2-2.8c-0.5-1.6,0.3-3.3-0.7-4.8
		c0-0.8-0.1-1.6-0.1-2.3c-0.2-15.8-0.4-31.5-0.7-47.3c-0.1-4.3,1.5-8,3.5-11.6c0.6,3,2.8,4,5.1,4.8c3,1,6.1,1.8,7.2,5.7
		c0.5,1.8,2,1.5,3.3,1.5c3.5,0,6.9,0.4,10.2,2.4c1.1-4.3,2-8.5,2.6-12.9c0.5-3.8-0.2-7.1-2.3-9.9c-4.3-5.6-9.3-10.5-16-12.6
		c-1.4-0.5-2.9-0.8-2.8-2.9c8.8-0.2,20.8,8.2,24.2,16.9c0.7,1.9,0.8,3.8,0.2,5.7c-7.1,23.5-8.2,48-9.8,72.4
		c-0.6,9-0.9,17.9-1.4,26.9c-0.1,1.4,0.4,2.4,0.9,3.6c0.3,0.6-0.2,1.4-0.8,1.4c-0.7,0-1-0.6-0.9-1.4c5-23.1,10.1-46.2,23.7-65.7
		c3.6-5.2,7.4-10.2,11.2-15.1c-0.2,3.1,1.2,4.7,4,5.3c1.8,0.4,3.6,1.5,5.2,2.6c4,2.9,8.7,3,13,3.1c5.7,0.1,10.9,0.4,15.5,4.5
		c1.4,1.3,3.1,1.8,4.7,2.5c2.9,1.2,6.1,1.3,8.8,3.1c3.5,2.4,7.3,3.6,11.2,0.7c0.8-0.6,1.8-0.8,2.6,0.1c-2.5,7.7-5.5,15.1-7.1,23.2
		c-1.8,8.8-3.8,17.6-3.4,26.5c0.2,5.8-1.2,10.1-4.8,14c-0.2,0.3-0.4,0.5-0.6,0.8c-6.1-1.5-12.2-3-18.3-4.4c-5.1-1.2-4.6,0.5-4.2-6
		c0.7-9.6,1.3-19.3,3.3-28.7c1.8-8.4-1.6-15.2-4.7-22.9c-22.3,23.6-34.8,51.2-34,85.2c1.6,0.1,1.7-1.4,2.3-2.2
		c0.9-1.1,1.8-2,3.4-1.7c16.5,2.8,32.3-1.4,48.1-5.6c3.8-1,7.7-1.8,11-4.5c1.8-1.4,7.7,0.6,9.3,3.4c0.7-5.3,1.4-10,1.8-14.7
		c0.9-10.6,1.4-21.3,2.3-32c0.5-6-1.2-11.9-0.5-17.8c0.1-0.6,0.3-1.3-0.8-1.3c-2.2,0-1.3-1.5-0.7-2.2c1.5-2,1.4-4,0.7-6.2
		c4.9,2.3,9.8,5.4,15.4,1.9c0.4-0.2,1.1,0.4,1.7,0.4c3.1-0.1,6.1,0.8,9.5,0.2c3-0.5,6.4,2.1,9.6,3.4c0.2,0.1,0.1,0.7,0.2,1.1
		c-0.2,0.5-0.5,1.1-0.7,1.6c-0.2,0.4-0.4,0.9-0.5,1.3c0,0,0.3,0.2,0.4,0.3c0.1-0.5,0.2-1,0.4-1.4c0.2-0.5,0.5-1,0.7-1.6
		c0.7-1.7,2.5-3.5,1.4-5.1c-1.3-1.9-0.8-3.4-0.4-5c0.8-3.5,1.8-7,3-10.4c0.8-2.5,0.2-4-2.2-3.8c-5.4,0.4-10.9,1.3-16.3,1.6
		c-4.5,0.2-9.1,2-13.7,0.4c0.8-1.8,2.3-2.1,3.9-2.2c8.6-0.7,17.2-1.5,25.7-2.3c4.4-0.4,5.6,1.6,3.8,6c-1.2,2.9-1.8,6-1.8,9.1
		c0.1,4-0.8,7.7-2,11.4c-7,21.5-11,43.7-14.2,66.1c-2.2,15.1-3.4,30.3-4.5,45.5c-0.3,4.6-0.1,4.9,3.8,3
		c13.2-6.5,26.1-13.5,39.7-18.8c1.6-0.6,1.6-1.9,2.3-3.7c-6.9,1.1-13.7,1.1-19.7,5.2c-2.7,1.9-6.9,0.2-7.9-3.2
		c-1.1-3.6-2-7.2-3.1-10.8c-1.4-4.6,0.4-8.2,3.4-11.1c2.2-2.2,4.6-3.8,8.3-2.9c3.9,0.9,8.1,0.4,12.2,0.3c1.9,0,3.8-0.4,6,1.5
		c-0.9-11.8-1.1-22.9-4-33.7c-0.5-1.9-1.3-2.6-2.9-2.4c-6.4,0.9-9.9-2.4-11.3-9c-0.5-2.4-1.6-4.6-2.4-6.9c0.4-1.3,0.7-1.5,1.9-0.5
		c4.6,4.1,9.8,5.3,15.7,4.5c3.4-0.4,6.9-2.1,10.3-0.7c6.2,2.4,12.5,4,18.9,5.3c3.3,0.6,6.7,1.4,9.2,4.1c3.7,4,8.4,5.1,13,6.8
		c4,1.5,8.6,1.2,12,4.7c-8.4-1.5-16.8-3-25.3-4.3c-3.8-0.6-7.6-0.7-11.3-1.3c-1.4-0.2-2.2,0.7-1.6,1.5c3.5,4.8,0.5,10,1.2,15
		c0.5,3.3,0.1,6.8-0.1,10.2c-0.1,2.3,0.8,2.5,2.6,2.2c6-1.1,12-2,18.1-2.9c0.8-0.1,1.6-0.3,2.4-0.8c2.2-1.4,3.2-0.4,3.8,2.1
		c1.1,5.1,2.5,10,3.5,15.1c0.4,2,2.3,3.3,1.8,5.6c-1.1,1.3-2.3,2.5-2.7,4.4c-0.5,0.6-1.1,1.2-1.6,1.7c-1.2,0.8-2.3,1.8-3.9,1.6
		c-7.2-0.8-14.4-1.4-21.6-2.2c-1.6-0.2-3.5-1.7-4.7-0.3c-0.8,1,0.8,2.8,1.2,4.2c0.4,1.2,0.6,2.5,0.9,3.7c0,1.1,0,2.2,0,3.2
		c-1,5-0.3,10.1-0.1,15.1C756,210.9,754.7,212.9,756.5,214.3z M597.7,340.6c0.5,0.3,1,0.5,1.5,0.8c1.5,0.8,2.9,1.7,4.5,2.3
		c10.6,4.2,21.8,6,32.2,10.8c0.6,0.3,1.4,0.2,2.1,0.2c1,1.7,2.6,1.8,4.1,2.1c-1.2-1.1-2.6-1.8-4.1-2c-5-2-10-4.1-15.4-6.3
		c2.7-1.8,4.6,1,6.6-0.1c1,0.4,2.1,0.7,3.1,1.1c0.1,1,0.4,1.3,1.2,0.6c0.8,0.3,1.6,0.6,2.4,0.9c1.9,2.4,4.6,2.8,7.3,3.3
		c1.3,0.2,1.9,2.4,3.6,1.6l-0.1,0.2l0.1,0c-0.6-1.7-1.3-3.3-1.9-5c-0.5-1.4-1.6-2.8-0.4-4.3c2.5-3.1,3.9-7.1,7-9.7
		c0.2-0.1,0.5-0.1,0.7,0c5.1,2.2,10.6,0.2,15.9,1.9c-0.2-9.1-0.9-17.8-2.9-26.4c-0.8-3.9-2.8-2.4-4.7-1.2c-0.2,0.1-0.4,0-0.5-0.2
		c-0.1-0.2-0.1-0.4-0.2-0.6c-0.1,0.1-0.3,0.3-0.4,0.4c-0.2,0.1-0.4,0-0.6-0.1c-3-3.6-3-8.5-4.8-12.6c-0.9-2-1.2-4.5-3.6-5.4
		c-0.4-1-0.5-2.1-1.5-2.9c-0.6-0.5,6.5-11.9,7.3-11.6c3.5,1.6,2.8-1.6,2.7-3.1c-0.3-5.9-0.2-11.7,0.4-17.5c0.3-3.4-0.8-6.3-2.8-8.9
		c-2.1-2.7-4.3-5.2-5.7-8.4c4.6-6.3,7.3-13.5,8.5-21.5c0.9-6.3,2-12.5,3-18.8c0.3-1.8,0.6-3.7-0.4-6.5c-3.8,11-8.8,20.2-13.9,29.4
		c-1.6,2-3.2,4.2-4.9,6c-11.7,12.4-26.1,17-42,16.9c-6.4,0-12.5-2-17.7-6.3c-9.9-11-12.4-25.3-14.7-40.6c-1.1,4.7-0.2,8.4,0.4,12
		c1.1,7.5,2.3,15.1,4.9,22.2c0.1,0.5,0.3,1,0.4,1.6c0,0.1-0.1,0.2-0.1,0.3c0.1,0.2,0.2,0.3,0.3,0.5c0.7,1.9,1.1,3.8,3,5
		c1,0.6,2.2,1.9,0.8,3.8c-2.8,3.9-5.3,8.1-7.8,12.1c-1,1.6-2,2-3.9,1.5c-2.7-0.8-5.6-1.6-8.8-0.7c2.2,3,3.2,5.8,1.5,9.4
		c-1.3,2.6-1.9,5.8-2,8.5c-0.2,5.4-0.9,10.8-0.9,16.2c-0.1,6.4-0.7,12.8,1.4,19.4c0.8-0.8,1.5-1.2,1.8-1.8
		c8.8-15.1,21.2-26.4,33.5-37.7c4.5-4.1,9-8,13.9-11.6c1.4-1,2.5-2.9,4.2-3.2c1.7-0.3,2.9,1.5,4.3,3c0.2-3.6-0.3-7.8,2.5-9
		c6.7-2.9,14-2.9,21.1-1.6c0.3,0.1,0.7,0.3,0.9,0.5c4.4,3.8,8.4,8.1,12.2,12.6c1.2,1.4,1.5,2.9,0.3,4.6c-2.7,3.9-4.1,8.5-5.7,13
		c-5.5,15.7-7.8,32-7.1,48.7c0.2,4-0.5,6.7-2.2,9.7c-3.1,5.3-4.2,5.7-8.5,2.8c-0.7,0.3-1.5,0.6-2.2,0.9c-0.4-0.4-0.9-0.8-1.3-1.2
		c-1.7-1.6-3.4-3.2-5.1-4.9c-0.5-0.5-1.4-1.4-0.7-1.8c2.8-1.5,1.6-4.1,1.5-6.2c-0.5-11.9-1.3-23.9-2-35.8c0-0.7,0.3-1.9-0.5-2.1
		c-0.9-0.3-1.4,0.7-1.7,1.5c-9,8.2-17.3,17.2-23.9,27.8c-6,9.7-5.7,11.4,3.2,17.9c0.1,0.5,0.3,0.6,0.7,0.4c0.2,0.1,0.5,0.3,0.7,0.4
		c0.5,1.1,1.2,1.4,2.2,1.1c0.2,0.1,0.5,0.2,0.7,0.3c0.6,1.3,1.9,1.5,3,1.8c5,1.7,10,3.4,15,5.1c0.8,0.3,2,0.1,1.9,2
		c-7.5-1.3-14.4-4.3-21.6-6.5C598.6,341.1,598.2,340.9,597.7,340.6c-0.5-0.2-1-0.5-1.5-0.8c-0.7-0.5-1.4-1-2.2-1.6
		c-0.7-0.5-1.4-1-2.1-1.6c-0.3-0.1-0.3-0.9-0.9-0.5c0.3,0.2,0.6,0.3,0.9,0.5c0.5,0.8,1.3,1.3,2.1,1.6c0.5,0.8,1.3,1.3,2.2,1.6
		C596.7,340.1,597.2,340.3,597.7,340.6z M766.9,341.7c0.4,0.4,0.9,0.8,1.2,0.3c0.4-0.7-0.4-0.7-0.7-0.9c-0.6-0.4-1.4-1-1.8-0.1
		C765.3,341.5,766.3,341.7,766.9,341.7z M664.5,161.3c-0.1,0-0.2-0.1-0.2-0.1C664.3,161.2,664.4,161.2,664.5,161.3
		c0.1,0.8,0.4,1.4,1.3,1.4c0.1,0,0.3-0.2,0.3-0.2C665.9,161.5,665.1,161.4,664.5,161.3z M655.8,159.7c2.1,0.2,4.2,0.4,6.2,0.7
		C660.1,159,658,158.2,655.8,159.7l-0.1,0.1L655.8,159.7z M613.5,447.8L613.5,447.8c-1.2-1.5-2.7-2.6-4.4-3.1
		c-11.1-6.3-19.3-15.4-24.6-27.8c-4.4-10.4-7.7-21.1-9.9-32.2c-0.4-2-1.6-3.8-1.7-5.5c-0.2-2.9,4.9-7.3,7.6-7.4
		c4.2-0.1,8.5-0.4,12.7-0.2c2.3,0.1,4.7,0.8,6.8,2.2c0.9,0.7,1.9,2.4,0.8,2.7c-2.6,0.7-1.3,2.9-2,4.2c0.1,0,0.1-0.1,0.2-0.1
		c-0.1,0-0.1,0-0.2,0c1.8-0.4,1.8,1.3,2.2,2.4c1.6,4.8,3.6,9.4,6,13.7c3.7,6.6,7.8,12.8,12.8,18.3c2.3,2.5,4.6,3,7.1,0.4
		c2.1-2.1,4.5-3.9,6.7-5.9c1,0.2,2-0.1,2.7-0.7c4.7-4.3,9.3-8.6,11.5-15.1c0-0.3,0.1-0.5,0.3-0.7c0.6-0.4,0.7-0.9,0.5-1.6
		c-0.2-0.8,0.2-1.9-0.7-2.4l0.1,0c-1.4-3.9-4.4-6-7.7-7.7c-6.8-3.6-13.7-6.7-20.8-9.5c-13.9-5.6-28.2-9.9-41.7-16.4
		c-7.6-3.6-14.6-8.3-19.7-15.7c-0.3-0.4-0.6-0.9-1.2-0.1c1.2,2.5,1.8,5.2,2.5,7.9c1.2,5.2,2.4,10.3,3.7,15.5
		c5.7,21.4,12,42.6,21.2,62.6c1.9,4.1,2.1,7.7-1,11.4c-1.8,2.1-2.8,4.8-3.9,7.4c-0.6,1.4-1.1,3.1-2.9,0.7c-0.9-1.1-3.4-2.2-4.3-0.3
		c-0.6,1.3-0.8,3.9,2.2,4.6c13.4,3.1,26.9,5.9,40.2,10.2c0.2-3.9,0-7.6-0.5-11.2C614.2,448.1,614,447.8,613.5,447.8z M664.8,366.8
		c-0.1-0.1-0.2-0.1-0.3-0.1c-0.1,0-0.2,0.1-0.2,0.2C664.5,366.8,664.6,366.8,664.8,366.8c0.3,0,0.6,0,0.8,0c1.2,0.9,1.2,3.2,3.4,3.2
		c-0.2-2.4-0.5-4.6-0.7-6.9c-0.2-3.2-1.5-2.7-3.2-1.2c-2.9,0.2-5.7,1-8.3,2.5c-0.8,0.4-1.4,2.2-2.6,0.8l0.2-0.2l-0.2,0.1
		C656.2,362.5,662.1,363.5,664.8,366.8z M519.5,374.3c-0.1-0.2-0.1-0.4-0.1-0.7c-5.3-10.3-10.6-20.6-15.9-30.8
		c-2.1-4-4.2-8-6.5-12.4c-0.7,1.9-0.1,3.1,0.2,4.3c1.1,5.4,1.1,11,3.5,16.1c0.6,0.7,0.6,1.6,0.5,2.4c-0.9,1.1-0.8,2.1,0.2,3
		c0.1,0.5,0.3,1.1,0.4,1.6c-0.8,0.8-0.6,1.6,0.2,2.3c0.8,2.1,0.7,4.3,1,6.4c-0.3,0.8-0.2,1.5,0.4,2.1c0.1,0.6,0.2,1.2,0.3,1.9
		c-0.3,0.8-0.2,1.5,0.4,2.1c0.3,1.7,0.7,3.3,1,5c2.6,12.7,5.1,25.5,7.8,38.2c0.9,4-0.7,6.9-4.4,7c-4.5,0.1-9.1-0.1-13.6,0.1
		c-3.6,0.2-6.4-0.7-6.6-5.5c-0.9,1.1,0.4,3-1.4,3c-1.1,0-1.1-1.5-1.3-2.5c-0.6-2-1-4.1-0.6-6.2c0.5-2.8-0.3-3.7-2.9-3.9
		c-25.8-2.1-49.6,3.7-70.7,20.7c-1.7,1.4-3.6,1.5-4.9-0.1c-2.4-3-4.4-6.5-6.5-9.7c-0.2-0.3-0.3-1-0.2-1.1c2.7-1.6,2.1-5.8,4.8-7.3
		c1.1,3.1,2.2,0.5,2.5-0.3c0.7-1.8,1-3.7,1.2-5.7c1-13,1.8-25.9,1.5-38.9c-0.1-6.8-0.1-6.8-6.4-6.2c-1.2,0.1-2.4,0.1-3.5,0.4
		c-3.6,1-7.6,0.2-10.8,3.2c-1.1,1-2.5-0.4-2.9-2.3c-0.4-2-0.2-4.2-1.7-5.8c-1.1-0.3-2.3-0.7-3.4-0.1c-0.5,0.5-0.9,1-1.4,1.5
		c0.1-2.3-0.9-3.3-3-3.1c-4.8,0.3-9.5,0.5-14.3,0.8c-1.7,0.1-3.6-0.4-5,0.4c-2.7,1.6,0.6,3,0.7,4.6c1.3,18.1,4.6,35.9,8.3,53.6
		c0.2,1.1,0.3,2.7,1,3.3c1.9,1.7,0.8,2.8-0.1,4.4c-3.1,4.9-6.1,9.9-9.2,14.9c-0.8,1.3-1.1,2.9-0.5,4.1c0.7,1.5,2.1,0.4,3.2,0.3
		c20-2.3,40-4.3,60.1-4.9c40.5-1.2,80.8,2.3,120.8,8.6c9.8,1.6,19.6,3.5,29.5,5.3c0.3-1.8,0.5-3.6,0.1-5.5c-1.8,0.5-0.8,2.5-1.9,3.2
		c-1-0.7,0.1-2.8-1.6-2.9c-1.2,0.9-0.2,2.6-1.7,4c0-1.6,0-2.9,0-4.1c0-0.9,0.4-1.9-0.7-2.3c-5.4-2.1-7.6-7.7-10.9-12.1
		C541.5,411.5,530.3,393,519.5,374.3L519.5,374.3z M475.5,193.3c2.7,11.2,5.3,22.3,8.6,33.3c0.4,1.2,0.6,2.5,1.6,3.3
		c-0.7,1.6,0.2,2.8,0.8,4.1c0.9,2.3,1.4,4.7,3.1,6.5c0.4,0.5,0.7,1.4,0.6,2.1c-0.2,2.4-7.5,8.4-9.8,8.2c-3.7-0.3-4.8,0.9-5.4,5.2
		c-0.2,1.5,0.5,3.2-1.2,4.8c-0.5-3.8-0.8-7,0.5-10.2c-0.6-2.7-2.9-1.8-4.4-2.5c-3.8-1.6-6.6-2.1-7.4-8.4c-1.9-16.2-6.1-32.1-9.9-48
		c-0.7-2.9-2-3.8-4.8-3.9c-7.2-0.2-14.4,0.4-21.5,1.1c-4,0.4-8.3-0.3-12.3,1.8c0.7,1,1.3,1.7,2,2.5c-0.1,0.2-0.3,0.3-0.5,0.3
		l-0.2,0.2c0,0,0.1,0.3,0.1,0.3c-0.5,1.4-0.9,2.9-1.4,4.3c-0.7,0.1-0.9,0.5-0.7,1.2c-0.2,0.9-0.5,1.8-0.7,2.7
		c-0.7,0.1-0.9,0.5-0.7,1.2c-0.3,0.9-0.5,1.8-0.8,2.7c-0.6,0.1-0.8,0.5-0.6,1.2c-0.3,0.9-0.5,1.8-0.8,2.7c-0.6,0.1-0.8,0.5-0.6,1.2
		c-0.4,1.6-0.5,3.3-1.2,4.8c-1.8,3.8-0.6,6.1,2.4,8.4c10.2,8.2,20.7,15.8,31.1,23.6c6.4,4.8,12.7,9.7,20.8,10.5
		c0.6,0.1,1.1,0.4,1.7,0.6c1.9,0.8,2.6,2,1.6,4.2c-1.9,4.5-3.6,9.1-5.2,13.7c-0.6,1.7-1.3,2.4-3.2,2.2c-3.2-0.3-6.5,0-9.7-0.4
		c-3.1-0.3-4.8,0.8-5.1,4.5c-0.2-0.7-0.3-1.4-0.5-2.1c0.1-3.1-2-3.2-3.9-3.1c-6.3,0.3-12.6,0.6-18.9,1.1c-3.1,0.3-6.3,0.2-10.1,1.8
		c4.8,0.4,8.5,2.4,12.6,2.4c0.4,0,0.7,0,1.1,0.1c13.4,2.1,26.7,3.5,40.2,1.6c2.2-0.3,4.5-0.5,6.5,1.2c0.1,1.8,0.2,3.6,0.3,5.3
		c-0.1,2.6-0.9,5.5-0.2,7.7c1.3,4.1-0.1,7.2-1.5,10.5c-2.4,5.4-6.6,10.1-5.2,16.9c0,0-0.3,0.2-0.8,0.5c0.8-3.6-1.4-6.7-0.6-10.2
		c0.4-1.6-0.7-1.8-1.9-2c-7.8-1.8-15.8-2.7-23.7-3.8c-2.6-0.4-5.3-1.3-8.4-0.5c1.8,1.8,1.7,3.9,1.6,6c-0.1,5.2,0,10.4-0.1,15.7
		c0,2.3,0.3,3.2,2.8,3c5.2-0.4,10.4,0.4,15.3-2.1c3.2-1.6,4.5,0.4,5.4,3.4c1.5,5.1,1,10.6,3.3,15.5c0.4,0.9-0.1,2.3-0.8,3.3
		c-1.2,1.8-2.4,3.5-3.5,5.3c-1.6,2.5-3.6,3.1-6.2,1.9c-4.7-2.2-9.6-3.1-14.6-3.5c-1.6-0.1-4.7-1.3-2.1,2.7c0.5,0.7,0.3,2,0.3,3
		c0.1,6.8,0.2,13.6,0.3,20.3c0.1,5.5,1,6.1,5.6,3.7c13.3-6.8,27.1-11.7,41.5-14.3c2.3-0.4,4.7-0.5,6.8-2c3.1,2,3-0.5,2.7-2.5
		c-0.7-6.7-1.6-13.4-2.4-20.1c-2.3-18.6-6.1-36.8-9.8-55.1c-0.9-4.2-0.6-8.9-2.4-12.5c-1.7-3.5-0.3-5.1,1.1-7.5
		c1.3-2.2,3.4-4,3.1-7.1c0.1-2.5,1.8-3.6,3.5-3.7c5.8-0.5,11.7-0.9,17.5-0.8c4.2,0.1,5.2,2.2,3.8,6.8c-0.2,0.6-0.7,1-0.2,1.7
		c2.8,4.3,3.3,9.4,4.7,14.2c4.3,14.8,9.7,29.1,15.8,43.1c7.9,18.3,17.7,35.5,28.5,51.9c2.3,3.8,4.5,7.7,6.9,11.7
		c0.7-1.5,0.2-2.6-0.2-3.7c-7.8-23.8-13.9-48.2-18.6-72.9c-3-15.9-4.4-31.9-3.9-48.2c0.1-2.3,1.4-4.8,0.3-6.9
		c-1.4-2.8-0.5-4.6,1-6.7c1.1-1.4,1.9-2.8,2.5-4.6c1.2-3.6,4.1-4.5,7.5-2.8c3.3,1.6,6.5,3.3,10.2,5.1c-0.8-3.3-2.1-5.2-4.9-5.7
		c-3.9-0.7-6.4-3.2-7.9-7.1c-0.6-1.6-1.4-3-2.2-4.5c-11.6-23.8-22.9-47.8-33.1-72.4c-2.1-5.1-4.5-10.2-6.8-15.2
		c0.5,5.3-0.1,10.8,2.8,15.4c1.9,11.6,3.6,23.3,5.8,34.8c1.7,9.1,2.8,18.5,6.8,26.9c0.5,1.1-4,10.2-5.2,10.4
		c-0.4,0.1-1.1,0.1-1.3-0.2c-1.3-1.4-3-0.6-4.4-0.9c-3.9-0.6-7.8-0.3-11.7,0c-0.5-0.1-1-0.1-1.4-0.2c-3.7-1.9-2.8-6-3.3-9.2
		c-1.8-11.3-3.3-22.6-5-33.9c-0.1-0.9,0.3-2.3-1.3-2.3c-3.2,0-6.4-0.7-9.6,0.5C472.8,190.8,474.3,191.9,475.5,193.3z M434.4,132.1
		c-0.1,0.5-0.2,1.1-0.4,1.6c-0.9,0.3-1.1,0.8-0.3,1.6c-2.2,8.6-4.3,17.2-6.6,25.7c-0.6,2.1-0.1,2.7,1.9,2.7c4.4-0.1,8.8,0,13.2,0
		c1.3,0.5,2.2,2,4.3,1.8c-3.2-15.3-6.5-30.4-9.7-45.6c-0.3,0-0.6,0-0.9,0C435.3,123.9,434.8,128,434.4,132.1z M392.3,165.5
		c3.2,0.8,7.4,2.3,9.1-1.3c3.2-7,5.3-14.6,6.8-22.3c-1.4-0.5-2,0.2-2.3,1.1c-1.3,3-3.7,5.1-5.9,7.3c-7.9,7.9-17.2,13-27.2,17
		c-8.7,3.5-17.6,6.6-26.4,9.9c-1.1,0.4-3.1,0.6-2.6,2.5c0.4,1.6,2.1,1.4,3.4,1.2c0.4-0.1,0.7-0.1,1.1-0.2
		c12.4,7.6,24.5,15.7,36.1,24.6c-0.2,1.2-0.1,2.7,1,3c1.4,0.4,1.4-1.5,1.8-2.4c1.5-4.1,2.8-8.3,4.4-12.3c1-2.5,0.1-2.8-1.9-2.8
		c-3.4,0.1-6.6,0.7-9.9,1.2c-0.9,0.2-1.7,0.5-2.4-0.7c-3.3-5.5-3.2-10.3,0.4-15.6c1.7-2.5,3.4-5,5-7.6c0.9-1.5,2-2.5,3.6-3
		C388.3,165.3,390.3,164.7,392.3,165.5z M603.3,195.9c-0.2-0.1-0.4-0.1-0.5,0c0-0.4,0-0.9,0-1.3c-0.1-0.5-0.2-1.4-0.3-1.4
		c-3.6-0.5-4-3.9-5-6.6c-1-2.5-1.7-5.1-2.5-7.7c-0.4-1.2-0.4-3.2-2.4-2.7c-1.9,0.5-1.7,2.2-1.3,3.8c-0.1,9.4,0.2,18.8,3.6,27.6
		c2.6,6.7,6.9,9.6,13.4,8.2c11-2.4,18-10.5,23-21c0.7-1.6,0.3-2.3-1.3-2.6c-6.7-1.6-13.4-2.6-20.2-1.2
		C606.7,191.5,603.9,191.8,603.3,195.9z M404.6,310.9c-0.4-2.2-1.9-2.8-3.7-3c-1.2-0.1-2.8,0-3.3-1.2c-2.3-5.6-5-11-4.8-17.5
		c-0.9,0.2-2.6,1.9-2.8,0.2c-0.4-4-2.8-2.6-4.6-2.6c-2.5,0-5,0.5-7.5,0.7c-9.2,0.8-18.4,1.7-28.1,2.6c2.4,3,2.1,6.1,2.3,9.2
		c0.3,8.6,1.5,17.1,2.4,25.7c0.3,2.7,1.3,3.5,3.7,3.1c3.6-0.5,7.2-0.3,10.7-1.1c6.5-1.3,13.1,0,19.6-2.6c6.6-2.7,9.2,0.8,8.1,8.5
		c-0.1,0.4-0.1,0.8-0.2,1.2c-0.4,2.1,0.3,2.8,2.2,2.7c2.5-0.2,5,0,7.5,0c1.7,1.4,3.1,2,2.8-1.3c-0.7-7.5-1.4-14.9-2.1-22.4
		C406.7,311.5,406.2,310.5,404.6,310.9z M144.5,297.8c3.4,6.5,4,13.3,5.1,19.8c5.1,30,12.4,59.3,21.1,88.3c1.2,3.8,1.9,4.2,5,2.2
		c9.1-5.9,18.3-11.8,27-18.5c8-6.2,15.7-12.8,20.7-22.3c2.5-4.6,2.9-9.6,2.9-14.7c0-0.2-0.1-0.5-0.2-0.7c-0.6,0.3-0.2,0.6,0,0.8
		c0.3,0.3,0.8,0.3,0.8-0.2c0.1-1.7-0.1-3.4-0.5-5c-1.9-7.5-6.3-13.1-11.5-18c-14.8-14.1-32-22.9-50.9-28
		C157.9,299.9,151.5,298.6,144.5,297.8z M252,96.8c31.4-4.1,63-7.7,94.7-7.1C314.9,88.3,283.4,91.3,252,96.8z M617.6,451.3
		c-1.2,2.4-2.3,4.7-1.8,7.3c0.2,0.9,0.4,1.9,1.5,1.7c1-0.2,0.7-1.2,0.7-1.9C617.9,456,617.7,453.7,617.6,451.3z M655.1,474.5
		c4,1.6,8.1,3.2,12.1,4.7C663.6,476.4,659.5,475,655.1,474.5z M713,164.6c0,0.1,0,0.2,0,0.3c6.1,0,12.3,0,18.4,0c0-0.1,0-0.2,0-0.3
		C725.3,164.6,719.2,164.6,713,164.6z M354.1,433c-1,1.9-0.3,3.7-0.7,5.2c-0.2,0.8-0.6,1.9,0.8,2c1.1,0.1,1.7-0.4,1.8-1.8
		C356.1,436.4,355.7,434.7,354.1,433z M115.6,259.4c0,0.1,0,0.2,0,0.3c1.8,0,3.6,0,5.4,0c0-0.1,0-0.2,0-0.3
		C119.3,259.4,117.5,259.4,115.6,259.4z M128.5,260.2c-1.2,0-2.5,0-4.1,0C125.8,261,127,260.6,128.5,260.2z M227.1,360.7
		c-0.3-2.1,0.5-3.2-0.7-4.3C226,357.7,225.7,358.7,227.1,360.7z M226,361c-0.8,0.8-1.2,1.5-0.3,2.5C226.4,362.8,226.7,362.1,226,361
		z M159.2,373.6c0.1-0.2,0.2-0.3,0.3-0.5c0-0.1-0.1-0.2-0.1-0.3c-0.1,0.1-0.4,0.2-0.4,0.2C159,373.2,159.1,373.3,159.2,373.6z
		 M158.7,370.4l-0.1-0.3l-0.1,0.3L158.7,370.4z M224.7,366.8c-0.1-0.1-0.1-0.2-0.2-0.3c-0.1,0.1-0.2,0.2-0.2,0.2
		c0,0.1,0.1,0.2,0.2,0.3C224.6,366.9,224.6,366.9,224.7,366.8z"/>
	<path class="st0" d="M768.9,367c-0.1-0.4-0.2-1-0.4-1.1c-4.7-2-3.1-5.6-2.3-9.2c0.5-2.1,1.6-3,3.3-3.4c4.8-1.2,5.4-3.8,1.9-7.7
		c-0.8-0.9-1.8-1.6-2-3.6c3.2,1,6.1,1.9,9.1,2.8c4.5,1.3,8.9,2.7,13.4,3.9c0.9,0.3,2.4,1.4,2.6-1c0.9-0.3,1.5,0.2,2.1,0.8
		c0.6,1.9,2.3,1.7,3.6,2.1c9.4,3.1,18.9,5.7,27.9,10c14.2,6.8,27.9,14.3,37.8,28c0.4,0.5,0.8,0.1,1.2-0.3c5.8,8.4,5.2,17.1,1.4,26.1
		c-5.9,13.9-16,23.7-27.5,31.5c-7.2,4.9-15.3,9-24.3,9.9c-3.2,0.3-6.3,1.2-9.3,2.4c-2.1,0.9-2.1,3.6-2.2,5.7
		c-0.1,5.3-0.1,10.7-0.1,16c0,6.8,0,13.6,0,20.3c-0.4,0-0.8,0-1.1,0c0-12.3,0-24.6,0-37c0-1.5,0.3-3.3-1.1-4.3
		c-1.9-1.4-3.9-0.1-4.1,2.5c-0.2,3.1,1.1,6.2,0.5,9.7c-0.6-2.1-1.2-3.8-1.7-5.5c-3.3,7.8-0.4,15.9-2.2,24.4
		c-0.3-10.4-1.1-20.1-0.1-29.7c0.2-2.2-0.2-3.7-2.4-4.5c-15.8-5.9-27.5-17-35-33.3c-0.2-0.3-0.4-0.6-0.6-0.9c-1.1,1-0.1,1.8,0,2.7
		c0.2,1,0.5,1.9,0.3,3.1c-2.8-3.2-5-6.8-4.9-11.4c0.1-3-0.8-4.7-3.4-5.3c-3.1-1.9-3.2-4.1-1.7-7.7c1.6-3.5,3.2-7.1,4.1-11.1
		c0.6-2.6,3-4.7,4.7-6.9c1.1-1.4,1.9-2.8,1-4.5c-0.9-1.6-1.9-3.5-4.1-3.2c-3.3,0.4-6.6,0.8-9.9,1.2c-1.3,0.1-2.6,0.2-3.8,0
		c8.3-1.5,16.7-4.8,25,0.1c1.4,0.8,2.2-1,3.3-0.1c0.2,0.3,0.3,0.5,0.5,0.8c1.5-0.9,2.7-0.5,3.6,1c0.1,0.6,0.2,1.2,0.3,1.7
		c-1.6,0.9-1.3,2.3-0.7,3.6c0.7,1.6,1.5,3.2,2.3,4.8c6.2,12.7,14.3,23.9,24.1,33.6c1.2,1.2,2.5,2.3,4.3,1.5
		c-0.4-1.8-2.1-0.8-2.5-2.1c1.2,0.1,2.4,0,3.4-0.8c3.4-2.5,6.9-5,10.4-7.4c5.3-3.6,10.1-8.7,13.1-14.8c4.7-9.6,6.2-8.4-3.3-13.7
		c-11.9-6.7-24.7-11.1-37.6-15C780,370.3,774.2,369.6,768.9,367z"/>
	<path class="st0" d="M166.8,153.5c-5-1-10.3-0.4-14.8-4.1c-3.1-2.5-7.2-0.6-10,4.5c-2.2,3.9-6.7,5.6-7.8,10.3
		c-0.2,1-1.4,0.4-2.2,0.2c-1.6-0.2-3.3-0.9-4.6,0.8c-7.3-3-13.7-7.5-18.8-13.9c-6.7-8.3-7-17.9-3.2-27.7
		c4.4-11.3,11.2-20.9,18.9-29.7c9.2-10.5,19.4-19.7,29.8-28.7c0.3-0.3,0.9-0.4,1.3-0.5c0.3-0.3,0.6-0.5,0.8-0.8c0,0-0.1,0-0.1,0
		c1.1-0.3,2.2-0.7,3-1.7l-0.1,0.2c0,0-0.2-0.1-0.2-0.1c5.1-3.1,10.3-6,15.2-9.5c1.8-1.3,3.1-2.1,5.1-1.4c0.3,0.2,0.7,0.5,1,0.7
		c1.2,0.4,1.4,2.2,3.3,2.4c-2.4-4.3-0.6-8.8-1.2-13.1c-0.3-1.8,0-3.1,1.7-3.7c0.8,1,1.7,0.6,2.6,0.5c6.4-0.7,12.8-1.4,19.2-2.1
		c1.2-0.1,2.3-0.3,3.4,0.6c3.8,3.3,7.6,6.7,11.6,9.8c2.6,2,4.3,5.2,7.4,6.6c-5.2,14-8.9,28.4-11.9,43.1c-0.5,2.5-0.3,3.7,2.3,3.5
		c-0.8,0.5-1.6,1-3.3,2.2c6.5,0.4,11.6-2.4,17-2.1l0,0c-2.5,2.2-5.7,1.7-8.5,2.4c-5.4,1.2-10.9,2.2-16.3,3.2
		c-0.5,0.1-1.1,0.2-1.3,0.5c-2.6,4-6.8,3.4-10.4,3.8c-4.6,0.6-8.8,2.3-13.2,3.3c-4.1,0.9-6.8,4-9.9,6.6c-0.7-0.4-1.2-1.2-2.2-1.1
		c-1.2,0.2-2.6,0.6-3.1-0.9c-0.6-1.6-0.2-3.4,0.9-4.6c1-1.1,1.7-2.8,3.4-3.1c4-0.3,8.1-0.3,12-1c1.6-0.3,4.1,0.7,4.8-2.2
		c0-6.7-1.2-13.3-1.9-20.2c-4.4,4.1-8.5,7.7-12.5,11.6c-7.5,7.4-13.7,15.9-19.6,24.8c-3,4.5-5.7,9.3-7.4,14.7
		c-0.3-0.2-0.7-1.7-0.9-0.1c-0.7,3.9,0.5,6.8,3.9,8.6c4.2,2.2,8.6,3.8,13,5.2c1.3,0.5,2.8,0.6,4,1.6
		C166.9,153.3,166.8,153.5,166.8,153.5z"/>
	<path class="st0" d="M54.8,258.3c0.5,3.6,3.1,4.2,5.7,4.3c6.2,0.2,12.1-2.5,18.3-2.9c10-0.6,20-2.1,30.1-1
		c-0.7,1.1-1.8,0.4-2.7,0.5c-3,0.6-3.8,2.4-3,5.7c0.8,3.5,2.1,6.3,4.7,8.8c1.1,1.1,2.6,4,1.2,6.6c-0.5,0.8-0.8,2.1-0.2,2.5
		c2.9,1.9,2.1,4.8,1.9,7.6c-0.1,1.1,0.5,2.1,1.2,2.8c1.8,1.9,4.1,3.2,3.5,6.9c-0.2,1.4,2,1.4,3.3,1.4c3-0.1,4.7,0.9,3.7,4.6
		c-0.4,1.3-0.1,2.5,0.6,3.7c2.1,4.1,2.3,8.9,3.4,13.4c0.6,2.2,0.6,4.9-2.8,4.9c-3-6.9-6.2-13.6-8.9-20.6c-1.9-4.9-5.7-8.5-7.1-13.7
		c-0.3-1.3-1.1-0.3-1.6,0c-5.4,3.1-10.7,6.1-16.1,9.1c-1.2,0.6-1.4,1.6-1.4,2.8c1.3,5.6,4.4,10.2,6.9,15.2
		c3.8,7.7,8.7,14.8,11.5,23.2c-0.2,5.2-1.5,6.9-5.9,7.1c-2.1,0.1-2.2,1.4-2.4,3.1c-0.3,2.7,0.4,5.6-1.3,8.2c0-2.8-0.1-5.6,0-8.3
		c0.1-2.2-0.6-3.6-2.6-4.5c-2-0.9-3.8-2.3-5.6-3.5c-1.1-0.8-2.3-1.5-1.2-3.4c0.8-1.4-0.5-2.4-1.1-3.4c-9.4-14.7-19.9-28.3-31.3-41.2
		c-1.9-2.1-3.7-4.9-6.1-5.8c-2.3-0.8-3.9-1.7-5.2-3.8c-0.6-0.9-2.8-0.3-2.1-2.3c0.5-1.5,1.9-1.8,3.3-1.7c3.1,1.9,5.1-0.6,8.2-2.3
		c-1.4-0.2-2.1-0.2-2.7-0.3c-0.2-0.3-0.5-0.6-0.7-0.8c5.6-3.6,0.7-8.9,2.4-13.2c-1.7-0.3-2.1,2.9-3.8,0.5c-1.5-2-2.6-3.6-1.4-6.1
		C49.1,258.9,51.8,258.2,54.8,258.3z"/>
	<path class="st0" d="M160.4,377.4c1.5,1.4,1.4,3.5,2,5.3c2.8,9.9,6.1,19.7,8.1,29.9c0.5,2.5,2.6,4,3.8,5.8c2,2.9,3.4,6,4.8,9.2
		c0.7,1.6,1.6,2.8,3.3,3.2c2.9,0.8,4.1,2.2,1.6,5.1c-0.5,0.5-0.6,1.4-0.8,2.1c-3.3,2.6-6.5,5.2-10,7.6c-2.2,1.5-3,3.4-2.7,6.1
		c0.3,2.6,0.3,5.3,0.4,7.9c-0.3,0-0.6,0.1-0.9,0.1c-0.3-2.6-0.6-5.2-0.9-7.8c-0.3,0-0.7,0-1,0c-1.1,25.7-2.2,51.4-3.3,77.1
		c-0.7-7.9-0.6-16,0.1-24c0.9-10.4,1.1-20.8,1.1-31.3c0-6.4,0.4-12.8,0.6-19.2c0.1-2.6-1-3.7-3.2-1.9c-10.1,8.3-20.5,16.2-29.2,26.3
		c-0.8,0.9-1.9,1.9-2.2,3c-1.5,4.8-5,3.9-7.7,2.8c-6.1-2.5-12.4-4.1-18.6-6.3c-2.4-0.8-3.3-1.8-2.4-4.7c2.7-8.6,5.1-17.4,7.7-26.1
		c0.7-2.4,2-3.8,4.6-4.1c2.1-0.2,4.1-1.1,6-2.2c8.5-4.9,16.9-9.7,25.5-14.4c2.1-1.2,4.1-2.8,6.9-2.7c2.2,0.1,1.6-2.4,1.2-4
		c-2.1-8.6-4.8-16.9-7.4-25.3c-1.8-5.9-4.1-11.7-5.3-17.8c0.9-1.7,1.8-2.6,3.6-1.1c2.4,2.1,5.1,3.4,8,4.3c1.8,0.5,2.5,1.6,1.4,3.4
		c-0.9,1.5-0.6,2.6,0.4,3.8c1.9,2.3,3.2,4.8,2.5,8.1c-0.2,0.9,0.1,2,1.1,2.2c1.1,0.3,1.4-0.7,1.7-1.6c0.9-2.8,0.5-5.7,0.2-8.4
		C160.9,384.5,160.8,380.9,160.4,377.4L160.4,377.4z"/>
	<path class="st0" d="M794.6,285.3c-5.4,1.1-5.4,1.1-5.9-4.6c-0.2-2.2-0.7-4.5-2.1-6.1c-2.4-2.7-2-6.6-4-9.5
		c-0.9-1.2,0.7-2.3,0.7-3.9c-2.3-0.1-4.8,2.2-7.3-0.6c3-1.9,6-3.7,8.9-5.5c1.1-0.7,2.5-1.1,2.3-3c1.3-3.3,2.8-2,3.7,0.1
		c0.6,1.5,1.7,2.4,2.6,4c1.2-4.2,0-8.4,1.5-12.2c0.5-1.1,1.4-1.9,2.5-2c10-0.8,20.4-4,28.6,5.9c2.8,3.4,6.6,5.9,8.6,10.2
		c0.9,1,0,1.6-0.3,2.4c-6.7,15-13,30.1-15.2,46.8c-0.9,6.7-2.4,13.6-0.8,20.1c1.1,4.5-0.6,7-2.4,10.1c-1.6,2.8-3.2,4.8-7,4.1
		c-4.5-0.9-5.3,1.1-4,8.4c-1,0.2-1.9,0.2-2.7-0.6c2.8-1,1.1-3.4,1.3-5.2c0.1-0.9,0.1-2.5-0.9-2.7c-1.7-0.4-0.5,1.9-1.5,2.4
		c-0.8-0.9,0.4-3.9-2.1-3c-1.2,0.5-1.8,1.1-2.1-0.6c-0.5-2.5,1.6-1,2.2-1.7c-1.2-0.9-2.4-1.7-3.5-2.6c-0.7-0.6-1.4-1.9-0.7-2.3
		c2.9-1.8,1.4-4.6,1.4-6.9c-0.2-12.7-0.5-25.5-0.9-38.2C795.5,287.5,796.2,285.9,794.6,285.3z"/>
	<path class="st0" d="M793.4,135.4c-3.4-3.4-8-3.2-12-4.7c-4.6-1.7-9.3-2.8-13-6.8c-2.4-2.7-5.8-3.4-9.2-4.1
		c-6.4-1.2-12.8-2.8-18.9-5.3c-3.4-1.3-6.9,0.3-10.3,0.7c-5.9,0.7-11.2-0.4-15.7-4.5c-1.2-1.1-1.5-0.8-1.9,0.5
		c-4.5-3.9-4.5-8.9,0-13c1-0.9,1.8-2,2.7-2.9c1.8,0.2,3.6-0.2,5.3,0.4c7.3,2.5,14.7,4.2,22.2,5.5c19.1,3.3,38.2,6,57.6,5
		c2.1-0.1,4.4,0.3,5.6-2.3c0,0-0.1,0.1-0.1,0.1c5.5-0.5,11-0.7,16.6,0c-0.7,4.1-1.6,8.1-2.1,12.2c-0.4,2.9-1.9,5.8,0.5,8.7
		c0.7,0.8-0.5,2.4-1.2,3.4c-1.3,1.8-2.7,3.6-4.1,5.4c-3.2,4-6.5,7.9-5.3,14.8c-1.3-1.6-1-2.5-1.1-3.3c0-6.9-0.4-7.4-7-8.1
		C799.2,136.8,796.2,136.7,793.4,135.4z"/>
	<path class="st0" d="M665.6,82.5c-0.8-0.9-1.9-0.7-2.6-0.1c-3.9,2.9-7.7,1.6-11.2-0.7c-2.7-1.9-5.9-1.9-8.8-3.1
		c-1.7-0.7-3.3-1.2-4.7-2.5c-4.5-4.1-9.8-4.5-15.5-4.5c-4.3,0-9-0.2-13-3.1c-1.6-1.1-3.4-2.2-5.2-2.6c-2.8-0.6-4.2-2.2-4-5.3
		c0.1-0.7,0.4-1.1,1.1-1.1c1.3,0.2,2.4-0.1,3.3-1.2c3.2-3.6,6.4-7,10.2-9.8c1.4-1,1-2.2,0.5-3.4c0.7-1.8,2-3,3.6-3.8
		c0.6,1.6,1.5,2.5,3.1,2.9c3.3,0.8,6.5,1.8,9.7,2.6c2.6,0.6,1.4-1,0.9-2.2c1.4-0.6,1.6-2.1,1.9-3.4c0.4-1.3,0.8-2.7,2.3-3.1
		c4.9,1.8,9.7,3.7,14.6,5.5c4.1,1.5,8.2,3.1,12.7,2.5c1.2,0.5,1,1.4,0.7,2.4c-1.4-0.6-3.3-1.7-2.4,1.4c2.3,7.6,4.6,15.2,7.8,22.4
		C668.9,75.7,667.2,79.1,665.6,82.5z M634.9,45.6c-0.1-0.2-0.2-0.4-0.3-0.6c-0.1,0.2-0.2,0.4-0.2,0.6c0,0.2,0.1,0.4,0.2,0.6
		C634.8,46.1,634.9,45.9,634.9,45.6z"/>
	<path class="st0" d="M811.1,228.1c-2.5-1.2-3.3-2.9-2.5-6.1c1.1-4.2-1.9-7.3-3.7-10.4c-1.2-1.9-3.1-3.4-4.3-5.5
		c-1-1.7-2.4-3.4-5-2.8c2.2-1,4.4-2.1,6.7-2.9c13.5-4.6,27.1-9,41.1-11.5c4.4-0.8,9,0,13.4-1.7c1.8,2.8,1,5.7,0.6,8.7
		c-0.9,0.2-0.9-1-1.9-1.3c-0.5,6.4-0.9,12.7-1.4,18.9c-0.1,1.6,0.1,3.1,1.3,4.2c-0.6,2.5-1.4,4.8-3.1,6.7c-1.8,2-0.9,4.7-1.5,7.8
		c-0.7-1.3-1.1-2.1-1.6-3c-2.4,6.6-1,13.2-2.6,19.6c0-5.4,0-10.9,0-16.3c0-1.6,0.6-3.5-2-3.6c-2-0.1-3.9-0.5-3.9,3
		c-0.1-2.7-1.1-4-3.5-3.6c-3.2,0.6-1.8,3.3-2.2,4.9c-0.9-4.7-3-6.6-7.6-6.3C822.1,227.2,816.6,227.7,811.1,228.1z"/>
	<path class="st0" d="M553.2,15.7c0,2.1,1.4,2.4,2.8,2.9c6.7,2.2,11.6,7,16,12.6c2.1,2.7,2.8,6,2.3,9.9c-0.6,4.4-1.5,8.6-2.6,12.9
		c-3.3-2-6.7-2.4-10.2-2.4c-1.3,0-2.8,0.4-3.3-1.5c-1.1-3.9-4.2-4.7-7.2-5.7c-2.4-0.8-4.5-1.8-5.1-4.8c-1.6-3.8-0.1-6.9,1.7-10.1
		c1.5-2.7,3.8-5.2,2.8-9.1C550,18.7,552.4,17.4,553.2,15.7z"/>
	<path class="st0" d="M677.3,70.3c4.6,1.5,9.1-0.2,13.7-0.4c5.4-0.3,10.9-1.2,16.3-1.6c2.4-0.2,3.1,1.2,2.2,3.8
		c-1.1,3.4-2.1,6.9-3,10.4c-0.4,1.6-0.9,3.2,0.4,5c1.1,1.6-0.8,3.4-1.4,5.1c-0.1-0.1-0.2-0.2-0.3-0.3c-0.1-0.4,0-1-0.2-1.1
		c-3.2-1.3-6.6-3.9-9.6-3.4c-3.3,0.6-6.3-0.3-9.5-0.2c-0.6,0-1.3-0.6-1.7-0.4c-5.6,3.5-10.4,0.5-15.4-1.9c-1.8-1.5-1.7-2.9-0.3-4.8
		C671.4,76.9,674.2,73.5,677.3,70.3z"/>
	<path class="st0" d="M543.1,98.5c0,0.8,0.1,1.6,0.1,2.3c-0.9,3.3,0.2,6.7,0,10c-0.1,0.9,0.5,1.4,1.2,1.6c0.6,9,1.2,17.9,1.6,26.9
		c0.8,16.8,1.9,33.5,3.6,50.2c0.5,4.7,0.8,9.5,0.8,14.4c-2.3-2.9-3.6-6.4-5-9.8c2.5,0.1,1.4-2,1.3-3c-0.5-8.2-1.2-16.4-1.7-24.5
		c-1.5-22-2.7-43.9-3.1-65.9C541.9,100.1,540.3,97.6,543.1,98.5z"/>
	<path class="st0" d="M670.1,499.2c-0.5-5.2,3.6-6.2,6.5-8c2.3-1.5,3.5-2.9,2.3-5.7l0,0c2.8,2.1,6.2,3.1,7.1,7.7
		c0.4,2.1,3.7,3,4.4,5.7c-0.1,1.7-0.9,3-1.8,4.2c-2.7,3.7-4.6,4.2-8.5,2.1c-1-0.5-1.9-1-2.8-1.6c-2.1-1.4-3.5-1.4-3.7,1.9
		c-0.1,2-0.4,4-0.9,6.1c-0.7-3.8,0.4-8-2.4-11.2c0.2-0.3,0.1-0.5-0.1-0.7l-0.2-0.2L670.1,499.2z"/>
	<path class="st0" d="M805.9,104c-1.2,2.6-3.5,2.2-5.6,2.3c-19.4,1-38.5-1.7-57.6-5c-7.5-1.3-15-3-22.2-5.5
		c-1.8-0.6-3.6-0.2-5.3-0.4c0-3.7,1.9-3.4,4.3-2.6c26.9,7.9,54.3,11.6,82.1,11.3C803.1,104.1,804.5,104,805.9,104z"/>
	<path class="st0" d="M469.1,101.7c3.7-0.1,3.7-0.1,4.7,5.2c3.4,17.6,8.1,34.9,10.8,52.7c0.2,1.3,1,2.8-0.1,3.6
		c-1,0.8-2.2-0.1-3.1-1.1c0.7-1.3,0.6-2.7,0.3-4.1c-3.5-17-6.9-34-10.3-50.9c-0.2-1-0.3-2.3-1.5-2.2
		C465.7,105,468.5,103,469.1,101.7z"/>
	<path class="st0" d="M802.3,349.5c0.8,0.8,1.7,0.8,2.7,0.6c0,0,0.2,0.1,0.2,0.1c0.3,0.2,0.6,0.3,0.9,0.5
		c11.1,3.3,21.8,7.3,32.1,13.1c9.4,5.3,18.2,11.2,25.4,19.6c1.3,1.5,2.3,3.3,3.5,4.9c-0.3,0.4-0.8,0.8-1.2,0.3
		c-9.9-13.7-23.7-21.2-37.8-28c-9-4.3-18.5-6.9-27.9-10c-1.3-0.4-3-0.2-3.6-2.1C798.6,347.9,800.4,349,802.3,349.5z"/>
	<path class="st0" d="M228.1,53.5c-3.1-1.3-4.8-4.5-7.4-6.6c-4-3.1-7.8-6.4-11.6-9.8c-1.1-1-2.2-0.7-3.4-0.6
		c-6.4,0.7-12.8,1.3-19.2,2.1c-1,0.1-1.9,0.5-2.6-0.5c1.5-2.1,3.8-2.6,6-3.1c6-1.2,12.1-1.1,18.2-0.8c1.2,0.1,2.4,0.4,3.4,1.1
		c5.4,4.1,10.5,8.6,15.4,13.4c0.9,0.9,2.1,1.9,1.7,3.6C228.5,52.7,228.3,53,228.1,53.5L228.1,53.5z"/>
	<path class="st0" d="M834.8,258.1c-2-4.3-5.8-6.8-8.6-10.2c-8.2-9.9-18.6-6.7-28.6-5.9c-1.1,0.1-2,0.8-2.5,2
		c-0.8-2.7,0.1-4.7,3.1-5.2c7.3-1.3,14.7-1.5,22,0.5c2.4,0.7,4.2,2.4,5.9,4.3c3.2,3.5,6.4,7.1,9.5,10.6
		C837.1,255.9,837.1,257.3,834.8,258.1z"/>
	<path class="st0" d="M756.1,190.9c-0.3-1.2-0.5-2.5-0.9-3.7c-0.5-1.4-2.1-3.2-1.2-4.2c1.1-1.4,3.1,0.1,4.7,0.3
		c7.2,0.7,14.4,1.4,21.6,2.2c1.6,0.2,2.7-0.8,3.9-1.6c0,3.6-4.6,3.9-4.6,8c1.1-5.8-2.3-5-5.2-5.2c-4.6-0.3-9.3-0.8-13.9-1.3
		c-2.9-0.3-5.1-0.1-4.1,4.1C756.5,189.9,756.2,190.4,756.1,190.9z"/>
	<path class="st0" d="M727.8,227c2.7,0,3.6,1.6,3.3,4.3c-0.5,4.5-0.5,9.1-5,11.8c-1.3,0.8-2.1,2.8-3.1,4.3
		c-3.8,5.4-3.8,5.4-0.1,10.5c-1.1,1.9-2,0.6-2.7-0.4c-1.4-1.7-3.2-3.5-1.7-6.1c1.3-2.3,2.7-4.7,4.5-6.5
		C727.9,239.9,727.7,233.4,727.8,227z M729.1,232.9c-0.1,0.3-0.2,0.6-0.3,1c0,0.4,0.2,0.8,0.6,0.6c0.2-0.1,0.4-0.6,0.4-0.9
		C729.9,233.1,729.6,232.9,729.1,232.9z"/>
	<path class="st0" d="M461.3,108.9c-1.6-4.4-1.2-9.1-1.5-13.7c-1-13,0-26,1.2-38.9c0.7-0.2,1.3-0.6,1.2,0.9
		c-0.8,7.4-1.8,14.9-2,22.3c-0.2,7.1,0.6,14.2,1,21.3C461.3,103.5,462.1,106.2,461.3,108.9z"/>
	<path class="st0" d="M664.4,46.1c-4.5,0.5-8.6-1.1-12.7-2.5c-4.9-1.7-9.8-3.6-14.6-5.5c2.1-1.2,4.4-2,6.5-1.1
		C650.6,39.8,657.5,43,664.4,46.1z"/>
	<path class="st0" d="M670.5,72.4c-3.2-7.2-5.4-14.8-7.8-22.4c-1-3.1,1-2,2.4-1.4c1.4,6.4,4.3,12.2,6.6,18.2
		C672.7,69.2,672.6,70.9,670.5,72.4z"/>
	<path class="st0" d="M107,344.1c-2.8-8.4-7.7-15.4-11.5-23.2c-2.5-5-5.6-9.6-6.9-15.2c1.7,1.1,2.1,3.1,3,4.7
		c5.4,10.7,11.6,20.8,16.6,31.8c0.4,0.9,1.2,1.8,0.3,2.7C108.1,345.2,107.3,344.7,107,344.1z"/>
	<path class="st0" d="M482.8,77.4c-3,0.5-5.2,2.1-6.8,5c-1.7,3.1-2.9,6.6-5.3,9.3c-0.7,0.8-0.7,1.8-0.1,2.9c1.5,2.9,0.7,5.2-1.5,7.2
		c0.9-1.7,0.5-3.2-0.6-4.6c-1.7-2.2-1.2-4.2,0.4-6.2c2-2.6,4.2-5,5.2-8.5C475.4,78.3,479.9,76.2,482.8,77.4z"/>
	<path class="st0" d="M136.1,201.7c4.5,8.4,9.1,16.5,11.7,25.6c0.3,1.2,1,3-0.3,3.5c-1.6,0.7-1.7-1.4-2.1-2.5
		c-3.2-7.7-6.2-15.5-9.2-23.2C135.8,204.1,136.1,202.9,136.1,201.7z"/>
	<path class="st0" d="M855.5,217.6c-1.2-1.1-1.4-2.6-1.3-4.2c0.5-6.3,0.9-12.6,1.4-18.9c0.9,0.3,0.9,1.5,1.9,1.3
		c0.6,6.4-1.4,12.9,0.2,19.3C857.9,216.4,857.1,217.7,855.5,217.6z"/>
	<path class="st0" d="M179,51.6c-2-0.7-3.4,0.1-5.1,1.4c-4.9,3.5-10.1,6.4-15.2,9.5c-0.5-1.3,0.7-1.4,1.3-1.9
		c5.2-4.5,10.7-8.5,16.7-11.5c0.6,0.3,1.1,0.7,1.7,1c0.2,0.2,0.4,0.5,0.7,0.7C179,51,179,51.3,179,51.6L179,51.6z"/>
	<path class="st0" d="M632.9,44.6c0.5,1.1,1.7,2.7-0.9,2.2c-3.3-0.7-6.5-1.8-9.7-2.6c-1.6-0.4-2.5-1.3-3.1-2.9
		C624,40.9,628.5,42.6,632.9,44.6z"/>
	<path class="st0" d="M724.6,259.6c2.1,1,3.6,2.9,5,4.7c2.4,3,4.6,3,7.1,0.2c-0.2,1.3,1.2,2.9-0.3,3.9c-1.2,0.8-2.5-0.3-3.7-0.4
		c-4.8-0.4-5.3-5.9-8.6-7.9C724.3,260,724.5,259.8,724.6,259.6z"/>
	<path class="st0" d="M822.4,104c-5.5-0.7-11-0.5-16.6,0c4.7-3.8,9.9-2.6,15.1-2C821.5,102.1,823,102.4,822.4,104z"/>
	<path class="st0" d="M615.6,45.1c0.5,1.2,0.9,2.4-0.5,3.4c-3.8,2.7-7.1,6.2-10.2,9.8c-0.9,1-2,1.4-3.3,1.2
		C606,54.4,610.6,49.5,615.6,45.1z"/>
	<path class="st0" d="M182.4,260.8c3.1,1.1,6.1,2.3,8.2,5.3c-4.9-0.8-9.2-3.3-13.5-5.5c-0.6-0.3-1.5-0.7-1.3-1.6
		c0.1-0.4,1.2-0.4,1.8-0.6c0,0,0-0.1,0-0.1C178.6,260.5,180.1,261.5,182.4,260.8z"/>
	<path class="st0" d="M514.9,99.3c-1.8-4-4-7.8-3.2-12.6c0.2-1.3-0.4-2.7-1.6-3.5c2.9-0.2,4.3,0.4,2.9,4.1c-1,2.5,0.5,5,0.9,7.5
		C514.2,96.4,515.2,97.7,514.9,99.3z"/>
	<path class="st0" d="M756.5,214.3c-1.8-1.5-0.5-3.4-0.5-5.1c-0.1-5-0.8-10.1,0.1-15.1C756.6,200.9,756.9,207.6,756.5,214.3z"/>
	<path class="st0" d="M664.3,262.1c0.5,1.1-0.1,2.5,0.9,3.3c0,5.2,0.1,10.3,0.1,15.5c-0.5-0.3-1-0.5-1.5-0.8
		C664,274.1,663,268.1,664.3,262.1z"/>
	<path class="st0" d="M100.8,140.8c2.4,1.6,2.2,4.3,2.9,6.5c0.2,0.5,0,1-0.7,1.1c-0.8,0.1-1.6-0.3-1.7-1
		C101,145.3,100,143.2,100.8,140.8z"/>
	<path class="st0" d="M508.6,82.9c-4.6-0.4-9.2-1.2-13.5-2.9C499.6,80.4,504.1,81.5,508.6,82.9z"/>
	<path class="st0" d="M51,281.7c0.6,0.1,1.3,0.1,2.7,0.3c-3,1.7-5,4.2-8.2,2.3C47.2,282.9,49.1,282.2,51,281.7z"/>
	<path class="st0" d="M204.3,273.2c0.4,0,0.8,0,1.2,0c0.3,3-0.8,6.4,2.2,8.7c-2.4,0.1-2.9-1.9-3.2-3.9
		C204.3,276.4,204.3,274.8,204.3,273.2z"/>
	<path class="st0" d="M617.7,478.4c0.5,0.2,1,0.4,1.5,0.6c-0.3,2.1-0.6,4.2-1,7.2C617.3,483.1,618.1,480.7,617.7,478.4z"/>
	<path class="st0" d="M462,116.5c-1.2-1.9-1-4-0.5-6.1C462.2,112.4,462.5,114.4,462,116.5z"/>
	<path class="st0" d="M178.4,50.1c-0.6-0.3-1.1-0.7-1.7-1c0.6-0.6-0.1-2.4,1.5-2c0.6,0.2,1.4,0.7,1.6,1.3
		C180.2,49.7,179.1,49.7,178.4,50.1z"/>
	<path class="st0" d="M785.7,182.1c0.4-1.8,1.6-3.1,2.7-4.4C788.6,180,787,181,785.7,182.1z"/>
	<path class="st0" d="M463.3,126.7c-0.9-2.3-1.3-4.6-1-7.1C463.4,121.8,463.4,124.2,463.3,126.7z"/>
	<path class="st0" d="M171.9,254.3c-0.9,1.1,0.7,1.3,0.6,2.5c-1.5,0-2.6-0.4-2.7-2.4l-0.1,0.1C170.4,254.4,171.2,255.2,171.9,254.3
		L171.9,254.3z"/>
	<path class="st0" d="M160.1,242.7l0.3,0c0,0,0,0.3,0,0.3c0,0.7,0,1.4,0,2.1l0.1-0.1c-1.7,0.1-2.1-1.3-2.5-2.6
		c-0.1-0.5,0.6-0.5,1.1-0.5c0,0-0.1-0.1-0.1-0.1C159.3,242.1,159.7,242.4,160.1,242.7z"/>
	<path class="st0" d="M169,253.6c-1.7,0.3-2.8-0.3-2.9-2.3l0,0.1c1.1-0.2,1.8,1.5,3,0.7c0,0,0,0,0,0C169,252.6,169,253.1,169,253.6
		L169,253.6z"/>
	<path class="st0" d="M493.6,79.8c-0.8,0.3-1.6,0.3-2.2-0.5C492.3,78.7,493,79.2,493.6,79.8z"/>
	<path class="st0" d="M159,62.4c-0.7,1.1-1.8,1.4-3,1.7C156.9,63.3,157.4,61.9,159,62.4z"/>
	<path class="st0" d="M486.4,78.2c-0.8,0.3-1.6,0.3-2.1-0.5C485.1,77.1,485.7,77.8,486.4,78.2z"/>
	<path class="st0" d="M490,79c-0.8,0.3-1.6,0.3-2.2-0.5C488.7,78,489.3,78.6,490,79z"/>
	<path class="st0" d="M736.9,264.3c0.1-0.7,0.5-1,1.1-1.2C737.6,263.6,737.2,264,736.9,264.3z"/>
	<path class="st0" d="M180.1,52.3c-0.3-0.2-0.7-0.5-1-0.7c0,0,0,0,0,0c0,0,0.4,0.1,0.4,0.1l0.4,0C179.8,51.9,180,52.1,180.1,52.3z"
		/>
	<path class="st0" d="M228.2,53.4c0.1-0.3,0.3-0.7,0.4-1C228.8,52.9,228.7,53.2,228.2,53.4z"/>
	<path class="st0" d="M806,350.6c-0.3-0.2-0.6-0.3-0.9-0.5C805.5,350.3,805.7,350.5,806,350.6z"/>
	<path class="st0" d="M156.1,64.1c-0.3,0.3-0.6,0.5-0.8,0.8C155.5,64.6,155.8,64.3,156.1,64.1z"/>
	<path class="st0" d="M162.5,247.4c-0.5,0.1-0.8-0.2-0.7-0.8c0,0-0.1,0.1-0.1,0.1C162,246.9,162.3,247.2,162.5,247.4L162.5,247.4z"
		/>
	<path class="st0" d="M169.7,254.4c-0.5,0-0.8-0.2-0.7-0.8c0,0-0.1,0.1-0.1,0.1C169.2,253.9,169.4,254.2,169.7,254.4L169.7,254.4z"
		/>
	<path class="st0" d="M165.4,250.5c-0.5,0-0.8-0.2-0.7-0.8c0,0-0.1,0.1-0.1,0.1C165.1,249.8,165.4,250,165.4,250.5L165.4,250.5z"/>
	<path class="st0" d="M163.3,248.1c-0.5,0.1-0.8-0.2-0.7-0.8c0,0-0.1,0.1-0.1,0.1C162.7,247.7,163,247.9,163.3,248.1L163.3,248.1z"
		/>
	<path class="st0" d="M156.8,240.3c0.1,0.1,0.2,0.1,0.3,0.2c0,0,0,0.2,0,0.3C157,240.6,156.9,240.4,156.8,240.3L156.8,240.3z"/>
	<path class="st0" d="M164.7,249.7c-0.5,0.1-0.8-0.2-0.7-0.8c0,0-0.1,0.1-0.1,0.1C164.2,249.2,164.4,249.5,164.7,249.7L164.7,249.7z
		"/>
	<path class="st0" d="M161.8,246.6c-0.6,0.1-0.8-0.2-0.7-0.8c0,0-0.1,0.1-0.1,0.1C161.5,245.9,161.7,246.2,161.8,246.6L161.8,246.6z
		"/>
	<path class="st0" d="M164,248.9c-0.5,0.1-0.8-0.2-0.7-0.8c0,0-0.1,0.1-0.1,0.1C163.5,248.5,163.7,248.7,164,248.9L164,248.9z"/>
	<path class="st0" d="M161.1,245.8c-0.6,0.1-0.8-0.2-0.7-0.8c0,0-0.1,0.1-0.1,0.1C160.8,245.1,161,245.3,161.1,245.8L161.1,245.8z"
		/>
	<path class="st0" d="M166.1,251.3c-0.5,0-0.8-0.2-0.7-0.8c0,0,0,0.1,0,0.1C165.8,250.6,166.1,250.8,166.1,251.3L166.1,251.3z"/>
	<path class="st0" d="M156.8,240.3c-0.1-0.1-0.3-0.2-0.4-0.2c0.1,0,0.2,0,0.2,0C156.7,240.1,156.7,240.2,156.8,240.3
		C156.8,240.3,156.8,240.3,156.8,240.3z"/>
	<path class="st0" d="M650.3,146.1c0.4,0.2,0.9,0.4,0.4,1c-0.4,0.5-0.7,0.2-1-0.2C649.9,146.7,650.1,146.4,650.3,146.1z"/>
	<path class="st0" d="M464,131.5c-0.1-0.2-0.2-0.3-0.3-0.5c0,0,0.1-0.1,0.2-0.2c0.1,0.2,0.1,0.3,0.2,0.5
		C464.1,131.3,464,131.4,464,131.5z"/>
	<path class="st0" d="M463.6,129.1c-0.1-0.2-0.2-0.3-0.3-0.5c0-0.1,0.1-0.2,0.1-0.3c0.1,0.2,0.2,0.3,0.3,0.5
		C463.8,128.9,463.7,129,463.6,129.1z"/>
	<path class="st0" d="M179.7,51.6l-0.4,0c0,0-0.4-0.1-0.4-0.1c0-0.3,0-0.6,0-0.9C179.5,50.8,179.7,51.1,179.7,51.6z"/>
	<path class="st0" d="M670.2,499.6c0.2,0.2,0.3,0.4,0.1,0.7C670.2,500,670.1,499.8,670.2,499.6z"/>
	<path class="st0" d="M548.9,381c1.7-0.9,0.7-2.3,0.4-3.4c-4.4-17-9.3-33.9-12.7-51.2c-4-20.3-6.7-40.6-5.9-61.6
		c0.2-5.9,1.9-10.4,4.2-15c1.1-2.2,2.3-4.8,4.7-6c2.2-1.2,0.5-2.7,0-3.9c-2.6-5.7-5.3-11.4-8-17c-9.1-18.6-17.8-37.5-25.7-56.7
		c-0.6-1.5-0.9-3.7-3.1-3.7c-2.9-4.6-2.4-10.1-2.8-15.4c2.3,5.1,4.6,10.1,6.8,15.2c10.2,24.6,21.5,48.5,33.1,72.4
		c0.7,1.5,1.6,2.9,2.2,4.5c1.5,4,4,6.4,7.9,7.1c2.7,0.5,4,2.4,4.9,5.7c-3.7-1.8-7-3.5-10.2-5.1c-3.4-1.7-6.2-0.8-7.5,2.8
		c-0.6,1.8-1.5,3.2-2.5,4.6c-1.5,2-2.4,3.9-1,6.7c1.1,2.1-0.2,4.6-0.3,6.9c-0.4,16.2,1,32.3,3.9,48.2c4.7,24.8,10.8,49.1,18.6,72.9
		c0.4,1.1,0.9,2.1,0.2,3.7C553.5,388.7,551.2,384.9,548.9,381z"/>
	<path class="st0" d="M282.6,162.8c0.7,2.2,1.7,3.7,4,1.7c0.4-0.4,1.1-0.5,1.7-0.7c5.6-1.8,5.6-1.8,4-8.1c-1.2-4.6-2.3-9.3-4.4-13.6
		c-0.3-0.5-0.5-1.2-0.5-1.8c0-2.3,6.4-11.2,8.5-11.7c5-1.3,10-2.3,15-3.8c5.4-1.6,9.4,1.3,12.9,4.7c2.2,2.2-0.6,4-1.7,5.8
		c-0.3-0.5-0.6-1.1-0.8-1.6c-0.6-1.5,2.1-3,0-4.5c-2.2-1.5-4.4-3.4-7.1-3.2c-6.3,0.5-12.4,2.2-18.4,4.2c-2.3,0.8-1.9,4.4-3.8,5.9
		c-2.3,1.9-1.7,4.1-1,6.6c1.8,5.7,3.4,11.4,4.9,17.2c0.7,2.6,1,4.6-2.9,4.7c-7.6,0.2-7.7,1-4.5,8.1c2.3,5.2,5,10.4,6.5,16
		c0.6,2.2,3.7,3,2.9,6.3c1.1-1.9,0.2-4.5,2.3-6.1c1.8,4.1,1.7,8.6,2.2,12.8c1.5,11.2,2.6,22.4,4,33.6c0.3,2.2,0.5,4.4,0.3,6.6
		c-1.6,1-2.4,1-2.6-1.6c-1.3-13.6-2.8-27.2-4.3-40.8c-0.1-1.2,0.3-3.2-1.4-3c-2.1,0.1-0.9,2.2-1,3.4c-0.2,1.8,0,3.6-0.5,5.6
		c1-13.2-7.5-22.1-12-32.8c-1.1,9.7,0.8,19.1,0.8,28.5c-1.9-1.5-1.1-3.8-1.3-5.7C283.3,184.6,281.9,173.7,282.6,162.8z M284.2,171.6
		c0,0.1-0.1,0.2-0.1,0.2c0.1,0,0.3,0,0.4,0c0-0.1,0-0.2-0.1-0.2C284.3,171.6,284.2,171.7,284.2,171.6z"/>
	<path class="st0" d="M384.4,205.4c1.4-3.3,2.9-6.5,4.2-9.8c0.8-1.8,0.2-3-1.7-2.4c-2.1,0.7-4.5-0.1-6.1,2.4
		c-0.8,1.2-5.1-1.1-5.8-3.2c-1-2.9-1.8-5.9-2.7-8.9c-0.6-2,0.1-3.4,1.3-4.9c2.8-3.4,5.4-6.9,7.4-10.9c0.2-0.3,0.5-0.6,0.4-0.8
		c-0.2-0.6-0.7-0.4-1-0.1c-10.3,3.5-20.6,7.5-30.7,11.8c-0.8,0.3-2,0.6-1.5,2.1c-0.4,0.1-0.7,0.1-1.1,0.2c-1.3,0.2-3,0.4-3.4-1.2
		c-0.4-1.9,1.5-2.1,2.6-2.5c8.8-3.3,17.6-6.5,26.4-9.9c9.9-4,19.3-9.1,27.2-17c2.2-2.2,4.5-4.2,5.9-7.3c0.4-0.8,0.9-1.5,2.3-1.1
		c-1.5,7.7-3.6,15.3-6.8,22.3c-1.7,3.6-5.8,2.1-9.1,1.3c0.9-0.2,1.9-0.8,2.7-0.7c3,0.4,4.3-1.1,5-4c0.3-1.5,1.1-2.9,1.5-4.4
		c0.3-0.9,1-2.1,0.2-2.9c-0.9-0.8-1.7,0.3-2.4,0.9c-3.5,2.8-7.2,5.5-11.1,7.8c-1,0.6-2.2,1.2-1.9,2.9c-1.5,0.5-2.7,1.5-3.6,3
		c-1.5,2.6-3.3,5.1-5,7.6c-3.6,5.3-3.7,10.1-0.4,15.6c0.7,1.2,1.5,0.9,2.4,0.7c3.3-0.6,6.6-1.2,9.9-1.2c2.1,0,2.9,0.3,1.9,2.8
		c-1.6,4.1-2.9,8.2-4.4,12.3c-0.4,0.9-0.3,2.8-1.8,2.4C384.3,208.1,384.2,206.6,384.4,205.4z"/>
	<path class="st0" d="M417.1,266.3c-0.5-1.4-1.4-2.4-2.5-3.3c-26.1-22.9-53.6-43.2-83.6-59.5c-1.6-0.8-3.3-2.3-4.2,0.8
		c-0.9-1.3-2-2.6-2.7-4c-0.4-0.7-0.4-1.9,0.2-2.6c0.7-0.7,1.3,0.1,1.9,0.4c33.6,17.5,64.1,40.1,93,65.7c1.3,1.2,3,2.2,3.7,4.6
		C420.7,268.1,418.8,267.8,417.1,266.3z"/>
	<path class="st0" d="M474.3,250.5c-4.8-0.4-9.7-0.7-13.7-4.4c-1.1-1-2-1.9-1.1-3.1c1.5-2.2,0.7-4.3,0.3-6.4
		c-2.8-14.2-5.5-28.5-9-42.5c-0.6-2.5-1.6-3.9-4-4c-9.4-0.4-18.8,0.6-28.2,1.7c-0.9,0.1-1.7,0.8-2.5,1.3c-0.6-0.8-1.2-1.6-2-2.5
		c4-2.1,8.3-1.4,12.3-1.8c7.1-0.8,14.3-1.3,21.5-1.1c2.7,0.1,4.1,1,4.8,3.9c3.8,15.9,8,31.8,9.9,48c0.8,6.3,3.6,6.9,7.4,8.4
		C471.4,248.6,473.7,247.8,474.3,250.5z"/>
	<path class="st0" d="M482.9,372.6c0.5-7.5-1.2-14.7-2.1-22c-1.8-14.1-3.8-28.3-7.2-42.1c-1.3-5.2-0.9-10.5-2-15.6
		c-0.2-0.9,0.2-3.8-2-1.4c-0.1-1.8-0.2-3.6-0.3-5.3c0.8-0.8,0.1-1.3-0.3-1.9c-1.3-2.2-1.4-4.6-0.2-6.9c1.8-3.4,3.8-6.7,6.5-9.4
		c0.3,3.1-1.8,4.9-3.1,7.1c-1.4,2.4-2.8,4-1.1,7.5c1.8,3.6,1.5,8.3,2.4,12.5c3.7,18.3,7.5,36.5,9.8,55.1c0.8,6.7,1.7,13.4,2.4,20.1
		C485.8,372.2,486,374.6,482.9,372.6z"/>
	<path class="st0" d="M325.6,330.5c0.7-1.1,0.4-2.3,0.1-3.4c-2.5-11.2-5.1-22.4-8.5-33.4c-0.4-1.4-0.2-3.7-2.6-3.5
		c0.5-3.3-1.7-3.8-3.9-4.1c-1.3-0.2-2.6,0-3.8,0c-1.1-5.8-3.9-10.8-6-16.1c-1.4-3.6-3-7.1-4.9-10.4c-1.8-3.3-2.2-6.2,0.8-8.9
		c0.5-0.5,0.8-1.2,1.1-1.9c-2.7,4.6-0.2,8.4,1.5,12.3c2.9,6.8,5.8,13.7,8.6,20.6c0.4,0.9,0.8,1.5,1.8,1.7c0.9,0.2,1.9,0.5,2.8,0.6
		c2.8,0.4,4.8,0.6,5.9,4.8c3.3,13,6.6,26,9.5,39.1c0.1,0.5,0.3,1,0.3,1.5c0,1,0.5,2.4-0.4,2.8C326.8,332.8,326.1,331.6,325.6,330.5z
		"/>
	<path class="st0" d="M404.5,410.2c1.9-4.5,1.8-9.4,2.1-14.1c0.7-10.8,1.1-21.5,1-32.3c0-2.8-0.9-3.7-3.4-3.4
		c-4.1,0.6-8.3,0.8-12.4,1.8c-1.9,0.5-2.4,3.2-2.8,5.3c-0.2,1.5-0.2,3-0.3,4.5c-0.3,0-0.6,0-0.9,0c0-1.6,0-3.1,0-4.7
		c0-0.9,0.3-2.1-0.5-2.5c-4.6-2-2.6-6.4-3.1-9.9c1.5,1.6,1.3,3.8,1.7,5.8c0.4,1.9,1.8,3.3,2.9,2.3c3.2-3.1,7.2-2.2,10.8-3.2
		c1.1-0.3,2.4-0.3,3.5-0.4c6.4-0.6,6.3-0.6,6.4,6.2c0.3,13-0.5,26-1.5,38.9c-0.2,1.9-0.5,3.9-1.2,5.7
		C406.7,410.8,405.6,413.4,404.5,410.2z"/>
	<path class="st0" d="M232.8,301.3c0.1-0.1,0.2-0.3,0.3-0.3c1.7,0,2.9,3.3,4,1.9c1.3-1.6-0.7-3.7-1.3-5.6c-0.5-1.5-1.1-2.9-1.6-4.3
		c-1.7-4.5,0.4-10.7,4.4-13.6c0,0.1,0,0.3,0,0.4c-4.7,5.9-3.4,11.9-0.4,18c0.8,1.6,1.5,3.3,2,5c1.2,4.3,3.1,7.2,7.8,6.3
		c2.3-0.4,2.6,1.8,3.1,3.5c1.9,6.7,3,13.6,3,20.7c-1.4-3.8-2.9-7.6-4.5-11.2c1.6-1,0.2-2.3,0.2-3.4c-0.2-2.8-2-5.5-0.8-8.5
		c-2.7-0.7-4.7,0.5-6.8,2.1C238.7,308.9,235.7,305.2,232.8,301.3z"/>
	<path class="st0" d="M491.3,233.4c-1.7-0.4-3,2.1-4.8,0.6c-0.6-1.3-1.5-2.5-0.8-4.1c0-1.2,0.2-2.3,0-3.5
		c-1.5-11.1-3.2-22.3-4.7-33.4c-0.2-1.7-0.4-3-2.5-2.8c-1.9,0.2-3.3,0.7-3,3.2c-1.2-1.4-2.7-2.5-3.3-4.7c3.2-1.3,6.4-0.5,9.6-0.5
		c1.6,0,1.1,1.4,1.3,2.3c1.7,11.3,3.2,22.6,5,33.9C488.5,227.4,487.6,231.4,491.3,233.4z"/>
	<path class="st0" d="M249.3,179c4.2,0.9,4,0.9,3.6-4.1c-0.9-12.2-1.9-24.4-3.2-36.6c-0.4-3.4-0.9-6.7-1.9-9.9
		c1.2,0.2,3.8,3.7,4,5.6c1.2,13.8,2.4,27.7,3.5,41.5c0.2,2.9,1.2,5.8,0.3,9.2C253.5,182.5,250.9,181.4,249.3,179z"/>
	<path class="st0" d="M650.8,240.4c-1-0.4-0.9,2.1-2,0.9c-0.9-1-0.7-2.1,0.3-3c7.9-7.1,6.8-17.8,9.2-27.1c0.1-0.5,0-1-0.9-1.4
		c-2,3.4-4.1,7-6.2,10.5c-0.8,1.3-1.5,2.8-3.2,2.7c5.1-9.1,10.2-18.3,13.9-29.4c1,2.8,0.6,4.7,0.4,6.5c-0.9,6.3-2,12.5-3,18.8
		C658.1,226.9,655.4,234.1,650.8,240.4z"/>
	<path class="st0" d="M160.3,148.8c7,1.7,14,3.3,21.1,5c6,1.4,6,1.4,5-5.2c-0.1-1-0.1-2.1-0.2-3.1c0.5,0,0.9,0,1.4,0.1
		c0.3,9.8,0.3,9.7,8.8,11.7c15.2,3.5,30.1,8.5,44.2,15.8c1.2,0.6,2.7,0.8,3.2,2.5c-6.7-2.6-13.1-6.2-19.9-8.7
		c-16.8-6.2-34.4-8.8-51.4-14C168.5,151.5,164.2,151,160.3,148.8z"/>
	<path class="st0" d="M519.4,374.2c-0.2,2.1-0.7,1.8-1.5,0.3c-3.1-5.5-6.3-11-9.4-16.5c-1.7-3.1-3.3-6.3-5.1-9.4
		c-0.5-0.8-0.7-2.3-1.9-1.9c-1.1,0.4-0.5,1.7-0.6,2.7c-0.1,0.5-0.2,1-0.3,1.5c-2.4-5.1-2.4-10.7-3.5-16.1c-0.2-1.2-0.9-2.4-0.2-4.3
		c2.3,4.4,4.4,8.4,6.5,12.4c5.3,10.3,10.6,20.6,15.9,30.8c-0.1,0.1-0.2,0.2-0.3,0.2C519.2,374,519.3,374.2,519.4,374.2L519.4,374.2z
		 M500.9,345.8c0.1,0.1,0.2,0.2,0.2,0.2c0.1,0,0.2-0.2,0.2-0.2c-0.1-0.1-0.2-0.2-0.4-0.3C501,345.6,501,345.7,500.9,345.8z"/>
	<path class="st0" d="M475.5,193.3c-0.2-2.5,1.1-3,3-3.2c2-0.2,2.2,1.1,2.5,2.8c1.5,11.2,3.2,22.3,4.7,33.4c0.2,1.1,0,2.3,0,3.5
		c-1-0.8-1.2-2-1.6-3.3C480.8,215.6,478.1,204.4,475.5,193.3z"/>
	<path class="st0" d="M330.5,373.3c2.4-4.2,0.7-8.6,0-12.8c-0.3-1.9-4-0.8-5.5,1.7c-0.5-0.7,0.9,1.6-1.2,0.7
		c-7.2-3.2-5.7-10.9-8.8-16.1c-0.4-0.6-0.5-1.5-0.6-2.2c-0.2-2-2.9-3.6-1.6-5.7c1.7-2.6,3.4-5.6,6.3-6.9c0,1.3-0.6,2.4-1.4,3.1
		c-3.9,3.1-3.3,6.5-1.5,10.6c1.7,3.8,2.7,8,4.2,12c1,2.7,2.6,4,5.1,1.5c1.7-1.8,4-1.3,6.1-1.8c1.2-0.3,1,1.2,1.1,2
		c0.4,3.5,0.8,7,1.3,10.4C334.7,373.3,333.5,374.3,330.5,373.3z"/>
	<path class="st0" d="M324.7,156.4c10.8-4.1,21.6-8.4,31.7-14.4c5.4-3.2,10.7-6.5,14.6-11.7c0.8-1.1,1.6-0.9,2.5-0.7
		c0.2,2.4-1.5,3.7-2.9,5c-5.6,5.4-12.2,8.9-19,12c-7.9,3.6-15.6,7.8-23.9,10.1c-0.9,0.2-1.9,0.4-2.8,0.6l0,0
		C324.8,157,324.7,156.7,324.7,156.4z"/>
	<path class="st0" d="M583.3,239.5c0,0.7,0,1.5,0,2.4c-2.9-2.1-5.2-4.6-7.1-7.7c-0.5-0.8-0.8-2.5-2.3-1.1
		c-2.6-7.1-3.8-14.7-4.9-22.2c-0.6-3.6-1.5-7.3-0.4-12C571,214.2,573.5,228.5,583.3,239.5z"/>
	<path class="st0" d="M252,96.8c31.4-5.5,62.9-8.5,94.7-7.1C314.9,89.1,283.4,92.7,252,96.8z"/>
	<path class="st0" d="M600.8,338.9c7.2,2.3,14.4,4.6,21.5,6.9c5.1,1.6,5.1,1.6,4.7-4.3c0.7-0.3,1.5-0.6,2.2-0.9
		c0.3,0.9,0.2,1.7-0.5,2.4c-1.1,1-0.9,2-0.2,3.1c0.2,0.8,0.4,1.5,0.6,2.3c-2.1,1.1-3.9-1.8-6.6,0.1c5.4,2.2,10.4,4.2,15.4,6.3l0,0
		c-0.7-0.1-1.5,0-2.1-0.2c-10.4-4.7-21.6-6.6-32.2-10.8c-1.6-0.6-3-1.5-4.5-2.3l0,0c7.1,2.2,14.1,5.3,21.6,6.5c0.1-2-1.1-1.8-1.9-2
		c-5-1.7-10-3.4-15-5.1C602.7,340.4,601.4,340.2,600.8,338.9z"/>
	<path class="st0" d="M441.7,281.1c-1.4-1.4-3.1-0.9-4.7-0.8c-4.4,0.4-8.7,0.7-13.1,1.2c-1.1,0.1-2.6-0.3-2.5,1.8
		c-4.1,0-7.8-2-12.6-2.4c3.8-1.6,7-1.6,10.1-1.8c6.3-0.5,12.6-0.8,18.9-1.1C439.7,277.9,441.8,278.1,441.7,281.1z"/>
	<path class="st0" d="M664.3,262.1c-1.3,6-0.3,12-0.5,18c-2.8,0.5-3.7-0.8-3.6-3.8c0-6.3-0.3-12.6,1.2-19.3c1,1.6-0.1,3.3,0.8,4.5
		c1.9-1.1,0.1-3.6,1.8-4.8C664.9,258.5,664.1,260.3,664.3,262.1z"/>
	<path class="st0" d="M207.9,154.8c-4.2,0-8.3-1.6-12.6-1.6c-2.2,0-4.2-2.8-5-5.6c-0.4-1.3-0.5-2.5-2-2.7c0.4-1.6,1.2-3.3,2.8-3
		c1.5,0.2,0.9,2.2,1,3.3c0,2.3,1,3.4,3,4.1c5.1,1.7,10.3,2.3,15.5,3.1c-0.2,0.3-0.4,0.6-0.6,0.9C209,153.6,208.3,154,207.9,154.8z"
		/>
	<path class="st0" d="M386.3,165.2c-0.2-1.7,0.9-2.3,1.9-2.9c3.9-2.3,7.5-4.9,11.1-7.8c0.7-0.6,1.5-1.7,2.4-0.9
		c0.9,0.8,0.1,2-0.2,2.9c-0.4,1.5-1.2,2.9-1.5,4.4c-0.7,2.9-2.1,4.5-5,4c-0.9-0.1-1.8,0.4-2.7,0.7
		C390.3,164.7,388.3,165.3,386.3,165.2z"/>
	<path class="st0" d="M238.6,279.4c0.8-1.7,1.9-1,3-0.7c19.6,6.7,39.7,8.2,60.1,7.9c1.3,0,2.3-1.5,3.6-0.5c-0.4,1.4-1.5,1.1-2.4,1.1
		c-20.6,0.4-41-1-60.8-7.4C240.9,279.5,239.8,279.2,238.6,279.4z"/>
	<path class="st0" d="M406.2,336.8c0.9-6.4-0.7-12.6-1.1-18.9c-0.2-2.3-0.3-4.6-0.5-6.9c1.6-0.4,2.1,0.6,2.3,2.1
		c0.7,7.5,1.4,14.9,2.1,22.4C409.2,338.8,407.9,338.2,406.2,336.8z"/>
	<path class="st0" d="M228.8,132.4c0.2,1.8-0.2,3.2-2.1,3.3c-2.5,0.2-3,2-3.1,4.3c-0.3,5.8-1.1,11.7-0.7,18.6c-1.9-4.4-1-8-0.9-11.5
		c0.1-2.7,0.4-5.5,0.6-8.2c0.1-1.7,0.3-3.4-2.2-3.4c-1.3,0-1.7-2.7-3.5-2.4c0.7-2.1,1.5-3,3.5-1C223,134.7,226,132.5,228.8,132.4z"
		/>
	<path class="st0" d="M602.8,194.6c-5.6-0.2-7.3-4.4-8.6-9.4c-0.5-1.9,0-4.9-3-5.2c-0.3-1.6-0.5-3.3,1.3-3.8
		c1.9-0.5,1.9,1.5,2.4,2.7c0.9,2.6,1.6,5.2,2.5,7.7c1,2.7,1.4,6.1,5,6.6C602.6,193.2,602.7,194.1,602.8,194.6z"/>
	<path class="st0" d="M261.1,250.9c-1.5-3.5-3.1-6.9-1.7-11c0.3-1-0.4-1.3-1.2-1l0.1,0.1c0.2-1.9,0.4-3.8,0.5-5.7
		c0,0-0.1,0.1-0.1,0.1c0.5-0.2,0.8-0.4,0.1-0.8c0.5-1.9,1-3.9,1.6-6.1C262,229.2,262.4,244.7,261.1,250.9z"/>
	<path class="st0" d="M633.7,409.6c2.3-2.7,4.6-5.5,6.9-8.2c3.2-3.6,5.6-7.7,7.4-12.3c0,0-0.1,0-0.1,0c-0.2,1-0.4,1.9,0.7,2.4
		c0.2,0.7,0.1,1.2-0.5,1.6c0,0.3-1.2-0.1-0.3,0.7c-2.3,6.5-6.9,10.8-11.5,15.1C635.6,409.5,634.7,409.8,633.7,409.6z"/>
	<path class="st0" d="M658.8,310.8c-3.4,0.6-4.6-1.3-5.1-4.7c-0.8-4.5-2.1-8.9-3.2-13.3c2.3,0.9,2.6,3.3,3.6,5.4
		C655.8,302.3,655.8,307.2,658.8,310.8z"/>
	<path class="st0" d="M242.1,312.3c2-1.6,4.1-2.8,6.8-2.1c-1.3,3.1,0.6,5.7,0.8,8.5c0.1,1.1,1.5,2.4-0.2,3.4
		C247.4,318.5,244.9,315.2,242.1,312.3z"/>
	<path class="st0" d="M314.9,305.3c1.1,0.8,0.8,1.7,0.2,2.6c-1.6,2.7-2.4,5.9-4.5,8.3c-1.4,1.7-0.7,3.7-0.8,5.6
		c-0.1,2.7,0,5.4-0.4,8.1c-1.5-4.4-0.6-9.1-1.5-13.8c-1.6,0.9-0.6,2.7-1.6,3.5c-0.2-2.3-0.4-4.3,2.8-4.3c1.5,0,2.4-2,3.1-3.5
		C313.1,309.7,314,307.5,314.9,305.3z"/>
	<path class="st0" d="M654.2,365.1c1.3,1.4,1.9-0.3,2.6-0.8c2.6-1.5,5.4-2.3,8.3-2.5c-0.2,1.7,1.3,3.1,0.5,4.9c-0.3,0-0.5,0-0.8,0
		c0,0,0,0,0,0c-2.7-3.3-8.5-4.2-10.6-1.8L654.2,365.1z"/>
	<path class="st0" d="M282.6,139.3c0.5,6,0.6,11.9-0.2,17.9C281.5,151.2,281.1,145.3,282.6,139.3z"/>
	<path class="st0" d="M721.7,322.9c-2.5-0.6-0.6-6.3-5.3-4.3c1.1-1.9,2.8-0.8,3.3-2.3c3-0.7,4.4,0.1,2.8,3.6
		C722.1,320.9,722,321.9,721.7,322.9z"/>
	<path class="st0" d="M665.6,366.7c0.8-1.7-0.7-3.2-0.5-4.9c1.7-1.5,2.9-2,3.2,1.2c0.2,2.3,0.5,4.6,0.7,6.9
		C666.9,369.9,666.8,367.7,665.6,366.7z"/>
	<path class="st0" d="M232.2,100.2c5.5-2.1,11.2-2.5,17-2.9C243.5,98.7,238,100.2,232.2,100.2C232.2,100.1,232.2,100.2,232.2,100.2z
		"/>
	<path class="st0" d="M166.1,251.3c0-0.5-0.2-0.8-0.7-0.8c0-0.5-0.3-0.7-0.7-0.8c-0.2-0.3-0.5-0.5-0.7-0.8c-0.2-0.3-0.5-0.5-0.7-0.8
		c-0.2-0.3-0.5-0.5-0.7-0.8c-0.2-0.3-0.5-0.5-0.7-0.8c0-0.5-0.3-0.8-0.7-0.8c0-0.5-0.2-0.8-0.7-0.8c0-0.7,0-1.4,0-2.1
		c2.9,3,5.8,6,8.7,9C167.8,252.8,167.2,251.1,166.1,251.3z"/>
	<path class="st0" d="M617.6,451.3c0.1,2.4,0.3,4.8,0.4,7.1c0,0.7,0.3,1.7-0.7,1.9c-1.1,0.2-1.3-0.8-1.5-1.7
		C615.3,455.9,616.4,453.6,617.6,451.3z"/>
	<path class="st0" d="M655.1,474.5c4.4,0.5,8.5,1.9,12.1,4.7C663.2,477.7,659.1,476.1,655.1,474.5z"/>
	<path class="st0" d="M694.7,337.4c4.8-1,9.8-0.5,14.6-2.2c0.6-0.2,1.4-0.3,1.8,0.6C705.8,337.7,700.3,337.4,694.7,337.4z"/>
	<ellipse class="st0" cx="722.2" cy="164.8" rx="13" ry="0.2"/>
	<path class="st0" d="M354.1,433c1.6,1.7,2,3.4,1.8,5.5c-0.1,1.4-0.7,1.8-1.8,1.8c-1.4-0.1-1-1.1-0.8-2
		C353.8,436.7,353.1,434.9,354.1,433z"/>
	<path class="st0" d="M544.4,112.4c-0.8-0.2-1.3-0.7-1.2-1.6c0.3-3.3-0.9-6.7,0-10c1,1.5,0.3,3.2,0.7,4.8c-0.4,1-0.5,1.9,0.2,2.8
		C544.2,109.8,544.3,111.1,544.4,112.4z"/>
	<path class="st0" d="M504.5,233.6c-1.5,1.2-3.2,0.7-4.8,0.7c-2.7-0.1-5.6-0.7-4.5,5.3c-1.1-2.8-1.8-4.4-2.5-6
		C496.7,233.3,500.6,233,504.5,233.6z"/>
	<path class="st0" d="M179,156.6c-4.3-0.1-8.4-0.9-12.3-3.1c0,0,0.1-0.1,0.1-0.1C171,154,175.2,154.7,179,156.6L179,156.6z"/>
	<path class="st0" d="M380.9,354.7c-0.5,3.1,0.3,6.3-1.4,9.3c0-2.6,0-5.2,0-7.9C380,355.7,380.4,355.2,380.9,354.7z"/>
	<path class="st0" d="M207.7,282c3,0.5,5.4,2.1,7.2,4.8C212.2,285.7,209.8,284.1,207.7,282z"/>
	<path class="st0" d="M613.5,447.8c-1.5,0.3-2.9-0.5-4.4-0.8c-0.6-0.1-1.5-0.3-1.5-1.1c0-0.6,1.4-0.1,1.4-1.1
		C610.9,445.3,612.3,446.4,613.5,447.8z"/>
	<path class="st0" d="M635.9,350.9c2.7,0.5,5.1,1.5,7.3,3.3C640.5,353.7,637.8,353.4,635.9,350.9z"/>
	<path class="st0" d="M675.5,483.3c-2.1-1.1-4.2-2.1-6.3-3.2C672,479.9,674.1,481.3,675.5,483.3z"/>
	<path class="st0" d="M217.1,288.4c2.4,0,3.8,1.5,4.8,3.7C219.9,291.4,218.4,290.1,217.1,288.4z"/>
	<path class="st0" d="M665.2,312.5c-1.8,0.5-3.3,0-4.7-1.2C662.4,310.1,664.4,308.6,665.2,312.5z"/>
	<path class="st0" d="M757.3,329.5c0.1,0.8,0.3,1.7,0.4,2.5c-0.3,0.9-0.6,1.7-1.1,2.8C755.3,332.6,755.5,330.9,757.3,329.5z"/>
	<path class="st0" d="M655.9,159.7c2.2-1.5,4.2-0.7,6.2,0.6C660,160.1,657.9,159.9,655.9,159.7L655.9,159.7z"/>
	<path class="st0" d="M285.8,202.9c0.8,1.4,0.9,3,0.6,4.6C284.8,206.2,285.2,204.5,285.8,202.9z"/>
	<path class="st0" d="M182.4,260.8c-2.3,0.7-3.8-0.3-4.8-2.5C179.2,259.1,180.8,260,182.4,260.8z"/>
	<path class="st0" d="M227.9,297c1.8,0.2,3,1.1,3.4,3.1C229.8,299.6,228.7,298.4,227.9,297z"/>
	<path class="st0" d="M179,156.5c1.7-0.1,3.3,0.1,5.6,1.5C182,158.2,180.4,158.1,179,156.5C179,156.6,179,156.5,179,156.5z"/>
	<path class="st0" d="M115.6,259.4c1.8,0,3.6,0,5.5,0c0,0.1,0,0.2,0,0.3c-1.8,0-3.6,0-5.4,0C115.7,259.6,115.7,259.5,115.6,259.4z"
		/>
	<path class="st0" d="M286.6,209.2c0.6,1.2,0.8,2.4,0.5,3.7C285.6,211.9,286,210.5,286.6,209.2z"/>
	<path class="st0" d="M637.9,354.7c1.5,0.2,2.9,0.9,4.1,2C640.5,356.4,638.9,356.3,637.9,354.7C637.9,354.7,637.9,354.7,637.9,354.7
		z"/>
	<path class="st0" d="M245.7,176.6c1.6-0.2,2.7,0.4,3.1,2.1C247.5,178.5,246.3,178.1,245.7,176.6z"/>
	<path class="st0" d="M299.6,246.7c0.3-1.1,0.8-2,2-2c0,0,0.1,0.6,0.1,0.9C301.2,246.4,300.5,246.9,299.6,246.7z"/>
	<path class="st0" d="M222.2,292.3c1.4-0.1,2.4,0.4,2.6,2C223.6,294.2,222.7,293.4,222.2,292.3z"/>
	<path class="st0" d="M128.5,260.2c-1.4,0.4-2.6,0.8-4.1,0C126,260.2,127.2,260.2,128.5,260.2z"/>
	<path class="st0" d="M225.1,294.6c1.5-0.2,2.3,0.5,2.6,2.1C226.4,296.6,225.6,295.8,225.1,294.6z"/>
	<path class="st0" d="M169.7,254.5c-0.2-0.3-0.5-0.5-0.7-0.8c0-0.6,0-1.1,0.1-1.7c1,0.8,1.9,1.6,2.9,2.4
		C171.2,255.2,170.4,254.4,169.7,254.5z"/>
	<path class="st0" d="M501.2,353.3c0.5,1,1,1.9,0.2,3C500.4,355.4,500.3,354.4,501.2,353.3z"/>
	<path class="st0" d="M216.5,133.6c0.2,1-0.4,1.7-0.7,2.6C214.6,134.9,215.5,134.2,216.5,133.6z"/>
	<path class="st0" d="M320.6,330.8c0.5-1,1.1-1.2,2-0.4C322.1,331.4,321.4,331.3,320.6,330.8z"/>
	<path class="st0" d="M501.8,357.9c0.5,0.7,0.7,1.5,0.2,2.3C501.2,359.5,501,358.8,501.8,357.9z"/>
	<path class="st0" d="M227.1,360.7c-1.4-2-1.1-3.1-0.7-4.3C227.6,357.6,226.8,358.6,227.1,360.7z"/>
	<path class="st0" d="M597.9,337.5c0.9-0.1,1.7,0.3,2.2,1.1C599.1,338.9,598.3,338.5,597.9,337.5z"/>
	<path class="st0" d="M664.5,161.3c0.7,0.2,1.4,0.2,1.6,1.2c0,0-0.2,0.2-0.3,0.2C664.9,162.7,664.5,162.1,664.5,161.3L664.5,161.3z"
		/>
	<path class="st0" d="M411,206c0.8,1-0.7,0.6-0.6,1.2C410.2,206.5,410.3,206.1,411,206z"/>
	<path class="st0" d="M412.5,202c0.8,1.1-0.7,0.7-0.7,1.2C411.6,202.6,411.8,202.1,412.5,202z"/>
	<path class="st0" d="M414,198.1c0.8,1.2-0.6,0.7-0.7,1.2C413.1,198.6,413.3,198.2,414,198.1z"/>
	<path class="st0" d="M226,361c0.6,1,0.4,1.8-0.3,2.5C224.9,362.6,225.3,361.8,226,361z"/>
	<path class="st0" d="M434,133.7c0.5,0.7,0.2,1.1-0.3,1.6C433,134.6,433.2,134.1,434,133.7z"/>
	<path class="st0" d="M215.5,287.1c1-0.6,1.3,0,1.4,1C216.2,288.3,215.7,288,215.5,287.1z"/>
	<path class="st0" d="M282.5,126.9c0.5-0.3,0.9-0.1,1,0.4c0.1,0.6,0.1,1.2-0.7,1.3C282.7,128,282.6,127.4,282.5,126.9z"/>
	<path class="st0" d="M594.1,338.2c-0.9-0.3-1.6-0.7-2.1-1.6l0,0C592.7,337.2,593.4,337.7,594.1,338.2
		C594.1,338.2,594.1,338.2,594.1,338.2z"/>
	<path class="st0" d="M596.3,339.8c-0.9-0.3-1.6-0.8-2.2-1.6c0,0,0,0,0,0C594.8,338.8,595.5,339.3,596.3,339.8L596.3,339.8z"/>
	<path class="st0" d="M287.3,215.4c0.4,0.4,0.5,0.9,0.1,1.4C286.8,216.4,286.7,216,287.3,215.4z"/>
	<path class="st0" d="M632.3,349.5c0.6-0.2,1,0,1.2,0.6C632.7,350.8,632.3,350.5,632.3,349.5z"/>
	<path class="st0" d="M409.5,209.9c0.8,1-0.7,0.6-0.6,1.2C408.7,210.4,408.9,210,409.5,209.9z"/>
	<path class="st0" d="M592,336.7c-0.3-0.2-0.6-0.3-0.9-0.5C591.7,335.8,591.6,336.6,592,336.7C591.9,336.7,592,336.7,592,336.7z"/>
	<path class="st0" d="M766.9,341.7c-0.6,0-1.6-0.2-1.3-0.7c0.4-0.9,1.2-0.3,1.8,0.1C767.2,341.3,767.1,341.5,766.9,341.7z"/>
	<path class="st0" d="M324.8,157.3c-0.4,0.2-0.8,0.4-1.2,0.5c0,0-0.1-0.2-0.1-0.3C323.9,157.5,324.4,157.4,324.8,157.3
		C324.8,157.3,324.8,157.3,324.8,157.3z"/>
	<path class="st0" d="M503,366.6c0.7,0.6,0.6,1.3,0.4,2.1C502.7,368.1,502.6,367.4,503,366.6z"/>
	<path class="st0" d="M503.6,370.5c0.6,0.6,0.7,1.3,0.4,2.1C503.4,372,503.3,371.3,503.6,370.5z"/>
	<path class="st0" d="M159.2,373.6c-0.1-0.2-0.2-0.4-0.2-0.6c0-0.1,0.2-0.2,0.4-0.2c0,0.1,0.1,0.2,0.1,0.3
		C159.4,373.2,159.3,373.4,159.2,373.6z"/>
	<path class="st0" d="M186.2,145c-0.9,0.2-1.8,0.2-2.3-0.8C184.8,144,185.7,143.6,186.2,145z"/>
	<path class="st0" d="M648.7,391.5c-1.1-0.5-1-1.4-0.7-2.4C648.9,389.6,648.5,390.7,648.7,391.5z"/>
	<path class="st0" d="M160.4,377.4c-0.2-0.4-0.4-0.8-0.6-1.2c0.1-0.1,0.3-0.2,0.4-0.2C160.2,376.5,160.3,376.9,160.4,377.4
		C160.4,377.4,160.4,377.4,160.4,377.4z"/>
	<path class="st0" d="M544.1,108.4c-0.6-0.9-0.6-1.9-0.2-2.8C544.6,106.5,544.6,107.4,544.1,108.4z"/>
	<path class="st0" d="M704.8,94c-0.1,0.5-0.2,1-0.4,1.4c-0.1-0.1-0.4-0.3-0.4-0.3c0.1-0.5,0.3-0.9,0.5-1.3
		C704.6,93.8,704.8,94,704.8,94z"/>
	<path class="st0" d="M310.4,242.6c-0.6,0.3-1.2,0.2-1.7-0.3C309.3,242,309.9,242.1,310.4,242.6z"/>
	<path class="st0" d="M767.4,341.1c0.3,0.2,1.1,0.2,0.7,0.9c-0.3,0.5-0.8,0.1-1.2-0.3C767.1,341.5,767.2,341.3,767.4,341.1z"/>
	<path class="st0" d="M596.2,339.8c0.5,0.3,1,0.5,1.4,0.8c0,0,0,0,0,0C597.2,340.3,596.7,340.1,596.2,339.8
		C596.3,339.8,596.2,339.8,596.2,339.8z"/>
	<path class="st0" d="M767.7,378.7c0.4-0.4,0.9-0.4,1.1,0.1c0.3,0.6-0.1,0.8-0.6,0.7C768,379.2,767.8,378.9,767.7,378.7z"/>
	<path class="st0" d="M599.1,341.4c-0.5-0.3-1-0.5-1.5-0.8c0,0,0,0,0,0C598.2,340.9,598.6,341.1,599.1,341.4
		C599.1,341.4,599.1,341.4,599.1,341.4z"/>
	<path class="st0" d="M705.5,92.5c-0.2,0.5-0.5,1-0.7,1.6c0,0-0.2-0.2-0.2-0.2c0.2-0.5,0.5-1.1,0.7-1.6
		C705.3,92.3,705.4,92.4,705.5,92.5z"/>
	<path class="st0" d="M676,483.1c0.5,0.3,0.9,0.5,1.4,0.8c0,0,0,0,0,0C676.8,483.9,676.2,483.8,676,483.1z"/>
	<polygon class="st0" points="158.7,370.4 158.4,370.4 158.5,370.1 	"/>
	<path class="st0" d="M646.9,356l-0.1,0c0,0,0.1-0.2,0.1-0.2C646.8,355.9,646.9,356,646.9,356z"/>
	<path class="st0" d="M664.5,161.2c-0.1,0-0.2-0.1-0.3-0.1C664.3,161.2,664.4,161.2,664.5,161.2
		C664.5,161.3,664.5,161.2,664.5,161.2z"/>
	<polygon class="st0" points="655.8,159.7 655.8,159.8 655.9,159.7 	"/>
	<path class="st0" d="M158.2,148c0.5-0.2,0.8,0,1,0.5C158.7,148.7,158.4,148.5,158.2,148z"/>
	<path class="st0" d="M654.1,365l0.2-0.1c0,0-0.2,0.2-0.2,0.2S654.1,365,654.1,365z"/>
	<path class="st0" d="M224.7,366.8c-0.1,0.1-0.2,0.2-0.2,0.2c-0.1-0.1-0.2-0.2-0.2-0.3c0-0.1,0.1-0.2,0.2-0.2
		C224.6,366.6,224.7,366.7,224.7,366.8z"/>
	<path class="st0" d="M298.4,248.2c0.2-0.2,0.3-0.4,0.5-0.7C298.8,247.7,298.6,247.9,298.4,248.2z"/>
	<path class="st0" d="M664.8,366.8C664.8,366.8,664.8,366.8,664.8,366.8c-0.2,0-0.3,0-0.5,0c0.1-0.1,0.2-0.2,0.2-0.2
		C664.6,366.6,664.7,366.7,664.8,366.8z"/>
	<path class="st0" d="M258.8,232.6c0.7,0.4,0.4,0.6-0.1,0.8C258.8,233.1,258.8,232.8,258.8,232.6z"/>
	<path class="st0" d="M519.5,374.3c-0.1-0.1-0.3-0.3-0.4-0.4c0.1-0.1,0.2-0.2,0.3-0.2C519.3,373.9,519.4,374.1,519.5,374.3z"/>
	<path class="st0" d="M660,311.1c-0.2-0.1-0.4-0.1-0.6-0.2c0.1-0.1,0.3-0.3,0.4-0.4C659.9,310.7,660,310.9,660,311.1z"/>
	<path class="st0" d="M721.3,325.8c0.1-0.4,0.2-0.8,0.3-1.2C721.8,325,721.7,325.4,721.3,325.8z"/>
	<path class="st0" d="M598.9,380.6c0.1,0,0.1,0,0.2,0c-0.1,0-0.1,0.1-0.2,0.1C598.9,380.8,598.9,380.6,598.9,380.6z"/>
	<path class="st0" d="M757.9,328.1c0,0.2,0,0.3,0,0.5c0,0-0.1,0-0.2,0.1c0,0-0.1-0.3-0.1-0.3L757.9,328.1z"/>
	<path class="st0" d="M603.3,195.9c-0.1,0.2-0.2,0.4-0.3,0.6c-0.1-0.2-0.2-0.4-0.3-0.5C602.9,195.8,603.1,195.8,603.3,195.9z"/>
	<path class="st0" d="M647.9,393.7c-0.9-0.8,0.3-0.4,0.3-0.7C648,393.2,647.9,393.5,647.9,393.7z"/>
	<path class="st0" d="M415.5,193.4l0,0.3c0,0-0.2,0.2-0.2,0.2s-0.1-0.3-0.1-0.3L415.5,193.4z"/>
	<path class="st0" d="M596.4,336.7c0.4-0.2,0.6,0,0.7,0.4C596.7,337.2,596.5,337.1,596.4,336.7z"/>
	<path class="st0" d="M574.3,234.7c0.1,0.2,0.3,0.3,0.4,0.5c0,0.1-0.1,0.2-0.1,0.3c-0.1-0.2-0.3-0.3-0.3-0.5
		C574.2,235,574.3,234.8,574.3,234.7z"/>
	<path class="st0" d="M614.2,448.6c-0.2-0.3-0.5-0.5-0.7-0.8C614,447.8,614.2,448.1,614.2,448.6z"/>
	<path class="st0" d="M160.1,242.7c-0.4-0.3-0.8-0.6-1.2-0.9C159.3,242.1,159.7,242.4,160.1,242.7z"/>
	<path class="st0" d="M390.9,266.5c0.2,0,0.4,0,0.7,0.1C391.3,267,391.1,266.9,390.9,266.5z"/>
	<path class="st0" d="M678.1,484.7c-0.2-0.3-0.5-0.5-0.7-0.8c0,0,0,0,0,0C677.6,484.2,677.9,484.4,678.1,484.7
		C678.1,484.7,678.1,484.7,678.1,484.7z"/>
	<path class="st0" d="M678.8,485.5c-0.2-0.3-0.5-0.5-0.7-0.8c0,0,0,0,0,0C678.4,484.9,678.6,485.2,678.8,485.5L678.8,485.5z"/>
	<path class="st0" d="M772.1,382.2c5.9,16.4,15.4,29.9,27.4,41.5c0.4,1.3,2.2,0.3,2.5,2.1c-1.9,0.8-3.1-0.3-4.3-1.5
		c-9.8-9.7-17.9-20.8-24.1-33.6c-0.8-1.6-1.6-3.2-2.3-4.8C770.8,384.5,770.5,383.1,772.1,382.2z"/>
	<path class="st0" d="M171.5,110.3c0.3-1.1,0.5-2.2,2-2.3c5-0.2,9.9-0.6,14.9-0.8c-0.8,2.8-3.3,1.9-4.8,2.2
		C179.6,110,175.5,110,171.5,110.3z"/>
	<path class="st0" d="M634.9,45.6c-0.1,0.2-0.2,0.4-0.2,0.6c-0.1-0.2-0.2-0.4-0.2-0.6c0-0.2,0.1-0.4,0.2-0.6
		C634.8,45.2,634.9,45.4,634.9,45.6z"/>
	<path class="st0" d="M729.1,232.9c0.5-0.1,0.8,0.1,0.7,0.6c0,0.3-0.2,0.8-0.4,0.9c-0.3,0.2-0.6-0.1-0.6-0.6
		C728.9,233.5,729,233.2,729.1,232.9z"/>
	<path class="st0" d="M258.2,238.9C258.2,238.9,258.2,238.9,258.2,238.9C258.2,239,258.2,238.9,258.2,238.9z"/>
	<path class="st0" d="M225.6,347.5c-0.1,0-0.2-0.1-0.3-0.1c-0.1,0-0.1,0.2-0.1,0.3c0.1,0,0.2,0.1,0.3,0.1
		C225.5,347.8,225.5,347.6,225.6,347.5z"/>
	<path class="st0" d="M628.6,346.1c-0.7-1.1-1-2.1,0.2-3.1C628.7,344,628.6,345,628.6,346.1z"/>
	<path class="st0" d="M207.9,154.8c0.5-0.8,1.1-1.2,2-1.4C209.6,154.7,209.5,156,207.9,154.8z"/>
	<path class="st0" d="M284.2,171.7c0.1,0,0.2,0,0.2,0c0.1,0.1,0.1,0.1,0.1,0.2c-0.1,0-0.3,0-0.4,0
		C284.1,171.8,284.1,171.7,284.2,171.7z"/>
	<path class="st0" d="M380.5,166.9c0.4-0.3,0.8-0.5,1,0.1c0.1,0.2-0.3,0.5-0.4,0.8C380.9,167.5,380.7,167.2,380.5,166.9z"/>
	<path class="st0" d="M500.9,345.8c0-0.1,0.1-0.2,0.1-0.3c0.1,0.1,0.2,0.2,0.4,0.3c-0.1,0.1-0.2,0.2-0.2,0.2
		C501.1,346,501,345.8,500.9,345.8z"/>
</g>
</svg>
