<?xml version="1.0" encoding="utf-8"?>
<!-- Generator: Adobe Illustrator 23.0.5, SVG Export Plug-In . SVG Version: 6.00 Build 0)  -->
<svg version="1.1" id="Layer_1" xmlns="http://www.w3.org/2000/svg" xmlns:xlink="http://www.w3.org/1999/xlink" x="0px" y="0px"
	 viewBox="0 0 181.96 61.03" style="enable-background:new 0 0 181.96 61.03;" xml:space="preserve">
<style type="text/css">
	.st0{fill:none;}
	.st1{fill:#861C29;}
</style>
<path class="st0" d="M75.45,32.98c0.81-0.56,1.02-1.01,0.73-1.96c-1.9-6.17-3.72-12.36-5.59-18.54c-0.41-1.35-0.86-2.69-1.31-4.12
	c-0.32,0.31-0.23,0.56-0.24,0.77c-0.14,6.23-0.25,12.47-0.42,18.7c-0.07,2.53-0.26,5.06-0.44,7.59c-0.05,0.75-0.22,1.49-0.72,2.11
	c-0.83,1.02-2.07,0.87-2.58-0.33c-0.32-0.75-0.54-1.53-0.62-2.36c-0.36-3.62-0.39-7.25-0.39-10.88c0-1.28,0-1.24-1.26-0.96
	c-0.78,0.18-1.01,0.45-0.81,1.31c0.66,2.86,1.23,5.75,1.78,8.64c0.33,1.74,0.8,3.48,0.71,5.28c-0.05,0.96-0.42,1.75-1.45,2
	c-1.03,0.26-1.67-0.08-2.26-1.14c-0.67-1.2-1.19-2.46-1.43-3.83c-0.59-3.3-1.2-6.59-1.74-9.9c-0.12-0.74-0.44-0.88-1.09-0.72
	c-1.26,0.32-2.52,0.66-3.79,0.88c-0.98,0.17-1.44,0.63-1.65,1.61C50.46,29.06,50,31,48.94,32.72c-0.43,0.71-0.95,1.34-1.88,1.11
	c-0.93-0.24-1.23-1.01-1.28-1.89c-0.07-1.34-0.08-2.67,0.07-4c0.02-0.22,0.24-0.59-0.04-0.63c-0.82-0.12-1.62,0.17-2.41,0.34
	c-0.39,0.08-0.11,0.38-0.07,0.58c0.03,0.13,0.1,0.25,0.15,0.38c0.38,0.95,0.76,1.9,1.15,2.85c1.25,3.07,2.75,6.04,3.7,9.22
	c0.36,1.22,0.64,2.46,0.53,3.74c-0.11,1.31-0.97,1.73-2.06,1.05c-0.74-0.46-1.34-1.05-1.7-1.87c-0.38-0.88-0.8-1.74-1.17-2.62
	c-1.85-4.38-3.69-8.75-5.52-13.14c-0.3-0.72-0.68-1.26-1.53-1.48c-0.86-0.22-1.24-1.03-0.78-1.67c0.55-0.77,0.28-1.37-0.03-2.06
	c-0.51-1.12-0.98-2.26-1.49-3.38c-0.1-0.21-0.06-0.58-0.48-0.58c-0.05,4.19,0.15,8.37-0.22,12.54c-0.22,2.45-0.28,4.93-1.31,7.23
	c-0.24,0.53-0.53,1.1-1.22,1.12c-0.73,0.01-1.05-0.58-1.3-1.15c-0.64-1.46-0.89-3.03-0.9-4.6c-0.04-8.02,0.02-16.04-0.32-24.05
	c-0.04-0.95-0.03-1.92,0.3-2.84C29.4,6.13,30,5.53,30.81,5.73c1.13,0.28,2.24,0.8,2.48,2.16c0.21,1.14,0.42,2.29,0.53,3.44
	c0.07,0.77,0.28,0.87,0.93,0.51c2.98-1.62,5.88-3.37,8.39-5.69c1.38-1.27,1.3-1.72-0.51-2.36c-0.28-0.1-0.6-0.14-0.9-0.18
	c-6.68-0.8-12.96,0.85-19.16,3.06c-0.46,0.16-0.46,0.41-0.41,0.78c0.42,2.98,0.61,5.99,0.89,8.99c0.52,5.46,0.82,10.93,1.08,16.4
	c0.12,2.49,0.33,5-0.13,7.48c-0.09,0.48,0.22,0.58,0.56,0.69c1.53,0.5,3.05,1.01,4.58,1.49c1.96,0.62,3.94,1.16,5.79,2.05
	c0.95,0.46,1.93,0.91,2.37,2c0.12,0.31,0.34,0.39,0.73,0.34c2.23-0.31,3.79,0.91,4.26,3.14c0.8,3.72,1.13,7.51,1.59,11.27
	c0.14,1.17,0.88,0.64,1.43,0.7c0.75,0.08,0.56-0.45,0.54-0.88c-0.13-2.98-0.42-5.95-0.31-8.93c0.05-1.34,0.67-2.23,1.94-2.73
	c2.23-0.87,3.28-0.5,4.48,1.6c1.97,3.45,3.43,7.15,5.11,10.74c0.14,0.31,0.18,0.7,0.64,0.91c-0.08-5.37-0.03-10.64,0.39-15.91
	c0.15-1.8,0.19-3.62,1-5.31c0.27-0.56,0.65-1.02,1.29-1.03c1.23-0.02,2.72,1.63,2.63,2.88c-0.16,2.36-0.36,4.71-0.54,7.07
	c-0.03,0.41-0.05,0.82-0.06,1.23c-0.01,0.4,0,0.8,0,1.21c0.95-3.73,2.6-7.11,4.57-10.32C69.27,38.87,71.87,35.46,75.45,32.98z"/>
<path class="st0" d="M85.46,43.74c-0.15-0.54-0.31-1.07-0.48-1.65c-0.24,0.13-0.4,0.21-0.54,0.3c-0.37,0.24-0.76,0.47-1.11,0.74
	c-7.2,5.7-11.93,12.85-12.8,22.18c-0.36,3.81,0.2,7.51,2.1,10.92c0.59,1.05,1.26,2.02,2.28,2.74c0.69,0.49,1.06,0.39,1.29-0.45
	c1.25-4.41,2.03-8.91,2.61-13.46c-0.34-0.07-0.5,0.15-0.7,0.26c-1.45,0.84-2.92,1.67-4.59,1.97c-0.75,0.13-1.63,0.35-2.2-0.39
	c-0.54-0.7-0.3-1.5-0.03-2.26c0.49-1.4,1.41-2.49,2.52-3.43c1.91-1.62,3.81-3.25,6.27-3.98c0.82-0.24,1.76-0.47,2.41,0.27
	c0.97,1.1,1.62,2.45,1.5,3.92c-0.32,3.96-0.97,7.87-2.04,11.7c-0.47,1.7-1.02,3.38-1.59,5.26c1.09-1.32,2.36-1.85,3.81-1.98
	c0.75-0.07,0.93-0.36,0.92-1.1c-0.04-1.78-0.04-3.57,0.07-5.34c0.4-6.39,1.22-12.73,1.93-19.09c0.19-1.73,0.47-3.43-0.82-4.95
	C85.77,45.35,85.67,44.5,85.46,43.74z"/>
<path class="st0" d="M79.07,39.89c0.48-0.42,0.56-0.64,0.03-1.07c-0.64-0.53-1.05-1.28-1.34-2.04c-0.3-0.83-0.59-0.67-1.11-0.19
	c-2.55,2.34-4.57,5.09-6.26,8.09c-2.48,4.42-3.92,9.15-4.14,14.28c0.08-0.21,0.19-0.42,0.25-0.63c0.77-2.79,2.05-5.36,3.57-7.8
	C72.56,46.53,75.54,42.97,79.07,39.89z"/>
<path class="st0" d="M54.13,20.22c2.17-0.6,2.18-0.6,1.73-2.82c-0.39-1.93-0.8-3.86-1.21-5.79c-0.68,2.44-1.2,4.87-1.84,7.27
	C52.32,20.71,52.34,20.72,54.13,20.22z"/>
<path class="st0" d="M33.36,53.23c-2.41,2.01-4.79,4.06-7.53,5.63c-0.56,0.32-0.62,0.54-0.26,1.08c1.47,2.23,2.89,4.49,4.33,6.73
	c0.15,0.23,0.27,0.54,0.58,0.51c0.37-0.04,0.42-0.39,0.49-0.69c0.76-2.91,1.52-5.82,2.29-8.72c0.53-1.97,1.09-3.93,1.71-6.17
	C34.1,52.1,33.87,52.8,33.36,53.23z"/>
<path class="st0" d="M38.59,56.1c-0.07,0.01-0.13,0.02-0.2,0.02c-0.91,3.01-1.81,6.02-2.76,9.17c1.38-0.49,2.57-0.89,3.74-1.32
	c0.39-0.14,0.58-0.37,0.48-0.85C39.41,60.79,39.01,58.44,38.59,56.1z"/>
<path class="st0" d="M5.37,40.32C10,39.68,14.64,39.43,19.3,40c0.71,0.09,0.99-0.01,0.74-0.82c-0.54-1.81-0.75-3.69-0.97-5.55
	c-0.65-5.55-0.74-11.14-1.07-16.71c-0.15-2.6-0.46-5.18-0.68-7.77c-0.06-0.64-0.24-0.87-0.96-0.66c-1.01,0.29-2.07,0.45-3.12,0.59
	C10.11,9.5,7,9.93,3.89,8.84C2.58,8.39,1.3,7.93,0.06,6.84c0.09,0.65,0.15,1.02,0.19,1.39c0.14,1.3,0.24,2.6-0.17,3.87
	c-0.33,1.02-1.18,1.6-2.16,1.57c-1.08-0.03-1.31-0.81-1.48-1.65c-0.29-1.38-0.76-2.7-1.58-3.86c-0.53-0.75-1.2-1.13-2.18-1.08
	c-3.36,0.17-7.87,4.46-8.11,7.83c-0.09,1.28,0.53,2.24,1.63,2.87c0.63,0.36,1.32,0.54,2.04,0.67c3.42,0.64,6.9,0.39,10.34,0.8
	c4.16,0.49,8.04,1.69,11.24,4.54c1.54,1.37,2.65,2.97,2.4,5.18c-0.45,3.92-2.17,7.16-5.17,9.73c-0.58,0.5-1.16,0.99-1.74,1.49
	l1.68-0.06L5.3,40.17c-0.01,0.01-0.03,0.02-0.04,0.03C5.3,40.24,5.33,40.28,5.37,40.32z"/>
<path class="st0" d="M133.58,59.97c-2.44-1.87-5.03-3.55-7.55-5.31c-4.19-2.92-6.39-6.94-5.79-12.2c0.16-1.4,0.72-2.69,1.25-3.97
	c-0.28-0.16-0.51-0.1-0.74-0.03c-3.54,1.01-7.03,2.23-10.62,3.08c-0.56,0.13-0.66,0.5-0.7,0.97c-0.1,1.37-0.32,2.72-0.62,4.05
	c-0.68,3.03-1.39,6.06-2.08,9.09c-0.27,1.16-0.25,1.16,0.87,1.07c2.39-0.19,4.78-0.36,7.18-0.25c1.07,0.05,2.11,0.24,3.11,0.6
	c0.69,0.24,0.85,0.62,0.31,1.21c-1.38,1.51-3.12,2.3-5.13,2.52c-2.31,0.25-4.61,0.6-6.89,1.03c-0.49,0.09-0.7,0.31-0.76,0.79
	c-0.41,2.98-0.83,5.96-1.27,8.94c-0.11,0.74,0.02,0.92,0.77,0.58c3.34-1.52,6.82-2.62,10.41-3.37c2.03-0.42,2.02-0.46,2.22-2.51
	c0.19-2.07,1.35-3.67,3-4.14c0.43-0.12,0.87-0.24,1.24,0.16c0.37,0.39,0.4,0.77,0.19,1.3c-0.38,0.94-0.39,1.9-0.09,2.91
	c0.34,1.14,0.82,2.25,0.91,3.46c0.13,1.6,0.86,2.94,1.8,4.18c1.62,2.13,3.12,2.5,5.41,1.12c2.94-1.78,5.3-4.2,7.12-7.13
	c0.57-0.91,0.7-1.88,0.43-2.95C136.97,62.85,135.35,61.33,133.58,59.97z"/>
<path class="st0" d="M117.15,71.42c-2.5,0.69-5.01,1.33-7.41,2.33c-0.86,0.36-1.76,0.63-2.72,1.35c4.55,0.28,8.86,0.55,13.37,1.38
	c-1.17-1.57-1.83-3.06-2.34-4.62C117.88,71.33,117.64,71.29,117.15,71.42z"/>
<path class="st0" d="M99.38,71.3c-2.04,1.42-3.97,2.77-5.91,4.11c2.14,0.07,4.23-0.09,6.31-0.25c0.5-0.04,0.4-0.33,0.3-0.65
	C99.79,73.51,99.49,72.51,99.38,71.3z"/>
<path class="st1" d="M63.19,66.41c0,0,0,0.01,0,0.01C63.19,66.41,63.19,66.41,63.19,66.41L63.19,66.41z"/>
<path class="st1" d="M5.12,40.32c0.08,0,0.17,0,0.26,0c-0.04-0.04-0.08-0.08-0.11-0.12C5.21,40.24,5.16,40.28,5.12,40.32z"/>
<path class="st1" d="M63.13,66.44l0.06-0.03c0,0,0-0.01,0-0.01C63.18,66.4,63.13,66.44,63.13,66.44z"/>
<path class="st1" d="M63.18,66.39c0,0,0,0.01,0,0.01l0.01,0C63.19,66.4,63.18,66.39,63.18,66.39z"/>
<path class="st0" d="M54.13,20.22c2.17-0.6,2.18-0.6,1.73-2.82c-0.39-1.93-0.8-3.86-1.21-5.79c-0.68,2.44-1.2,4.87-1.84,7.27
	C52.32,20.71,52.34,20.72,54.13,20.22z"/>
<path class="st0" d="M38.59,56.1c-0.07,0.01-0.13,0.02-0.2,0.02c-0.91,3.01-1.81,6.02-2.76,9.17c1.38-0.49,2.57-0.89,3.74-1.32
	c0.39-0.14,0.58-0.37,0.48-0.85C39.41,60.79,39.01,58.44,38.59,56.1z"/>
<path class="st0" d="M33.36,53.23c-2.41,2.01-4.79,4.06-7.53,5.63c-0.56,0.32-0.62,0.54-0.26,1.08c1.47,2.23,2.89,4.49,4.33,6.73
	c0.15,0.23,0.27,0.54,0.58,0.51c0.37-0.04,0.42-0.39,0.49-0.69c0.76-2.91,1.52-5.82,2.29-8.72c0.53-1.97,1.09-3.93,1.71-6.17
	C34.1,52.1,33.87,52.8,33.36,53.23z"/>
<path class="st0" d="M76.18,31.01c-1.9-6.17-3.72-12.36-5.59-18.54c-0.41-1.35-0.86-2.69-1.31-4.12c-0.32,0.31-0.23,0.56-0.24,0.77
	c-0.14,6.23-0.25,12.47-0.42,18.7c-0.07,2.53-0.26,5.06-0.44,7.59c-0.05,0.75-0.22,1.49-0.72,2.11c-0.83,1.02-2.07,0.87-2.58-0.33
	c-0.32-0.75-0.54-1.53-0.62-2.36c-0.36-3.62-0.39-7.25-0.39-10.88c0-1.28,0-1.24-1.26-0.96c-0.78,0.18-1.01,0.45-0.81,1.31
	c0.66,2.86,1.23,5.75,1.78,8.64c0.33,1.74,0.8,3.48,0.71,5.28c-0.05,0.96-0.42,1.75-1.45,2c-1.03,0.26-1.67-0.08-2.26-1.14
	c-0.67-1.2-1.19-2.46-1.43-3.83c-0.59-3.3-1.2-6.59-1.74-9.9c-0.12-0.74-0.44-0.88-1.09-0.72c-1.26,0.32-2.52,0.66-3.79,0.88
	c-0.98,0.17-1.44,0.63-1.65,1.61C50.46,29.06,50,31,48.94,32.72c-0.43,0.71-0.95,1.34-1.88,1.11c-0.93-0.24-1.23-1.01-1.28-1.89
	c-0.07-1.34-0.08-2.67,0.07-4c0.02-0.22,0.24-0.59-0.04-0.63c-0.82-0.12-1.62,0.17-2.41,0.34c-0.39,0.08-0.11,0.38-0.07,0.58
	c0.03,0.13,0.1,0.25,0.15,0.38c0.38,0.95,0.76,1.9,1.15,2.85c1.25,3.07,2.75,6.04,3.7,9.22c0.36,1.22,0.64,2.46,0.53,3.74
	c-0.11,1.31-0.97,1.73-2.06,1.05c-0.74-0.46-1.34-1.05-1.7-1.87c-0.38-0.88-0.8-1.74-1.17-2.62c-1.85-4.38-3.69-8.75-5.52-13.14
	c-0.3-0.72-0.68-1.26-1.53-1.48c-0.86-0.22-1.24-1.03-0.78-1.67c0.55-0.77,0.28-1.37-0.03-2.06c-0.51-1.12-0.98-2.26-1.49-3.38
	c-0.1-0.21-0.06-0.58-0.48-0.58c-0.05,4.19,0.15,8.37-0.22,12.54c-0.22,2.45-0.28,4.93-1.31,7.23c-0.24,0.53-0.53,1.1-1.22,1.12
	c-0.73,0.01-1.05-0.58-1.3-1.15c-0.64-1.46-0.89-3.03-0.9-4.6c-0.04-8.02,0.02-16.04-0.32-24.05c-0.04-0.95-0.03-1.92,0.3-2.84
	C29.4,6.13,30,5.53,30.81,5.73c1.13,0.28,2.24,0.8,2.48,2.16c0.21,1.14,0.42,2.29,0.53,3.44c0.07,0.77,0.28,0.87,0.93,0.51
	c2.98-1.62,5.88-3.37,8.39-5.69c1.38-1.27,1.3-1.72-0.51-2.36c-0.28-0.1-0.6-0.14-0.9-0.18c-6.68-0.8-12.96,0.85-19.16,3.06
	c-0.46,0.16-0.46,0.41-0.41,0.78c0.42,2.98,0.61,5.99,0.89,8.99c0.52,5.46,0.82,10.93,1.08,16.4c0.12,2.49,0.33,5-0.13,7.48
	c-0.01,0.03,0,0.04,0,0.07l1.81,0.23l-1.81-0.23c-0.04,0.41,0.24,0.52,0.56,0.62c1.53,0.5,3.05,1.01,4.58,1.49
	c1.96,0.62,3.94,1.16,5.79,2.05c0.95,0.46,1.93,0.91,2.37,2c0.12,0.31,0.34,0.39,0.73,0.34c2.23-0.31,3.79,0.91,4.26,3.14
	c0.8,3.72,1.13,7.51,1.59,11.27c0.14,1.17,0.88,0.64,1.43,0.7c0.75,0.08,0.56-0.45,0.54-0.88c-0.13-2.98-0.42-5.95-0.31-8.93
	c0.05-1.34,0.67-2.23,1.94-2.73c2.23-0.87,3.28-0.5,4.48,1.6c1.97,3.45,3.43,7.15,5.11,10.74c0.14,0.31,0.18,0.7,0.64,0.91
	c-0.08-5.37-0.03-10.64,0.39-15.91c0.15-1.8,0.19-3.62,1-5.31c0.27-0.56,0.65-1.02,1.29-1.03c1.23-0.02,2.72,1.63,2.63,2.88
	c-0.16,2.36-0.36,4.71-0.54,7.07c-0.03,0.41-0.05,0.82-0.06,1.23c-0.01,0.4,0,0.8,0,1.21c0.95-3.73,2.6-7.11,4.57-10.32
	c2.25-3.67,4.85-7.08,8.43-9.56c0.35-0.24,0.57-0.47,0.7-0.72l-0.35-1.43l0.35,1.43C76.33,31.93,76.35,31.56,76.18,31.01z"/>
<path class="st0" d="M20.04,39.18c-0.54-1.81-0.75-3.69-0.97-5.55c-0.65-5.55-0.74-11.14-1.07-16.71c-0.15-2.6-0.46-5.18-0.68-7.77
	c-0.06-0.64-0.24-0.87-0.96-0.66c-1.01,0.29-2.07,0.45-3.12,0.59C10.11,9.5,7,9.93,3.89,8.84C2.58,8.39,1.3,7.93,0.06,6.84
	c0.09,0.65,0.15,1.02,0.19,1.39c0.14,1.3,0.24,2.6-0.17,3.87c-0.33,1.02-1.18,1.6-2.16,1.57c-1.08-0.03-1.31-0.81-1.48-1.65
	c-0.29-1.38-0.76-2.7-1.58-3.86c-0.53-0.75-1.2-1.13-2.18-1.08c-3.36,0.17-7.87,4.46-8.11,7.83c-0.09,1.28,0.53,2.24,1.63,2.87
	c0.63,0.36,1.32,0.54,2.04,0.67c3.42,0.64,6.9,0.39,10.34,0.8c4.16,0.49,8.04,1.69,11.24,4.54c1.54,1.37,2.65,2.97,2.4,5.18
	c-0.45,3.92-2.17,7.16-5.17,9.73c-0.58,0.5-1.16,0.99-1.74,1.49c-0.01,0.01-0.03,0.02-0.04,0.03c-0.05,0.04-0.09,0.07-0.14,0.11
	c0.08,0,0.17,0,0.26,0C10,39.68,14.64,39.43,19.3,40c0.39,0.05,0.64,0.03,0.76-0.11l-0.78-0.1l0.78,0.1
	C20.15,39.77,20.15,39.55,20.04,39.18z"/>
<path class="st0" d="M77.77,36.78c-0.2-0.55-0.4-0.66-0.65-0.54l0.26,1.06l-0.26-1.06c-0.13,0.06-0.28,0.18-0.45,0.34
	c-2.55,2.34-4.57,5.09-6.26,8.09c-2.48,4.42-3.92,9.15-4.14,14.28c0.08-0.21,0.19-0.42,0.25-0.63c0.77-2.79,2.05-5.36,3.57-7.8
	c2.47-3.99,5.45-7.55,8.99-10.63c0.25-0.21,0.38-0.38,0.39-0.54l-0.19,0.13l0.19-0.13c0.01-0.16-0.1-0.32-0.36-0.53
	C78.47,38.29,78.05,37.54,77.77,36.78z"/>
<path class="st0" d="M63.18,66.39c0,0-0.05,0.05-0.05,0.05l0.06-0.03c0,0,0,0.01,0,0.01c0,0,0-0.01,0-0.01
	C63.19,66.4,63.18,66.39,63.18,66.39z"/>
<path class="st0" d="M133.58,59.97c-2.44-1.87-5.03-3.55-7.55-5.31c-4.19-2.92-6.39-6.94-5.79-12.2c0.16-1.4,0.72-2.69,1.25-3.97
	c-0.28-0.16-0.51-0.1-0.74-0.03c-3.54,1.01-7.03,2.23-10.62,3.08c-0.56,0.13-0.66,0.5-0.7,0.97c-0.1,1.37-0.32,2.72-0.62,4.05
	c-0.68,3.03-1.39,6.06-2.08,9.09c-0.27,1.16-0.25,1.16,0.87,1.07c2.39-0.19,4.78-0.36,7.18-0.25c1.07,0.05,2.11,0.24,3.11,0.6
	c0.69,0.24,0.85,0.62,0.31,1.21c-1.38,1.51-3.12,2.3-5.13,2.52c-2.31,0.25-4.61,0.6-6.89,1.03c-0.49,0.09-0.7,0.31-0.76,0.79
	c-0.41,2.98-0.83,5.96-1.27,8.94c-0.11,0.74,0.02,0.92,0.77,0.58c3.34-1.52,6.82-2.62,10.41-3.37c2.03-0.42,2.02-0.46,2.22-2.51
	c0.19-2.07,1.35-3.67,3-4.14c0.43-0.12,0.87-0.24,1.24,0.16c0.37,0.39,0.4,0.77,0.19,1.3c-0.38,0.94-0.39,1.9-0.09,2.91
	c0.34,1.14,0.82,2.25,0.91,3.46c0.13,1.6,0.86,2.94,1.8,4.18c1.62,2.13,3.12,2.5,5.41,1.12c2.94-1.78,5.3-4.2,7.12-7.13
	c0.57-0.91,0.7-1.88,0.43-2.95C136.97,62.85,135.35,61.33,133.58,59.97z"/>
<path class="st0" d="M85.46,43.74c-0.15-0.54-0.31-1.07-0.48-1.65c-0.24,0.13-0.4,0.21-0.54,0.3c-0.37,0.24-0.76,0.47-1.11,0.74
	c-7.2,5.7-11.93,12.85-12.8,22.18c-0.36,3.81,0.2,7.51,2.1,10.92c0.59,1.05,1.26,2.02,2.28,2.74c0.69,0.49,1.06,0.39,1.29-0.45
	c1.25-4.41,2.03-8.91,2.61-13.46c-0.34-0.07-0.5,0.15-0.7,0.26c-1.45,0.84-2.92,1.67-4.59,1.97c-0.75,0.13-1.63,0.35-2.2-0.39
	c-0.54-0.7-0.3-1.5-0.03-2.26c0.49-1.4,1.41-2.49,2.52-3.43c1.91-1.62,3.81-3.25,6.27-3.98c0.82-0.24,1.76-0.47,2.41,0.27
	c0.97,1.1,1.62,2.45,1.5,3.92c-0.32,3.96-0.97,7.87-2.04,11.7c-0.47,1.7-1.02,3.38-1.59,5.26c1.09-1.32,2.36-1.85,3.81-1.98
	c0.75-0.07,0.93-0.36,0.92-1.1c-0.04-1.78-0.04-3.57,0.07-5.34c0.4-6.39,1.22-12.73,1.93-19.09c0.19-1.73,0.47-3.43-0.82-4.95
	C85.77,45.35,85.67,44.5,85.46,43.74z"/>
<path class="st0" d="M99.38,71.3c-2.04,1.42-3.97,2.77-5.91,4.11c2.14,0.07,4.23-0.09,6.31-0.25c0.5-0.04,0.4-0.33,0.3-0.65
	C99.79,73.51,99.49,72.51,99.38,71.3z"/>
<path class="st0" d="M117.15,71.42c-2.5,0.69-5.01,1.33-7.41,2.33c-0.86,0.36-1.76,0.63-2.72,1.35c4.55,0.28,8.86,0.55,13.37,1.38
	c-1.17-1.57-1.83-3.06-2.34-4.62C117.88,71.33,117.64,71.29,117.15,71.42z"/>
<path class="st1" d="M173.67,26.56c-2.14-1.61-4.54-2.81-6.84-4.16c-1.97-1.16-3.77-2.53-4.9-4.57c-2.28-4.11,1-7.6,3.95-8.27
	c0.6-0.14,0.83,0.04,0.89,0.69c0.14,1.46,0.38,2.92,0.58,4.37c0.05,0.38,0.13,0.74,0.59,0.87c1.01,0.29,2.39-0.42,2.73-1.44
	c0.3-0.88,0.58-1.77,0.89-2.74c0.93,1.56,1.37,3.13,1.24,4.86c-0.09,1.22,0.6,2.01,1.6,1.87c2.23-0.3,4.57-2.58,4.35-5.24
	c-0.15-1.78-0.97-3.25-1.61-4.83c-0.93-2.31-2.62-3.67-4.95-4.4c-2.54-0.79-5.18-0.83-7.79-1.17c-3-0.39-5.87,0.02-8.74,0.68
	c-4.01,0.92-7.81,2.47-11.64,3.95c-0.96,0.37-2.12,0.57-2.92,0.2c-0.73-0.34-0.75-0.11-0.79,0.33c-0.09,0.89-0.66,1.24-1.38,1.57
	c-1.2,0.57-2.37,1.21-3.54,1.85c-1.05,0.58-1.17,2.13,0.05,2.72c1.07,0.51,2.06,1.06,3.35,0.45c-0.03,0.34-0.03,0.58-0.08,0.81
	c-0.75,4.1-1.51,8.2-2.25,12.3c-0.09,0.48-0.35,0.68-0.77,0.85c-0.88,0.37-1.78,0.73-2.54,1.32c-0.75,0.58-0.81,1.11-0.16,1.8
	c0.54,0.58,1.18,1.07,1.96,1.27c0.48,0.12,0.57,0.35,0.52,0.8c-0.12,1.29-0.21,2.59-0.3,3.89c-0.03,0.41-0.19,0.69-0.59,0.86
	c-1.7,0.74-3.23,1.79-4.81,2.73c-1.38,0.81-2.79,1.55-4.4,2.1c0-1.02-0.18-1.98,0.04-2.85c0.44-1.74,0.52-3.51,0.76-5.26
	c0.74-5.49,1.36-11,2.2-16.48c0.29-1.89,0.67-3.78,0.69-5.7c0.02-1.41-0.64-2.57-1.68-2.6c-1.21-0.03-1.38-0.7-1.59-1.62
	c-0.57-2.46-1.84-3.23-4.29-2.68c-0.46,0.1-0.93,0.25-1.36,0.45c-0.29,0.13-0.48,0.16-0.62,0.05l-4.49,3.09
	c-0.01,0.17-0.14,0.33-0.39,0.54c-3.54,3.08-6.52,6.64-8.99,10.63c-1.52,2.45-2.8,5.01-3.57,7.8c-0.06,0.22-0.16,0.42-0.25,0.63
	c0.22-5.13,1.65-9.87,4.14-14.28c1.69-3,3.7-5.75,6.26-8.09c0.18-0.16,0.32-0.28,0.45-0.34l-0.96-3.99
	c-0.13,0.25-0.35,0.48-0.7,0.72c-3.59,2.48-6.18,5.89-8.43,9.56c-1.97,3.21-3.62,6.58-4.57,10.32c0-0.4-0.01-0.8,0-1.21
	c0.01-0.41,0.03-0.82,0.06-1.23c0.18-2.36,0.37-4.71,0.54-7.07c0.09-1.26-1.41-2.91-2.63-2.88c-0.64,0.01-1.02,0.46-1.29,1.03
	c-0.81,1.68-0.85,3.5-1,5.31c-0.43,5.26-0.48,10.54-0.39,15.91c-0.46-0.21-0.49-0.6-0.64-0.91C91,28.15,89.55,24.45,87.58,21
	c-1.2-2.1-2.25-2.47-4.48-1.6c-1.27,0.5-1.89,1.38-1.94,2.73c-0.11,2.99,0.17,5.96,0.31,8.93c0.02,0.43,0.21,0.96-0.54,0.88
	c-0.54-0.06-1.28,0.47-1.43-0.7c-0.46-3.77-0.8-7.55-1.59-11.27c-0.48-2.23-2.04-3.45-4.26-3.14c-0.39,0.05-0.61-0.03-0.73-0.34
	c-0.44-1.09-1.42-1.55-2.37-2c-1.86-0.89-3.84-1.43-5.79-2.05c-1.53-0.48-3.05-1-4.58-1.49c-0.32-0.1-0.6-0.21-0.56-0.62l-3.96-0.5
	c-0.12,0.15-0.37,0.16-0.76,0.11c-4.66-0.57-9.3-0.33-13.93,0.32c-0.09,0-0.17,0-0.26,0c0.05-0.04,0.09-0.07,0.14-0.11
	c0.01-0.01,0.03-0.02,0.04-0.03L29.6,10.49c-0.25,0.12-0.5,0.24-0.75,0.37c-0.52,0.26-0.67-0.07-0.88-0.39
	c-0.69-1.06-1.33-2.16-2.08-3.17c-0.76-1.02-1.68-1.31-2.58-0.99c-1.01,0.36-1.75,1.41-1.78,2.54c-0.03,0.94,0.18,1.85,0.54,2.7
	c0.28,0.67,0.19,0.88-0.53,1.09c-4.01,1.21-7.59,3.24-10.28,6.47c-4.44,5.33-1.82,10.97,2.98,13.19c1.94,0.89,4.04,1.26,6.1,1.72
	c3.9,0.87,7.84,1.56,11.69,2.65c2.53,0.72,3.54,2.02,3.77,4.62c0.09,1.07-0.1,2.12-0.3,3.16c-0.6,3.08-1.84,5.79-4.47,7.7
	c-0.46,0.33-0.85,0.4-1.41,0.22c-3.53-1.16-6.9-2.7-10.04-4.64c-3.61-2.23-7.1-4.65-10.82-6.69c-1.41-0.77-2.85-1.08-4.42-1.1
	c-0.88-0.01-1.15,0.38-1.04,1.21c0.21,1.6,1.11,2.75,2.29,3.76c2.87,2.45,6.03,4.51,9,6.83c2.7,2.11,5.65,3.86,8.72,5.38
	c2.35,1.17,4.79,2.03,7.48,1.81c0.88-0.07,1.7-0.23,2.41-0.9c1.57-1.5,2.69-3.34,3.81-5.14c1.72-2.77,2.93-5.79,3.7-8.98
	c0.33-2.33,0.47-4.63-0.62-6.83c-0.39-0.8-0.81-1.54-1.57-2.06c-0.45-0.3-0.47-0.92-0.88-1.32c-1.9-1.85-4.27-2.69-6.79-3.15
	c-3.56-0.66-7.15-1.23-10.71-1.88c-1.48-0.27-2.95-0.65-4.05-1.82c-1.22-1.28-1.35-2.61-0.36-4.08c0.52-0.78,1.22-1.39,2.01-1.88
	c2-1.24,4.19-1.97,6.46-2.52c0.55-0.13,0.75,0.04,1.05,0.47c1.62,2.33,3.26,4.64,5.8,6.13c0.97,0.57,1.88,0.82,2.88,0.22
	c0.94-0.57,1.31-1.41,1.22-2.52C35,20.8,34.41,19.1,33.6,17.47c-0.32-0.63-0.38-0.91,0.44-1.04c2.9-0.47,5.79-0.98,8.69-1.5
	c0.64-0.12,0.66,0.2,0.61,0.69c-0.31,2.96-0.61,5.92-0.89,8.89c-0.48,5.01-0.85,10.03-1.25,15.04c-0.12,1.56,0.13,3.15-0.35,4.68
	c-0.1,1.05-0.19,2.11-0.3,3.16c-0.14,1.4-0.33,2.79-0.08,4.2c0.23,1.25,1.36,2.2,2.6,2.2c0.99,0,1.51-0.57,1.8-1.99
	c0.03-0.17,0.08-0.33,0.1-0.5c0.35-3.92,0.84-7.84,1-11.77c0.34-8.15,1.43-16.23,1.91-24.37c0.02-0.38,0.08-0.66,0.56-0.67
	c1.29-0.02,2.57-0.13,4.09,0.08c-0.64,0.31-1.07,0.56-1.53,0.74c-0.91,0.35-1.16,1.05-1.16,1.95c0,0.89,0.66,1.18,1.27,1.49
	c0.76,0.39,1.6,0.37,2.41,0.23c4.43-0.78,8.92-0.92,13.4-1.1c0.35-0.01,0.75-0.16,1.06,0.25c-0.18,0.21-0.36,0.41-0.54,0.61
	c-2.48,2.72-5.69,4.49-8.6,6.66c-0.29,0.22-0.44,0.15-0.68-0.08c-0.67-0.67-0.45-1.47-0.33-2.23c0.17-1.09,0.1-2.12-0.49-3.07
	c-0.37-0.59-0.89-0.96-1.62-0.86c-1.09,0.16-2.48,1.41-2.7,2.51c-0.34,1.71-0.68,3.42-0.63,5.18c0.04,1.75,0.02,3.49-0.1,5.24
	c-0.31,4.37-0.57,8.75-0.83,13.12c-0.06,1.03,0.09,2.05,0.55,3c0.36,0.74,0.99,1.17,1.8,1.16c0.78-0.01,1.2-0.61,1.44-1.28
	c0.2-0.54,0.35-1.11,0.45-1.68c0.82-4.45,1.14-8.96,1.44-13.47c0.02-0.34-0.08-0.72,0.18-1.09c1.32,2.12,2.61,4.18,3.88,6.24
	c0.1,0.17,0.27,0.43,0.21,0.55c-0.61,1.26,0.41,1.62,1.1,2.27c1.32,1.26,2.65,2.51,2.09,4.73c-0.34,1.35-0.19,2.79,0.57,4.08
	c0.41,0.69,0.96,1.07,1.78,0.93c0.79-0.14,0.99-0.75,1.09-1.43c0.05-0.3,0.02-0.62,0.25-0.88c0.34,0.17,0.38,0.55,0.56,0.83
	c1.1,1.64,1.78,3.57,3.32,4.91c1.05,0.91,2.21,1.65,3.69,1.51c1-0.09,1.4-0.69,1.12-1.63c-0.15-0.52-0.37-1.03-0.63-1.51
	c-1.78-3.34-4.03-6.35-6.41-9.28c-0.84-1.03-0.46-2.36,0.77-2.77c1.69-0.56,3.38-1.09,5.06-1.68c0.5-0.18,0.74-0.12,0.84,0.43
	c0.35,2.08,0.72,4.15,1.08,6.23c0.34,1.95,0.57,3.92,1.39,5.75c0.37,0.82,0.88,1.43,1.89,1.17c0.95-0.24,1.23-0.99,1.27-1.88
	c0.05-1.24-0.13-2.46-0.32-3.68c-0.44-2.9-0.87-5.79-1.35-8.68c-0.11-0.68,0.23-1.03,0.74-1.11c0.7-0.11,0.44,0.55,0.47,0.88
	c0.24,2.45,0.4,4.92,0.68,7.36c0.16,1.42,0.43,2.85,1.24,4.09c0.39,0.6,0.95,0.87,1.67,0.76c0.65-0.11,0.98-0.54,1.19-1.13
	c0.24-0.67,0.21-1.35,0.18-2.03c-0.12-3.46-0.26-6.91-0.4-10.37c-0.03-0.67,0.08-1.24,0.57-1.78c0.34-0.38,0.84-0.96,0.16-1.5
	c-1.15-0.9-0.69-2.11-0.78-3.32c0.48,0.26,0.57,0.64,0.74,0.95c1.07,1.99,2.09,4.01,3.21,5.97c2.02,3.54,3.72,7.24,5.31,10.98
	c0.38,0.88,0.83,1.73,1.54,2.41c0.57,0.54,1.2,0.64,1.87,0.21c0.65-0.42,1.5-0.72,1.28-1.75c-0.6-2.81-1.01-5.66-1.28-8.52
	c-0.12-1.27-0.58-2.53-0.19-3.82c0,0,0-0.01,0-0.01l-0.06,0.03c0,0,0.05-0.05,0.05-0.05s0.01,0.01,0.01,0.01c0,0,0,0.01,0,0.01
	c0.44,1.53,1.08,2.99,2.52,3.79c0.48,0.27,0.73,0.49,0.84,0.98c0.71,3.19,2.18,6.03,3.98,8.72c1.19,1.78,2.73,3.1,4.81,3.82
	c1.82,0.63,2.23,0.54,3.22-1.15c0.61-1.04,1.01-2.19,1.52-3.37c0.76,2.06,1.22,2.36,3.37,2.36c0.45,0,0.94-0.13,1.33,0.02
	c0.99,0.38,1.82,0.02,2.77-0.19c3.52-0.77,7.13-0.89,10.72-0.95c5.66-0.1,11.31-0.03,16.87,1.14c5.93,1.24,11.76,2.84,17.06,5.92
	c0.77,0.45,1.62,0.71,2.5,0.9c1.73,0.36,2.23-0.11,1.89-1.86c-0.49-2.48-2.2-4.03-4.14-5.39c-0.74-0.52-1.54-0.96-2.42-1.51
	c0.4-0.16,0.64-0.26,0.89-0.36c3.64-1.53,6.95-3.57,9.58-6.54c2.16-2.44,3-5.35,2.61-8.57C178.28,30.79,176.23,28.49,173.67,26.56z
	 M68.85,27.71c-0.78,2.9-1.53,5.81-2.29,8.72c-0.08,0.3-0.12,0.65-0.49,0.69c-0.32,0.03-0.44-0.28-0.58-0.51
	c-1.44-2.25-2.86-4.51-4.33-6.73c-0.35-0.54-0.3-0.76,0.26-1.08c2.74-1.57,5.12-3.62,7.53-5.63c0.51-0.42,0.74-1.13,1.62-1.63
	C69.94,23.78,69.38,25.74,68.85,27.71z M74.96,33.92c-1.18,0.42-2.36,0.83-3.74,1.32c0.95-3.15,1.85-6.16,2.76-9.17
	c0.07-0.01,0.13-0.02,0.2-0.02c0.42,2.34,0.82,4.69,1.27,7.02C75.53,33.55,75.35,33.78,74.96,33.92z M122.68,20.82
	c-0.71,6.36-1.53,12.7-1.93,19.09c-0.11,1.78-0.12,3.56-0.07,5.34c0.02,0.74-0.17,1.03-0.92,1.1c-1.44,0.13-2.72,0.66-3.81,1.98
	c0.57-1.89,1.12-3.56,1.59-5.26c1.06-3.83,1.72-7.74,2.04-11.7c0.12-1.47-0.53-2.82-1.5-3.92c-0.65-0.74-1.59-0.51-2.41-0.27
	c-2.46,0.73-4.37,2.36-6.27,3.98c-1.11,0.94-2.04,2.03-2.52,3.43c-0.26,0.76-0.51,1.56,0.03,2.26c0.57,0.74,1.45,0.53,2.2,0.39
	c1.67-0.3,3.14-1.13,4.59-1.97c0.19-0.11,0.35-0.33,0.7-0.26c-0.58,4.55-1.36,9.05-2.61,13.46c-0.24,0.84-0.6,0.93-1.29,0.45
	c-1.01-0.71-1.69-1.69-2.28-2.74c-1.9-3.41-2.46-7.11-2.1-10.92c0.87-9.33,5.6-16.48,12.8-22.18c0.35-0.28,0.73-0.5,1.11-0.74
	c0.14-0.09,0.3-0.16,0.54-0.3c0.17,0.58,0.33,1.11,0.48,1.65c0.21,0.76,0.32,1.61,0.82,2.19C123.14,17.39,122.87,19.09,122.68,20.82
	z M135.37,45.11c-2.09,0.16-4.17,0.32-6.31,0.25c1.93-1.35,3.87-2.69,5.91-4.11c0.1,1.21,0.4,2.21,0.71,3.21
	C135.77,44.78,135.87,45.07,135.37,45.11z M142.6,45.05c0.96-0.71,1.87-0.99,2.72-1.35c2.4-1,4.91-1.65,7.41-2.33
	c0.49-0.13,0.73-0.1,0.9,0.44c0.51,1.56,1.17,3.06,2.34,4.62C151.47,45.59,147.15,45.33,142.6,45.05z M172.72,38.05
	c-1.82,2.93-4.18,5.34-7.12,7.13c-2.29,1.39-3.79,1.01-5.41-1.12c-0.94-1.24-1.67-2.58-1.8-4.18c-0.1-1.21-0.58-2.32-0.91-3.46
	c-0.29-1-0.28-1.97,0.09-2.91c0.21-0.53,0.18-0.91-0.19-1.3c-0.37-0.4-0.81-0.28-1.24-0.16c-1.65,0.47-2.81,2.08-3,4.14
	c-0.19,2.05-0.19,2.09-2.22,2.51c-3.6,0.75-7.07,1.85-10.41,3.37c-0.76,0.34-0.88,0.16-0.77-0.58c0.44-2.98,0.86-5.96,1.27-8.94
	c0.07-0.48,0.27-0.7,0.76-0.79c2.29-0.43,4.58-0.78,6.89-1.03c2-0.22,3.74-1.01,5.13-2.52c0.54-0.59,0.37-0.96-0.31-1.21
	c-1.01-0.36-2.05-0.55-3.11-0.6c-2.4-0.11-4.79,0.06-7.18,0.25c-1.12,0.09-1.14,0.1-0.87-1.07c0.69-3.03,1.4-6.06,2.08-9.09
	c0.3-1.34,0.52-2.69,0.62-4.05c0.03-0.47,0.14-0.84,0.7-0.97c3.59-0.85,7.07-2.07,10.62-3.08c0.23-0.07,0.46-0.13,0.74,0.03
	c-0.53,1.28-1.09,2.57-1.25,3.97c-0.6,5.26,1.6,9.27,5.79,12.2c2.52,1.76,5.11,3.44,7.55,5.31c1.77,1.36,3.39,2.88,3.99,5.19
	C173.42,36.18,173.29,37.14,172.72,38.05z"/>
</svg>
