<?xml version="1.0" encoding="utf-8"?>
<!-- Generator: Adobe Illustrator 23.0.5, SVG Export Plug-In . SVG Version: 6.00 Build 0)  -->
<svg version="1.1" id="Layer_1" xmlns="http://www.w3.org/2000/svg" xmlns:xlink="http://www.w3.org/1999/xlink" x="0px" y="0px"
	 viewBox="0 0 161.42 110.53" style="enable-background:new 0 0 161.42 110.53;" xml:space="preserve">
<style type="text/css">
	.st0{fill:#264E68;}
</style>
<g>
	<path class="st0" d="M64.59,45.72c0-1.23,0-2.45-0.01-3.68c0-0.05-0.01-0.1-0.01-0.15c-0.04-0.88-0.08-1.76-0.12-2.63
		c0.55,0.48,0.09,1.15,0.46,1.72c0.68-1.17,0.76-2.32,0.9-3.49c0.13-1.1-0.36-1.85-1.68-2.33c-0.04-0.04-0.05-0.08-0.03-0.12
		c0.27-0.43,0.24-0.9,0.22-1.35c-0.01-0.24,0.14-0.59-0.29-0.66c-0.37-0.05-0.36,0.32-0.51,0.5c-0.46,0.59-0.53,1.47-1.44,1.7
		c-1.29,0.33-1.38,1.01-1.48,1.77c-0.19,1.51-1.14,2.77-2.38,3.91c-2.54,2.34-5.73,4.25-8.24,6.61c-1.36,1.28-3.31,2.33-3.17,4.25
		c0.04,0.47-0.46,0.57-0.99,0.2c-0.28-0.19-0.36-0.7-1.01-0.42c-0.85-0.49-1.16-1.15-0.49-1.68c1.36-1.06,1.3-2.32,1.36-3.63
		c0.24-5.42,0.54-10.85,0.8-16.27c0.01-0.26,0.16-0.55-0.18-0.81c-0.41,0.19-0.28,0.5-0.3,0.74c-0.27,3.61-0.52,7.22-1.17,10.81
		c-0.52,2.9-1.04,5.81-2.64,8.53c-0.36,0.61-0.78,1.19-1.33,1.72c-1.15,1.11-2.76,1.3-4.47,1.13c-1.3-0.13-1.94-0.9-2.43-1.8
		c-0.27,0.36-0.5,0.65-0.72,0.95c-0.45-0.6-0.93-0.65-1.75-0.04c-2.06,1.53-3.92,3.2-5.73,4.89c-1.5,1.4-1.67,1.52-4.16,1
		c0.06-0.2,0.31-0.26,0.48-0.37c0.94-0.63,1.89-1.26,2.8-1.91c0.34-0.24,0.68-0.55-0.14-0.69c1.83-1.53,3.63-3.07,5.07-4.82
		c0.48-0.59,0.94-1.19,1.25-1.84c1.1-2.31-0.35-4.74-3.41-5.68c-0.82-0.25-1.68-0.44-2.53-0.66c0.56-0.43,0.06-0.63-0.35-0.79
		c-0.99-0.38-1.45-0.95-1.3-1.77c3.38,0.62,6.74,1.26,9.59,3.21c-0.35-4.54-0.2-8.85-0.42-13.18c-0.64,0.82-1.15,1.64-1.68,2.47
		c-0.28,0.44-0.56,0.88-1.05,1.22c-0.54,0.37-1.22,0.51-1.92,0.39c-0.76-0.12-0.5-0.65-0.61-1.02c-0.14-0.43-0.09-0.86,0.01-1.29
		c0.31-1.39,1.03-2.68,1.79-3.97c0.18-0.31,0.49-0.59,0.46-1.04c-0.57,0.47-1.07,0.87-1.56,1.28c-0.29-0.88-0.93-0.5-1.53-0.22
		c-0.95,0.44-1.76,0.34-2.16-0.29c-0.13-0.21-0.21-0.43-0.31-0.65c1.36-1.74,2.95-3.37,4.86-4.81c0.33-0.25,0.77-0.43,1.2-0.59
		c1.46-0.55,2.57-0.27,3.19,0.84c0.3,0.53,0.45,0.9,1.49,0.7c0.94-0.18,1.7,0.32,2.08,1c0.4,0.72,0.5,1.48,0.48,2.25
		c-0.13,6.45-0.3,12.89-0.18,19.34c0.03,1.47,0.17,2.94,0.66,4.45c0.63-0.26,0.74-0.7,0.93-1.08c1.44-2.84,2.06-5.81,2.3-8.82
		c0.41-5.03,0.68-10.07,1.09-15.11c0.14-1.74,0.2-3.52,1.2-5.17c0.26-0.43,0.41-1.03,1.21-1.01c0.7,0.02,1.12,0.48,1.51,0.92
		c1.19,1.33,1.59,2.74,1.05,4.29c-0.1,0.28-0.23,0.59-0.03,0.95c0.68-0.31,1.34-0.61,1.99-0.91c1.99-0.91,4.19-1.42,6.48-1.73
		c0.65-0.09,1.31-0.1,1.96,0c2.47,0.37,3.56,1.7,2.78,3.45c-1.28,2.89-3.33,5.47-5.86,7.86c-0.25,0.24-0.5,0.48-0.87,0.84
		c2.46,0.09,4.5,0.62,5.87,2.44c0.27-1.28,0.51-2.31,0.71-3.34c0.53-2.75,1.11-5.48,1.88-8.2c0.23-0.81,0.63-1.53,1.4-2.18
		c0.37-0.31,0.69-0.37,1.15-0.31c1.13,0.15,2.19,0.95,2.39,1.9c0.23,1.08,0.39,2.17,0.35,3.27c-1.63,0.32-2.41,1.88-1.61,3.27
		c0.6,1.04,0.96,2.1,0.89,3.25c-0.14,2.45-0.23,4.91-0.37,7.36c-0.02,0.34,0,0.67,0.22,0.96c0.95,1.3,0.84,2.73,0.9,4.13
		c0.03,0.65-0.19,1.3-0.02,1.97c0.12,0.45-0.13,0.79-0.76,0.95c-0.29,0.08-0.55,0.2-0.83,0.31c-0.86-0.39-1.03-1.04-1.16-1.7
		c-0.01-0.1-0.02-0.2-0.03-0.29c0-0.15,0-0.31,0-0.46C64.77,46.23,64.77,45.98,64.59,45.72z M48.78,45.8
		c0.28,0.07,0.37-0.02,0.45-0.1c1.98-1.76,4.01-3.5,5.78-5.38c0.66-0.69,1.17-1.44,1.33-2.29c0.14-0.72-0.23-1.23-1.14-1.53
		c-0.64-0.22-1.31-0.29-2.01-0.32c-0.82-0.04-1.7,0.01-2.46-0.18c-1-0.25-1.08,0.06-1.11,0.64c-0.09,1.5-0.25,2.99-0.39,4.49
		C49.09,42.7,48.93,44.26,48.78,45.8z M50.94,31.46c1.86-1.92,3.6-3.87,5.16-5.91c0.32-0.42,0.07-0.46-0.42-0.47
		c-1.44-0.01-2.76,0.4-4.12,0.66c-0.3,0.06-0.44,0.22-0.43,0.45C51.13,27.95,51.01,29.7,50.94,31.46z"/>
	<path class="st0" d="M107.26,48.29c-2.92-0.55-4.19-2.29-5.56-4.09c-0.08,0.64-0.18,1.29-0.22,1.93c-0.06,0.91-0.09,1.83-0.24,2.74
		c-0.08,0.49-0.45,0.7-1.02,0.83c-0.6,0.14-1.07,0.04-1.48-0.32c-0.5-0.44-0.71-0.94-0.58-1.49c0.27-1.16,0.19-2.34,0.2-3.5
		c0.03-4.22,0.21-8.45,0.01-12.67c-0.04-0.74,0.1-1.48,0.34-2.19c0.15-0.46-0.03-0.61-0.65-0.7c-2.39-0.34-2.55-0.3-3.81,1.21
		c-0.25,0.3-0.51,0.6-0.77,0.9c-0.13-0.25-0.2-0.57-0.68-0.59c-0.47-0.02-0.64,0.28-0.78,0.52c-0.57,0.95-0.75,1.99-1.16,2.97
		c-0.4,0.95-0.37,1.86,0.35,2.76c0.54,0.68,0.31,1.32-0.58,1.79c-1.64-1.01-3.48-1.79-5.28-2.62c-1.39-0.64-2.77-1.32-3.6-2.43
		c0.03-0.57-0.18-1.1-0.5-1.62c-0.78-1.29-0.56-2.66,0.2-3.82c1.11-1.7,2.64-3.25,4.01-4.86c0.23-0.26,0.11-0.42-0.16-0.58
		c0.42-0.48,1-0.84,1.63-1.16c1.93-0.97,4.28-0.3,4.72,1.39c0.46,1.81-0.36,3.42-1.79,4.87c-0.4,0.41-1.06,0.45-1.71,0.31
		c-0.87-0.19-0.37-0.78-0.66-1.25c-1.22,1.27-2.3,2.52-2.59,4.05c-0.17,0.89,0.37,1.64,1.2,2.27c0.74,0.57,1.57,1.04,2.61,1.49
		c-0.33-3.08,1.39-5.65,3.01-8.23c1.6-2.56,2.97-5.21,4.99-7.62c0.34-0.41,0.7-0.82,1.13-1.18c1.1-0.92,2.29-1.12,3.38-0.62
		c1.04,0.47,1.61,1.56,0.95,2.5c-0.6,0.86-0.65,1.66-0.5,2.55c0.15,0.9-0.54,1.56-1.32,2.15c-1.46,1.09-2.76,2.28-3.96,3.53
		c-0.36,0.38-0.48,0.61,0.33,0.67c0.55,0.04,1.09,0.14,1.63,0.22c0.43,0.06,0.66-0.03,0.89-0.34c0.73-0.97,2.67-1.27,3.81-0.54
		c0.6,0.38,0.73,0.22,0.98-0.18c0.5-0.81,1.03-1.61,1.57-2.41c0.58-0.85,1.4-1.57,2.38-2.19c2.37-1.49,5.47-1.15,7.1,0.81
		c1.18,1.42,1.62,3.02,1.92,4.64c0.2,1.06,0.28,2.13,0.43,3.19c0.04,0.24-0.17,0.64,0.43,0.64c0.57,0,0.94-0.19,0.98-0.69
		c0.11-1.35,0.3-2.69,0.43-4.04c0.09-0.91,0.14-1.83,0.21-2.75c0.03-0.41-0.02-0.8-0.25-1.19c-0.52-0.93-0.16-1.62,0.94-1.95
		c1.24-0.38,2.64,0.01,3.17,0.84c0.77,1.2,0.91,2.5,1.07,3.79c0.43,3.32,0.84,6.64,1.26,9.96c0.02,0.13,0,0.25,0,0.38
		c-0.68,0.07-0.58,0.58-0.88,0.86c-0.17,0.15-0.27,0.4-0.6,0.36c-0.32-0.04-0.34-0.29-0.44-0.47c-0.21-0.41,0.03-0.88-0.34-1.43
		c-0.26,0.55-0.16,0.94-0.07,1.33c0.45,2.04,0.82,4.08-0.3,6.07c-0.29-1.55-0.58-3.1-0.85-4.65c-0.26-1.52-0.49-3.05-0.98-4.57
		c-0.14,1.01-0.3,2.02-0.42,3.03c-0.51,4.28-1.03,8.56-1.69,12.83c-0.06,0.36,0,0.74-0.63,0.84c-0.57,0.09-1.01-0.09-1.35-0.41
		c-0.74-0.7-0.99-1.5-0.86-2.37c0.25-1.62,0.52-3.23,0.78-4.85c0.27-0.01,0.7,0.01,0.75-0.17c0.22-0.82,1.23-1.31,1.71-2.18
		c-0.77,0.2-0.96-0.09-1.28-0.42c-0.72-0.72-0.64-1.47-0.47-2.25c0.13-0.63,0.33-1.25,0.48-1.87c0.04-0.16,0.07-0.4-0.26-0.42
		c-0.23-0.02-0.33,0.16-0.4,0.31c-0.28,0.57-0.54,1.15-0.84,1.71c-0.49,0.95-1.86,1.13-2.72,0.35c-0.2-0.18-0.44-0.23-0.72-0.25
		c0.01-0.05,0.02-0.1,0.03-0.16c0.01-0.05,0.02-0.1,0.02-0.15c-0.09-0.17-0.3-0.13-0.47-0.16c-0.49-0.63-1.24-0.75-2.14-0.59
		c-0.76-0.56-0.63-1.07,0.13-1.56c0.49-0.32,0.93-0.74,1.5-0.93c1.96-0.65,2.13-1.75,1.77-3.13c-0.48-1.83-0.95-3.64-2.23-5.29
		c-0.46-0.59-0.88-0.59-1.46-0.08c-1.06,0.94-1.72,2.03-2.29,3.15c-2.23,4.37-2.66,8.93-2.46,13.53c0.05,1.16,0.27,2.35,1.38,3.3
		c-0.46,0.35-0.22,0.56,0.25,0.75c0.95,0.38,1.95,0.66,3.17,0.71c-0.81,0.53-1.15,0.63-2.18,0.68
		C107.86,47.88,107.38,47.84,107.26,48.29z M119.98,39.62c-0.5-0.21,0.23-0.92-0.64-1.01c-0.4-0.04-0.46,0.26-0.39,0.5
		c0.1,0.34,0.17,0.73,0.73,0.84C119.96,40.01,120.02,39.85,119.98,39.62z"/>
	<path class="st0" d="M142.28,74.56c2.82,2.01,4.92,4.27,4.78,7.33c-0.06,1.44-0.89,2.65-1.77,3.92c-1.26,1.82-3.26,2.98-5.53,3.95
		c-1.66,0.71-3.54,0.89-5.45,0.91c-2.03,0.02-3.98-0.22-5.77-0.92c-2.3-0.9-5.26-2.89-4.9-5.11c0.06-0.38,0.12-0.77,0.29-1.12
		c0.27-0.56,0.02-0.62-0.64-0.47c-2.44,0.57-4.87,1.14-7.32,1.68c-1.98,0.44-3.98,0.87-5.98,1.26c-1.73,0.34-2.67-0.2-2.75-1.51
		c-0.08-1.25,0.22-2.48,0.46-3.8c-0.47,0.19-0.59,0.49-0.78,0.73c-1.84,2.19-4.62,3.34-7.97,3.71c-1.89,0.21-3.71-0.12-4.78-1.46
		c-1.03-1.3-0.9-2.63,0.19-3.9c0.21-0.24,0.47-0.44,0.8-0.58c0.6-0.26,1.13-0.23,1.71,0.1c0.58,0.32,0.55,0.69,0.31,1.08
		c-0.42,0.68-0.43,1.29,0.37,1.8c0.84,0.53,1.77,0.5,2.7,0.14c1.36-0.53,2.55-1.24,3.46-2.15c1.15-1.16,1.35-2.42,0.56-3.75
		c-0.87-1.48-2.17-2.71-3.77-3.79c-1.3-0.88-2.67-1.69-3.87-2.66c-2.53-2.04-3.17-4.36-1.75-6.93c1.14-2.07,2.86-3.88,4.88-5.54
		c0.1,0.32,1.32-0.01,0.75,0.42c-1.01,0.76-1.14,1.84-2.08,2.6c-0.28,0.23-1.02,0.7-0.4,0.98c0.49,0.22,0.83-0.39,1.09-0.73
		c1.03-1.37,1.27-1.44,3.16-0.95c-0.18,0.18-0.36,0.37-0.55,0.55c-1.26,1.21-2.57,2.4-3.53,3.76c-0.99,1.42-0.9,2.72,0.63,3.94
		c0.73,0.58,1.52,1.11,2.36,1.6c2.9,1.7,5.37,3.66,6.98,6.15c0.02,0.03,0.12,0.03,0.25,0.06c0.19-1.27,0.38-2.52,0.57-3.77
		c0.53-3.36,0.88-6.74,1.05-10.12c0.77,0.01,1.47,0.08,1.57,0.8c0.02,0.13,0.11,0.27,0.32,0.23c0.1-0.02,0.21-0.13,0.23-0.22
		c0.32-1.2,1.32-1.64,2.9-1.46c-0.13,3.31-0.67,6.6-1.31,9.88c-0.12,0.61-0.04,0.74,0.84,0.6c2.93-0.48,5.88-0.88,8.86-1.18
		c0.61-0.06,1.21-0.06,1.61,0.4c-1.43,0.61-2.84,1.16-4.17,1.79c-2.03,0.95-4.14,1.67-6.61,1.57c-0.66-0.03-0.93,0.17-1.13,0.65
		c-0.58,1.41-0.2,3.02-1.56,4.27c-0.04,0.04-0.03,0.1-0.04,0.15c-0.24,1.05-0.48,2.11-0.73,3.16c-0.13,0.55,0.05,0.77,0.87,0.54
		c2.26-0.63,4.53-1.23,6.79-1.85c4.15-1.13,8.35-2.11,12.69-2.78c0.85-0.13,1.72-0.17,2.56,0.04c0.22,0.06,0.66,0.11,0.35,0.4
		c-0.89,0.8-1.48,1.76-2.6,2.44c-0.74,0.45-1.42,0.98-2.02,1.53c-1.56,1.41-1.23,2.68,0.88,3.63c2.94,1.32,6.15,1.21,8.68-0.58
		c3.92-2.78,4.79-5.77,0.51-8.68c-0.2-0.14-0.41-0.28-0.61-0.42c-1.5-1.06-3.27-1.87-4.96-2.75c-0.14-0.08-0.28-0.15-0.43-0.23
		c-0.25-0.05-0.45-0.14-0.6-0.29c-0.01-0.33-0.67-0.67-0.14-0.96c0.44-0.24,1.02,0.02,1.32,0.22c1.04,0.7,2.44,1.04,3.37,1.84
		c0.6,0.51,1.39,1.07,2.2,1c0.79-0.07,2.03-0.03,2.29-0.99C142.04,74.63,142.19,74.6,142.28,74.56z M112.58,74.58
		c-0.09,0.54-0.18,1.07-0.29,1.72C112.71,75.69,112.61,75.13,112.58,74.58z M113.36,70.84c-0.14,0.28-0.36,0.62-0.17,1.1
		C113.26,71.48,113.31,71.13,113.36,70.84z"/>
	<path class="st0" d="M29.91,55.41c4.21,0.21,7.82,1.34,10.59,3.76c0.75,0.66,1.32,1.41,1.96,2.2c0.23-0.44,0.12-0.73-0.31-0.98
		c-0.36-0.21-0.65-0.47-0.8-0.78c-0.2-0.4-0.24-0.85,0.4-1.05c0.81-0.25,1.61-0.52,2.52-0.64c2.71-0.36,5.39-0.84,8.08-1.26
		c3.78-0.59,7.54-1.22,11.39-1.53c0.41-0.03,0.82-0.03,1.23-0.05c0.28,0.11,0.55,0.11,0.82-0.01c0.14,0,0.28,0,0.42,0
		c0.32,0.53,0.17,0.84-0.59,1.19c-1,0.45-2.05,0.69-3.15,0.89c-1,0.18-2.01,0.33-3.02,0.49c-0.96,0.15-1.55,0.73-2.57,1.09
		c0.57,0.12,0.94-0.03,1.24,0.14c-2.99,0.68-5.96,1.41-9.05,1.83c-0.94,0.13-1.18,0.38-1.17,1.07c0.07,3.64-0.46,7.26-0.91,10.88
		c-0.17,1.35-0.2,1.36,1.52,0.9c1.95-0.51,3.88-1.07,6.02-0.94c1.53-0.11,2.96,0.27,4.42,0.48c0.25,0.26,0.55,0.1,0.84,0.05
		c2.33-0.35,4.67-0.67,7.07-0.41c1.72,0.44,2.98-0.14,4.11-1.01c0.41,0.1,0.73-0.09,1.08-0.19c1.22-0.34,2.4-0.74,3.68-0.96
		c0.84-0.14,1.55,0.01,2.25,0.33c0.61,0.28,0.7,0.54,0.04,0.83c-0.53,0.23-1.08,0.44-1.62,0.66c0.21-0.52-0.04-0.7-0.71-0.48
		c-1.32,0.43-2.58,0.96-3.96,1.3c-0.37,0.09-0.64,0.34-0.76,0.6c-0.24,0.55-0.78,0.73-1.48,0.8c-0.34,0.04-0.67,0.13-1,0.18
		c-0.93,0.13-1.32,0.51-1.27,1.23c0.07,1.07,0.02,2.14,0.01,3.21c0,0.4,0.09,0.82-0.21,1.19c-0.02-1.39-0.03-2.77-0.05-4.16
		c-0.01-1.06-0.01-1.06-1.39-0.9c0.07-0.26,0.71-0.35,0.41-0.7c-0.24-0.27-0.67-0.19-1.04-0.2c-0.1,0-0.21,0-0.31,0.01
		c-2.5,0.39-5.11,0.55-7.16,1.88c-0.12,0.08-0.33,0.18-0.45,0.16c-1.06-0.24-1.82,0.3-2.69,0.54c-0.06-0.17-0.15-0.32-0.37-0.43
		c-1.07-0.57-1.07-0.94-0.01-1.55c0.26-0.15,0.58-0.27,0.49-0.57c-0.32-0.13-0.55,0.03-0.78,0.12c-1.93,0.73-3.95,1.31-6.04,1.72
		c-0.83,0.16-1.07,0.49-1.1,1.07c-0.07,1.42-0.17,2.84-0.44,4.24c-0.4,0.08-0.65,0.27-0.73,0.57c-0.04,0.16,0.01,0.31,0.22,0.39
		c0.23,0.08,0.38-0.01,0.49-0.16c0.33,0.08,0.6-0.05,0.88-0.12c2.25-0.56,4.55-0.88,6.92-1.01c0.04-0.04,0.08-0.09,0.13-0.13
		c0.06-0.51,0.12-1.02,0.19-1.53c0.13,0.96,0.23,1.92,2.1,1.82c0.31-0.02,0.6,0.25,0.64,0.53c0.05,0.33-0.3,0.43-0.63,0.51
		c-0.39,0.1-0.79,0.16-1.18,0.26c-0.5,0.13-1.11,0.14-1.38,0.58c-2.3,0.53-4.54,1.16-6.75,1.85c-1.08,0.34-1.94,1-3.25,1.01
		c-0.49,0-0.82-0.06-1.04-0.33c-0.33-0.41-0.64-0.82-1.07-1.19c-0.35-0.3-0.11-0.56,0.27-0.76c0.32-0.18,0.76-0.26,0.88-0.6
		c0.96,0.07,0.88-0.97,1.89-0.87c-0.65-0.74-0.51-1.53-0.64-2.27c-0.11-0.62-0.35-0.91-1.23-0.68c0-0.32,0-0.63,0-0.95
		c0.82-0.06,0.98-0.49,0.96-0.98c-0.02-0.51-0.54-0.51-1.04-0.51c-0.06,0-0.12,0-0.17-0.01c-0.07-0.21-0.26-0.35-0.47-0.49
		c-1.33-0.87-1.24-1.28,0.44-1.8c0.45-0.14,0.78-0.32,0.95-0.65c1.15-2.2,2.09-4.42,1.56-6.83c-0.43-1.94-1.32-3.76-2.48-5.55
		c-0.53,0.29-0.58,0.61-0.4,0.98c0.7,1.42,0.35,2.96,0.95,4.41c0.23,0.54,0.11,1.25-0.18,1.78c-0.26,0.48-0.41,0.89-0.24,1.38
		c0.09,0.26-0.02,0.5-0.14,0.74c-0.49,0.98-1.06,1.94-1.36,2.96c-0.12,0.4-0.37,0.77-0.8,1.05c-0.25,0.16-0.46,0.48-0.84,0.33
		c-0.43-0.17-0.04-0.45-0.01-0.68c0.06-0.42,0.43-1.01-0.74-0.85c-0.01-0.36,0.22-0.68,0.37-1.01c1.36-2.96,1.16-5.85-0.8-8.62
		c-1.8-2.55-4.51-4.19-8.55-4.45c-0.83-0.05-1.08,0.06-1.06,0.76c0.09,4.27,0.09,8.55,0.11,12.82c0.02,1.44-0.17,2.88,0.12,4.32
		c0.01,0.41,0.02,0.82,0.02,1.23c-0.66,0.12-1.24,0.48-2.01,0.25c-0.24-0.07-0.49,0.17-0.58,0.36c-0.26,0.57-0.85,0.81-1.59,0.94
		c-0.03-0.16-0.06-0.32-0.09-0.48c0.9-0.53,0.66-1.29,0.51-1.92c-0.41-1.75-0.36-3.5-0.35-5.25c0.01-1.12-0.12-2.23-0.25-3.35
		c-0.27-2.26-0.43-4.52,0.33-6.75c0.18-0.54,0.14-1.03-0.3-1.53c-0.7-0.78-0.32-1.8-0.96-2.62c-0.03-0.04,0.05-0.14,0.12-0.2
		c0.47-0.4,0.81-0.9,1.47-1.16c1.3-0.52,2.55-1.12,4.01-1.4C29.65,55.74,29.84,55.63,29.91,55.41z M44.86,76.88l-0.06,0.03
		l0.07,0.02L44.86,76.88z"/>
	<path class="st0" d="M102.3,59.79c-1.88-0.5-2.12-0.42-3.16,0.95c-0.26,0.34-0.6,0.95-1.09,0.73c-0.63-0.28,0.11-0.75,0.4-0.98
		c0.93-0.77,1.06-1.84,2.08-2.6c0.57-0.43-0.65-0.1-0.75-0.42c0.38-0.33,0.76-0.65,1.14-0.98c0.04,0.03,0.08,0.06,0.12,0.09
		c0.12,0.34,0.4,0.44,0.83,0.29c0.33-0.12,0.79-0.2,0.81-0.49c0.03-0.38-0.5-0.31-0.82-0.41c-0.04-0.03-0.08-0.06-0.12-0.09
		c1.4-1.02,2.87-1.99,4.73-2.55c2-0.6,3.5,0,3.88,1.58c0.18,0.76,0.17,1.54,0.25,2.4c0.47-0.24,0.51-0.54,0.69-0.76
		c0.77-0.95,2.3-1.35,3.69-0.95c0.79,0.23,0.94,0.6,0.76,1.21c-0.28,0.89-0.21,0.88,1.02,0.76c3.05-0.28,6.09-0.59,9.17-0.65
		c0.14,0.06,0.27,0.05,0.4-0.02c1.04-0.06,2.07-0.12,3.11-0.19c0.61,0.13,1.27,0.1,1.62-0.26c0.63-0.67,1.15-0.41,1.8-0.07
		c0.73,0.38,1.53,0.59,2.43,0.33c0.48,0.22,0.93-0.01,1.39-0.06c0.04,0.2,0.08,0.44,0.34,0.53c1.12,0.41,1.71,1.21,2.55,1.82
		c0.02,0.1,0.04,0.21,0.06,0.31c-0.1,0.07-0.29,0.14-0.28,0.2c0.1,0.88-0.43,1.68-0.59,2.53c-0.19,1.04-0.93,1.92-2.25,2.15
		c-0.96,0.17-2.1,0.23-3.15,0.02c-0.49-0.84-0.99-1.67-1.45-2.52c-0.2-0.36-0.38-0.52-0.84-0.17c-1.52,1.19-2.49,2.56-2.57,4.21
		c-0.05,1.18,0.92,2.01,2.13,2.65c1.6,0.84,3.28,1.59,4.93,2.37c2.37,1.13,4.74,2.27,6.72,3.78c-0.09,0.04-0.24,0.07-0.26,0.12
		c-0.25,0.95-1.49,0.92-2.29,0.99c-0.82,0.07-1.6-0.49-2.2-1c-0.93-0.8-2.33-1.13-3.37-1.84c-0.31-0.21-0.89-0.47-1.32-0.22
		c-0.53,0.3,0.13,0.63,0.14,0.96c-2.32-0.96-4.56-2.01-6.55-3.32c-1.87-1.23-2.58-2.82-2.3-4.61c0.3-1.9,1.25-3.64,2.81-5.18
		c0.14-0.14,0.47-0.25,0.28-0.55c-3.91,0.21-7.79,0.64-11.66,1.12c-0.23,0.03-0.35,0.14-0.45,0.29c-1.58-0.18-2.59,0.27-2.9,1.46
		c-0.02,0.08-0.14,0.2-0.23,0.22c-0.21,0.04-0.3-0.1-0.32-0.23c-0.1-0.72-0.81-0.8-1.57-0.8c-0.06-0.01-0.13-0.02-0.19-0.03
		c-0.11,0.04-0.22,0.08-0.33,0.12c-0.33,0.07-0.65,0.18-0.99,0.22c-1.38,0.14-2.29,0.69-2.92,1.6c-0.46,0.66-1.12,1.22-1.91,1.69
		c-0.57,0.33-1.22,0.58-1.89,0.23c-0.7-0.36-0.53-0.9-0.21-1.38c0.62-0.94,1.27-1.86,1.91-2.79c0.19-0.27,0.44-0.52,0.11-0.84
		c-0.22-0.21,0.08-0.36,0.17-0.54c0.31-0.62,1.03-1.18,0.59-2.1C103.64,58.74,102.97,59.27,102.3,59.79z M134.63,60.12
		c0.34,0.91,0.44,1.73,0.94,2.54C136.17,61.35,135.91,60.56,134.63,60.12z"/>
	<path class="st0" d="M85.29,78.44c-0.5-1.26-0.72-2.56-1.05-3.84c-0.44-1.67-0.86-3.35-1.28-5.02c-0.09,0-0.17,0.01-0.26,0.01
		c-0.1,1.05-0.19,2.1-0.29,3.15c-0.19,2-0.39,4.01-0.59,6.01c-0.05,0.49-0.17,0.97,0.67,1.2c0.46,0.13,0.36,0.35,0.03,0.49
		c-0.92,0.39-0.92,1.03-1.04,1.7c-0.21,1.17,0.15,2.34-0.15,3.49c-0.29,1.09-1.04,1.27-2.22,0.57c-0.87-0.52-0.98-1.24-0.96-2
		c0.02-0.78,0.35-1.55,0.23-2.39c-1.23,0.27-2.41,0.53-3.59,0.8c0.5-0.54,1.41-0.41,2.06-0.7c0.28-0.12,0.8-0.14,0.72-0.45
		c-0.09-0.35-0.61-0.27-0.96-0.25c-0.99,0.07-1.97,0.22-2.96,0.28c-1.11,0.06-1.23-0.08-1.02-0.91c1.62-0.52,3.33-0.82,5.06-1
		c0.83-0.08,1.1-0.33,1.12-0.92c0.07-1.63,0.2-3.25,0.33-4.88c0.3-3.81,0.61-7.62,0.95-11.43c0.07-0.74-0.32-0.81-1.15-0.64
		c-2.12,0.45-4.25,0.86-6.38,1.27c-0.29,0.06-0.51,0.15-0.65,0.34c-1.74,0.24-3.24,0.94-4.89,1.36c-0.3,0-0.6,0-0.89,0
		c-0.11,0.04-0.22,0.08-0.34,0.12c-0.07,0.01-0.14,0.01-0.21,0.02c-0.05-0.28-0.21-0.48-0.63-0.51c-2.15-0.15-4.26-0.03-6.28,0.57
		c-0.44,0.13-0.87,0.16-1.25-0.11c-0.14-0.1-0.22-0.3-0.48-0.22c-0.28,0.09-0.16,0.3-0.2,0.47c-0.14,0.7-0.3,1.4-0.48,2.21
		c-0.62-0.46-0.35-0.91-0.44-1.31c-0.04-0.17,0.03-0.43-0.26-0.44c-0.41-0.02-0.31,0.27-0.34,0.45c-0.11,0.62,0.23,1.27-0.32,1.85
		c0-0.4-0.02-0.8,0-1.2c0.06-0.91,0.19-1.83-0.6-2.64c0.87-0.55,0.95-0.92,0.28-1.24c0.83-0.54,1.83-0.83,2.87-0.98
		c2.78-0.4,5.59-0.7,8.43-0.64c0.56,0.01,0.96-0.04,1.31-0.42c0.41-0.44,1.15-0.54,1.81-0.69c3.17-0.7,6.43-0.92,9.73-0.87
		c0.74,0.01,1.1-0.02,0.91-0.68c-0.18-0.61,0.33-0.95,1.13-1.05c1.37-0.16,2.45,0.32,2.84,1.29c1.34,3.35,2.01,6.81,2.9,10.22
		c0.2,0.77,0.35,1.56,0.52,2.33c-0.4,0.17-0.39,0.43-0.35,0.73c0.07,0.5,0.21,1.01,0.06,1.51c-0.11,0.38,0.26,0.97-0.29,1.1
		c-0.63,0.15-0.52-0.6-1.15-0.91C85.61,75.33,85.87,76.9,85.29,78.44z"/>
	<path class="st0" d="M139.57,59.01c-0.84-0.62-1.43-1.41-2.55-1.82c-0.25-0.09-0.29-0.33-0.34-0.53c1.91-0.6,3.76-1.26,5.38-2.25
		c2.27-1.39,3.3-3.23,3.49-5.34c0.09-0.94-0.45-1.79-1.17-2.56c-0.99-1.06-2.24-1.93-3.65-2.69c-1.65-0.88-3.34-1.73-4.93-2.66
		c-4.21-2.46-4.89-5.96-1.75-9.18c2.65-2.71,6.02-4.83,10.11-6.29c1-0.36,2.08-0.57,3.18-0.66c2.31-0.19,3.51,0.81,3.18,2.5
		c-0.22,1.1-1.02,1.98-1.77,2.87c-1.12,1.35-2.59,2.49-4.33,3.44c-0.63,0.34-1.28,0.53-2.11,0.46c-0.91-0.08-0.96-0.4-0.79-0.94
		c0.37-1.17,1.2-2.15,2.11-3.12c0.15-0.16,0.31-0.32,0.58-0.6c-0.71,0.14-1.13,0.4-1.55,0.63c-2.11,1.17-3.94,2.55-5.58,4.07
		c-1.59,1.48-1.4,2.82,0.47,4.11c0.71,0.49,1.53,0.87,2.34,1.26c2.44,1.18,4.87,2.37,6.7,4.1c3.22,3.04,3.63,7.12,1,10.46
		c-0.15,0.18-0.49,0.37,0.04,0.52l0.01,0c-0.86,0-1.12,0.56-1.59,0.93c-1.62,1.26-3.56,2.2-5.66,2.97
		C140.13,58.81,139.85,58.91,139.57,59.01z"/>
	<path class="st0" d="M24.86,80.45c0.74-0.12,1.33-0.37,1.59-0.94c0.09-0.19,0.34-0.43,0.58-0.36c0.77,0.23,1.35-0.13,2.01-0.25
		c0,2.07,0,4.14,0,6.22c0.12,0.02,0.25,0.03,0.37,0.05c0.99-0.92,2.05-1.81,2.95-2.78c2.51-2.69,4.86-5.46,6.46-8.53
		c1.17-0.15,0.8,0.43,0.74,0.85c-0.03,0.23-0.42,0.51,0.01,0.68c0.38,0.15,0.6-0.17,0.84-0.33c0.43-0.28,0.68-0.65,0.8-1.05
		c0.3-1.03,0.87-1.98,1.36-2.96c0.12-0.25,0.22-0.48,0.14-0.74c-0.16-0.49-0.02-0.9,0.24-1.38c0.29-0.53,0.41-1.25,0.18-1.78
		c-0.61-1.45-0.25-2.99-0.95-4.41c-0.18-0.37-0.13-0.69,0.4-0.98c1.16,1.79,2.05,3.61,2.48,5.55c0.53,2.41-0.41,4.63-1.56,6.83
		c-0.17,0.33-0.5,0.51-0.95,0.65c-1.68,0.52-1.77,0.92-0.44,1.8c0.21,0.14,0.4,0.28,0.47,0.49c-3.37,4.34-7.54,8.22-12.22,11.82
		c-0.5,0.38-0.9,0.84-1.38,1.24c-1.02,0.85-2.04,0.86-3.11,0.06c-0.05-0.04-0.1-0.07-0.16-0.1c-1.6-1.02-1.6-1.02-0.33-2.37
		c0.23-0.24,0.2-0.49,0.17-0.73c-0.16-1.57-0.34-3.15-0.51-4.72c-0.04-0.35-0.06-0.71-0.08-1.06c0-0.05-0.01-0.1-0.01-0.15
		C24.91,80.84,24.88,80.65,24.86,80.45z"/>
	<path class="st0" d="M123.05,43.12c1.12-2,0.75-4.03,0.3-6.07c-0.09-0.4-0.2-0.79,0.07-1.33c0.37,0.54,0.13,1.02,0.34,1.43
		c0.1,0.19,0.12,0.44,0.44,0.47c0.33,0.04,0.43-0.21,0.6-0.36c0.31-0.28,0.2-0.79,0.88-0.86c0.24,2.23,0.48,4.46,0.72,6.69
		c0.05,0,0.1,0.01,0.14,0.01c0.06-0.39,0.17-0.77,0.18-1.16c0.13-6.52,1.9-12.83,4.59-19.02c0.16-0.36,0.36-0.72,0.58-1.06
		c0.47-0.74,1.21-0.93,2.19-0.58c0.39,0.14,0.38,0.4,0.39,0.65c0,0.7-0.24,1.36-0.51,2.02c-1.64,3.97-2.89,8.01-3.71,12.12
		c-0.09,0.43-0.32,0.83-0.27,1.28c0.01,0.08-0.04,0.17-0.06,0.26c-0.03-0.03-0.06-0.09-0.09-0.09c-0.19,0.02-0.17,0.14-0.18,0.23
		c-0.19,1.14-0.42,2.27-0.55,3.41c-0.38,3.32-0.71,6.65-1.06,9.98c-0.04,0.33-0.12,0.65-0.19,0.98c-0.09,0.39,0.17,0.89-0.78,0.94
		c-1.19,0.06-2.04-0.16-2.35-0.79c-0.19-0.38-0.28-0.79-0.35-1.19C123.92,48.42,123.49,45.77,123.05,43.12z M127.22,49.77
		c0,0.41,0,0.82,0,1.42C127.39,50.59,127.35,50.18,127.22,49.77z"/>
	<path class="st0" d="M85.29,78.44c0.58-1.55,0.32-3.11,0.02-4.78c0.63,0.31,0.52,1.05,1.15,0.91c0.56-0.13,0.18-0.72,0.29-1.1
		c0.15-0.51,0.01-1.01-0.06-1.51c-0.04-0.3-0.06-0.56,0.35-0.73c0.48,1.99,0.95,3.99,1.46,6.13c0.26-0.45,0.18-0.77,0.16-1.08
		c-0.4-7.02,0.21-13.99,1.78-20.92c0.17-0.76,0.8-1.06,1.63-1.15c0.67-0.08,1.16,0.18,1.13,0.8c-0.06,1.3-0.42,2.58-0.65,3.86
		c-0.45,2.42-0.65,4.86-1.05,7.29c-0.98,6.01-0.64,12.05-0.75,18.07c-0.01,0.74,0.01,1.47,0.03,2.21c0,0.18,0,0.35-0.22,0.48
		c-0.59,0.36-2.61,0.13-3.03-0.36c-0.21-0.26-0.44-0.54-0.51-0.83C86.43,83.3,85.87,80.87,85.29,78.44z M89.55,83.69
		c0,0.43,0,0.86,0,1.29C89.79,84.55,89.66,84.13,89.55,83.69z"/>
	<path class="st0" d="M29.91,55.41c-0.07,0.22-0.25,0.34-0.56,0.39c-1.46,0.27-2.7,0.88-4.01,1.4c-0.66,0.26-1.01,0.76-1.47,1.16
		c-0.06,0.05-0.15,0.16-0.12,0.2c0.64,0.81,0.26,1.83,0.96,2.62c0.44,0.5,0.48,0.99,0.3,1.53c-0.77,2.23-0.6,4.49-0.33,6.75
		c0.13,1.12,0.26,2.23,0.25,3.35c-0.01,1.75-0.06,3.5,0.35,5.25c0.15,0.63,0.39,1.39-0.51,1.92c-0.64-5.02-1.29-10.03-1.93-15.05
		c-0.1-0.81-0.23-1.62-0.32-2.43c-0.14-1.29-0.33-2.6,0.7-3.81c-1.28,0.56-2.53,1.08-3.96,1.34c-0.48,0.09-0.56,0.53-0.5,0.92
		c0.27,1.54,0.33,3.09,0.23,4.64c-0.04,0.62,0.09,1.28-0.52,1.83c-0.13,0.11-0.12,0.31,0.09,0.4c0.13,0.05,0.35,0.07,0.48,0.03
		c0.21-0.07,0.27-0.25,0.17-0.39c-0.92-1.34-0.24-2.81-0.66-4.19c-0.24-0.79-0.59-1.64-0.4-2.41c0.22-0.9-0.43-1.33-1.02-1.91
		c-1.54-1.52-1.79-3.21-0.98-5c0.7-1.52,2.03-2.71,3.64-3.74c0.64-0.41,1.41-0.68,2.26-0.23c0.85,0.46,0.9,1.06,0.5,1.7
		c-0.41,0.64-0.9,1.26-1.36,1.89c-0.34,0.47-0.7,0.94-1.01,1.42c-0.31,0.48,0.05,0.82,0.49,1.14c0.49,0.35,0.83,0.01,1.17-0.15
		c1.07-0.52,1.94-1.22,2.9-1.84c0.82,0.15,0.47,0.46,0.14,0.69c-0.92,0.65-1.87,1.27-2.8,1.91c-0.17,0.12-0.43,0.17-0.48,0.37
		c2.49,0.51,2.66,0.39,4.16-1c1.81-1.69,3.67-3.36,5.73-4.89c0.82-0.61,1.29-0.56,1.75,0.04c-0.77,1.33-2.08,2.4-3.19,3.57
		C29.9,54.99,29.37,55.14,29.91,55.41z"/>
	<path class="st0" d="M79.3,24.32c-0.21,0.17-0.51,0.19-0.77,0.17c-1.1-0.07-1.25,0.4-1.3,1.06c-0.33,4.47-1.1,8.91-1.8,13.36
		c-0.67,4.25-1.31,8.5-2.15,12.73c-0.08,0.4,0.04,0.81,0.04,1.22c-0.01,0.63-0.57,0.91-1.39,0.7c-1.44-0.37-1.98-0.98-1.74-2.02
		c0.79-3.47,1.11-6.98,1.59-10.47c0.31-2.28,0.56-4.57,0.8-6.85c0.04-0.39,0.23-0.8-0.14-1.17c0.15-1.53,0.96-2.96,1.34-4.45
		c0.3-1.17,0.62-2.34,0.99-3.51c0.16-0.52,0.51-1.03,1.41-0.79c0.91,0.24,1.21-0.1,1.37-0.64c0.12-0.42,0.19-0.85,0.29-1.28
		c0.15-0.61,0.86-0.67,1.49-0.78c0.37-0.07,0.82-0.1,1.01,0.21c0.27,0.43-0.23,0.71-0.54,0.99C79.29,23.26,78.91,23.72,79.3,24.32z"
		/>
	<path class="st0" d="M90.62,38.39c0.89-0.48,1.12-1.12,0.58-1.79c-0.72-0.9-0.75-1.81-0.35-2.76c0.41-0.99,0.6-2.02,1.16-2.97
		c0.14-0.24,0.31-0.55,0.78-0.52c0.48,0.02,0.54,0.34,0.68,0.59c0,0,0,0,0,0c-0.08,0.01-0.11,0.04-0.1,0.1
		c-0.89,1.23-1.36,2.55-1.46,3.94c-0.01,0.1,0.01,0.23-0.07,0.3c-0.87,0.77,0.1,0.99,0.72,1.21c3.89,1.36,4.99,3.77,4.66,6.7
		c-0.28,2.45-1.64,4.57-3.97,6.32c-3.2,2.4-7.6,1.84-9.48-1.22c-1.37-2.23-1.08-4.38,1.1-6.29c0.66-0.58,1.44-1.09,2.21-1.6
		c0.42-0.27,0.89-0.34,1.08,0.2c0.06,0.18,0.12,0.36,0.35,0.45c1.08,0.38,0.81,0.96,0.4,1.54c-1.07,1.52-1.35,3.14-1.16,4.82
		c0.06,0.49,0.17,0.96,0.46,1.4c0.46,0.7,0.95,0.8,1.78,0.32c1.45-0.84,2.7-1.84,3.58-3.04c1.38-1.87,0.89-3.69-0.48-5.44
		C92.45,39.79,91.49,39.12,90.62,38.39z"/>
	<path class="st0" d="M44.82,51.56c0.65-0.28,0.73,0.23,1.01,0.42c0.53,0.37,1.03,0.27,0.99-0.2c-0.15-1.93,1.81-2.98,3.17-4.25
		c2.51-2.36,5.7-4.27,8.24-6.61c1.24-1.14,2.19-2.4,2.38-3.91c0.09-0.76,0.19-1.44,1.48-1.77c0.91-0.23,0.97-1.12,1.44-1.7
		c0.15-0.18,0.14-0.55,0.51-0.5c0.42,0.06,0.28,0.42,0.29,0.66c0.02,0.46,0.06,0.92-0.22,1.35c-0.73,1.22-0.84,2.56-1.16,3.84
		c-0.85,3.43-1.58,6.87-2.37,10.31c-0.08,0.35-0.16,0.69-0.54,0.97c-0.54,0.38-0.2,0.87-0.25,1.31c-0.04,0.35,0.15,0.78-0.37,0.97
		c-0.58,0.21-1.07-0.08-1.48-0.36c-0.94-0.63-1.52-1.36-1.32-2.36c0.35-1.76,0.66-3.53,0.98-5.29c0.05-0.3,0.11-0.6,0.06-0.92
		c-0.71,1.01-1.4,2.02-2.21,2.98c-0.5,0.59-1.11,1.1-1.86,1.52c-0.79,0.45-1.58,0.73-2.52,0.23c-0.38-0.2-0.66-0.1-0.95,0.16
		c-0.5,0.45-1.04,0.88-1.6,1.29c-0.28,0.2-0.37,0.44-0.34,0.69c0.07,0.73-0.26,1.46-0.05,2.2c0.1,0.34-0.16,0.56-0.65,0.66
		c-1,0.19-1.9-0.22-2.18-1.01C45.2,51.97,45.38,51.62,44.82,51.56z"/>
	<path class="st0" d="M85.29,22.48c0.26,0.16,0.38,0.32,0.16,0.58c-1.37,1.61-2.89,3.16-4.01,4.86c-0.76,1.16-0.97,2.53-0.2,3.82
		c0.31,0.52,0.52,1.05,0.5,1.62c-0.5-0.37-0.68-0.87-1.02-1.32c-0.4,0.11-0.24,0.35-0.27,0.53c-0.33,2.22-0.8,4.44-0.91,6.66
		c-0.11,2.24-0.14,4.48-0.26,6.72c-0.03,0.56-0.15,1.11-0.21,1.67c-0.13,1.29,0.22,2.48,1.83,3.26c0.3,0.15,0.5,0.32,0.38,0.56
		c-0.14,0.29-0.5,0.2-0.8,0.14c-0.96-0.21-1.92-0.4-2.86-0.64c-1.17-0.3-1.72-1-1.64-2.23c0.11-1.78,0.36-3.55,0.46-5.33
		c0.21-3.51,0.42-7.02,0.35-10.54c-0.03-1.6,0.15-3.19,0.63-4.76c0.28-0.91,1.15-1.53,2.16-1.33c1.84,0.37,2.36-0.56,2.91-1.41
		C83.18,24.23,84.25,23.37,85.29,22.48z"/>
	<path class="st0" d="M79.3,24.32c-0.4-0.6-0.01-1.06,0.49-1.52c0.31-0.29,0.81-0.56,0.54-0.99c-0.19-0.31-0.64-0.27-1.01-0.21
		c-0.63,0.11-1.34,0.17-1.49,0.78c-0.1,0.43-0.17,0.86-0.29,1.28c-0.16,0.54-0.46,0.87-1.37,0.64c-0.91-0.24-1.25,0.28-1.41,0.79
		c-0.36,1.16-0.69,2.33-0.99,3.51c-0.38,1.49-1.19,2.92-1.34,4.45c-0.29,1.01-0.57,2.02-0.86,3.03c-0.49-1.31-0.92-2.63-0.73-4.01
		c0.1-0.71,0.14-0.7-0.65-1.04c-0.15-0.06-0.13-0.17-0.1-0.26c0.09-0.24,0.25-0.48,0.28-0.73c0.1-0.78,0.33-1.59-0.56-2.24
		c0.65-2,1.29-4.01,2.2-5.96c0.32-0.68,0.79-1.29,1.4-1.83c0.51-0.45,2.46-0.24,3.24,0.33c0.14,0.1,0.24,0.24,0.43,0.44
		c0.64-0.7,1.3-1.34,2.23-1.79c1.17-0.58,1.81-0.47,2.47,0.46c0.06,0.09,0.13,0.18,0.2,0.27C83.6,21.69,82.43,23.7,79.3,24.32z"/>
	<path class="st0" d="M69.81,27.8c0.9,0.65,0.66,1.46,0.56,2.24c-0.03,0.25-0.19,0.48-0.28,0.73c-0.03,0.09-0.05,0.2,0.1,0.26
		c0.79,0.34,0.75,0.34,0.65,1.04c-0.19,1.38,0.24,2.7,0.73,4.01c-0.77,3.12-1.53,6.25-2.32,9.36c-0.13,0.49-0.36,0.99-0.97,1.31
		c-0.55,0.29-0.29,0.7-0.26,1.05c0.11,1.32-0.53,1.64-2.26,1.13c0.28-0.1,0.54-0.23,0.83-0.31c0.63-0.16,0.88-0.5,0.76-0.95
		c-0.17-0.66,0.05-1.32,0.02-1.97c-0.07-1.39,0.05-2.83-0.9-4.13c-0.22-0.29-0.23-0.62-0.22-0.96c0.13-2.45,0.23-4.91,0.37-7.36
		c0.06-1.14-0.29-2.21-0.89-3.25c-0.8-1.4-0.03-2.96,1.61-3.27c0.14,2.17,0.29,4.35,0.43,6.52c0.06,0,0.12,0.01,0.18,0.01
		C68.56,31.45,69.19,29.62,69.81,27.8z M68.21,35.86c-0.07-0.14,0.02-0.5-0.41-0.52c-0.42-0.02-0.46,0.33-0.52,0.57
		c-0.05,0.2-0.03,0.4-0.05,0.61c-0.1,1.11-0.2,2.22-0.29,3.33c-0.02,0.21-0.27,0.53,0.09,0.6c0.4,0.08,0.47-0.28,0.58-0.51
		C68.19,38.64,67.99,37.28,68.21,35.86z"/>
	<path class="st0" d="M53.74,83.36c0.27-0.44,0.87-0.45,1.38-0.58c0.39-0.1,0.79-0.16,1.18-0.26c0.32-0.09,0.68-0.19,0.63-0.51
		c-0.04-0.28-0.33-0.55-0.64-0.53c-1.87,0.1-1.97-0.86-2.1-1.82c-0.03-0.87-0.07-1.74,0.16-2.6c0.87-0.24,1.63-0.78,2.69-0.54
		c0.12,0.03,0.32-0.08,0.45-0.16c2.04-1.33,4.66-1.49,7.16-1.88c0.1-0.02,0.21-0.02,0.31-0.01c0.37,0.01,0.81-0.07,1.04,0.2
		c0.3,0.34-0.34,0.44-0.41,0.7c-1.99,0.33-3.98,0.68-5.98,0.98c-0.74,0.11-1.06,0.3-1.13,0.92c-0.4,3.85-0.84,7.71-1.14,11.57
		c-0.07,0.9,0.1,1.78,0.14,2.66c0.02,0.41-0.07,0.77-0.58,0.99c-0.54,0.24-1.12,0.18-1.55-0.09c-1.36-0.83-2.29-1.63-2.01-2.94
		C53.75,87.44,53.74,85.4,53.74,83.36z"/>
	<path class="st0" d="M23.47,38.58c-0.15,0.82,0.31,1.39,1.3,1.77c0.41,0.16,0.92,0.36,0.35,0.79c-1.77-0.25-3.47-0.66-5.06-1.27
		c-2.19-0.84-2.96-2.36-2.3-4.53c0.8-2.6,2.47-4.94,4.19-7.26c0.66-0.88,1.27-1.79,2.11-2.6c0.1,0.22,0.18,0.44,0.31,0.65
		c0.41,0.63,1.22,0.73,2.16,0.29c0.6-0.28,1.23-0.66,1.53,0.22c0.06,0.35-0.3,0.56-0.51,0.8c-2.21,2.52-4.31,5.08-5.89,7.85
		C20.64,37.1,21.06,37.82,23.47,38.58z M24.61,27.76c-0.05-0.03-0.12-0.1-0.19-0.09c-0.15,0-0.23,0.1-0.21,0.2
		c0.01,0.05,0.12,0.13,0.18,0.12C24.54,27.98,24.6,27.89,24.61,27.76z"/>
	<path class="st0" d="M113.28,37.77c0.28,0.02,0.52,0.08,0.72,0.25c0.86,0.77,2.23,0.59,2.72-0.35c0.29-0.57,0.55-1.14,0.84-1.71
		c0.07-0.14,0.17-0.32,0.4-0.31c0.33,0.02,0.3,0.26,0.26,0.42c-0.15,0.63-0.35,1.25-0.48,1.87c-0.17,0.78-0.25,1.53,0.47,2.25
		c0.33,0.33,0.52,0.62,1.28,0.42c-0.48,0.88-1.49,1.36-1.71,2.18c-0.05,0.18-0.47,0.16-0.75,0.17c0.08-0.86,0.16-1.72,0.26-2.69
		c-0.42,0.21-0.43,0.46-0.53,0.67c-0.91,1.89-1.91,3.76-3.45,5.44c-1.47,1.61-3.66,2.28-6.05,1.9c0.12-0.45,0.6-0.41,1.04-0.43
		c1.03-0.06,1.37-0.16,2.18-0.68c-1.22-0.05-2.22-0.32-3.17-0.71c-0.48-0.19-0.72-0.4-0.25-0.75c0.54,0.22,0.83-0.07,1.13-0.31
		c0.99-0.79,1.7-1.71,2.37-2.66C111.69,41.15,112.47,39.45,113.28,37.77z"/>
	<path class="st0" d="M135.3,56.72c-0.9,0.26-1.71,0.05-2.43-0.33c-0.65-0.34-1.17-0.6-1.8,0.07c-0.35,0.37-1.01,0.39-1.62,0.26
		c-1.4-4.44,1.82-8.3,6.84-10.28c0.46-0.18,0.94-0.14,1.23,0.11c0.52,0.45,0.57,1.1,1.13,1.57c0.21,0.17-0.2,0.4-0.4,0.56
		c-0.78,0.61-1.57,1.22-2.19,1.93C134.36,52.54,133.77,54.56,135.3,56.72z"/>
	<path class="st0" d="M72.62,80.58c-0.21,0.84-0.09,0.97,1.02,0.91c0.99-0.05,1.97-0.2,2.96-0.28c0.35-0.03,0.87-0.11,0.96,0.25
		c0.08,0.31-0.43,0.33-0.72,0.45c-0.66,0.28-1.56,0.16-2.06,0.7c-1.72,0.57-3.59,0.83-5.32,1.42c-1.37,0.47-2.72-0.36-2.63-1.46
		c0.06-0.71,0.12-1.42,0.18-2.13c0.31-0.37,0.21-0.79,0.21-1.19c0.01-1.07,0.05-2.14-0.01-3.21c-0.05-0.72,0.34-1.1,1.27-1.23
		c0.34-0.05,0.67-0.14,1-0.18c0.69-0.07,1.24-0.25,1.48-0.8c0.12-0.26,0.38-0.51,0.76-0.6c1.38-0.34,2.64-0.87,3.96-1.3
		c0.66-0.22,0.92-0.03,0.71,0.48c-0.31,0.09-0.68,0.13-0.92,0.29c-1.12,0.74-2.49,1.15-3.84,1.58c-0.69,0.22-0.89,0.52-0.9,1.03
		c-0.04,1.47-0.13,2.94-0.24,4.41c-0.11,1.42-0.13,1.42,1.63,0.95C72.29,80.62,72.46,80.6,72.62,80.58z"/>
	<path class="st0" d="M54.9,67.77c0.54-0.58,0.2-1.23,0.32-1.85c0.03-0.18-0.07-0.47,0.34-0.45c0.3,0.02,0.23,0.27,0.26,0.44
		c0.09,0.4-0.18,0.86,0.44,1.31c0.18-0.81,0.34-1.51,0.48-2.21c0.03-0.17-0.09-0.38,0.2-0.47c0.25-0.08,0.34,0.12,0.48,0.22
		c0.38,0.27,0.81,0.24,1.25,0.11c2.03-0.6,4.13-0.71,6.28-0.57c0.42,0.03,0.58,0.23,0.63,0.51c-1.56,0.3-3.1,0.66-4.67,0.89
		c-0.86,0.12-1.11,0.37-1.14,0.99c-0.09,2.14-0.39,4.27-0.82,6.38c-1.46-0.21-2.89-0.59-4.42-0.48c0.38-1.3,0.2-2.62,0.29-3.93
		C54.83,68.38,54.87,68.07,54.9,67.77z"/>
	<path class="st0" d="M58.11,58.86c-0.29-0.17-0.67-0.02-1.24-0.14c1.02-0.37,1.61-0.94,2.57-1.09c1.01-0.16,2.02-0.31,3.02-0.49
		c1.1-0.2,2.15-0.44,3.15-0.89c0.76-0.34,0.9-0.65,0.59-1.19c0.93-0.09,1.76,0.14,2.58,0.41c0.6,0.2,0.87,0.55,0.88,1.03
		c0,0.31-0.12,0.52-0.63,0.54c-2.62,0.13-5.12,0.69-7.64,1.18C60.3,58.44,59.12,58.43,58.11,58.86z"/>
	<path class="st0" d="M105.75,23.08c-0.23,1.2-1.27,1.99-2.55,2.63c-0.25,0.12-0.85,0.36-0.56-0.26c0.06-0.13-0.01-0.23-0.1-0.35
		c-0.91-1.13-0.8-1.62,0.57-2.5c0.52-0.33,1-0.71,1.82-0.44C105.51,22.34,105.84,22.59,105.75,23.08z"/>
	<path class="st0" d="M133.36,64.23c1.05,0.2,2.19,0.15,3.15-0.02c1.32-0.24,2.06-1.12,2.25-2.15c0.16-0.85,0.69-1.65,0.59-2.53
		c-0.01-0.06,0.18-0.13,0.28-0.2c1.24,1.49,1.18,2.51-0.19,3.86c-0.73,0.72-1.62,1.3-2.61,1.8
		C135.48,65.67,134.1,65.35,133.36,64.23z"/>
	<path class="st0" d="M64.13,35.17c1.32,0.48,1.81,1.23,1.68,2.33c-0.13,1.16-0.22,2.31-0.9,3.49c-0.37-0.57,0.09-1.24-0.46-1.72
		c-0.15-0.6-0.14-1.2-0.1-1.8c0.21-0.53,0.45-1.06-0.2-1.53C64.15,35.68,64.14,35.42,64.13,35.17z"/>
	<path class="st0" d="M42.81,79.51c0.88-0.23,1.12,0.06,1.23,0.68c0.13,0.74-0.02,1.53,0.64,2.27c-1.01-0.1-0.93,0.95-1.89,0.87
		C42.79,82.06,42.8,80.79,42.81,79.51z"/>
	<path class="st0" d="M147.64,54.81c0.63,0.62,0.84,1.33,0.65,2.08c-0.25,1.01-0.69,1.99-0.87,3.02c-0.1-0.7,0.16-1.36,0.32-2.04
		c0.24-1,0.52-1.99-0.22-2.95c-0.01-0.01,0.08-0.07,0.13-0.11C147.66,54.81,147.64,54.81,147.64,54.81z"/>
	<path class="st0" d="M42.73,77.08c0.5,0,1.02-0.01,1.04,0.51c0.02,0.49-0.14,0.92-0.96,0.98C42.78,78.07,42.76,77.57,42.73,77.08z"
		/>
	<path class="st0" d="M54.58,62.69c0.67,0.33,0.59,0.7-0.28,1.24C54.15,63.49,53.82,63.02,54.58,62.69z"/>
	<path class="st0" d="M64.16,35.93c0.64,0.47,0.4,1,0.2,1.53C64.34,36.94,64.04,36.45,64.16,35.93z"/>
	<path class="st0" d="M64.59,45.72c0.17,0.25,0.17,0.51-0.02,0.76C64.58,46.23,64.59,45.97,64.59,45.72z"/>
	<path class="st0" d="M100.93,56.49c0.21-0.16,0.42-0.31,0.63-0.47c0.04,0.03,0.07,0.06,0.11,0.09c-0.21,0.15-0.41,0.31-0.62,0.46
		C101.01,56.55,100.97,56.52,100.93,56.49z"/>
	<path class="st0" d="M65.78,55.07c-0.27,0.12-0.54,0.13-0.82,0.01C65.24,55.08,65.51,55.07,65.78,55.07z"/>
	<path class="st0" d="M64.58,46.94c0.01,0.1,0.02,0.2,0.03,0.29C64.6,47.14,64.59,47.04,64.58,46.94z"/>
	<path class="st0" d="M126.34,56.9c-0.13,0.07-0.26,0.07-0.4,0.02C126.07,56.91,126.21,56.91,126.34,56.9z"/>
	<path class="st0" d="M64.58,41.9c0,0.05,0.01,0.1,0.01,0.15C64.55,42,64.55,41.95,64.58,41.9z"/>
	<path class="st0" d="M101.55,56.02c0.07-0.05,0.13-0.09,0.2-0.14c0.04,0.03,0.08,0.06,0.12,0.09c-0.07,0.05-0.14,0.1-0.21,0.15
		C101.63,56.09,101.59,56.06,101.55,56.02z"/>
	<path class="st0" d="M93.37,31.04c-0.01-0.06,0.02-0.09,0.1-0.1C93.47,30.99,93.43,31.02,93.37,31.04z"/>
	<path class="st0" d="M24.94,81.04c0,0.05,0.01,0.1,0.01,0.15C24.94,81.14,24.94,81.09,24.94,81.04z"/>
	<path class="st0" d="M119.98,39.62c0.04,0.23-0.02,0.39-0.3,0.34c-0.56-0.11-0.63-0.5-0.73-0.84c-0.07-0.24-0.01-0.55,0.39-0.5
		C120.21,38.71,119.49,39.41,119.98,39.62z"/>
	<path class="st0" d="M112.86,37.31c-0.92,0.21-1.59-0.07-2.14-0.59C111.62,36.56,112.37,36.67,112.86,37.31z"/>
	<path class="st0" d="M113.31,37.61c-0.03-0.05-0.02-0.1,0.02-0.15C113.33,37.51,113.32,37.56,113.31,37.61z"/>
	<path class="st0" d="M112.58,74.58c0.03,0.55,0.13,1.11-0.29,1.72C112.4,75.65,112.49,75.12,112.58,74.58z"/>
	<path class="st0" d="M113.36,70.84c-0.04,0.29-0.1,0.65-0.17,1.1C113,71.46,113.22,71.12,113.36,70.84z"/>
	<path class="st0" d="M134.01,74.09c-0.14-0.08-0.28-0.15-0.43-0.23C133.72,73.94,133.86,74.01,134.01,74.09z"/>
	<path class="st0" d="M66.86,72.73c0.3-0.72,0.13-1.46,0.15-2.19c0.04-1.45,0.04-2.89,0.05-4.34c0.24-0.36,0.24-0.71-0.01-1.07
		c-0.01-0.15-0.02-0.3-0.03-0.46c1.65-0.41,3.15-1.12,4.89-1.36c-0.37,2.79-0.74,5.59-0.94,8.39
		C69.84,72.59,68.58,73.17,66.86,72.73z"/>
	<path class="st0" d="M28.88,73.35c0.15,1.44,0.16,2.88,0.12,4.32C28.71,76.23,28.91,74.79,28.88,73.35z"/>
	<path class="st0" d="M46.08,81.65c0,0.27-0.01,0.53-0.01,0.8c-0.11,0.15-0.26,0.24-0.49,0.16c-0.21-0.08-0.26-0.23-0.22-0.39
		C45.43,81.93,45.68,81.73,46.08,81.65z"/>
	<polygon class="st0" points="44.86,76.88 44.86,76.94 44.8,76.92 	"/>
	<path class="st0" d="M53.87,81.33c0.04-0.04,0.08-0.09,0.13-0.13C53.95,81.24,53.91,81.28,53.87,81.33z"/>
	<path class="st0" d="M134.63,60.12c1.27,0.44,1.54,1.23,0.94,2.54C135.07,61.85,134.97,61.03,134.63,60.12z"/>
	<path class="st0" d="M101.67,56.12c0.07-0.05,0.14-0.1,0.21-0.15c0.31,0.1,0.85,0.03,0.82,0.41c-0.03,0.3-0.49,0.38-0.81,0.49
		c-0.43,0.15-0.71,0.05-0.83-0.29C101.25,56.42,101.46,56.27,101.67,56.12z"/>
	<path class="st0" d="M109.88,61.93c-0.11,0.04-0.22,0.08-0.33,0.12C109.66,62.01,109.77,61.97,109.88,61.93z"/>
	<path class="st0" d="M66.12,64.69c-0.11,0.04-0.22,0.08-0.34,0.12C65.9,64.76,66.01,64.73,66.12,64.69z"/>
	<path class="st0" d="M127.22,49.77c0.13,0.41,0.17,0.82,0,1.42C127.22,50.59,127.22,50.18,127.22,49.77z"/>
	<path class="st0" d="M89.55,83.69c0.11,0.44,0.24,0.86,0,1.29C89.55,84.55,89.55,84.12,89.55,83.69z"/>
	<path class="st0" d="M68.21,35.86c-0.22,1.42-0.02,2.78-0.59,4.07c-0.1,0.23-0.17,0.59-0.58,0.51c-0.36-0.07-0.11-0.39-0.09-0.6
		c0.1-1.11,0.2-2.22,0.29-3.33c0.02-0.2,0-0.41,0.05-0.61c0.06-0.24,0.1-0.59,0.52-0.57C68.23,35.36,68.14,35.72,68.21,35.86z"/>
	<path class="st0" d="M24.61,27.76c-0.01,0.14-0.07,0.23-0.22,0.23c-0.06,0-0.17-0.07-0.18-0.12c-0.02-0.1,0.06-0.19,0.21-0.2
		C24.49,27.66,24.56,27.73,24.61,27.76z"/>
</g>
</svg>
