<?xml version="1.0" encoding="utf-8"?>
<!-- Generator: Adobe Illustrator 23.0.5, SVG Export Plug-In . SVG Version: 6.00 Build 0)  -->
<svg version="1.1" id="Layer_1" xmlns="http://www.w3.org/2000/svg" xmlns:xlink="http://www.w3.org/1999/xlink" x="0px" y="0px"
	 viewBox="0 0 103.32 43.47" style="enable-background:new 0 0 103.32 43.47;" xml:space="preserve">
<style type="text/css">
	.st0{fill:#5C3A1A;}
	.st1{fill:none;}
</style>
<path class="st0" d="M32.82,25.4c0.07,0.15,0.01,0.28-0.05,0.42c-1.09,2.78-2.23,5.56-3.25,8.36c-0.38,1.05-1.27,1.39-2.35,1.56
	c-0.63,0.1-0.97-0.26-1.21-0.71c-0.6-1.16-0.85-2.39-1.14-3.62c-0.35-1.45-0.69-2.9-1.03-4.35c-0.02-0.1-0.03-0.21-0.2-0.26
	c-2.82,3.39-7.15,5.26-10.92,7.71c-2.16,1.41-4.29,2.83-5.99,4.65c-0.3,0.32-0.57,0.63-0.6,0.96c-0.09-0.24-0.1-0.28-0.47-0.21
	c-0.54,0.1-0.87-0.08-1.15-0.44c-0.29-0.36,0.05-0.61,0.25-0.81c0.36-0.35,0.3-0.91,0.86-1.14c0.11-0.04,0.01-0.14-0.07-0.2
	c-0.1-0.07-0.19-0.23-0.1-0.25c0.5-0.07,0.49-0.53,0.83-0.75c0.66-0.42,1.18-1.01,1.8-1.49c1.36-1.05,2.75-2.07,4.18-3.06
	c2.01-1.39,4.01-2.78,6.01-4.16c0.47-0.33,0.92-0.67,1.26-1.11c0.4-0.51,0.31-0.76-0.39-0.95c-1.09-0.29-2.23-0.41-3.36-0.52
	c-1.98-0.18-3.98-0.09-5.96-0.36C8.51,24.53,7.22,24.45,6,24.07c-2.54-0.8-3.34-3.08-1.52-4.77c2.45-2.27,4.81-4.64,7.64-6.6
	c2.26-1.57,4.71-2.84,7.67-3.21c0.21-0.03,0.43-0.02,0.65-0.03c-0.4,0.45-1.03,0.27-1.55,0.4c-2.06,0.5-3.73,1.61-5.55,2.49
	c-0.12,0.06-0.2,0.18-0.28,0.28c-0.11,0.14-0.2,0.3-0.02,0.44c0.16,0.12,0.31,0.01,0.46-0.05c0.97-0.36,2-0.62,3.04-0.74
	c0.68-0.08,1.41-0.12,2.04,0.24c-1.01,0.34-2.02,0.7-2.92,1.23c-3.3,1.95-5.93,4.47-8.46,7.08c-0.21,0.22-0.47,0.46-0.31,0.78
	c0.18,0.35,0.61,0.39,0.99,0.4c1.02,0.03,2.04,0.03,3.06,0.06c1.4,0.05,2.81-0.04,4.21,0.13c-0.72,0.35-0.69,0.89-0.5,1.66
	c0.21-0.9,0.59-0.57,1-0.32c0.19,0.11,0.45,0.14,0.68,0.21c1.59,0.43,3.32,0.53,4.61,1.61c0.34,0.29,0.33,0.4,0.03,0.6
	c-0.62,0.41-0.9,1.01-1.3,1.55c-0.26,0.36,0.18,0.63,0.34,0.51c0.42-0.32,1.12-0.33,1.34-0.89c0.38-1,0.4-0.99,1.59-1.01
	c0.69-0.01,0.9-0.26,0.73-0.83c-0.11-0.35-0.42-0.59-0.62-0.9c0.17-0.11,0.13-0.26,0.09-0.39c-0.46-1.8-0.86-3.62-1.47-5.4
	c-0.07-0.2-0.1-0.43-0.41-0.58c-0.15,0.28-0.27,0.52-0.42,0.75c-0.39,0.59-0.54,1.37-1.21,1.73c-0.73,0.4-0.96,0.85-0.78,1.69
	c-0.29-0.57,0.02-1.09-0.53-1.4c-1.17-0.66-1.28-0.98-0.81-2.09c0.73-1.72,1.57-3.4,2.1-5.18c0.11-0.38,0.25-0.76,0.04-1.14
	c0.21-0.06,0.43-0.2,0.61-0.17c0.75,0.15,1.47,0.34,2.26,0.23c0.21-0.03,0.23,0.18,0.06,0.3c-0.48,0.34-0.47,0.78-0.42,1.24
	c0.04,0.4-0.04,0.77-0.26,1.13c-0.29,0.48-1.21,0.69-0.89,1.44c0.02,0.04-0.14,0.11-0.18,0.18c-0.1,0.16-0.21,0.33-0.27,0.5
	c-0.06,0.19,0,0.39,0.28,0.23c0.47-0.26,0.84-0.04,1.23,0.1c0.41,0.15,0.71,0.49,1.3,0.44c-0.19,0.18-0.3,0.28-0.41,0.39
	c0.36,0.25-0.03,0.87,0.67,0.96c0.19,0.02,0.16,0.16,0.15,0.29c-0.02,0.24-0.01,0.49-0.01,0.73c-0.11,0.02-0.24-0.02-0.3,0.09
	c-0.01,0.01,0.02,0.04,0.03,0.04c0.14,0.04,0.21-0.05,0.27-0.13c0.57,0.07,0.86,0.3,0.76,0.84c-0.06,0.3,0,0.61,0.03,0.92
	c0.03,0.31,0.33,0.4,0.62,0.42c0.31,0.02,0.27-0.22,0.35-0.39c0.27-0.62,0.58-1.24-0.31-1.72c-0.07-0.04-0.07-0.19-0.06-0.29
	c0.11-0.87-0.17-1.71-0.44-2.52c-0.27-0.83-0.38-1.91-1.92-1.9c-0.24,0-0.21-0.18-0.02-0.29c1.16-0.02,1.55,0.2,1.99,1.17
	c1.17,2.64,1.73,5.42,2.34,8.17c0.18,0.81,0.32,1.62,0.5,2.42c0.04,0.19,0.02,0.41,0.34,0.6c0.38-0.88,0.74-1.74,1.1-2.59
	c0.74-1.78,1.48-3.56,2.23-5.33c0.22-0.52,0.4-1.06,0.85-1.49c0.26-0.26,0.11-0.55,0.07-0.83c-0.13-0.79-0.28-1.58-0.42-2.37
	c0.12,0.1,0.25,0.19,0.35,0.3c0.17,0.18,0.23,0.55,0.59,0.44c0.38-0.12,0.28-0.43,0.15-0.69c-0.06-0.13-0.05-0.25,0.1-0.32
	c0.19-0.09,0.37-0.07,0.55,0.04c0.15,0.09,0.29,0.23,0.18,0.36c-0.36,0.43-0.52,0.8,0.21,1.07c0.12,0.04,0.04,0.19,0.05,0.28
	c0.06,0.69-0.4,1.35-0.14,2.05c0.01,0.02,0,0.04-0.01,0.06c-0.12,0.44-0.5,0.57-0.91,0.26c-0.24-0.18-0.37-0.12-0.53,0.04
	c-0.27,0.27-0.47,0.57-0.64,0.89c-0.49,0.93-0.6,1.94-0.67,2.93c-0.04,0.55,0.24,1.15,0.51,1.67c0.12,0.23,0.22,0.35,0.07,0.58
	c-0.47,0.78-0.34,1.7-0.83,2.49c0.86-0.35,1.09-0.95,1.03-1.68C31.85,25.63,32.47,25.27,32.82,25.4z M21.09,14.17
	c0.27-0.15,0.49-0.36,0.63-0.62c0.09-0.17,0.25-0.49-0.06-0.51c-0.53-0.03-0.42,0.51-0.68,0.75c-0.11,0.1-0.19,0.25,0.02,0.36
	C21.02,14.16,21.04,14.16,21.09,14.17z M33.44,18.28c-0.03-0.14-0.1-0.28-0.28-0.32c-0.15-0.03-0.22,0.07-0.23,0.18
	c-0.02,0.16,0.07,0.28,0.27,0.31C33.33,18.47,33.42,18.41,33.44,18.28z"/>
<path class="st0" d="M70.17,13.48c0.62-0.11,0.99-0.53,1.46-0.83c0.26-0.16,0.26-0.34,0.13-0.53c-0.33-0.51,0.12-0.84,0.36-1.22
	c0.1-0.16,0.17-0.02,0.27,0.01c0.68,0.16,1.19-0.15,1.68-0.47c0.14-0.09,0.02-0.22-0.11-0.3l0,0c0.47-0.27,1.02-0.13,1.52-0.18
	c0.94-0.09,1.91-0.31,2.81,0.18c0.51-0.37,0.83,0.45,1.38,0.15c0.54-0.3,1.01,0.09,1.5,0.22c0.48,0.13,0.84,0.4,1.24,0.64
	c0.19,0.11,0.4,0.17,0.6,0.03c0.32-0.23-0.14-0.22-0.16-0.35C82.69,10,81.79,9.84,81.1,9.52c-0.59-0.28-1.28-0.4-1.74-0.85
	c2.38,0.55,4.29,1.6,5.25,3.62c-0.59,0.72-0.42,1.58-0.58,2.38c-0.04,0.2,0.04,0.46-0.23,0.55c-0.5,0.16-0.63,0.54-0.86,0.87
	c-0.21,0.3-0.35,0.64-0.75,0.81c-0.45,0.19-0.39,0.41-0.06,0.65c-1.89,2.53-4.2,4.77-6.64,6.92c-1.36,1.2-2.74,2.39-4.41,3.3
	c-0.41,0.23-0.42,0.58-0.47,0.92c-0.27,1.85-0.5,3.71-0.79,5.56c-0.12,0.77-0.21,1.58-1.36,1.82c-0.23,0.05-0.18,0.26-0.21,0.42
	c-0.04,0.21,0.05,0.45-0.27,0.72c0-0.3-0.01-0.51,0-0.72c0.01-0.26-0.06-0.46-0.36-0.61c-0.84-0.42-1.01-1.1-0.91-1.87
	c0.1-0.81,0.17-1.63,0.25-2.52c-2.07,0.92-4.36,0.6-6.42,1.21c-0.71,0.21-1.45,0.33-2.18,0.49c-1.24,0.28-1.75,1.03-1.39,2.1
	c0.08,0.26,0.21,0.5,0.29,0.76c0.17,0.59-0.17,0.96-0.9,0.96c-0.82,0.01-1.35-0.38-1.79-0.91c-0.3-0.36-0.52-0.77-0.55-1.19
	c-0.03-0.52-0.29-0.56-0.78-0.44c-2.6,0.66-5.22,1.26-7.92,1.6c-0.5,0.06-0.78,0.25-0.9,0.73c-0.27,1.13-0.63,2.24-1.38,3.22
	c-0.43,0.56-0.97,1.05-1.87,0.98c-0.84-0.06-1.24-0.49-1.03-1.18c0.29-0.99,0.63-1.98,0.95-2.96c0.03,0.02,0.05,0.04,0.08,0.06
	c0.04,0.03,0.08,0.07,0.12,0.1l0,0c0.83,0.93,0.83,0.93,1.51,0.63c-0.3-0.2-0.49-0.46-0.61-0.75c-0.06-0.14-0.17-0.3,0.09-0.34
	c0.7-0.13,1.22-0.56,1.87-0.8c0.9-0.33,1.92-0.22,2.76-0.72c0.62-0.37,0.67-0.3,0.03-0.7c-0.08-0.05-0.11-0.13-0.08-0.17
	c1.03-0.1,2.04-0.24,2.91-0.62c0.88-0.38,1.78-0.62,2.72-0.74c0.69-0.09,1.31-0.3,1.91-0.56c0.52-0.22,1.08-0.46,1.61-0.54
	c1.13-0.17,2.16-0.6,3.28-0.78c1.01-0.16,2.11-0.01,2.99-0.63c0.04-0.03,0.18,0.03,0.26,0.06c0.33,0.12,0.63,0.09,0.81-0.2
	c0.12-0.19,0.23-0.12,0.41-0.09c0.72,0.12,1.38,0.01,1.96-0.39c0.54-0.37,1.12-0.33,1.49,0.13c0.29,0.37,0.66,0.37,1.08,0.3
	c0.34-0.05,0.62-0.26,0.67-0.51c0.06-0.33-0.29-0.63-0.58-0.72c-0.59-0.19-0.76-0.58-0.98-0.99c0.01-0.12,0.01-0.25,0.02-0.37
	c0.31,0.02,0.64,0,0.94,0.07c0.49,0.13,0.72,0.05,0.75-0.41c0.08-0.99,0.82-1.42,1.89-1.68c0.67-0.17,1.33-0.49,1.79-0.99
	c0.76-0.82,1.62-1.56,2.49-2.29c0.44-0.37,0.94-0.71,1.16-1.24c0.49-0.17,0.46-0.73,0.93-0.91c0.52-0.2,0.7-0.6,0.85-1
	c0.12-0.32,0.29-0.52,0.66-0.66c0.51-0.19,0.84-0.65,0.94-1.02c0.11-0.39,0.14-0.74,0.58-0.95c0.13-0.06,0.27-0.12,0.2-0.27
	c-0.06-0.15-0.18-0.27-0.37-0.23c-0.35,0.08-0.55-0.05-0.68-0.3l0.07,0l0,0.06c0.05-0.09,0.1-0.19,0.16-0.28l-0.01,0.03l-0.04-0.01
	c0.22-0.12,0.33-0.29,0.34-0.51l0.01,0.03c0.01-0.04,0.02-0.08,0.03-0.13c0.24-0.42,0.45-0.86,0.72-1.27
	c0.27-0.41,0.13-0.65-0.29-0.92c-1.6-1.03-3.42-1.48-5.39-1.65c-0.57-0.05-0.8,0.05-0.93,0.55c-1.07,4.02-1.86,8.08-2.72,12.13
	c-0.4,0.36-0.79,0.71-1.19,1.07c-0.17,0.15-0.41,0.19-0.6,0.13c-0.29-0.08-0.09-0.27-0.06-0.42c0.23-1.29,0.05-1.42-1.35-1.02
	c0.05-0.86,0.44-1.69,0.42-2.56c0.19-0.35,0.52-0.58,0.87-0.79c0.79-0.48,0.79-0.6,0.06-1.1c-0.15-0.1-0.27-0.23-0.4-0.35
	c0.09-0.51,0.2-1.01,0.28-1.52C69.71,15.9,70.17,14.72,70.17,13.48z"/>
<path class="st0" d="M82.13,17.55c-0.33-0.24-0.39-0.46,0.06-0.65c0.4-0.17,0.54-0.51,0.75-0.81c0.23-0.33,0.36-0.71,0.86-0.87
	c0.27-0.09,0.19-0.35,0.23-0.55c0.16-0.8-0.01-1.65,0.58-2.38c0.99-1,1.89-2.08,3.06-2.95c2.06-1.53,4.4-2.66,6.94-3.52
	c0.63-0.04,1.31,0.04,1.67-0.56c0.18-0.03,0.37-0.06,0.55-0.09c0.18,0.12,0.4,0.15,0.62,0.15c0.7-0.02,1.34,0.09,1.9,0.5
	c0.12,0.08,0.32,0.09,0.48,0.13c0.06,0.03,0.11,0.06,0.17,0.09c0,0-0.02-0.02-0.02-0.02c0.18,0.25,0.35,0.51,0.53,0.76
	c-0.3,0.29,0.05,0.54,0.09,0.8c0.02,0.15,0.04,0.31-0.15,0.38c-0.2,0.07-0.23-0.09-0.28-0.2c-0.23-0.45-0.47-0.42-0.71,0
	c-0.08,0.14-0.23,0.28-0.39,0.18c-0.43-0.25-1.03-0.12-1.4-0.56c-0.3-0.36-0.81-0.36-1.19,0c-0.23,0.22-0.52,0.38-0.82,0.32
	c-0.8-0.16-1.5,0.18-2.24,0.26c-0.67,0.07-1.03,0.43-1.3,0.86c-0.39,0.64-1.31,0.88-1.61,1.59c-0.03,0.08-0.3,0.09-0.47,0.12
	c-0.27,0.04-0.55,0.06-0.63,0.33c-0.05,0.17,0.01,0.34,0.21,0.42c0.29,0.12,0.5-0.04,0.72-0.18c0.39-0.24,0.78-0.5,1.32-0.32
	c-0.59,0.46-1.18,0.92-1.77,1.38c-0.08-0.06-0.16-0.2-0.25-0.11c-0.1,0.08,0.07,0.15,0.14,0.21c-0.99,0.96-2.01,1.89-2.82,2.96
	c-0.45,0.59-0.86,1.19-1.1,1.86c-0.24,0.67-0.06,0.94,0.72,1.17c0.67,0.19,1.36,0.31,2.05,0.4c1.46,0.2,2.9,0.45,4.28,0.96
	c0.47,0.17,1.01,0.74,1.37,0.49c0.36-0.25-0.04-0.88-0.02-1.35c0.01-0.31-0.14-0.46-0.51-0.56c-0.81-0.22-1.18-0.75-1.22-1.45
	c-0.03-0.5,0.14-0.98,0.36-1.43c0.93-1.89,1.88-3.77,2.83-5.66c0.43,0,0.74-0.15,0.95-0.47c0.07-0.12,0.12-0.32,0.33-0.27
	c0.21,0.05,0.19,0.27,0.22,0.42c0.06,0.23-0.11,0.38-0.29,0.53c-0.26,0.22-0.54,0.51-0.4,0.8c0.27,0.57,0.55,1.09,0.08,1.68
	c-0.07,0.08-0.05,0.21,0.08,0.27c0.12,0.06,0.28,0.03,0.32-0.06c0.25-0.53,0.66-0.29,1.06-0.18c-0.37,0.96-0.93,1.84-1.52,2.71
	c-0.73,1.06-1.17,2.24-1.98,3.26c-0.37,0.46,0.14,2.1,0.65,2.47c0.66,0.48,1.34,0.94,1.88,1.53c0.54,0.58,0.9,1.21,0.67,1.98
	c-0.58,0.03-1.05-0.18-1.47-0.5l0,0c-0.26-0.29-0.57-0.17-0.84-0.03c-0.35,0.18-0.06,0.34,0.05,0.5c0.11,0.16-0.01,0.27-0.12,0.38
	c-0.19,0.17-0.28,0.38-0.38,0.59c-0.46,0.94-0.85,1.91-1.87,2.56c-0.12,0.07-0.23,0.16-0.31,0.26c-0.73,0.86-1.2,1.9-2.42,2.42
	c-0.42,0.18-0.48,0.75-0.81,0.89c-0.95,0.38-1.58,1.08-2.41,1.57c-0.82,0.48-1.3,0.37-1.84-0.38c1.54-0.82,2.72-1.96,3.92-3.09
	c1.27-1.21,2.52-2.43,3.66-3.73c1.3-1.47,1.32-1.57,0.15-3.02c-0.18-0.34-0.3-0.78-0.53-1.01c-0.75-0.75-1.74-1.21-2.97-1.23
	c-0.94-0.01-1.82-0.22-2.6-0.67c-0.3-0.17-0.49-0.08-0.63,0.17c-0.24,0.42-0.48,0.85-0.97,1.12c-1.88-0.46-3.48-1.58-3.12-3.42
	C82.24,17.65,82.17,17.6,82.13,17.55z M88.71,12.19c0.04-0.03,0.15-0.07,0.17-0.13c0.02-0.1-0.1-0.14-0.19-0.11
	c-0.08,0.02-0.2,0.07-0.22,0.13C88.44,12.18,88.56,12.19,88.71,12.19z M94.82,23.6c0.03-0.04,0.06-0.09,0.09-0.13
	c-0.04-0.02-0.1-0.05-0.11-0.05c-0.05,0.03-0.08,0.08-0.12,0.12C94.72,23.56,94.76,23.58,94.82,23.6z"/>
<path class="st0" d="M32.82,25.4c-0.35-0.13-0.97,0.23-0.94,0.57c0.06,0.73-0.17,1.33-1.03,1.68c0.49-0.78,0.35-1.71,0.83-2.49
	c0.14-0.23,0.05-0.35-0.07-0.58c-0.28-0.52-0.55-1.12-0.51-1.67c0.06-0.99,0.18-1.99,0.67-2.93c0.17-0.32,0.36-0.63,0.64-0.89
	c0.17-0.16,0.29-0.22,0.53-0.04c0.4,0.31,0.79,0.18,0.91-0.26c0.01-0.02,0.01-0.04,0.01-0.06c-0.26-0.7,0.19-1.36,0.14-2.05
	c-0.01-0.1,0.07-0.24-0.05-0.28c-0.73-0.27-0.57-0.64-0.21-1.07c0.11-0.13-0.03-0.27-0.18-0.36c-0.17-0.11-0.36-0.13-0.55-0.04
	c-0.15,0.07-0.16,0.19-0.1,0.32c0.13,0.26,0.23,0.57-0.15,0.69c-0.36,0.11-0.42-0.26-0.59-0.44c-0.1-0.11-0.23-0.2-0.35-0.3
	c-0.25-0.92-0.03-1.2,1.06-1.33c1.56-0.19,1.97,0.01,2.35,1.32c0.83,2.89,1.35,5.83,2,8.75c0.2,0.91,0.38,1.82,0.56,2.73
	c-0.15,0.36,0.04,0.67,0.14,1.01c0.16,0.5,0.38,1.03,0.22,1.54c-0.18,0.54,0.29,1.15-0.3,1.63c-0.1,0.08,0.11,0.15,0.16,0.22
	c0.31,0.45,1.12,0.7,0.97,1.29c-0.18,0.74,0.31,0.69,0.85,0.71c-0.18,1.33-1.57,1.56-3.19,1.13c-0.31-0.42-0.7-0.8-0.7-1.33
	c0-0.66,0.02-1.32-0.61-1.84c-0.06-0.05-0.1-0.17-0.07-0.22c0.39-0.68,0.02-1.38,0.05-2.06c0.03-0.52-0.13-1.04-0.24-1.56
	c-0.09-0.43-0.59-0.81-0.23-1.3c0.04-0.05-0.01-0.16-0.04-0.23c-0.28-0.62-0.29-1.27-0.37-1.92c-0.12-0.89-0.09-1.82-0.48-2.67
	c-0.17-0.36-0.63-0.64-0.08-1.03c-0.75-0.26-0.94,0-0.86,0.54c0.03,0.18,0.08,0.37,0.07,0.55c-0.07,1.09,0.54,2.12,0.37,3.21
	C33.23,24.7,33.02,25.05,32.82,25.4z"/>
<path class="st0" d="M85.33,32.58c0.54,0.75,1.02,0.86,1.84,0.38c0.83-0.49,1.45-1.19,2.41-1.57c0.33-0.13,0.38-0.7,0.81-0.89
	c1.22-0.52,1.69-1.56,2.42-2.42c0.08-0.1,0.2-0.18,0.31-0.26c1.02-0.65,1.41-1.62,1.87-2.56c0.1-0.21,0.2-0.42,0.38-0.59
	c0.12-0.11,0.24-0.22,0.12-0.38c-0.11-0.16-0.4-0.33-0.05-0.5c0.27-0.14,0.58-0.26,0.84,0.03c-0.18,0.07-0.36,0.13-0.3,0.34
	c0.01,0.04,0.12,0.1,0.15,0.09c0.21-0.1,0.13-0.28,0.16-0.43c0.42,0.31,0.89,0.53,1.47,0.5c0.03,0.48-0.23,0.88-0.53,1.25
	c-2.14,2.7-4.6,5.19-7.3,7.51c-0.98,0.84-2,1.67-3.29,2.19c-2.59,1.04-4.95-0.13-5.2-2.57c0.14,0,0.28,0,0.42,0l0,0
	c0.09,0.23,0.18,0.47,0.26,0.7c0.06-0.01,0.13-0.02,0.19-0.03c-0.1-0.72,0.56-1.39,0.1-2.14c-0.04-0.06-0.03-0.19,0.02-0.23
	c0.52-0.41,0.74-0.97,1.06-1.48c0.24-0.38,0.8-0.56,0.82-1c0.02-0.32,0.18-0.56,0.33-0.89c0.24,0.22,0.47,0.5,0.73,0.17
	c0.22-0.29-0.23-0.3-0.36-0.42c-0.29-0.29-0.93-0.29-0.97-0.82c1.53,0.11,2.1,0.66,1.92,1.96c-0.14,0.99-0.45,1.96-0.85,2.9
	c-0.1,0.25-0.19,0.5-0.25,0.76C84.76,32.51,84.96,32.62,85.33,32.58z"/>
<path class="st0" d="M67.41,27.9c0.21,0.41,0.39,0.8,0.98,0.99c0.28,0.09,0.64,0.39,0.58,0.72c-0.05,0.25-0.33,0.45-0.67,0.51
	c-0.42,0.07-0.79,0.07-1.08-0.3c-0.36-0.46-0.95-0.5-1.49-0.13c-0.59,0.41-1.24,0.52-1.96,0.39c-0.18-0.03-0.29-0.09-0.41,0.09
	c-0.18,0.28-0.48,0.31-0.81,0.2c-0.09-0.03-0.22-0.09-0.26-0.06c-0.88,0.61-1.98,0.47-2.99,0.63c-1.12,0.18-2.15,0.6-3.28,0.78
	c-0.53,0.08-1.09,0.32-1.61,0.54c-0.6,0.25-1.22,0.47-1.91,0.56c-0.94,0.12-1.84,0.36-2.72,0.74c-0.87,0.37-1.88,0.52-2.91,0.62
	c-0.04,0.04,0,0.12,0.08,0.17c0.64,0.39,0.59,0.33-0.03,0.7c-0.84,0.5-1.86,0.39-2.76,0.72c-0.64,0.24-1.17,0.67-1.87,0.8
	c-0.26,0.05-0.15,0.21-0.09,0.34c0.13,0.29,0.31,0.55,0.61,0.75c-0.68,0.3-0.68,0.3-1.51-0.63c0.15-0.04,0.34-0.07,0.3-0.25
	c-0.04-0.19-0.25-0.2-0.43-0.24c0-0.09,0.01-0.17,0.01-0.26c0.42-0.66-0.19-1.46,0.4-2.09c0.09-0.04,0.18-0.09,0.27-0.13
	c0.14,0.09,0.29,0.17,0.46,0.08c1.03-0.53,2.22-0.66,3.35-0.92c2.35-0.58,4.62-1.37,6.93-2.07c0.64-0.19,1.31-0.31,1.89-0.63
	c0.22,0.17,0.45,0.51,0.56-0.07c0.05-0.28,0.32-0.28,0.62-0.28c0.42,0,0.9-0.01,1.04-0.48c0.14-0.46,0.32-0.77,0.81-0.18
	c0.11,0.14,0.35,0.11,0.54,0.12c0.29,0.18,0.56-0.01,0.82-0.05c2.48-0.43,4.96-0.93,7.51-0.91C67.09,28.66,67.43,28.5,67.41,27.9z
	 M45.45,35.08c0.03-0.04,0.05-0.06,0.07-0.09c0-0.01-0.04-0.04-0.04-0.03c-0.04,0.01-0.07,0.03-0.1,0.05
	C45.4,35.03,45.43,35.06,45.45,35.08z M46.18,34.56c-0.03-0.02-0.05-0.04-0.08-0.07c-0.02,0.02-0.04,0.05-0.06,0.07
	c0,0,0.03,0.03,0.04,0.03C46.12,34.59,46.15,34.58,46.18,34.56z"/>
<path class="st0" d="M45.67,33.2c-1.14,0.26-2.32,0.4-3.35,0.92c-0.17,0.09-0.32,0.01-0.46-0.08c0.59-2.34,1.18-4.68,1.76-7.02
	c0.04-0.17,0.05-0.34-0.12-0.51c-0.67-0.66-0.48-1.52,0.46-1.9c0.43-0.17,0.6-0.41,0.69-0.78c0.37-1.46,0.77-2.91,1.16-4.36
	c0.23,0.31,0.72-0.27,0.83,0.15c0.07,0.25-0.13,0.55-0.2,0.83c-0.1,0.42-0.22,0.84-0.11,1.28c0.05,0.21-0.05,0.38-0.15,0.57
	c-0.51,1-1.07,1.99-1.67,2.96c-0.16,0.26-0.16,0.55-0.11,0.84c0.03,0.21,0.14,0.4,0.39,0.48c0.26,0.08,0.47-0.02,0.64-0.18
	c0.1-0.09,0.28-0.25,0.29-0.24c0.62,0.44,0.88,0.05,1.18-0.33c0.05-0.06,0.23-0.08,0.34-0.06c0.83,0.15,1.39-0.34,2.03-0.61
	c0.41-0.17,0.62,0.01,0.93,0.17c0.15-0.43-0.46-0.49-0.44-0.86c0.31,0.12,0.59,0.24,0.87,0.35l0,0c0.24,0.5,0.48-0.05,0.73,0
	c0,0,0,0,0,0c0.02-0.31-0.27-0.45-0.67-0.75c1.02,0.07,1.8-0.23,2.64-0.27c0.27-0.01,0.58,0.02,0.74-0.16
	c0.6-0.65,0.9-0.19,1.23,0.21c-0.51,0.42-1.11,0.72-1.75,0.97c-1.7,0.67-3.46,1.21-5.31,1.46c-0.74,0.1-1,0.4-1.13,0.98
	c-0.28,1.27-0.66,2.52-0.97,3.78C45.97,31.76,45.63,32.45,45.67,33.2z M46.59,26.81c-0.03,0.02-0.06,0.04-0.08,0.07
	c-0.01,0.01,0.02,0.05,0.03,0.05c0.04,0,0.07-0.02,0.11-0.03C46.63,26.86,46.61,26.83,46.59,26.81z"/>
<path class="st0" d="M22.81,15.44c-0.19,0.11-0.23,0.29,0.02,0.29c1.54,0,1.64,1.08,1.92,1.9c0.27,0.81,0.55,1.65,0.44,2.52
	c-0.01,0.1-0.01,0.25,0.06,0.29c0.89,0.48,0.58,1.1,0.31,1.72c-0.07,0.17-0.04,0.41-0.35,0.39c-0.3-0.02-0.59-0.11-0.62-0.42
	c-0.03-0.31-0.09-0.62-0.03-0.92c0.1-0.53-0.19-0.76-0.76-0.84l0,0c0-0.24-0.01-0.49,0.01-0.73c0.01-0.13,0.04-0.27-0.15-0.29
	c-0.7-0.09-0.31-0.71-0.67-0.96c0.11-0.1,0.21-0.2,0.41-0.39c-0.6,0.06-0.89-0.29-1.3-0.44c-0.39-0.14-0.76-0.37-1.23-0.1
	c-0.28,0.16-0.34-0.04-0.28-0.23c0.06-0.17,0.17-0.34,0.27-0.5c0.04-0.07,0.2-0.14,0.18-0.18c-0.33-0.76,0.6-0.96,0.89-1.44
	c0.22-0.36,0.3-0.74,0.26-1.13c-0.05-0.46-0.05-0.91,0.42-1.24c0.17-0.12,0.15-0.33-0.06-0.3c-0.79,0.11-1.51-0.08-2.26-0.23
	c-0.18-0.03-0.41,0.11-0.61,0.17c-0.36,0.05-0.71,0.09-1.07,0.14c-0.63-0.36-1.36-0.31-2.04-0.24c-1.05,0.12-2.07,0.38-3.04,0.74
	c-0.15,0.06-0.3,0.17-0.46,0.05c-0.19-0.14-0.09-0.3,0.02-0.44c0.08-0.1,0.16-0.22,0.28-0.28c1.82-0.87,3.49-1.98,5.55-2.49
	c0.52-0.13,1.15,0.05,1.55-0.4c0.09,0,0.19,0,0.28,0c0.3,0.24,0.61,0.43,1.05,0.26c0.02,0.01,0.05,0.02,0.07,0.03
	c2.36,1.36,2.42,1.53,1.62,3.83C23.25,14.2,22.89,14.79,22.81,15.44z"/>
<path class="st0" d="M39.81,33.07c-0.54-0.02-1.03,0.02-0.85-0.71c0.15-0.59-0.67-0.85-0.97-1.29c-0.05-0.08-0.26-0.14-0.16-0.22
	c0.59-0.48,0.12-1.09,0.3-1.63c0.17-0.51-0.06-1.04-0.22-1.54c-0.11-0.34-0.29-0.65-0.14-1.01c0.29-0.04,0.27-0.26,0.33-0.42
	c1.33-3.81,2.64-7.63,3.42-11.55c0.07-0.33,0.06-0.62-0.19-0.93c-0.42-0.53-0.19-1.03,0.53-1.32c-0.15,0.72-0.17,1.42,0.2,2.11
	c0.11,0.2,0.13,0.43,0.07,0.66c-0.35,1.27-0.64,2.56-0.98,3.83c-0.18,0.66-0.56,1.29-0.73,1.98c-0.17,0.69-0.26,1.39-0.44,2.08
	c-0.13,0.48-0.37,0.93-0.47,1.41c-0.1,0.52,0.09,0.79,0.69,0.87c0.34,0.05,0.82,0,0.47,0.52c-0.11,0.16,0.08,0.25,0.23,0.33
	c0.11,0.05,0.2,0.12,0.13,0.25c-0.23,0.46-0.23,0.46,0.39,0.43c0.15-0.01,0.29-0.01,0.44-0.02c-0.04,0.12-0.09,0.25-0.13,0.37
	c-0.17,0.03-0.43-0.06-0.48,0.14c-0.04,0.17,0.22,0.23,0.33,0.35C41.1,29.57,40.56,31.34,39.81,33.07z"/>
<path class="st0" d="M98.03,12.37c-0.39-0.12-0.8-0.35-1.06,0.18c-0.04,0.09-0.2,0.12-0.32,0.06c-0.12-0.06-0.14-0.19-0.08-0.27
	c0.47-0.58,0.19-1.11-0.08-1.68c-0.14-0.29,0.14-0.58,0.4-0.8c0.18-0.15,0.34-0.29,0.29-0.53c-0.04-0.16-0.01-0.37-0.22-0.42
	c-0.21-0.05-0.26,0.15-0.33,0.27c-0.2,0.32-0.52,0.47-0.95,0.47c0.05-0.43,0.41-0.81,0.39-1.31c-1.53,0.57-2.79,1.4-4.09,2.17
	c-0.07,0.06-0.14,0.11-0.21,0.17c-0.04,0.03-0.09,0.06-0.13,0.09c-0.54-0.18-0.93,0.08-1.32,0.32c-0.22,0.14-0.43,0.3-0.72,0.18
	c-0.19-0.08-0.26-0.25-0.21-0.42c0.08-0.27,0.36-0.3,0.63-0.33c0.16-0.02,0.44-0.04,0.47-0.12c0.3-0.71,1.22-0.95,1.61-1.59
	c0.27-0.43,0.63-0.79,1.3-0.86c0.75-0.08,1.44-0.42,2.24-0.26c0.3,0.06,0.59-0.1,0.82-0.32c0.38-0.36,0.89-0.36,1.19,0
	c0.37,0.44,0.97,0.31,1.4,0.56c0.16,0.1,0.31-0.04,0.39-0.18c0.24-0.42,0.48-0.45,0.71,0c0.06,0.11,0.09,0.27,0.28,0.2
	c0.19-0.07,0.17-0.23,0.15-0.38c-0.04-0.27-0.39-0.51-0.09-0.8c0.89,1.01,0.92,1.72-0.13,2.54C99.27,10.18,98.62,11.25,98.03,12.37z
	 M97.11,10.39c-0.11,0.01-0.18,0.07-0.16,0.16c0.02,0.09,0.1,0.14,0.21,0.14c0.1,0,0.21-0.04,0.2-0.13
	C97.36,10.43,97.24,10.39,97.11,10.39z"/>
<path class="st0" d="M49.76,11.67c0,0.28-0.47,0.62,0.14,0.82c-0.67,0.42-1.48,0.19-2.22,0.35c-0.4,0.09-0.74,0.15-0.89,0.51
	c-0.21,0.49-0.07,0.67,0.55,0.66c0.18,0,0.35,0,0.45,0.14c0.13,0.18-0.05,0.25-0.2,0.33c-0.13,0.07-0.24,0.15-0.18,0.29
	c0.06,0.13,0.22,0.17,0.36,0.16c0.36-0.03,0.74-0.04,1.06-0.15c1.43-0.48,2.96-0.13,4.41-0.44l0,0c-0.49,0.5-1.15,0.85-1.85,1.03
	c-0.91,0.23-1.77,0.6-2.79,0.58c-0.48-0.01-1.19,0.17-1.03,0.93c0.05,0.24-0.05,0.77-0.66,0.35c-0.26-0.18-0.45-0.03-0.65,0.06
	c-0.97-0.43-1.06-1.06-0.26-1.78c0.12-0.11,0.37-0.19,0.3-0.37c-0.08-0.19-0.34-0.08-0.51-0.13c-0.55-0.35-0.09-0.69,0.05-1.01
	c0.18-0.42,0.32-0.69-0.45-0.7c-0.49-0.01-0.28-0.43-0.23-0.67c0.05-0.21,0.32-0.3,0.49-0.44C47.02,12.01,48.39,11.84,49.76,11.67z"
	/>
<path class="st0" d="M84.02,26.56c0.03,0.52,0.67,0.53,0.97,0.82c0.13,0.13,0.58,0.14,0.36,0.42c-0.26,0.33-0.49,0.05-0.73-0.17
	c-0.15,0.33-0.31,0.57-0.33,0.89c-0.03,0.44-0.59,0.62-0.82,1c-0.31,0.5-0.54,1.07-1.06,1.48c-0.05,0.04-0.05,0.17-0.02,0.23
	c0.46,0.75-0.2,1.42-0.1,2.14c-0.06,0.01-0.13,0.02-0.19,0.03c-0.09-0.23-0.18-0.47-0.26-0.7c0,0,0,0,0,0c-0.14,0-0.28,0-0.42,0
	c-0.21-0.68-0.22-1.36-0.06-2.05c0.15-0.64,0.23-1.29,0.18-1.95c-0.03-0.37,0.06-0.73,0.2-1.08C82.19,26.48,82.58,26.3,84.02,26.56z
	 M81.99,31.72c-0.08-0.06-0.12-0.12-0.17-0.13c-0.04,0-0.09,0.06-0.13,0.09c0.03,0.03,0.06,0.08,0.09,0.08
	C81.82,31.76,81.88,31.74,81.99,31.72z"/>
<path class="st0" d="M33.43,24.34c0.16-1.09-0.45-2.12-0.37-3.21c0.01-0.18-0.04-0.37-0.07-0.55c-0.08-0.54,0.11-0.8,0.86-0.54
	c-0.55,0.39-0.09,0.67,0.08,1.03c0.4,0.85,0.37,1.78,0.48,2.67c0.08,0.65,0.09,1.3,0.37,1.92c0.03,0.07,0.08,0.18,0.04,0.23
	c-0.36,0.49,0.14,0.87,0.23,1.3c0.11,0.52,0.27,1.05,0.24,1.56c-0.03,0.69,0.34,1.38-0.05,2.06c-0.03,0.05,0.01,0.18,0.07,0.22
	c0.63,0.51,0.61,1.17,0.61,1.84c0,0.53,0.4,0.91,0.7,1.33c-0.41-0.04-0.52-0.31-0.66-0.58c-1.02-1.97-1.28-4.1-1.81-6.18
	C33.88,26.42,33.82,25.35,33.43,24.34z"/>
<path class="st0" d="M85.35,21.11c0.49-0.27,0.73-0.69,0.97-1.12c0.14-0.25,0.33-0.34,0.63-0.17c0.79,0.45,1.67,0.66,2.6,0.67
	c1.23,0.01,2.22,0.48,2.97,1.23c0.24,0.24,0.35,0.67,0.53,1.01c-1.74-0.75-3.59-1.22-5.53-1.43c-0.52-0.06-1.06-0.23-1.59,0.12
	C85.73,21.55,85.6,21.15,85.35,21.11z"/>
<path class="st0" d="M41.59,34.18c-0.6,0.63,0.02,1.43-0.4,2.09c-0.61-0.19-0.82-0.6-0.79-1.1C40.43,34.54,41.02,34.36,41.59,34.18z
	"/>
<path class="st0" d="M99.82,5.94c-0.16-0.04-0.36-0.04-0.48-0.13c-0.55-0.4-1.19-0.51-1.9-0.5c-0.22,0-0.44-0.03-0.62-0.15
	C97.97,5.01,99.05,5.05,99.82,5.94z"/>
<path class="st0" d="M96.27,5.25c-0.36,0.6-1.04,0.52-1.67,0.56C95.12,5.55,95.66,5.32,96.27,5.25z"/>
<path class="st0" d="M21.78,9.72c-0.44,0.17-0.75-0.03-1.05-0.26C21.12,9.42,21.48,9.5,21.78,9.72z"/>
<path class="st0" d="M41.17,36.52c0.18,0.04,0.39,0.05,0.43,0.24c0.04,0.18-0.15,0.21-0.3,0.25c0,0,0,0,0,0
	c-0.04-0.03-0.08-0.07-0.12-0.1c-0.03-0.02-0.05-0.04-0.08-0.06C41.13,36.74,41.15,36.63,41.17,36.52z"/>
<path class="st0" d="M41.57,27.77c-0.11-0.12-0.37-0.19-0.33-0.35c0.05-0.19,0.31-0.11,0.48-0.14
	C41.67,27.44,41.62,27.61,41.57,27.77z"/>
<path class="st0" d="M78.39,6.2c0,0,0.02-0.01,0.02-0.01C78.41,6.2,78.39,6.2,78.39,6.2z"/>
<polygon class="st0" points="99.97,6.01 99.99,6.03 99.96,6.03 "/>
<path class="st0" d="M59.39,25.06c-0.32,1.55-0.93,3.03-1.33,4.56c-0.19-0.01-0.43,0.02-0.54-0.12c-0.49-0.59-0.67-0.28-0.81,0.18
	c-0.15,0.47-0.62,0.48-1.04,0.48c-0.3,0-0.57,0-0.62,0.28c-0.11,0.58-0.34,0.24-0.56,0.07c0,0,0.06-0.01,0.06-0.01
	s0.01,0.05,0.01,0.05c0.01-0.1,0.01-0.21,0.02-0.31c0.47-2.29,1.19-4.54,1.92-6.78c0.42-0.12,0.8-0.1,1.14,0.17
	c0.1,0.08,0.25,0.18,0.37,0.17c0.71-0.05,0.79,0.27,0.72,0.76C58.67,24.94,59.04,25.02,59.39,25.06z"/>
<path class="st0" d="M68.55,12.4c-0.45-0.02-0.75,0.26-1.08,0.44c-1.66,0.88-3.39,1.61-5.32,1.98c-0.46-0.28-0.97-0.1-1.46-0.12
	c-0.04-0.14,0.08-0.33-0.18-0.41c-0.14,0.21,0.03,0.3,0.18,0.41c-0.07,0.27-0.23,0.22-0.47,0.15c-1.03-0.32-1.31-0.16-1.46,0.77
	c-0.07,0.44-0.09,0.88-0.28,1.31c-0.18,0.4-0.27,0.11-0.39,0c0.13-0.99,0.36-1.97,0.29-2.97c0.36-0.56,0.93-0.74,1.64-0.66
	c0.78,0.09,1.48-0.02,2.13-0.42c0.4-0.24,0.84-0.34,1.36-0.26c0.53,0.07,0.95-0.29,1.39-0.49c0.7-0.31,1.54-0.33,2.18-0.78
	c0.24-0.17,0.55,0.06,0.78,0.21C68.19,11.78,68.45,12.05,68.55,12.4z"/>
<path class="st0" d="M68.45,20.89c-0.6,0.56-1.36,0.97-2.11,1.34c-2.01,0.98-4.21,1.51-6.51,1.74c-0.02-0.35,0.09-0.68,0.2-1.01
	c0.13-0.41,0.36-0.64,0.91-0.57c0.52,0.07,0.95-0.43,1.5-0.17l0,0c0.05,0,0.1,0,0.15,0l0,0c0.38-0.04,0.59-0.32,0.9-0.47
	c0.78-0.38,1.62-0.37,2.44-0.53C66.77,21.06,67.64,21.16,68.45,20.89z"/>
<path class="st0" d="M51.51,16.4c-0.29,0.07-0.56,0.19-0.87,0.16c-0.21-0.15-0.53-0.01-0.79-0.25c0.63-0.39,1.32-0.58,2.05-0.65
	c0.27-0.03,0.32,0.18,0.16,0.33C51.9,16.15,51.69,16.27,51.51,16.4z"/>
<path class="st0" d="M71.34,10.87c-0.16,0.3-0.33,0.37-0.57,0.28c-0.05-0.02-0.1-0.12-0.08-0.14
	C70.84,10.83,71.05,10.88,71.34,10.87z"/>
<path class="st0" d="M73.23,9.9c-0.21-0.02-0.43-0.05-0.73-0.08C72.87,9.58,73.09,9.55,73.23,9.9L73.23,9.9z"/>
<path class="st0" d="M95.69,16.15c-0.14-0.01-0.21-0.06-0.2-0.15c0.01-0.04,0.08-0.11,0.13-0.11c0.11-0.01,0.17,0.06,0.17,0.15
	C95.78,16.08,95.72,16.12,95.69,16.15z"/>
<path class="st0" d="M73.23,9.9c0.14,0.03,0.29,0.06,0.29,0.21c0,0.03-0.11,0.1-0.13,0.09C73.23,10.15,73.25,10.02,73.23,9.9
	C73.23,9.9,73.23,9.9,73.23,9.9z"/>
<path class="st0" d="M61.49,12.74c-0.13,0.04-0.19,0.07-0.25,0.07c-0.03,0-0.09-0.04-0.09-0.06c0-0.05,0.03-0.09,0.05-0.14
	C61.24,12.64,61.3,12.66,61.49,12.74z"/>
<path class="st0" d="M53.25,14.34c0.04-0.1-0.04-0.25,0.17-0.29C53.52,14.22,53.35,14.26,53.25,14.34
	C53.25,14.34,53.25,14.34,53.25,14.34z"/>
<path class="st0" d="M47.99,24.94c-0.02,0-0.04,0-0.05-0.01c-0.01-0.01,0-0.03,0.01-0.04c0.02,0,0.04,0,0.05,0.01
	C48,24.9,47.99,24.92,47.99,24.94z"/>
<path class="st0" d="M49.97,12.4c0.01,0.01,0.02,0.02,0.03,0.02c-0.02,0.01-0.03,0.03-0.05,0.04c-0.02,0.01-0.04,0.02-0.06,0.03
	C49.92,12.46,49.95,12.43,49.97,12.4z"/>
<path class="st0" d="M50.63,24.81C50.63,24.81,50.63,24.82,50.63,24.81C50.63,24.82,50.63,24.81,50.63,24.81z"/>
<path class="st0" d="M73.96,10.15L73.96,10.15L73.96,10.15z"/>
<path class="st0" d="M62.44,22.23c0.05,0,0.1,0,0.15,0c0,0,0,0,0,0C62.54,22.23,62.49,22.23,62.44,22.23L62.44,22.23z"/>
<path class="st0" d="M15.19,22.2c0.12,0.01,0.24,0.01,0.35,0.02c0.03,0.09,0.03,0.22,0.18,0.22c0.14,0,0.16-0.12,0.2-0.21
	c2.63,0.15,5.15,0.54,7.16,2.16c0.2,0.3,0.51,0.55,0.62,0.9c0.18,0.57-0.04,0.81-0.73,0.83c-1.19,0.02-1.21,0.02-1.59,1.01
	c-0.21,0.56-0.91,0.57-1.34,0.89c-0.15,0.12-0.6-0.15-0.34-0.51c0.39-0.54,0.68-1.14,1.3-1.55c0.3-0.2,0.31-0.31-0.03-0.6
	c-1.29-1.08-3.02-1.18-4.61-1.61c-0.23-0.06-0.49-0.09-0.68-0.21c-0.41-0.25-0.78-0.59-1,0.32C14.5,23.09,14.47,22.55,15.19,22.2z"
	/>
<path class="st0" d="M21.09,14.17c-0.05-0.01-0.07,0-0.09-0.01c-0.21-0.11-0.13-0.26-0.02-0.36c0.26-0.24,0.15-0.78,0.68-0.75
	c0.31,0.02,0.15,0.34,0.06,0.51C21.58,13.8,21.36,14.02,21.09,14.17z"/>
<path class="st0" d="M33.44,18.28c-0.01,0.13-0.1,0.19-0.24,0.17c-0.2-0.03-0.28-0.14-0.27-0.31c0.01-0.11,0.08-0.21,0.23-0.18
	C33.34,18,33.41,18.14,33.44,18.28z"/>
<path class="st0" d="M23.8,20.38c-0.06,0.08-0.13,0.17-0.27,0.13c-0.01,0-0.04-0.04-0.03-0.04C23.56,20.36,23.69,20.39,23.8,20.38
	L23.8,20.38z"/>
<path class="st0" d="M71.5,23.67c1.09-0.66,1.95-1.53,2.82-2.37c1.87-1.8,3.67-3.65,5.23-5.65c0.13,0.26,0.33,0.38,0.68,0.3
	c0.19-0.04,0.32,0.08,0.37,0.23c0.06,0.15-0.07,0.21-0.2,0.27c-0.44,0.21-0.47,0.56-0.58,0.95c-0.1,0.38-0.43,0.83-0.94,1.02
	c-0.37,0.14-0.55,0.34-0.66,0.66c-0.15,0.4-0.33,0.81-0.85,1c-0.47,0.18-0.43,0.74-0.93,0.91c-0.22,0.52-0.72,0.86-1.16,1.24
	c-0.87,0.74-1.73,1.47-2.49,2.29c-0.46,0.5-1.12,0.82-1.79,0.99c-1.06,0.26-1.81,0.68-1.89,1.68c-0.04,0.46-0.26,0.54-0.75,0.41
	c-0.29-0.08-0.62-0.05-0.94-0.07c-0.02-0.26-0.3-0.29-0.49-0.4c-0.78-0.44-1.48-0.94-1.76-1.74c-0.17-0.46-0.17-0.92,0.36-1.21
	c0.55-0.31,1.11-0.21,1.62,0.1c0.08,0.05,0.14,0.11,0.22,0.16c0.17,0.11,0.33,0.34,0.54,0.27c0.26-0.08,0.18-0.35,0.22-0.55
	c0.05-0.24,0.11-0.48,0.16-0.72c1.4-0.4,1.58-0.27,1.35,1.02c-0.03,0.15-0.22,0.34,0.06,0.42c0.2,0.05,0.44,0.02,0.6-0.13
	C70.7,24.39,71.1,24.03,71.5,23.67z"/>
<path class="st0" d="M79.73,15.44c0.06-0.2,0.17-0.36,0.34-0.51C80.06,15.15,79.95,15.32,79.73,15.44z"/>
<path class="st0" d="M79.62,15.7c-0.05-0.14,0.02-0.22,0.16-0.28C79.73,15.51,79.67,15.6,79.62,15.7z"/>
<path class="st0" d="M80.08,14.96c0.01-0.04,0.02-0.08,0.03-0.13C80.1,14.88,80.09,14.92,80.08,14.96z"/>
<path class="st0" d="M41.18,36.92c0.04,0.03,0.08,0.07,0.12,0.1C41.26,36.98,41.22,36.95,41.18,36.92z"/>
<path class="st0" d="M88.71,12.19c-0.15,0-0.27-0.01-0.24-0.12c0.01-0.06,0.13-0.11,0.22-0.13c0.09-0.02,0.22,0.01,0.19,0.11
	C88.86,12.12,88.75,12.16,88.71,12.19z"/>
<path class="st0" d="M94.82,23.6c-0.06-0.03-0.1-0.04-0.14-0.06c0.04-0.04,0.07-0.09,0.12-0.12c0.02-0.01,0.07,0.03,0.11,0.05
	C94.88,23.51,94.85,23.56,94.82,23.6z"/>
<path class="st0" d="M89.87,12.16c-0.04,0.03-0.08,0.07-0.12,0.1c-0.07-0.06-0.24-0.13-0.14-0.21
	C89.71,11.96,89.79,12.1,89.87,12.16z"/>
<path class="st0" d="M96.27,23.83c-0.03,0.15,0.05,0.33-0.16,0.43c-0.03,0.01-0.14-0.05-0.15-0.09
	C95.91,23.96,96.09,23.9,96.27,23.83C96.27,23.83,96.27,23.83,96.27,23.83z"/>
<path class="st0" d="M45.45,35.08c-0.03-0.03-0.05-0.05-0.08-0.08c0.03-0.02,0.07-0.04,0.1-0.05c0.01,0,0.05,0.03,0.04,0.03
	C45.51,35.02,45.48,35.05,45.45,35.08z"/>
<path class="st0" d="M46.18,34.56c-0.03,0.01-0.06,0.03-0.1,0.04c-0.01,0-0.05-0.03-0.04-0.03c0.02-0.03,0.04-0.05,0.06-0.07
	C46.13,34.52,46.16,34.54,46.18,34.56z"/>
<path class="st0" d="M46.59,26.81c0.02,0.03,0.04,0.06,0.06,0.09c-0.04,0.01-0.07,0.02-0.11,0.03c-0.01,0-0.04-0.04-0.03-0.05
	C46.53,26.85,46.56,26.83,46.59,26.81z"/>
<path class="st0" d="M51.36,24.81C51.36,24.81,51.36,24.82,51.36,24.81C51.36,24.82,51.36,24.81,51.36,24.81z"/>
<path class="st0" d="M97.11,10.39c0.13,0.01,0.25,0.04,0.25,0.17c0,0.1-0.1,0.13-0.2,0.13c-0.11,0-0.19-0.04-0.21-0.14
	C96.93,10.46,97,10.4,97.11,10.39z"/>
<path class="st0" d="M91.98,10.52c-0.07,0.06-0.14,0.11-0.21,0.17C91.84,10.63,91.91,10.57,91.98,10.52z"/>
<path class="st0" d="M81.99,31.72c-0.1,0.02-0.16,0.05-0.22,0.04c-0.03,0-0.06-0.05-0.09-0.08c0.05-0.03,0.09-0.09,0.13-0.09
	C81.86,31.6,81.9,31.66,81.99,31.72z"/>
<path class="st0" d="M81.83,32.7C81.83,32.7,81.83,32.7,81.83,32.7C81.83,32.7,81.83,32.7,81.83,32.7z"/>
<path class="st0" d="M54.57,30.24c-0.01,0.1-0.01,0.21-0.02,0.31C54.56,30.45,54.57,30.34,54.57,30.24z"/>
<path class="st0" d="M60.69,14.71c-0.15-0.1-0.32-0.2-0.18-0.41C60.77,14.38,60.65,14.57,60.69,14.71
	C60.69,14.71,60.69,14.71,60.69,14.71z"/>
<path class="st0" d="M62.44,22.23c0.05,0,0.1,0,0.15,0C62.54,22.23,62.49,22.23,62.44,22.23z"/>
<path class="st0" d="M15.92,22.23c-0.04,0.09-0.06,0.21-0.2,0.21c-0.15,0-0.15-0.13-0.18-0.22C15.67,22.22,15.8,22.23,15.92,22.23z"
	/>
<path class="st1" d="M47.94,24.92c0.01,0.01,0.03,0.01,0.05,0.01c0-0.01,0.01-0.03,0.01-0.04c-0.01-0.01-0.03-0.01-0.05-0.01
	C47.94,24.89,47.93,24.91,47.94,24.92z"/>
<path class="st1" d="M49.96,12.46c0.02-0.01,0.03-0.02,0.05-0.04c-0.01-0.01-0.02-0.02-0.07,0.02c0,0,0,0,0,0
	c0.01-0.01-0.01,0.01-0.04,0.04C49.92,12.48,49.94,12.47,49.96,12.46z"/>
<path class="st1" d="M53.42,14.05c-0.21,0.04-0.13,0.19-0.17,0.29C53.35,14.26,53.52,14.22,53.42,14.05z"/>
<path class="st1" d="M61.14,12.75c0,0.02,0.06,0.06,0.09,0.06c0.06,0,0.12-0.03,0.25-0.07c-0.19-0.09-0.24-0.11-0.29-0.13
	C61.17,12.66,61.14,12.71,61.14,12.75z"/>
<path class="st1" d="M70.77,11.15c0.24,0.09,0.41,0.02,0.57-0.28c-0.28,0.01-0.5-0.04-0.65,0.14
	C70.67,11.03,70.72,11.13,70.77,11.15z"/>
<path class="st1" d="M73.23,9.9c0.02,0.11,0,0.25,0.15,0.31c0.03,0.01,0.13-0.06,0.13-0.09C73.52,9.96,73.37,9.94,73.23,9.9z"/>
<path class="st1" d="M95.62,15.89c-0.05,0-0.12,0.07-0.13,0.11c-0.01,0.09,0.06,0.14,0.2,0.15c0.03-0.03,0.09-0.07,0.1-0.12
	C95.79,15.95,95.73,15.88,95.62,15.89z"/>
<path class="st1" d="M72.5,9.82c0.3,0.03,0.52,0.06,0.73,0.08C73.09,9.55,72.86,9.58,72.5,9.82z"/>
<path class="st0" d="M39.91,6.74c0,0.42-0.29,0.83-0.01,1.27c0.08,0.12-0.13,0.19-0.24,0.27c-0.23,0.18-0.33,0.4-0.34,0.66
	c0,0.15,0.12,0.37-0.11,0.44c-0.31,0.09-0.37-0.2-0.53-0.33c-0.28,0.61-0.38,1.23,0.29,1.69c0.43,0.29,0.89,0.52,1.06,1.03
	c0.31-0.82,1.59-1.01,1.6-1.98c0.29,0.91,0.26,1.79,0.22,2.67c-0.15,0.72-0.17,1.42,0.2,2.11c0.11,0.2,0.13,0.43,0.07,0.66
	c-0.35,1.27-0.64,2.56-0.98,3.83c-0.18,0.66-0.56,1.29-0.73,1.98c-0.17,0.69-0.26,1.39-0.44,2.09c-0.13,0.48-0.37,0.93-0.47,1.41
	c-0.1,0.52,0.09,0.79,0.69,0.87c0.34,0.05,0.82,0,0.47,0.52c-0.11,0.16,0.08,0.25,0.23,0.33c0.11,0.05,0.2,0.12,0.13,0.25
	c-0.23,0.46-0.23,0.46,0.39,0.43c0.15-0.01,0.29-0.01,0.44-0.02c0.27-0.65,0.38-1.32,0.59-1.98c0.94-2.98,1.81-5.99,2.33-9.05
	c0.1-0.57,0.2-1,1.03-0.87c-0.55-0.35-0.09-0.69,0.05-1.01c0.18-0.42,0.32-0.69-0.45-0.7c-0.49-0.01-0.28-0.43-0.23-0.67
	c0.05-0.21,0.32-0.3,0.49-0.44c-0.31,0.04-0.52-0.01-0.51-0.33c0.07-1.85-0.57-3.54-1.65-5.13c-0.05-0.07-0.08-0.16-0.1-0.24h-3.48
	C39.91,6.56,39.91,6.64,39.91,6.74z"/>
<polygon class="st0" points="60.69,14.71 60.69,14.71 60.69,14.71 "/>
<path class="st0" d="M39.91,6.48h3.48c-0.01-0.05-0.03-0.11-0.04-0.16l-3.44,0.15C39.91,6.47,39.91,6.48,39.91,6.48z"/>
<polygon class="st0" points="49.94,12.45 49.94,12.45 49.94,12.45 "/>
<polygon class="st0" points="73.23,9.9 73.23,9.9 73.23,9.9 73.23,9.9 "/>
<polygon class="st0" points="53.25,14.34 53.25,14.34 53.25,14.34 53.25,14.34 "/>
<polygon class="st0" points="73.96,10.15 73.96,10.15 73.96,10.15 "/>
<path class="st0" d="M39.91,6.48c0,0,0-0.01,0-0.01l-0.31,0.01H39.91z"/>
<path class="st0" d="M39.21,9.37c0.23-0.07,0.11-0.29,0.11-0.44c0-0.26,0.11-0.48,0.34-0.66c0.1-0.08,0.32-0.15,0.24-0.27
	c-0.28-0.43,0.01-0.85,0.01-1.27c0-0.1,0-0.18,0-0.26h-0.31l-0.15,0.01c-0.01,0.08-0.03,0.16-0.06,0.26
	c-0.25,0.76-0.48,1.53-0.72,2.3C38.84,9.17,38.9,9.47,39.21,9.37z"/>
<polygon class="st0" points="39.46,6.48 39.46,6.49 39.61,6.48 "/>
<path class="st1" d="M49.96,12.46c0.02-0.01,0.03-0.02,0.05-0.04c-0.01-0.01-0.02-0.02-0.07,0.02c0,0,0,0,0,0
	c0.01-0.01-0.01,0.01-0.04,0.04C49.92,12.48,49.94,12.47,49.96,12.46z"/>
<path class="st1" d="M53.42,14.05c-0.21,0.04-0.13,0.19-0.17,0.29C53.35,14.26,53.52,14.22,53.42,14.05z"/>
<path class="st1" d="M47.94,24.92c0.01,0.01,0.03,0.01,0.05,0.01c0-0.01,0.01-0.03,0.01-0.04c-0.01-0.01-0.03-0.01-0.05-0.01
	C47.94,24.89,47.93,24.91,47.94,24.92z"/>
<polygon class="st1" points="53.25,14.34 53.25,14.34 53.25,14.34 53.25,14.34 "/>
<polygon class="st1" points="73.96,10.15 73.96,10.15 73.96,10.15 "/>
<polygon class="st1" points="49.94,12.45 49.94,12.45 49.94,12.45 "/>
<path class="st1" d="M73.23,9.9c0.02,0.11,0,0.25,0.15,0.31c0.03,0.01,0.13-0.06,0.13-0.09C73.52,9.96,73.37,9.94,73.23,9.9z"/>
<path class="st1" d="M95.62,15.89c-0.05,0-0.12,0.07-0.13,0.11c-0.01,0.09,0.06,0.14,0.2,0.15c0.03-0.03,0.09-0.07,0.1-0.12
	C95.79,15.95,95.73,15.88,95.62,15.89z"/>
<path class="st1" d="M70.77,11.15c0.24,0.09,0.41,0.02,0.57-0.28c-0.28,0.01-0.5-0.04-0.65,0.14
	C70.67,11.03,70.72,11.13,70.77,11.15z"/>
<path class="st1" d="M61.14,12.75c0,0.02,0.06,0.06,0.09,0.06c0.06,0,0.12-0.03,0.25-0.07c-0.19-0.09-0.24-0.11-0.29-0.13
	C61.17,12.66,61.14,12.71,61.14,12.75z"/>
<polygon class="st1" points="73.23,9.9 73.23,9.9 73.23,9.9 73.23,9.9 "/>
<path class="st1" d="M72.5,9.82c0.3,0.03,0.52,0.06,0.73,0.08C73.09,9.55,72.86,9.58,72.5,9.82z"/>
<polygon class="st1" points="73.96,10.15 73.96,10.15 73.96,10.15 "/>
<path class="st1" d="M61.14,12.75c0,0.02,0.06,0.06,0.09,0.06c0.06,0,0.12-0.03,0.25-0.07c-0.19-0.09-0.24-0.11-0.29-0.13
	C61.17,12.66,61.14,12.71,61.14,12.75z"/>
<path class="st1" d="M47.94,24.92c0.01,0.01,0.03,0.01,0.05,0.01c0-0.01,0.01-0.03,0.01-0.04c-0.01-0.01-0.03-0.01-0.05-0.01
	C47.94,24.89,47.93,24.91,47.94,24.92z"/>
<polygon class="st1" points="53.25,14.34 53.25,14.34 53.25,14.34 53.25,14.34 "/>
<path class="st1" d="M70.77,11.15c0.24,0.09,0.41,0.02,0.57-0.28c-0.28,0.01-0.5-0.04-0.65,0.14
	C70.67,11.03,70.72,11.13,70.77,11.15z"/>
<polygon class="st1" points="49.94,12.45 49.94,12.45 49.94,12.45 "/>
<path class="st1" d="M49.96,12.46c0.02-0.01,0.03-0.02,0.05-0.04c-0.01-0.01-0.02-0.02-0.07,0.02c0,0,0,0,0,0
	c0.01-0.01-0.01,0.01-0.04,0.04C49.92,12.48,49.94,12.47,49.96,12.46z"/>
<path class="st1" d="M53.42,14.05c-0.21,0.04-0.13,0.19-0.17,0.29C53.35,14.26,53.52,14.22,53.42,14.05z"/>
<path class="st1" d="M95.62,15.89c-0.05,0-0.12,0.07-0.13,0.11c-0.01,0.09,0.06,0.14,0.2,0.15c0.03-0.03,0.09-0.07,0.1-0.12
	C95.79,15.95,95.73,15.88,95.62,15.89z"/>
<path class="st1" d="M72.5,9.82c0.3,0.03,0.52,0.06,0.73,0.08C73.09,9.55,72.86,9.58,72.5,9.82z"/>
<polygon class="st1" points="73.23,9.9 73.23,9.9 73.23,9.9 73.23,9.9 "/>
<path class="st1" d="M73.23,9.9c0.02,0.11,0,0.25,0.15,0.31c0.03,0.01,0.13-0.06,0.13-0.09C73.52,9.96,73.37,9.94,73.23,9.9z"/>
<path class="st0" d="M73.94,3.19c-0.63-0.06-0.96,0.14-0.98,0.71c-0.05,1.26-0.55,2.45-0.85,3.68C71.96,8.19,71.33,7.89,70.91,8
	c-0.44,0.11-0.4-0.19-0.47-0.43c-0.16-0.55-0.87-0.79-1.67-0.63c-0.29,0.05-0.7,0.45-0.84,0.11c0-0.01-0.01-0.02-0.01-0.04
	l-0.3,0.12c-0.05,0.15-0.12,0.27-0.24,0.36c-0.54,0.41-1.13,0.77-1.61,1.24c-0.15,0.15-0.37,0.19-0.59,0.22
	c-1.1,0.18-2.19,0.36-3.28,0.56c-0.48,0.09-0.71-0.02-0.8-0.45c-0.13-0.61-0.37-1.19-0.74-1.73c-0.34-0.5-0.82-0.8-1.54-0.75
	c-0.78,0.05-1.14,0.5-0.96,1.15c0.17,0.6,0.3,1.2,0.48,1.8c0.15,0.47-0.06,0.64-0.6,0.73c-2.66,0.45-5.32,0.94-7.98,1.41
	c0,0.28-0.47,0.62,0.18,0.78c0,0,0,0,0,0c0,0,0,0,0,0c0,0,0,0,0,0c0.05-0.04,0.06-0.03,0.07-0.02c-0.02,0.01-0.03,0.03-0.05,0.04
	c-0.02,0.01-0.04,0.02-0.06,0.03c0.02-0.03,0.05-0.06,0.04-0.04c0,0,0,0,0,0c-0.7,0.46-1.52,0.24-2.25,0.4
	c-0.4,0.09-0.74,0.15-0.89,0.51c-0.21,0.49-0.07,0.67,0.55,0.66c0.18,0,0.35,0,0.45,0.14c0.13,0.18-0.05,0.25-0.2,0.33
	c-0.13,0.07-0.24,0.15-0.18,0.29c0.06,0.13,0.22,0.17,0.36,0.16c0.36-0.03,0.74-0.04,1.06-0.15c1.43-0.48,2.96-0.13,4.41-0.44
	c0,0,0,0,0,0c0,0,0,0,0,0c0.04-0.1-0.04-0.25,0.17-0.29c0.1,0.17-0.07,0.21-0.17,0.29c0,0,0,0,0,0c0,0,0,0,0,0
	c-0.49,0.5-1.15,0.85-1.85,1.03c-0.91,0.23-1.77,0.6-2.79,0.58c-0.48-0.01-1.19,0.17-1.03,0.93c0.05,0.24-0.05,0.77-0.66,0.35
	c-0.26-0.18-0.45-0.03-0.65,0.06c-0.16,0.73-0.32,1.45-0.47,2.18c0.23,0.31,0.72-0.27,0.83,0.15c0.07,0.25-0.13,0.55-0.2,0.83
	c-0.1,0.42-0.22,0.84-0.11,1.28c0.05,0.21-0.05,0.38-0.15,0.57c-0.51,1-1.07,1.99-1.67,2.96c-0.16,0.26-0.16,0.55-0.11,0.84
	c0.03,0.21,0.14,0.4,0.39,0.48c0.26,0.08,0.47-0.02,0.64-0.18c0.1-0.09,0.28-0.25,0.29-0.24c0.62,0.44,0.88,0.05,1.18-0.33
	c0.05-0.06,0.23-0.08,0.34-0.06c0.83,0.15,1.39-0.34,2.03-0.61c0.41-0.17,0.62,0.01,0.93,0.17c0.15-0.43-0.46-0.49-0.44-0.86
	c0.31,0.12,0.59,0.24,0.87,0.35l0,0c0.24,0.5,0.48-0.05,0.73,0l0,0c0.02-0.31-0.27-0.45-0.67-0.75c1.02,0.07,1.8-0.23,2.64-0.27
	c0.27-0.01,0.58,0.02,0.74-0.16c0.6-0.65,0.9-0.19,1.23,0.21c0.42-0.08,0.66-0.55,1.19-0.39c0.42-0.12,0.8-0.1,1.14,0.17
	c0.1,0.08,0.25,0.18,0.37,0.17c0.71-0.05,0.79,0.27,0.72,0.76c-0.06,0.38,0.31,0.46,0.66,0.5c0.13-0.37,0.18-0.76,0.44-1.09
	c-0.02-0.35,0.09-0.68,0.2-1.01c0.13-0.41,0.36-0.64,0.91-0.57c0.52,0.07,0.95-0.43,1.5-0.17c0.05,0,0.1,0,0.15,0
	c0.38-0.04,0.59-0.32,0.9-0.47c0.78-0.38,1.62-0.37,2.44-0.53c0.84-0.17,1.72-0.07,2.52-0.34c0.09,0,0.18-0.01,0.26-0.01
	c0.19-0.35,0.52-0.58,0.87-0.79c0.79-0.48,0.79-0.6,0.06-1.1c-0.15-0.1-0.27-0.23-0.4-0.35c-0.12,0.06-0.1,0.26-0.29,0.23
	c-1.26-0.2-2.31,0.38-3.44,0.65c-1.46,0.35-2.83,0.91-4.3,1.25c-0.58,0.14-0.69,0.05-0.55-0.43c0.49-1.65,0.9-3.32,1.06-5.02
	c0.02-0.22,0.05-0.46,0.42-0.49c-0.46-0.28-0.97-0.1-1.46-0.12c-0.07,0.27-0.23,0.22-0.47,0.15c-1.03-0.32-1.31-0.16-1.46,0.77
	c-0.07,0.44-0.09,0.88-0.28,1.31c-0.18,0.4-0.27,0.11-0.39,0c-0.3,1.18-0.62,2.36-0.89,3.54c-0.09,0.37-0.25,0.5-0.71,0.51
	c-1.03,0.03-2.01,0.28-2.93,0.65c-1.51,0.61-3.07,1.11-4.66,1.56c-0.45,0.13-0.7,0.15-0.55-0.36c0.54-1.87,1.1-3.74,1.38-5.65
	c0.08-0.54,0.56-0.47,0.92-0.62c-0.21-0.15-0.53-0.01-0.79-0.25c0.63-0.39,1.32-0.58,2.05-0.65c0.27-0.03,0.32,0.18,0.16,0.33
	c-0.15,0.15-0.36,0.27-0.54,0.4c1.5-0.34,3-0.67,4.39-1.28c0.48-0.21,0.92-0.45,1.29-0.79c0.09-0.09,0.16-0.24,0.33-0.21
	c0.22,0.04,0.14,0.23,0.2,0.36c0.08,0.16-0.04,0.38,0.26,0.53c0.18-0.29,0.07-0.59,0.09-0.87c0.02-0.19,0.03-0.36,0.32-0.16
	c0.36-0.56,0.93-0.74,1.64-0.66c0.78,0.09,1.48-0.02,2.13-0.42c0.4-0.24,0.84-0.34,1.36-0.26c0.53,0.07,0.95-0.29,1.39-0.49
	c0.7-0.31,1.54-0.33,2.18-0.78c0.24-0.17,0.55,0.06,0.78,0.21c0.33,0.21,0.58,0.49,0.68,0.84c0.48,0.43,0.9,0.91,1.62,1.07
	c0.62-0.11,0.99-0.53,1.46-0.83c0.26-0.16,0.26-0.34,0.13-0.53c-0.33-0.51,0.12-0.84,0.36-1.22c0.1-0.16,0.17-0.02,0.27,0.01
	c0.68,0.16,1.19-0.15,1.68-0.47c0.14-0.09,0.02-0.22-0.11-0.3c0,0,0,0,0,0l0,0c0,0,0,0,0,0c0.47-0.27,1.02-0.13,1.52-0.18
	c0.94-0.09,1.91-0.31,2.81,0.18c0.51-0.37,0.83,0.45,1.38,0.15c0.54-0.3,1.01,0.09,1.5,0.22c0.48,0.13,0.84,0.4,1.24,0.64
	c0.19,0.11,0.4,0.17,0.6,0.03c0.32-0.23-0.14-0.22-0.16-0.35C82.69,10,81.79,9.84,81.1,9.52c-0.59-0.28-1.28-0.4-1.74-0.85
	c-1.11-0.38-2.28-0.53-3.46-0.64C75.63,8,75.22,8.08,75.29,7.68c0.13-0.86,0.34-1.71,0.68-2.62c0.01,0.02,0.02,0.03,0.03,0.05
	l-0.08-1.1C75.35,3.45,74.67,3.26,73.94,3.19z M47.99,24.94c-0.02,0-0.04,0-0.05-0.01c-0.01-0.01,0-0.03,0.01-0.04
	c0.02,0,0.04,0,0.05,0.01C48,24.9,47.99,24.92,47.99,24.94z M61.23,12.82c-0.03,0-0.09-0.04-0.09-0.06c0-0.05,0.03-0.09,0.05-0.14
	c0.05,0.02,0.1,0.05,0.29,0.13C61.36,12.78,61.3,12.81,61.23,12.82z M70.77,11.15c-0.05-0.02-0.1-0.12-0.08-0.14
	c0.15-0.18,0.37-0.13,0.65-0.14C71.18,11.17,71.01,11.24,70.77,11.15z M73.38,10.21c-0.16-0.06-0.13-0.19-0.15-0.31c0,0,0,0,0,0
	c0,0,0,0,0,0c-0.21-0.02-0.42-0.05-0.73-0.08c0.36-0.24,0.59-0.27,0.73,0.08c0,0,0,0,0,0c0,0,0,0,0,0c0.14,0.03,0.29,0.06,0.29,0.21
	C73.52,10.15,73.41,10.22,73.38,10.21z"/>
</svg>
