<?xml version="1.0" encoding="utf-8"?>
<!-- Generator: Adobe Illustrator 23.0.5, SVG Export Plug-In . SVG Version: 6.00 Build 0)  -->
<svg version="1.1" id="Layer_1" xmlns="http://www.w3.org/2000/svg" xmlns:xlink="http://www.w3.org/1999/xlink" x="0px" y="0px"
	 viewBox="0 0 99.05 77.44" style="enable-background:new 0 0 99.05 77.44;" xml:space="preserve">
<style type="text/css">
	.st0{fill:#861C29;}
</style>
<g>
	<path class="st0" d="M57.72,7.37c0.08-0.02,0.15-0.03,0.23-0.05c0.19,0.08,0.38,0.07,0.54-0.08c0.12-0.02,0.24-0.04,0.36-0.06
		c0.27,0.08,0.53,0.07,0.78-0.06c0.34-0.02,0.68-0.04,1.02-0.06c0.48,0.13,0.95,0.13,1.42-0.01c0.08,0,0.16,0,0.25,0
		c0.05,0,0.09,0,0.14,0c0.16,0,0.33,0.01,0.49,0.01c0.1,0.15,0.19,0.12,0.29-0.01c0.16,0,0.32,0.01,0.48,0.01
		c0.87,0.32,1.79,0.19,2.68,0.33c0.09,0.01,0.2-0.14,0.3-0.22c0.51,0,1.02-0.03,1.52,0.07c0.94,0.36,1.93,0.24,2.88,0.12
		c0.31-0.04,0.73-0.35,0.66-0.87c0.48,0.09,1.01-0.08,1.22-0.41c0.55-0.84,1.44-0.9,2.23-1.11c1.02-0.27,2.07-0.45,3.13-0.58
		c0.76-0.09,1.47-0.05,2.21,0.15c0.6,0.17,1.12,0.52,1.71,0.69c0.2,0.06,0.56,0.02,0.59,0.11c0.22,0.64,0.93,0.49,1.29,0.9
		c-0.04,0.15-0.39,0-0.32,0.27c0.04,0.16,0.19,0.16,0.32,0.12c0.25-0.07,0.35,0.09,0.44,0.27c0.1,0.21,0.02,0.36-0.16,0.49
		c-0.35,0.26-0.46,0.59,0,0.77c0.35,0.14,0.35,0.28,0.35,0.6c0,0.37,0.23,1.05,0.29,1.05c0.87-0.12,0.51,0.67,0.46,0.79
		c-0.34,0.81-0.3,1.62-0.15,2.44c-0.02,0.03-0.04,0.06-0.06,0.1c-0.01,0.01,0.01,0.03,0.01,0.04c0.01-0.05,0.03-0.1,0.04-0.15
		c0.28,0.17,0.24,0.36,0.06,0.58c-0.18,0.22-0.25,0.49-0.26,0.77c-0.04,1.42,0.19,2.9-0.86,4.11c-0.04,0.04-0.03,0.12-0.05,0.18
		c-0.31,0.96-0.76,1.83-1.52,2.51c-0.7,0.63-1.52,1.1-2.34,1.55c-0.61,0.34-0.54,0.6-0.13,0.99c2.25,2.16,4.44,4.4,6.8,6.45
		c1.52,1.31,3.06,2.59,4.59,3.9c0.35,0.3,0.71,0.59,0.96,1.02c0.31,0.54,0.24,1.04-0.14,1.47c-0.25,0.28-0.33,0.58-0.33,0.92
		c-0.06,0-0.13,0-0.19,0c-0.13-0.29-0.3-0.47-0.66-0.48c-0.57-0.02-1.05-0.32-1.55-0.56c-0.63-0.4-1.23-0.87-1.86-1.26
		c-0.84-0.53-1.53-1.21-2.21-1.88c-0.7-0.69-1.45-1.34-2.19-1.98c-0.37-0.32-0.69-0.78-1.24-0.88c-0.12-0.13-0.24-0.25-0.37-0.38
		c-0.05-0.04-0.1-0.09-0.15-0.13c-1.38-1.41-2.77-2.8-4.12-4.23c-0.38-0.41-0.71-0.63-1.25-0.34c-0.33,0.18-0.77,0.08-1.05,0.41
		c-0.51,0.39-1.24,0.21-1.71,0.7c-0.04,0.04-0.13,0.09-0.16,0.07c-0.72-0.41-1.42,0.02-2.13,0.05c-0.99,0.03-1.97-0.01-2.9-0.44
		c-0.42-0.2-0.72-0.52-0.73-0.98c0-0.48,0.4-0.66,0.8-0.81c1.15-0.42,2.28-0.87,3.37-1.43c0.05-0.04,0.1-0.07,0.15-0.11c0,0,0,0,0,0
		c0.59-0.13,0.67-0.67,0.73-1.1c0.28-1.93,0.73-3.82,1.16-5.72c0.34-1.45,0.57-2.94,0.81-4.41c0.09-0.57,0.33-1.16,0.14-1.77
		c0.01-0.08,0.02-0.16,0.03-0.24c0.13-0.06,0.15-0.15,0.08-0.27c0-0.17,0.04-0.39-0.24-0.34c-0.53,0.09-1.05,0.19-1.57,0.29
		c-0.22,0.04-0.25,0.14-0.2,0.37c0.17,0.88-0.01,1.17-0.85,1.39c-0.29,0.08-0.59,0.12-0.89,0.13c-2.31,0.14-4.62,0.2-6.94,0.18
		c-0.22,0-0.57-0.15-0.43,0.35c0.46,1.6-0.01,3.07-0.63,4.53c-0.34,0.81-0.63,1.64-0.93,2.47c-0.12,0.34-0.19,0.68,0.46,0.6
		c1.32-0.15,2.65-0.24,3.98-0.18c0.09,0.06,0.18,0.06,0.26,0.01c0.64,0.02,1.29-0.02,1.92,0.1l0.06,0.02c0,0,0.06-0.01,0.06-0.01
		c0.04,0,0.09,0.01,0.13,0.01c0.17,0.25,0.46,0.2,0.7,0.25c0.68,0.16,0.83,0.5,0.46,1.07c-0.22,0.35-0.4,0.71-0.36,1.14
		c-0.23,0.12-0.44,0.26-0.68,0.34c-1.63,0.62-3.33,0.91-5.06,1.02c-0.21,0.01-0.45-0.05-0.66,0.21c0.27,0.08,0.49,0.15,0.71,0.22
		c0.02,0.1,0.01,0.23,0.07,0.3c0.4,0.44,0.25,0.79-0.13,1.13c-0.09,0.08-0.14,0.2-0.21,0.31l-0.05,0.01l-0.02,0.01
		c-1.11,0.32-2.24,0.58-3.39,0.68c-0.43,0.04-0.63,0.2-0.71,0.64c-0.24,1.41-0.55,2.81-0.79,4.23c-0.14,0.79-0.3,1.58-0.3,2.45
		c0.27-0.08,0.47-0.14,0.67-0.21c2.75-0.89,5.35-2.18,7.99-3.33c1.18-0.51,2.38-0.85,3.67-0.73c0.25,0.04,0.51,0.07,0.76,0.13
		c0.38,0.09,0.62,0.48,0.44,0.7c-0.36,0.44-0.4,1.09-0.95,1.4c-0.2,0.11-0.36,0.31-0.37,0.57c-3.66,2.36-7.45,4.42-11.79,5.25
		c-0.49,0.09-0.98,0.14-1.47,0.09c-0.43-0.04-0.51,0.14-0.49,0.52c0.03,0.61,0.2,0.95,0.91,1.1c3.13,0.66,5.71,2.27,7.71,4.78
		c0.16,0.2,0.33,0.4,0.49,0.59c0.01,0.01,0.04,0.01,0.11,0.03c-0.03-0.42-0.09-0.83-0.08-1.23c0.01-0.85,0.39-1.36,1.13-1.61
		c0.79-0.27,1.29-0.13,1.84,0.62c1.99,2.68,3.99,5.37,5.78,8.19c0.69,1.09,0.78,1.09,1.41,0c1.81-3.14,3.76-6.19,6.01-9.03
		c0.93-1.18,1.93-2.29,3.18-3.16c0.59-0.41,1.24-0.58,1.93-0.62c0.55-0.04,0.91,0.36,0.94,0.99c0.03,0.75-0.14,1.44-0.52,2.09
		c-0.52,0.89-1.12,1.73-1.75,2.54c-1.78,2.31-3.59,4.59-5.14,7.07c-0.04,0.01-0.05,0.04-0.05,0.07c-0.17,0.27-0.34,0.55-0.51,0.82
		c-0.13,0.06-0.19,0.17-0.17,0.31c0,0-0.01,0.02-0.01,0.02c-0.63,0.14-0.61,0.67-0.67,1.15c0,0.03-0.02,0.05-0.04,0.07
		c-0.11,0.06-0.26,0.1-0.31,0.19c-0.51,0.94-1.08,1.85-1.47,2.84c-0.32,0.81-0.62,1.64-0.95,2.45c-0.11,0.28-0.24,0.55-0.2,0.86
		c-0.02,0.07-0.05,0.14-0.07,0.21c-0.13,0.08-0.17,0.2-0.15,0.35c0,0.03-0.01,0.05-0.03,0.07c-0.67-0.09-0.9-0.37-0.84-1.08
		c0.04-0.48,0-0.94-0.11-1.4c-0.07-0.31-0.35-0.34-0.57-0.45c-0.12-0.06-0.26-0.03-0.25,0.08c0.02,0.43-0.35,0.62-0.5,0.94
		c-0.47,0.98-0.93,1.97-1.31,2.99c-0.44,1.17-0.8,2.38-1.08,3.61c-0.14,0.64-0.4,1.23-0.75,1.8c-0.04-0.6,0-1.2-0.27-1.75
		c0.02-0.12,0.04-0.25,0.06-0.37c0.13-0.06,0.14-0.16,0.07-0.28c0.05-0.21,0.1-0.42,0.15-0.63c0.29-0.25,0.35-0.56,0.24-0.91
		c0.05-0.21,0.11-0.42,0.16-0.63c0.13-0.06,0.16-0.15,0.1-0.27c0.45-1.75,1.1-3.43,1.88-5.05c0.29-0.6,0.28-1.08-0.11-1.66
		c-1.59-2.34-3.3-4.59-4.94-6.89c-0.19-0.27-0.29-0.61-0.74-0.85c0.42,0.96,0.68,1.84,0.79,2.76c0.34,2.89-0.51,5.52-1.82,8.03
		c-1.63,3.12-4.03,5.62-6.63,7.95c-1.3,1.16-2.65,2.25-4.14,3.15c-1.11,0.67-2.27,1.2-3.54,1.49c-0.32,0.07-0.63,0.14-0.7,0.6
		c-0.11-0.39-0.36-0.35-0.62-0.36c-1.23-0.04-1.64-0.44-1.58-1.66c0.17-3.54,0.57-7.05,1.66-10.44c0.66-2.03,0.64-4.14,0.88-6.23
		c0.35-3.07,0.72-6.12,1.71-9.07c0.14-0.43-0.12-0.37-0.33-0.39c-0.92-0.11-1.84-0.18-2.75-0.32c-0.8-0.12-1.54-0.39-2.02-1.11
		c-0.41-0.62-0.33-1.07,0.3-1.46c0.86-0.53,1.82-0.73,2.8-0.9c1.4-0.25,2.81-0.35,4.23-0.24c0.52,0.04,0.7-0.14,0.54-0.59
		c-0.25-0.71-0.27-1.48-0.86-2.09c-1.33-1.38-1.13-3.11-0.86-4.8c0.21-1.3,0.46-2.6,0.7-3.9c0.08-0.42,0.07-0.67-0.44-0.85
		c-1.16-0.41-2.02-1.18-2.31-2.56c-0.64,0.73-1.45,1.25-2.2,1.84c-1.4,1.11-2.93,1.96-4.61,2.5c-0.58,0.19-0.75,0.49-0.82,1.02
		c-0.23,1.68-0.5,3.35-0.77,5.02c-0.16,1.03-0.5,1.99-1.09,2.86c-0.12,0.18-0.18,0.37-0.2,0.59c-0.05,0.41,0.05,0.59,0.51,0.65
		c2.62,0.36,4.43,1.85,5.53,4.2c1.23,2.61,1.67,5.41,1.72,8.25c0.07,3.58-0.34,7.12-1.48,10.53c-0.84,2.54-2.09,4.84-4.31,6.48
		c-2.45,1.8-5.82,1.6-8.05-0.47c-1.24-1.16-2.17-2.53-2.89-4.06c-0.2-0.42-0.39-0.85-0.65-1.41c-0.91,2.4-2.27,4.33-4.17,5.87
		c-0.32-0.16-0.6-0.36-0.99-0.37c-0.34-0.01-0.53-0.52-0.36-0.83c0.06-0.11,0.28-0.16,0.15-0.37c-0.35,0.08-0.6,0.41-0.98,0.41l0,0
		c-0.11-0.4-0.43-0.48-0.78-0.51c-0.02-0.04-0.03-0.09-0.06-0.11c-0.05-0.03-0.08,0-0.04,0.04c0.02,0.03,0.07,0.04,0.11,0.06
		c-0.41,0.41-0.48,1.21-1.3,1.16c-0.01-0.06-0.02-0.12-0.03-0.17c-0.03,0.02-0.06,0.03-0.09,0.05c0.04,0.04,0.09,0.08,0.13,0.12
		c-0.18,0.43-0.58,0.4-0.86,0.27c-0.71-0.33-1.34-0.2-1.96,0.26c-0.08-0.32,0.01-0.52,0.23-0.59c0.52-0.15,1.05-0.39,1.62-0.15
		c0.11,0.05,0.25,0.18,0.32,0.01c0.08-0.17-0.08-0.26-0.23-0.32c-0.2-0.08-0.48,0.03-0.61-0.26c0.73-0.45,1.46-0.89,2.17-1.34
		c0.28-0.18,0.61-0.35,0.52-0.79l0.02-0.01c0.36,0.07,0.52-0.11,0.55-0.45l0,0c0.26,0.01,0.39-0.11,0.4-0.37
		c0.08-0.09,0.16-0.17,0.25-0.26c0.32-0.12,0.93,0.05,0.64-0.66c0.23-0.53,0.47-1.05,0.69-1.58c0.31-0.76,0.11-1.36-0.53-1.86
		c-0.74-0.57-1.56-0.98-2.43-1.29c-1.88-0.68-3.85-0.81-5.81-0.94c-0.46-0.03-0.65,0.07-0.7,0.55c-0.18,1.55-0.35,3.11-0.62,4.65
		c-0.27,1.58-0.35,3.2-0.88,4.73c-0.02,0.07-0.04,0.14-0.06,0.21c-0.03,0.1-0.07,0.2-0.1,0.3c-0.04,0.02-0.1,0.04-0.1,0.07
		c-0.09,0.65-1.04,0.68-1.02,1.43c0,0.14-0.23,0.17-0.38,0.18c-0.47,0-0.89-0.09-1.1-0.6c-0.15-0.37-0.34-0.73-0.51-1.09
		c-0.01-0.17-0.03-0.33-0.04-0.5c0.14-0.51,0.13-1.02-0.01-1.53c0.01-0.25,0.01-0.51,0.02-0.76c0.34-1.14,0.39-2.31,0.25-3.49
		c0.01-0.12,0.02-0.25,0.02-0.37c0.29-0.41,0.22-0.86,0.1-1.3c0.02-0.21,0.04-0.42,0.06-0.62c0.15-0.17,0.15-0.35,0.05-0.53
		c0.03-0.47,0.07-0.94,0.1-1.41c0.01-0.12,0.02-0.25,0.02-0.37c0,0,0-0.02,0-0.02c0.06-0.09,0.06-0.17,0.02-0.27
		c-0.01-0.13-0.03-0.25-0.04-0.38c0.17-0.14,0.25-0.53,0.51-0.38c0.61,0.35,1.62-0.12,1.88,0.92c0.01,0.04,0.11,0.06,0.17,0.07
		c0.53,0.09,1.05,0.2,1.59,0.24c0.54,0.04,0.71-0.25,0.48-0.76c-0.07-0.16,0-0.29,0.08-0.42c0.09-0.15,0.22-0.36,0.06-0.47
		c-0.43-0.31-0.24-0.66-0.17-1.03c0.17-0.85-0.28-1.37-0.99-1.07c-0.76,0.32-1.61,0.5-2.19,1.16c-0.1,0.12-0.22,0.22-0.39,0.16
		c-0.53-0.18-1.16-0.24-1.16-1.01c0.38-0.26,0.51-0.62,0.53-1.08c0.11-1.84,0.27-3.68,0.27-5.52c0-0.75,0.07-1.52,0.85-1.87
		c0.76-0.35,1.54-0.12,2.2,0.31c0.83,0.54,1.29,1.31,1.25,2.38c-0.06,1.38-0.33,2.75-0.3,4.14c0.01,0.49,0.16,0.63,0.63,0.62
		c0.68-0.01,1.38-0.02,2.05,0.09c0.89,0.15,1.62-0.08,2.33-0.61c1.63-1.22,3.16-2.5,4.05-4.4c0.37-0.8,0.56-1.61,0.31-2.49
		c-0.19-0.68-0.64-1.1-1.24-1.37c-1.49-0.67-3.06-0.73-4.66-0.68c-3.79,0.11-7.09,1.69-10.32,3.45c-0.28,0.15-0.53,0.37-0.88,0.37
		c0.23-0.58,0.42-1.15-0.1-1.69c-0.08-0.08-0.11-0.23-0.04-0.36c0.1-0.19-0.04-1.02-0.2-1.07c-0.51-0.16-0.57-0.61-0.71-1.02
		c3.12-2.24,6.6-3.59,10.38-4.15c2.75-0.41,5.48-0.34,8.06,0.85c1.96,0.9,3.53,2.2,4,4.45c0.31,1.47-0.05,2.85-0.69,4.17
		c-1.03,2.15-2.59,3.87-4.37,5.41c-0.11,0.1-0.22,0.2-0.4,0.35c1.78,0.67,3.43,1.45,4.67,2.94c0.26-0.6-0.19-1.15,0.07-1.67
		c0.26,0.12,0.8,0.28,0.63,0.47c-0.49,0.55,0.15,0.5,0.27,0.72c0.28,0.53,1.32,0.58,0.94,1.54c-0.08,0.21,0.17,0.16,0.3,0.07
		c0.4-0.28,0.39-0.88-0.06-1.11c-0.51-0.26-0.46-0.39,0.02-0.6c0.3-0.13,0.43-0.44,0.55-0.75c0.13-0.33,0.13-0.76,0.49-0.94
		c0.6-0.3,0.51-0.82,0.36-1.27c-0.11-0.32-0.07-0.54,0.01-0.84c0.17-0.63,0.4-1.29,0.36-1.93c-0.05-0.75-0.31-1.5-0.55-2.24
		c-0.12-0.37-0.38-0.69-0.57-1.04c-0.33,0.23-0.92-0.21-1.1,0.45c-0.05,0.17-0.31,0.28-0.47,0.41c0.36-1.13,0.83-2.2,1.43-3.22
		c0.43-0.73,0.92-1.4,1.03-2.31c0.1-0.81,0.8-1.34,1.44-1.82c1.3-0.97,2.68-1.79,4.33-2c0.33-0.04,0.37-0.25,0.44-0.52
		c0.09-0.35-0.15-0.33-0.34-0.41c-0.29-0.12-0.48-0.37-0.63-0.62c-0.52-0.88-0.88-1.81-0.89-2.85c-0.03-1.59,0-3.17,0.26-4.74
		c0.06-0.35,0-0.6-0.33-0.81c-0.51-0.32-0.94-0.75-1.34-1.19c-0.48-0.52-0.66-1.09-0.35-1.76c0.32-0.44,0.75-0.6,1.28-0.57
		c0.34,0.02,0.69-0.01,1.03,0c0.34,0.01,0.47-0.13,0.53-0.48c0.34-1.85,0.71-3.7,1.09-5.55c0.37-1.82,0.77-3.63,1.17-5.53
		c-0.82,0.48-1.4,1.12-2.01,1.71c-0.32,0.31-0.41,0.63-0.39,1.07c0.07,2.78-0.53,5.36-2.31,7.57c-0.4,0.49-0.88,0.9-0.48,1.61
		c0.01,0.01-0.02,0.04-0.03,0.06c-0.06,0.02-0.13,0.04-0.18,0.07c-0.39,0.32-0.7,0.44-0.99-0.17c-0.12-0.25-0.47,0.02-0.68,0.13
		c-2.05,1.02-4.18,1.82-6.42,2.3c-0.5,0.11-1,0.2-1.51,0.25c-0.4,0.04-0.62,0.21-0.67,0.61c-0.37-0.75-0.56-1.54-0.38-2.36
		c0.21-0.94,0.25-0.93-0.71-1.32c0.46-0.08,0.96-0.17,0.84-0.6c-0.13-0.45,0.04-0.92-0.16-1.35c-0.12-0.25-0.09-0.39,0.22-0.53
		c0.4-0.19,0.35-0.67,0.27-0.99c-0.09-0.38-0.45-0.31-0.82,0.05c0.3-1.12-0.46-1.31-1.04-1.67c-0.25,0.59-0.28,1.21-0.63,1.72
		c-0.3,0.43-0.4,0.88-0.1,1.36c0.1,0.15,0.2,0.36,0.02,0.53c-0.18,0.16-0.36,0.04-0.53-0.03c-0.1-0.04-0.2-0.07-0.3-0.11
		c0.05-0.42,0.07-0.85,0.15-1.27c0.63-3.08,1.27-6.15,1.89-9.22c0.04-0.21,0.24-0.5,0-0.65c-0.22-0.14-0.5-0.03-0.72,0.12
		c-0.94-0.23-1.56,0.36-2.1,0.94c-0.58,0.62-0.88,1.43-1.18,2.24c-0.21,0.56,0.25,0.77,0.26,1.17l0,0c-0.32,0.27-0.68,0.4-0.83,0.94
		c-0.29,1.05,0.39,1.62,0.85,2.31c0.65,0.95,0.66,2.35-0.09,3.19c-0.4,0.44-0.52,0.75,0.18,0.95c0.12,0.03,0.26,0.12,0.17,0.27
		C23.58,24,23.43,24,23.33,24.02c0,0,0,0,0,0c0.01,0.11-0.01,0.23,0.04,0.32c0.14,0.28-0.06,0.83,0.38,0.83
		c0.42,0.01,0.2-0.54,0.36-0.79c0.19-0.01,0.38-0.02,0.57-0.03c0.7,0.28,0.26,1.11,0.72,1.5c-0.51,0.38-0.16,1.06-0.54,1.51
		c-0.18,0.21-0.16,0.59-0.52,0.67c-0.12-0.01-0.24-0.02-0.36-0.03c-0.05,0-0.09,0-0.14,0.01c-0.39-0.03-0.47,0.23-0.51,0.53
		c-0.55-0.12-0.51,0.76-1.07,0.64c0.01,0.04,0.02,0.08,0.02,0.12c-0.03,0.64-0.05,1.27-0.12,1.9c-0.03,0.26-0.09,0.51,0.13,0.71
		c-0.04,0.03-0.08,0.06-0.13,0.1c-0.25,0.84-0.86,1.02-1.63,0.89c-0.17-0.16-0.34-0.32-0.53-0.5c-0.97,1.73-2.09,3.3-3.81,4.35
		c-0.77-0.04-1.44,0.63-2.24,0.3c-0.01-0.01-0.1,0.08-0.1,0.13c-0.01,0.32-0.25,0.2-0.36,0.16c-0.47-0.19-0.99-0.2-1.43-0.47
		c-0.09-0.1-0.15-0.1-0.18,0.04c-0.42-0.01-0.69-0.08-0.72-0.63c-0.01-0.25-0.04-0.58-0.17-0.84c-0.05-0.1-0.39,0-0.31-0.27
		c0.05-0.2,0.27-0.18,0.43-0.19c0,0-0.01,0.01-0.01,0.01c-0.01-0.32,0.26-0.75-0.33-0.84c0.2-0.49-0.21-0.89-0.24-1.38
		c-0.03-0.68,0.22-1.37-0.05-2.05c-0.03-0.08,0.01-0.23,0.07-0.3c0.29-0.35-0.01-0.49-0.22-0.64c-0.19-0.13-0.42-0.19-0.63-0.3
		c-0.32-0.16-0.43-0.32-0.16-0.67c0.36-0.44,0.37-0.91-0.19-1.25c-0.15-0.09-0.22-0.21-0.08-0.36c0.14-0.15,0.34-0.18,0.43,0
		c0.17,0.34,0.48,0.48,0.78,0.63c0.46,0.22,0.77-0.01,0.76-0.53c-0.01-0.78,0.19-1.04,0.98-1.26c-0.01,0.17,0.01,0.34-0.02,0.51
		c-0.24,1.29,0.02,2.49,0.62,3.63c-0.05,0.04-0.09,0.07-0.14,0.11c-0.11-0.13-0.13-0.33-0.4-0.41c-0.03,0.95,0.04,1.85,0.47,2.67
		c0.25,0.48,0.88,0.57,1.48,0.21c0.9-0.54,1.6-1.29,2.17-2.16c1.48-2.27,2.34-4.81,3.04-7.4c0.95-3.54,1.69-7.13,2.34-10.73
		c0.08-0.42,0.16-0.82-0.03-1.25c-0.16-0.38-0.11-0.83,0.15-1.17c0.75-0.98,0.85-2.17,1.17-3.3c0.18-0.64,0.25-1.31,0.65-1.87
		c0.68-0.31,1.12-1.15,2.15-0.71c0.36,0.15,0.58,0.23,0.71,0.56c0.15,0.4,0.1,0.74-0.29,1C25.85,6,25.77,6.5,25.72,7
		c-0.03,0.25,0.11,0.37,0.34,0.33c0.63-0.11,1.28,0.04,1.9-0.16c3.16-0.13,6.19,0.33,9.01,1.84c0.74,0.4,1.43,0.87,2,1.49
		c0.33,0.37,0.49,0.25,0.78-0.06c1.92-2.04,4.09-3.74,6.88-4.39c3.12-0.72,5.96-0.2,8.22,2.27c0.08,0.19,0.2,0.38,0.42,0.22
		C56.04,8.04,56.92,7.78,57.72,7.37z M84.79,12.29c-0.02-0.12-0.04-0.24-0.06-0.36c0.09-0.29,0.01-0.5-0.27-0.64
		c-0.59-0.87-1.31-1.59-2.32-1.95C81.14,9,80.13,8.77,79.07,8.71c-0.76-0.04-0.79-0.04-0.48,0.64c0.43,0.95,0.66,1.89,0.28,2.92
		c-0.24,0.66-0.46,1.33-0.69,2c-0.7,2.02-1.29,4.08-1.8,6.16c-0.05,0.2-0.16,0.46,0.03,0.6c0.16,0.12,0.36-0.07,0.53-0.15
		c1.31-0.65,2.53-1.44,3.69-2.32c1.67-1.27,3.14-2.71,3.99-4.69C84.97,13.37,85.12,12.86,84.79,12.29z M30.17,19.77
		c-0.42-0.07-0.32,0.3-0.36,0.48c-0.22,1.07-0.38,2.15-0.6,3.22c-0.1,0.47,0.03,0.55,0.47,0.52c4.26-0.22,7.11-3.11,7.44-6.66
		c0.06-0.09,0.06-0.17,0.01-0.26c0-0.08,0.01-0.16,0.01-0.24c0.08-0.13,0.08-0.27,0.01-0.4c0-0.12,0-0.25-0.01-0.37
		c0.04-0.09,0.03-0.18-0.03-0.26c-0.24-1.01-0.77-1.86-1.55-2.53c-1.1-0.93-2.43-1.32-3.81-1.56c-0.39-0.07-0.3,0.17-0.24,0.39
		c0.17,0.67,0.23,1.35,0.06,2.03c-0.01,0.04-0.01,0.09-0.02,0.13c-0.21,1.43-0.53,2.82-1.15,4.13c-0.18,0.38-0.25,0.76-0.13,1.17
		C30.23,19.62,30.2,19.7,30.17,19.77z M54.25,64.98c0.4-0.27,0.82-0.51,1.21-0.8c1.69-1.26,3.25-2.66,4.67-4.21
		c1.95-2.12,3.27-4.55,3.68-7.43c0.45-3.24-0.29-6-3.2-7.89c-1.76-1.14-3.71-1.69-5.77-1.98c0.01,0.27,0.18,0.35,0.3,0.47
		c1.16,1.21,1.74,2.6,1.49,4.32c-0.43,2.99-0.76,6-1.21,8.99c-0.42,2.82-0.95,5.63-1.22,8.48c-0.01,0.03-0.02,0.06-0.03,0.09
		C54.19,65,54.22,64.99,54.25,64.98z M36.91,54.05c0,0.51-0.01,1.03,0,1.54c0.03,2.4,0.39,4.74,1.52,6.9
		c0.58,1.11,1.36,2.09,2.67,2.27c1.36,0.18,2.23-0.68,2.95-1.71c0.09-0.12,0.17-0.25,0.25-0.38c0.89-1.49,1.43-3.1,1.74-4.8
		c0.4-2.26,0.96-4.51,0.39-6.85c-0.21-0.86-0.19-1.79-0.2-2.68c-0.02-1.58-0.6-2.96-1.41-4.27c-0.4-0.65-0.91-1.19-1.55-1.6
		c-0.4-0.26-0.71-0.32-0.75,0.32c-0.04,0.54-0.32,0.97-0.85,1.09c-0.98,0.23-1.56,0.92-2.05,1.69c-0.75,1.17-1.31,2.42-1.76,3.74
		C37.34,50.85,37.01,52.43,36.91,54.05z M48.68,10.38c-0.16,0.04-0.54-0.13-0.66,0.11c-0.12,0.24,0.18,0.49,0.32,0.72
		c0.46,0.73,0.63,1.48,0.31,2.32c-0.19,0.52-0.32,1.06-0.45,1.59c-0.42,1.78-0.76,3.58-1.15,5.37c-0.18,0.86-0.4,1.71-0.6,2.57
		c-0.02,0.1-0.04,0.24,0.01,0.3c0.11,0.13,0.23-0.01,0.33-0.06c0.82-0.44,1.57-0.97,2.26-1.58c1.74-1.54,3.09-3.32,3.57-5.66
		c0.26-1.3,0.29-2.62-0.38-3.75C51.51,11.08,50.34,10.31,48.68,10.38z M55.87,20.54c1.17-0.06,1.27-0.14,1.63-1.37
		c0.03-0.1,0.06-0.2,0.1-0.31c0.78-2.36,1.45-4.75,2.35-7.07c0.17-0.44,0.09-0.59-0.39-0.66c-0.89-0.12-1.79-0.23-2.65-0.48
		c-0.15-0.04-0.33-0.2-0.47-0.02c-0.09,0.12,0.01,0.29,0.06,0.43c0.34,1,0.52,2.03,0.53,3.09c0.01,2.11-0.45,4.12-1.39,6.02
		C55.51,20.39,55.43,20.58,55.87,20.54z M29.57,66.35c-0.35-0.03-0.8-0.51-0.99,0.22c-0.03,0.12-0.51-0.03-0.24,0.3
		c0.16,0.19,0.46,0.14,0.61-0.09C29.11,66.53,29.35,66.5,29.57,66.35z M29.05,20.17c-0.62-0.16-0.62-0.16-0.95,0.11
		C28.39,20.25,28.65,20.22,29.05,20.17z M28.57,22.57c0.05-0.05,0.1-0.11,0.15-0.17c-0.03-0.01-0.07-0.04-0.1-0.04
		c-0.08,0.01-0.17,0.04-0.16,0.15C28.45,22.53,28.51,22.54,28.57,22.57z M25.42,7.18c-0.02-0.01-0.04-0.02-0.06-0.02
		c-0.02,0.01-0.03,0.03-0.04,0.05c0.03,0.01,0.06,0.02,0.09,0.03C25.42,7.22,25.42,7.2,25.42,7.18z M28.87,20.97l0.01-0.05
		l-0.05,0.02L28.87,20.97z"/>
	<path class="st0" d="M14.53,67.11c0.17,0.36,0.35,0.72,0.51,1.09c0.21,0.5,0.62,0.6,1.1,0.6c0.15,0,0.38-0.04,0.38-0.18
		c-0.02-0.75,0.92-0.78,1.02-1.43c0-0.03,0.07-0.05,0.1-0.07c-0.04,0.16-0.08,0.33-0.12,0.49c-0.05,0.2-0.22,0.42-0.03,0.6
		c0.16,0.15,0.37,0,0.54-0.06c0.91-0.32,1.82-0.63,2.72-0.98c1.96-0.77,3.75-1.86,5.47-3.07c0.09,0.44-0.24,0.61-0.52,0.79
		c-0.72,0.45-1.44,0.89-2.17,1.34c0.13,0.28,0.41,0.18,0.61,0.26c0.14,0.06,0.3,0.15,0.23,0.32c-0.08,0.17-0.21,0.04-0.32-0.01
		c-0.56-0.23-1.09,0-1.62,0.15c-0.22,0.06-0.31,0.27-0.23,0.59c0.63-0.47,1.25-0.59,1.96-0.26c0.28,0.13,0.68,0.15,0.86-0.27
		L25,67.01c0.82,0.04,0.89-0.75,1.3-1.16l-0.01,0.01c0.35,0.04,0.67,0.12,0.78,0.51c-0.15,0.03-0.28-0.03-0.42-0.08
		c-0.28-0.09-0.56,0.22-0.36,0.32c0.3,0.14,0.58,0.02,0.78-0.25c0.38,0,0.63-0.33,0.98-0.41c0.13,0.21-0.09,0.25-0.15,0.37
		c-0.17,0.31,0.02,0.82,0.36,0.83c0.39,0.01,0.68,0.21,0.99,0.37c-1.28,1.26-2.83,2.12-4.41,2.92c-3.16,1.6-6.51,2.59-10.04,2.91
		c-0.7,0.06-1.4,0.1-2.11,0c-0.95-0.13-1.6-0.73-2.09-1.47c-0.49-0.74,0.28-2.36,1.18-2.53c0.88-0.17,1.77-0.28,2.67-0.4
		c0.51-0.07,0.68-0.25,0.4-0.75C14.64,67.88,14.49,67.52,14.53,67.11z"/>
	<path class="st0" d="M12.06,36.85c0.44,0.27,0.97,0.28,1.43,0.47c0.11,0.05,0.35,0.16,0.36-0.16c0-0.05,0.08-0.14,0.1-0.13
		c0.81,0.33,1.48-0.34,2.24-0.3c-2.43,1.86-5.51,1.23-7.03-1.43c-1.24-2.16-1.74-4.52-1.72-6.96c0.06-6.18,0.82-12.25,2.98-18.09
		c0.25-0.68,0.35-1.42,0.82-2.01c-0.06,0.25-0.11,0.5-0.19,0.74c-0.49,1.47-0.98,2.94-1.47,4.41c-0.08,0.24-0.03,0.46,0,0.69
		c0.06,0.48,0.22,1,0.1,1.44c-0.32,1.13-0.27,2.18,0.27,3.21c0.15,0.29,0.17,0.56-0.11,0.81c-0.2,0.18-0.35,0.43-0.12,0.67
		c0.22,0.23,0.46,0.47,0.83,0.29c0.15-0.08,0.3-0.15,0.49-0.12c0.52,0.11,0.79-0.16,0.56-0.62c-0.15-0.31,0.03-0.45,0.08-0.68
		c0.09-0.48,0.58-0.32,0.78-0.6c0.37-0.5,0.53-1.1,0.58-1.65c0.07-0.92,0.67-1.57,0.95-2.36c-0.37,1.72-0.84,3.41-1.12,5.14
		c-0.34,2.12-0.46,4.26-0.65,6.39c-0.79,0.23-0.99,0.48-0.98,1.26c0.01,0.52-0.3,0.75-0.76,0.53c-0.3-0.14-0.61-0.28-0.78-0.63
		c-0.09-0.18-0.29-0.16-0.43,0c-0.14,0.15-0.07,0.27,0.08,0.36c0.56,0.34,0.54,0.81,0.19,1.25c-0.28,0.35-0.17,0.51,0.16,0.67
		c0.21,0.1,0.44,0.17,0.63,0.3c0.22,0.14,0.51,0.29,0.22,0.64c-0.06,0.07-0.1,0.22-0.07,0.3c0.27,0.67,0.02,1.37,0.05,2.05
		c0.02,0.49,0.44,0.89,0.24,1.38c0.59,0.09,0.33,0.52,0.33,0.84l0.01-0.01c-0.17,0.02-0.38-0.01-0.43,0.19
		c-0.07,0.28,0.26,0.17,0.31,0.27c0.13,0.25,0.16,0.59,0.17,0.84c0.03,0.56,0.3,0.63,0.72,0.63l-0.01-0.01
		c0.03,0.02,0.06,0.03,0.09,0.03C12,36.89,12.03,36.87,12.06,36.85z"/>
	<path class="st0" d="M85.37,13.08c-0.16-0.83-0.19-1.63,0.15-2.44c0.05-0.12,0.41-0.92-0.46-0.79C85,9.86,84.77,9.17,84.77,8.8
		c0-0.32,0-0.47-0.35-0.6c-0.46-0.18-0.35-0.52,0-0.77c0.18-0.13,0.26-0.28,0.16-0.49c-0.09-0.18-0.19-0.35-0.44-0.27
		c-0.13,0.04-0.28,0.04-0.32-0.12c-0.07-0.27,0.28-0.12,0.32-0.27c-0.36-0.41-1.08-0.26-1.29-0.9c-0.03-0.09-0.39-0.06-0.59-0.11
		c-0.59-0.18-1.11-0.52-1.71-0.69c-0.74-0.21-1.45-0.25-2.21-0.15C77.28,4.54,76.23,4.72,75.21,5c-0.79,0.21-1.68,0.27-2.23,1.11
		c-0.21,0.32-0.73,0.49-1.22,0.41c0.08,0.51-0.34,0.83-0.66,0.87c-0.95,0.12-1.94,0.23-2.88-0.12c0.15-0.03,0.29-0.07,0.44-0.08
		c0.41-0.01,0.9,0.22,0.9-0.56c0-0.22,0.39-0.5,0.66-0.66c4.46-2.52,9.07-2.8,13.74-0.7c2.38,1.07,4.1,2.93,5.18,5.32
		c0.37,0.81,0.36,1.66,0.21,2.51c-0.52,3.05-2.24,5.36-4.52,7.33c-1.24,1.07-2.6,1.96-4.01,2.78c-0.22,0.13-0.56,0.17-0.55,0.55
		c-0.41-0.39-0.48-0.65,0.13-0.99c0.81-0.45,1.64-0.92,2.34-1.55c0.75-0.68,1.21-1.55,1.52-2.51c0.02-0.06,0.01-0.14,0.05-0.18
		c1.05-1.21,0.82-2.69,0.86-4.11c0.01-0.29,0.08-0.55,0.26-0.77C85.6,13.44,85.64,13.24,85.37,13.08L85.37,13.08z"/>
	<path class="st0" d="M70.84,64.18c0.26,0.55,0.23,1.15,0.27,1.75c0.34-0.57,0.61-1.17,0.75-1.8c0.27-1.23,0.64-2.43,1.08-3.61
		c0.38-1.02,0.85-2.01,1.31-2.99c0.15-0.32,0.52-0.51,0.5-0.94c-0.01-0.11,0.13-0.14,0.25-0.08c0.23,0.11,0.5,0.14,0.57,0.45
		c0.11,0.46,0.15,0.92,0.11,1.4c-0.06,0.71,0.18,0.99,0.84,1.08c-0.58,1.77-1.17,3.53-1.55,5.35c-0.37,1.79-0.54,3.59-0.53,5.41
		c0,0.56-0.06,1.11-0.07,1.67c-0.01,1.04-0.79,1.24-1.56,1.47c-0.17-0.19,0.2-0.19,0.11-0.35c-0.38-0.07-0.57,0.16-0.74,0.55
		c-0.22-0.61-0.89-0.56-1.16-1.14c-0.52-1.14-0.82-2.28-0.71-3.53c0.11-1.21,0.17-2.43,0.25-3.65
		C70.59,64.85,70.69,64.51,70.84,64.18z"/>
	<path class="st0" d="M25.02,22.98c0.1,0.04,0.2,0.06,0.3,0.11c0.18,0.08,0.36,0.2,0.53,0.03c0.18-0.17,0.08-0.37-0.02-0.53
		c-0.3-0.49-0.2-0.93,0.1-1.36c0.35-0.51,0.38-1.12,0.63-1.72c0.58,0.36,1.34,0.55,1.04,1.67c0.37-0.37,0.72-0.43,0.82-0.05
		c0.08,0.32,0.13,0.8-0.27,0.99c-0.31,0.14-0.33,0.28-0.22,0.53c0.2,0.43,0.03,0.89,0.16,1.35c0.12,0.43-0.37,0.52-0.84,0.6
		c0.95,0.39,0.91,0.38,0.71,1.32c-0.18,0.82,0.01,1.61,0.38,2.36c-0.02,1.4-0.28,2.77-0.54,4.13c-0.15,0.75,0.09,1.48-0.06,2.21
		c-0.06,0.26,0,0.55-0.37,0.65c-0.21,0.06-0.34,0.23-0.32,0.49c0.02,0.33-0.33,0.32-0.5,0.37c-0.25,0.08-0.13-0.23-0.21-0.36
		c-0.07-0.13,0.06-0.42-0.21-0.37c-0.19,0.04-0.17,0.28-0.15,0.44c0.04,0.32,0.14,0.63-0.09,0.92l0.01,0.01
		c-0.35-0.83-0.44,0.13-0.72,0.1c-0.12-0.23-0.01-0.59-0.41-0.74c-0.18-0.07,0.31-0.16,0.21-0.39c0.02-0.03,0.11-0.07,0-0.1
		c0.01,0.04,0.01,0.07,0.02,0.11c-0.53-0.13-0.77-0.39-0.84-1c-0.24-2.25,0-4.49,0.16-6.73c0.36-0.08,0.34-0.45,0.52-0.67
		c0.37-0.45,0.03-1.13,0.54-1.51c-0.46-0.4-0.02-1.22-0.72-1.5C24.91,23.92,24.85,23.42,25.02,22.98z"/>
	<path class="st0" d="M14.01,14.48c-0.29,0.8-0.88,1.44-0.95,2.36c-0.04,0.55-0.21,1.16-0.58,1.65c-0.2,0.28-0.69,0.12-0.78,0.6
		c-0.04,0.23-0.23,0.37-0.08,0.68c0.23,0.47-0.04,0.73-0.56,0.62c-0.19-0.04-0.33,0.04-0.49,0.12c-0.37,0.19-0.62-0.06-0.83-0.29
		c-0.23-0.25-0.08-0.49,0.12-0.67c0.28-0.25,0.26-0.51,0.11-0.81c-0.54-1.03-0.59-2.08-0.27-3.21c0.12-0.44-0.04-0.96-0.1-1.44
		c-0.03-0.23-0.08-0.46,0-0.69c0.49-1.47,0.98-2.94,1.47-4.41c0.08-0.24,0.13-0.5,0.19-0.74c0.04-0.06,0.07-0.12,0.11-0.19
		c0.19-0.1,0.27-0.26,0.28-0.47c0.04-0.06,0.07-0.12,0.11-0.17c0.12-0.07,0.18-0.18,0.22-0.32c0.38-0.52,0.83-0.99,1.51-0.92
		c0.77,0.08,1.12,0.67,1.39,1.34c0.46,1.14,0.52,2.29,0.19,3.45C14.73,12.16,14.36,13.32,14.01,14.48z"/>
	<path class="st0" d="M33.87,47.45c0.16-0.14,0.43-0.24,0.47-0.41c0.18-0.66,0.77-0.22,1.1-0.45c0.2,0.34,0.45,0.67,0.57,1.04
		c0.23,0.73,0.5,1.48,0.55,2.24c0.04,0.63-0.19,1.29-0.36,1.93c-0.08,0.3-0.12,0.52-0.01,0.84c0.15,0.45,0.25,0.97-0.36,1.27
		c-0.37,0.18-0.37,0.61-0.49,0.94c-0.12,0.31-0.25,0.62-0.55,0.75c-0.48,0.21-0.54,0.34-0.02,0.6c0.45,0.23,0.45,0.83,0.06,1.11
		c-0.13,0.09-0.38,0.14-0.3-0.07c0.38-0.96-0.66-1.01-0.94-1.54c-0.12-0.22-0.76-0.17-0.27-0.72c0.17-0.19-0.38-0.35-0.63-0.47
		c0.02-0.25,0.03-0.5,0.05-0.74c0.2-0.02,0.4-0.03,0.5-0.39c-0.24,0.13-0.37,0.2-0.5,0.27C32.81,51.51,33.07,49.43,33.87,47.45z
		 M36.1,50.81l-0.03-0.04l-0.02,0.04L36.1,50.81z M36.23,50.03L36.2,50l-0.02,0.04L36.23,50.03z"/>
	<path class="st0" d="M10.96,42.15c0.14,0.41,0.2,0.86,0.71,1.02c0.16,0.05,0.3,0.88,0.2,1.07c-0.07,0.13-0.03,0.28,0.04,0.36
		c0.51,0.54,0.33,1.11,0.1,1.69c0,0,0.01-0.01,0.01-0.01c-0.15,0.03-0.31,0.04-0.27,0.26c-1.36,0.95-2.82,1.69-4.45,2.06
		c-0.27,0.06-0.56,0.07-0.83,0.04C5.8,48.57,5.46,48.1,5.6,47.42C5.71,46.9,5.95,46.4,6.3,46c1.28-1.49,2.79-2.71,4.42-3.79
		C10.79,42.17,10.88,42.17,10.96,42.15z"/>
	<path class="st0" d="M70.94,31.82c0.01-0.26,0.17-0.46,0.37-0.57c0.54-0.31,0.58-0.96,0.95-1.4c0.18-0.22-0.06-0.61-0.44-0.7
		c-0.25-0.06-0.5-0.09-0.76-0.13c0.22-0.78,0.39-1.57,0.23-2.39c0.71-0.03,1.41-0.46,2.13-0.05c0.03,0.02,0.13-0.03,0.16-0.07
		c0.47-0.49,1.21-0.31,1.71-0.7c-0.19,1.53-0.38,3.05-0.56,4.58c-0.08,0.63-0.24,1.28-0.66,1.72c-0.16,0.17-0.56,0.3-0.86,0.46
		c-0.35,0.19-0.58,0.4-0.71,0.84c-0.26-0.39,0.06-1.34-0.9-0.81c0.02-0.31,0.34-0.21,0.34-0.48C71.6,32.11,71.16,32.29,70.94,31.82z
		"/>
	<path class="st0" d="M14.96,52.97c0,0.78,0.64,0.84,1.16,1.01c0.17,0.06,0.28-0.04,0.39-0.16c0.58-0.66,1.43-0.84,2.19-1.16
		c0.71-0.3,1.16,0.22,0.99,1.07c-0.08,0.37-0.26,0.73,0.17,1.03c0.15,0.11,0.03,0.32-0.06,0.47c-0.08,0.13-0.15,0.25-0.08,0.42
		c0.23,0.51,0.06,0.8-0.48,0.76c-0.53-0.04-1.06-0.15-1.59-0.24c-0.06-0.01-0.16-0.04-0.17-0.07c-0.26-1.04-1.27-0.58-1.88-0.92
		c-0.27-0.15-0.34,0.25-0.51,0.38C14.15,54.8,14.1,53.67,14.96,52.97z"/>
	<path class="st0" d="M27.96,7.17c-0.62,0.2-1.27,0.05-1.9,0.16C25.82,7.37,25.69,7.24,25.72,7C25.77,6.5,25.85,6,26.3,5.7
		c0.39-0.27,0.44-0.61,0.29-1c-0.12-0.33-0.35-0.41-0.71-0.56c-1.04-0.43-1.47,0.41-2.15,0.71c0.25-0.52,0.69-0.85,1.19-1.11
		c1.24-0.66,2.51,0.03,2.66,1.43c0.05,0.49,0.01,0.98-0.08,1.46C27.41,7.05,27.6,7.17,27.96,7.17z"/>
	<path class="st0" d="M82.24,30.48c0.55,0.1,0.87,0.56,1.24,0.88c0.74,0.65,1.49,1.29,2.19,1.98c0.68,0.67,1.37,1.35,2.21,1.88
		c0.63,0.39,1.23,0.86,1.86,1.26c-0.03,0.41-0.05,0.83-0.08,1.29c-0.24-0.16-0.16-0.35-0.17-0.5c-0.02-0.3,0.03-0.58-0.47-0.49
		c-0.37,0.07-0.64-0.32-0.91-0.53C85.95,34.54,84.03,32.58,82.24,30.48z"/>
	<path class="st0" d="M22.3,31.9c-0.22-0.21-0.16-0.45-0.13-0.71c0.06-0.63,0.08-1.27,0.12-1.9c0-0.04-0.01-0.08-0.02-0.12
		c0.55,0.12,0.51-0.76,1.07-0.64C23.12,29.69,22.92,30.86,22.3,31.9z"/>
	<path class="st0" d="M76.77,58.81c-0.05-0.31,0.08-0.58,0.2-0.86c0.33-0.81,0.63-1.64,0.95-2.45c0.39-0.99,0.96-1.9,1.47-2.84
		c0.05-0.09,0.21-0.13,0.31-0.19C78.59,54.52,77.79,56.71,76.77,58.81z"/>
	<path class="st0" d="M20.54,32.89c0.77,0.12,1.39-0.05,1.63-0.89c-0.08,0.33,0.08,0.63,0.1,0.94c0.01,0.15,0.05,0.31-0.15,0.37
		c-0.12,0.04-0.24,0.04-0.36-0.04c-0.62-0.38-0.7-0.33-0.72,0.39c0,0.16-0.02,0.32-0.07,0.48C20.77,33.74,20.98,33.2,20.54,32.89z"
		/>
	<path class="st0" d="M57.72,7.37c-0.8,0.42-1.68,0.67-2.43,1.18c-0.23,0.15-0.34-0.03-0.42-0.22c0.48-0.01,0.74-0.46,1.18-0.57
		C56.6,7.6,57.13,7.37,57.72,7.37z"/>
	<path class="st0" d="M66.7,7.19c-0.1,0.08-0.21,0.23-0.3,0.22c-0.89-0.13-1.81-0.01-2.68-0.33C64.72,7.01,65.71,7.09,66.7,7.19z"/>
	<path class="st0" d="M14.75,60.83c0.14,1.18,0.09,2.34-0.25,3.49C14.49,63.15,14.54,61.99,14.75,60.83z"/>
	<path class="st0" d="M91.96,37.52c0.06,0,0.13,0,0.19,0c0,0.89,0,1.77,0,2.66C92.05,39.29,92.07,38.4,91.96,37.52z"/>
	<path class="st0" d="M12.91,30.33c0.23,0.47,0.41,0.96,0.29,1.53c-0.15-0.5-0.3-1-0.46-1.5C12.8,30.35,12.85,30.34,12.91,30.33z"/>
	<path class="st0" d="M14.48,65.08c0.14,0.51,0.15,1.02,0.01,1.53C14.38,66.11,14.4,65.59,14.48,65.08z"/>
	<path class="st0" d="M79.74,52.39c0.05-0.48,0.03-1,0.67-1.15C80.23,51.65,80.05,52.06,79.74,52.39z"/>
	<path class="st0" d="M14.87,59.16c0.12,0.45,0.19,0.89-0.1,1.3C14.7,60.02,14.79,59.59,14.87,59.16z"/>
	<path class="st0" d="M71.37,61.99c0.1,0.35,0.05,0.67-0.24,0.91C71.14,62.58,71.19,62.27,71.37,61.99z"/>
	<path class="st0" d="M62.08,7.06C61.6,7.2,61.13,7.2,60.65,7.07C61.13,7,61.6,6.99,62.08,7.06z"/>
	<path class="st0" d="M59.63,7.13c-0.25,0.14-0.51,0.15-0.78,0.06C59.11,7.11,59.37,7.08,59.63,7.13z"/>
	<path class="st0" d="M32.74,53.62c0.13-0.07,0.25-0.14,0.5-0.27c-0.1,0.37-0.3,0.38-0.5,0.39C32.73,53.71,32.74,53.67,32.74,53.62z
		"/>
	<path class="st0" d="M14.98,58c0.1,0.19,0.11,0.37-0.05,0.53C14.88,58.35,14.9,58.17,14.98,58z"/>
	<path class="st0" d="M58.49,7.24c-0.16,0.15-0.35,0.15-0.54,0.08C58.13,7.3,58.31,7.27,58.49,7.24z"/>
	<path class="st0" d="M11.64,7.59c-0.01,0.21-0.09,0.37-0.28,0.47C11.4,7.87,11.5,7.72,11.64,7.59z"/>
	<path class="st0" d="M71.98,32.8c0.03,0.03,0.06,0.06,0.07,0.09c0.01,0.02-0.03,0.06-0.05,0.08c-0.03-0.03-0.06-0.06-0.07-0.09
		C71.93,32.86,71.96,32.83,71.98,32.8z"/>
	<path class="st0" d="M11.76,46.55c-0.04-0.22,0.12-0.23,0.27-0.26C11.93,46.38,11.85,46.46,11.76,46.55z"/>
	<path class="st0" d="M76.55,59.36c-0.02-0.15,0.02-0.27,0.15-0.35C76.71,59.15,76.65,59.27,76.55,59.36z"/>
	<path class="st0" d="M80.42,51.23c-0.02-0.15,0.04-0.25,0.17-0.31C80.59,51.05,80.52,51.15,80.42,51.23z"/>
	<path class="st0" d="M71.62,61.09c0.06,0.12,0.04,0.22-0.1,0.27C71.56,61.27,71.59,61.18,71.62,61.09z"/>
	<path class="st0" d="M70.97,63.54c0.07,0.12,0.06,0.21-0.07,0.28C70.92,63.72,70.95,63.63,70.97,63.54z"/>
	<path class="st0" d="M63.24,7.07c-0.09,0.12-0.19,0.16-0.29,0.01C63.05,7.07,63.15,7.07,63.24,7.07z"/>
	<path class="st0" d="M15.11,56.22c-0.01,0.12-0.02,0.25-0.02,0.37C15.09,56.47,15.1,56.34,15.11,56.22z"/>
	<path class="st0" d="M11.97,7.1c-0.03,0.13-0.1,0.24-0.22,0.32C11.78,7.28,11.85,7.18,11.97,7.1z"/>
	<path class="st0" d="M15.12,55.93c0.05,0.09,0.05,0.18-0.02,0.27C15.11,56.11,15.12,56.02,15.12,55.93z"/>
	<path class="st0" d="M25.91,36.77c0,0,0.01,0.01,0.01,0.01S25.91,36.77,25.91,36.77z"/>
	<path class="st0" d="M23.84,28c0.05,0,0.09,0,0.14-0.01C23.93,27.99,23.89,28,23.84,28z"/>
	<path class="st0" d="M81.1,50.09c-0.01-0.04,0.01-0.06,0.05-0.07C81.16,50.06,81.15,50.08,81.1,50.09z"/>
	<path class="st0" d="M62.46,7.06c-0.05,0-0.09,0-0.14,0C62.37,7.07,62.42,7.06,62.46,7.06z"/>
	<path class="st0" d="M81.73,29.97c0.05,0.04,0.1,0.09,0.15,0.13C81.83,30.06,81.78,30.01,81.73,29.97z"/>
	<path class="st0" d="M12.91,30.33c-0.06,0.01-0.11,0.02-0.17,0.03c-0.03-0.03-0.04-0.06-0.04-0.11c0.05-0.04,0.09-0.07,0.14-0.11
		C12.86,30.21,12.88,30.27,12.91,30.33z"/>
	<path class="st0" d="M23.33,24.02c0.1-0.03,0.25-0.02,0.29-0.08c0.09-0.15-0.05-0.23-0.17-0.27c-0.7-0.2-0.58-0.5-0.18-0.95
		c0.75-0.84,0.74-2.24,0.09-3.19c-0.46-0.68-1.15-1.25-0.85-2.31c0.15-0.54,0.51-0.67,0.83-0.94c0,0,0,0,0,0
		c-0.01-0.4-0.47-0.61-0.26-1.17c0.3-0.81,0.6-1.61,1.18-2.24c0.54-0.58,1.15-1.17,2.1-0.94c-0.02,0.21-0.02,0.43-0.07,0.64
		c-0.82,3.91-1.52,7.84-2.17,11.79c-0.17,0.25,0.05,0.8-0.36,0.79c-0.44-0.01-0.24-0.55-0.38-0.83
		C23.33,24.25,23.34,24.13,23.33,24.02L23.33,24.02z"/>
	<path class="st0" d="M71.99,22.86c0.5-3.71,1.35-7.35,2.27-10.98c0.17-0.68,0.26-1.39,0.58-2.02c0.19,0.6-0.04,1.2-0.14,1.77
		c-0.25,1.47-0.48,2.96-0.81,4.41c-0.44,1.9-0.88,3.79-1.16,5.72C72.65,22.2,72.58,22.73,71.99,22.86z"/>
	<path class="st0" d="M69.14,19.28c0.59-0.04,1.16,0.08,1.7,0.29c0.64,0.25,0.75,0.74,0.33,1.27c-0.33,0.4-0.71,0.74-1.22,0.9
		c-0.04-0.43,0.14-0.8,0.36-1.14c0.36-0.57,0.22-0.91-0.46-1.07C69.6,19.47,69.32,19.53,69.14,19.28z"/>
	<path class="st0" d="M64.25,23.53c0.48,0.03,0.82,0.25,0.86,0.75c0.04,0.44-0.47,0.87-1.14,0.99c0.07-0.1,0.12-0.23,0.21-0.31
		c0.38-0.34,0.53-0.7,0.13-1.13C64.26,23.76,64.28,23.63,64.25,23.53z"/>
	<path class="st0" d="M29.57,66.35c-0.22,0.15-0.47,0.19-0.62,0.43c-0.14,0.23-0.45,0.28-0.61,0.09c-0.27-0.32,0.21-0.18,0.24-0.3
		C28.77,65.84,29.23,66.32,29.57,66.35z"/>
	<path class="st0" d="M30.27,19.55c0.28,0.64,0.36,1.33,0.46,2c-0.05,0.01-0.1,0.02-0.16,0.04c-0.13-0.61-0.27-1.21-0.4-1.82
		C30.2,19.7,30.23,19.62,30.27,19.55z"/>
	<path class="st0" d="M84.61,13.86c0.06-0.52,0.11-1.05,0.17-1.57C85.12,12.86,84.97,13.37,84.61,13.86z"/>
	<path class="st0" d="M27.43,63.01c0.17-0.26,0.31-0.55,0.64-0.66C28.36,63.06,27.75,62.89,27.43,63.01z"/>
	<path class="st0" d="M29.05,20.17c-0.39,0.05-0.65,0.08-0.95,0.11C28.43,20.02,28.43,20.02,29.05,20.17z"/>
	<path class="st0" d="M26.23,64.1c0.15-0.2,0.32-0.36,0.55-0.45C26.76,63.98,26.6,64.16,26.23,64.1z"/>
	<path class="st0" d="M84.72,11.93c-0.16-0.18-0.23-0.41-0.27-0.64C84.73,11.42,84.82,11.64,84.72,11.93z"/>
	<path class="st0" d="M28.57,22.57c-0.06-0.03-0.12-0.04-0.12-0.06c-0.01-0.11,0.08-0.14,0.16-0.15c0.03-0.01,0.07,0.02,0.1,0.04
		C28.67,22.46,28.61,22.52,28.57,22.57z"/>
	<path class="st0" d="M26.79,63.64c0.09-0.17,0.21-0.31,0.4-0.37C27.18,63.53,27.05,63.65,26.79,63.64z"/>
	<path class="st0" d="M25.01,67.01c-0.04-0.04-0.09-0.08-0.13-0.12c0.03-0.02,0.06-0.03,0.09-0.05
		C24.98,66.9,24.99,66.95,25.01,67.01C25,67.01,25.01,67.01,25.01,67.01z"/>
	<path class="st0" d="M25.42,7.18c0,0.02,0,0.04,0,0.06c-0.03-0.01-0.06-0.02-0.09-0.03c0.01-0.02,0.02-0.04,0.04-0.05
		C25.38,7.15,25.4,7.17,25.42,7.18z"/>
	<polygon class="st0" points="28.87,20.97 28.83,20.93 28.88,20.92 	"/>
	<path class="st0" d="M74.86,9.62c-0.02-0.1,0-0.2,0.08-0.27C75.01,9.47,74.99,9.56,74.86,9.62z"/>
	<path class="st0" d="M26.29,65.85c-0.04-0.02-0.09-0.03-0.11-0.06c-0.03-0.05,0-0.08,0.04-0.04
		C26.26,65.77,26.27,65.82,26.29,65.85C26.29,65.85,26.29,65.85,26.29,65.85z"/>
	<path class="st0" d="M37.14,16.82c0-0.13,0-0.27,0.01-0.4C37.22,16.56,37.22,16.69,37.14,16.82z"/>
	<path class="st0" d="M85.36,13.08c-0.01,0.05-0.03,0.1-0.04,0.15c0-0.02-0.02-0.03-0.01-0.04C85.33,13.14,85.35,13.11,85.36,13.08
		C85.37,13.08,85.36,13.08,85.36,13.08z"/>
	<path class="st0" d="M11.88,36.89c0.03-0.14,0.09-0.14,0.18-0.04c-0.03,0.02-0.06,0.04-0.1,0.06C11.93,36.91,11.9,36.9,11.88,36.89
		L11.88,36.89z"/>
	<path class="st0" d="M66.7,19.15c0.09,0,0.18,0,0.26,0.01C66.88,19.21,66.79,19.21,66.7,19.15z"/>
	<path class="st0" d="M37.11,17.33c0-0.09,0.01-0.18,0.01-0.26C37.17,17.16,37.17,17.24,37.11,17.33z"/>
	<path class="st0" d="M37.14,16.05c-0.01-0.09-0.02-0.18-0.03-0.26C37.17,15.87,37.18,15.96,37.14,16.05z"/>
	<path class="st0" d="M11.1,34.96C11.1,34.96,11.11,34.96,11.1,34.96C11.11,34.96,11.1,34.96,11.1,34.96z"/>
	<path class="st0" d="M71.84,22.98c0.05-0.04,0.1-0.07,0.15-0.11C71.93,22.9,71.88,22.94,71.84,22.98z"/>
	<path class="st0" d="M31.57,14.11c-0.01,0.04-0.01,0.09-0.02,0.13C31.56,14.2,31.56,14.16,31.57,14.11z"/>
	<polygon class="st0" points="63.93,25.28 63.92,25.3 63.91,25.29 	"/>
	<path class="st0" d="M54.25,64.98c-0.03,0.01-0.06,0.02-0.09,0.03c0.01-0.03,0.02-0.06,0.03-0.09
		C54.21,64.94,54.23,64.96,54.25,64.98z"/>
	<path class="st0" d="M23.33,24.02C23.33,24.02,23.33,24.02,23.33,24.02C23.33,24.02,23.33,24.02,23.33,24.02z"/>
	<path class="st0" d="M17.79,66.62c-0.02,0.07-0.04,0.14-0.06,0.21C17.75,66.76,17.77,66.69,17.79,66.62z"/>
	<path class="st0" d="M68.89,19.26c0.04,0,0.08,0,0.12,0.01c0,0-0.06,0.01-0.06,0.01L68.89,19.26z"/>
	<path class="st0" d="M27.06,66.36c-0.2,0.27-0.48,0.39-0.78,0.25c-0.21-0.1,0.07-0.41,0.36-0.32
		C26.79,66.33,26.91,66.4,27.06,66.36C27.07,66.37,27.06,66.36,27.06,66.36z"/>
	<path class="st0" d="M11.87,36.89c0.03,0.01,0.06,0.02,0.09,0.03C11.93,36.92,11.9,36.91,11.87,36.89z"/>
	<path class="st0" d="M25.03,35.75c-0.01-0.04-0.01-0.07-0.02-0.11c0.11,0.03,0.02,0.07,0,0.1C25.01,35.74,25.03,35.75,25.03,35.75z
		"/>
	<polygon class="st0" points="36.1,50.81 36.05,50.81 36.07,50.77 	"/>
	<polygon class="st0" points="36.23,50.03 36.18,50.04 36.2,50 	"/>
	<path class="st0" d="M23.33,16.3C23.33,16.3,23.33,16.3,23.33,16.3C23.33,16.3,23.33,16.3,23.33,16.3z"/>
</g>
</svg>
