<?xml version="1.0" encoding="utf-8"?>
<!-- Generator: Adobe Illustrator 23.0.5, SVG Export Plug-In . SVG Version: 6.00 Build 0)  -->
<svg version="1.1" id="Layer_1" xmlns="http://www.w3.org/2000/svg" xmlns:xlink="http://www.w3.org/1999/xlink" x="0px" y="0px"
	 viewBox="0 0 46.03 41.27" style="enable-background:new 0 0 46.03 41.27;" xml:space="preserve">
<style type="text/css">
	.st0{fill:#AE2838;}
</style>
<g>
	<path class="st0" d="M13.07,11.59c-0.09-0.26-0.14-0.57-0.17-0.92c-0.02-0.35-0.03-0.68-0.03-0.99c0-0.79,0.09-1.54,0.26-2.24
		c0.18-0.7,0.46-1.32,0.86-1.85c0.4-0.53,0.91-0.96,1.55-1.29c0.64-0.33,1.44-0.49,2.41-0.49c0.92,0,1.84,0.2,2.74,0.59
		c0.9,0.4,2.01,0.97,3.33,1.72l14.19,8.18c1.14,1.5,1.72,3.48,1.72,5.94c0,1.85-0.26,3.28-0.79,4.29c-0.53,1.01-1.3,1.8-2.31,2.38
		L18.68,37.47c-2.16-0.57-3.62-1.35-4.39-2.34c-0.77-0.99-1.15-2.06-1.15-3.2c0-1.54,0.38-2.74,1.15-3.6
		c0.77-0.86,1.9-1.66,3.4-2.41l11.62-5.87L13.07,11.59z"/>
</g>
</svg>
