<?xml version="1.0" encoding="utf-8"?>
<!-- Generator: Adobe Illustrator 23.0.5, SVG Export Plug-In . SVG Version: 6.00 Build 0)  -->
<svg version="1.1" id="Layer_1" xmlns="http://www.w3.org/2000/svg" xmlns:xlink="http://www.w3.org/1999/xlink" x="0px" y="0px"
	 viewBox="0 0 162.76 191.2" style="enable-background:new 0 0 162.76 191.2;" xml:space="preserve">
<style type="text/css">
	.st0{fill:#BE1622;stroke:#BE1622;stroke-width:0.7495;stroke-miterlimit:10;}
	.st1{fill:#BE1622;stroke:#BE1622;stroke-width:1.0575;stroke-miterlimit:10;}
	.st2{fill:#BE1622;stroke:#BE1622;stroke-width:0.8254;stroke-miterlimit:10;}
	.st3{fill:#BE1622;stroke:#BE1622;stroke-width:1.957;stroke-miterlimit:10;}
	.st4{fill:#BE1622;stroke:#BE1622;stroke-width:2.9981;stroke-miterlimit:10;}
	.st5{fill:#BE1622;stroke:#BE1622;stroke-width:2;stroke-miterlimit:10;}
</style>
<g>
	<path class="st0" d="M49.24,7.95c0.1,0,0.25,0.01,0.45,0.02c0.2,0.01,0.42,0.04,0.66,0.08s0.48,0.09,0.74,0.16s0.48,0.15,0.69,0.26
		c0.21,0.11,0.38,0.24,0.51,0.39c0.13,0.15,0.2,0.33,0.2,0.54c0,0.45-0.12,0.84-0.35,1.18s-0.54,0.63-0.92,0.87
		c-0.38,0.25-0.8,0.45-1.27,0.61c-0.47,0.16-0.94,0.28-1.42,0.38c-0.47,0.09-0.93,0.16-1.35,0.19c-0.43,0.04-0.79,0.05-1.08,0.05
		l-0.04,3.56c0,0.06-0.04,0.1-0.13,0.12s-0.19,0.03-0.3,0.03s-0.23,0-0.33-0.01c-0.11-0.01-0.18-0.01-0.22,0c0-0.24,0-0.52,0-0.83
		c0-0.31-0.01-0.64-0.01-0.98c0-0.34,0-0.67,0-0.99s0-0.61,0-0.87c0.05-0.63,0.08-1.18,0.1-1.66c0.02-0.48,0.06-0.89,0.13-1.24
		c0.07-0.35,0.18-0.65,0.33-0.88c0.15-0.24,0.37-0.42,0.67-0.57c0.29-0.14,0.68-0.24,1.16-0.3C47.91,7.98,48.51,7.95,49.24,7.95z
		 M46.29,9.97c-0.01,0.09-0.02,0.2-0.05,0.34s-0.05,0.28-0.07,0.44c-0.02,0.15-0.03,0.3-0.04,0.46s0.01,0.28,0.04,0.4
		c0.04,0.11,0.1,0.2,0.19,0.25c0.09,0.06,0.23,0.06,0.4,0.02c0.19,0,0.44-0.01,0.76-0.03c0.31-0.02,0.64-0.06,0.99-0.12
		c0.35-0.06,0.7-0.14,1.05-0.24s0.67-0.23,0.95-0.39c0.28-0.16,0.51-0.34,0.69-0.56c0.18-0.22,0.27-0.47,0.27-0.76
		c-0.05-0.21-0.15-0.39-0.32-0.54s-0.38-0.27-0.63-0.35C50.27,8.8,50,8.74,49.7,8.71c-0.3-0.03-0.6-0.03-0.91-0.01
		c-0.31,0.02-0.61,0.06-0.9,0.13c-0.29,0.07-0.55,0.15-0.79,0.26c-0.23,0.11-0.42,0.24-0.57,0.39S46.31,9.79,46.29,9.97z"/>
	<path class="st0" d="M57.53,15.41c-0.28,0.22-0.56,0.39-0.85,0.53c-0.28,0.14-0.58,0.23-0.88,0.29c-0.3,0.06-0.65,0.08-1.03,0.05
		c-0.38-0.05-0.7-0.17-0.95-0.36c-0.25-0.2-0.44-0.45-0.57-0.75s-0.22-0.65-0.26-1.04c-0.04-0.39-0.05-0.8-0.03-1.24
		c0.02-0.43,0.06-0.88,0.12-1.33c0.06-0.45,0.13-0.9,0.2-1.33c0.07-0.43,0.14-0.85,0.2-1.23c0.07-0.39,0.11-0.73,0.14-1.03
		c0.03-0.01,0.08-0.01,0.16-0.01c0.08,0,0.13,0,0.16,0c0.23-0.03,0.37,0.05,0.44,0.24c0.07,0.19,0.09,0.44,0.06,0.77
		c-0.03,0.33-0.08,0.71-0.16,1.14c-0.08,0.43-0.16,0.88-0.24,1.34c-0.08,0.46-0.14,0.92-0.18,1.37c-0.04,0.45-0.04,0.86,0.02,1.22
		c0.06,0.36,0.18,0.66,0.37,0.91c0.19,0.24,0.48,0.38,0.87,0.42c0.53,0.02,0.98-0.07,1.34-0.28s0.67-0.49,0.91-0.85
		c0.24-0.36,0.43-0.78,0.57-1.25c0.14-0.48,0.25-0.98,0.32-1.51c0.07-0.53,0.12-1.06,0.14-1.61c0.02-0.54,0.04-1.06,0.05-1.55
		c0.04-0.13,0.09-0.22,0.16-0.27c0.07-0.06,0.14-0.09,0.22-0.09c0.08-0.01,0.16,0.01,0.25,0.05c0.09,0.04,0.18,0.09,0.27,0.16
		c0.04,0.59,0.05,1.22,0.04,1.9c-0.01,0.68-0.03,1.36-0.06,2.06c-0.03,0.7-0.05,1.4-0.07,2.09c-0.02,0.69-0.02,1.35,0,1.98
		c0,0.09-0.04,0.15-0.13,0.18s-0.18,0.04-0.29,0.03s-0.21-0.02-0.31-0.05c-0.1-0.03-0.16-0.06-0.18-0.09l0.13-1.59
		C58.12,14.94,57.81,15.19,57.53,15.41z"/>
	<path class="st0" d="M60.25,16.26c0.07-0.28,0.13-0.66,0.17-1.12c0.04-0.46,0.07-0.97,0.09-1.52s0.04-1.11,0.04-1.69
		c0-0.58,0-1.13,0-1.65c0-0.52-0.01-0.98-0.01-1.38c0-0.4,0-0.71,0-0.91c0.19-0.11,0.36-0.17,0.51-0.18
		c0.15-0.02,0.31,0.05,0.48,0.21l-0.12,7.29l5.33,0.11c0.14,0.04,0.23,0.11,0.28,0.22s0.05,0.21,0.01,0.32
		c-0.04,0.11-0.12,0.19-0.25,0.26c-0.13,0.07-0.3,0.08-0.5,0.04H60.25z"/>
	<path class="st0" d="M67.67,16.26c0.07-0.28,0.13-0.66,0.17-1.12c0.04-0.46,0.07-0.97,0.09-1.52s0.04-1.11,0.04-1.69
		c0-0.58,0-1.13,0-1.65c0-0.52-0.01-0.98-0.01-1.38c0-0.4,0-0.71,0-0.91c0.19-0.11,0.36-0.17,0.51-0.18s0.31,0.05,0.48,0.21
		l-0.12,7.29l5.33,0.11c0.14,0.04,0.23,0.11,0.28,0.22s0.05,0.21,0.01,0.32c-0.04,0.11-0.12,0.19-0.25,0.26
		c-0.13,0.07-0.3,0.08-0.5,0.04H67.67z"/>
	<path class="st0" d="M82.67,8.94l-2.66-0.16c-0.03,0-0.06-0.01-0.09-0.04c-0.03-0.03-0.05-0.07-0.06-0.11
		c-0.02-0.05-0.03-0.09-0.04-0.14c-0.01-0.05-0.01-0.09-0.01-0.12c0-0.11,0.04-0.22,0.11-0.33c0.07-0.11,0.16-0.16,0.27-0.16
		c0.6,0.03,1.21,0.07,1.82,0.12c0.61,0.05,1.22,0.09,1.84,0.12s1.22,0.03,1.83,0.01c0.61-0.02,1.21-0.09,1.81-0.2
		c0.05,0.01,0.09,0.05,0.12,0.12s0.06,0.14,0.08,0.23c0.02,0.09,0.03,0.17,0.04,0.26s0.01,0.16,0.01,0.2
		c-0.41,0.12-0.77,0.19-1.08,0.21c-0.31,0.02-0.61,0.03-0.9,0.02c-0.29-0.01-0.59-0.01-0.9-0.02s-0.67,0.02-1.07,0.08
		c-0.01,0.21-0.03,0.5-0.06,0.88c-0.03,0.37-0.06,0.78-0.09,1.23s-0.07,0.92-0.1,1.42c-0.03,0.49-0.06,0.98-0.08,1.44
		c-0.02,0.47-0.03,0.9-0.04,1.3c-0.01,0.4,0,0.73,0.03,0.98l-1.16,0.09L82.67,8.94z"/>
	<path class="st0" d="M87.95,13.06c-0.12-0.02-0.22-0.05-0.31-0.09s-0.13-0.11-0.13-0.21c0-0.09,0.03-0.17,0.09-0.26
		c0.06-0.09,0.13-0.17,0.21-0.26s0.15-0.19,0.21-0.29c0.07-0.1,0.11-0.21,0.12-0.33c0.01-0.09,0.01-0.22,0.02-0.4
		s0.02-0.39,0.03-0.62c0.01-0.23,0.02-0.48,0.03-0.73c0.01-0.26,0.02-0.5,0.03-0.73c0.01-0.23,0.01-0.44,0.02-0.62
		c0.01-0.18,0.01-0.32,0.01-0.4c0.05-0.05,0.11-0.1,0.19-0.15c0.08-0.05,0.17-0.08,0.25-0.1c0.09-0.02,0.17-0.01,0.24,0.01
		c0.08,0.03,0.13,0.1,0.17,0.21l-0.06,3.74c0.03-0.01,0.12-0.01,0.28-0.01c0.16,0,0.35,0,0.59,0c0.23,0,0.49-0.01,0.77-0.02
		s0.56-0.03,0.82-0.06c0.27-0.03,0.51-0.07,0.73-0.11c0.22-0.05,0.39-0.11,0.51-0.19l0.04-3.36C92.85,8,92.9,7.96,92.98,7.93
		s0.16-0.05,0.26-0.06c0.1-0.01,0.2-0.02,0.29-0.02s0.17,0,0.22,0.01c0,0.15,0,0.38,0.01,0.67c0.01,0.29,0.02,0.63,0.03,0.99
		c0.01,0.36,0.02,0.75,0.03,1.15c0.01,0.4,0.02,0.78,0.03,1.15s0.02,0.7,0.03,0.99c0.01,0.29,0.02,0.52,0.02,0.67
		c0.01,0.22,0.03,0.44,0.05,0.68s0.05,0.46,0.09,0.69s0.1,0.45,0.17,0.67c0.07,0.22,0.16,0.42,0.26,0.62
		c-0.19,0.19-0.38,0.31-0.57,0.35c-0.19,0.04-0.41,0-0.67-0.13c-0.12-0.28-0.22-0.59-0.29-0.93c-0.07-0.33-0.13-0.67-0.17-1.01
		c-0.04-0.34-0.07-0.68-0.08-1.01s-0.03-0.65-0.03-0.95c-0.34-0.01-0.66-0.01-0.94-0.01c-0.28,0-0.55,0-0.82,0.02
		c-0.27,0.02-0.54,0.06-0.82,0.12s-0.6,0.15-0.94,0.27c-0.02,0.24-0.03,0.51-0.04,0.8c-0.01,0.29-0.01,0.6,0,0.91
		s0.03,0.62,0.06,0.92c0.03,0.3,0.07,0.59,0.13,0.87l-0.94,0.1L87.95,13.06z"/>
	<path class="st0" d="M95.06,7.94c0.17,0.05,0.41,0.07,0.71,0.08c0.3,0.01,0.63,0.01,0.99,0S97.51,8.01,97.9,8
		c0.39-0.01,0.77-0.02,1.12-0.02S99.7,7.99,100,8.02c0.29,0.02,0.52,0.06,0.69,0.12v0.62c-0.23,0.03-0.53,0.05-0.93,0.06
		c-0.39,0.01-0.81,0.01-1.25,0.01c-0.44,0-0.89,0.02-1.33,0.04c-0.44,0.02-0.83,0.07-1.16,0.14c-0.06,0.27-0.1,0.5-0.13,0.68
		c-0.03,0.18-0.04,0.34-0.05,0.48c-0.01,0.14-0.01,0.26-0.01,0.38c0,0.12,0.01,0.25,0.02,0.38c0.01,0.14,0.02,0.29,0.03,0.47
		s0.01,0.4,0.01,0.66c0.42,0,0.84-0.02,1.24-0.06s0.8-0.09,1.19-0.15c0.39-0.06,0.79-0.11,1.19-0.15c0.4-0.04,0.81-0.06,1.22-0.06
		v0.68l-4.76,0.6l0.07,2.53c0.62,0,1.19-0.02,1.69-0.05c0.5-0.04,0.98-0.07,1.44-0.11c0.45-0.04,0.9-0.08,1.35-0.11
		c0.44-0.04,0.92-0.05,1.41-0.05c0,0.07-0.02,0.16-0.06,0.26c-0.04,0.1-0.09,0.2-0.16,0.28c-0.07,0.08-0.14,0.15-0.22,0.19
		c-0.08,0.04-0.16,0.03-0.24-0.02c-0.46,0.05-0.96,0.1-1.52,0.15c-0.55,0.05-1.11,0.1-1.68,0.15c-0.57,0.05-1.11,0.1-1.64,0.14
		c-0.53,0.04-0.99,0.08-1.39,0.11L95.06,7.94z"/>
	<path class="st0" d="M111.22,16.19c-0.01-0.12-0.04-0.35-0.08-0.71s-0.09-0.76-0.15-1.23c-0.06-0.47-0.12-0.97-0.18-1.49
		c-0.06-0.52-0.12-1.02-0.18-1.49c-0.06-0.47-0.11-0.88-0.15-1.23c-0.05-0.35-0.08-0.59-0.09-0.71c-0.04,0.05-0.07,0.12-0.1,0.19
		c-0.03,0.08-0.07,0.19-0.12,0.34s-0.13,0.35-0.23,0.59s-0.24,0.56-0.43,0.94c-0.19,0.38-0.43,0.84-0.73,1.39s-0.66,1.19-1.1,1.94
		c-0.05,0.09-0.11,0.15-0.19,0.18c-0.08,0.03-0.17,0.02-0.27-0.04c-0.1-0.06-0.2-0.16-0.3-0.32c-0.1-0.16-0.19-0.37-0.27-0.65
		l-2.29-4.87c-0.05,0.1-0.1,0.26-0.15,0.48c-0.05,0.22-0.09,0.47-0.13,0.75s-0.08,0.58-0.11,0.91c-0.03,0.32-0.06,0.64-0.09,0.95
		c-0.03,0.31-0.05,0.6-0.07,0.88c-0.02,0.28-0.04,0.51-0.05,0.7c-0.05,0.32-0.07,0.64-0.04,0.97c0.03,0.33,0.03,0.62,0.02,0.89
		c-0.01,0.26-0.07,0.47-0.18,0.63s-0.33,0.22-0.65,0.18c-0.14,0-0.25-0.03-0.32-0.1c-0.07-0.07-0.1-0.18-0.09-0.32
		c0.03-0.26,0.07-0.6,0.12-1.03c0.05-0.43,0.11-0.89,0.16-1.38c0.06-0.49,0.12-1,0.18-1.51s0.12-0.98,0.17-1.42
		c0.05-0.43,0.09-0.8,0.13-1.1c0.04-0.3,0.06-0.48,0.07-0.56c0.03-0.19,0.06-0.34,0.09-0.48c0.03-0.13,0.08-0.24,0.15-0.33
		c0.07-0.09,0.16-0.15,0.27-0.18c0.11-0.04,0.26-0.05,0.45-0.05c0.25,0.13,0.49,0.32,0.7,0.59s0.42,0.57,0.6,0.9
		c0.19,0.33,0.36,0.69,0.53,1.05c0.17,0.37,0.32,0.72,0.47,1.04c0.15,0.33,0.29,0.62,0.44,0.87c0.14,0.25,0.28,0.42,0.42,0.52
		L110,7.94c0.23-0.17,0.42-0.21,0.59-0.13c0.17,0.08,0.31,0.25,0.44,0.51c0.13,0.26,0.24,0.6,0.33,1s0.17,0.85,0.24,1.32
		s0.13,0.97,0.18,1.49c0.05,0.51,0.1,1.01,0.15,1.49s0.1,0.92,0.15,1.33c0.05,0.41,0.11,0.75,0.18,1.02
		c0.02,0.15-0.02,0.27-0.12,0.34s-0.22,0.12-0.35,0.13c-0.13,0.01-0.26-0.01-0.38-0.05C111.31,16.35,111.24,16.28,111.22,16.19z"/>
</g>
<g>
	<path class="st1" d="M40.27,29.77c-0.14-0.09-0.18-0.21-0.13-0.34c0.05-0.13,0.17-0.28,0.36-0.45s0.39-0.36,0.62-0.58
		c0-0.51-0.05-1-0.14-1.49c-0.09-0.49-0.2-0.97-0.32-1.45s-0.22-0.96-0.32-1.45c-0.09-0.48-0.14-0.97-0.14-1.47
		c0-0.3,0.06-0.5,0.18-0.6s0.33-0.15,0.63-0.15c0.17,0,0.29,0.03,0.36,0.09c0.07,0.06,0.12,0.14,0.14,0.23
		c0.02,0.09,0.04,0.19,0.04,0.3s0.02,0.21,0.05,0.3s0.08,0.17,0.17,0.23s0.22,0.09,0.39,0.09c0.79-0.01,1.57-0.08,2.35-0.2
		c0.78-0.12,1.56-0.25,2.34-0.37c0.78-0.13,1.56-0.23,2.34-0.32c0.78-0.08,1.57-0.09,2.38-0.03c0.01,0.22,0.03,0.42,0.07,0.58
		c0.04,0.16,0.05,0.3,0.05,0.41c-0.01,0.11-0.04,0.18-0.12,0.22c-0.08,0.04-0.22,0.04-0.45,0c-0.23,0.01-0.55,0.02-0.93,0.04
		c-0.39,0.01-0.82,0.03-1.29,0.06c-0.47,0.02-0.97,0.05-1.5,0.08c-0.53,0.03-1.05,0.07-1.57,0.12s-1.01,0.1-1.47,0.17
		s-0.88,0.14-1.24,0.23c-0.36,0.09-0.64,0.19-0.86,0.29c-0.22,0.11-0.32,0.23-0.32,0.37c0,0.07,0.01,0.19,0.01,0.38
		c0.01,0.19,0.02,0.4,0.04,0.63c0.02,0.23,0.04,0.48,0.08,0.74c0.03,0.26,0.07,0.49,0.11,0.7s0.09,0.39,0.15,0.53
		c0.06,0.14,0.12,0.21,0.18,0.21c0.66,0,1.34-0.06,2.02-0.17c0.68-0.11,1.37-0.24,2.06-0.38s1.37-0.27,2.06-0.38
		c0.68-0.11,1.36-0.17,2.04-0.17c0.02,0,0.03,0.04,0.02,0.13c-0.01,0.08-0.01,0.18-0.02,0.29s-0.02,0.21-0.02,0.29s0,0.13,0.02,0.13
		c-0.29,0.16-0.68,0.29-1.17,0.41c-0.49,0.11-1.02,0.21-1.59,0.29s-1.15,0.15-1.75,0.22c-0.59,0.07-1.14,0.14-1.65,0.22
		c-0.51,0.08-0.94,0.17-1.31,0.27s-0.6,0.23-0.7,0.38l-0.2,4.38c-0.08,0.08-0.16,0.12-0.26,0.15c-0.1,0.02-0.2,0.03-0.31,0.03
		c-0.11-0.01-0.22-0.01-0.34-0.02c-0.12-0.01-0.23-0.01-0.34-0.01V30C40.69,29.94,40.41,29.87,40.27,29.77z"/>
	<path class="st1" d="M51.83,28.61c-0.05-0.82,0.06-1.64,0.31-2.46c0.25-0.81,0.62-1.54,1.1-2.19s1.06-1.16,1.75-1.55
		s1.44-0.57,2.26-0.54c0.68-0.05,1.36,0.07,2.03,0.34s1.27,0.68,1.81,1.22c0.54,0.54,0.98,1.19,1.33,1.95
		c0.35,0.76,0.53,1.61,0.56,2.53c0,1.93-0.46,3.36-1.38,4.29c-0.92,0.93-2.32,1.4-4.2,1.4c-0.8,0-1.53-0.09-2.21-0.28
		c-0.68-0.19-1.27-0.48-1.76-0.88c-0.5-0.4-0.88-0.91-1.17-1.54C51.97,30.27,51.83,29.51,51.83,28.61z M53.26,28.33
		c0,1.39,0.35,2.43,1.05,3.12s1.74,1.02,3.12,1.02c0.69,0,1.3-0.11,1.83-0.32c0.53-0.21,0.97-0.51,1.33-0.9
		c0.36-0.39,0.62-0.85,0.81-1.39c0.18-0.54,0.27-1.14,0.27-1.79c-0.03-0.77-0.16-1.46-0.4-2.07c-0.24-0.61-0.55-1.14-0.95-1.57
		c-0.39-0.44-0.85-0.77-1.36-1s-1.07-0.35-1.66-0.35c-0.38-0.02-0.76,0.05-1.12,0.2c-0.36,0.15-0.69,0.36-1,0.62
		c-0.3,0.26-0.58,0.57-0.84,0.93c-0.25,0.36-0.46,0.73-0.63,1.12c-0.17,0.39-0.29,0.79-0.38,1.2S53.24,27.95,53.26,28.33z"/>
	<path class="st1" d="M65.15,33.52c0,0.09-0.04,0.16-0.11,0.21s-0.15,0.08-0.24,0.1s-0.18,0.03-0.26,0.03s-0.15,0-0.18,0
		c-0.24,0-0.42-0.15-0.52-0.44s-0.17-0.69-0.19-1.21c-0.02-0.51-0.02-1.13,0.01-1.84c0.03-0.71,0.05-1.49,0.08-2.33
		c0.02-0.84,0.03-1.74,0.01-2.68c-0.01-0.95-0.08-1.91-0.19-2.91c0.11-0.2,0.23-0.3,0.36-0.32c0.13-0.02,0.25,0.01,0.36,0.08
		s0.22,0.17,0.31,0.29c0.09,0.12,0.17,0.22,0.22,0.31c0.29-0.28,0.69-0.49,1.21-0.64c0.51-0.15,1.07-0.24,1.68-0.27
		c0.6-0.04,1.22-0.02,1.85,0.05c0.63,0.07,1.2,0.18,1.71,0.33c0.51,0.15,0.94,0.34,1.28,0.56c0.34,0.22,0.53,0.48,0.56,0.76
		c0.03,0.28-0.12,0.58-0.46,0.91c-0.34,0.33-0.93,0.67-1.78,1.02c-0.13,0.06-0.33,0.13-0.6,0.23c-0.27,0.1-0.58,0.21-0.93,0.32
		s-0.7,0.24-1.07,0.37c-0.37,0.13-0.72,0.26-1.06,0.39c-0.34,0.13-0.63,0.24-0.88,0.35c-0.25,0.11-0.43,0.2-0.53,0.27
		c0,0.05,0.02,0.1,0.07,0.16c0.05,0.06,0.16,0.15,0.34,0.28c0.18,0.13,0.44,0.3,0.8,0.51c0.36,0.22,0.84,0.51,1.46,0.87
		s1.39,0.82,2.32,1.35c0.93,0.54,2.05,1.19,3.38,1.96c0.05,0.04,0.11,0.08,0.18,0.13s0.14,0.1,0.2,0.17
		c0.06,0.07,0.11,0.13,0.16,0.2c0.05,0.07,0.07,0.15,0.07,0.23c0,0.12-0.05,0.21-0.14,0.27c-0.09,0.06-0.21,0.11-0.34,0.13
		s-0.27,0.04-0.41,0.04c-0.14,0-0.26,0-0.35,0c-0.17,0.02-0.44-0.07-0.81-0.27c-0.37-0.2-0.8-0.45-1.28-0.77s-1-0.68-1.57-1.07
		c-0.56-0.4-1.12-0.79-1.67-1.18c-0.55-0.39-1.08-0.75-1.59-1.09c-0.51-0.34-0.94-0.6-1.31-0.8L65.15,33.52z M65.06,23.92
		c-0.08,0.13-0.14,0.31-0.16,0.53c-0.02,0.22-0.02,0.45,0.01,0.68c0.03,0.23,0.08,0.45,0.15,0.66s0.15,0.36,0.25,0.45
		c0.1,0.04,0.3,0.03,0.6-0.03c0.29-0.06,0.64-0.14,1.05-0.26c0.4-0.12,0.83-0.26,1.28-0.43c0.45-0.17,0.89-0.34,1.31-0.53
		c0.42-0.18,0.79-0.37,1.12-0.56c0.33-0.19,0.57-0.37,0.72-0.54c0.15-0.17,0.18-0.32,0.1-0.45s-0.33-0.23-0.74-0.31
		c-0.17-0.05-0.41-0.08-0.72-0.11c-0.31-0.02-0.65-0.04-1.03-0.04c-0.38,0-0.77,0.02-1.19,0.05c-0.41,0.03-0.8,0.08-1.17,0.15
		c-0.36,0.07-0.69,0.17-0.97,0.29C65.38,23.61,65.18,23.75,65.06,23.92z"/>
	<path class="st1" d="M86.53,32.89c-0.14-0.19-0.31-0.48-0.5-0.87c-0.19-0.39-0.4-0.83-0.62-1.32c-0.22-0.49-0.46-0.99-0.71-1.52
		c-0.25-0.52-0.49-1.01-0.74-1.46c-0.24-0.45-0.48-0.83-0.71-1.15c-0.23-0.32-0.44-0.51-0.62-0.59c-0.14,0.22-0.3,0.52-0.48,0.92
		c-0.18,0.4-0.37,0.84-0.58,1.33s-0.4,1.01-0.6,1.55c-0.2,0.54-0.4,1.07-0.58,1.58c-0.19,0.51-0.36,0.98-0.51,1.42
		s-0.28,0.8-0.39,1.07l-1.18,0.06L73.7,22.5c-0.06-0.12-0.05-0.22,0.01-0.31c0.06-0.08,0.14-0.15,0.25-0.19s0.22-0.07,0.34-0.09
		c0.12-0.02,0.22-0.03,0.28-0.03c0.18,0,0.32,0.03,0.42,0.1s0.19,0.15,0.26,0.26s0.13,0.23,0.18,0.36s0.1,0.26,0.15,0.39
		c0.14,0.31,0.31,0.71,0.52,1.21c0.21,0.5,0.42,1.04,0.65,1.61c0.23,0.57,0.46,1.15,0.7,1.73c0.24,0.58,0.46,1.12,0.67,1.6
		c0.21,0.48,0.39,0.89,0.54,1.21s0.26,0.52,0.32,0.58c0.49-1.22,0.91-2.25,1.26-3.09c0.35-0.84,0.65-1.54,0.9-2.08
		c0.25-0.55,0.45-0.97,0.6-1.27c0.15-0.3,0.27-0.52,0.36-0.66s0.15-0.22,0.2-0.25s0.07-0.04,0.09-0.04c0.15,0,0.32,0.1,0.52,0.29
		s0.41,0.45,0.63,0.77c0.22,0.32,0.46,0.69,0.69,1.11s0.48,0.85,0.71,1.29c0.23,0.44,0.46,0.89,0.69,1.33s0.43,0.86,0.62,1.24
		s0.36,0.71,0.51,0.98c0.15,0.28,0.27,0.47,0.36,0.58c0.22-0.71,0.44-1.47,0.65-2.27c0.21-0.81,0.4-1.61,0.58-2.43
		c0.18-0.81,0.35-1.62,0.49-2.41s0.27-1.53,0.39-2.21c0.29,0,0.51,0.03,0.67,0.08c0.16,0.06,0.27,0.14,0.34,0.24
		s0.11,0.22,0.13,0.36c0.01,0.14,0.02,0.29,0.02,0.45c0.01-0.04-0.01,0.09-0.06,0.39c-0.05,0.29-0.12,0.71-0.21,1.25
		c-0.09,0.54-0.21,1.17-0.34,1.9c-0.14,0.72-0.29,1.5-0.47,2.32s-0.37,1.66-0.58,2.52c-0.21,0.86-0.43,1.69-0.66,2.5
		c-0.23,0.16-0.43,0.24-0.58,0.25c-0.15,0.01-0.29-0.04-0.39-0.13c-0.11-0.1-0.2-0.24-0.29-0.43
		C86.72,33.32,86.63,33.12,86.53,32.89z"/>
	<path class="st1" d="M90.8,34.14c-0.04,0.05-0.11,0.07-0.23,0.06s-0.24-0.04-0.36-0.08c-0.12-0.05-0.23-0.1-0.32-0.16
		c-0.09-0.06-0.12-0.11-0.11-0.16c0.08-0.19,0.18-0.46,0.32-0.82c0.14-0.36,0.29-0.78,0.46-1.25c0.17-0.47,0.36-0.98,0.55-1.52
		c0.2-0.54,0.4-1.09,0.6-1.66c0.21-0.56,0.41-1.12,0.61-1.66s0.39-1.05,0.55-1.52s0.32-0.88,0.45-1.24
		c0.13-0.36,0.23-0.64,0.31-0.84c0.08-0.22,0.13-0.41,0.15-0.6s0.07-0.34,0.13-0.47s0.15-0.23,0.28-0.3
		c0.13-0.07,0.32-0.11,0.6-0.11c0.44,0.35,0.81,0.77,1.12,1.26c0.31,0.49,0.58,0.99,0.82,1.5c0.24,0.51,0.46,1,0.67,1.47
		c0.21,0.47,0.44,0.85,0.68,1.14c0.08,0.11,0.18,0.18,0.32,0.19s0.29,0.01,0.46-0.01c0.17-0.02,0.34-0.06,0.51-0.11
		c0.17-0.05,0.33-0.08,0.47-0.09s0.25,0,0.34,0.04s0.13,0.14,0.13,0.29c0.04,0.2,0.02,0.35-0.04,0.46c-0.07,0.11-0.16,0.2-0.29,0.27
		s-0.28,0.11-0.44,0.14c-0.16,0.03-0.31,0.05-0.44,0.07c-0.14,0.02-0.25,0.04-0.34,0.07s-0.12,0.07-0.11,0.13
		c0.11,0.35,0.24,0.73,0.37,1.15c0.14,0.42,0.29,0.84,0.46,1.26c0.17,0.42,0.35,0.83,0.55,1.22c0.2,0.39,0.41,0.73,0.65,1.01
		c0,0.11-0.05,0.23-0.15,0.36c-0.1,0.13-0.22,0.24-0.35,0.34c-0.14,0.09-0.27,0.16-0.39,0.2s-0.22,0.02-0.27-0.04l-2.47-5.22
		l-4.79,1.18c-0.05,0.19-0.12,0.46-0.21,0.82c-0.09,0.36-0.21,0.74-0.34,1.15c-0.13,0.41-0.28,0.8-0.44,1.19
		C91.15,33.61,90.98,33.92,90.8,34.14z M94.66,23.84c-0.12,0.48-0.26,0.94-0.42,1.39c-0.16,0.45-0.32,0.88-0.49,1.29
		c-0.17,0.41-0.33,0.81-0.5,1.18c-0.16,0.37-0.31,0.72-0.43,1.04c0.34,0,0.67-0.04,1.01-0.11c0.34-0.07,0.66-0.16,0.98-0.27
		c0.32-0.11,0.63-0.22,0.93-0.34c0.3-0.12,0.58-0.23,0.86-0.34c-0.08-0.17-0.18-0.42-0.31-0.77c-0.13-0.34-0.28-0.7-0.46-1.09
		c-0.17-0.38-0.36-0.76-0.56-1.12C95.07,24.34,94.87,24.05,94.66,23.84z"/>
	<path class="st1" d="M102.93,33.52c0,0.09-0.04,0.16-0.11,0.21s-0.15,0.08-0.24,0.1s-0.18,0.03-0.26,0.03s-0.15,0-0.18,0
		c-0.24,0-0.42-0.15-0.52-0.44s-0.17-0.69-0.19-1.21c-0.02-0.51-0.02-1.13,0.01-1.84c0.03-0.71,0.05-1.49,0.08-2.33
		s0.03-1.74,0.01-2.68c-0.01-0.95-0.08-1.91-0.19-2.91c0.11-0.2,0.23-0.3,0.36-0.32c0.13-0.02,0.25,0.01,0.36,0.08
		s0.22,0.17,0.31,0.29c0.09,0.12,0.17,0.22,0.22,0.31c0.29-0.28,0.69-0.49,1.21-0.64c0.51-0.15,1.07-0.24,1.68-0.27
		c0.6-0.04,1.22-0.02,1.85,0.05c0.63,0.07,1.2,0.18,1.71,0.33c0.51,0.15,0.94,0.34,1.28,0.56c0.34,0.22,0.53,0.48,0.56,0.76
		c0.03,0.28-0.12,0.58-0.46,0.91c-0.34,0.33-0.93,0.67-1.78,1.02c-0.13,0.06-0.33,0.13-0.6,0.23c-0.27,0.1-0.58,0.21-0.93,0.32
		s-0.7,0.24-1.07,0.37c-0.37,0.13-0.72,0.26-1.06,0.39c-0.34,0.13-0.63,0.24-0.88,0.35c-0.25,0.11-0.43,0.2-0.53,0.27
		c0,0.05,0.02,0.1,0.07,0.16c0.05,0.06,0.16,0.15,0.34,0.28c0.18,0.13,0.44,0.3,0.8,0.51c0.36,0.22,0.84,0.51,1.46,0.87
		s1.39,0.82,2.32,1.35c0.93,0.54,2.05,1.19,3.38,1.96c0.05,0.04,0.11,0.08,0.18,0.13s0.14,0.1,0.2,0.17
		c0.06,0.07,0.11,0.13,0.16,0.2c0.05,0.07,0.07,0.15,0.07,0.23c0,0.12-0.05,0.21-0.14,0.27c-0.09,0.06-0.21,0.11-0.34,0.13
		s-0.27,0.04-0.41,0.04c-0.14,0-0.26,0-0.35,0c-0.17,0.02-0.44-0.07-0.81-0.27c-0.37-0.2-0.8-0.45-1.28-0.77s-1-0.68-1.57-1.07
		c-0.56-0.4-1.12-0.79-1.67-1.18c-0.55-0.39-1.08-0.75-1.59-1.09c-0.51-0.34-0.94-0.6-1.31-0.8L102.93,33.52z M102.83,23.92
		c-0.08,0.13-0.14,0.31-0.16,0.53c-0.02,0.22-0.02,0.45,0.01,0.68c0.03,0.23,0.08,0.45,0.15,0.66s0.15,0.36,0.25,0.45
		c0.1,0.04,0.3,0.03,0.6-0.03c0.29-0.06,0.64-0.14,1.05-0.26c0.4-0.12,0.83-0.26,1.28-0.43c0.45-0.17,0.89-0.34,1.31-0.53
		c0.42-0.18,0.79-0.37,1.12-0.56c0.33-0.19,0.57-0.37,0.72-0.54c0.15-0.17,0.18-0.32,0.1-0.45s-0.33-0.23-0.74-0.31
		c-0.17-0.05-0.41-0.08-0.72-0.11c-0.31-0.02-0.65-0.04-1.03-0.04c-0.38,0-0.77,0.02-1.19,0.05c-0.41,0.03-0.8,0.08-1.17,0.15
		c-0.36,0.07-0.69,0.17-0.97,0.29C103.15,23.61,102.95,23.75,102.83,23.92z"/>
	<path class="st1" d="M113.37,21.82c0.04,0,0.12,0,0.24,0s0.25,0.01,0.37,0.04s0.24,0.06,0.35,0.12c0.11,0.06,0.18,0.14,0.2,0.25
		c0.34-0.11,0.81-0.19,1.41-0.24c0.6-0.05,1.26-0.04,1.97,0.02s1.42,0.18,2.15,0.37c0.72,0.19,1.38,0.45,1.98,0.8
		c0.59,0.35,1.08,0.79,1.45,1.32s0.56,1.18,0.56,1.94c0,0.55-0.12,1.09-0.36,1.61c-0.24,0.52-0.56,1.02-0.95,1.49
		s-0.86,0.92-1.4,1.33c-0.53,0.42-1.09,0.8-1.67,1.14c-0.58,0.34-1.17,0.64-1.78,0.89c-0.6,0.25-1.18,0.45-1.73,0.6
		c-0.55,0.15-1.06,0.23-1.52,0.26c-0.46,0.03-0.83-0.01-1.12-0.13L113.37,21.82z M122.88,26.57c-0.07-0.57-0.26-1.07-0.58-1.49
		c-0.32-0.42-0.72-0.77-1.21-1.05c-0.48-0.28-1.01-0.5-1.59-0.65c-0.58-0.15-1.16-0.25-1.73-0.3s-1.11-0.04-1.63,0.01
		s-0.95,0.15-1.29,0.29l0.15,9.22c0.38,0,0.84-0.08,1.38-0.24s1.1-0.38,1.68-0.66c0.58-0.28,1.17-0.62,1.74-1
		c0.58-0.39,1.09-0.81,1.54-1.25c0.45-0.44,0.82-0.91,1.1-1.4C122.74,27.56,122.88,27.07,122.88,26.57z"/>
</g>
<g>
	<path class="st2" d="M55.05,51.85c-0.28,0.21-0.56,0.39-0.84,0.53c-0.28,0.14-0.57,0.23-0.88,0.29c-0.3,0.06-0.65,0.08-1.03,0.05
		c-0.38-0.05-0.7-0.17-0.94-0.36c-0.24-0.19-0.43-0.44-0.57-0.75s-0.22-0.65-0.26-1.04c-0.04-0.39-0.05-0.8-0.03-1.23
		c0.02-0.43,0.06-0.88,0.12-1.33s0.13-0.9,0.2-1.33c0.07-0.43,0.14-0.84,0.2-1.23c0.07-0.39,0.11-0.73,0.14-1.03
		c0.03-0.01,0.08-0.01,0.16-0.01c0.08,0,0.13,0,0.16,0c0.22-0.03,0.37,0.05,0.44,0.24c0.07,0.18,0.09,0.44,0.06,0.77
		c-0.03,0.33-0.08,0.71-0.16,1.13c-0.08,0.43-0.16,0.87-0.24,1.33s-0.14,0.91-0.18,1.36c-0.04,0.45-0.04,0.85,0.02,1.21
		c0.06,0.36,0.18,0.66,0.37,0.9s0.48,0.38,0.86,0.42c0.53,0.02,0.97-0.07,1.34-0.28c0.36-0.2,0.67-0.49,0.91-0.84
		c0.24-0.36,0.43-0.77,0.57-1.25c0.14-0.48,0.24-0.98,0.32-1.5c0.07-0.53,0.12-1.06,0.14-1.6c0.02-0.54,0.04-1.06,0.05-1.55
		c0.04-0.13,0.09-0.22,0.16-0.27c0.07-0.06,0.14-0.09,0.22-0.09c0.08-0.01,0.16,0.01,0.25,0.05s0.17,0.09,0.27,0.16
		c0.04,0.59,0.05,1.22,0.04,1.89s-0.03,1.36-0.06,2.06c-0.03,0.7-0.05,1.39-0.07,2.08c-0.02,0.69-0.02,1.35,0,1.98
		c0,0.09-0.04,0.15-0.13,0.18c-0.09,0.03-0.18,0.04-0.29,0.03c-0.11-0.01-0.21-0.02-0.31-0.05c-0.1-0.03-0.16-0.06-0.18-0.09
		l0.13-1.59C55.64,51.39,55.33,51.64,55.05,51.85z"/>
	<path class="st2" d="M57.56,51.68c0-0.08,0.03-0.16,0.08-0.23c0.06-0.08,0.12-0.15,0.19-0.21c0.07-0.07,0.14-0.12,0.21-0.17
		c0.07-0.05,0.12-0.08,0.14-0.1c0.03,0.3,0.15,0.53,0.35,0.69c0.2,0.16,0.45,0.25,0.74,0.3c0.3,0.04,0.63,0.04,1-0.01
		s0.74-0.14,1.11-0.25c0.37-0.11,0.73-0.25,1.07-0.4c0.34-0.16,0.64-0.32,0.88-0.48c0.24-0.16,0.43-0.33,0.55-0.48
		c0.12-0.16,0.14-0.29,0.06-0.4l-5.16-2.05c-0.07-0.02-0.15-0.05-0.24-0.1c-0.1-0.05-0.19-0.11-0.27-0.17
		c-0.09-0.06-0.16-0.13-0.22-0.21s-0.09-0.15-0.09-0.23c0-0.31,0.11-0.59,0.34-0.85c0.23-0.26,0.52-0.49,0.88-0.69
		c0.36-0.2,0.75-0.38,1.19-0.53c0.44-0.15,0.86-0.28,1.27-0.38s0.78-0.18,1.12-0.23c0.34-0.05,0.59-0.09,0.76-0.1
		c0.11-0.03,0.22-0.05,0.34-0.04c0.12,0.01,0.23,0.03,0.33,0.07s0.17,0.1,0.22,0.18c0.05,0.08,0.05,0.17,0.01,0.27
		c-0.04,0.1-0.15,0.19-0.33,0.27c-0.18,0.08-0.4,0.15-0.66,0.22c-0.26,0.07-0.55,0.13-0.87,0.19c-0.32,0.06-0.64,0.13-0.97,0.19
		c-0.33,0.07-0.64,0.14-0.94,0.21c-0.3,0.08-0.56,0.16-0.79,0.26c-0.23,0.1-0.4,0.21-0.52,0.34c-0.12,0.13-0.16,0.28-0.13,0.44
		c0.16,0.05,0.4,0.13,0.72,0.24c0.32,0.11,0.69,0.24,1.09,0.38c0.4,0.15,0.81,0.3,1.24,0.47c0.43,0.16,0.83,0.33,1.19,0.5
		c0.37,0.16,0.68,0.32,0.95,0.47c0.26,0.15,0.43,0.28,0.51,0.38c0.15,0.24,0.21,0.47,0.18,0.69c-0.03,0.22-0.13,0.43-0.29,0.64
		c-0.16,0.2-0.38,0.4-0.64,0.58c-0.26,0.18-0.56,0.35-0.87,0.51c-0.32,0.16-0.65,0.29-0.99,0.42c-0.34,0.12-0.67,0.23-0.99,0.31
		s-0.6,0.15-0.86,0.19c-0.26,0.04-0.47,0.06-0.63,0.05c-0.09,0.01-0.21,0.01-0.36,0c-0.15-0.01-0.31-0.04-0.48-0.08
		s-0.34-0.09-0.51-0.16c-0.17-0.07-0.33-0.14-0.47-0.23s-0.25-0.19-0.34-0.3C57.6,51.93,57.56,51.81,57.56,51.68z"/>
	<path class="st2" d="M65.78,52.61c-0.05-0.1-0.08-0.29-0.1-0.57s-0.04-0.62-0.05-1.01s-0.01-0.82-0.01-1.29
		c0-0.47,0-0.94,0.01-1.42s0.02-0.94,0.03-1.39s0.02-0.85,0.03-1.19s0.02-0.62,0.02-0.83c0.01-0.21,0.01-0.32,0.01-0.33
		c0.1-0.06,0.19-0.11,0.26-0.15s0.16-0.06,0.26-0.06c0.06,0,0.12,0.01,0.19,0.04c0.07,0.03,0.1,0.08,0.1,0.17l0.06,8.03
		c0,0.09-0.03,0.14-0.1,0.17s-0.13,0.04-0.19,0.04c-0.1,0-0.19-0.02-0.26-0.06C65.97,52.72,65.88,52.67,65.78,52.61z"/>
	<path class="st2" d="M73.21,52.77c-0.31-0.54-0.67-1.08-1.08-1.62c-0.41-0.54-0.83-1.08-1.26-1.62s-0.86-1.08-1.29-1.62
		c-0.43-0.54-0.81-1.08-1.15-1.63c-0.04,0.49-0.06,1.02-0.07,1.6c-0.01,0.58-0.01,1.16-0.01,1.74s-0.01,1.14-0.02,1.67
		s-0.05,0.99-0.1,1.38c-0.11,0.1-0.21,0.16-0.3,0.19s-0.2,0.04-0.32,0.04c-0.12,0-0.22-0.02-0.3-0.06c-0.08-0.04-0.11-0.16-0.1-0.36
		c0.04-0.34,0.07-0.72,0.09-1.14c0.02-0.43,0.04-0.87,0.05-1.34c0.01-0.47,0.01-0.95,0.01-1.45s-0.01-0.98-0.01-1.45
		c-0.01-0.47-0.01-0.92-0.02-1.34c-0.01-0.43-0.02-0.81-0.03-1.14c0.11-0.15,0.22-0.25,0.33-0.3s0.24-0.02,0.4,0.07
		c0.16,0.1,0.37,0.28,0.61,0.56s0.57,0.65,0.96,1.14c0.39,0.49,0.88,1.1,1.45,1.83c0.57,0.73,1.26,1.61,2.07,2.63l-0.02-5.74
		c0.09-0.16,0.17-0.28,0.27-0.34c0.09-0.06,0.21-0.09,0.37-0.09c0.14,0,0.24,0.05,0.3,0.15c0.06,0.1,0.1,0.22,0.12,0.36
		s0.02,0.28,0.01,0.42s-0.01,0.24-0.01,0.32c0,0.26,0.01,0.6,0.03,1.02c0.02,0.41,0.04,0.86,0.06,1.34
		c0.02,0.48,0.04,0.98,0.06,1.49c0.02,0.51,0.02,0.99,0.02,1.44s-0.01,0.85-0.04,1.19c-0.03,0.35-0.08,0.6-0.15,0.76L73.21,52.77z"
		/>
	<path class="st2" d="M79.98,51.69c-0.28,0.19-0.57,0.38-0.87,0.54c-0.3,0.16-0.61,0.3-0.92,0.41c-0.31,0.11-0.63,0.16-0.95,0.16
		c-0.32,0-0.62-0.06-0.91-0.19c-0.29-0.13-0.54-0.3-0.76-0.52c-0.22-0.22-0.39-0.47-0.52-0.76c-0.13-0.29-0.19-0.59-0.19-0.91
		c0.02-0.44,0.1-0.9,0.23-1.38s0.31-0.94,0.54-1.39s0.49-0.88,0.81-1.29c0.31-0.41,0.67-0.76,1.07-1.06c0.4-0.3,0.83-0.53,1.29-0.7
		c0.47-0.17,0.96-0.24,1.49-0.22c0.21,0.05,0.34,0.13,0.39,0.25c0.05,0.12,0,0.25-0.13,0.37c-0.67,0.03-1.28,0.19-1.85,0.49
		c-0.56,0.29-1.06,0.68-1.47,1.15c-0.42,0.48-0.74,1.03-0.98,1.67c-0.23,0.63-0.35,1.3-0.35,2.01c0,0.28,0.04,0.52,0.13,0.73
		c0.09,0.21,0.21,0.39,0.37,0.53s0.34,0.24,0.56,0.32c0.22,0.07,0.46,0.11,0.71,0.11c0.11,0.01,0.25-0.01,0.43-0.05
		c0.17-0.04,0.36-0.1,0.56-0.17c0.2-0.08,0.42-0.17,0.64-0.28c0.22-0.11,0.43-0.24,0.63-0.38c0.2-0.14,0.38-0.3,0.54-0.47
		c0.16-0.17,0.28-0.35,0.38-0.54v-1.83c-0.09-0.01-0.21,0-0.39,0.03c-0.17,0.03-0.37,0.06-0.58,0.1c-0.21,0.04-0.44,0.08-0.67,0.13
		c-0.23,0.05-0.45,0.1-0.67,0.14c-0.21,0.05-0.41,0.09-0.58,0.12s-0.31,0.06-0.4,0.07c-0.05-0.02-0.1-0.04-0.15-0.07
		c-0.06-0.03-0.09-0.07-0.09-0.13s0.03-0.13,0.1-0.22c0.08-0.09,0.22-0.21,0.44-0.36c0.01-0.01,0.1-0.02,0.27-0.05
		c0.16-0.03,0.38-0.06,0.63-0.1c0.25-0.04,0.54-0.08,0.85-0.13c0.31-0.05,0.62-0.1,0.93-0.14c0.31-0.05,0.6-0.09,0.87-0.13
		s0.5-0.07,0.68-0.1c0.09,0.01,0.19,0.01,0.31-0.01c0.12-0.02,0.24-0.03,0.35-0.02c0.11,0.01,0.2,0.04,0.28,0.09
		c0.07,0.06,0.1,0.17,0.09,0.34l-1.03,0.42c-0.06,0.2-0.11,0.43-0.14,0.7c-0.03,0.27-0.06,0.55-0.07,0.86s-0.02,0.62-0.02,0.94
		c0,0.32,0,0.64,0,0.96s0.01,0.62,0.01,0.91c0,0.29,0,0.56,0,0.79c-0.05,0.03-0.13,0.06-0.24,0.09s-0.23,0.06-0.35,0.08
		c-0.12,0.02-0.23,0.01-0.34,0c-0.1-0.02-0.17-0.08-0.19-0.17v-2.27C80.52,51.31,80.26,51.49,79.98,51.69z"/>
	<path class="st2" d="M88.9,53.44c-0.05,0.04-0.13,0.06-0.23,0.06c-0.1,0-0.2-0.01-0.3-0.04s-0.17-0.08-0.24-0.15
		c-0.06-0.07-0.08-0.15-0.04-0.26c0.03-0.05,0.08-0.16,0.13-0.33c0.06-0.17,0.12-0.37,0.19-0.59c0.07-0.23,0.14-0.48,0.22-0.75
		s0.15-0.54,0.22-0.8c0.07-0.26,0.14-0.5,0.2-0.73c0.06-0.22,0.11-0.41,0.15-0.56l-3.45-3.73c-0.08-0.09-0.11-0.16-0.09-0.22
		c0.02-0.05,0.06-0.09,0.12-0.12c0.06-0.03,0.12-0.05,0.19-0.05c0.07-0.01,0.12-0.01,0.14-0.01c0.17,0,0.35,0.04,0.52,0.13
		s0.39,0.25,0.65,0.49c0.26,0.24,0.58,0.58,0.96,1.01c0.38,0.43,0.86,0.99,1.43,1.68c0.25-0.73,0.46-1.33,0.64-1.8
		c0.17-0.47,0.33-0.84,0.47-1.11c0.14-0.27,0.26-0.47,0.37-0.58c0.11-0.11,0.23-0.18,0.37-0.2c0.08,0,0.16,0.01,0.23,0.02
		c0.08,0.02,0.13,0.08,0.16,0.18c-0.17,0.36-0.34,0.76-0.49,1.2c-0.16,0.44-0.31,0.9-0.46,1.38c-0.15,0.48-0.3,0.98-0.46,1.49
		c-0.15,0.51-0.31,1.02-0.48,1.52c-0.16,0.5-0.34,0.99-0.53,1.48S89.11,53.01,88.9,53.44z"/>
	<path class="st2" d="M91.73,49.63c-0.03-0.58,0.04-1.16,0.22-1.73s0.44-1.09,0.78-1.55c0.34-0.46,0.75-0.82,1.23-1.1
		c0.48-0.27,1.01-0.4,1.6-0.38c0.48-0.03,0.96,0.05,1.43,0.24c0.47,0.19,0.9,0.48,1.28,0.86s0.69,0.84,0.94,1.38s0.38,1.13,0.4,1.79
		c0,1.36-0.33,2.37-0.98,3.03c-0.65,0.66-1.64,0.99-2.97,0.99c-0.56,0-1.08-0.07-1.56-0.2c-0.48-0.13-0.89-0.34-1.24-0.62
		s-0.62-0.64-0.82-1.09S91.73,50.26,91.73,49.63z M92.74,49.43c0,0.98,0.25,1.72,0.74,2.2c0.49,0.48,1.23,0.72,2.21,0.72
		c0.49,0,0.92-0.07,1.29-0.22s0.69-0.36,0.94-0.63c0.25-0.27,0.44-0.6,0.57-0.98c0.13-0.38,0.19-0.8,0.19-1.26
		c-0.02-0.54-0.11-1.03-0.28-1.46s-0.39-0.8-0.67-1.11s-0.6-0.54-0.96-0.71s-0.75-0.25-1.17-0.25c-0.27-0.01-0.53,0.03-0.79,0.14
		c-0.25,0.11-0.49,0.26-0.7,0.44c-0.21,0.18-0.41,0.4-0.59,0.65c-0.18,0.25-0.33,0.52-0.45,0.79c-0.12,0.28-0.21,0.56-0.27,0.85
		C92.74,48.89,92.72,49.17,92.74,49.43z"/>
	<path class="st2" d="M104.59,52.38c-0.28,0.21-0.56,0.39-0.84,0.53c-0.28,0.14-0.57,0.23-0.88,0.29c-0.3,0.06-0.65,0.08-1.03,0.05
		c-0.38-0.05-0.7-0.17-0.94-0.36c-0.24-0.19-0.43-0.44-0.57-0.75c-0.14-0.3-0.22-0.65-0.26-1.04c-0.04-0.39-0.05-0.8-0.03-1.23
		s0.06-0.88,0.12-1.33c0.06-0.45,0.13-0.9,0.2-1.33c0.07-0.43,0.14-0.84,0.2-1.23c0.07-0.39,0.11-0.73,0.14-1.03
		c0.03-0.01,0.08-0.01,0.16-0.01s0.13,0,0.16,0c0.22-0.03,0.37,0.05,0.44,0.24s0.09,0.44,0.06,0.77c-0.03,0.33-0.08,0.71-0.16,1.13
		c-0.08,0.43-0.16,0.87-0.24,1.33c-0.08,0.46-0.14,0.91-0.18,1.36s-0.04,0.85,0.02,1.21c0.06,0.36,0.18,0.66,0.37,0.9
		c0.19,0.24,0.48,0.38,0.86,0.42c0.53,0.02,0.97-0.07,1.34-0.28c0.36-0.2,0.67-0.49,0.91-0.84c0.24-0.36,0.43-0.77,0.57-1.25
		c0.14-0.48,0.24-0.98,0.32-1.5c0.07-0.53,0.12-1.06,0.14-1.6s0.04-1.06,0.05-1.55c0.04-0.13,0.09-0.22,0.16-0.27
		c0.07-0.06,0.14-0.09,0.22-0.09c0.08-0.01,0.16,0.01,0.25,0.05c0.09,0.04,0.17,0.09,0.27,0.16c0.04,0.59,0.05,1.22,0.04,1.89
		c-0.01,0.67-0.03,1.36-0.06,2.06c-0.03,0.7-0.05,1.39-0.07,2.08c-0.02,0.69-0.02,1.35,0,1.98c0,0.09-0.04,0.15-0.13,0.18
		c-0.09,0.03-0.18,0.04-0.29,0.03c-0.11-0.01-0.21-0.02-0.31-0.05c-0.1-0.03-0.16-0.06-0.18-0.09l0.13-1.59
		C105.18,51.91,104.87,52.16,104.59,52.38z"/>
	<path class="st2" d="M108.26,53.1c0,0.07-0.02,0.12-0.07,0.15c-0.05,0.03-0.11,0.06-0.17,0.07c-0.06,0.01-0.12,0.02-0.18,0.02
		s-0.1,0-0.13,0c-0.17,0-0.29-0.1-0.37-0.31c-0.07-0.2-0.12-0.49-0.13-0.85c-0.02-0.36-0.01-0.8,0-1.3c0.02-0.5,0.04-1.05,0.05-1.65
		s0.02-1.23,0.01-1.89c-0.01-0.67-0.05-1.35-0.13-2.05c0.08-0.14,0.16-0.21,0.25-0.23c0.09-0.01,0.17,0.01,0.25,0.06
		s0.15,0.12,0.22,0.21c0.07,0.09,0.12,0.16,0.16,0.22c0.2-0.2,0.49-0.35,0.85-0.45s0.76-0.17,1.18-0.19
		c0.43-0.03,0.86-0.01,1.3,0.03s0.85,0.13,1.21,0.23c0.36,0.11,0.67,0.24,0.91,0.4c0.24,0.16,0.37,0.34,0.4,0.54
		c0.02,0.2-0.08,0.41-0.32,0.64c-0.24,0.23-0.66,0.47-1.26,0.72c-0.09,0.04-0.23,0.09-0.43,0.16c-0.19,0.07-0.41,0.15-0.65,0.23
		s-0.5,0.17-0.76,0.26s-0.51,0.18-0.75,0.27s-0.45,0.17-0.62,0.25s-0.3,0.14-0.38,0.19c0,0.03,0.02,0.07,0.05,0.11
		c0.03,0.04,0.11,0.11,0.24,0.2c0.13,0.09,0.31,0.21,0.56,0.36c0.25,0.15,0.59,0.36,1.03,0.61s0.98,0.58,1.64,0.96
		c0.65,0.38,1.45,0.84,2.39,1.38c0.03,0.03,0.07,0.06,0.12,0.09c0.05,0.03,0.1,0.07,0.14,0.12c0.04,0.05,0.08,0.09,0.11,0.14
		c0.03,0.05,0.05,0.1,0.05,0.16c0,0.09-0.03,0.15-0.1,0.19c-0.07,0.04-0.15,0.07-0.24,0.09c-0.09,0.02-0.19,0.03-0.29,0.03
		s-0.18,0-0.25,0c-0.12,0.01-0.31-0.05-0.57-0.19s-0.56-0.32-0.9-0.55c-0.34-0.22-0.71-0.48-1.11-0.76
		c-0.4-0.28-0.79-0.56-1.18-0.83s-0.76-0.53-1.12-0.77c-0.36-0.24-0.66-0.43-0.92-0.56L108.26,53.1z M108.19,46.32
		c-0.06,0.09-0.1,0.22-0.11,0.37c-0.02,0.16-0.01,0.32,0.01,0.48c0.02,0.16,0.06,0.32,0.11,0.47c0.05,0.15,0.11,0.25,0.17,0.32
		c0.07,0.03,0.21,0.02,0.42-0.02c0.21-0.04,0.45-0.1,0.74-0.18c0.28-0.08,0.59-0.18,0.91-0.3c0.32-0.12,0.63-0.24,0.92-0.37
		s0.56-0.26,0.79-0.4c0.23-0.14,0.4-0.26,0.51-0.38c0.11-0.12,0.13-0.22,0.07-0.32s-0.23-0.16-0.53-0.22
		c-0.12-0.03-0.29-0.06-0.51-0.07c-0.22-0.02-0.46-0.02-0.73-0.02s-0.55,0.01-0.84,0.03c-0.29,0.02-0.56,0.06-0.82,0.11
		c-0.26,0.05-0.49,0.12-0.68,0.2S108.28,46.2,108.19,46.32z"/>
</g>
<g>
	<path class="st3" d="M46.78,78.95c0.17-0.67,0.31-1.56,0.4-2.66c0.09-1.1,0.17-2.29,0.22-3.58s0.09-2.62,0.09-3.99
		c0.01-1.37,0.01-2.67,0-3.89c-0.01-1.22-0.02-2.31-0.02-3.27c-0.01-0.96-0.01-1.67-0.01-2.14c0.45-0.25,0.86-0.4,1.21-0.43
		c0.35-0.04,0.73,0.13,1.14,0.51l-0.28,17.22l12.6,0.26c0.33,0.09,0.55,0.27,0.66,0.52c0.11,0.25,0.12,0.5,0.02,0.75
		c-0.09,0.25-0.29,0.45-0.6,0.61c-0.31,0.16-0.7,0.19-1.19,0.09H46.78z"/>
	<path class="st3" d="M64.4,59.31c0.41,0.11,0.97,0.18,1.68,0.2c0.71,0.02,1.5,0.03,2.35,0.01c0.85-0.02,1.75-0.04,2.68-0.07
		c0.93-0.03,1.82-0.05,2.66-0.05s1.6,0.03,2.29,0.08c0.69,0.06,1.23,0.15,1.62,0.29v1.46c-0.53,0.08-1.26,0.13-2.19,0.14
		c-0.92,0.02-1.91,0.03-2.96,0.04s-2.1,0.04-3.15,0.09c-1.05,0.06-1.97,0.17-2.75,0.34c-0.14,0.64-0.24,1.18-0.31,1.61
		s-0.11,0.81-0.13,1.13c-0.02,0.32-0.03,0.62-0.02,0.9s0.02,0.58,0.05,0.9s0.05,0.69,0.07,1.12s0.04,0.94,0.04,1.55
		c1,0,1.98-0.05,2.93-0.15c0.95-0.1,1.89-0.22,2.82-0.35s1.87-0.25,2.81-0.35s1.9-0.15,2.89-0.15v1.6l-11.23,1.41l0.16,5.97
		c1.47,0,2.8-0.04,3.99-0.13s2.32-0.18,3.4-0.27s2.13-0.18,3.18-0.27c1.05-0.09,2.16-0.13,3.34-0.13c0,0.17-0.05,0.38-0.14,0.62
		s-0.22,0.46-0.38,0.66c-0.16,0.2-0.33,0.34-0.53,0.45c-0.2,0.1-0.39,0.08-0.58-0.06c-1.08,0.13-2.28,0.25-3.58,0.36
		c-1.31,0.12-2.63,0.23-3.97,0.35c-1.34,0.12-2.63,0.23-3.88,0.33s-2.34,0.19-3.28,0.27L64.4,59.31z"/>
	<path class="st3" d="M93.92,76.54c-0.66,0.46-1.34,0.89-2.06,1.28s-1.44,0.72-2.19,0.98s-1.49,0.39-2.24,0.39s-1.47-0.15-2.15-0.46
		s-1.28-0.72-1.8-1.23c-0.52-0.52-0.92-1.12-1.22-1.8s-0.45-1.4-0.45-2.15c0.05-1.05,0.23-2.14,0.54-3.27s0.74-2.23,1.27-3.3
		c0.53-1.07,1.17-2.09,1.92-3.05c0.74-0.96,1.59-1.8,2.53-2.5c0.94-0.7,1.96-1.26,3.07-1.66c1.1-0.4,2.28-0.58,3.54-0.53
		c0.5,0.11,0.81,0.31,0.92,0.6c0.11,0.29,0.01,0.58-0.31,0.88c-1.58,0.08-3.04,0.46-4.38,1.15c-1.34,0.69-2.5,1.6-3.49,2.74
		s-1.76,2.45-2.31,3.95c-0.56,1.5-0.83,3.08-0.83,4.76c0,0.66,0.11,1.24,0.32,1.74c0.21,0.5,0.5,0.92,0.87,1.25
		c0.37,0.33,0.81,0.58,1.33,0.75c0.52,0.17,1.08,0.26,1.69,0.26c0.27,0.02,0.6-0.02,1.01-0.12c0.41-0.09,0.85-0.23,1.34-0.41
		c0.49-0.18,0.99-0.4,1.52-0.67c0.53-0.27,1.02-0.57,1.49-0.9c0.47-0.34,0.89-0.7,1.27-1.1c0.38-0.4,0.67-0.83,0.89-1.28v-4.35
		c-0.2-0.02-0.51,0.01-0.92,0.07c-0.41,0.06-0.87,0.14-1.37,0.23c-0.51,0.09-1.04,0.2-1.59,0.32c-0.55,0.12-1.08,0.23-1.59,0.34
		c-0.51,0.11-0.97,0.21-1.39,0.29c-0.41,0.09-0.73,0.14-0.95,0.18c-0.11-0.05-0.23-0.11-0.36-0.18s-0.21-0.17-0.22-0.31
		s0.07-0.31,0.25-0.53c0.18-0.22,0.53-0.5,1.05-0.85c0.03-0.02,0.24-0.06,0.63-0.13s0.89-0.15,1.49-0.25
		c0.6-0.09,1.27-0.2,2.01-0.32c0.74-0.12,1.47-0.23,2.2-0.34c0.73-0.11,1.42-0.21,2.07-0.31c0.65-0.09,1.19-0.17,1.61-0.23
		c0.2,0.03,0.45,0.02,0.74-0.02c0.29-0.05,0.57-0.06,0.83-0.05c0.27,0.02,0.49,0.09,0.66,0.22s0.24,0.4,0.21,0.81l-2.44,0.99
		c-0.14,0.47-0.25,1.02-0.33,1.66c-0.08,0.63-0.13,1.31-0.16,2.03c-0.03,0.72-0.05,1.47-0.05,2.23c0,0.77,0,1.52,0.01,2.27
		c0.01,0.74,0.02,1.46,0.02,2.15s0.01,1.32,0.01,1.88c-0.11,0.06-0.3,0.14-0.56,0.22s-0.54,0.15-0.83,0.19s-0.56,0.04-0.8-0.01
		c-0.24-0.05-0.4-0.18-0.46-0.4v-5.38C95.19,75.65,94.57,76.08,93.92,76.54z"/>
	<path class="st3" d="M101.69,76.53c0-0.19,0.07-0.37,0.2-0.55s0.29-0.35,0.46-0.51s0.34-0.29,0.51-0.4s0.28-0.19,0.34-0.23
		c0.08,0.72,0.35,1.27,0.82,1.63c0.47,0.37,1.06,0.6,1.76,0.7c0.7,0.1,1.5,0.09,2.37-0.04s1.75-0.32,2.63-0.59
		c0.88-0.27,1.72-0.58,2.54-0.95c0.81-0.37,1.51-0.75,2.09-1.14c0.58-0.39,1.01-0.77,1.29-1.14c0.28-0.37,0.33-0.68,0.14-0.95
		l-12.24-4.86c-0.16-0.05-0.35-0.13-0.58-0.25s-0.44-0.25-0.65-0.4c-0.2-0.15-0.38-0.31-0.52-0.49s-0.21-0.36-0.21-0.55
		c0-0.74,0.27-1.41,0.81-2.02c0.54-0.61,1.23-1.15,2.08-1.63c0.85-0.48,1.79-0.9,2.82-1.26c1.03-0.36,2.04-0.66,3.01-0.9
		c0.97-0.24,1.86-0.43,2.67-0.55c0.81-0.13,1.41-0.2,1.8-0.23c0.25-0.08,0.52-0.11,0.81-0.09s0.55,0.07,0.78,0.18
		s0.4,0.24,0.52,0.42s0.13,0.4,0.04,0.65c-0.09,0.23-0.35,0.45-0.78,0.63c-0.42,0.19-0.94,0.36-1.56,0.52
		c-0.62,0.16-1.31,0.31-2.07,0.46c-0.76,0.15-1.53,0.3-2.3,0.46c-0.78,0.16-1.52,0.33-2.23,0.51c-0.71,0.18-1.34,0.39-1.88,0.62
		c-0.54,0.23-0.95,0.51-1.23,0.81c-0.28,0.31-0.38,0.65-0.31,1.05c0.38,0.13,0.95,0.32,1.72,0.58c0.77,0.26,1.62,0.56,2.57,0.9
		c0.95,0.34,1.93,0.71,2.95,1.1c1.02,0.39,1.96,0.78,2.83,1.17c0.87,0.39,1.62,0.76,2.24,1.12c0.63,0.35,1.03,0.65,1.2,0.9
		c0.36,0.56,0.51,1.11,0.43,1.63c-0.07,0.53-0.3,1.03-0.68,1.52c-0.38,0.49-0.89,0.94-1.52,1.37c-0.63,0.43-1.32,0.83-2.07,1.2
		c-0.75,0.37-1.54,0.7-2.35,0.99c-0.81,0.29-1.59,0.54-2.34,0.74s-1.43,0.36-2.04,0.46c-0.62,0.1-1.12,0.14-1.49,0.13
		c-0.22,0.03-0.51,0.03-0.86,0s-0.73-0.09-1.13-0.19s-0.8-0.22-1.21-0.38c-0.41-0.16-0.78-0.34-1.1-0.55
		c-0.33-0.21-0.6-0.45-0.8-0.72C101.77,77.13,101.68,76.84,101.69,76.53z"/>
</g>
<path class="st0" d="M71.05,109.37c-0.09-0.12-0.2-0.31-0.32-0.56c-0.12-0.25-0.26-0.53-0.4-0.85c-0.14-0.31-0.3-0.64-0.45-0.97
	c-0.16-0.34-0.32-0.65-0.47-0.94c-0.16-0.29-0.31-0.53-0.45-0.74s-0.28-0.33-0.4-0.38c-0.09,0.14-0.19,0.33-0.31,0.59
	c-0.12,0.26-0.24,0.54-0.37,0.86c-0.13,0.32-0.26,0.65-0.39,0.99c-0.13,0.35-0.25,0.69-0.37,1.01s-0.23,0.63-0.33,0.91
	c-0.1,0.28-0.18,0.51-0.25,0.68l-0.76,0.04l-2.95-7.32c-0.04-0.08-0.03-0.14,0-0.2c0.04-0.05,0.09-0.09,0.16-0.12
	c0.07-0.03,0.14-0.05,0.22-0.06s0.14-0.02,0.18-0.02c0.11,0,0.2,0.02,0.27,0.06s0.12,0.1,0.17,0.17c0.04,0.07,0.08,0.15,0.11,0.23
	c0.03,0.08,0.06,0.17,0.1,0.25c0.09,0.2,0.2,0.46,0.33,0.78c0.13,0.32,0.27,0.66,0.42,1.03s0.3,0.74,0.45,1.11
	c0.15,0.37,0.3,0.72,0.43,1.03c0.13,0.31,0.25,0.57,0.35,0.78c0.1,0.21,0.17,0.33,0.2,0.37c0.31-0.78,0.58-1.44,0.81-1.98
	c0.22-0.54,0.42-0.99,0.58-1.34c0.16-0.35,0.29-0.62,0.38-0.81s0.17-0.33,0.23-0.42s0.1-0.14,0.13-0.16s0.05-0.03,0.06-0.03
	c0.1,0,0.21,0.06,0.33,0.18c0.13,0.12,0.26,0.29,0.4,0.5c0.14,0.21,0.29,0.44,0.45,0.71c0.15,0.27,0.3,0.54,0.45,0.83
	c0.15,0.28,0.3,0.57,0.44,0.86c0.14,0.28,0.28,0.55,0.4,0.79s0.23,0.45,0.32,0.63s0.17,0.3,0.23,0.37c0.14-0.46,0.28-0.94,0.41-1.46
	c0.13-0.52,0.26-1.04,0.37-1.56c0.12-0.52,0.22-1.04,0.32-1.54c0.09-0.51,0.18-0.98,0.25-1.42c0.19,0,0.33,0.02,0.43,0.05
	c0.1,0.04,0.18,0.09,0.22,0.15c0.04,0.07,0.07,0.14,0.08,0.23c0.01,0.09,0.01,0.19,0.01,0.29c0.01-0.02-0.01,0.06-0.04,0.25
	c-0.03,0.19-0.08,0.46-0.14,0.8c-0.06,0.35-0.13,0.75-0.22,1.22s-0.19,0.96-0.3,1.49c-0.11,0.53-0.24,1.06-0.37,1.62
	c-0.13,0.55-0.27,1.09-0.42,1.6c-0.15,0.1-0.27,0.16-0.37,0.16c-0.1,0.01-0.18-0.02-0.25-0.09c-0.07-0.06-0.13-0.15-0.18-0.27
	S71.11,109.51,71.05,109.37z"/>
<path class="st0" d="M74.31,107c-0.11-0.02-0.2-0.05-0.28-0.08c-0.08-0.04-0.12-0.1-0.12-0.19c0-0.08,0.03-0.16,0.09-0.23
	c0.06-0.08,0.12-0.16,0.19-0.24s0.13-0.17,0.19-0.26c0.06-0.09,0.1-0.19,0.11-0.3c0.01-0.08,0.01-0.2,0.02-0.36
	c0.01-0.17,0.02-0.35,0.03-0.56c0.01-0.21,0.02-0.43,0.03-0.66c0.01-0.23,0.02-0.45,0.03-0.66c0.01-0.21,0.01-0.4,0.02-0.56
	c0.01-0.17,0.01-0.29,0.01-0.36c0.04-0.05,0.1-0.09,0.18-0.14c0.08-0.04,0.15-0.08,0.23-0.09c0.08-0.02,0.15-0.01,0.22,0.01
	s0.12,0.09,0.16,0.19l-0.05,3.38c0.02-0.01,0.11-0.01,0.25-0.01c0.14,0,0.32,0,0.53,0c0.21,0,0.44-0.01,0.7-0.02
	c0.26-0.01,0.5-0.03,0.74-0.06c0.24-0.03,0.46-0.06,0.66-0.1c0.2-0.04,0.35-0.1,0.46-0.17l0.04-3.04c0.02-0.05,0.06-0.09,0.13-0.11
	s0.15-0.05,0.24-0.06c0.09-0.01,0.18-0.02,0.27-0.02c0.09,0,0.15,0,0.2,0.01c0,0.14,0,0.34,0.01,0.61c0.01,0.27,0.01,0.57,0.03,0.9
	c0.01,0.33,0.02,0.68,0.03,1.04c0.01,0.36,0.02,0.71,0.03,1.04s0.02,0.63,0.03,0.9c0.01,0.27,0.02,0.47,0.02,0.61
	c0.01,0.2,0.03,0.4,0.04,0.61c0.02,0.21,0.05,0.42,0.09,0.63s0.09,0.41,0.15,0.61c0.06,0.2,0.14,0.38,0.24,0.56
	c-0.17,0.17-0.35,0.28-0.51,0.32c-0.17,0.04-0.37,0-0.6-0.12c-0.11-0.26-0.19-0.54-0.26-0.84c-0.07-0.3-0.12-0.6-0.15-0.91
	s-0.06-0.62-0.08-0.92c-0.01-0.3-0.03-0.59-0.03-0.86c-0.31-0.01-0.59-0.01-0.85-0.01c-0.25,0-0.5,0-0.74,0.02
	c-0.24,0.02-0.49,0.06-0.74,0.11c-0.26,0.06-0.54,0.14-0.85,0.25c-0.02,0.22-0.03,0.46-0.04,0.72c-0.01,0.27-0.01,0.54,0,0.82
	c0.01,0.28,0.03,0.56,0.05,0.83c0.03,0.28,0.07,0.54,0.12,0.78l-0.85,0.09L74.31,107z"/>
<path class="st0" d="M80.79,109.81c-0.04-0.09-0.07-0.26-0.09-0.52c-0.02-0.26-0.04-0.56-0.04-0.92s-0.01-0.75-0.01-1.17
	c0-0.43,0-0.86,0.01-1.29c0.01-0.43,0.01-0.85,0.03-1.26s0.02-0.77,0.03-1.08c0.01-0.31,0.02-0.56,0.02-0.76
	c0.01-0.19,0.01-0.29,0.01-0.3c0.09-0.05,0.17-0.1,0.24-0.14c0.07-0.04,0.15-0.05,0.24-0.05c0.05,0,0.11,0.01,0.18,0.04
	c0.06,0.02,0.09,0.08,0.09,0.15l0.05,7.29c0,0.08-0.03,0.13-0.09,0.15c-0.06,0.02-0.12,0.04-0.18,0.04c-0.09,0-0.17-0.02-0.24-0.05
	S80.88,109.86,80.79,109.81z"/>
<path class="st0" d="M82.15,109.89c0.07-0.26,0.12-0.6,0.15-1.02s0.06-0.88,0.09-1.37c0.02-0.5,0.03-1,0.04-1.53
	c0-0.53,0-1.02,0-1.49c0-0.47-0.01-0.89-0.01-1.25c0-0.37,0-0.64,0-0.82c0.17-0.1,0.33-0.15,0.46-0.17
	c0.14-0.01,0.28,0.05,0.44,0.19l-0.11,6.6l4.82,0.1c0.13,0.04,0.21,0.1,0.25,0.2s0.05,0.19,0.01,0.29s-0.11,0.17-0.23,0.23
	c-0.12,0.06-0.27,0.07-0.45,0.04H82.15z"/>
<path class="st0" d="M88.9,102.37c0.16,0.04,0.37,0.07,0.64,0.08s0.57,0.01,0.9,0s0.67-0.01,1.03-0.03s0.7-0.02,1.02-0.02
	s0.61,0.01,0.88,0.03c0.26,0.02,0.47,0.06,0.62,0.11v0.56c-0.2,0.03-0.48,0.05-0.84,0.05c-0.35,0.01-0.73,0.01-1.13,0.01
	c-0.4,0-0.8,0.01-1.21,0.04c-0.4,0.02-0.75,0.06-1.05,0.13c-0.05,0.25-0.09,0.45-0.12,0.62s-0.04,0.31-0.05,0.43
	s-0.01,0.24-0.01,0.35c0,0.11,0.01,0.22,0.02,0.35c0.01,0.12,0.02,0.27,0.03,0.43c0.01,0.16,0.01,0.36,0.01,0.59
	c0.38,0,0.76-0.02,1.12-0.06s0.72-0.08,1.08-0.14c0.36-0.05,0.72-0.1,1.08-0.14c0.36-0.04,0.73-0.06,1.11-0.06v0.61l-4.3,0.54
	l0.06,2.29c0.56,0,1.07-0.02,1.53-0.05c0.46-0.03,0.89-0.07,1.3-0.1c0.41-0.04,0.82-0.07,1.22-0.1c0.4-0.03,0.83-0.05,1.28-0.05
	c0,0.07-0.02,0.15-0.05,0.24c-0.04,0.09-0.08,0.18-0.14,0.25c-0.06,0.08-0.13,0.13-0.2,0.17c-0.08,0.04-0.15,0.03-0.22-0.02
	c-0.41,0.05-0.87,0.09-1.37,0.14c-0.5,0.04-1.01,0.09-1.52,0.14c-0.51,0.04-1.01,0.09-1.49,0.13s-0.9,0.07-1.26,0.1L88.9,102.37z"/>
<path class="st0" d="M26.9,117.6c0.02,0,0.08,0,0.15,0c0.08,0,0.16,0.01,0.24,0.02s0.16,0.04,0.23,0.08
	c0.07,0.04,0.11,0.09,0.13,0.16c0.22-0.07,0.52-0.12,0.9-0.15c0.39-0.03,0.81-0.03,1.26,0.01c0.45,0.04,0.91,0.12,1.38,0.24
	c0.46,0.12,0.89,0.29,1.27,0.51c0.38,0.22,0.69,0.5,0.93,0.85s0.36,0.76,0.36,1.24c0,0.35-0.08,0.7-0.23,1.03
	c-0.15,0.33-0.36,0.65-0.61,0.95c-0.26,0.3-0.55,0.59-0.9,0.86c-0.34,0.27-0.7,0.51-1.07,0.73s-0.75,0.41-1.14,0.57
	c-0.39,0.16-0.76,0.29-1.11,0.38c-0.35,0.09-0.68,0.15-0.97,0.17c-0.29,0.02-0.53-0.01-0.72-0.08L26.9,117.6z M32.99,120.65
	c-0.04-0.37-0.17-0.68-0.37-0.95c-0.21-0.27-0.46-0.5-0.77-0.68c-0.31-0.18-0.65-0.32-1.02-0.42c-0.37-0.1-0.74-0.16-1.11-0.19
	s-0.71-0.03-1.04,0.01c-0.33,0.04-0.61,0.1-0.83,0.19l0.1,5.91c0.25,0,0.54-0.05,0.89-0.15c0.35-0.1,0.71-0.24,1.08-0.42
	c0.37-0.18,0.75-0.39,1.12-0.64c0.37-0.25,0.7-0.52,0.99-0.8s0.53-0.59,0.71-0.9S32.99,120.97,32.99,120.65z"/>
<path class="st0" d="M35.26,125.1c0,0.06-0.02,0.1-0.07,0.14c-0.04,0.03-0.1,0.05-0.15,0.06c-0.06,0.01-0.11,0.02-0.17,0.02
	s-0.09,0-0.12,0c-0.16,0-0.27-0.09-0.33-0.28c-0.07-0.19-0.11-0.44-0.12-0.77c-0.01-0.33-0.01-0.72,0-1.18
	c0.02-0.46,0.03-0.95,0.05-1.49s0.02-1.11,0.01-1.72c-0.01-0.61-0.05-1.23-0.12-1.86c0.07-0.13,0.15-0.19,0.23-0.21
	s0.16,0.01,0.23,0.05c0.07,0.05,0.14,0.11,0.2,0.19c0.06,0.08,0.11,0.14,0.14,0.2c0.19-0.18,0.44-0.32,0.77-0.41
	c0.33-0.09,0.69-0.15,1.08-0.18s0.78-0.01,1.18,0.03c0.4,0.04,0.77,0.12,1.1,0.21c0.33,0.1,0.6,0.22,0.82,0.36
	c0.22,0.14,0.34,0.31,0.36,0.49c0.02,0.18-0.08,0.37-0.29,0.59c-0.22,0.21-0.6,0.43-1.14,0.66c-0.08,0.04-0.21,0.09-0.39,0.15
	c-0.17,0.06-0.37,0.13-0.59,0.21c-0.22,0.08-0.45,0.15-0.69,0.24s-0.46,0.17-0.68,0.25c-0.22,0.08-0.41,0.16-0.57,0.22
	s-0.28,0.13-0.34,0.18c0,0.03,0.01,0.06,0.04,0.1c0.03,0.04,0.1,0.1,0.22,0.18s0.28,0.19,0.51,0.33c0.23,0.14,0.54,0.32,0.94,0.56
	c0.4,0.23,0.89,0.52,1.49,0.87c0.59,0.35,1.32,0.76,2.17,1.26c0.03,0.02,0.07,0.05,0.11,0.08c0.04,0.03,0.09,0.07,0.13,0.11
	s0.07,0.09,0.1,0.13c0.03,0.04,0.04,0.09,0.04,0.15c0,0.08-0.03,0.14-0.09,0.18c-0.06,0.04-0.13,0.07-0.22,0.09
	c-0.08,0.02-0.17,0.03-0.26,0.03s-0.17,0-0.23,0c-0.11,0.01-0.28-0.04-0.52-0.17c-0.24-0.13-0.51-0.29-0.82-0.5
	c-0.31-0.2-0.64-0.43-1-0.69s-0.72-0.51-1.07-0.76c-0.35-0.25-0.69-0.48-1.02-0.7c-0.32-0.22-0.6-0.39-0.84-0.51L35.26,125.1z
	 M35.2,118.95c-0.05,0.08-0.09,0.2-0.1,0.34s-0.01,0.29,0.01,0.44c0.02,0.15,0.05,0.29,0.1,0.42c0.04,0.13,0.1,0.23,0.16,0.29
	c0.07,0.02,0.19,0.02,0.38-0.02c0.19-0.04,0.41-0.09,0.67-0.17c0.26-0.08,0.53-0.17,0.82-0.27s0.57-0.22,0.84-0.34
	c0.27-0.12,0.51-0.24,0.72-0.36s0.36-0.24,0.46-0.35s0.12-0.2,0.06-0.29c-0.05-0.08-0.21-0.15-0.48-0.2
	c-0.11-0.03-0.26-0.05-0.46-0.07s-0.42-0.02-0.66-0.02c-0.24,0-0.5,0.01-0.76,0.03c-0.26,0.02-0.51,0.05-0.75,0.1
	s-0.44,0.11-0.62,0.18C35.41,118.74,35.28,118.84,35.2,118.95z"/>
<path class="st0" d="M42.45,125.5c-0.02,0.03-0.07,0.04-0.15,0.04c-0.08-0.01-0.15-0.02-0.23-0.05c-0.08-0.03-0.15-0.06-0.2-0.1
	s-0.08-0.07-0.07-0.1c0.05-0.12,0.12-0.3,0.2-0.53c0.09-0.23,0.19-0.5,0.3-0.8c0.11-0.3,0.23-0.63,0.36-0.98
	c0.13-0.35,0.26-0.7,0.39-1.06c0.13-0.36,0.26-0.72,0.39-1.07c0.13-0.35,0.25-0.68,0.36-0.98c0.11-0.3,0.2-0.57,0.29-0.8
	c0.08-0.23,0.15-0.41,0.2-0.54c0.05-0.14,0.08-0.27,0.1-0.38c0.02-0.12,0.05-0.22,0.09-0.3s0.1-0.15,0.18-0.19
	c0.08-0.04,0.21-0.07,0.38-0.07c0.28,0.22,0.52,0.49,0.72,0.81c0.2,0.32,0.37,0.64,0.53,0.96c0.15,0.33,0.3,0.64,0.43,0.94
	c0.13,0.3,0.28,0.54,0.44,0.73c0.05,0.07,0.12,0.11,0.2,0.12c0.09,0.01,0.18,0.01,0.29-0.01c0.11-0.01,0.22-0.04,0.33-0.07
	c0.11-0.03,0.21-0.05,0.3-0.06s0.16,0,0.22,0.03c0.06,0.03,0.09,0.09,0.09,0.18c0.02,0.13,0.01,0.22-0.03,0.3
	c-0.04,0.07-0.1,0.13-0.19,0.17c-0.08,0.04-0.18,0.07-0.28,0.09s-0.2,0.03-0.28,0.04c-0.09,0.01-0.16,0.03-0.22,0.05
	c-0.06,0.02-0.08,0.04-0.07,0.08c0.07,0.22,0.15,0.47,0.24,0.74s0.18,0.54,0.29,0.81s0.23,0.53,0.35,0.78
	c0.13,0.25,0.26,0.47,0.41,0.65c0,0.07-0.03,0.15-0.09,0.23c-0.06,0.08-0.14,0.16-0.23,0.22c-0.09,0.06-0.17,0.1-0.25,0.13
	c-0.08,0.02-0.14,0.01-0.18-0.03l-1.58-3.35l-3.07,0.76c-0.03,0.12-0.08,0.3-0.14,0.53c-0.06,0.23-0.13,0.48-0.22,0.74
	s-0.18,0.51-0.28,0.76S42.57,125.35,42.45,125.5z M44.93,118.89c-0.08,0.31-0.17,0.6-0.27,0.89c-0.1,0.29-0.21,0.56-0.32,0.83
	c-0.11,0.26-0.21,0.52-0.32,0.76c-0.1,0.24-0.2,0.46-0.27,0.67c0.22,0,0.43-0.02,0.65-0.07s0.43-0.1,0.63-0.17s0.4-0.14,0.59-0.22
	c0.19-0.08,0.37-0.15,0.55-0.22c-0.05-0.11-0.11-0.27-0.2-0.49c-0.08-0.22-0.18-0.45-0.29-0.7c-0.11-0.25-0.23-0.49-0.36-0.72
	C45.19,119.22,45.06,119.03,44.93,118.89z"/>
<path class="st0" d="M56.35,124.7c-0.09-0.12-0.2-0.31-0.32-0.56c-0.12-0.25-0.26-0.53-0.4-0.85c-0.14-0.31-0.3-0.64-0.45-0.97
	c-0.16-0.34-0.32-0.65-0.47-0.94s-0.31-0.53-0.45-0.74c-0.15-0.2-0.28-0.33-0.4-0.38c-0.09,0.14-0.19,0.33-0.31,0.59
	c-0.12,0.26-0.24,0.54-0.37,0.86c-0.13,0.32-0.26,0.65-0.39,0.99c-0.13,0.35-0.25,0.69-0.37,1.01s-0.23,0.63-0.33,0.91
	c-0.1,0.28-0.18,0.51-0.25,0.68l-0.76,0.04l-2.95-7.32c-0.04-0.08-0.03-0.14,0-0.2c0.04-0.05,0.09-0.09,0.16-0.12
	s0.14-0.05,0.22-0.06c0.08-0.01,0.14-0.02,0.18-0.02c0.11,0,0.2,0.02,0.27,0.06s0.12,0.1,0.17,0.17c0.05,0.07,0.08,0.15,0.11,0.23
	c0.03,0.08,0.06,0.17,0.1,0.25c0.09,0.2,0.2,0.46,0.33,0.78c0.13,0.32,0.27,0.66,0.42,1.03c0.15,0.37,0.3,0.74,0.45,1.11
	c0.15,0.37,0.3,0.72,0.43,1.03c0.13,0.31,0.25,0.57,0.35,0.78c0.1,0.21,0.17,0.33,0.2,0.37c0.31-0.78,0.58-1.44,0.81-1.98
	c0.23-0.54,0.42-0.99,0.58-1.34c0.16-0.35,0.29-0.62,0.38-0.81c0.1-0.19,0.17-0.33,0.23-0.42c0.06-0.09,0.1-0.14,0.13-0.16
	c0.03-0.02,0.05-0.03,0.06-0.03c0.1,0,0.21,0.06,0.33,0.18c0.13,0.12,0.26,0.29,0.41,0.5s0.29,0.44,0.45,0.71
	c0.15,0.27,0.3,0.54,0.45,0.83c0.15,0.28,0.3,0.57,0.44,0.86s0.28,0.55,0.4,0.79c0.12,0.24,0.23,0.45,0.32,0.63s0.17,0.3,0.23,0.37
	c0.14-0.46,0.28-0.94,0.41-1.46c0.13-0.52,0.26-1.04,0.37-1.56c0.12-0.52,0.22-1.04,0.32-1.54c0.09-0.51,0.18-0.98,0.25-1.42
	c0.19,0,0.33,0.02,0.43,0.05c0.1,0.04,0.18,0.09,0.22,0.15c0.05,0.07,0.07,0.14,0.08,0.23c0.01,0.09,0.01,0.19,0.01,0.29
	c0.01-0.02-0.01,0.06-0.04,0.25c-0.03,0.19-0.08,0.46-0.14,0.8c-0.06,0.35-0.13,0.75-0.22,1.22c-0.09,0.46-0.19,0.96-0.3,1.49
	s-0.24,1.06-0.37,1.62c-0.13,0.55-0.27,1.09-0.42,1.6c-0.15,0.1-0.27,0.16-0.37,0.16c-0.1,0.01-0.18-0.02-0.25-0.09
	s-0.13-0.15-0.18-0.27C56.47,124.97,56.41,124.84,56.35,124.7z"/>
<path class="st0" d="M59.41,125.14c-0.04-0.09-0.07-0.26-0.09-0.52c-0.02-0.26-0.04-0.56-0.04-0.92c-0.01-0.36-0.01-0.75-0.01-1.17
	c0-0.43,0-0.86,0.01-1.29c0.01-0.43,0.01-0.85,0.03-1.26s0.02-0.77,0.03-1.08c0.01-0.31,0.02-0.56,0.02-0.76
	c0.01-0.19,0.01-0.29,0.01-0.3c0.09-0.05,0.17-0.1,0.24-0.14s0.15-0.05,0.24-0.05c0.05,0,0.11,0.01,0.18,0.04
	c0.06,0.02,0.09,0.08,0.09,0.15l0.05,7.29c0,0.08-0.03,0.13-0.09,0.15s-0.12,0.04-0.18,0.04c-0.09,0-0.17-0.02-0.24-0.05
	C59.58,125.24,59.5,125.19,59.41,125.14z"/>
<path class="st0" d="M66.16,125.28c-0.28-0.49-0.61-0.98-0.98-1.47c-0.37-0.49-0.75-0.98-1.15-1.47s-0.78-0.98-1.17-1.47
	c-0.39-0.49-0.74-0.98-1.05-1.48c-0.04,0.44-0.06,0.93-0.06,1.45s-0.01,1.05-0.01,1.58c0,0.53-0.01,1.03-0.02,1.52
	c-0.01,0.48-0.04,0.9-0.09,1.26c-0.1,0.09-0.19,0.15-0.27,0.17s-0.18,0.04-0.29,0.04c-0.11,0-0.2-0.02-0.27-0.06
	c-0.07-0.04-0.1-0.15-0.09-0.33c0.04-0.31,0.06-0.65,0.09-1.04c0.02-0.39,0.04-0.79,0.05-1.22c0.01-0.43,0.01-0.86,0.01-1.31
	c0-0.45-0.01-0.89-0.01-1.31c-0.01-0.43-0.01-0.83-0.02-1.22c-0.01-0.39-0.02-0.73-0.03-1.04c0.1-0.14,0.2-0.23,0.3-0.27
	s0.22-0.02,0.36,0.07c0.15,0.09,0.33,0.26,0.56,0.5c0.23,0.25,0.52,0.59,0.87,1.04c0.36,0.44,0.8,1,1.31,1.67
	c0.52,0.67,1.14,1.46,1.88,2.39l-0.02-5.21c0.08-0.15,0.16-0.25,0.24-0.31c0.08-0.06,0.19-0.09,0.33-0.09
	c0.13,0,0.22,0.05,0.27,0.14s0.09,0.2,0.11,0.33c0.02,0.13,0.02,0.25,0.01,0.38c-0.01,0.13-0.01,0.22-0.01,0.29
	c0,0.24,0.01,0.55,0.03,0.92c0.02,0.37,0.04,0.78,0.06,1.22c0.02,0.44,0.04,0.89,0.05,1.35s0.02,0.9,0.02,1.31s-0.01,0.77-0.04,1.08
	c-0.02,0.32-0.07,0.54-0.14,0.69L66.16,125.28z"/>
<path class="st0" d="M72.31,124.3c-0.25,0.18-0.51,0.34-0.79,0.49s-0.55,0.27-0.84,0.37s-0.57,0.15-0.86,0.15s-0.56-0.06-0.82-0.18
	c-0.26-0.12-0.49-0.27-0.69-0.47c-0.2-0.2-0.35-0.43-0.47-0.69c-0.11-0.26-0.17-0.54-0.17-0.82c0.02-0.4,0.09-0.82,0.21-1.25
	c0.12-0.43,0.28-0.85,0.49-1.26s0.45-0.8,0.73-1.17s0.61-0.69,0.97-0.96c0.36-0.27,0.75-0.48,1.17-0.63s0.87-0.22,1.35-0.2
	c0.19,0.04,0.31,0.12,0.35,0.23s0,0.22-0.12,0.34c-0.61,0.03-1.17,0.18-1.68,0.44c-0.51,0.26-0.96,0.61-1.34,1.05
	c-0.38,0.44-0.67,0.94-0.89,1.51c-0.21,0.57-0.32,1.18-0.32,1.82c0,0.25,0.04,0.47,0.12,0.67s0.19,0.35,0.33,0.48
	c0.14,0.13,0.31,0.22,0.51,0.29c0.2,0.07,0.41,0.1,0.65,0.1c0.1,0.01,0.23-0.01,0.39-0.04c0.16-0.04,0.33-0.09,0.51-0.16
	c0.19-0.07,0.38-0.15,0.58-0.26c0.2-0.1,0.39-0.22,0.57-0.35c0.18-0.13,0.34-0.27,0.49-0.42c0.14-0.15,0.26-0.32,0.34-0.49v-1.67
	c-0.08-0.01-0.19,0-0.35,0.03c-0.16,0.02-0.33,0.05-0.53,0.09c-0.19,0.04-0.4,0.08-0.61,0.12c-0.21,0.04-0.41,0.09-0.61,0.13
	c-0.19,0.04-0.37,0.08-0.53,0.11c-0.16,0.03-0.28,0.06-0.36,0.07c-0.04-0.02-0.09-0.04-0.14-0.07c-0.05-0.03-0.08-0.07-0.09-0.12
	c-0.01-0.05,0.03-0.12,0.09-0.2c0.07-0.08,0.2-0.19,0.4-0.32c0.01-0.01,0.09-0.02,0.24-0.05s0.34-0.06,0.57-0.09
	c0.23-0.04,0.49-0.08,0.77-0.12c0.28-0.05,0.56-0.09,0.84-0.13c0.28-0.04,0.54-0.08,0.79-0.12s0.45-0.07,0.62-0.09
	c0.08,0.01,0.17,0.01,0.28-0.01c0.11-0.02,0.22-0.02,0.32-0.02c0.1,0.01,0.19,0.03,0.25,0.09c0.07,0.05,0.09,0.15,0.08,0.31
	l-0.94,0.38c-0.05,0.18-0.1,0.39-0.13,0.63c-0.03,0.24-0.05,0.5-0.06,0.78s-0.02,0.56-0.02,0.86s0,0.58,0,0.87
	c0,0.28,0.01,0.56,0.01,0.82c0,0.26,0,0.5,0,0.72c-0.04,0.02-0.11,0.05-0.22,0.09c-0.1,0.03-0.21,0.06-0.32,0.07s-0.21,0.01-0.31,0
	c-0.09-0.02-0.15-0.07-0.18-0.15v-2.06C72.79,123.96,72.56,124.12,72.31,124.3z"/>
<path class="st0" d="M82.61,118.59l-2.4-0.14c-0.03,0-0.06-0.01-0.08-0.04c-0.02-0.03-0.04-0.06-0.06-0.1s-0.03-0.08-0.04-0.13
	s-0.01-0.08-0.01-0.11c0-0.1,0.03-0.2,0.1-0.3c0.07-0.1,0.15-0.15,0.24-0.15c0.55,0.02,1.09,0.06,1.65,0.11
	c0.55,0.05,1.11,0.08,1.66,0.11c0.55,0.02,1.11,0.03,1.66,0.01s1.09-0.08,1.63-0.18c0.04,0.01,0.08,0.05,0.11,0.11
	c0.03,0.06,0.05,0.13,0.07,0.21c0.02,0.08,0.03,0.16,0.04,0.24c0.01,0.08,0.01,0.14,0.01,0.18c-0.37,0.11-0.7,0.17-0.98,0.19
	c-0.28,0.02-0.55,0.03-0.81,0.02c-0.26-0.01-0.54-0.01-0.81-0.02c-0.28-0.01-0.6,0.02-0.97,0.07c-0.01,0.19-0.03,0.46-0.06,0.79
	s-0.06,0.71-0.09,1.12c-0.03,0.41-0.06,0.84-0.09,1.28s-0.05,0.88-0.07,1.31c-0.02,0.42-0.03,0.81-0.04,1.17
	c-0.01,0.36,0,0.66,0.03,0.89l-1.05,0.08L82.61,118.59z"/>
<path class="st0" d="M87.38,122.33c-0.11-0.02-0.2-0.04-0.28-0.08c-0.08-0.04-0.12-0.1-0.12-0.19c0-0.08,0.03-0.16,0.09-0.23
	c0.06-0.08,0.12-0.16,0.19-0.24s0.13-0.17,0.19-0.26s0.1-0.19,0.11-0.3c0.01-0.08,0.01-0.2,0.02-0.36s0.02-0.35,0.03-0.56
	c0.01-0.21,0.02-0.43,0.03-0.66s0.02-0.45,0.03-0.66s0.01-0.4,0.02-0.56c0.01-0.17,0.01-0.29,0.01-0.36
	c0.04-0.05,0.1-0.09,0.18-0.14c0.08-0.04,0.15-0.08,0.23-0.09c0.08-0.02,0.15-0.01,0.22,0.01s0.12,0.09,0.16,0.19l-0.05,3.38
	c0.02-0.01,0.11-0.01,0.25-0.01s0.32,0,0.53,0c0.21,0,0.44-0.01,0.7-0.02s0.5-0.03,0.74-0.06c0.24-0.03,0.46-0.06,0.66-0.1
	c0.2-0.04,0.35-0.1,0.46-0.17l0.04-3.04c0.02-0.05,0.06-0.09,0.13-0.11s0.15-0.05,0.24-0.06c0.09-0.01,0.18-0.02,0.27-0.02
	c0.09,0,0.15,0,0.2,0.01c0,0.14,0,0.34,0.01,0.61c0.01,0.27,0.01,0.57,0.03,0.9s0.02,0.68,0.03,1.04c0.01,0.36,0.02,0.71,0.03,1.04
	s0.02,0.63,0.03,0.9c0.01,0.27,0.02,0.47,0.02,0.61c0.01,0.2,0.03,0.4,0.05,0.61c0.02,0.21,0.05,0.42,0.09,0.63
	c0.04,0.21,0.09,0.41,0.15,0.61c0.06,0.2,0.14,0.38,0.24,0.56c-0.17,0.17-0.35,0.28-0.51,0.32s-0.37,0-0.6-0.12
	c-0.11-0.26-0.19-0.54-0.26-0.84c-0.07-0.3-0.12-0.6-0.15-0.91c-0.04-0.31-0.06-0.62-0.08-0.92s-0.03-0.59-0.03-0.86
	c-0.31-0.01-0.59-0.01-0.85-0.01c-0.25,0-0.5,0-0.74,0.02c-0.24,0.02-0.49,0.06-0.74,0.11c-0.26,0.06-0.54,0.14-0.85,0.25
	c-0.02,0.22-0.03,0.46-0.04,0.72c-0.01,0.27-0.01,0.54,0,0.82c0.01,0.28,0.03,0.56,0.05,0.83s0.07,0.54,0.12,0.78l-0.85,0.09
	L87.38,122.33z"/>
<path class="st0" d="M93.82,117.69c0.16,0.04,0.37,0.07,0.64,0.08c0.27,0.01,0.57,0.01,0.9,0c0.33-0.01,0.67-0.01,1.03-0.03
	s0.7-0.02,1.02-0.02c0.32,0,0.61,0.01,0.88,0.03c0.26,0.02,0.47,0.06,0.62,0.11v0.56c-0.2,0.03-0.48,0.05-0.84,0.05
	c-0.35,0.01-0.73,0.01-1.13,0.01c-0.4,0-0.8,0.01-1.21,0.04s-0.75,0.06-1.05,0.13c-0.05,0.25-0.09,0.45-0.12,0.62
	s-0.04,0.31-0.05,0.43s-0.01,0.24-0.01,0.35c0,0.11,0.01,0.22,0.02,0.35c0.01,0.12,0.02,0.27,0.03,0.43
	c0.01,0.16,0.01,0.36,0.01,0.59c0.38,0,0.76-0.02,1.12-0.06s0.72-0.08,1.08-0.14c0.36-0.05,0.72-0.1,1.08-0.13
	c0.36-0.04,0.73-0.06,1.11-0.06v0.61l-4.3,0.54l0.06,2.29c0.56,0,1.07-0.02,1.53-0.05c0.46-0.03,0.89-0.07,1.3-0.1
	c0.41-0.04,0.82-0.07,1.22-0.1c0.4-0.03,0.83-0.05,1.28-0.05c0,0.07-0.02,0.15-0.05,0.24c-0.04,0.09-0.08,0.18-0.14,0.25
	c-0.06,0.08-0.13,0.13-0.2,0.17c-0.08,0.04-0.15,0.03-0.22-0.02c-0.41,0.05-0.87,0.09-1.37,0.14c-0.5,0.04-1.01,0.09-1.52,0.14
	c-0.51,0.04-1.01,0.09-1.49,0.13s-0.9,0.07-1.26,0.1L93.82,117.69z"/>
<path class="st0" d="M100.68,125.14c-0.04-0.09-0.07-0.26-0.09-0.52c-0.02-0.26-0.04-0.56-0.04-0.92s-0.01-0.75-0.01-1.17
	c0-0.43,0-0.86,0.01-1.29c0.01-0.43,0.01-0.85,0.03-1.26s0.02-0.77,0.03-1.08s0.02-0.56,0.02-0.76c0.01-0.19,0.01-0.29,0.01-0.3
	c0.09-0.05,0.17-0.1,0.24-0.14s0.15-0.05,0.24-0.05c0.05,0,0.11,0.01,0.18,0.04c0.06,0.02,0.09,0.08,0.09,0.15l0.05,7.29
	c0,0.08-0.03,0.13-0.09,0.15c-0.06,0.02-0.12,0.04-0.18,0.04c-0.09,0-0.17-0.02-0.24-0.05
	C100.84,125.24,100.77,125.19,100.68,125.14z"/>
<path class="st0" d="M102.91,125.1c0,0.06-0.02,0.1-0.07,0.14c-0.05,0.03-0.1,0.05-0.15,0.06c-0.06,0.01-0.11,0.02-0.17,0.02
	c-0.05,0-0.09,0-0.12,0c-0.16,0-0.27-0.09-0.33-0.28c-0.07-0.19-0.11-0.44-0.12-0.77c-0.01-0.33-0.01-0.72,0-1.18
	c0.02-0.46,0.03-0.95,0.05-1.49s0.02-1.11,0.01-1.72c-0.01-0.61-0.05-1.23-0.12-1.86c0.07-0.13,0.15-0.19,0.23-0.21
	s0.16,0.01,0.23,0.05c0.07,0.05,0.14,0.11,0.2,0.19c0.06,0.08,0.11,0.14,0.14,0.2c0.19-0.18,0.44-0.32,0.77-0.41
	s0.69-0.15,1.08-0.18c0.39-0.02,0.78-0.01,1.18,0.03c0.4,0.04,0.77,0.12,1.1,0.21s0.6,0.22,0.82,0.36c0.22,0.14,0.34,0.31,0.36,0.49
	c0.02,0.18-0.08,0.37-0.29,0.59s-0.6,0.43-1.14,0.66c-0.08,0.04-0.21,0.09-0.39,0.15c-0.17,0.06-0.37,0.13-0.59,0.21
	s-0.45,0.15-0.69,0.24c-0.24,0.08-0.46,0.17-0.68,0.25c-0.22,0.08-0.41,0.16-0.57,0.22s-0.28,0.13-0.34,0.18
	c0,0.03,0.01,0.06,0.04,0.1s0.1,0.1,0.22,0.18s0.28,0.19,0.51,0.33c0.23,0.14,0.54,0.32,0.94,0.56c0.4,0.23,0.89,0.52,1.49,0.87
	c0.59,0.35,1.32,0.76,2.17,1.26c0.03,0.02,0.07,0.05,0.11,0.08c0.04,0.03,0.09,0.07,0.13,0.11s0.07,0.09,0.1,0.13
	c0.03,0.04,0.04,0.09,0.04,0.15c0,0.08-0.03,0.14-0.09,0.18c-0.06,0.04-0.13,0.07-0.22,0.09c-0.08,0.02-0.17,0.03-0.26,0.03
	c-0.09,0-0.17,0-0.23,0c-0.11,0.01-0.28-0.04-0.52-0.17c-0.24-0.13-0.51-0.29-0.82-0.5c-0.31-0.2-0.64-0.43-1-0.69
	c-0.36-0.26-0.72-0.51-1.07-0.76c-0.35-0.25-0.69-0.48-1.02-0.7s-0.6-0.39-0.84-0.51L102.91,125.1z M102.84,118.95
	c-0.05,0.08-0.09,0.2-0.1,0.34s-0.01,0.29,0.01,0.44c0.02,0.15,0.05,0.29,0.1,0.42c0.04,0.13,0.1,0.23,0.16,0.29
	c0.07,0.02,0.19,0.02,0.38-0.02c0.19-0.04,0.41-0.09,0.67-0.17c0.26-0.08,0.53-0.17,0.82-0.27c0.29-0.11,0.57-0.22,0.84-0.34
	c0.27-0.12,0.51-0.24,0.72-0.36c0.21-0.12,0.36-0.24,0.46-0.35s0.12-0.2,0.06-0.29s-0.21-0.15-0.48-0.2
	c-0.11-0.03-0.26-0.05-0.46-0.07c-0.2-0.01-0.42-0.02-0.66-0.02s-0.5,0.01-0.76,0.03c-0.26,0.02-0.51,0.05-0.75,0.1
	c-0.23,0.04-0.44,0.11-0.62,0.18S102.92,118.84,102.84,118.95z"/>
<path class="st0" d="M114.71,125.5c-0.02,0.03-0.07,0.04-0.15,0.04c-0.08-0.01-0.15-0.02-0.23-0.05c-0.08-0.03-0.15-0.06-0.2-0.1
	s-0.08-0.07-0.07-0.1c0.05-0.12,0.12-0.3,0.2-0.53c0.09-0.23,0.19-0.5,0.3-0.8c0.11-0.3,0.23-0.63,0.36-0.98
	c0.13-0.35,0.26-0.7,0.39-1.06c0.13-0.36,0.26-0.72,0.39-1.07c0.13-0.35,0.25-0.68,0.36-0.98s0.2-0.57,0.29-0.8s0.15-0.41,0.2-0.54
	c0.05-0.14,0.08-0.27,0.1-0.38c0.02-0.12,0.05-0.22,0.09-0.3s0.1-0.15,0.18-0.19s0.21-0.07,0.38-0.07c0.28,0.22,0.52,0.49,0.72,0.81
	c0.2,0.32,0.37,0.64,0.53,0.96c0.15,0.33,0.3,0.64,0.43,0.94s0.28,0.54,0.44,0.73c0.05,0.07,0.12,0.11,0.2,0.12
	c0.09,0.01,0.18,0.01,0.29-0.01s0.22-0.04,0.33-0.07c0.11-0.03,0.21-0.05,0.3-0.06c0.09-0.01,0.16,0,0.22,0.03
	c0.06,0.03,0.09,0.09,0.09,0.18c0.02,0.13,0.01,0.22-0.03,0.3c-0.04,0.07-0.1,0.13-0.19,0.17c-0.08,0.04-0.18,0.07-0.28,0.09
	c-0.1,0.02-0.2,0.03-0.28,0.04c-0.09,0.01-0.16,0.03-0.22,0.05c-0.06,0.02-0.08,0.04-0.07,0.08c0.07,0.22,0.15,0.47,0.24,0.74
	s0.18,0.54,0.29,0.81s0.23,0.53,0.35,0.78c0.13,0.25,0.26,0.47,0.41,0.65c0,0.07-0.03,0.15-0.09,0.23
	c-0.06,0.08-0.14,0.16-0.23,0.22c-0.09,0.06-0.17,0.1-0.25,0.13s-0.14,0.01-0.18-0.03l-1.58-3.35l-3.07,0.76
	c-0.03,0.12-0.08,0.3-0.13,0.53c-0.06,0.23-0.13,0.48-0.22,0.74c-0.08,0.26-0.18,0.51-0.28,0.76
	C114.93,125.16,114.82,125.35,114.71,125.5z M117.18,118.89c-0.08,0.31-0.17,0.6-0.27,0.89c-0.1,0.29-0.21,0.56-0.32,0.83
	c-0.11,0.26-0.21,0.52-0.32,0.76c-0.1,0.24-0.2,0.46-0.27,0.67c0.22,0,0.43-0.02,0.65-0.07s0.43-0.1,0.63-0.17
	c0.2-0.07,0.4-0.14,0.59-0.22c0.19-0.08,0.37-0.15,0.55-0.22c-0.05-0.11-0.11-0.27-0.2-0.49s-0.18-0.45-0.29-0.7
	c-0.11-0.25-0.23-0.49-0.36-0.72C117.44,119.22,117.31,119.03,117.18,118.89z"/>
<path class="st0" d="M122.48,125.1c0,0.06-0.02,0.1-0.07,0.14c-0.04,0.03-0.1,0.05-0.15,0.06s-0.11,0.02-0.17,0.02s-0.09,0-0.12,0
	c-0.16,0-0.27-0.09-0.33-0.28c-0.07-0.19-0.11-0.44-0.12-0.77c-0.01-0.33-0.01-0.72,0-1.18c0.02-0.46,0.03-0.95,0.05-1.49
	s0.02-1.11,0.01-1.72c-0.01-0.61-0.05-1.23-0.12-1.86c0.07-0.13,0.15-0.19,0.23-0.21c0.08-0.01,0.16,0.01,0.23,0.05
	c0.07,0.05,0.14,0.11,0.2,0.19c0.06,0.08,0.11,0.14,0.14,0.2c0.19-0.18,0.44-0.32,0.77-0.41s0.69-0.15,1.08-0.18
	c0.39-0.02,0.78-0.01,1.18,0.03c0.4,0.04,0.77,0.12,1.1,0.21s0.6,0.22,0.82,0.36c0.22,0.14,0.34,0.31,0.36,0.49
	c0.02,0.18-0.08,0.37-0.29,0.59s-0.6,0.43-1.14,0.66c-0.08,0.04-0.21,0.09-0.39,0.15c-0.17,0.06-0.37,0.13-0.59,0.21
	s-0.45,0.15-0.69,0.24c-0.24,0.08-0.46,0.17-0.68,0.25c-0.22,0.08-0.4,0.16-0.57,0.22s-0.28,0.13-0.34,0.18
	c0,0.03,0.01,0.06,0.04,0.1s0.1,0.1,0.22,0.18s0.28,0.19,0.51,0.33c0.23,0.14,0.54,0.32,0.94,0.56c0.4,0.23,0.89,0.52,1.49,0.87
	c0.59,0.35,1.32,0.76,2.17,1.26c0.03,0.02,0.07,0.05,0.11,0.08c0.05,0.03,0.09,0.07,0.13,0.11s0.07,0.09,0.1,0.13
	c0.03,0.04,0.04,0.09,0.04,0.15c0,0.08-0.03,0.14-0.09,0.18c-0.06,0.04-0.13,0.07-0.22,0.09c-0.08,0.02-0.17,0.03-0.26,0.03
	c-0.09,0-0.17,0-0.23,0c-0.11,0.01-0.28-0.04-0.52-0.17c-0.24-0.13-0.51-0.29-0.82-0.5c-0.31-0.2-0.64-0.43-1-0.69
	c-0.36-0.26-0.72-0.51-1.07-0.76c-0.35-0.25-0.69-0.48-1.02-0.7s-0.6-0.39-0.84-0.51L122.48,125.1z M122.42,118.95
	c-0.05,0.08-0.09,0.2-0.1,0.34s-0.01,0.29,0.01,0.44c0.02,0.15,0.05,0.29,0.1,0.42c0.04,0.13,0.1,0.23,0.16,0.29
	c0.07,0.02,0.19,0.02,0.38-0.02c0.19-0.04,0.41-0.09,0.67-0.17c0.26-0.08,0.53-0.17,0.82-0.27c0.29-0.11,0.57-0.22,0.84-0.34
	c0.27-0.12,0.51-0.24,0.72-0.36c0.21-0.12,0.36-0.24,0.46-0.35s0.12-0.2,0.06-0.29s-0.21-0.15-0.48-0.2
	c-0.11-0.03-0.26-0.05-0.46-0.07c-0.2-0.01-0.42-0.02-0.66-0.02s-0.5,0.01-0.76,0.03c-0.26,0.02-0.51,0.05-0.75,0.1
	c-0.23,0.04-0.44,0.11-0.62,0.18C122.63,118.74,122.5,118.84,122.42,118.95z"/>
<path class="st0" d="M137.04,125.16c-0.01-0.11-0.04-0.32-0.08-0.64c-0.04-0.32-0.08-0.69-0.14-1.12c-0.05-0.43-0.1-0.88-0.16-1.35
	c-0.06-0.47-0.11-0.92-0.16-1.35c-0.05-0.43-0.1-0.8-0.14-1.12c-0.04-0.32-0.07-0.53-0.08-0.64c-0.04,0.05-0.07,0.11-0.09,0.18
	s-0.06,0.17-0.11,0.31c-0.05,0.14-0.12,0.31-0.21,0.54c-0.09,0.22-0.22,0.51-0.39,0.85c-0.17,0.35-0.39,0.76-0.66,1.26
	s-0.6,1.08-0.99,1.76c-0.04,0.08-0.1,0.14-0.18,0.17s-0.16,0.01-0.24-0.04c-0.09-0.05-0.18-0.15-0.27-0.29
	c-0.09-0.14-0.18-0.34-0.25-0.59l-2.07-4.4c-0.05,0.09-0.09,0.23-0.13,0.43c-0.04,0.2-0.08,0.42-0.12,0.68s-0.07,0.53-0.1,0.82
	c-0.03,0.29-0.06,0.58-0.08,0.86c-0.02,0.28-0.04,0.54-0.06,0.79c-0.02,0.25-0.03,0.46-0.04,0.63c-0.05,0.29-0.06,0.58-0.04,0.88
	s0.03,0.56,0.02,0.8c-0.01,0.24-0.06,0.43-0.16,0.57c-0.1,0.14-0.3,0.2-0.59,0.17c-0.13,0-0.22-0.03-0.29-0.09
	c-0.07-0.06-0.09-0.16-0.08-0.29c0.02-0.23,0.06-0.54,0.11-0.93c0.05-0.39,0.1-0.8,0.15-1.25c0.05-0.45,0.1-0.9,0.16-1.36
	c0.06-0.46,0.11-0.89,0.15-1.28s0.08-0.72,0.12-0.99c0.03-0.27,0.06-0.44,0.07-0.5c0.02-0.17,0.05-0.31,0.08-0.43
	s0.08-0.22,0.13-0.3c0.06-0.08,0.14-0.13,0.24-0.17c0.1-0.03,0.24-0.05,0.4-0.05c0.23,0.11,0.44,0.29,0.63,0.53
	c0.19,0.24,0.38,0.51,0.54,0.81s0.33,0.62,0.48,0.95c0.15,0.33,0.29,0.65,0.43,0.95c0.13,0.3,0.27,0.56,0.4,0.78
	c0.13,0.23,0.26,0.38,0.38,0.47l2.3-4.45c0.2-0.15,0.38-0.19,0.53-0.12s0.28,0.23,0.4,0.46c0.12,0.24,0.22,0.54,0.3,0.9
	c0.08,0.37,0.15,0.77,0.22,1.2c0.06,0.43,0.12,0.88,0.17,1.35c0.05,0.46,0.09,0.91,0.14,1.35c0.04,0.43,0.09,0.83,0.14,1.21
	c0.05,0.37,0.1,0.68,0.16,0.93c0.02,0.14-0.02,0.24-0.11,0.31c-0.09,0.07-0.19,0.11-0.32,0.12c-0.12,0.01-0.23-0.01-0.34-0.05
	S137.05,125.24,137.04,125.16z"/>
<path class="st0" d="M138.28,124.29c0-0.07,0.03-0.14,0.08-0.21c0.05-0.07,0.11-0.13,0.18-0.19c0.07-0.06,0.13-0.11,0.19-0.15
	c0.06-0.04,0.11-0.07,0.13-0.09c0.03,0.28,0.14,0.48,0.32,0.63c0.18,0.14,0.41,0.23,0.68,0.27c0.27,0.04,0.57,0.03,0.91-0.01
	c0.34-0.05,0.67-0.12,1.01-0.23c0.34-0.1,0.66-0.22,0.97-0.36c0.31-0.14,0.58-0.29,0.8-0.44s0.39-0.3,0.5-0.44
	c0.11-0.14,0.13-0.26,0.05-0.36l-4.69-1.86c-0.06-0.02-0.13-0.05-0.22-0.09s-0.17-0.1-0.25-0.15s-0.14-0.12-0.2-0.19
	s-0.08-0.14-0.08-0.21c0-0.28,0.1-0.54,0.31-0.77s0.47-0.44,0.8-0.63c0.32-0.18,0.68-0.34,1.08-0.48c0.4-0.14,0.78-0.25,1.15-0.35
	c0.37-0.09,0.71-0.16,1.02-0.21c0.31-0.05,0.54-0.08,0.69-0.09c0.1-0.03,0.2-0.04,0.31-0.04c0.11,0.01,0.21,0.03,0.3,0.07
	c0.09,0.04,0.15,0.09,0.2,0.16s0.05,0.15,0.01,0.25c-0.04,0.09-0.14,0.17-0.3,0.24c-0.16,0.07-0.36,0.14-0.6,0.2
	c-0.24,0.06-0.5,0.12-0.79,0.18c-0.29,0.06-0.59,0.12-0.88,0.18c-0.3,0.06-0.58,0.12-0.86,0.19c-0.27,0.07-0.51,0.15-0.72,0.24
	c-0.21,0.09-0.36,0.19-0.47,0.31c-0.11,0.12-0.15,0.25-0.12,0.4c0.14,0.05,0.36,0.12,0.66,0.22c0.29,0.1,0.62,0.21,0.99,0.35
	c0.36,0.13,0.74,0.27,1.13,0.42c0.39,0.15,0.75,0.3,1.08,0.45c0.33,0.15,0.62,0.29,0.86,0.43s0.39,0.25,0.46,0.35
	c0.14,0.22,0.19,0.42,0.17,0.63c-0.03,0.2-0.11,0.39-0.26,0.58s-0.34,0.36-0.58,0.53s-0.5,0.32-0.79,0.46s-0.59,0.27-0.9,0.38
	c-0.31,0.11-0.61,0.21-0.9,0.28s-0.55,0.14-0.78,0.18c-0.24,0.04-0.43,0.06-0.57,0.05c-0.08,0.01-0.19,0.01-0.33,0
	c-0.13-0.01-0.28-0.04-0.43-0.07c-0.15-0.04-0.31-0.08-0.46-0.14c-0.16-0.06-0.3-0.13-0.42-0.21c-0.13-0.08-0.23-0.17-0.31-0.27
	S138.27,124.41,138.28,124.29z"/>
<g>
	<path class="st0" d="M39.24,133.06l-3.11-0.19c-0.04,0-0.07-0.02-0.1-0.05c-0.03-0.03-0.06-0.08-0.08-0.13s-0.03-0.11-0.05-0.16
		s-0.02-0.1-0.02-0.14c0-0.13,0.04-0.26,0.13-0.39c0.09-0.13,0.19-0.19,0.31-0.19c0.71,0.03,1.42,0.08,2.13,0.14
		c0.72,0.06,1.43,0.11,2.15,0.14c0.72,0.03,1.43,0.03,2.14,0.01c0.71-0.02,1.42-0.1,2.12-0.23c0.05,0.02,0.1,0.06,0.14,0.14
		c0.04,0.08,0.07,0.17,0.09,0.27c0.02,0.1,0.04,0.2,0.05,0.31c0.01,0.1,0.02,0.18,0.02,0.24c-0.48,0.14-0.9,0.22-1.26,0.25
		c-0.36,0.03-0.71,0.04-1.05,0.03s-0.69-0.02-1.05-0.02s-0.78,0.02-1.25,0.09c-0.02,0.25-0.04,0.59-0.08,1.03
		c-0.03,0.44-0.07,0.92-0.11,1.44s-0.08,1.08-0.12,1.66c-0.04,0.58-0.07,1.14-0.09,1.69c-0.02,0.55-0.04,1.05-0.05,1.52
		c-0.01,0.47,0,0.85,0.03,1.15l-1.36,0.1L39.24,133.06z"/>
	<path class="st0" d="M44.37,137.41c-0.04-0.68,0.05-1.36,0.26-2.04c0.21-0.68,0.51-1.28,0.91-1.82c0.4-0.54,0.88-0.97,1.45-1.29
		c0.57-0.32,1.19-0.47,1.88-0.45c0.57-0.04,1.13,0.06,1.68,0.29c0.56,0.23,1.06,0.57,1.5,1.01s0.81,0.99,1.1,1.62
		c0.29,0.63,0.44,1.33,0.47,2.1c0,1.6-0.38,2.79-1.15,3.56c-0.76,0.77-1.93,1.16-3.49,1.16c-0.66,0-1.27-0.08-1.84-0.23
		c-0.56-0.16-1.05-0.4-1.46-0.73c-0.41-0.33-0.73-0.76-0.97-1.28C44.48,138.79,44.37,138.15,44.37,137.41z M45.56,137.17
		c0,1.16,0.29,2.02,0.87,2.59c0.58,0.57,1.44,0.85,2.59,0.85c0.58,0,1.08-0.09,1.52-0.26c0.44-0.17,0.81-0.42,1.1-0.75
		s0.52-0.71,0.67-1.15c0.15-0.45,0.23-0.94,0.23-1.49c-0.02-0.64-0.13-1.21-0.33-1.72c-0.2-0.51-0.46-0.94-0.79-1.31
		c-0.33-0.36-0.7-0.64-1.13-0.83c-0.43-0.19-0.89-0.29-1.38-0.29c-0.32-0.02-0.63,0.04-0.93,0.17c-0.3,0.13-0.58,0.3-0.83,0.52
		c-0.25,0.22-0.48,0.47-0.69,0.77c-0.21,0.3-0.38,0.61-0.52,0.93c-0.14,0.33-0.24,0.66-0.31,1
		C45.56,136.54,45.53,136.86,45.56,137.17z"/>
	<path class="st0" d="M63.72,140.96c-0.12-0.16-0.25-0.4-0.41-0.72c-0.16-0.33-0.33-0.69-0.52-1.1c-0.19-0.4-0.38-0.82-0.59-1.26
		c-0.21-0.44-0.41-0.84-0.61-1.21c-0.2-0.37-0.4-0.69-0.59-0.96c-0.19-0.26-0.36-0.43-0.52-0.49c-0.12,0.18-0.25,0.43-0.4,0.76
		c-0.15,0.33-0.31,0.7-0.48,1.11c-0.17,0.41-0.33,0.84-0.5,1.29c-0.17,0.45-0.33,0.89-0.48,1.31c-0.16,0.42-0.3,0.82-0.43,1.18
		c-0.13,0.37-0.23,0.66-0.32,0.89l-0.98,0.05l-3.82-9.47c-0.05-0.1-0.04-0.19,0.01-0.26c0.05-0.07,0.12-0.12,0.2-0.16
		c0.09-0.03,0.18-0.06,0.28-0.08c0.1-0.02,0.18-0.02,0.23-0.02c0.15,0,0.26,0.03,0.35,0.08c0.09,0.05,0.16,0.13,0.22,0.22
		c0.06,0.09,0.11,0.19,0.15,0.3c0.04,0.11,0.08,0.22,0.13,0.33c0.12,0.26,0.26,0.59,0.43,1.01c0.17,0.42,0.35,0.86,0.54,1.33
		s0.38,0.95,0.58,1.44c0.2,0.49,0.38,0.93,0.55,1.33c0.17,0.4,0.32,0.74,0.45,1.01s0.22,0.43,0.26,0.48
		c0.4-1.01,0.75-1.86,1.04-2.56s0.54-1.28,0.75-1.73c0.21-0.45,0.37-0.81,0.5-1.05c0.12-0.25,0.22-0.43,0.3-0.55
		s0.13-0.19,0.16-0.21c0.03-0.02,0.06-0.03,0.08-0.03c0.12,0,0.27,0.08,0.43,0.24s0.34,0.37,0.52,0.64s0.38,0.58,0.58,0.92
		c0.2,0.35,0.39,0.7,0.59,1.07c0.19,0.37,0.38,0.74,0.57,1.11c0.19,0.37,0.36,0.71,0.51,1.03c0.16,0.31,0.3,0.59,0.42,0.82
		s0.23,0.39,0.3,0.48c0.19-0.59,0.37-1.22,0.54-1.89c0.17-0.67,0.33-1.34,0.48-2.02c0.15-0.68,0.29-1.34,0.41-2
		c0.12-0.66,0.23-1.27,0.32-1.84c0.24,0,0.43,0.02,0.56,0.07c0.13,0.05,0.23,0.11,0.29,0.2c0.06,0.09,0.09,0.19,0.1,0.3
		c0.01,0.12,0.02,0.24,0.02,0.37c0.01-0.03-0.01,0.08-0.05,0.32s-0.1,0.59-0.17,1.04c-0.08,0.45-0.17,0.97-0.29,1.57
		c-0.11,0.6-0.24,1.24-0.39,1.92c-0.15,0.68-0.31,1.38-0.48,2.09c-0.17,0.71-0.35,1.41-0.55,2.07c-0.19,0.13-0.36,0.2-0.48,0.21
		c-0.13,0.01-0.24-0.03-0.33-0.11s-0.17-0.2-0.24-0.36S63.8,141.15,63.72,140.96z"/>
	<path class="st0" d="M67.27,142c-0.03,0.04-0.09,0.05-0.19,0.05c-0.1-0.01-0.2-0.03-0.3-0.07s-0.19-0.08-0.26-0.13
		c-0.07-0.05-0.1-0.09-0.09-0.13c0.06-0.16,0.15-0.38,0.26-0.68c0.11-0.3,0.24-0.65,0.38-1.04c0.14-0.39,0.3-0.81,0.46-1.26
		c0.16-0.45,0.33-0.91,0.5-1.38c0.17-0.47,0.34-0.93,0.51-1.38c0.17-0.45,0.32-0.88,0.46-1.26s0.26-0.73,0.37-1.03
		c0.11-0.3,0.19-0.53,0.26-0.69c0.06-0.18,0.1-0.34,0.13-0.5s0.06-0.28,0.11-0.39s0.13-0.19,0.23-0.25c0.1-0.06,0.27-0.09,0.5-0.09
		c0.37,0.29,0.68,0.64,0.93,1.04c0.26,0.41,0.48,0.82,0.68,1.25s0.38,0.83,0.56,1.22c0.17,0.39,0.36,0.7,0.57,0.94
		c0.06,0.09,0.15,0.15,0.26,0.16c0.11,0.01,0.24,0.01,0.38-0.01c0.14-0.02,0.28-0.05,0.43-0.09s0.27-0.06,0.39-0.08
		c0.12-0.01,0.21,0,0.29,0.03s0.11,0.11,0.11,0.24c0.03,0.16,0.02,0.29-0.03,0.38c-0.05,0.09-0.14,0.17-0.24,0.22
		s-0.23,0.09-0.36,0.12c-0.13,0.02-0.25,0.04-0.37,0.06c-0.11,0.02-0.21,0.03-0.28,0.06c-0.07,0.02-0.1,0.06-0.09,0.1
		c0.09,0.29,0.2,0.61,0.31,0.96c0.11,0.35,0.24,0.7,0.38,1.05s0.29,0.69,0.45,1.01c0.16,0.33,0.34,0.61,0.54,0.84
		c0,0.09-0.04,0.19-0.12,0.3s-0.18,0.2-0.29,0.28c-0.11,0.08-0.22,0.13-0.33,0.16s-0.18,0.02-0.23-0.03l-2.05-4.33l-3.97,0.98
		c-0.04,0.16-0.1,0.38-0.17,0.68c-0.08,0.3-0.17,0.62-0.28,0.96s-0.23,0.67-0.36,0.98C67.55,141.56,67.41,141.81,67.27,142z
		 M70.47,133.44c-0.1,0.4-0.22,0.78-0.35,1.15c-0.13,0.37-0.27,0.73-0.41,1.07c-0.14,0.34-0.28,0.67-0.41,0.98
		c-0.14,0.31-0.25,0.6-0.36,0.86c0.28,0,0.56-0.03,0.84-0.09c0.28-0.06,0.55-0.13,0.82-0.22s0.52-0.18,0.77-0.29
		s0.49-0.19,0.71-0.28c-0.06-0.14-0.15-0.35-0.26-0.64c-0.11-0.28-0.23-0.58-0.38-0.9c-0.14-0.32-0.3-0.63-0.47-0.93
		S70.64,133.62,70.47,133.44z"/>
	<path class="st0" d="M77.34,141.48c0,0.08-0.03,0.14-0.09,0.17s-0.12,0.07-0.2,0.08c-0.07,0.02-0.15,0.02-0.22,0.02s-0.12,0-0.15,0
		c-0.2,0-0.35-0.12-0.43-0.36s-0.14-0.58-0.16-1c-0.02-0.43-0.02-0.94,0.01-1.53s0.04-1.24,0.06-1.93c0.02-0.7,0.02-1.44,0.01-2.23
		c-0.01-0.78-0.06-1.59-0.16-2.41c0.09-0.16,0.19-0.25,0.3-0.27c0.1-0.02,0.2,0.01,0.3,0.07c0.09,0.06,0.18,0.14,0.26,0.24
		c0.08,0.1,0.14,0.19,0.19,0.26c0.24-0.23,0.58-0.41,1-0.53c0.43-0.12,0.89-0.2,1.39-0.23c0.5-0.03,1.01-0.02,1.53,0.04
		c0.52,0.06,0.99,0.15,1.42,0.27c0.43,0.12,0.78,0.28,1.07,0.47c0.28,0.19,0.44,0.4,0.47,0.63c0.03,0.23-0.1,0.49-0.38,0.76
		c-0.28,0.27-0.77,0.56-1.48,0.85c-0.11,0.05-0.28,0.11-0.5,0.19s-0.48,0.17-0.77,0.27c-0.29,0.1-0.58,0.2-0.89,0.31
		s-0.6,0.22-0.88,0.32c-0.28,0.1-0.52,0.2-0.73,0.29c-0.21,0.09-0.36,0.16-0.44,0.23c0,0.04,0.02,0.08,0.06,0.13
		s0.13,0.13,0.28,0.23c0.15,0.1,0.37,0.25,0.66,0.43c0.3,0.18,0.7,0.42,1.21,0.72c0.51,0.3,1.15,0.68,1.92,1.12
		c0.77,0.45,1.71,0.99,2.81,1.63c0.04,0.03,0.09,0.07,0.15,0.1s0.11,0.09,0.16,0.14c0.05,0.05,0.09,0.11,0.13,0.17
		c0.04,0.06,0.06,0.12,0.06,0.19c0,0.1-0.04,0.18-0.12,0.23c-0.08,0.05-0.17,0.09-0.28,0.11c-0.11,0.02-0.22,0.03-0.34,0.03
		s-0.21,0-0.29,0c-0.14,0.02-0.36-0.06-0.67-0.22s-0.66-0.38-1.06-0.64c-0.4-0.26-0.83-0.56-1.3-0.89
		c-0.47-0.33-0.93-0.66-1.39-0.98s-0.9-0.62-1.32-0.9c-0.42-0.28-0.78-0.5-1.08-0.66L77.34,141.48z M77.25,133.51
		c-0.07,0.11-0.11,0.25-0.13,0.44c-0.02,0.18-0.02,0.37,0.01,0.57c0.03,0.19,0.07,0.38,0.13,0.55c0.06,0.17,0.13,0.3,0.2,0.37
		c0.09,0.03,0.25,0.02,0.5-0.02s0.53-0.12,0.87-0.22c0.33-0.1,0.69-0.22,1.07-0.36c0.38-0.14,0.74-0.29,1.08-0.44
		c0.35-0.15,0.65-0.31,0.93-0.47s0.47-0.31,0.59-0.45c0.12-0.14,0.15-0.26,0.08-0.37c-0.07-0.11-0.28-0.19-0.62-0.26
		c-0.14-0.04-0.34-0.07-0.59-0.09c-0.26-0.02-0.54-0.03-0.86-0.03c-0.31,0-0.64,0.01-0.98,0.04c-0.34,0.03-0.66,0.07-0.97,0.13
		c-0.3,0.06-0.57,0.14-0.8,0.24C77.52,133.25,77.35,133.37,77.25,133.51z"/>
	<path class="st0" d="M86,131.77c0.03,0,0.1,0,0.2,0s0.2,0.01,0.31,0.03c0.1,0.02,0.2,0.05,0.29,0.1c0.09,0.05,0.15,0.12,0.17,0.21
		c0.28-0.09,0.67-0.16,1.17-0.2s1.04-0.03,1.63,0.02c0.59,0.05,1.18,0.15,1.78,0.31c0.6,0.16,1.15,0.38,1.64,0.66
		c0.49,0.29,0.9,0.65,1.21,1.1c0.31,0.44,0.47,0.98,0.47,1.61c0,0.46-0.1,0.9-0.3,1.33c-0.2,0.43-0.46,0.84-0.79,1.24
		c-0.33,0.39-0.72,0.76-1.16,1.11c-0.44,0.35-0.9,0.66-1.39,0.94c-0.48,0.28-0.97,0.53-1.47,0.74c-0.5,0.21-0.98,0.37-1.44,0.5
		c-0.46,0.12-0.88,0.19-1.26,0.22c-0.38,0.02-0.69-0.01-0.93-0.1L86,131.77z M93.89,135.72c-0.05-0.47-0.22-0.89-0.48-1.24
		c-0.27-0.35-0.6-0.64-1-0.87s-0.84-0.41-1.32-0.54s-0.96-0.21-1.43-0.25c-0.47-0.04-0.92-0.03-1.35,0.01
		c-0.43,0.05-0.78,0.13-1.07,0.24l0.13,7.66c0.32,0,0.7-0.07,1.15-0.2c0.45-0.13,0.91-0.31,1.4-0.55c0.49-0.23,0.97-0.51,1.44-0.83
		c0.48-0.32,0.9-0.67,1.28-1.04c0.38-0.37,0.68-0.76,0.91-1.17C93.78,136.54,93.89,136.13,93.89,135.72z"/>
	<path class="st0" d="M105.26,141.89c-0.06,0.05-0.15,0.07-0.27,0.08c-0.12,0-0.24-0.01-0.35-0.05c-0.11-0.04-0.21-0.1-0.28-0.17
		s-0.09-0.18-0.05-0.3c0.04-0.06,0.09-0.19,0.16-0.39s0.14-0.43,0.22-0.7c0.08-0.27,0.17-0.56,0.26-0.88
		c0.09-0.32,0.17-0.63,0.26-0.94c0.08-0.31,0.16-0.59,0.23-0.86c0.07-0.26,0.13-0.48,0.18-0.65l-4.06-4.38
		c-0.09-0.11-0.13-0.19-0.1-0.26c0.02-0.06,0.07-0.11,0.14-0.15c0.07-0.03,0.15-0.06,0.23-0.06s0.14-0.01,0.17-0.01
		c0.2,0,0.41,0.05,0.61,0.15c0.21,0.1,0.46,0.29,0.76,0.58c0.3,0.28,0.68,0.68,1.12,1.18s1.01,1.17,1.68,1.98
		c0.3-0.86,0.55-1.57,0.75-2.12c0.21-0.55,0.39-0.98,0.55-1.31s0.3-0.55,0.44-0.68c0.13-0.13,0.28-0.21,0.43-0.23
		c0.09,0,0.18,0.01,0.27,0.03c0.09,0.02,0.15,0.09,0.19,0.22c-0.2,0.43-0.39,0.9-0.58,1.42c-0.18,0.52-0.36,1.06-0.54,1.63
		c-0.18,0.57-0.36,1.15-0.54,1.75c-0.18,0.6-0.37,1.2-0.56,1.79c-0.19,0.59-0.4,1.17-0.62,1.74
		C105.74,140.85,105.5,141.39,105.26,141.89z"/>
	<path class="st0" d="M108.59,137.41c-0.04-0.68,0.05-1.36,0.26-2.04s0.51-1.28,0.91-1.82s0.88-0.97,1.45-1.29s1.19-0.47,1.88-0.45
		c0.57-0.04,1.13,0.06,1.68,0.29s1.06,0.57,1.5,1.01c0.45,0.45,0.81,0.99,1.1,1.62c0.29,0.63,0.44,1.33,0.47,2.1
		c0,1.6-0.38,2.79-1.15,3.56c-0.76,0.77-1.93,1.16-3.49,1.16c-0.66,0-1.27-0.08-1.84-0.23c-0.56-0.16-1.05-0.4-1.46-0.73
		c-0.41-0.33-0.73-0.76-0.97-1.28C108.71,138.79,108.59,138.15,108.59,137.41z M109.78,137.17c0,1.16,0.29,2.02,0.87,2.59
		c0.58,0.57,1.44,0.85,2.59,0.85c0.58,0,1.08-0.09,1.52-0.26c0.44-0.17,0.81-0.42,1.1-0.75c0.3-0.32,0.52-0.71,0.67-1.15
		c0.15-0.45,0.23-0.94,0.23-1.49c-0.02-0.64-0.13-1.21-0.33-1.72s-0.46-0.94-0.79-1.31c-0.33-0.36-0.7-0.64-1.13-0.83
		c-0.43-0.19-0.89-0.29-1.38-0.29c-0.32-0.02-0.63,0.04-0.93,0.17c-0.3,0.13-0.58,0.3-0.83,0.52c-0.25,0.22-0.48,0.47-0.69,0.77
		c-0.21,0.3-0.38,0.61-0.52,0.93c-0.14,0.33-0.24,0.66-0.31,1C109.78,136.54,109.75,136.86,109.78,137.17z"/>
	<path class="st0" d="M123.71,140.64c-0.33,0.25-0.66,0.46-0.99,0.62s-0.67,0.27-1.03,0.34c-0.36,0.07-0.76,0.09-1.21,0.06
		c-0.45-0.05-0.82-0.2-1.11-0.43c-0.29-0.23-0.51-0.52-0.67-0.88s-0.26-0.76-0.31-1.22c-0.05-0.46-0.06-0.94-0.04-1.45
		s0.07-1.03,0.14-1.56c0.07-0.53,0.15-1.05,0.23-1.56s0.16-0.99,0.24-1.44c0.08-0.45,0.13-0.86,0.16-1.21
		c0.03-0.01,0.09-0.01,0.19-0.02c0.09,0,0.16-0.01,0.19-0.01c0.26-0.03,0.44,0.06,0.52,0.28c0.08,0.22,0.11,0.52,0.08,0.9
		c-0.03,0.38-0.09,0.83-0.19,1.33c-0.1,0.51-0.19,1.03-0.29,1.57c-0.09,0.54-0.16,1.07-0.22,1.6s-0.04,1,0.02,1.43
		c0.07,0.42,0.21,0.78,0.44,1.06c0.23,0.28,0.56,0.45,1.01,0.5c0.62,0.02,1.15-0.09,1.57-0.33s0.78-0.57,1.07-0.99
		c0.28-0.42,0.51-0.91,0.67-1.47c0.16-0.56,0.29-1.15,0.37-1.77c0.09-0.62,0.14-1.25,0.17-1.88s0.05-1.24,0.06-1.82
		c0.05-0.15,0.11-0.25,0.19-0.32s0.16-0.1,0.26-0.11s0.19,0.01,0.29,0.06c0.1,0.05,0.21,0.11,0.31,0.19
		c0.05,0.69,0.06,1.43,0.05,2.23c-0.02,0.79-0.04,1.6-0.07,2.42c-0.03,0.82-0.06,1.64-0.09,2.45c-0.03,0.81-0.03,1.59-0.01,2.32
		c0,0.11-0.05,0.18-0.15,0.22s-0.22,0.05-0.34,0.04s-0.25-0.03-0.37-0.06s-0.19-0.07-0.21-0.11l0.15-1.86
		C124.4,140.09,124.04,140.39,123.71,140.64z"/>
</g>
<g>
	<path class="st0" d="M74.78,156.63c-0.04-0.65,0.04-1.29,0.24-1.93c0.2-0.64,0.49-1.21,0.87-1.72c0.38-0.51,0.84-0.91,1.37-1.22
		s1.13-0.45,1.78-0.42c0.54-0.04,1.07,0.05,1.59,0.27c0.53,0.22,1,0.54,1.42,0.96s0.77,0.93,1.04,1.53c0.27,0.6,0.42,1.26,0.44,1.99
		c0,1.52-0.36,2.64-1.09,3.37c-0.72,0.73-1.83,1.1-3.31,1.1c-0.63,0-1.2-0.07-1.74-0.22c-0.53-0.15-0.99-0.38-1.39-0.69
		s-0.7-0.72-0.92-1.21C74.89,157.94,74.78,157.33,74.78,156.63z M75.9,156.41c0,1.1,0.27,1.91,0.82,2.45s1.37,0.81,2.46,0.81
		c0.54,0,1.02-0.08,1.44-0.25s0.76-0.4,1.04-0.71c0.28-0.31,0.49-0.67,0.63-1.09c0.14-0.42,0.22-0.89,0.22-1.41
		c-0.02-0.6-0.13-1.15-0.31-1.63c-0.19-0.48-0.44-0.89-0.75-1.24c-0.31-0.34-0.67-0.61-1.07-0.79s-0.84-0.28-1.3-0.28
		c-0.3-0.01-0.59,0.04-0.88,0.16c-0.28,0.12-0.54,0.29-0.78,0.49s-0.46,0.45-0.66,0.73c-0.2,0.28-0.36,0.57-0.5,0.88
		c-0.13,0.31-0.23,0.62-0.3,0.94C75.9,155.81,75.88,156.11,75.9,156.41z"/>
	<path class="st0" d="M85.25,160.49c0,0.07-0.03,0.13-0.08,0.17c-0.06,0.04-0.12,0.06-0.19,0.08c-0.07,0.01-0.14,0.02-0.2,0.02
		s-0.11,0-0.14,0c-0.19,0-0.33-0.11-0.41-0.34c-0.08-0.23-0.13-0.54-0.15-0.95c-0.02-0.4-0.02-0.89,0.01-1.45s0.04-1.17,0.06-1.83
		c0.02-0.66,0.02-1.36,0.01-2.11c-0.01-0.74-0.06-1.51-0.15-2.28c0.09-0.15,0.18-0.24,0.28-0.25c0.1-0.01,0.19,0.01,0.28,0.07
		c0.09,0.06,0.17,0.14,0.24,0.23s0.13,0.18,0.18,0.24c0.23-0.22,0.54-0.39,0.95-0.5c0.4-0.11,0.84-0.19,1.32-0.22
		c0.47-0.03,0.96-0.02,1.45,0.04c0.49,0.06,0.94,0.14,1.35,0.26c0.4,0.12,0.74,0.26,1.01,0.44c0.27,0.18,0.42,0.38,0.44,0.6
		c0.03,0.22-0.09,0.46-0.36,0.72s-0.73,0.53-1.4,0.81c-0.1,0.04-0.26,0.1-0.47,0.18c-0.21,0.08-0.46,0.16-0.73,0.25
		s-0.55,0.19-0.84,0.29c-0.29,0.1-0.57,0.2-0.83,0.3s-0.5,0.19-0.7,0.28s-0.34,0.16-0.42,0.22c0,0.04,0.02,0.08,0.06,0.13
		c0.04,0.05,0.13,0.12,0.26,0.22s0.35,0.23,0.63,0.4c0.28,0.17,0.66,0.4,1.15,0.68c0.49,0.29,1.09,0.64,1.82,1.07
		c0.73,0.42,1.62,0.94,2.66,1.54c0.04,0.03,0.08,0.06,0.14,0.1s0.11,0.08,0.15,0.13c0.05,0.05,0.09,0.1,0.13,0.16
		c0.04,0.06,0.06,0.12,0.06,0.18c0,0.1-0.04,0.17-0.11,0.22c-0.07,0.05-0.16,0.08-0.26,0.1c-0.1,0.02-0.21,0.03-0.32,0.03
		s-0.2,0-0.28,0c-0.13,0.01-0.34-0.06-0.63-0.21c-0.29-0.15-0.63-0.36-1-0.61c-0.38-0.25-0.79-0.53-1.23-0.84s-0.88-0.62-1.31-0.93
		s-0.85-0.59-1.25-0.86s-0.74-0.47-1.03-0.63L85.25,160.49z M85.17,152.94c-0.07,0.1-0.11,0.24-0.13,0.41s-0.01,0.35,0.01,0.54
		c0.03,0.18,0.07,0.36,0.12,0.52c0.06,0.16,0.12,0.28,0.19,0.35c0.08,0.03,0.24,0.02,0.47-0.02c0.23-0.04,0.51-0.11,0.82-0.2
		s0.65-0.2,1.01-0.34c0.36-0.13,0.7-0.27,1.03-0.41c0.33-0.14,0.62-0.29,0.88-0.44c0.26-0.15,0.45-0.29,0.56-0.42
		c0.12-0.13,0.14-0.25,0.08-0.35c-0.07-0.1-0.26-0.18-0.58-0.24c-0.13-0.04-0.32-0.06-0.56-0.08c-0.24-0.02-0.51-0.03-0.81-0.03
		s-0.61,0.01-0.93,0.04c-0.32,0.03-0.63,0.07-0.92,0.12c-0.29,0.06-0.54,0.13-0.76,0.23C85.43,152.69,85.27,152.81,85.17,152.94z"/>
</g>
<path class="st0" d="M43.72,168.65l-3.18-0.19c-0.04,0-0.08-0.02-0.11-0.05c-0.03-0.04-0.06-0.08-0.08-0.14s-0.04-0.11-0.05-0.17
	c-0.01-0.06-0.02-0.1-0.02-0.14c0-0.14,0.04-0.27,0.13-0.4c0.09-0.13,0.19-0.2,0.32-0.2c0.72,0.03,1.45,0.08,2.18,0.14
	c0.73,0.06,1.46,0.11,2.2,0.14s1.46,0.04,2.19,0.01s1.45-0.1,2.16-0.24c0.06,0.02,0.1,0.06,0.14,0.14s0.07,0.17,0.1,0.27
	s0.04,0.21,0.05,0.32s0.02,0.19,0.02,0.24c-0.49,0.14-0.92,0.23-1.29,0.26s-0.73,0.04-1.08,0.03c-0.35-0.01-0.71-0.02-1.08-0.02
	c-0.37-0.01-0.8,0.02-1.28,0.1c-0.02,0.25-0.04,0.6-0.08,1.05c-0.04,0.44-0.07,0.94-0.11,1.48c-0.04,0.54-0.08,1.11-0.12,1.7
	c-0.04,0.59-0.07,1.17-0.1,1.73c-0.02,0.56-0.04,1.08-0.05,1.55s0,0.87,0.04,1.18l-1.39,0.11L43.72,168.65z"/>
<path class="st0" d="M48.96,173.09c-0.04-0.7,0.05-1.39,0.26-2.08c0.21-0.69,0.53-1.31,0.93-1.86c0.41-0.55,0.9-0.99,1.48-1.32
	s1.22-0.48,1.92-0.46c0.58-0.04,1.15,0.06,1.72,0.29c0.57,0.23,1.08,0.58,1.54,1.04c0.46,0.46,0.83,1.01,1.13,1.66
	c0.29,0.65,0.45,1.36,0.48,2.15c0,1.64-0.39,2.85-1.17,3.64c-0.78,0.79-1.97,1.19-3.57,1.19c-0.67,0-1.3-0.08-1.88-0.24
	c-0.58-0.16-1.07-0.41-1.49-0.74c-0.42-0.34-0.75-0.77-0.99-1.31C49.08,174.51,48.96,173.86,48.96,173.09z M50.18,172.86
	c0,1.18,0.3,2.06,0.89,2.64s1.48,0.87,2.65,0.87c0.59,0,1.11-0.09,1.55-0.27s0.82-0.43,1.13-0.76c0.3-0.33,0.53-0.72,0.68-1.18
	c0.15-0.46,0.23-0.96,0.23-1.52c-0.02-0.65-0.14-1.24-0.34-1.76c-0.2-0.52-0.47-0.96-0.8-1.33c-0.33-0.37-0.72-0.65-1.16-0.85
	s-0.91-0.3-1.41-0.3c-0.33-0.02-0.64,0.04-0.95,0.17c-0.31,0.13-0.59,0.31-0.85,0.53c-0.26,0.22-0.49,0.48-0.71,0.79
	c-0.21,0.3-0.39,0.62-0.54,0.95c-0.14,0.33-0.25,0.67-0.32,1.02C50.18,172.21,50.15,172.54,50.18,172.86z"/>
<path class="st0" d="M68.18,168.65L65,168.46c-0.04,0-0.08-0.02-0.11-0.05c-0.03-0.04-0.06-0.08-0.08-0.14s-0.04-0.11-0.05-0.17
	s-0.02-0.1-0.02-0.14c0-0.14,0.04-0.27,0.13-0.4s0.19-0.2,0.32-0.2c0.72,0.03,1.45,0.08,2.18,0.14c0.73,0.06,1.46,0.11,2.2,0.14
	c0.73,0.03,1.46,0.04,2.19,0.01s1.45-0.1,2.16-0.24c0.06,0.02,0.1,0.06,0.14,0.14s0.07,0.17,0.1,0.27c0.02,0.1,0.04,0.21,0.05,0.32
	s0.02,0.19,0.02,0.24c-0.49,0.14-0.92,0.23-1.29,0.26c-0.37,0.03-0.73,0.04-1.08,0.03c-0.35-0.01-0.71-0.02-1.08-0.02
	c-0.37-0.01-0.8,0.02-1.28,0.1c-0.02,0.25-0.04,0.6-0.08,1.05s-0.07,0.94-0.11,1.48c-0.04,0.54-0.08,1.11-0.12,1.7
	c-0.04,0.59-0.07,1.17-0.1,1.73c-0.02,0.56-0.04,1.08-0.05,1.55c-0.01,0.48,0,0.87,0.04,1.18l-1.39,0.11L68.18,168.65z"/>
<path class="st0" d="M74.5,173.59c-0.14-0.02-0.27-0.06-0.37-0.11s-0.15-0.13-0.15-0.25c0-0.1,0.04-0.21,0.11-0.31
	c0.08-0.1,0.16-0.21,0.25-0.32c0.09-0.11,0.18-0.22,0.26-0.35s0.13-0.26,0.14-0.4c0.01-0.1,0.02-0.26,0.03-0.48
	c0.01-0.22,0.02-0.47,0.04-0.74c0.01-0.28,0.03-0.57,0.04-0.88c0.02-0.31,0.03-0.6,0.04-0.88c0.01-0.28,0.02-0.53,0.02-0.74
	c0.01-0.22,0.01-0.38,0.01-0.48c0.06-0.06,0.13-0.13,0.23-0.18c0.1-0.06,0.2-0.1,0.3-0.13s0.2-0.02,0.29,0.02
	c0.09,0.04,0.16,0.12,0.21,0.26l-0.07,4.48c0.03-0.01,0.14-0.01,0.33-0.01s0.42,0,0.7-0.01c0.28,0,0.59-0.01,0.92-0.03
	s0.67-0.04,0.98-0.08c0.32-0.04,0.61-0.08,0.87-0.14c0.26-0.06,0.46-0.13,0.61-0.23l0.05-4.03c0.02-0.06,0.08-0.11,0.17-0.15
	c0.09-0.04,0.2-0.06,0.32-0.08c0.12-0.02,0.24-0.02,0.35-0.02s0.2,0,0.27,0.01c0,0.18,0,0.45,0.01,0.8
	c0.01,0.35,0.02,0.75,0.04,1.19c0.02,0.44,0.03,0.89,0.04,1.38s0.03,0.94,0.04,1.38c0.02,0.44,0.03,0.83,0.04,1.19
	s0.02,0.62,0.03,0.8c0.02,0.26,0.04,0.53,0.06,0.81s0.06,0.55,0.11,0.83s0.12,0.54,0.2,0.8c0.08,0.26,0.19,0.51,0.32,0.74
	c-0.23,0.23-0.46,0.37-0.68,0.42c-0.22,0.05-0.49,0-0.8-0.16c-0.14-0.34-0.26-0.71-0.35-1.11s-0.15-0.8-0.2-1.21
	c-0.05-0.41-0.08-0.81-0.1-1.21c-0.02-0.4-0.03-0.78-0.04-1.14c-0.41-0.01-0.79-0.01-1.12-0.02c-0.33,0-0.66,0.01-0.98,0.03
	s-0.64,0.07-0.98,0.15s-0.71,0.18-1.13,0.33c-0.02,0.29-0.04,0.61-0.05,0.96s-0.01,0.71,0,1.08c0.01,0.37,0.04,0.74,0.07,1.1
	c0.04,0.36,0.09,0.71,0.16,1.04l-1.12,0.12L74.5,173.59z"/>
<path class="st0" d="M83.01,167.46c0.21,0.06,0.49,0.09,0.85,0.1c0.36,0.01,0.76,0.01,1.19,0.01c0.43-0.01,0.89-0.02,1.36-0.04
	c0.47-0.02,0.92-0.02,1.35-0.02c0.42,0,0.81,0.01,1.16,0.04c0.35,0.03,0.62,0.08,0.82,0.15v0.74c-0.27,0.04-0.64,0.06-1.11,0.07
	c-0.47,0.01-0.97,0.01-1.5,0.02c-0.53,0-1.06,0.02-1.6,0.05c-0.53,0.03-1,0.09-1.39,0.17c-0.07,0.33-0.12,0.6-0.15,0.82
	c-0.03,0.22-0.05,0.41-0.07,0.57c-0.01,0.16-0.02,0.32-0.01,0.46c0,0.14,0.01,0.3,0.02,0.46c0.01,0.16,0.02,0.35,0.04,0.57
	c0.01,0.21,0.02,0.48,0.02,0.79c0.51,0,1-0.03,1.48-0.08c0.48-0.05,0.96-0.11,1.43-0.18c0.47-0.07,0.95-0.13,1.42-0.18
	s0.96-0.08,1.46-0.08v0.81l-5.69,0.71l0.08,3.03c0.75,0,1.42-0.02,2.02-0.07c0.6-0.04,1.18-0.09,1.72-0.14s1.08-0.09,1.61-0.14
	c0.53-0.04,1.1-0.07,1.69-0.07c0,0.09-0.02,0.19-0.07,0.32s-0.11,0.23-0.19,0.33c-0.08,0.1-0.17,0.17-0.27,0.23s-0.2,0.04-0.29-0.03
	c-0.55,0.06-1.15,0.13-1.82,0.18c-0.66,0.06-1.33,0.12-2.01,0.18c-0.68,0.06-1.33,0.11-1.97,0.17c-0.63,0.05-1.19,0.1-1.66,0.14
	L83.01,167.46z"/>
<path class="st0" d="M99.98,176.32c0-0.1,0.03-0.19,0.1-0.28c0.07-0.09,0.14-0.18,0.23-0.26s0.17-0.15,0.26-0.2
	c0.08-0.06,0.14-0.1,0.17-0.12c0.04,0.36,0.18,0.64,0.42,0.83c0.24,0.19,0.54,0.31,0.89,0.36c0.36,0.05,0.76,0.05,1.2-0.02
	c0.44-0.06,0.89-0.16,1.33-0.3c0.44-0.14,0.87-0.3,1.29-0.48s0.77-0.38,1.06-0.58c0.29-0.2,0.51-0.39,0.66-0.58
	c0.14-0.19,0.17-0.35,0.07-0.48l-6.21-2.47c-0.08-0.02-0.18-0.07-0.29-0.13c-0.11-0.06-0.22-0.13-0.33-0.2s-0.19-0.16-0.26-0.25
	c-0.07-0.09-0.11-0.18-0.11-0.28c0-0.37,0.14-0.71,0.41-1.02c0.27-0.31,0.63-0.59,1.05-0.83c0.43-0.24,0.91-0.45,1.43-0.64
	c0.52-0.18,1.03-0.34,1.52-0.46c0.49-0.12,0.94-0.22,1.35-0.28c0.41-0.06,0.71-0.1,0.91-0.12c0.13-0.04,0.26-0.06,0.41-0.05
	c0.15,0.01,0.28,0.04,0.39,0.09s0.2,0.12,0.26,0.21c0.06,0.09,0.07,0.2,0.02,0.33c-0.05,0.12-0.18,0.23-0.39,0.32
	s-0.48,0.18-0.79,0.26c-0.31,0.08-0.66,0.16-1.05,0.23c-0.39,0.08-0.77,0.15-1.17,0.23c-0.39,0.08-0.77,0.17-1.13,0.26
	c-0.36,0.09-0.68,0.2-0.95,0.32c-0.27,0.12-0.48,0.26-0.63,0.41c-0.14,0.15-0.19,0.33-0.15,0.53c0.19,0.06,0.48,0.16,0.87,0.29
	c0.39,0.13,0.82,0.28,1.3,0.46c0.48,0.17,0.98,0.36,1.49,0.56s0.99,0.4,1.44,0.6c0.44,0.2,0.82,0.39,1.14,0.57s0.52,0.33,0.61,0.46
	c0.18,0.29,0.26,0.56,0.22,0.83s-0.15,0.52-0.35,0.77c-0.19,0.25-0.45,0.48-0.77,0.7c-0.32,0.22-0.67,0.42-1.05,0.61
	c-0.38,0.19-0.78,0.35-1.19,0.5s-0.81,0.27-1.19,0.38s-0.72,0.18-1.04,0.23c-0.31,0.05-0.57,0.07-0.76,0.07
	c-0.11,0.02-0.26,0.02-0.43,0c-0.18-0.02-0.37-0.05-0.57-0.1s-0.41-0.11-0.61-0.19c-0.21-0.08-0.39-0.17-0.56-0.28
	c-0.17-0.11-0.3-0.23-0.4-0.36C100.02,176.62,99.97,176.48,99.98,176.32z"/>
<path class="st0" d="M109.85,177.44c-0.06-0.12-0.1-0.35-0.13-0.68c-0.03-0.34-0.05-0.74-0.06-1.21c-0.01-0.47-0.02-0.99-0.02-1.55
	c0-0.56,0-1.13,0.01-1.7c0.01-0.57,0.02-1.13,0.04-1.67c0.02-0.54,0.03-1.02,0.04-1.43c0.01-0.41,0.02-0.75,0.03-1
	c0.01-0.25,0.01-0.39,0.01-0.39c0.12-0.07,0.22-0.13,0.32-0.18s0.2-0.07,0.32-0.07c0.07,0,0.15,0.02,0.23,0.05
	c0.08,0.03,0.13,0.1,0.13,0.2l0.07,9.65c0,0.1-0.04,0.17-0.13,0.2c-0.08,0.03-0.16,0.05-0.23,0.05c-0.12,0-0.22-0.02-0.32-0.07
	C110.07,177.57,109.97,177.51,109.85,177.44z"/>
<path class="st0" d="M111.62,167.46c0.03,0,0.1,0,0.2,0s0.21,0.01,0.32,0.03c0.11,0.02,0.21,0.05,0.3,0.1s0.15,0.12,0.17,0.21
	c0.29-0.1,0.68-0.16,1.2-0.2c0.51-0.04,1.07-0.03,1.67,0.02s1.21,0.16,1.82,0.32c0.62,0.16,1.17,0.39,1.68,0.68
	c0.5,0.29,0.92,0.67,1.23,1.12c0.32,0.45,0.48,1,0.48,1.64c0,0.47-0.1,0.92-0.3,1.36s-0.47,0.86-0.81,1.26s-0.73,0.78-1.19,1.13
	s-0.92,0.67-1.42,0.96c-0.49,0.29-0.99,0.54-1.51,0.76c-0.51,0.21-1,0.38-1.47,0.51c-0.47,0.12-0.9,0.2-1.29,0.22
	c-0.39,0.02-0.71-0.01-0.95-0.11L111.62,167.46z M119.69,171.49c-0.06-0.48-0.22-0.91-0.49-1.26c-0.27-0.36-0.62-0.66-1.02-0.89
	c-0.41-0.24-0.86-0.42-1.35-0.55c-0.49-0.13-0.98-0.22-1.46-0.26c-0.48-0.04-0.95-0.04-1.38,0.01c-0.44,0.05-0.8,0.13-1.1,0.25
	l0.13,7.82c0.33,0,0.72-0.07,1.17-0.2c0.46-0.14,0.93-0.32,1.43-0.56c0.5-0.24,0.99-0.52,1.48-0.85s0.92-0.68,1.31-1.06
	s0.7-0.77,0.93-1.19C119.57,172.33,119.69,171.92,119.69,171.49z"/>
<path class="st0" d="M121.58,167.59c0.21,0.06,0.49,0.09,0.85,0.1c0.36,0.01,0.76,0.01,1.19,0.01c0.43-0.01,0.89-0.02,1.36-0.04
	c0.47-0.02,0.92-0.02,1.35-0.02c0.42,0,0.81,0.01,1.16,0.04s0.62,0.08,0.82,0.15v0.74c-0.27,0.04-0.64,0.06-1.11,0.07
	c-0.47,0.01-0.97,0.01-1.5,0.02c-0.53,0-1.06,0.02-1.6,0.05s-1,0.09-1.39,0.17c-0.07,0.33-0.12,0.6-0.15,0.82
	c-0.03,0.22-0.05,0.41-0.07,0.57c-0.01,0.16-0.02,0.32-0.01,0.46c0,0.14,0.01,0.3,0.02,0.46c0.01,0.16,0.02,0.35,0.04,0.57
	c0.01,0.21,0.02,0.48,0.02,0.79c0.51,0,1-0.03,1.48-0.08c0.48-0.05,0.96-0.11,1.43-0.18c0.47-0.07,0.95-0.13,1.42-0.18
	s0.96-0.08,1.46-0.08v0.81l-5.69,0.71l0.08,3.03c0.75,0,1.42-0.02,2.02-0.07c0.6-0.04,1.18-0.09,1.72-0.14
	c0.54-0.05,1.08-0.09,1.61-0.14c0.53-0.04,1.1-0.07,1.69-0.07c0,0.09-0.02,0.19-0.07,0.32s-0.11,0.23-0.19,0.33
	c-0.08,0.1-0.17,0.17-0.27,0.23c-0.1,0.05-0.2,0.04-0.29-0.03c-0.55,0.06-1.15,0.13-1.82,0.18c-0.66,0.06-1.33,0.12-2.01,0.18
	c-0.68,0.06-1.33,0.11-1.97,0.17c-0.63,0.05-1.19,0.1-1.66,0.14L121.58,167.59z"/>
<path class="st0" d="M130.76,177.69c-0.2-0.02-0.31-0.09-0.33-0.21c-0.02-0.11,0-0.24,0.07-0.36c0.07-0.13,0.17-0.24,0.3-0.33
	c0.13-0.1,0.25-0.13,0.36-0.1c0.21,0,0.35,0.04,0.42,0.13c0.08,0.09,0.11,0.21,0.11,0.37c0,0.12-0.03,0.21-0.09,0.28
	c-0.06,0.07-0.14,0.12-0.23,0.15c-0.09,0.03-0.19,0.05-0.3,0.06C130.96,177.68,130.86,177.69,130.76,177.69z"/>
<path class="st4" d="M40.53,145.64c0,0,49.83-0.88,85.13,0"/>
<path class="st4" d="M41.21,85.77c0,0,49.83-0.88,85.13,0"/>
<path class="st5" d="M41.21,39.44c0,0,49.83-0.88,85.13,0"/>
<path class="st4" d="M45.04,182.42c0,0,68.49,0,83.13,0"/>
</svg>
